<svg version="1.1" xmlns="http://www.w3.org/2000/svg" width="350" height="350"><defs><clipPath id="TtaOXVPQXeQL"><path fill="none" stroke="none" d="M 58.5 27.5 L 320.5 27.5 L 320.5 305.5 L 58.5 305.5 L 58.5 27.5 Z"/></clipPath><clipPath id="gATIWJPQrDmL"><path fill="none" stroke="none" d="M 58.5 27.5 L 320.5 27.5 L 320.5 305.5 L 58.5 305.5 L 58.5 27.5 Z"/></clipPath><clipPath id="wCHeteKzvsxC"><path fill="none" stroke="none" d="M 58.5 27.5 L 320.5 27.5 L 320.5 305.5 L 58.5 305.5 L 58.5 27.5 Z"/></clipPath><pattern id="IVDIlpeGkgZS" width="3" height="3" patternUnits="userSpaceOnUse"><path fill="rgb(0,0,0)" stroke="none" paint-order="stroke" d="M 2.75 2 A 0.75 0.75 0 0 0 1.25 2 A 0.75 0.75 0 0 0 2.75 2" fill-opacity="0.14901960784313725"/></pattern><clipPath id="DOCuUaZTwTmv"><path fill="none" stroke="none" d="M 58.5 27.5 L 320.5 27.5 L 320.5 305.5 L 58.5 305.5 L 58.5 27.5 Z"/></clipPath><clipPath id="RgqTVokMfLHr"><path fill="none" stroke="none" d="M 58.5 27.5 L 320.5 27.5 L 320.5 305.5 L 58.5 305.5 L 58.5 27.5 Z"/></clipPath><clipPath id="UxbQZkwurrZJ"><path fill="none" stroke="none" d="M 58.5 27.5 L 320.5 27.5 L 320.5 305.5 L 58.5 305.5 L 58.5 27.5 Z"/></clipPath><clipPath id="QinVUeSVNvCs"><path fill="none" stroke="none" d="M 58.5 27.5 L 320.5 27.5 L 320.5 305.5 L 58.5 305.5 L 58.5 27.5 Z"/></clipPath></defs><path fill="rgb(255,255,255)" stroke="none" paint-order="stroke" d="M 0.5 0.5 L 350.5 0.5 L 350.5 350.5 L 0.5 350.5 L 0.5 0.5 Z" fill-opacity="1"/><rect fill="#FFFFFF" stroke="none" x="58" y="27" width="262" height="278" transform="matrix(1, 0, 0, 1, 0.5, 0.5)"/><path fill="rgb(255,255,255)" stroke="none" paint-order="stroke" d="M 58.5 27.5 L 320.5 27.5 L 320.5 305.5 L 58.5 305.5 L 58.5 27.5 Z" fill-opacity="1"/><path fill="none" stroke="rgb(229,229,229)" paint-order="fill" d="M 58.5 27.5 L 320.5 27.5 L 320.5 305.5 L 58.5 305.5 L 58.5 27.5 Z" stroke-opacity="1" stroke-linejoin="bevel" stroke-miterlimit="10"/><path fill="none" stroke="rgb(229,229,229)" paint-order="fill" d="M 77.5 305.5 L 77.5 27.5 M 107.5 305.5 L 107.5 27.5 M 138.5 305.5 L 138.5 27.5 M 169.5 305.5 L 169.5 27.5 M 199.5 305.5 L 199.5 27.5 M 230.5 305.5 L 230.5 27.5 M 260.5 305.5 L 260.5 27.5 M 291.5 305.5 L 291.5 27.5" stroke-opacity="1" stroke-linejoin="bevel" stroke-miterlimit="10" clip-path="url(#TtaOXVPQXeQL)"/><path fill="none" stroke="rgb(229,229,229)" paint-order="fill" d="M 58.5 292.5 L 320.5 292.5 M 58.5 251.5 L 320.5 251.5 M 58.5 210.5 L 320.5 210.5 M 58.5 169.5 L 320.5 169.5 M 58.5 128.5 L 320.5 128.5 M 58.5 87.5 L 320.5 87.5 M 58.5 46.5 L 320.5 46.5" stroke-opacity="1" stroke-linejoin="bevel" stroke-miterlimit="10" clip-path="url(#gATIWJPQrDmL)"/><path fill="rgb(128,128,128)" stroke="none" paint-order="stroke" d="M 78.44348907470703 40.13636016845703 L 289.9797058105469 40.13636016845703 L 289.9797058105469 292.8636474609375 L 78.44348907470703 292.8636474609375 L 78.44348907470703 40.13636016845703 Z" fill-opacity="0.10196078431372549" clip-path="url(#wCHeteKzvsxC)"/><path fill="url(#IVDIlpeGkgZS)" stroke="rgb(0,0,0)" paint-order="fill" d="M 78.44348907470703 40.13636016845703 L 289.9797058105469 40.13636016845703 L 289.9797058105469 292.8636474609375 L 78.44348907470703 292.8636474609375 L 78.44348907470703 40.13636016845703 Z" clip-path="url(#wCHeteKzvsxC)" stroke-opacity="0.2" stroke-linejoin="bevel" stroke-miterlimit="10"/><path fill="rgb(100,149,237)" stroke="rgb(31,119,180)" paint-order="fill" d="M 78.44348907470703 223.7166290283203 L 99.59711456298828 223.7166290283203 L 99.59711456298828 292.8636474609375 L 78.44348907470703 292.8636474609375 L 78.44348907470703 223.7166290283203 Z" fill-opacity="1" clip-path="url(#DOCuUaZTwTmv)" stroke-opacity="1" stroke-linejoin="bevel" stroke-miterlimit="10"/><path fill="rgb(100,149,237)" stroke="rgb(31,119,180)" paint-order="fill" d="M 101.947509765625 40.1363639831543 L 123.10113525390625 40.1363639831543 L 123.10113525390625 292.8636474609375 L 101.947509765625 292.8636474609375 L 101.947509765625 40.1363639831543 Z" fill-opacity="1" clip-path="url(#DOCuUaZTwTmv)" stroke-opacity="1" stroke-linejoin="bevel" stroke-miterlimit="10"/><path fill="rgb(100,149,237)" stroke="rgb(31,119,180)" paint-order="fill" d="M 125.4515380859375 209.4103546142578 L 146.60516357421875 209.4103546142578 L 146.60516357421875 292.8636474609375 L 125.4515380859375 292.8636474609375 L 125.4515380859375 209.4103546142578 Z" fill-opacity="1" clip-path="url(#DOCuUaZTwTmv)" stroke-opacity="1" stroke-linejoin="bevel" stroke-miterlimit="10"/><path fill="rgb(100,149,237)" stroke="rgb(31,119,180)" paint-order="fill" d="M 148.95555114746094 292.8561096191406 L 170.1091766357422 292.8561096191406 L 170.1091766357422 292.8636474609375 L 148.95555114746094 292.8636474609375 L 148.95555114746094 292.8561096191406 Z" fill-opacity="1" clip-path="url(#DOCuUaZTwTmv)" stroke-opacity="1" stroke-linejoin="bevel" stroke-miterlimit="10"/><path fill="rgb(100,149,237)" stroke="rgb(31,119,180)" paint-order="fill" d="M 172.45957946777344 292.8636474609375 L 193.6132049560547 292.8636474609375 L 193.6132049560547 292.8636474609375 L 172.45957946777344 292.8636474609375 L 172.45957946777344 292.8636474609375 Z" fill-opacity="1" clip-path="url(#DOCuUaZTwTmv)" stroke-opacity="1" stroke-linejoin="bevel" stroke-miterlimit="10"/><path fill="rgb(100,149,237)" stroke="rgb(31,119,180)" paint-order="fill" d="M 195.96360778808594 292.8636474609375 L 217.1172332763672 292.8636474609375 L 217.1172332763672 292.8636474609375 L 195.96360778808594 292.8636474609375 L 195.96360778808594 292.8636474609375 Z" fill-opacity="1" clip-path="url(#DOCuUaZTwTmv)" stroke-opacity="1" stroke-linejoin="bevel" stroke-miterlimit="10"/><path fill="rgb(100,149,237)" stroke="rgb(31,119,180)" paint-order="fill" d="M 219.46762084960938 292.8636474609375 L 240.62124633789062 292.8636474609375 L 240.62124633789062 292.8636474609375 L 219.46762084960938 292.8636474609375 L 219.46762084960938 292.8636474609375 Z" fill-opacity="1" clip-path="url(#DOCuUaZTwTmv)" stroke-opacity="1" stroke-linejoin="bevel" stroke-miterlimit="10"/><path fill="rgb(100,149,237)" stroke="rgb(31,119,180)" paint-order="fill" d="M 242.97164916992188 292.8636474609375 L 264.1252746582031 292.8636474609375 L 264.1252746582031 292.8636474609375 L 242.97164916992188 292.8636474609375 L 242.97164916992188 292.8636474609375 Z" fill-opacity="1" clip-path="url(#DOCuUaZTwTmv)" stroke-opacity="1" stroke-linejoin="bevel" stroke-miterlimit="10"/><path fill="rgb(100,149,237)" stroke="rgb(31,119,180)" paint-order="fill" d="M 266.4756774902344 292.8636474609375 L 287.6293029785156 292.8636474609375 L 287.6293029785156 292.8636474609375 L 266.4756774902344 292.8636474609375 L 266.4756774902344 292.8636474609375 Z" fill-opacity="1" clip-path="url(#DOCuUaZTwTmv)" stroke-opacity="1" stroke-linejoin="bevel" stroke-miterlimit="10"/><path fill="rgb(100,149,237)" stroke="rgb(31,119,180)" paint-order="fill" d="M 289.9797058105469 292.8636474609375 L 311.1333312988281 292.8636474609375 L 311.1333312988281 292.8636474609375 L 289.9797058105469 292.8636474609375 L 289.9797058105469 292.8636474609375 Z" fill-opacity="1" clip-path="url(#DOCuUaZTwTmv)" stroke-opacity="1" stroke-linejoin="bevel" stroke-miterlimit="10"/><path fill="none" stroke="rgb(0,0,0)" paint-order="fill" d="M 58.5 305.5 L 320.5 305.5" stroke-opacity="1" stroke-linejoin="bevel" stroke-miterlimit="10"/><path fill="none" stroke="rgb(0,0,0)" paint-order="fill" d="M 77.5 311.5 L 77.5 303.5 M 107.5 311.5 L 107.5 303.5 M 138.5 311.5 L 138.5 303.5 M 169.5 311.5 L 169.5 303.5 M 199.5 311.5 L 199.5 303.5 M 230.5 311.5 L 230.5 303.5 M 260.5 311.5 L 260.5 303.5 M 291.5 311.5 L 291.5 303.5" stroke-opacity="1" stroke-linejoin="bevel" stroke-miterlimit="10"/><path fill="none" stroke="rgb(0,0,0)" paint-order="fill" d="M 71.5 309.5 L 71.5 305.5 M 65.5 309.5 L 65.5 305.5 M 58.5 309.5 L 58.5 305.5 M 77.5 309.5 L 77.5 305.5 M 83.5 309.5 L 83.5 305.5 M 89.5 309.5 L 89.5 305.5 M 95.5 309.5 L 95.5 305.5 M 101.5 309.5 L 101.5 305.5 M 107.5 309.5 L 107.5 305.5 M 114.5 309.5 L 114.5 305.5 M 120.5 309.5 L 120.5 305.5 M 126.5 309.5 L 126.5 305.5 M 132.5 309.5 L 132.5 305.5 M 138.5 309.5 L 138.5 305.5 M 144.5 309.5 L 144.5 305.5 M 150.5 309.5 L 150.5 305.5 M 156.5 309.5 L 156.5 305.5 M 163.5 309.5 L 163.5 305.5 M 169.5 309.5 L 169.5 305.5 M 175.5 309.5 L 175.5 305.5 M 181.5 309.5 L 181.5 305.5 M 187.5 309.5 L 187.5 305.5 M 193.5 309.5 L 193.5 305.5 M 199.5 309.5 L 199.5 305.5 M 205.5 309.5 L 205.5 305.5 M 211.5 309.5 L 211.5 305.5 M 218.5 309.5 L 218.5 305.5 M 224.5 309.5 L 224.5 305.5 M 230.5 309.5 L 230.5 305.5 M 236.5 309.5 L 236.5 305.5 M 242.5 309.5 L 242.5 305.5 M 248.5 309.5 L 248.5 305.5 M 254.5 309.5 L 254.5 305.5 M 260.5 309.5 L 260.5 305.5 M 267.5 309.5 L 267.5 305.5 M 273.5 309.5 L 273.5 305.5 M 279.5 309.5 L 279.5 305.5 M 285.5 309.5 L 285.5 305.5 M 291.5 309.5 L 291.5 305.5 M 297.5 309.5 L 297.5 305.5 M 303.5 309.5 L 303.5 305.5 M 309.5 309.5 L 309.5 305.5 M 316.5 309.5 L 316.5 305.5" stroke-opacity="1" stroke-linejoin="bevel" stroke-miterlimit="10"/><text fill="rgb(68,68,68)" stroke="none" font-family="helvetica" font-size="11px" font-style="normal" font-weight="normal" text-decoration="normal" x="69.19622039794922" y="324" text-anchor="start" dominant-baseline="alphabetic" transform="matrix(1, 0, 0, 1, 0.5, 0.5)" fill-opacity="1">2.6</text><text fill="none" stroke="rgb(0,0,0)" font-family="helvetica" font-size="11px" font-style="normal" font-weight="normal" text-decoration="normal" x="69.19622039794922" y="324" text-anchor="start" dominant-baseline="alphabetic" transform="matrix(1, 0, 0, 1, 0.5, 0.5)" stroke-opacity="0" stroke-linejoin="bevel" stroke-miterlimit="10">2.6</text><text fill="rgb(68,68,68)" stroke="none" font-family="helvetica" font-size="11px" font-style="normal" font-weight="normal" text-decoration="normal" x="99.79378509521484" y="324" text-anchor="start" dominant-baseline="alphabetic" transform="matrix(1, 0, 0, 1, 0.5, 0.5)" fill-opacity="1">2.8</text><text fill="none" stroke="rgb(0,0,0)" font-family="helvetica" font-size="11px" font-style="normal" font-weight="normal" text-decoration="normal" x="99.79378509521484" y="324" text-anchor="start" dominant-baseline="alphabetic" transform="matrix(1, 0, 0, 1, 0.5, 0.5)" stroke-opacity="0" stroke-linejoin="bevel" stroke-miterlimit="10">2.8</text><text fill="rgb(68,68,68)" stroke="none" font-family="helvetica" font-size="11px" font-style="normal" font-weight="normal" text-decoration="normal" x="134.97825622558594" y="324" text-anchor="start" dominant-baseline="alphabetic" transform="matrix(1, 0, 0, 1, 0.5, 0.5)" fill-opacity="1">3</text><text fill="none" stroke="rgb(0,0,0)" font-family="helvetica" font-size="11px" font-style="normal" font-weight="normal" text-decoration="normal" x="134.97825622558594" y="324" text-anchor="start" dominant-baseline="alphabetic" transform="matrix(1, 0, 0, 1, 0.5, 0.5)" stroke-opacity="0" stroke-linejoin="bevel" stroke-miterlimit="10">3</text><text fill="rgb(68,68,68)" stroke="none" font-family="helvetica" font-size="11px" font-style="normal" font-weight="normal" text-decoration="normal" x="160.9888916015625" y="324" text-anchor="start" dominant-baseline="alphabetic" transform="matrix(1, 0, 0, 1, 0.5, 0.5)" fill-opacity="1">3.2</text><text fill="none" stroke="rgb(0,0,0)" font-family="helvetica" font-size="11px" font-style="normal" font-weight="normal" text-decoration="normal" x="160.9888916015625" y="324" text-anchor="start" dominant-baseline="alphabetic" transform="matrix(1, 0, 0, 1, 0.5, 0.5)" stroke-opacity="0" stroke-linejoin="bevel" stroke-miterlimit="10">3.2</text><text fill="rgb(68,68,68)" stroke="none" font-family="helvetica" font-size="11px" font-style="normal" font-weight="normal" text-decoration="normal" x="191.58645629882812" y="324" text-anchor="start" dominant-baseline="alphabetic" transform="matrix(1, 0, 0, 1, 0.5, 0.5)" fill-opacity="1">3.4</text><text fill="none" stroke="rgb(0,0,0)" font-family="helvetica" font-size="11px" font-style="normal" font-weight="normal" text-decoration="normal" x="191.58645629882812" y="324" text-anchor="start" dominant-baseline="alphabetic" transform="matrix(1, 0, 0, 1, 0.5, 0.5)" stroke-opacity="0" stroke-linejoin="bevel" stroke-miterlimit="10">3.4</text><text fill="rgb(68,68,68)" stroke="none" font-family="helvetica" font-size="11px" font-style="normal" font-weight="normal" text-decoration="normal" x="222.1840057373047" y="324" text-anchor="start" dominant-baseline="alphabetic" transform="matrix(1, 0, 0, 1, 0.5, 0.5)" fill-opacity="1">3.6</text><text fill="none" stroke="rgb(0,0,0)" font-family="helvetica" font-size="11px" font-style="normal" font-weight="normal" text-decoration="normal" x="222.1840057373047" y="324" text-anchor="start" dominant-baseline="alphabetic" transform="matrix(1, 0, 0, 1, 0.5, 0.5)" stroke-opacity="0" stroke-linejoin="bevel" stroke-miterlimit="10">3.6</text><text fill="rgb(68,68,68)" stroke="none" font-family="helvetica" font-size="11px" font-style="normal" font-weight="normal" text-decoration="normal" x="252.78155517578125" y="324" text-anchor="start" dominant-baseline="alphabetic" transform="matrix(1, 0, 0, 1, 0.5, 0.5)" fill-opacity="1">3.8</text><text fill="none" stroke="rgb(0,0,0)" font-family="helvetica" font-size="11px" font-style="normal" font-weight="normal" text-decoration="normal" x="252.78155517578125" y="324" text-anchor="start" dominant-baseline="alphabetic" transform="matrix(1, 0, 0, 1, 0.5, 0.5)" stroke-opacity="0" stroke-linejoin="bevel" stroke-miterlimit="10">3.8</text><text fill="rgb(68,68,68)" stroke="none" font-family="helvetica" font-size="11px" font-style="normal" font-weight="normal" text-decoration="normal" x="287.9660339355469" y="324" text-anchor="start" dominant-baseline="alphabetic" transform="matrix(1, 0, 0, 1, 0.5, 0.5)" fill-opacity="1">4</text><text fill="none" stroke="rgb(0,0,0)" font-family="helvetica" font-size="11px" font-style="normal" font-weight="normal" text-decoration="normal" x="287.9660339355469" y="324" text-anchor="start" dominant-baseline="alphabetic" transform="matrix(1, 0, 0, 1, 0.5, 0.5)" stroke-opacity="0" stroke-linejoin="bevel" stroke-miterlimit="10">4</text><text fill="rgb(68,68,68)" stroke="none" font-family="helvetica" font-size="13px" font-style="italic" font-weight="normal" text-decoration="normal" x="154.67822265625" y="344" text-anchor="start" dominant-baseline="alphabetic" transform="matrix(1, 0, 0, 1, 0.5, 0.5)" fill-opacity="1">Aspect ratio</text><text fill="none" stroke="rgb(0,0,0)" font-family="helvetica" font-size="13px" font-style="italic" font-weight="normal" text-decoration="normal" x="154.67822265625" y="344" text-anchor="start" dominant-baseline="alphabetic" transform="matrix(1, 0, 0, 1, 0.5, 0.5)" stroke-opacity="0" stroke-linejoin="bevel" stroke-miterlimit="10">Aspect ratio</text><path fill="none" stroke="rgb(0,0,0)" paint-order="fill" d="M 58.5 305.5 L 58.5 27.5" stroke-opacity="1" stroke-linejoin="bevel" stroke-miterlimit="10"/><path fill="none" stroke="rgb(0,0,0)" paint-order="fill" d="M 52.5 292.5 L 60.5 292.5 M 52.5 251.5 L 60.5 251.5 M 52.5 210.5 L 60.5 210.5 M 52.5 169.5 L 60.5 169.5 M 52.5 128.5 L 60.5 128.5 M 52.5 87.5 L 60.5 87.5 M 52.5 46.5 L 60.5 46.5" stroke-opacity="1" stroke-linejoin="bevel" stroke-miterlimit="10"/><path fill="none" stroke="rgb(0,0,0)" paint-order="fill" d="M 54.5 301.5 L 58.5 301.5 M 54.5 292.5 L 58.5 292.5 M 54.5 284.5 L 58.5 284.5 M 54.5 276.5 L 58.5 276.5 M 54.5 268.5 L 58.5 268.5 M 54.5 260.5 L 58.5 260.5 M 54.5 251.5 L 58.5 251.5 M 54.5 243.5 L 58.5 243.5 M 54.5 235.5 L 58.5 235.5 M 54.5 227.5 L 58.5 227.5 M 54.5 219.5 L 58.5 219.5 M 54.5 210.5 L 58.5 210.5 M 54.5 202.5 L 58.5 202.5 M 54.5 194.5 L 58.5 194.5 M 54.5 186.5 L 58.5 186.5 M 54.5 178.5 L 58.5 178.5 M 54.5 169.5 L 58.5 169.5 M 54.5 161.5 L 58.5 161.5 M 54.5 153.5 L 58.5 153.5 M 54.5 145.5 L 58.5 145.5 M 54.5 137.5 L 58.5 137.5 M 54.5 128.5 L 58.5 128.5 M 54.5 120.5 L 58.5 120.5 M 54.5 112.5 L 58.5 112.5 M 54.5 104.5 L 58.5 104.5 M 54.5 95.5 L 58.5 95.5 M 54.5 87.5 L 58.5 87.5 M 54.5 79.5 L 58.5 79.5 M 54.5 71.5 L 58.5 71.5 M 54.5 63.5 L 58.5 63.5 M 54.5 54.5 L 58.5 54.5 M 54.5 46.5 L 58.5 46.5 M 54.5 38.5 L 58.5 38.5 M 54.5 30.5 L 58.5 30.5" stroke-opacity="1" stroke-linejoin="bevel" stroke-miterlimit="10"/><text fill="rgb(68,68,68)" stroke="none" font-family="helvetica" font-size="11px" font-style="normal" font-weight="normal" text-decoration="normal" x="40.88232421875" y="296.3636474609375" text-anchor="start" dominant-baseline="alphabetic" transform="matrix(1, 0, 0, 1, 0.5, 0.5)" fill-opacity="1">0</text><text fill="none" stroke="rgb(0,0,0)" font-family="helvetica" font-size="11px" font-style="normal" font-weight="normal" text-decoration="normal" x="40.88232421875" y="296.3636474609375" text-anchor="start" dominant-baseline="alphabetic" transform="matrix(1, 0, 0, 1, 0.5, 0.5)" stroke-opacity="0" stroke-linejoin="bevel" stroke-miterlimit="10">0</text><text fill="rgb(68,68,68)" stroke="none" font-family="helvetica" font-size="11px" font-style="normal" font-weight="normal" text-decoration="normal" x="25.5908203125" y="255.34930419921875" text-anchor="start" dominant-baseline="alphabetic" transform="matrix(1, 0, 0, 1, 0.5, 0.5)" fill-opacity="1">0.05</text><text fill="none" stroke="rgb(0,0,0)" font-family="helvetica" font-size="11px" font-style="normal" font-weight="normal" text-decoration="normal" x="25.5908203125" y="255.34930419921875" text-anchor="start" dominant-baseline="alphabetic" transform="matrix(1, 0, 0, 1, 0.5, 0.5)" stroke-opacity="0" stroke-linejoin="bevel" stroke-miterlimit="10">0.05</text><text fill="rgb(68,68,68)" stroke="none" font-family="helvetica" font-size="11px" font-style="normal" font-weight="normal" text-decoration="normal" x="31.70849609375" y="214.3349609375" text-anchor="start" dominant-baseline="alphabetic" transform="matrix(1, 0, 0, 1, 0.5, 0.5)" fill-opacity="1">0.1</text><text fill="none" stroke="rgb(0,0,0)" font-family="helvetica" font-size="11px" font-style="normal" font-weight="normal" text-decoration="normal" x="31.70849609375" y="214.3349609375" text-anchor="start" dominant-baseline="alphabetic" transform="matrix(1, 0, 0, 1, 0.5, 0.5)" stroke-opacity="0" stroke-linejoin="bevel" stroke-miterlimit="10">0.1</text><text fill="rgb(68,68,68)" stroke="none" font-family="helvetica" font-size="11px" font-style="normal" font-weight="normal" text-decoration="normal" x="25.5908203125" y="173.32061767578125" text-anchor="start" dominant-baseline="alphabetic" transform="matrix(1, 0, 0, 1, 0.5, 0.5)" fill-opacity="1">0.15</text><text fill="none" stroke="rgb(0,0,0)" font-family="helvetica" font-size="11px" font-style="normal" font-weight="normal" text-decoration="normal" x="25.5908203125" y="173.32061767578125" text-anchor="start" dominant-baseline="alphabetic" transform="matrix(1, 0, 0, 1, 0.5, 0.5)" stroke-opacity="0" stroke-linejoin="bevel" stroke-miterlimit="10">0.15</text><text fill="rgb(68,68,68)" stroke="none" font-family="helvetica" font-size="11px" font-style="normal" font-weight="normal" text-decoration="normal" x="31.70849609375" y="132.3062744140625" text-anchor="start" dominant-baseline="alphabetic" transform="matrix(1, 0, 0, 1, 0.5, 0.5)" fill-opacity="1">0.2</text><text fill="none" stroke="rgb(0,0,0)" font-family="helvetica" font-size="11px" font-style="normal" font-weight="normal" text-decoration="normal" x="31.70849609375" y="132.3062744140625" text-anchor="start" dominant-baseline="alphabetic" transform="matrix(1, 0, 0, 1, 0.5, 0.5)" stroke-opacity="0" stroke-linejoin="bevel" stroke-miterlimit="10">0.2</text><text fill="rgb(68,68,68)" stroke="none" font-family="helvetica" font-size="11px" font-style="normal" font-weight="normal" text-decoration="normal" x="25.5908203125" y="91.29193878173828" text-anchor="start" dominant-baseline="alphabetic" transform="matrix(1, 0, 0, 1, 0.5, 0.5)" fill-opacity="1">0.25</text><text fill="none" stroke="rgb(0,0,0)" font-family="helvetica" font-size="11px" font-style="normal" font-weight="normal" text-decoration="normal" x="25.5908203125" y="91.29193878173828" text-anchor="start" dominant-baseline="alphabetic" transform="matrix(1, 0, 0, 1, 0.5, 0.5)" stroke-opacity="0" stroke-linejoin="bevel" stroke-miterlimit="10">0.25</text><text fill="rgb(68,68,68)" stroke="none" font-family="helvetica" font-size="11px" font-style="normal" font-weight="normal" text-decoration="normal" x="31.70849609375" y="50.27760314941406" text-anchor="start" dominant-baseline="alphabetic" transform="matrix(1, 0, 0, 1, 0.5, 0.5)" fill-opacity="1">0.3</text><text fill="none" stroke="rgb(0,0,0)" font-family="helvetica" font-size="11px" font-style="normal" font-weight="normal" text-decoration="normal" x="31.70849609375" y="50.27760314941406" text-anchor="start" dominant-baseline="alphabetic" transform="matrix(1, 0, 0, 1, 0.5, 0.5)" stroke-opacity="0" stroke-linejoin="bevel" stroke-miterlimit="10">0.3</text><text fill="rgb(68,68,68)" stroke="none" font-family="helvetica" font-size="13px" font-style="italic" font-weight="normal" text-decoration="normal" x="-47.4345703125" y="163" text-anchor="start" dominant-baseline="alphabetic" transform="matrix(6.123233995736766e-17, -1, 1, 6.123233995736766e-17, -147.9091796875, 184.0908203125)" fill-opacity="1">Normalised Probability</text><text fill="none" stroke="rgb(0,0,0)" font-family="helvetica" font-size="13px" font-style="italic" font-weight="normal" text-decoration="normal" x="-47.4345703125" y="163" text-anchor="start" dominant-baseline="alphabetic" transform="matrix(6.123233995736766e-17, -1, 1, 6.123233995736766e-17, -147.9091796875, 184.0908203125)" stroke-opacity="0" stroke-linejoin="bevel" stroke-miterlimit="10">Normalised Probability</text><path fill="rgb(255,249,186)" stroke="rgb(255,0,0)" paint-order="fill" d="M 187.73000295142964 40.13636363636368 L 187.73000295142964 40.13636363636368 L 187.73000295142964 292.8636363636364 L 187.73000295142964 292.8636363636364 L 187.73000295142964 40.13636363636368 Z" fill-opacity="0.4" clip-path="url(#RgqTVokMfLHr)" stroke-opacity="1" stroke-linejoin="bevel" stroke-miterlimit="10" stroke-width="2" stroke-dasharray="6"/><path fill="rgb(255,249,186)" stroke="rgb(50,205,50)" paint-order="fill" d="M 112.52432233320008 40.13636363636368 L 112.52432233320008 40.13636363636368 L 112.52432233320008 292.8636363636364 L 112.52432233320008 292.8636363636364 L 112.52432233320008 40.13636363636368 Z" fill-opacity="0.4" clip-path="url(#UxbQZkwurrZJ)" stroke-opacity="1" stroke-linejoin="bevel" stroke-miterlimit="10" stroke-width="2" stroke-dasharray="6"/><text fill="rgb(68,68,68)" stroke="none" font-family="helvetica" font-size="13px" font-style="normal" font-weight="bold" text-decoration="normal" x="58" y="19" text-anchor="start" dominant-baseline="alphabetic" transform="matrix(1, 0, 0, 1, 0.5, 0.5)" fill-opacity="1">Convergance Probability</text><text fill="none" stroke="rgb(0,0,0)" font-family="helvetica" font-size="13px" font-style="normal" font-weight="bold" text-decoration="normal" x="58" y="19" text-anchor="start" dominant-baseline="alphabetic" transform="matrix(1, 0, 0, 1, 0.5, 0.5)" stroke-opacity="0" stroke-miterlimit="10" stroke-dasharray="">Convergance Probability</text></svg>