<svg version="1.1" xmlns="http://www.w3.org/2000/svg" width="350" height="350"><defs><clipPath id="uLcTOTcXULsW"><path fill="none" stroke="none" d="M 58.5 27.5 L 320.5 27.5 L 320.5 305.5 L 58.5 305.5 L 58.5 27.5 Z"/></clipPath><clipPath id="scEwCDhdOJKZ"><path fill="none" stroke="none" d="M 58.5 27.5 L 320.5 27.5 L 320.5 305.5 L 58.5 305.5 L 58.5 27.5 Z"/></clipPath><clipPath id="EerTvVdeaaAw"><path fill="none" stroke="none" d="M 58.5 27.5 L 320.5 27.5 L 320.5 305.5 L 58.5 305.5 L 58.5 27.5 Z"/></clipPath><pattern id="DdWRBuuUelLm" width="3" height="3" patternUnits="userSpaceOnUse"><path fill="rgb(0,0,0)" stroke="none" paint-order="stroke" d="M 2.75 2 A 0.75 0.75 0 0 0 1.25 2 A 0.75 0.75 0 0 0 2.75 2" fill-opacity="0.14901960784313725"/></pattern><clipPath id="QyRfQFdfsgOo"><path fill="none" stroke="none" d="M 58.5 27.5 L 320.5 27.5 L 320.5 305.5 L 58.5 305.5 L 58.5 27.5 Z"/></clipPath><clipPath id="BfPikRlGiNtB"><path fill="none" stroke="none" d="M 58.5 27.5 L 320.5 27.5 L 320.5 305.5 L 58.5 305.5 L 58.5 27.5 Z"/></clipPath><clipPath id="fDcCAqigIJnF"><path fill="none" stroke="none" d="M 58.5 27.5 L 320.5 27.5 L 320.5 305.5 L 58.5 305.5 L 58.5 27.5 Z"/></clipPath><clipPath id="WsuHVHsNrulV"><path fill="none" stroke="none" d="M 58.5 27.5 L 320.5 27.5 L 320.5 305.5 L 58.5 305.5 L 58.5 27.5 Z"/></clipPath></defs><path fill="rgb(255,255,255)" stroke="none" paint-order="stroke" d="M 0.5 0.5 L 350.5 0.5 L 350.5 350.5 L 0.5 350.5 L 0.5 0.5 Z" fill-opacity="1"/><rect fill="#FFFFFF" stroke="none" x="58" y="27" width="262" height="278" transform="matrix(1, 0, 0, 1, 0.5, 0.5)"/><path fill="rgb(255,255,255)" stroke="none" paint-order="stroke" d="M 58.5 27.5 L 320.5 27.5 L 320.5 305.5 L 58.5 305.5 L 58.5 27.5 Z" fill-opacity="1"/><path fill="none" stroke="rgb(229,229,229)" paint-order="fill" d="M 58.5 27.5 L 320.5 27.5 L 320.5 305.5 L 58.5 305.5 L 58.5 27.5 Z" stroke-opacity="1" stroke-linejoin="bevel" stroke-miterlimit="10"/><path fill="none" stroke="rgb(229,229,229)" paint-order="fill" d="M 79.5 305.5 L 79.5 27.5 M 149.5 305.5 L 149.5 27.5 M 219.5 305.5 L 219.5 27.5 M 289.5 305.5 L 289.5 27.5" stroke-opacity="1" stroke-linejoin="bevel" stroke-miterlimit="10" clip-path="url(#uLcTOTcXULsW)"/><path fill="none" stroke="rgb(229,229,229)" paint-order="fill" d="M 58.5 292.5 L 320.5 292.5 M 58.5 246.5 L 320.5 246.5 M 58.5 200.5 L 320.5 200.5 M 58.5 154.5 L 320.5 154.5 M 58.5 108.5 L 320.5 108.5 M 58.5 62.5 L 320.5 62.5" stroke-opacity="1" stroke-linejoin="bevel" stroke-miterlimit="10" clip-path="url(#scEwCDhdOJKZ)"/><path fill="rgb(128,128,128)" stroke="none" paint-order="stroke" d="M 79.4923095703125 40.13636016845703 L 289.03076171875 40.13636016845703 L 289.03076171875 292.8636474609375 L 79.4923095703125 292.8636474609375 L 79.4923095703125 40.13636016845703 Z" fill-opacity="0.10196078431372549" clip-path="url(#EerTvVdeaaAw)"/><path fill="url(#DdWRBuuUelLm)" stroke="rgb(0,0,0)" paint-order="fill" d="M 79.4923095703125 40.13636016845703 L 289.03076171875 40.13636016845703 L 289.03076171875 292.8636474609375 L 79.4923095703125 292.8636474609375 L 79.4923095703125 40.13636016845703 Z" clip-path="url(#EerTvVdeaaAw)" stroke-opacity="0.2" stroke-linejoin="bevel" stroke-miterlimit="10"/><path fill="rgb(100,149,237)" stroke="rgb(31,119,180)" paint-order="fill" d="M 79.4923095703125 292.8636474609375 L 100.44615173339844 292.8636474609375 L 100.44615173339844 292.8636474609375 L 79.4923095703125 292.8636474609375 L 79.4923095703125 292.8636474609375 Z" fill-opacity="1" clip-path="url(#QyRfQFdfsgOo)" stroke-opacity="1" stroke-linejoin="bevel" stroke-miterlimit="10"/><path fill="rgb(100,149,237)" stroke="rgb(31,119,180)" paint-order="fill" d="M 102.77436065673828 292.2492370605469 L 123.72820281982422 292.2492370605469 L 123.72820281982422 292.8636474609375 L 102.77436065673828 292.8636474609375 L 102.77436065673828 292.2492370605469 Z" fill-opacity="1" clip-path="url(#QyRfQFdfsgOo)" stroke-opacity="1" stroke-linejoin="bevel" stroke-miterlimit="10"/><path fill="rgb(100,149,237)" stroke="rgb(31,119,180)" paint-order="fill" d="M 126.0564193725586 274.9510192871094 L 147.01026916503906 274.9510192871094 L 147.01026916503906 292.8636474609375 L 126.0564193725586 292.8636474609375 L 126.0564193725586 274.9510192871094 Z" fill-opacity="1" clip-path="url(#QyRfQFdfsgOo)" stroke-opacity="1" stroke-linejoin="bevel" stroke-miterlimit="10"/><path fill="rgb(100,149,237)" stroke="rgb(31,119,180)" paint-order="fill" d="M 149.3384552001953 222.43115234375 L 170.2923126220703 222.43115234375 L 170.2923126220703 292.8636474609375 L 149.3384552001953 292.8636474609375 L 149.3384552001953 222.43115234375 Z" fill-opacity="1" clip-path="url(#QyRfQFdfsgOo)" stroke-opacity="1" stroke-linejoin="bevel" stroke-miterlimit="10"/><path fill="rgb(100,149,237)" stroke="rgb(31,119,180)" paint-order="fill" d="M 172.62051391601562 145.35316467285156 L 193.57437133789062 145.35316467285156 L 193.57437133789062 292.8636474609375 L 172.62051391601562 292.8636474609375 L 172.62051391601562 145.35316467285156 Z" fill-opacity="1" clip-path="url(#QyRfQFdfsgOo)" stroke-opacity="1" stroke-linejoin="bevel" stroke-miterlimit="10"/><path fill="rgb(100,149,237)" stroke="rgb(31,119,180)" paint-order="fill" d="M 195.90255737304688 78.17914581298828 L 216.85641479492188 78.17914581298828 L 216.85641479492188 292.8636474609375 L 195.90255737304688 292.8636474609375 L 195.90255737304688 78.17914581298828 Z" fill-opacity="1" clip-path="url(#QyRfQFdfsgOo)" stroke-opacity="1" stroke-linejoin="bevel" stroke-miterlimit="10"/><path fill="rgb(100,149,237)" stroke="rgb(31,119,180)" paint-order="fill" d="M 219.1846160888672 40.1363639831543 L 240.1384735107422 40.1363639831543 L 240.1384735107422 292.8636474609375 L 219.1846160888672 292.8636474609375 L 219.1846160888672 40.1363639831543 Z" fill-opacity="1" clip-path="url(#QyRfQFdfsgOo)" stroke-opacity="1" stroke-linejoin="bevel" stroke-miterlimit="10"/><path fill="rgb(100,149,237)" stroke="rgb(31,119,180)" paint-order="fill" d="M 242.46665954589844 52.12294006347656 L 263.4205017089844 52.12294006347656 L 263.4205017089844 292.8636474609375 L 242.46665954589844 292.8636474609375 L 242.46665954589844 52.12294006347656 Z" fill-opacity="1" clip-path="url(#QyRfQFdfsgOo)" stroke-opacity="1" stroke-linejoin="bevel" stroke-miterlimit="10"/><path fill="rgb(100,149,237)" stroke="rgb(31,119,180)" paint-order="fill" d="M 265.74871826171875 186.24607849121094 L 286.70257568359375 186.24607849121094 L 286.70257568359375 292.8636474609375 L 265.74871826171875 292.8636474609375 L 265.74871826171875 186.24607849121094 Z" fill-opacity="1" clip-path="url(#QyRfQFdfsgOo)" stroke-opacity="1" stroke-linejoin="bevel" stroke-miterlimit="10"/><path fill="rgb(100,149,237)" stroke="rgb(31,119,180)" paint-order="fill" d="M 289.03076171875 292.8636474609375 L 309.984619140625 292.8636474609375 L 309.984619140625 292.8636474609375 L 289.03076171875 292.8636474609375 L 289.03076171875 292.8636474609375 Z" fill-opacity="1" clip-path="url(#QyRfQFdfsgOo)" stroke-opacity="1" stroke-linejoin="bevel" stroke-miterlimit="10"/><path fill="none" stroke="rgb(0,0,0)" paint-order="fill" d="M 58.5 305.5 L 320.5 305.5" stroke-opacity="1" stroke-linejoin="bevel" stroke-miterlimit="10"/><path fill="none" stroke="rgb(0,0,0)" paint-order="fill" d="M 79.5 311.5 L 79.5 303.5 M 149.5 311.5 L 149.5 303.5 M 219.5 311.5 L 219.5 303.5 M 289.5 311.5 L 289.5 303.5" stroke-opacity="1" stroke-linejoin="bevel" stroke-miterlimit="10"/><path fill="none" stroke="rgb(0,0,0)" paint-order="fill" d="M 65.5 309.5 L 65.5 305.5 M 79.5 309.5 L 79.5 305.5 M 93.5 309.5 L 93.5 305.5 M 107.5 309.5 L 107.5 305.5 M 121.5 309.5 L 121.5 305.5 M 135.5 309.5 L 135.5 305.5 M 149.5 309.5 L 149.5 305.5 M 163.5 309.5 L 163.5 305.5 M 177.5 309.5 L 177.5 305.5 M 191.5 309.5 L 191.5 305.5 M 205.5 309.5 L 205.5 305.5 M 219.5 309.5 L 219.5 305.5 M 233.5 309.5 L 233.5 305.5 M 247.5 309.5 L 247.5 305.5 M 261.5 309.5 L 261.5 305.5 M 275.5 309.5 L 275.5 305.5 M 289.5 309.5 L 289.5 305.5 M 303.5 309.5 L 303.5 305.5 M 317.5 309.5 L 317.5 305.5" stroke-opacity="1" stroke-linejoin="bevel" stroke-miterlimit="10"/><text fill="rgb(68,68,68)" stroke="none" font-family="helvetica" font-size="11px" font-style="normal" font-weight="normal" text-decoration="normal" x="71.10877990722656" y="324" text-anchor="start" dominant-baseline="alphabetic" transform="matrix(1, 0, 0, 1, 0.5, 0.5)" fill-opacity="1">0.3</text><text fill="none" stroke="rgb(0,0,0)" font-family="helvetica" font-size="11px" font-style="normal" font-weight="normal" text-decoration="normal" x="71.10877990722656" y="324" text-anchor="start" dominant-baseline="alphabetic" transform="matrix(1, 0, 0, 1, 0.5, 0.5)" stroke-opacity="0" stroke-linejoin="bevel" stroke-miterlimit="10">0.3</text><text fill="rgb(68,68,68)" stroke="none" font-family="helvetica" font-size="11px" font-style="normal" font-weight="normal" text-decoration="normal" x="137.98468017578125" y="324" text-anchor="start" dominant-baseline="alphabetic" transform="matrix(1, 0, 0, 1, 0.5, 0.5)" fill-opacity="1">0.35</text><text fill="none" stroke="rgb(0,0,0)" font-family="helvetica" font-size="11px" font-style="normal" font-weight="normal" text-decoration="normal" x="137.98468017578125" y="324" text-anchor="start" dominant-baseline="alphabetic" transform="matrix(1, 0, 0, 1, 0.5, 0.5)" stroke-opacity="0" stroke-linejoin="bevel" stroke-miterlimit="10">0.35</text><text fill="rgb(68,68,68)" stroke="none" font-family="helvetica" font-size="11px" font-style="normal" font-weight="normal" text-decoration="normal" x="210.97825622558594" y="324" text-anchor="start" dominant-baseline="alphabetic" transform="matrix(1, 0, 0, 1, 0.5, 0.5)" fill-opacity="1">0.4</text><text fill="none" stroke="rgb(0,0,0)" font-family="helvetica" font-size="11px" font-style="normal" font-weight="normal" text-decoration="normal" x="210.97825622558594" y="324" text-anchor="start" dominant-baseline="alphabetic" transform="matrix(1, 0, 0, 1, 0.5, 0.5)" stroke-opacity="0" stroke-linejoin="bevel" stroke-miterlimit="10">0.4</text><text fill="rgb(68,68,68)" stroke="none" font-family="helvetica" font-size="11px" font-style="normal" font-weight="normal" text-decoration="normal" x="277.8541564941406" y="324" text-anchor="start" dominant-baseline="alphabetic" transform="matrix(1, 0, 0, 1, 0.5, 0.5)" fill-opacity="1">0.45</text><text fill="none" stroke="rgb(0,0,0)" font-family="helvetica" font-size="11px" font-style="normal" font-weight="normal" text-decoration="normal" x="277.8541564941406" y="324" text-anchor="start" dominant-baseline="alphabetic" transform="matrix(1, 0, 0, 1, 0.5, 0.5)" stroke-opacity="0" stroke-linejoin="bevel" stroke-miterlimit="10">0.45</text><text fill="rgb(68,68,68)" stroke="none" font-family="helvetica" font-size="13px" font-style="italic" font-weight="normal" text-decoration="normal" x="112.786865234375" y="344" text-anchor="start" dominant-baseline="alphabetic" transform="matrix(1, 0, 0, 1, 0.5, 0.5)" fill-opacity="1">Thermal to electric eff. (%)</text><text fill="none" stroke="rgb(0,0,0)" font-family="helvetica" font-size="13px" font-style="italic" font-weight="normal" text-decoration="normal" x="112.786865234375" y="344" text-anchor="start" dominant-baseline="alphabetic" transform="matrix(1, 0, 0, 1, 0.5, 0.5)" stroke-opacity="0" stroke-linejoin="bevel" stroke-miterlimit="10">Thermal to electric eff. (%)</text><path fill="none" stroke="rgb(0,0,0)" paint-order="fill" d="M 58.5 305.5 L 58.5 27.5" stroke-opacity="1" stroke-linejoin="bevel" stroke-miterlimit="10"/><path fill="none" stroke="rgb(0,0,0)" paint-order="fill" d="M 52.5 292.5 L 60.5 292.5 M 52.5 246.5 L 60.5 246.5 M 52.5 200.5 L 60.5 200.5 M 52.5 154.5 L 60.5 154.5 M 52.5 108.5 L 60.5 108.5 M 52.5 62.5 L 60.5 62.5" stroke-opacity="1" stroke-linejoin="bevel" stroke-miterlimit="10"/><path fill="none" stroke="rgb(0,0,0)" paint-order="fill" d="M 54.5 302.5 L 58.5 302.5 M 54.5 292.5 L 58.5 292.5 M 54.5 283.5 L 58.5 283.5 M 54.5 274.5 L 58.5 274.5 M 54.5 265.5 L 58.5 265.5 M 54.5 255.5 L 58.5 255.5 M 54.5 246.5 L 58.5 246.5 M 54.5 237.5 L 58.5 237.5 M 54.5 228.5 L 58.5 228.5 M 54.5 219.5 L 58.5 219.5 M 54.5 209.5 L 58.5 209.5 M 54.5 200.5 L 58.5 200.5 M 54.5 191.5 L 58.5 191.5 M 54.5 182.5 L 58.5 182.5 M 54.5 172.5 L 58.5 172.5 M 54.5 163.5 L 58.5 163.5 M 54.5 154.5 L 58.5 154.5 M 54.5 145.5 L 58.5 145.5 M 54.5 135.5 L 58.5 135.5 M 54.5 126.5 L 58.5 126.5 M 54.5 117.5 L 58.5 117.5 M 54.5 108.5 L 58.5 108.5 M 54.5 99.5 L 58.5 99.5 M 54.5 89.5 L 58.5 89.5 M 54.5 80.5 L 58.5 80.5 M 54.5 71.5 L 58.5 71.5 M 54.5 62.5 L 58.5 62.5 M 54.5 52.5 L 58.5 52.5 M 54.5 43.5 L 58.5 43.5 M 54.5 34.5 L 58.5 34.5" stroke-opacity="1" stroke-linejoin="bevel" stroke-miterlimit="10"/><text fill="rgb(68,68,68)" stroke="none" font-family="helvetica" font-size="11px" font-style="normal" font-weight="normal" text-decoration="normal" x="40.88232421875" y="296.3636474609375" text-anchor="start" dominant-baseline="alphabetic" transform="matrix(1, 0, 0, 1, 0.5, 0.5)" fill-opacity="1">0</text><text fill="none" stroke="rgb(0,0,0)" font-family="helvetica" font-size="11px" font-style="normal" font-weight="normal" text-decoration="normal" x="40.88232421875" y="296.3636474609375" text-anchor="start" dominant-baseline="alphabetic" transform="matrix(1, 0, 0, 1, 0.5, 0.5)" stroke-opacity="0" stroke-linejoin="bevel" stroke-miterlimit="10">0</text><text fill="rgb(68,68,68)" stroke="none" font-family="helvetica" font-size="11px" font-style="normal" font-weight="normal" text-decoration="normal" x="25.5908203125" y="250.212890625" text-anchor="start" dominant-baseline="alphabetic" transform="matrix(1, 0, 0, 1, 0.5, 0.5)" fill-opacity="1">0.02</text><text fill="none" stroke="rgb(0,0,0)" font-family="helvetica" font-size="11px" font-style="normal" font-weight="normal" text-decoration="normal" x="25.5908203125" y="250.212890625" text-anchor="start" dominant-baseline="alphabetic" transform="matrix(1, 0, 0, 1, 0.5, 0.5)" stroke-opacity="0" stroke-linejoin="bevel" stroke-miterlimit="10">0.02</text><text fill="rgb(68,68,68)" stroke="none" font-family="helvetica" font-size="11px" font-style="normal" font-weight="normal" text-decoration="normal" x="25.5908203125" y="204.06214904785156" text-anchor="start" dominant-baseline="alphabetic" transform="matrix(1, 0, 0, 1, 0.5, 0.5)" fill-opacity="1">0.04</text><text fill="none" stroke="rgb(0,0,0)" font-family="helvetica" font-size="11px" font-style="normal" font-weight="normal" text-decoration="normal" x="25.5908203125" y="204.06214904785156" text-anchor="start" dominant-baseline="alphabetic" transform="matrix(1, 0, 0, 1, 0.5, 0.5)" stroke-opacity="0" stroke-linejoin="bevel" stroke-miterlimit="10">0.04</text><text fill="rgb(68,68,68)" stroke="none" font-family="helvetica" font-size="11px" font-style="normal" font-weight="normal" text-decoration="normal" x="25.5908203125" y="157.91140747070312" text-anchor="start" dominant-baseline="alphabetic" transform="matrix(1, 0, 0, 1, 0.5, 0.5)" fill-opacity="1">0.06</text><text fill="none" stroke="rgb(0,0,0)" font-family="helvetica" font-size="11px" font-style="normal" font-weight="normal" text-decoration="normal" x="25.5908203125" y="157.91140747070312" text-anchor="start" dominant-baseline="alphabetic" transform="matrix(1, 0, 0, 1, 0.5, 0.5)" stroke-opacity="0" stroke-linejoin="bevel" stroke-miterlimit="10">0.06</text><text fill="rgb(68,68,68)" stroke="none" font-family="helvetica" font-size="11px" font-style="normal" font-weight="normal" text-decoration="normal" x="25.5908203125" y="111.76065826416016" text-anchor="start" dominant-baseline="alphabetic" transform="matrix(1, 0, 0, 1, 0.5, 0.5)" fill-opacity="1">0.08</text><text fill="none" stroke="rgb(0,0,0)" font-family="helvetica" font-size="11px" font-style="normal" font-weight="normal" text-decoration="normal" x="25.5908203125" y="111.76065826416016" text-anchor="start" dominant-baseline="alphabetic" transform="matrix(1, 0, 0, 1, 0.5, 0.5)" stroke-opacity="0" stroke-linejoin="bevel" stroke-miterlimit="10">0.08</text><text fill="rgb(68,68,68)" stroke="none" font-family="helvetica" font-size="11px" font-style="normal" font-weight="normal" text-decoration="normal" x="31.70849609375" y="65.60991287231445" text-anchor="start" dominant-baseline="alphabetic" transform="matrix(1, 0, 0, 1, 0.5, 0.5)" fill-opacity="1">0.1</text><text fill="none" stroke="rgb(0,0,0)" font-family="helvetica" font-size="11px" font-style="normal" font-weight="normal" text-decoration="normal" x="31.70849609375" y="65.60991287231445" text-anchor="start" dominant-baseline="alphabetic" transform="matrix(1, 0, 0, 1, 0.5, 0.5)" stroke-opacity="0" stroke-linejoin="bevel" stroke-miterlimit="10">0.1</text><text fill="rgb(68,68,68)" stroke="none" font-family="helvetica" font-size="13px" font-style="italic" font-weight="normal" text-decoration="normal" x="-47.4345703125" y="163" text-anchor="start" dominant-baseline="alphabetic" transform="matrix(6.123233995736766e-17, -1, 1, 6.123233995736766e-17, -147.9091796875, 184.0908203125)" fill-opacity="1">Normalised Probability</text><text fill="none" stroke="rgb(0,0,0)" font-family="helvetica" font-size="13px" font-style="italic" font-weight="normal" text-decoration="normal" x="-47.4345703125" y="163" text-anchor="start" dominant-baseline="alphabetic" transform="matrix(6.123233995736766e-17, -1, 1, 6.123233995736766e-17, -147.9091796875, 184.0908203125)" stroke-opacity="0" stroke-linejoin="bevel" stroke-miterlimit="10">Normalised Probability</text><path fill="rgb(255,249,186)" stroke="rgb(255,0,0)" paint-order="fill" d="M 182.71733898743236 40.13636363636368 L 182.71733898743236 40.13636363636368 L 182.71733898743236 292.8636363636364 L 182.71733898743236 292.8636363636364 L 182.71733898743236 40.13636363636368 Z" fill-opacity="0.4" clip-path="url(#BfPikRlGiNtB)" stroke-opacity="1" stroke-linejoin="bevel" stroke-miterlimit="10" stroke-width="2" stroke-dasharray="6"/><path fill="rgb(255,249,186)" stroke="rgb(50,205,50)" paint-order="fill" d="M 229.66153767444752 40.13636363636368 L 229.66153767444752 40.13636363636368 L 229.66153767444752 292.8636363636364 L 229.66153767444752 292.8636363636364 L 229.66153767444752 40.13636363636368 Z" fill-opacity="0.4" clip-path="url(#fDcCAqigIJnF)" stroke-opacity="1" stroke-linejoin="bevel" stroke-miterlimit="10" stroke-width="2" stroke-dasharray="6"/><text fill="rgb(68,68,68)" stroke="none" font-family="helvetica" font-size="13px" font-style="normal" font-weight="bold" text-decoration="normal" x="58" y="19" text-anchor="start" dominant-baseline="alphabetic" transform="matrix(1, 0, 0, 1, 0.5, 0.5)" fill-opacity="1">Convergance Probability</text><text fill="none" stroke="rgb(0,0,0)" font-family="helvetica" font-size="13px" font-style="normal" font-weight="bold" text-decoration="normal" x="58" y="19" text-anchor="start" dominant-baseline="alphabetic" transform="matrix(1, 0, 0, 1, 0.5, 0.5)" stroke-opacity="0" stroke-miterlimit="10" stroke-dasharray="">Convergance Probability</text></svg>