<svg version="1.1" xmlns="http://www.w3.org/2000/svg" width="350" height="350"><defs><clipPath id="nhESkHpKWBMc"><path fill="none" stroke="none" d="M 58.5 27.5 L 320.5 27.5 L 320.5 305.5 L 58.5 305.5 L 58.5 27.5 Z"/></clipPath><clipPath id="DaTqpVyAPDei"><path fill="none" stroke="none" d="M 58.5 27.5 L 320.5 27.5 L 320.5 305.5 L 58.5 305.5 L 58.5 27.5 Z"/></clipPath><clipPath id="NvilTPIebFok"><path fill="none" stroke="none" d="M 58.5 27.5 L 320.5 27.5 L 320.5 305.5 L 58.5 305.5 L 58.5 27.5 Z"/></clipPath><pattern id="tqqtZgzoArqP" width="3" height="3" patternUnits="userSpaceOnUse"><path fill="rgb(0,0,0)" stroke="none" paint-order="stroke" d="M 2.75 2 A 0.75 0.75 0 0 0 1.25 2 A 0.75 0.75 0 0 0 2.75 2" fill-opacity="0.14901960784313725"/></pattern><clipPath id="MnXJpaCHSNSx"><path fill="none" stroke="none" d="M 58.5 27.5 L 320.5 27.5 L 320.5 305.5 L 58.5 305.5 L 58.5 27.5 Z"/></clipPath><clipPath id="USxfQrffqEUU"><path fill="none" stroke="none" d="M 58.5 27.5 L 320.5 27.5 L 320.5 305.5 L 58.5 305.5 L 58.5 27.5 Z"/></clipPath><clipPath id="quPFESfGSSAl"><path fill="none" stroke="none" d="M 58.5 27.5 L 320.5 27.5 L 320.5 305.5 L 58.5 305.5 L 58.5 27.5 Z"/></clipPath><clipPath id="KhoCwoxQAGlf"><path fill="none" stroke="none" d="M 58.5 27.5 L 320.5 27.5 L 320.5 305.5 L 58.5 305.5 L 58.5 27.5 Z"/></clipPath></defs><path fill="rgb(255,255,255)" stroke="none" paint-order="stroke" d="M 0.5 0.5 L 350.5 0.5 L 350.5 350.5 L 0.5 350.5 L 0.5 0.5 Z" fill-opacity="1"/><rect fill="#FFFFFF" stroke="none" x="58" y="27" width="262" height="278" transform="matrix(1, 0, 0, 1, 0.5, 0.5)"/><path fill="rgb(255,255,255)" stroke="none" paint-order="stroke" d="M 58.5 27.5 L 320.5 27.5 L 320.5 305.5 L 58.5 305.5 L 58.5 27.5 Z" fill-opacity="1"/><path fill="none" stroke="rgb(229,229,229)" paint-order="fill" d="M 58.5 27.5 L 320.5 27.5 L 320.5 305.5 L 58.5 305.5 L 58.5 27.5 Z" stroke-opacity="1" stroke-linejoin="bevel" stroke-miterlimit="10"/><path fill="none" stroke="rgb(229,229,229)" paint-order="fill" d="M 106.5 305.5 L 106.5 27.5 M 170.5 305.5 L 170.5 27.5 M 234.5 305.5 L 234.5 27.5 M 298.5 305.5 L 298.5 27.5" stroke-opacity="1" stroke-linejoin="bevel" stroke-miterlimit="10" clip-path="url(#nhESkHpKWBMc)"/><path fill="none" stroke="rgb(229,229,229)" paint-order="fill" d="M 58.5 292.5 L 320.5 292.5 M 58.5 248.5 L 320.5 248.5 M 58.5 203.5 L 320.5 203.5 M 58.5 158.5 L 320.5 158.5 M 58.5 113.5 L 320.5 113.5 M 58.5 69.5 L 320.5 69.5" stroke-opacity="1" stroke-linejoin="bevel" stroke-miterlimit="10" clip-path="url(#DaTqpVyAPDei)"/><path fill="rgb(128,128,128)" stroke="none" paint-order="stroke" d="M 76.12584686279297 40.13636016845703 L 292.07659912109375 40.13636016845703 L 292.07659912109375 292.8636474609375 L 76.12584686279297 292.8636474609375 L 76.12584686279297 40.13636016845703 Z" fill-opacity="0.10196078431372549" clip-path="url(#NvilTPIebFok)"/><path fill="url(#tqqtZgzoArqP)" stroke="rgb(0,0,0)" paint-order="fill" d="M 76.12584686279297 40.13636016845703 L 292.07659912109375 40.13636016845703 L 292.07659912109375 292.8636474609375 L 76.12584686279297 292.8636474609375 L 76.12584686279297 40.13636016845703 Z" clip-path="url(#NvilTPIebFok)" stroke-opacity="0.2" stroke-linejoin="bevel" stroke-miterlimit="10"/><path fill="rgb(100,149,237)" stroke="rgb(31,119,180)" paint-order="fill" d="M 76.12584686279297 292.85760498046875 L 97.7209243774414 292.85760498046875 L 97.7209243774414 292.8636474609375 L 76.12584686279297 292.8636474609375 L 76.12584686279297 292.85760498046875 Z" fill-opacity="1" clip-path="url(#MnXJpaCHSNSx)" stroke-opacity="1" stroke-linejoin="bevel" stroke-miterlimit="10"/><path fill="rgb(100,149,237)" stroke="rgb(31,119,180)" paint-order="fill" d="M 100.12037658691406 291.3063659667969 L 121.7154541015625 291.3063659667969 L 121.7154541015625 292.8636474609375 L 100.12037658691406 292.8636474609375 L 100.12037658691406 291.3063659667969 Z" fill-opacity="1" clip-path="url(#MnXJpaCHSNSx)" stroke-opacity="1" stroke-linejoin="bevel" stroke-miterlimit="10"/><path fill="rgb(100,149,237)" stroke="rgb(31,119,180)" paint-order="fill" d="M 124.11490631103516 251.1301727294922 L 145.70999145507812 251.1301727294922 L 145.70999145507812 292.8636474609375 L 124.11490631103516 292.8636474609375 L 124.11490631103516 251.1301727294922 Z" fill-opacity="1" clip-path="url(#MnXJpaCHSNSx)" stroke-opacity="1" stroke-linejoin="bevel" stroke-miterlimit="10"/><path fill="rgb(100,149,237)" stroke="rgb(31,119,180)" paint-order="fill" d="M 148.10943603515625 147.69314575195312 L 169.70449829101562 147.69314575195312 L 169.70449829101562 292.8636474609375 L 148.10943603515625 292.8636474609375 L 148.10943603515625 147.69314575195312 Z" fill-opacity="1" clip-path="url(#MnXJpaCHSNSx)" stroke-opacity="1" stroke-linejoin="bevel" stroke-miterlimit="10"/><path fill="rgb(100,149,237)" stroke="rgb(31,119,180)" paint-order="fill" d="M 172.10397338867188 45.97793197631836 L 193.69903564453125 45.97793197631836 L 193.69903564453125 292.8636474609375 L 172.10397338867188 292.8636474609375 L 172.10397338867188 45.97793197631836 Z" fill-opacity="1" clip-path="url(#MnXJpaCHSNSx)" stroke-opacity="1" stroke-linejoin="bevel" stroke-miterlimit="10"/><path fill="rgb(100,149,237)" stroke="rgb(31,119,180)" paint-order="fill" d="M 196.09848022460938 40.1363639831543 L 217.69357299804688 40.1363639831543 L 217.69357299804688 292.8636474609375 L 196.09848022460938 292.8636474609375 L 196.09848022460938 40.1363639831543 Z" fill-opacity="1" clip-path="url(#MnXJpaCHSNSx)" stroke-opacity="1" stroke-linejoin="bevel" stroke-miterlimit="10"/><path fill="rgb(100,149,237)" stroke="rgb(31,119,180)" paint-order="fill" d="M 220.093017578125 168.2238311767578 L 241.6881103515625 168.2238311767578 L 241.6881103515625 292.8636474609375 L 220.093017578125 292.8636474609375 L 220.093017578125 168.2238311767578 Z" fill-opacity="1" clip-path="url(#MnXJpaCHSNSx)" stroke-opacity="1" stroke-linejoin="bevel" stroke-miterlimit="10"/><path fill="rgb(100,149,237)" stroke="rgb(31,119,180)" paint-order="fill" d="M 244.08755493164062 249.010498046875 L 265.6826171875 249.010498046875 L 265.6826171875 292.8636474609375 L 244.08755493164062 292.8636474609375 L 244.08755493164062 249.010498046875 Z" fill-opacity="1" clip-path="url(#MnXJpaCHSNSx)" stroke-opacity="1" stroke-linejoin="bevel" stroke-miterlimit="10"/><path fill="rgb(100,149,237)" stroke="rgb(31,119,180)" paint-order="fill" d="M 268.0820617675781 292.8636474609375 L 289.6771545410156 292.8636474609375 L 289.6771545410156 292.8636474609375 L 268.0820617675781 292.8636474609375 L 268.0820617675781 292.8636474609375 Z" fill-opacity="1" clip-path="url(#MnXJpaCHSNSx)" stroke-opacity="1" stroke-linejoin="bevel" stroke-miterlimit="10"/><path fill="rgb(100,149,237)" stroke="rgb(31,119,180)" paint-order="fill" d="M 292.07659912109375 292.8636474609375 L 313.67169189453125 292.8636474609375 L 313.67169189453125 292.8636474609375 L 292.07659912109375 292.8636474609375 L 292.07659912109375 292.8636474609375 Z" fill-opacity="1" clip-path="url(#MnXJpaCHSNSx)" stroke-opacity="1" stroke-linejoin="bevel" stroke-miterlimit="10"/><path fill="none" stroke="rgb(0,0,0)" paint-order="fill" d="M 58.5 305.5 L 320.5 305.5" stroke-opacity="1" stroke-linejoin="bevel" stroke-miterlimit="10"/><path fill="none" stroke="rgb(0,0,0)" paint-order="fill" d="M 106.5 311.5 L 106.5 303.5 M 170.5 311.5 L 170.5 303.5 M 234.5 311.5 L 234.5 303.5 M 298.5 311.5 L 298.5 303.5" stroke-opacity="1" stroke-linejoin="bevel" stroke-miterlimit="10"/><path fill="none" stroke="rgb(0,0,0)" paint-order="fill" d="M 94.5 309.5 L 94.5 305.5 M 81.5 309.5 L 81.5 305.5 M 68.5 309.5 L 68.5 305.5 M 106.5 309.5 L 106.5 305.5 M 119.5 309.5 L 119.5 305.5 M 132.5 309.5 L 132.5 305.5 M 145.5 309.5 L 145.5 305.5 M 158.5 309.5 L 158.5 305.5 M 170.5 309.5 L 170.5 305.5 M 183.5 309.5 L 183.5 305.5 M 196.5 309.5 L 196.5 305.5 M 209.5 309.5 L 209.5 305.5 M 221.5 309.5 L 221.5 305.5 M 234.5 309.5 L 234.5 305.5 M 247.5 309.5 L 247.5 305.5 M 260.5 309.5 L 260.5 305.5 M 273.5 309.5 L 273.5 305.5 M 285.5 309.5 L 285.5 305.5 M 298.5 309.5 L 298.5 305.5 M 311.5 309.5 L 311.5 305.5" stroke-opacity="1" stroke-linejoin="bevel" stroke-miterlimit="10"/><text fill="rgb(68,68,68)" stroke="none" font-family="helvetica" font-size="11px" font-style="normal" font-weight="normal" text-decoration="normal" x="95.73462677001953" y="324" text-anchor="start" dominant-baseline="alphabetic" transform="matrix(1, 0, 0, 1, 0.5, 0.5)" fill-opacity="1">0.06</text><text fill="none" stroke="rgb(0,0,0)" font-family="helvetica" font-size="11px" font-style="normal" font-weight="normal" text-decoration="normal" x="95.73462677001953" y="324" text-anchor="start" dominant-baseline="alphabetic" transform="matrix(1, 0, 0, 1, 0.5, 0.5)" stroke-opacity="0" stroke-linejoin="bevel" stroke-miterlimit="10">0.06</text><text fill="rgb(68,68,68)" stroke="none" font-family="helvetica" font-size="11px" font-style="normal" font-weight="normal" text-decoration="normal" x="159.62301635742188" y="324" text-anchor="start" dominant-baseline="alphabetic" transform="matrix(1, 0, 0, 1, 0.5, 0.5)" fill-opacity="1">0.07</text><text fill="none" stroke="rgb(0,0,0)" font-family="helvetica" font-size="11px" font-style="normal" font-weight="normal" text-decoration="normal" x="159.62301635742188" y="324" text-anchor="start" dominant-baseline="alphabetic" transform="matrix(1, 0, 0, 1, 0.5, 0.5)" stroke-opacity="0" stroke-linejoin="bevel" stroke-miterlimit="10">0.07</text><text fill="rgb(68,68,68)" stroke="none" font-family="helvetica" font-size="11px" font-style="normal" font-weight="normal" text-decoration="normal" x="223.5113983154297" y="324" text-anchor="start" dominant-baseline="alphabetic" transform="matrix(1, 0, 0, 1, 0.5, 0.5)" fill-opacity="1">0.08</text><text fill="none" stroke="rgb(0,0,0)" font-family="helvetica" font-size="11px" font-style="normal" font-weight="normal" text-decoration="normal" x="223.5113983154297" y="324" text-anchor="start" dominant-baseline="alphabetic" transform="matrix(1, 0, 0, 1, 0.5, 0.5)" stroke-opacity="0" stroke-linejoin="bevel" stroke-miterlimit="10">0.08</text><text fill="rgb(68,68,68)" stroke="none" font-family="helvetica" font-size="11px" font-style="normal" font-weight="normal" text-decoration="normal" x="287.3997802734375" y="324" text-anchor="start" dominant-baseline="alphabetic" transform="matrix(1, 0, 0, 1, 0.5, 0.5)" fill-opacity="1">0.09</text><text fill="none" stroke="rgb(0,0,0)" font-family="helvetica" font-size="11px" font-style="normal" font-weight="normal" text-decoration="normal" x="287.3997802734375" y="324" text-anchor="start" dominant-baseline="alphabetic" transform="matrix(1, 0, 0, 1, 0.5, 0.5)" stroke-opacity="0" stroke-linejoin="bevel" stroke-miterlimit="10">0.09</text><text fill="rgb(68,68,68)" stroke="none" font-family="helvetica" font-size="13px" font-style="italic" font-weight="normal" text-decoration="normal" x="88.20556640625" y="344" text-anchor="start" dominant-baseline="alphabetic" transform="matrix(1, 0, 0, 1, 0.5, 0.5)" fill-opacity="1">Thermal alpha/electron density (%)</text><text fill="none" stroke="rgb(0,0,0)" font-family="helvetica" font-size="13px" font-style="italic" font-weight="normal" text-decoration="normal" x="88.20556640625" y="344" text-anchor="start" dominant-baseline="alphabetic" transform="matrix(1, 0, 0, 1, 0.5, 0.5)" stroke-opacity="0" stroke-linejoin="bevel" stroke-miterlimit="10">Thermal alpha/electron density (%)</text><path fill="none" stroke="rgb(0,0,0)" paint-order="fill" d="M 58.5 305.5 L 58.5 27.5" stroke-opacity="1" stroke-linejoin="bevel" stroke-miterlimit="10"/><path fill="none" stroke="rgb(0,0,0)" paint-order="fill" d="M 52.5 292.5 L 60.5 292.5 M 52.5 248.5 L 60.5 248.5 M 52.5 203.5 L 60.5 203.5 M 52.5 158.5 L 60.5 158.5 M 52.5 113.5 L 60.5 113.5 M 52.5 69.5 L 60.5 69.5" stroke-opacity="1" stroke-linejoin="bevel" stroke-miterlimit="10"/><path fill="none" stroke="rgb(0,0,0)" paint-order="fill" d="M 54.5 301.5 L 58.5 301.5 M 54.5 292.5 L 58.5 292.5 M 54.5 283.5 L 58.5 283.5 M 54.5 274.5 L 58.5 274.5 M 54.5 266.5 L 58.5 266.5 M 54.5 257.5 L 58.5 257.5 M 54.5 248.5 L 58.5 248.5 M 54.5 239.5 L 58.5 239.5 M 54.5 230.5 L 58.5 230.5 M 54.5 221.5 L 58.5 221.5 M 54.5 212.5 L 58.5 212.5 M 54.5 203.5 L 58.5 203.5 M 54.5 194.5 L 58.5 194.5 M 54.5 185.5 L 58.5 185.5 M 54.5 176.5 L 58.5 176.5 M 54.5 167.5 L 58.5 167.5 M 54.5 158.5 L 58.5 158.5 M 54.5 149.5 L 58.5 149.5 M 54.5 140.5 L 58.5 140.5 M 54.5 131.5 L 58.5 131.5 M 54.5 122.5 L 58.5 122.5 M 54.5 113.5 L 58.5 113.5 M 54.5 105.5 L 58.5 105.5 M 54.5 96.5 L 58.5 96.5 M 54.5 87.5 L 58.5 87.5 M 54.5 78.5 L 58.5 78.5 M 54.5 69.5 L 58.5 69.5 M 54.5 60.5 L 58.5 60.5 M 54.5 51.5 L 58.5 51.5 M 54.5 42.5 L 58.5 42.5 M 54.5 33.5 L 58.5 33.5" stroke-opacity="1" stroke-linejoin="bevel" stroke-miterlimit="10"/><text fill="rgb(68,68,68)" stroke="none" font-family="helvetica" font-size="11px" font-style="normal" font-weight="normal" text-decoration="normal" x="40.88232421875" y="296.3636474609375" text-anchor="start" dominant-baseline="alphabetic" transform="matrix(1, 0, 0, 1, 0.5, 0.5)" fill-opacity="1">0</text><text fill="none" stroke="rgb(0,0,0)" font-family="helvetica" font-size="11px" font-style="normal" font-weight="normal" text-decoration="normal" x="40.88232421875" y="296.3636474609375" text-anchor="start" dominant-baseline="alphabetic" transform="matrix(1, 0, 0, 1, 0.5, 0.5)" stroke-opacity="0" stroke-linejoin="bevel" stroke-miterlimit="10">0</text><text fill="rgb(68,68,68)" stroke="none" font-family="helvetica" font-size="11px" font-style="normal" font-weight="normal" text-decoration="normal" x="25.5908203125" y="251.64517211914062" text-anchor="start" dominant-baseline="alphabetic" transform="matrix(1, 0, 0, 1, 0.5, 0.5)" fill-opacity="1">0.02</text><text fill="none" stroke="rgb(0,0,0)" font-family="helvetica" font-size="11px" font-style="normal" font-weight="normal" text-decoration="normal" x="25.5908203125" y="251.64517211914062" text-anchor="start" dominant-baseline="alphabetic" transform="matrix(1, 0, 0, 1, 0.5, 0.5)" stroke-opacity="0" stroke-linejoin="bevel" stroke-miterlimit="10">0.02</text><text fill="rgb(68,68,68)" stroke="none" font-family="helvetica" font-size="11px" font-style="normal" font-weight="normal" text-decoration="normal" x="25.5908203125" y="206.9267120361328" text-anchor="start" dominant-baseline="alphabetic" transform="matrix(1, 0, 0, 1, 0.5, 0.5)" fill-opacity="1">0.04</text><text fill="none" stroke="rgb(0,0,0)" font-family="helvetica" font-size="11px" font-style="normal" font-weight="normal" text-decoration="normal" x="25.5908203125" y="206.9267120361328" text-anchor="start" dominant-baseline="alphabetic" transform="matrix(1, 0, 0, 1, 0.5, 0.5)" stroke-opacity="0" stroke-linejoin="bevel" stroke-miterlimit="10">0.04</text><text fill="rgb(68,68,68)" stroke="none" font-family="helvetica" font-size="11px" font-style="normal" font-weight="normal" text-decoration="normal" x="25.5908203125" y="162.208251953125" text-anchor="start" dominant-baseline="alphabetic" transform="matrix(1, 0, 0, 1, 0.5, 0.5)" fill-opacity="1">0.06</text><text fill="none" stroke="rgb(0,0,0)" font-family="helvetica" font-size="11px" font-style="normal" font-weight="normal" text-decoration="normal" x="25.5908203125" y="162.208251953125" text-anchor="start" dominant-baseline="alphabetic" transform="matrix(1, 0, 0, 1, 0.5, 0.5)" stroke-opacity="0" stroke-linejoin="bevel" stroke-miterlimit="10">0.06</text><text fill="rgb(68,68,68)" stroke="none" font-family="helvetica" font-size="11px" font-style="normal" font-weight="normal" text-decoration="normal" x="25.5908203125" y="117.48979187011719" text-anchor="start" dominant-baseline="alphabetic" transform="matrix(1, 0, 0, 1, 0.5, 0.5)" fill-opacity="1">0.08</text><text fill="none" stroke="rgb(0,0,0)" font-family="helvetica" font-size="11px" font-style="normal" font-weight="normal" text-decoration="normal" x="25.5908203125" y="117.48979187011719" text-anchor="start" dominant-baseline="alphabetic" transform="matrix(1, 0, 0, 1, 0.5, 0.5)" stroke-opacity="0" stroke-linejoin="bevel" stroke-miterlimit="10">0.08</text><text fill="rgb(68,68,68)" stroke="none" font-family="helvetica" font-size="11px" font-style="normal" font-weight="normal" text-decoration="normal" x="31.70849609375" y="72.77133178710938" text-anchor="start" dominant-baseline="alphabetic" transform="matrix(1, 0, 0, 1, 0.5, 0.5)" fill-opacity="1">0.1</text><text fill="none" stroke="rgb(0,0,0)" font-family="helvetica" font-size="11px" font-style="normal" font-weight="normal" text-decoration="normal" x="31.70849609375" y="72.77133178710938" text-anchor="start" dominant-baseline="alphabetic" transform="matrix(1, 0, 0, 1, 0.5, 0.5)" stroke-opacity="0" stroke-linejoin="bevel" stroke-miterlimit="10">0.1</text><text fill="rgb(68,68,68)" stroke="none" font-family="helvetica" font-size="13px" font-style="italic" font-weight="normal" text-decoration="normal" x="-47.4345703125" y="163" text-anchor="start" dominant-baseline="alphabetic" transform="matrix(6.123233995736766e-17, -1, 1, 6.123233995736766e-17, -147.9091796875, 184.0908203125)" fill-opacity="1">Normalised Probability</text><text fill="none" stroke="rgb(0,0,0)" font-family="helvetica" font-size="13px" font-style="italic" font-weight="normal" text-decoration="normal" x="-47.4345703125" y="163" text-anchor="start" dominant-baseline="alphabetic" transform="matrix(6.123233995736766e-17, -1, 1, 6.123233995736766e-17, -147.9091796875, 184.0908203125)" stroke-opacity="0" stroke-linejoin="bevel" stroke-miterlimit="10">Normalised Probability</text><path fill="rgb(255,249,186)" stroke="rgb(255,0,0)" paint-order="fill" d="M 161.7063472530511 40.136363636363654 L 161.7063472530511 40.136363636363654 L 161.7063472530511 292.8636363636364 L 161.7063472530511 292.8636363636364 L 161.7063472530511 40.136363636363654 Z" fill-opacity="0.4" clip-path="url(#USxfQrffqEUU)" stroke-opacity="1" stroke-linejoin="bevel" stroke-miterlimit="10" stroke-width="2" stroke-dasharray="6"/><path fill="rgb(255,249,186)" stroke="rgb(50,205,50)" paint-order="fill" d="M 206.8960339791626 40.136363636363654 L 206.8960339791626 40.136363636363654 L 206.8960339791626 292.8636363636364 L 206.8960339791626 292.8636363636364 L 206.8960339791626 40.136363636363654 Z" fill-opacity="0.4" clip-path="url(#quPFESfGSSAl)" stroke-opacity="1" stroke-linejoin="bevel" stroke-miterlimit="10" stroke-width="2" stroke-dasharray="6"/><text fill="rgb(68,68,68)" stroke="none" font-family="helvetica" font-size="13px" font-style="normal" font-weight="bold" text-decoration="normal" x="58" y="19" text-anchor="start" dominant-baseline="alphabetic" transform="matrix(1, 0, 0, 1, 0.5, 0.5)" fill-opacity="1">Convergance Probability</text><text fill="none" stroke="rgb(0,0,0)" font-family="helvetica" font-size="13px" font-style="normal" font-weight="bold" text-decoration="normal" x="58" y="19" text-anchor="start" dominant-baseline="alphabetic" transform="matrix(1, 0, 0, 1, 0.5, 0.5)" stroke-opacity="0" stroke-miterlimit="10" stroke-dasharray="">Convergance Probability</text></svg>