<?xml version="1.0" encoding="utf-8" standalone="no"?>
<!DOCTYPE svg PUBLIC "-//W3C//DTD SVG 1.1//EN"
  "http://www.w3.org/Graphics/SVG/1.1/DTD/svg11.dtd">
<svg xmlns:xlink="http://www.w3.org/1999/xlink" width="621.35625pt" height="327.10976pt" viewBox="0 0 621.35625 327.10976" xmlns="http://www.w3.org/2000/svg" version="1.1">
 <metadata>
  <rdf:RDF xmlns:dc="http://purl.org/dc/elements/1.1/" xmlns:cc="http://creativecommons.org/ns#" xmlns:rdf="http://www.w3.org/1999/02/22-rdf-syntax-ns#">
   <cc:Work>
    <dc:type rdf:resource="http://purl.org/dc/dcmitype/StillImage"/>
    <dc:date>2024-03-19T15:32:09.236356</dc:date>
    <dc:format>image/svg+xml</dc:format>
    <dc:creator>
     <cc:Agent>
      <dc:title>Matplotlib v3.7.2, https://matplotlib.org/</dc:title>
     </cc:Agent>
    </dc:creator>
   </cc:Work>
  </rdf:RDF>
 </metadata>
 <defs>
  <style type="text/css">*{stroke-linejoin: round; stroke-linecap: butt}</style>
 </defs>
 <g id="figure_1">
  <g id="patch_1">
   <path d="M 0 327.10976 
L 621.35625 327.10976 
L 621.35625 0 
L 0 0 
z
" style="fill: #ffffff"/>
  </g>
  <g id="axes_1">
   <g id="patch_2">
    <path d="M 257.03625 274.06851 
L 614.15625 274.06851 
L 614.15625 7.95651 
L 257.03625 7.95651 
z
" style="fill: #ffffff"/>
   </g>
   <g id="patch_3">
    <path d="M 257.03625 271.40739 
L 597.150536 271.40739 
L 597.150536 266.08515 
L 257.03625 266.08515 
z
" clip-path="url(#p6b270e16f0)" style="fill: #1f77b4"/>
   </g>
   <g id="patch_4">
    <path d="M 257.03625 260.76291 
L 577.097912 260.76291 
L 577.097912 255.44067 
L 257.03625 255.44067 
z
" clip-path="url(#p6b270e16f0)" style="fill: #1f77b4"/>
   </g>
   <g id="patch_5">
    <path d="M 257.03625 250.11843 
L 570.335789 250.11843 
L 570.335789 244.79619 
L 257.03625 244.79619 
z
" clip-path="url(#p6b270e16f0)" style="fill: #1f77b4"/>
   </g>
   <g id="patch_6">
    <path d="M 257.03625 239.47395 
L 454.578954 239.47395 
L 454.578954 234.15171 
L 257.03625 234.15171 
z
" clip-path="url(#p6b270e16f0)" style="fill: #1f77b4"/>
   </g>
   <g id="patch_7">
    <path d="M 257.03625 228.82947 
L 451.203993 228.82947 
L 451.203993 223.50723 
L 257.03625 223.50723 
z
" clip-path="url(#p6b270e16f0)" style="fill: #1f77b4"/>
   </g>
   <g id="patch_8">
    <path d="M 257.03625 218.18499 
L 441.125131 218.18499 
L 441.125131 212.86275 
L 257.03625 212.86275 
z
" clip-path="url(#p6b270e16f0)" style="fill: #1f77b4"/>
   </g>
   <g id="patch_9">
    <path d="M 257.03625 207.54051 
L 431.213772 207.54051 
L 431.213772 202.21827 
L 257.03625 202.21827 
z
" clip-path="url(#p6b270e16f0)" style="fill: #1f77b4"/>
   </g>
   <g id="patch_10">
    <path d="M 257.03625 196.89603 
L 428.352116 196.89603 
L 428.352116 191.57379 
L 257.03625 191.57379 
z
" clip-path="url(#p6b270e16f0)" style="fill: #1f77b4"/>
   </g>
   <g id="patch_11">
    <path d="M 257.03625 186.25155 
L 427.969237 186.25155 
L 427.969237 180.92931 
L 257.03625 180.92931 
z
" clip-path="url(#p6b270e16f0)" style="fill: #1f77b4"/>
   </g>
   <g id="patch_12">
    <path d="M 257.03625 175.60707 
L 413.121722 175.60707 
L 413.121722 170.28483 
L 257.03625 170.28483 
z
" clip-path="url(#p6b270e16f0)" style="fill: #1f77b4"/>
   </g>
   <g id="patch_13">
    <path d="M 257.03625 164.96259 
L 410.116156 164.96259 
L 410.116156 159.64035 
L 257.03625 159.64035 
z
" clip-path="url(#p6b270e16f0)" style="fill: #1f77b4"/>
   </g>
   <g id="patch_14">
    <path d="M 257.03625 154.31811 
L 404.443117 154.31811 
L 404.443117 148.99587 
L 257.03625 148.99587 
z
" clip-path="url(#p6b270e16f0)" style="fill: #1f77b4"/>
   </g>
   <g id="patch_15">
    <path d="M 257.03625 143.67363 
L 398.247027 143.67363 
L 398.247027 138.35139 
L 257.03625 138.35139 
z
" clip-path="url(#p6b270e16f0)" style="fill: #1f77b4"/>
   </g>
   <g id="patch_16">
    <path d="M 257.03625 133.02915 
L 397.259892 133.02915 
L 397.259892 127.70691 
L 257.03625 127.70691 
z
" clip-path="url(#p6b270e16f0)" style="fill: #1f77b4"/>
   </g>
   <g id="patch_17">
    <path d="M 257.03625 122.38467 
L 395.304442 122.38467 
L 395.304442 117.06243 
L 257.03625 117.06243 
z
" clip-path="url(#p6b270e16f0)" style="fill: #1f77b4"/>
   </g>
   <g id="patch_18">
    <path d="M 257.03625 111.74019 
L 388.64849 111.74019 
L 388.64849 106.41795 
L 257.03625 106.41795 
z
" clip-path="url(#p6b270e16f0)" style="fill: #1f77b4"/>
   </g>
   <g id="patch_19">
    <path d="M 257.03625 101.09571 
L 375.324727 101.09571 
L 375.324727 95.77347 
L 257.03625 95.77347 
z
" clip-path="url(#p6b270e16f0)" style="fill: #1f77b4"/>
   </g>
   <g id="patch_20">
    <path d="M 257.03625 90.45123 
L 366.94361 90.45123 
L 366.94361 85.12899 
L 257.03625 85.12899 
z
" clip-path="url(#p6b270e16f0)" style="fill: #1f77b4"/>
   </g>
   <g id="patch_21">
    <path d="M 257.03625 79.80675 
L 351.876158 79.80675 
L 351.876158 74.48451 
L 257.03625 74.48451 
z
" clip-path="url(#p6b270e16f0)" style="fill: #1f77b4"/>
   </g>
   <g id="patch_22">
    <path d="M 257.03625 69.16227 
L 349.462133 69.16227 
L 349.462133 63.84003 
L 257.03625 63.84003 
z
" clip-path="url(#p6b270e16f0)" style="fill: #1f77b4"/>
   </g>
   <g id="patch_23">
    <path d="M 257.03625 58.51779 
L 341.724544 58.51779 
L 341.724544 53.19555 
L 257.03625 53.19555 
z
" clip-path="url(#p6b270e16f0)" style="fill: #1f77b4"/>
   </g>
   <g id="patch_24">
    <path d="M 257.03625 47.87331 
L 340.133432 47.87331 
L 340.133432 42.55107 
L 257.03625 42.55107 
z
" clip-path="url(#p6b270e16f0)" style="fill: #1f77b4"/>
   </g>
   <g id="patch_25">
    <path d="M 257.03625 37.22883 
L 336.35737 37.22883 
L 336.35737 31.90659 
L 257.03625 31.90659 
z
" clip-path="url(#p6b270e16f0)" style="fill: #1f77b4"/>
   </g>
   <g id="patch_26">
    <path d="M 257.03625 26.58435 
L 317.593205 26.58435 
L 317.593205 21.26211 
L 257.03625 21.26211 
z
" clip-path="url(#p6b270e16f0)" style="fill: #1f77b4"/>
   </g>
   <g id="patch_27">
    <path d="M 257.03625 15.93987 
L 315.00683 15.93987 
L 315.00683 10.61763 
L 257.03625 10.61763 
z
" clip-path="url(#p6b270e16f0)" style="fill: #1f77b4"/>
   </g>
   <g id="PolyCollection_1">
    <path d="M 274.041964 274.06851 
L 257.03625 274.06851 
L 257.03625 2.63427 
L 274.041964 2.63427 
L 274.041964 2.63427 
L 274.041964 274.06851 
z
" clip-path="url(#p6b270e16f0)" style="fill: url(#h2c104becc3); fill-opacity: 0.2; stroke: #ffffff; stroke-opacity: 0.2"/>
   </g>
   <g id="matplotlib.axis_1">
    <g id="xtick_1">
     <g id="line2d_1">
      <path d="M 257.03625 274.06851 
L 257.03625 7.95651 
" clip-path="url(#p6b270e16f0)" style="fill: none; stroke: #b0b0b0; stroke-width: 0.8; stroke-linecap: square"/>
     </g>
     <g id="line2d_2">
      <defs>
       <path id="m7a5bab5a98" d="M 0 0 
L 0 3.5 
" style="stroke: #000000; stroke-width: 0.8"/>
      </defs>
      <g>
       <use xlink:href="#m7a5bab5a98" x="257.03625" y="274.06851" style="stroke: #000000; stroke-width: 0.8"/>
      </g>
     </g>
     <g id="text_1">
      <!-- 0.0 -->
      <g transform="translate(244.31375 293.22601) scale(0.16 -0.16)">
       <defs>
        <path id="DejaVuSans-30" d="M 2034 4250 
Q 1547 4250 1301 3770 
Q 1056 3291 1056 2328 
Q 1056 1369 1301 889 
Q 1547 409 2034 409 
Q 2525 409 2770 889 
Q 3016 1369 3016 2328 
Q 3016 3291 2770 3770 
Q 2525 4250 2034 4250 
z
M 2034 4750 
Q 2819 4750 3233 4129 
Q 3647 3509 3647 2328 
Q 3647 1150 3233 529 
Q 2819 -91 2034 -91 
Q 1250 -91 836 529 
Q 422 1150 422 2328 
Q 422 3509 836 4129 
Q 1250 4750 2034 4750 
z
" transform="scale(0.015625)"/>
        <path id="DejaVuSans-2e" d="M 684 794 
L 1344 794 
L 1344 0 
L 684 0 
L 684 794 
z
" transform="scale(0.015625)"/>
       </defs>
       <use xlink:href="#DejaVuSans-30"/>
       <use xlink:href="#DejaVuSans-2e" x="63.623047"/>
       <use xlink:href="#DejaVuSans-30" x="95.410156"/>
      </g>
     </g>
    </g>
    <g id="xtick_2">
     <g id="line2d_3">
      <path d="M 325.059107 274.06851 
L 325.059107 7.95651 
" clip-path="url(#p6b270e16f0)" style="fill: none; stroke: #b0b0b0; stroke-width: 0.8; stroke-linecap: square"/>
     </g>
     <g id="line2d_4">
      <g>
       <use xlink:href="#m7a5bab5a98" x="325.059107" y="274.06851" style="stroke: #000000; stroke-width: 0.8"/>
      </g>
     </g>
     <g id="text_2">
      <!-- 0.2 -->
      <g transform="translate(312.336607 293.22601) scale(0.16 -0.16)">
       <defs>
        <path id="DejaVuSans-32" d="M 1228 531 
L 3431 531 
L 3431 0 
L 469 0 
L 469 531 
Q 828 903 1448 1529 
Q 2069 2156 2228 2338 
Q 2531 2678 2651 2914 
Q 2772 3150 2772 3378 
Q 2772 3750 2511 3984 
Q 2250 4219 1831 4219 
Q 1534 4219 1204 4116 
Q 875 4013 500 3803 
L 500 4441 
Q 881 4594 1212 4672 
Q 1544 4750 1819 4750 
Q 2544 4750 2975 4387 
Q 3406 4025 3406 3419 
Q 3406 3131 3298 2873 
Q 3191 2616 2906 2266 
Q 2828 2175 2409 1742 
Q 1991 1309 1228 531 
z
" transform="scale(0.015625)"/>
       </defs>
       <use xlink:href="#DejaVuSans-30"/>
       <use xlink:href="#DejaVuSans-2e" x="63.623047"/>
       <use xlink:href="#DejaVuSans-32" x="95.410156"/>
      </g>
     </g>
    </g>
    <g id="xtick_3">
     <g id="line2d_5">
      <path d="M 393.081964 274.06851 
L 393.081964 7.95651 
" clip-path="url(#p6b270e16f0)" style="fill: none; stroke: #b0b0b0; stroke-width: 0.8; stroke-linecap: square"/>
     </g>
     <g id="line2d_6">
      <g>
       <use xlink:href="#m7a5bab5a98" x="393.081964" y="274.06851" style="stroke: #000000; stroke-width: 0.8"/>
      </g>
     </g>
     <g id="text_3">
      <!-- 0.4 -->
      <g transform="translate(380.359464 293.22601) scale(0.16 -0.16)">
       <defs>
        <path id="DejaVuSans-34" d="M 2419 4116 
L 825 1625 
L 2419 1625 
L 2419 4116 
z
M 2253 4666 
L 3047 4666 
L 3047 1625 
L 3713 1625 
L 3713 1100 
L 3047 1100 
L 3047 0 
L 2419 0 
L 2419 1100 
L 313 1100 
L 313 1709 
L 2253 4666 
z
" transform="scale(0.015625)"/>
       </defs>
       <use xlink:href="#DejaVuSans-30"/>
       <use xlink:href="#DejaVuSans-2e" x="63.623047"/>
       <use xlink:href="#DejaVuSans-34" x="95.410156"/>
      </g>
     </g>
    </g>
    <g id="xtick_4">
     <g id="line2d_7">
      <path d="M 461.104821 274.06851 
L 461.104821 7.95651 
" clip-path="url(#p6b270e16f0)" style="fill: none; stroke: #b0b0b0; stroke-width: 0.8; stroke-linecap: square"/>
     </g>
     <g id="line2d_8">
      <g>
       <use xlink:href="#m7a5bab5a98" x="461.104821" y="274.06851" style="stroke: #000000; stroke-width: 0.8"/>
      </g>
     </g>
     <g id="text_4">
      <!-- 0.6 -->
      <g transform="translate(448.382321 293.22601) scale(0.16 -0.16)">
       <defs>
        <path id="DejaVuSans-36" d="M 2113 2584 
Q 1688 2584 1439 2293 
Q 1191 2003 1191 1497 
Q 1191 994 1439 701 
Q 1688 409 2113 409 
Q 2538 409 2786 701 
Q 3034 994 3034 1497 
Q 3034 2003 2786 2293 
Q 2538 2584 2113 2584 
z
M 3366 4563 
L 3366 3988 
Q 3128 4100 2886 4159 
Q 2644 4219 2406 4219 
Q 1781 4219 1451 3797 
Q 1122 3375 1075 2522 
Q 1259 2794 1537 2939 
Q 1816 3084 2150 3084 
Q 2853 3084 3261 2657 
Q 3669 2231 3669 1497 
Q 3669 778 3244 343 
Q 2819 -91 2113 -91 
Q 1303 -91 875 529 
Q 447 1150 447 2328 
Q 447 3434 972 4092 
Q 1497 4750 2381 4750 
Q 2619 4750 2861 4703 
Q 3103 4656 3366 4563 
z
" transform="scale(0.015625)"/>
       </defs>
       <use xlink:href="#DejaVuSans-30"/>
       <use xlink:href="#DejaVuSans-2e" x="63.623047"/>
       <use xlink:href="#DejaVuSans-36" x="95.410156"/>
      </g>
     </g>
    </g>
    <g id="xtick_5">
     <g id="line2d_9">
      <path d="M 529.127679 274.06851 
L 529.127679 7.95651 
" clip-path="url(#p6b270e16f0)" style="fill: none; stroke: #b0b0b0; stroke-width: 0.8; stroke-linecap: square"/>
     </g>
     <g id="line2d_10">
      <g>
       <use xlink:href="#m7a5bab5a98" x="529.127679" y="274.06851" style="stroke: #000000; stroke-width: 0.8"/>
      </g>
     </g>
     <g id="text_5">
      <!-- 0.8 -->
      <g transform="translate(516.405179 293.22601) scale(0.16 -0.16)">
       <defs>
        <path id="DejaVuSans-38" d="M 2034 2216 
Q 1584 2216 1326 1975 
Q 1069 1734 1069 1313 
Q 1069 891 1326 650 
Q 1584 409 2034 409 
Q 2484 409 2743 651 
Q 3003 894 3003 1313 
Q 3003 1734 2745 1975 
Q 2488 2216 2034 2216 
z
M 1403 2484 
Q 997 2584 770 2862 
Q 544 3141 544 3541 
Q 544 4100 942 4425 
Q 1341 4750 2034 4750 
Q 2731 4750 3128 4425 
Q 3525 4100 3525 3541 
Q 3525 3141 3298 2862 
Q 3072 2584 2669 2484 
Q 3125 2378 3379 2068 
Q 3634 1759 3634 1313 
Q 3634 634 3220 271 
Q 2806 -91 2034 -91 
Q 1263 -91 848 271 
Q 434 634 434 1313 
Q 434 1759 690 2068 
Q 947 2378 1403 2484 
z
M 1172 3481 
Q 1172 3119 1398 2916 
Q 1625 2713 2034 2713 
Q 2441 2713 2670 2916 
Q 2900 3119 2900 3481 
Q 2900 3844 2670 4047 
Q 2441 4250 2034 4250 
Q 1625 4250 1398 4047 
Q 1172 3844 1172 3481 
z
" transform="scale(0.015625)"/>
       </defs>
       <use xlink:href="#DejaVuSans-30"/>
       <use xlink:href="#DejaVuSans-2e" x="63.623047"/>
       <use xlink:href="#DejaVuSans-38" x="95.410156"/>
      </g>
     </g>
    </g>
    <g id="xtick_6">
     <g id="line2d_11">
      <path d="M 597.150536 274.06851 
L 597.150536 7.95651 
" clip-path="url(#p6b270e16f0)" style="fill: none; stroke: #b0b0b0; stroke-width: 0.8; stroke-linecap: square"/>
     </g>
     <g id="line2d_12">
      <g>
       <use xlink:href="#m7a5bab5a98" x="597.150536" y="274.06851" style="stroke: #000000; stroke-width: 0.8"/>
      </g>
     </g>
     <g id="text_6">
      <!-- 1.0 -->
      <g transform="translate(584.428036 293.22601) scale(0.16 -0.16)">
       <defs>
        <path id="DejaVuSans-31" d="M 794 531 
L 1825 531 
L 1825 4091 
L 703 3866 
L 703 4441 
L 1819 4666 
L 2450 4666 
L 2450 531 
L 3481 531 
L 3481 0 
L 794 0 
L 794 531 
z
" transform="scale(0.015625)"/>
       </defs>
       <use xlink:href="#DejaVuSans-31"/>
       <use xlink:href="#DejaVuSans-2e" x="63.623047"/>
       <use xlink:href="#DejaVuSans-30" x="95.410156"/>
      </g>
     </g>
    </g>
    <g id="text_7">
     <!-- Influence on convergance -->
     <g transform="translate(306.29 315.750385) scale(0.2 -0.2)">
      <defs>
       <path id="DejaVuSans-49" d="M 628 4666 
L 1259 4666 
L 1259 0 
L 628 0 
L 628 4666 
z
" transform="scale(0.015625)"/>
       <path id="DejaVuSans-6e" d="M 3513 2113 
L 3513 0 
L 2938 0 
L 2938 2094 
Q 2938 2591 2744 2837 
Q 2550 3084 2163 3084 
Q 1697 3084 1428 2787 
Q 1159 2491 1159 1978 
L 1159 0 
L 581 0 
L 581 3500 
L 1159 3500 
L 1159 2956 
Q 1366 3272 1645 3428 
Q 1925 3584 2291 3584 
Q 2894 3584 3203 3211 
Q 3513 2838 3513 2113 
z
" transform="scale(0.015625)"/>
       <path id="DejaVuSans-66" d="M 2375 4863 
L 2375 4384 
L 1825 4384 
Q 1516 4384 1395 4259 
Q 1275 4134 1275 3809 
L 1275 3500 
L 2222 3500 
L 2222 3053 
L 1275 3053 
L 1275 0 
L 697 0 
L 697 3053 
L 147 3053 
L 147 3500 
L 697 3500 
L 697 3744 
Q 697 4328 969 4595 
Q 1241 4863 1831 4863 
L 2375 4863 
z
" transform="scale(0.015625)"/>
       <path id="DejaVuSans-6c" d="M 603 4863 
L 1178 4863 
L 1178 0 
L 603 0 
L 603 4863 
z
" transform="scale(0.015625)"/>
       <path id="DejaVuSans-75" d="M 544 1381 
L 544 3500 
L 1119 3500 
L 1119 1403 
Q 1119 906 1312 657 
Q 1506 409 1894 409 
Q 2359 409 2629 706 
Q 2900 1003 2900 1516 
L 2900 3500 
L 3475 3500 
L 3475 0 
L 2900 0 
L 2900 538 
Q 2691 219 2414 64 
Q 2138 -91 1772 -91 
Q 1169 -91 856 284 
Q 544 659 544 1381 
z
M 1991 3584 
L 1991 3584 
z
" transform="scale(0.015625)"/>
       <path id="DejaVuSans-65" d="M 3597 1894 
L 3597 1613 
L 953 1613 
Q 991 1019 1311 708 
Q 1631 397 2203 397 
Q 2534 397 2845 478 
Q 3156 559 3463 722 
L 3463 178 
Q 3153 47 2828 -22 
Q 2503 -91 2169 -91 
Q 1331 -91 842 396 
Q 353 884 353 1716 
Q 353 2575 817 3079 
Q 1281 3584 2069 3584 
Q 2775 3584 3186 3129 
Q 3597 2675 3597 1894 
z
M 3022 2063 
Q 3016 2534 2758 2815 
Q 2500 3097 2075 3097 
Q 1594 3097 1305 2825 
Q 1016 2553 972 2059 
L 3022 2063 
z
" transform="scale(0.015625)"/>
       <path id="DejaVuSans-63" d="M 3122 3366 
L 3122 2828 
Q 2878 2963 2633 3030 
Q 2388 3097 2138 3097 
Q 1578 3097 1268 2742 
Q 959 2388 959 1747 
Q 959 1106 1268 751 
Q 1578 397 2138 397 
Q 2388 397 2633 464 
Q 2878 531 3122 666 
L 3122 134 
Q 2881 22 2623 -34 
Q 2366 -91 2075 -91 
Q 1284 -91 818 406 
Q 353 903 353 1747 
Q 353 2603 823 3093 
Q 1294 3584 2113 3584 
Q 2378 3584 2631 3529 
Q 2884 3475 3122 3366 
z
" transform="scale(0.015625)"/>
       <path id="DejaVuSans-20" transform="scale(0.015625)"/>
       <path id="DejaVuSans-6f" d="M 1959 3097 
Q 1497 3097 1228 2736 
Q 959 2375 959 1747 
Q 959 1119 1226 758 
Q 1494 397 1959 397 
Q 2419 397 2687 759 
Q 2956 1122 2956 1747 
Q 2956 2369 2687 2733 
Q 2419 3097 1959 3097 
z
M 1959 3584 
Q 2709 3584 3137 3096 
Q 3566 2609 3566 1747 
Q 3566 888 3137 398 
Q 2709 -91 1959 -91 
Q 1206 -91 779 398 
Q 353 888 353 1747 
Q 353 2609 779 3096 
Q 1206 3584 1959 3584 
z
" transform="scale(0.015625)"/>
       <path id="DejaVuSans-76" d="M 191 3500 
L 800 3500 
L 1894 563 
L 2988 3500 
L 3597 3500 
L 2284 0 
L 1503 0 
L 191 3500 
z
" transform="scale(0.015625)"/>
       <path id="DejaVuSans-72" d="M 2631 2963 
Q 2534 3019 2420 3045 
Q 2306 3072 2169 3072 
Q 1681 3072 1420 2755 
Q 1159 2438 1159 1844 
L 1159 0 
L 581 0 
L 581 3500 
L 1159 3500 
L 1159 2956 
Q 1341 3275 1631 3429 
Q 1922 3584 2338 3584 
Q 2397 3584 2469 3576 
Q 2541 3569 2628 3553 
L 2631 2963 
z
" transform="scale(0.015625)"/>
       <path id="DejaVuSans-67" d="M 2906 1791 
Q 2906 2416 2648 2759 
Q 2391 3103 1925 3103 
Q 1463 3103 1205 2759 
Q 947 2416 947 1791 
Q 947 1169 1205 825 
Q 1463 481 1925 481 
Q 2391 481 2648 825 
Q 2906 1169 2906 1791 
z
M 3481 434 
Q 3481 -459 3084 -895 
Q 2688 -1331 1869 -1331 
Q 1566 -1331 1297 -1286 
Q 1028 -1241 775 -1147 
L 775 -588 
Q 1028 -725 1275 -790 
Q 1522 -856 1778 -856 
Q 2344 -856 2625 -561 
Q 2906 -266 2906 331 
L 2906 616 
Q 2728 306 2450 153 
Q 2172 0 1784 0 
Q 1141 0 747 490 
Q 353 981 353 1791 
Q 353 2603 747 3093 
Q 1141 3584 1784 3584 
Q 2172 3584 2450 3431 
Q 2728 3278 2906 2969 
L 2906 3500 
L 3481 3500 
L 3481 434 
z
" transform="scale(0.015625)"/>
       <path id="DejaVuSans-61" d="M 2194 1759 
Q 1497 1759 1228 1600 
Q 959 1441 959 1056 
Q 959 750 1161 570 
Q 1363 391 1709 391 
Q 2188 391 2477 730 
Q 2766 1069 2766 1631 
L 2766 1759 
L 2194 1759 
z
M 3341 1997 
L 3341 0 
L 2766 0 
L 2766 531 
Q 2569 213 2275 61 
Q 1981 -91 1556 -91 
Q 1019 -91 701 211 
Q 384 513 384 1019 
Q 384 1609 779 1909 
Q 1175 2209 1959 2209 
L 2766 2209 
L 2766 2266 
Q 2766 2663 2505 2880 
Q 2244 3097 1772 3097 
Q 1472 3097 1187 3025 
Q 903 2953 641 2809 
L 641 3341 
Q 956 3463 1253 3523 
Q 1550 3584 1831 3584 
Q 2591 3584 2966 3190 
Q 3341 2797 3341 1997 
z
" transform="scale(0.015625)"/>
      </defs>
      <use xlink:href="#DejaVuSans-49"/>
      <use xlink:href="#DejaVuSans-6e" x="29.492188"/>
      <use xlink:href="#DejaVuSans-66" x="92.871094"/>
      <use xlink:href="#DejaVuSans-6c" x="128.076172"/>
      <use xlink:href="#DejaVuSans-75" x="155.859375"/>
      <use xlink:href="#DejaVuSans-65" x="219.238281"/>
      <use xlink:href="#DejaVuSans-6e" x="280.761719"/>
      <use xlink:href="#DejaVuSans-63" x="344.140625"/>
      <use xlink:href="#DejaVuSans-65" x="399.121094"/>
      <use xlink:href="#DejaVuSans-20" x="460.644531"/>
      <use xlink:href="#DejaVuSans-6f" x="492.431641"/>
      <use xlink:href="#DejaVuSans-6e" x="553.613281"/>
      <use xlink:href="#DejaVuSans-20" x="616.992188"/>
      <use xlink:href="#DejaVuSans-63" x="648.779297"/>
      <use xlink:href="#DejaVuSans-6f" x="703.759766"/>
      <use xlink:href="#DejaVuSans-6e" x="764.941406"/>
      <use xlink:href="#DejaVuSans-76" x="828.320312"/>
      <use xlink:href="#DejaVuSans-65" x="887.5"/>
      <use xlink:href="#DejaVuSans-72" x="949.023438"/>
      <use xlink:href="#DejaVuSans-67" x="988.386719"/>
      <use xlink:href="#DejaVuSans-61" x="1051.863281"/>
      <use xlink:href="#DejaVuSans-6e" x="1113.142578"/>
      <use xlink:href="#DejaVuSans-63" x="1176.521484"/>
      <use xlink:href="#DejaVuSans-65" x="1231.501953"/>
     </g>
    </g>
   </g>
   <g id="matplotlib.axis_2">
    <g id="ytick_1">
     <g id="line2d_13">
      <path d="M 257.03625 268.74627 
L 614.15625 268.74627 
" clip-path="url(#p6b270e16f0)" style="fill: none; stroke: #b0b0b0; stroke-width: 0.8; stroke-linecap: square"/>
     </g>
     <g id="line2d_14">
      <defs>
       <path id="m7c46888bd9" d="M 0 0 
L -3.5 0 
" style="stroke: #000000; stroke-width: 0.8"/>
      </defs>
      <g>
       <use xlink:href="#m7c46888bd9" x="257.03625" y="268.74627" style="stroke: #000000; stroke-width: 0.8"/>
      </g>
     </g>
     <g id="text_8">
      <!-- pdivt -->
      <g transform="translate(209.53375 274.82502) scale(0.16 -0.16)">
       <defs>
        <path id="DejaVuSans-70" d="M 1159 525 
L 1159 -1331 
L 581 -1331 
L 581 3500 
L 1159 3500 
L 1159 2969 
Q 1341 3281 1617 3432 
Q 1894 3584 2278 3584 
Q 2916 3584 3314 3078 
Q 3713 2572 3713 1747 
Q 3713 922 3314 415 
Q 2916 -91 2278 -91 
Q 1894 -91 1617 61 
Q 1341 213 1159 525 
z
M 3116 1747 
Q 3116 2381 2855 2742 
Q 2594 3103 2138 3103 
Q 1681 3103 1420 2742 
Q 1159 2381 1159 1747 
Q 1159 1113 1420 752 
Q 1681 391 2138 391 
Q 2594 391 2855 752 
Q 3116 1113 3116 1747 
z
" transform="scale(0.015625)"/>
        <path id="DejaVuSans-64" d="M 2906 2969 
L 2906 4863 
L 3481 4863 
L 3481 0 
L 2906 0 
L 2906 525 
Q 2725 213 2448 61 
Q 2172 -91 1784 -91 
Q 1150 -91 751 415 
Q 353 922 353 1747 
Q 353 2572 751 3078 
Q 1150 3584 1784 3584 
Q 2172 3584 2448 3432 
Q 2725 3281 2906 2969 
z
M 947 1747 
Q 947 1113 1208 752 
Q 1469 391 1925 391 
Q 2381 391 2643 752 
Q 2906 1113 2906 1747 
Q 2906 2381 2643 2742 
Q 2381 3103 1925 3103 
Q 1469 3103 1208 2742 
Q 947 2381 947 1747 
z
" transform="scale(0.015625)"/>
        <path id="DejaVuSans-69" d="M 603 3500 
L 1178 3500 
L 1178 0 
L 603 0 
L 603 3500 
z
M 603 4863 
L 1178 4863 
L 1178 4134 
L 603 4134 
L 603 4863 
z
" transform="scale(0.015625)"/>
        <path id="DejaVuSans-74" d="M 1172 4494 
L 1172 3500 
L 2356 3500 
L 2356 3053 
L 1172 3053 
L 1172 1153 
Q 1172 725 1289 603 
Q 1406 481 1766 481 
L 2356 481 
L 2356 0 
L 1766 0 
Q 1100 0 847 248 
Q 594 497 594 1153 
L 594 3053 
L 172 3053 
L 172 3500 
L 594 3500 
L 594 4494 
L 1172 4494 
z
" transform="scale(0.015625)"/>
       </defs>
       <use xlink:href="#DejaVuSans-70"/>
       <use xlink:href="#DejaVuSans-64" x="63.476562"/>
       <use xlink:href="#DejaVuSans-69" x="126.953125"/>
       <use xlink:href="#DejaVuSans-76" x="154.736328"/>
       <use xlink:href="#DejaVuSans-74" x="213.916016"/>
      </g>
     </g>
    </g>
    <g id="ytick_2">
     <g id="line2d_15">
      <path d="M 257.03625 258.10179 
L 614.15625 258.10179 
" clip-path="url(#p6b270e16f0)" style="fill: none; stroke: #b0b0b0; stroke-width: 0.8; stroke-linecap: square"/>
     </g>
     <g id="line2d_16">
      <g>
       <use xlink:href="#m7c46888bd9" x="257.03625" y="258.10179" style="stroke: #000000; stroke-width: 0.8"/>
      </g>
     </g>
     <g id="text_9">
      <!-- betalim -->
      <g transform="translate(189.48125 264.18054) scale(0.16 -0.16)">
       <defs>
        <path id="DejaVuSans-62" d="M 3116 1747 
Q 3116 2381 2855 2742 
Q 2594 3103 2138 3103 
Q 1681 3103 1420 2742 
Q 1159 2381 1159 1747 
Q 1159 1113 1420 752 
Q 1681 391 2138 391 
Q 2594 391 2855 752 
Q 3116 1113 3116 1747 
z
M 1159 2969 
Q 1341 3281 1617 3432 
Q 1894 3584 2278 3584 
Q 2916 3584 3314 3078 
Q 3713 2572 3713 1747 
Q 3713 922 3314 415 
Q 2916 -91 2278 -91 
Q 1894 -91 1617 61 
Q 1341 213 1159 525 
L 1159 0 
L 581 0 
L 581 4863 
L 1159 4863 
L 1159 2969 
z
" transform="scale(0.015625)"/>
        <path id="DejaVuSans-6d" d="M 3328 2828 
Q 3544 3216 3844 3400 
Q 4144 3584 4550 3584 
Q 5097 3584 5394 3201 
Q 5691 2819 5691 2113 
L 5691 0 
L 5113 0 
L 5113 2094 
Q 5113 2597 4934 2840 
Q 4756 3084 4391 3084 
Q 3944 3084 3684 2787 
Q 3425 2491 3425 1978 
L 3425 0 
L 2847 0 
L 2847 2094 
Q 2847 2600 2669 2842 
Q 2491 3084 2119 3084 
Q 1678 3084 1418 2786 
Q 1159 2488 1159 1978 
L 1159 0 
L 581 0 
L 581 3500 
L 1159 3500 
L 1159 2956 
Q 1356 3278 1631 3431 
Q 1906 3584 2284 3584 
Q 2666 3584 2933 3390 
Q 3200 3197 3328 2828 
z
" transform="scale(0.015625)"/>
       </defs>
       <use xlink:href="#DejaVuSans-62"/>
       <use xlink:href="#DejaVuSans-65" x="63.476562"/>
       <use xlink:href="#DejaVuSans-74" x="125"/>
       <use xlink:href="#DejaVuSans-61" x="164.208984"/>
       <use xlink:href="#DejaVuSans-6c" x="225.488281"/>
       <use xlink:href="#DejaVuSans-69" x="253.271484"/>
       <use xlink:href="#DejaVuSans-6d" x="281.054688"/>
      </g>
     </g>
    </g>
    <g id="ytick_3">
     <g id="line2d_17">
      <path d="M 257.03625 247.45731 
L 614.15625 247.45731 
" clip-path="url(#p6b270e16f0)" style="fill: none; stroke: #b0b0b0; stroke-width: 0.8; stroke-linecap: square"/>
     </g>
     <g id="line2d_18">
      <g>
       <use xlink:href="#m7c46888bd9" x="257.03625" y="247.45731" style="stroke: #000000; stroke-width: 0.8"/>
      </g>
     </g>
     <g id="text_10">
      <!-- beta -->
      <g transform="translate(213.95625 253.53606) scale(0.16 -0.16)">
       <use xlink:href="#DejaVuSans-62"/>
       <use xlink:href="#DejaVuSans-65" x="63.476562"/>
       <use xlink:href="#DejaVuSans-74" x="125"/>
       <use xlink:href="#DejaVuSans-61" x="164.208984"/>
      </g>
     </g>
    </g>
    <g id="ytick_4">
     <g id="line2d_19">
      <path d="M 257.03625 236.81283 
L 614.15625 236.81283 
" clip-path="url(#p6b270e16f0)" style="fill: none; stroke: #b0b0b0; stroke-width: 0.8; stroke-linecap: square"/>
     </g>
     <g id="line2d_20">
      <g>
       <use xlink:href="#m7c46888bd9" x="257.03625" y="236.81283" style="stroke: #000000; stroke-width: 0.8"/>
      </g>
     </g>
     <g id="text_11">
      <!-- Temperature margin TF coil -->
      <g transform="translate(30.55625 242.89158) scale(0.16 -0.16)">
       <defs>
        <path id="DejaVuSans-54" d="M -19 4666 
L 3928 4666 
L 3928 4134 
L 2272 4134 
L 2272 0 
L 1638 0 
L 1638 4134 
L -19 4134 
L -19 4666 
z
" transform="scale(0.015625)"/>
        <path id="DejaVuSans-46" d="M 628 4666 
L 3309 4666 
L 3309 4134 
L 1259 4134 
L 1259 2759 
L 3109 2759 
L 3109 2228 
L 1259 2228 
L 1259 0 
L 628 0 
L 628 4666 
z
" transform="scale(0.015625)"/>
       </defs>
       <use xlink:href="#DejaVuSans-54"/>
       <use xlink:href="#DejaVuSans-65" x="44.083984"/>
       <use xlink:href="#DejaVuSans-6d" x="105.607422"/>
       <use xlink:href="#DejaVuSans-70" x="203.019531"/>
       <use xlink:href="#DejaVuSans-65" x="266.496094"/>
       <use xlink:href="#DejaVuSans-72" x="328.019531"/>
       <use xlink:href="#DejaVuSans-61" x="369.132812"/>
       <use xlink:href="#DejaVuSans-74" x="430.412109"/>
       <use xlink:href="#DejaVuSans-75" x="469.621094"/>
       <use xlink:href="#DejaVuSans-72" x="533"/>
       <use xlink:href="#DejaVuSans-65" x="571.863281"/>
       <use xlink:href="#DejaVuSans-20" x="633.386719"/>
       <use xlink:href="#DejaVuSans-6d" x="665.173828"/>
       <use xlink:href="#DejaVuSans-61" x="762.585938"/>
       <use xlink:href="#DejaVuSans-72" x="823.865234"/>
       <use xlink:href="#DejaVuSans-67" x="863.228516"/>
       <use xlink:href="#DejaVuSans-69" x="926.705078"/>
       <use xlink:href="#DejaVuSans-6e" x="954.488281"/>
       <use xlink:href="#DejaVuSans-20" x="1017.867188"/>
       <use xlink:href="#DejaVuSans-54" x="1049.654297"/>
       <use xlink:href="#DejaVuSans-46" x="1110.738281"/>
       <use xlink:href="#DejaVuSans-20" x="1168.257812"/>
       <use xlink:href="#DejaVuSans-63" x="1200.044922"/>
       <use xlink:href="#DejaVuSans-6f" x="1255.025391"/>
       <use xlink:href="#DejaVuSans-69" x="1316.207031"/>
       <use xlink:href="#DejaVuSans-6c" x="1343.990234"/>
      </g>
     </g>
    </g>
    <g id="ytick_5">
     <g id="line2d_21">
      <path d="M 257.03625 226.16835 
L 614.15625 226.16835 
" clip-path="url(#p6b270e16f0)" style="fill: none; stroke: #b0b0b0; stroke-width: 0.8; stroke-linecap: square"/>
     </g>
     <g id="line2d_22">
      <g>
       <use xlink:href="#m7c46888bd9" x="257.03625" y="226.16835" style="stroke: #000000; stroke-width: 0.8"/>
      </g>
     </g>
     <g id="text_12">
      <!-- ohcth -->
      <g transform="translate(204.89625 232.2471) scale(0.16 -0.16)">
       <defs>
        <path id="DejaVuSans-68" d="M 3513 2113 
L 3513 0 
L 2938 0 
L 2938 2094 
Q 2938 2591 2744 2837 
Q 2550 3084 2163 3084 
Q 1697 3084 1428 2787 
Q 1159 2491 1159 1978 
L 1159 0 
L 581 0 
L 581 4863 
L 1159 4863 
L 1159 2956 
Q 1366 3272 1645 3428 
Q 1925 3584 2291 3584 
Q 2894 3584 3203 3211 
Q 3513 2838 3513 2113 
z
" transform="scale(0.015625)"/>
       </defs>
       <use xlink:href="#DejaVuSans-6f"/>
       <use xlink:href="#DejaVuSans-68" x="61.181641"/>
       <use xlink:href="#DejaVuSans-63" x="124.560547"/>
       <use xlink:href="#DejaVuSans-74" x="179.541016"/>
       <use xlink:href="#DejaVuSans-68" x="218.75"/>
      </g>
     </g>
    </g>
    <g id="ytick_6">
     <g id="line2d_23">
      <path d="M 257.03625 215.52387 
L 614.15625 215.52387 
" clip-path="url(#p6b270e16f0)" style="fill: none; stroke: #b0b0b0; stroke-width: 0.8; stroke-linecap: square"/>
     </g>
     <g id="line2d_24">
      <g>
       <use xlink:href="#m7c46888bd9" x="257.03625" y="215.52387" style="stroke: #000000; stroke-width: 0.8"/>
      </g>
     </g>
     <g id="text_13">
      <!-- fvsbrnni -->
      <g transform="translate(185.41875 221.60262) scale(0.16 -0.16)">
       <defs>
        <path id="DejaVuSans-73" d="M 2834 3397 
L 2834 2853 
Q 2591 2978 2328 3040 
Q 2066 3103 1784 3103 
Q 1356 3103 1142 2972 
Q 928 2841 928 2578 
Q 928 2378 1081 2264 
Q 1234 2150 1697 2047 
L 1894 2003 
Q 2506 1872 2764 1633 
Q 3022 1394 3022 966 
Q 3022 478 2636 193 
Q 2250 -91 1575 -91 
Q 1294 -91 989 -36 
Q 684 19 347 128 
L 347 722 
Q 666 556 975 473 
Q 1284 391 1588 391 
Q 1994 391 2212 530 
Q 2431 669 2431 922 
Q 2431 1156 2273 1281 
Q 2116 1406 1581 1522 
L 1381 1569 
Q 847 1681 609 1914 
Q 372 2147 372 2553 
Q 372 3047 722 3315 
Q 1072 3584 1716 3584 
Q 2034 3584 2315 3537 
Q 2597 3491 2834 3397 
z
" transform="scale(0.015625)"/>
       </defs>
       <use xlink:href="#DejaVuSans-66"/>
       <use xlink:href="#DejaVuSans-76" x="35.205078"/>
       <use xlink:href="#DejaVuSans-73" x="94.384766"/>
       <use xlink:href="#DejaVuSans-62" x="146.484375"/>
       <use xlink:href="#DejaVuSans-72" x="209.960938"/>
       <use xlink:href="#DejaVuSans-6e" x="249.324219"/>
       <use xlink:href="#DejaVuSans-6e" x="312.703125"/>
       <use xlink:href="#DejaVuSans-69" x="376.082031"/>
      </g>
     </g>
    </g>
    <g id="ytick_7">
     <g id="line2d_25">
      <path d="M 257.03625 204.87939 
L 614.15625 204.87939 
" clip-path="url(#p6b270e16f0)" style="fill: none; stroke: #b0b0b0; stroke-width: 0.8; stroke-linecap: square"/>
     </g>
     <g id="line2d_26">
      <g>
       <use xlink:href="#m7c46888bd9" x="257.03625" y="204.87939" style="stroke: #000000; stroke-width: 0.8"/>
      </g>
     </g>
     <g id="text_14">
      <!-- cohbop -->
      <g transform="translate(191.20375 210.95814) scale(0.16 -0.16)">
       <use xlink:href="#DejaVuSans-63"/>
       <use xlink:href="#DejaVuSans-6f" x="54.980469"/>
       <use xlink:href="#DejaVuSans-68" x="116.162109"/>
       <use xlink:href="#DejaVuSans-62" x="179.541016"/>
       <use xlink:href="#DejaVuSans-6f" x="243.017578"/>
       <use xlink:href="#DejaVuSans-70" x="304.199219"/>
      </g>
     </g>
    </g>
    <g id="ytick_8">
     <g id="line2d_27">
      <path d="M 257.03625 194.23491 
L 614.15625 194.23491 
" clip-path="url(#p6b270e16f0)" style="fill: none; stroke: #b0b0b0; stroke-width: 0.8; stroke-linecap: square"/>
     </g>
     <g id="line2d_28">
      <g>
       <use xlink:href="#m7c46888bd9" x="257.03625" y="194.23491" style="stroke: #000000; stroke-width: 0.8"/>
      </g>
     </g>
     <g id="text_15">
      <!-- coheof -->
      <g transform="translate(196.04125 200.31366) scale(0.16 -0.16)">
       <use xlink:href="#DejaVuSans-63"/>
       <use xlink:href="#DejaVuSans-6f" x="54.980469"/>
       <use xlink:href="#DejaVuSans-68" x="116.162109"/>
       <use xlink:href="#DejaVuSans-65" x="179.541016"/>
       <use xlink:href="#DejaVuSans-6f" x="241.064453"/>
       <use xlink:href="#DejaVuSans-66" x="302.246094"/>
      </g>
     </g>
    </g>
    <g id="ytick_9">
     <g id="line2d_29">
      <path d="M 257.03625 183.59043 
L 614.15625 183.59043 
" clip-path="url(#p6b270e16f0)" style="fill: none; stroke: #b0b0b0; stroke-width: 0.8; stroke-linecap: square"/>
     </g>
     <g id="line2d_30">
      <g>
       <use xlink:href="#m7c46888bd9" x="257.03625" y="183.59043" style="stroke: #000000; stroke-width: 0.8"/>
      </g>
     </g>
     <g id="text_16">
      <!-- dene -->
      <g transform="translate(210.04875 189.66918) scale(0.16 -0.16)">
       <use xlink:href="#DejaVuSans-64"/>
       <use xlink:href="#DejaVuSans-65" x="63.476562"/>
       <use xlink:href="#DejaVuSans-6e" x="125"/>
       <use xlink:href="#DejaVuSans-65" x="188.378906"/>
      </g>
     </g>
    </g>
    <g id="ytick_10">
     <g id="line2d_31">
      <path d="M 257.03625 172.94595 
L 614.15625 172.94595 
" clip-path="url(#p6b270e16f0)" style="fill: none; stroke: #b0b0b0; stroke-width: 0.8; stroke-linecap: square"/>
     </g>
     <g id="line2d_32">
      <g>
       <use xlink:href="#m7c46888bd9" x="257.03625" y="172.94595" style="stroke: #000000; stroke-width: 0.8"/>
      </g>
     </g>
     <g id="text_17">
      <!-- Neutron wall-load (MW/m$^{2}$) -->
      <g transform="translate(32.43625 179.6822) scale(0.16 -0.16)">
       <defs>
        <path id="DejaVuSans-4e" d="M 628 4666 
L 1478 4666 
L 3547 763 
L 3547 4666 
L 4159 4666 
L 4159 0 
L 3309 0 
L 1241 3903 
L 1241 0 
L 628 0 
L 628 4666 
z
" transform="scale(0.015625)"/>
        <path id="DejaVuSans-77" d="M 269 3500 
L 844 3500 
L 1563 769 
L 2278 3500 
L 2956 3500 
L 3675 769 
L 4391 3500 
L 4966 3500 
L 4050 0 
L 3372 0 
L 2619 2869 
L 1863 0 
L 1184 0 
L 269 3500 
z
" transform="scale(0.015625)"/>
        <path id="DejaVuSans-2d" d="M 313 2009 
L 1997 2009 
L 1997 1497 
L 313 1497 
L 313 2009 
z
" transform="scale(0.015625)"/>
        <path id="DejaVuSans-28" d="M 1984 4856 
Q 1566 4138 1362 3434 
Q 1159 2731 1159 2009 
Q 1159 1288 1364 580 
Q 1569 -128 1984 -844 
L 1484 -844 
Q 1016 -109 783 600 
Q 550 1309 550 2009 
Q 550 2706 781 3412 
Q 1013 4119 1484 4856 
L 1984 4856 
z
" transform="scale(0.015625)"/>
        <path id="DejaVuSans-4d" d="M 628 4666 
L 1569 4666 
L 2759 1491 
L 3956 4666 
L 4897 4666 
L 4897 0 
L 4281 0 
L 4281 4097 
L 3078 897 
L 2444 897 
L 1241 4097 
L 1241 0 
L 628 0 
L 628 4666 
z
" transform="scale(0.015625)"/>
        <path id="DejaVuSans-57" d="M 213 4666 
L 850 4666 
L 1831 722 
L 2809 4666 
L 3519 4666 
L 4500 722 
L 5478 4666 
L 6119 4666 
L 4947 0 
L 4153 0 
L 3169 4050 
L 2175 0 
L 1381 0 
L 213 4666 
z
" transform="scale(0.015625)"/>
        <path id="DejaVuSans-2f" d="M 1625 4666 
L 2156 4666 
L 531 -594 
L 0 -594 
L 1625 4666 
z
" transform="scale(0.015625)"/>
        <path id="DejaVuSans-29" d="M 513 4856 
L 1013 4856 
Q 1481 4119 1714 3412 
Q 1947 2706 1947 2009 
Q 1947 1309 1714 600 
Q 1481 -109 1013 -844 
L 513 -844 
Q 928 -128 1133 580 
Q 1338 1288 1338 2009 
Q 1338 2731 1133 3434 
Q 928 4138 513 4856 
z
" transform="scale(0.015625)"/>
       </defs>
       <use xlink:href="#DejaVuSans-4e" transform="translate(0 0.765625)"/>
       <use xlink:href="#DejaVuSans-65" transform="translate(74.804688 0.765625)"/>
       <use xlink:href="#DejaVuSans-75" transform="translate(136.328125 0.765625)"/>
       <use xlink:href="#DejaVuSans-74" transform="translate(199.707031 0.765625)"/>
       <use xlink:href="#DejaVuSans-72" transform="translate(238.916016 0.765625)"/>
       <use xlink:href="#DejaVuSans-6f" transform="translate(280.029297 0.765625)"/>
       <use xlink:href="#DejaVuSans-6e" transform="translate(341.210938 0.765625)"/>
       <use xlink:href="#DejaVuSans-20" transform="translate(404.589844 0.765625)"/>
       <use xlink:href="#DejaVuSans-77" transform="translate(436.376953 0.765625)"/>
       <use xlink:href="#DejaVuSans-61" transform="translate(518.164062 0.765625)"/>
       <use xlink:href="#DejaVuSans-6c" transform="translate(579.443359 0.765625)"/>
       <use xlink:href="#DejaVuSans-6c" transform="translate(607.226562 0.765625)"/>
       <use xlink:href="#DejaVuSans-2d" transform="translate(635.009766 0.765625)"/>
       <use xlink:href="#DejaVuSans-6c" transform="translate(671.09375 0.765625)"/>
       <use xlink:href="#DejaVuSans-6f" transform="translate(698.876953 0.765625)"/>
       <use xlink:href="#DejaVuSans-61" transform="translate(760.058594 0.765625)"/>
       <use xlink:href="#DejaVuSans-64" transform="translate(821.337891 0.765625)"/>
       <use xlink:href="#DejaVuSans-20" transform="translate(884.814453 0.765625)"/>
       <use xlink:href="#DejaVuSans-28" transform="translate(916.601562 0.765625)"/>
       <use xlink:href="#DejaVuSans-4d" transform="translate(955.615234 0.765625)"/>
       <use xlink:href="#DejaVuSans-57" transform="translate(1041.894531 0.765625)"/>
       <use xlink:href="#DejaVuSans-2f" transform="translate(1140.771484 0.765625)"/>
       <use xlink:href="#DejaVuSans-6d" transform="translate(1174.462891 0.765625)"/>
       <use xlink:href="#DejaVuSans-32" transform="translate(1272.832031 39.046875) scale(0.7)"/>
       <use xlink:href="#DejaVuSans-29" transform="translate(1320.102539 0.765625)"/>
      </g>
     </g>
    </g>
    <g id="ytick_11">
     <g id="line2d_33">
      <path d="M 257.03625 162.30147 
L 614.15625 162.30147 
" clip-path="url(#p6b270e16f0)" style="fill: none; stroke: #b0b0b0; stroke-width: 0.8; stroke-linecap: square"/>
     </g>
     <g id="line2d_34">
      <g>
       <use xlink:href="#m7c46888bd9" x="257.03625" y="162.30147" style="stroke: #000000; stroke-width: 0.8"/>
      </g>
     </g>
     <g id="text_18">
      <!-- cpttf -->
      <g transform="translate(212.90375 168.38022) scale(0.16 -0.16)">
       <use xlink:href="#DejaVuSans-63"/>
       <use xlink:href="#DejaVuSans-70" x="54.980469"/>
       <use xlink:href="#DejaVuSans-74" x="118.457031"/>
       <use xlink:href="#DejaVuSans-74" x="157.666016"/>
       <use xlink:href="#DejaVuSans-66" x="196.875"/>
      </g>
     </g>
    </g>
    <g id="ytick_12">
     <g id="line2d_35">
      <path d="M 257.03625 151.65699 
L 614.15625 151.65699 
" clip-path="url(#p6b270e16f0)" style="fill: none; stroke: #b0b0b0; stroke-width: 0.8; stroke-linecap: square"/>
     </g>
     <g id="line2d_36">
      <g>
       <use xlink:href="#m7c46888bd9" x="257.03625" y="151.65699" style="stroke: #000000; stroke-width: 0.8"/>
      </g>
     </g>
     <g id="text_19">
      <!-- thkcas -->
      <g transform="translate(197.42125 157.73574) scale(0.16 -0.16)">
       <defs>
        <path id="DejaVuSans-6b" d="M 581 4863 
L 1159 4863 
L 1159 1991 
L 2875 3500 
L 3609 3500 
L 1753 1863 
L 3688 0 
L 2938 0 
L 1159 1709 
L 1159 0 
L 581 0 
L 581 4863 
z
" transform="scale(0.015625)"/>
       </defs>
       <use xlink:href="#DejaVuSans-74"/>
       <use xlink:href="#DejaVuSans-68" x="39.208984"/>
       <use xlink:href="#DejaVuSans-6b" x="102.587891"/>
       <use xlink:href="#DejaVuSans-63" x="160.498047"/>
       <use xlink:href="#DejaVuSans-61" x="215.478516"/>
       <use xlink:href="#DejaVuSans-73" x="276.757812"/>
      </g>
     </g>
    </g>
    <g id="ytick_13">
     <g id="line2d_37">
      <path d="M 257.03625 141.01251 
L 614.15625 141.01251 
" clip-path="url(#p6b270e16f0)" style="fill: none; stroke: #b0b0b0; stroke-width: 0.8; stroke-linecap: square"/>
     </g>
     <g id="line2d_38">
      <g>
       <use xlink:href="#m7c46888bd9" x="257.03625" y="141.01251" style="stroke: #000000; stroke-width: 0.8"/>
      </g>
     </g>
     <g id="text_20">
      <!-- tfcth -->
      <g transform="translate(212.92125 147.09126) scale(0.16 -0.16)">
       <use xlink:href="#DejaVuSans-74"/>
       <use xlink:href="#DejaVuSans-66" x="39.208984"/>
       <use xlink:href="#DejaVuSans-63" x="74.414062"/>
       <use xlink:href="#DejaVuSans-74" x="129.394531"/>
       <use xlink:href="#DejaVuSans-68" x="168.603516"/>
      </g>
     </g>
    </g>
    <g id="ytick_14">
     <g id="line2d_39">
      <path d="M 257.03625 130.36803 
L 614.15625 130.36803 
" clip-path="url(#p6b270e16f0)" style="fill: none; stroke: #b0b0b0; stroke-width: 0.8; stroke-linecap: square"/>
     </g>
     <g id="line2d_40">
      <g>
       <use xlink:href="#m7c46888bd9" x="257.03625" y="130.36803" style="stroke: #000000; stroke-width: 0.8"/>
      </g>
     </g>
     <g id="text_21">
      <!-- bigq -->
      <g transform="translate(215.11875 136.44678) scale(0.16 -0.16)">
       <defs>
        <path id="DejaVuSans-71" d="M 947 1747 
Q 947 1113 1208 752 
Q 1469 391 1925 391 
Q 2381 391 2643 752 
Q 2906 1113 2906 1747 
Q 2906 2381 2643 2742 
Q 2381 3103 1925 3103 
Q 1469 3103 1208 2742 
Q 947 2381 947 1747 
z
M 2906 525 
Q 2725 213 2448 61 
Q 2172 -91 1784 -91 
Q 1150 -91 751 415 
Q 353 922 353 1747 
Q 353 2572 751 3078 
Q 1150 3584 1784 3584 
Q 2172 3584 2448 3432 
Q 2725 3281 2906 2969 
L 2906 3500 
L 3481 3500 
L 3481 -1331 
L 2906 -1331 
L 2906 525 
z
" transform="scale(0.015625)"/>
       </defs>
       <use xlink:href="#DejaVuSans-62"/>
       <use xlink:href="#DejaVuSans-69" x="63.476562"/>
       <use xlink:href="#DejaVuSans-67" x="91.259766"/>
       <use xlink:href="#DejaVuSans-71" x="154.736328"/>
      </g>
     </g>
    </g>
    <g id="ytick_15">
     <g id="line2d_41">
      <path d="M 257.03625 119.72355 
L 614.15625 119.72355 
" clip-path="url(#p6b270e16f0)" style="fill: none; stroke: #b0b0b0; stroke-width: 0.8; stroke-linecap: square"/>
     </g>
     <g id="line2d_42">
      <g>
       <use xlink:href="#m7c46888bd9" x="257.03625" y="119.72355" style="stroke: #000000; stroke-width: 0.8"/>
      </g>
     </g>
     <g id="text_22">
      <!-- bt -->
      <g transform="translate(233.60625 125.8023) scale(0.16 -0.16)">
       <use xlink:href="#DejaVuSans-62"/>
       <use xlink:href="#DejaVuSans-74" x="63.476562"/>
      </g>
     </g>
    </g>
    <g id="ytick_16">
     <g id="line2d_43">
      <path d="M 257.03625 109.07907 
L 614.15625 109.07907 
" clip-path="url(#p6b270e16f0)" style="fill: none; stroke: #b0b0b0; stroke-width: 0.8; stroke-linecap: square"/>
     </g>
     <g id="line2d_44">
      <g>
       <use xlink:href="#m7c46888bd9" x="257.03625" y="109.07907" style="stroke: #000000; stroke-width: 0.8"/>
      </g>
     </g>
     <g id="text_23">
      <!-- thwcndut -->
      <g transform="translate(175.03125 115.15782) scale(0.16 -0.16)">
       <use xlink:href="#DejaVuSans-74"/>
       <use xlink:href="#DejaVuSans-68" x="39.208984"/>
       <use xlink:href="#DejaVuSans-77" x="102.587891"/>
       <use xlink:href="#DejaVuSans-63" x="184.375"/>
       <use xlink:href="#DejaVuSans-6e" x="239.355469"/>
       <use xlink:href="#DejaVuSans-64" x="302.734375"/>
       <use xlink:href="#DejaVuSans-75" x="366.210938"/>
       <use xlink:href="#DejaVuSans-74" x="429.589844"/>
      </g>
     </g>
    </g>
    <g id="ytick_17">
     <g id="line2d_45">
      <path d="M 257.03625 98.43459 
L 614.15625 98.43459 
" clip-path="url(#p6b270e16f0)" style="fill: none; stroke: #b0b0b0; stroke-width: 0.8; stroke-linecap: square"/>
     </g>
     <g id="line2d_46">
      <g>
       <use xlink:href="#m7c46888bd9" x="257.03625" y="98.43459" style="stroke: #000000; stroke-width: 0.8"/>
      </g>
     </g>
     <g id="text_24">
      <!-- tmargoh -->
      <g transform="translate(181.98875 104.51334) scale(0.16 -0.16)">
       <use xlink:href="#DejaVuSans-74"/>
       <use xlink:href="#DejaVuSans-6d" x="39.208984"/>
       <use xlink:href="#DejaVuSans-61" x="136.621094"/>
       <use xlink:href="#DejaVuSans-72" x="197.900391"/>
       <use xlink:href="#DejaVuSans-67" x="237.263672"/>
       <use xlink:href="#DejaVuSans-6f" x="300.740234"/>
       <use xlink:href="#DejaVuSans-68" x="361.921875"/>
      </g>
     </g>
    </g>
    <g id="ytick_18">
     <g id="line2d_47">
      <path d="M 257.03625 87.79011 
L 614.15625 87.79011 
" clip-path="url(#p6b270e16f0)" style="fill: none; stroke: #b0b0b0; stroke-width: 0.8; stroke-linecap: square"/>
     </g>
     <g id="line2d_48">
      <g>
       <use xlink:href="#m7c46888bd9" x="257.03625" y="87.79011" style="stroke: #000000; stroke-width: 0.8"/>
      </g>
     </g>
     <g id="text_25">
      <!-- te -->
      <g transform="translate(233.91875 93.86886) scale(0.16 -0.16)">
       <use xlink:href="#DejaVuSans-74"/>
       <use xlink:href="#DejaVuSans-65" x="39.208984"/>
      </g>
     </g>
    </g>
    <g id="ytick_19">
     <g id="line2d_49">
      <path d="M 257.03625 77.14563 
L 614.15625 77.14563 
" clip-path="url(#p6b270e16f0)" style="fill: none; stroke: #b0b0b0; stroke-width: 0.8; stroke-linecap: square"/>
     </g>
     <g id="line2d_50">
      <g>
       <use xlink:href="#m7c46888bd9" x="257.03625" y="77.14563" style="stroke: #000000; stroke-width: 0.8"/>
      </g>
     </g>
     <g id="text_26">
      <!-- jwptf -->
      <g transform="translate(210.44375 83.22438) scale(0.16 -0.16)">
       <defs>
        <path id="DejaVuSans-6a" d="M 603 3500 
L 1178 3500 
L 1178 -63 
Q 1178 -731 923 -1031 
Q 669 -1331 103 -1331 
L -116 -1331 
L -116 -844 
L 38 -844 
Q 366 -844 484 -692 
Q 603 -541 603 -63 
L 603 3500 
z
M 603 4863 
L 1178 4863 
L 1178 4134 
L 603 4134 
L 603 4863 
z
" transform="scale(0.015625)"/>
       </defs>
       <use xlink:href="#DejaVuSans-6a"/>
       <use xlink:href="#DejaVuSans-77" x="27.783203"/>
       <use xlink:href="#DejaVuSans-70" x="109.570312"/>
       <use xlink:href="#DejaVuSans-74" x="173.046875"/>
       <use xlink:href="#DejaVuSans-66" x="212.255859"/>
      </g>
     </g>
    </g>
    <g id="ytick_20">
     <g id="line2d_51">
      <path d="M 257.03625 66.50115 
L 614.15625 66.50115 
" clip-path="url(#p6b270e16f0)" style="fill: none; stroke: #b0b0b0; stroke-width: 0.8; stroke-linecap: square"/>
     </g>
     <g id="line2d_52">
      <g>
       <use xlink:href="#m7c46888bd9" x="257.03625" y="66.50115" style="stroke: #000000; stroke-width: 0.8"/>
      </g>
     </g>
     <g id="text_27">
      <!-- oh_steel_frac -->
      <g transform="translate(144.55125 72.5799) scale(0.16 -0.16)">
       <defs>
        <path id="DejaVuSans-5f" d="M 3263 -1063 
L 3263 -1509 
L -63 -1509 
L -63 -1063 
L 3263 -1063 
z
" transform="scale(0.015625)"/>
       </defs>
       <use xlink:href="#DejaVuSans-6f"/>
       <use xlink:href="#DejaVuSans-68" x="61.181641"/>
       <use xlink:href="#DejaVuSans-5f" x="124.560547"/>
       <use xlink:href="#DejaVuSans-73" x="174.560547"/>
       <use xlink:href="#DejaVuSans-74" x="226.660156"/>
       <use xlink:href="#DejaVuSans-65" x="265.869141"/>
       <use xlink:href="#DejaVuSans-65" x="327.392578"/>
       <use xlink:href="#DejaVuSans-6c" x="388.916016"/>
       <use xlink:href="#DejaVuSans-5f" x="416.699219"/>
       <use xlink:href="#DejaVuSans-66" x="466.699219"/>
       <use xlink:href="#DejaVuSans-72" x="501.904297"/>
       <use xlink:href="#DejaVuSans-61" x="543.017578"/>
       <use xlink:href="#DejaVuSans-63" x="604.296875"/>
      </g>
     </g>
    </g>
    <g id="ytick_21">
     <g id="line2d_53">
      <path d="M 257.03625 55.85667 
L 614.15625 55.85667 
" clip-path="url(#p6b270e16f0)" style="fill: none; stroke: #b0b0b0; stroke-width: 0.8; stroke-linecap: square"/>
     </g>
     <g id="line2d_54">
      <g>
       <use xlink:href="#m7c46888bd9" x="257.03625" y="55.85667" style="stroke: #000000; stroke-width: 0.8"/>
      </g>
     </g>
     <g id="text_28">
      <!-- fcutfsu -->
      <g transform="translate(195.08625 61.93542) scale(0.16 -0.16)">
       <use xlink:href="#DejaVuSans-66"/>
       <use xlink:href="#DejaVuSans-63" x="35.205078"/>
       <use xlink:href="#DejaVuSans-75" x="90.185547"/>
       <use xlink:href="#DejaVuSans-74" x="153.564453"/>
       <use xlink:href="#DejaVuSans-66" x="192.773438"/>
       <use xlink:href="#DejaVuSans-73" x="227.978516"/>
       <use xlink:href="#DejaVuSans-75" x="280.078125"/>
      </g>
     </g>
    </g>
    <g id="ytick_22">
     <g id="line2d_55">
      <path d="M 257.03625 45.21219 
L 614.15625 45.21219 
" clip-path="url(#p6b270e16f0)" style="fill: none; stroke: #b0b0b0; stroke-width: 0.8; stroke-linecap: square"/>
     </g>
     <g id="line2d_56">
      <g>
       <use xlink:href="#m7c46888bd9" x="257.03625" y="45.21219" style="stroke: #000000; stroke-width: 0.8"/>
      </g>
     </g>
     <g id="text_29">
      <!-- plhthresh -->
      <g transform="translate(174.34375 51.29094) scale(0.16 -0.16)">
       <use xlink:href="#DejaVuSans-70"/>
       <use xlink:href="#DejaVuSans-6c" x="63.476562"/>
       <use xlink:href="#DejaVuSans-68" x="91.259766"/>
       <use xlink:href="#DejaVuSans-74" x="154.638672"/>
       <use xlink:href="#DejaVuSans-68" x="193.847656"/>
       <use xlink:href="#DejaVuSans-72" x="257.226562"/>
       <use xlink:href="#DejaVuSans-65" x="296.089844"/>
       <use xlink:href="#DejaVuSans-73" x="357.613281"/>
       <use xlink:href="#DejaVuSans-68" x="409.712891"/>
      </g>
     </g>
    </g>
    <g id="ytick_23">
     <g id="line2d_57">
      <path d="M 257.03625 34.56771 
L 614.15625 34.56771 
" clip-path="url(#p6b270e16f0)" style="fill: none; stroke: #b0b0b0; stroke-width: 0.8; stroke-linecap: square"/>
     </g>
     <g id="line2d_58">
      <g>
       <use xlink:href="#m7c46888bd9" x="257.03625" y="34.56771" style="stroke: #000000; stroke-width: 0.8"/>
      </g>
     </g>
     <g id="text_30">
      <!-- bore -->
      <g transform="translate(214.02625 40.64646) scale(0.16 -0.16)">
       <use xlink:href="#DejaVuSans-62"/>
       <use xlink:href="#DejaVuSans-6f" x="63.476562"/>
       <use xlink:href="#DejaVuSans-72" x="124.658203"/>
       <use xlink:href="#DejaVuSans-65" x="163.521484"/>
      </g>
     </g>
    </g>
    <g id="ytick_24">
     <g id="line2d_59">
      <path d="M 257.03625 23.92323 
L 614.15625 23.92323 
" clip-path="url(#p6b270e16f0)" style="fill: none; stroke: #b0b0b0; stroke-width: 0.8; stroke-linecap: square"/>
     </g>
     <g id="line2d_60">
      <g>
       <use xlink:href="#m7c46888bd9" x="257.03625" y="23.92323" style="stroke: #000000; stroke-width: 0.8"/>
      </g>
     </g>
     <g id="text_31">
      <!-- tdmptf -->
      <g transform="translate(195.95875 30.00198) scale(0.16 -0.16)">
       <use xlink:href="#DejaVuSans-74"/>
       <use xlink:href="#DejaVuSans-64" x="39.208984"/>
       <use xlink:href="#DejaVuSans-6d" x="102.685547"/>
       <use xlink:href="#DejaVuSans-70" x="200.097656"/>
       <use xlink:href="#DejaVuSans-74" x="263.574219"/>
       <use xlink:href="#DejaVuSans-66" x="302.783203"/>
      </g>
     </g>
    </g>
    <g id="ytick_25">
     <g id="line2d_61">
      <path d="M 257.03625 13.27875 
L 614.15625 13.27875 
" clip-path="url(#p6b270e16f0)" style="fill: none; stroke: #b0b0b0; stroke-width: 0.8; stroke-linecap: square"/>
     </g>
     <g id="line2d_62">
      <g>
       <use xlink:href="#m7c46888bd9" x="257.03625" y="13.27875" style="stroke: #000000; stroke-width: 0.8"/>
      </g>
     </g>
     <g id="text_32">
      <!-- itvar019 -->
      <g transform="translate(182.92625 19.3575) scale(0.16 -0.16)">
       <defs>
        <path id="DejaVuSans-39" d="M 703 97 
L 703 672 
Q 941 559 1184 500 
Q 1428 441 1663 441 
Q 2288 441 2617 861 
Q 2947 1281 2994 2138 
Q 2813 1869 2534 1725 
Q 2256 1581 1919 1581 
Q 1219 1581 811 2004 
Q 403 2428 403 3163 
Q 403 3881 828 4315 
Q 1253 4750 1959 4750 
Q 2769 4750 3195 4129 
Q 3622 3509 3622 2328 
Q 3622 1225 3098 567 
Q 2575 -91 1691 -91 
Q 1453 -91 1209 -44 
Q 966 3 703 97 
z
M 1959 2075 
Q 2384 2075 2632 2365 
Q 2881 2656 2881 3163 
Q 2881 3666 2632 3958 
Q 2384 4250 1959 4250 
Q 1534 4250 1286 3958 
Q 1038 3666 1038 3163 
Q 1038 2656 1286 2365 
Q 1534 2075 1959 2075 
z
" transform="scale(0.015625)"/>
       </defs>
       <use xlink:href="#DejaVuSans-69"/>
       <use xlink:href="#DejaVuSans-74" x="27.783203"/>
       <use xlink:href="#DejaVuSans-76" x="66.992188"/>
       <use xlink:href="#DejaVuSans-61" x="126.171875"/>
       <use xlink:href="#DejaVuSans-72" x="187.451172"/>
       <use xlink:href="#DejaVuSans-30" x="228.564453"/>
       <use xlink:href="#DejaVuSans-31" x="292.1875"/>
       <use xlink:href="#DejaVuSans-39" x="355.810547"/>
      </g>
     </g>
    </g>
    <g id="text_33">
     <!-- PROCESS parameter -->
     <g transform="translate(22.396875 243.832822) rotate(-90) scale(0.2 -0.2)">
      <defs>
       <path id="DejaVuSans-50" d="M 1259 4147 
L 1259 2394 
L 2053 2394 
Q 2494 2394 2734 2622 
Q 2975 2850 2975 3272 
Q 2975 3691 2734 3919 
Q 2494 4147 2053 4147 
L 1259 4147 
z
M 628 4666 
L 2053 4666 
Q 2838 4666 3239 4311 
Q 3641 3956 3641 3272 
Q 3641 2581 3239 2228 
Q 2838 1875 2053 1875 
L 1259 1875 
L 1259 0 
L 628 0 
L 628 4666 
z
" transform="scale(0.015625)"/>
       <path id="DejaVuSans-52" d="M 2841 2188 
Q 3044 2119 3236 1894 
Q 3428 1669 3622 1275 
L 4263 0 
L 3584 0 
L 2988 1197 
Q 2756 1666 2539 1819 
Q 2322 1972 1947 1972 
L 1259 1972 
L 1259 0 
L 628 0 
L 628 4666 
L 2053 4666 
Q 2853 4666 3247 4331 
Q 3641 3997 3641 3322 
Q 3641 2881 3436 2590 
Q 3231 2300 2841 2188 
z
M 1259 4147 
L 1259 2491 
L 2053 2491 
Q 2509 2491 2742 2702 
Q 2975 2913 2975 3322 
Q 2975 3731 2742 3939 
Q 2509 4147 2053 4147 
L 1259 4147 
z
" transform="scale(0.015625)"/>
       <path id="DejaVuSans-4f" d="M 2522 4238 
Q 1834 4238 1429 3725 
Q 1025 3213 1025 2328 
Q 1025 1447 1429 934 
Q 1834 422 2522 422 
Q 3209 422 3611 934 
Q 4013 1447 4013 2328 
Q 4013 3213 3611 3725 
Q 3209 4238 2522 4238 
z
M 2522 4750 
Q 3503 4750 4090 4092 
Q 4678 3434 4678 2328 
Q 4678 1225 4090 567 
Q 3503 -91 2522 -91 
Q 1538 -91 948 565 
Q 359 1222 359 2328 
Q 359 3434 948 4092 
Q 1538 4750 2522 4750 
z
" transform="scale(0.015625)"/>
       <path id="DejaVuSans-43" d="M 4122 4306 
L 4122 3641 
Q 3803 3938 3442 4084 
Q 3081 4231 2675 4231 
Q 1875 4231 1450 3742 
Q 1025 3253 1025 2328 
Q 1025 1406 1450 917 
Q 1875 428 2675 428 
Q 3081 428 3442 575 
Q 3803 722 4122 1019 
L 4122 359 
Q 3791 134 3420 21 
Q 3050 -91 2638 -91 
Q 1578 -91 968 557 
Q 359 1206 359 2328 
Q 359 3453 968 4101 
Q 1578 4750 2638 4750 
Q 3056 4750 3426 4639 
Q 3797 4528 4122 4306 
z
" transform="scale(0.015625)"/>
       <path id="DejaVuSans-45" d="M 628 4666 
L 3578 4666 
L 3578 4134 
L 1259 4134 
L 1259 2753 
L 3481 2753 
L 3481 2222 
L 1259 2222 
L 1259 531 
L 3634 531 
L 3634 0 
L 628 0 
L 628 4666 
z
" transform="scale(0.015625)"/>
       <path id="DejaVuSans-53" d="M 3425 4513 
L 3425 3897 
Q 3066 4069 2747 4153 
Q 2428 4238 2131 4238 
Q 1616 4238 1336 4038 
Q 1056 3838 1056 3469 
Q 1056 3159 1242 3001 
Q 1428 2844 1947 2747 
L 2328 2669 
Q 3034 2534 3370 2195 
Q 3706 1856 3706 1288 
Q 3706 609 3251 259 
Q 2797 -91 1919 -91 
Q 1588 -91 1214 -16 
Q 841 59 441 206 
L 441 856 
Q 825 641 1194 531 
Q 1563 422 1919 422 
Q 2459 422 2753 634 
Q 3047 847 3047 1241 
Q 3047 1584 2836 1778 
Q 2625 1972 2144 2069 
L 1759 2144 
Q 1053 2284 737 2584 
Q 422 2884 422 3419 
Q 422 4038 858 4394 
Q 1294 4750 2059 4750 
Q 2388 4750 2728 4690 
Q 3069 4631 3425 4513 
z
" transform="scale(0.015625)"/>
      </defs>
      <use xlink:href="#DejaVuSans-50"/>
      <use xlink:href="#DejaVuSans-52" x="60.302734"/>
      <use xlink:href="#DejaVuSans-4f" x="129.785156"/>
      <use xlink:href="#DejaVuSans-43" x="208.496094"/>
      <use xlink:href="#DejaVuSans-45" x="278.320312"/>
      <use xlink:href="#DejaVuSans-53" x="341.503906"/>
      <use xlink:href="#DejaVuSans-53" x="404.980469"/>
      <use xlink:href="#DejaVuSans-20" x="468.457031"/>
      <use xlink:href="#DejaVuSans-70" x="500.244141"/>
      <use xlink:href="#DejaVuSans-61" x="563.720703"/>
      <use xlink:href="#DejaVuSans-72" x="625"/>
      <use xlink:href="#DejaVuSans-61" x="666.113281"/>
      <use xlink:href="#DejaVuSans-6d" x="727.392578"/>
      <use xlink:href="#DejaVuSans-65" x="824.804688"/>
      <use xlink:href="#DejaVuSans-74" x="886.328125"/>
      <use xlink:href="#DejaVuSans-65" x="925.537109"/>
      <use xlink:href="#DejaVuSans-72" x="987.060547"/>
     </g>
    </g>
   </g>
   <g id="patch_28">
    <path d="M 257.03625 274.06851 
L 257.03625 7.95651 
" style="fill: none; stroke: #000000; stroke-width: 0.8; stroke-linejoin: miter; stroke-linecap: square"/>
   </g>
   <g id="patch_29">
    <path d="M 614.15625 274.06851 
L 614.15625 7.95651 
" style="fill: none; stroke: #000000; stroke-width: 0.8; stroke-linejoin: miter; stroke-linecap: square"/>
   </g>
   <g id="patch_30">
    <path d="M 257.03625 274.06851 
L 614.15625 274.06851 
" style="fill: none; stroke: #000000; stroke-width: 0.8; stroke-linejoin: miter; stroke-linecap: square"/>
   </g>
   <g id="patch_31">
    <path d="M 257.03625 7.95651 
L 614.15625 7.95651 
" style="fill: none; stroke: #000000; stroke-width: 0.8; stroke-linejoin: miter; stroke-linecap: square"/>
   </g>
   <g id="legend_1">
    <g id="patch_32">
     <path d="M 434.056875 43.42401 
L 605.75625 43.42401 
Q 608.15625 43.42401 608.15625 41.02401 
L 608.15625 16.35651 
Q 608.15625 13.95651 605.75625 13.95651 
L 434.056875 13.95651 
Q 431.656875 13.95651 431.656875 16.35651 
L 431.656875 41.02401 
Q 431.656875 43.42401 434.056875 43.42401 
z
" style="fill: #ffffff; opacity: 0.8; stroke: #cccccc; stroke-linejoin: miter"/>
    </g>
    <g id="patch_33">
     <path d="M 431.776875 23.194635 
L 455.776875 23.194635 
L 455.776875 14.794635 
L 431.776875 14.794635 
z
" style="fill: url(#h2c104becc3); fill-opacity: 0.2; stroke: #ffffff; stroke-opacity: 0.2; stroke-linejoin: miter"/>
    </g>
    <g id="text_34">
     <!-- Region of Insignificance -->
     <g transform="translate(465.376875 23.194635) scale(0.12 -0.12)">
      <use xlink:href="#DejaVuSans-52"/>
      <use xlink:href="#DejaVuSans-65" x="64.982422"/>
      <use xlink:href="#DejaVuSans-67" x="126.505859"/>
      <use xlink:href="#DejaVuSans-69" x="189.982422"/>
      <use xlink:href="#DejaVuSans-6f" x="217.765625"/>
      <use xlink:href="#DejaVuSans-6e" x="278.947266"/>
      <use xlink:href="#DejaVuSans-20" x="342.326172"/>
      <use xlink:href="#DejaVuSans-6f" x="374.113281"/>
      <use xlink:href="#DejaVuSans-66" x="435.294922"/>
      <use xlink:href="#DejaVuSans-20" x="470.5"/>
      <use xlink:href="#DejaVuSans-49" x="502.287109"/>
      <use xlink:href="#DejaVuSans-6e" x="531.779297"/>
      <use xlink:href="#DejaVuSans-73" x="595.158203"/>
      <use xlink:href="#DejaVuSans-69" x="647.257812"/>
      <use xlink:href="#DejaVuSans-67" x="675.041016"/>
      <use xlink:href="#DejaVuSans-6e" x="738.517578"/>
      <use xlink:href="#DejaVuSans-69" x="801.896484"/>
      <use xlink:href="#DejaVuSans-66" x="829.679688"/>
      <use xlink:href="#DejaVuSans-69" x="864.884766"/>
      <use xlink:href="#DejaVuSans-63" x="892.667969"/>
      <use xlink:href="#DejaVuSans-61" x="947.648438"/>
      <use xlink:href="#DejaVuSans-6e" x="1008.927734"/>
      <use xlink:href="#DejaVuSans-63" x="1072.306641"/>
      <use xlink:href="#DejaVuSans-65" x="1127.287109"/>
     </g>
    </g>
    <g id="patch_34">
     <path d="M 431.776875 40.808385 
L 455.776875 40.808385 
L 455.776875 32.408385 
L 431.776875 32.408385 
z
" style="fill: #1f77b4"/>
    </g>
    <g id="text_35">
     <!-- Significance Index -->
     <g transform="translate(465.376875 40.808385) scale(0.12 -0.12)">
      <defs>
       <path id="DejaVuSans-78" d="M 3513 3500 
L 2247 1797 
L 3578 0 
L 2900 0 
L 1881 1375 
L 863 0 
L 184 0 
L 1544 1831 
L 300 3500 
L 978 3500 
L 1906 2253 
L 2834 3500 
L 3513 3500 
z
" transform="scale(0.015625)"/>
      </defs>
      <use xlink:href="#DejaVuSans-53"/>
      <use xlink:href="#DejaVuSans-69" x="63.476562"/>
      <use xlink:href="#DejaVuSans-67" x="91.259766"/>
      <use xlink:href="#DejaVuSans-6e" x="154.736328"/>
      <use xlink:href="#DejaVuSans-69" x="218.115234"/>
      <use xlink:href="#DejaVuSans-66" x="245.898438"/>
      <use xlink:href="#DejaVuSans-69" x="281.103516"/>
      <use xlink:href="#DejaVuSans-63" x="308.886719"/>
      <use xlink:href="#DejaVuSans-61" x="363.867188"/>
      <use xlink:href="#DejaVuSans-6e" x="425.146484"/>
      <use xlink:href="#DejaVuSans-63" x="488.525391"/>
      <use xlink:href="#DejaVuSans-65" x="543.505859"/>
      <use xlink:href="#DejaVuSans-20" x="605.029297"/>
      <use xlink:href="#DejaVuSans-49" x="636.816406"/>
      <use xlink:href="#DejaVuSans-6e" x="666.308594"/>
      <use xlink:href="#DejaVuSans-64" x="729.6875"/>
      <use xlink:href="#DejaVuSans-65" x="793.164062"/>
      <use xlink:href="#DejaVuSans-78" x="852.9375"/>
     </g>
    </g>
   </g>
  </g>
 </g>
 <defs>
  <clipPath id="p6b270e16f0">
   <rect x="257.03625" y="7.95651" width="357.12" height="266.112"/>
  </clipPath>
 </defs>
 <defs>
  <pattern id="h2c104becc3" patternUnits="userSpaceOnUse" x="0" y="0" width="72" height="72">
   <rect x="0" y="0" width="73" height="73" fill="#808080"/>
   <path d="M -36 36 
L 36 -36 
M -30 42 
L 42 -30 
M -24 48 
L 48 -24 
M -18 54 
L 54 -18 
M -12 60 
L 60 -12 
M -6 66 
L 66 -6 
M 0 72 
L 72 0 
M 6 78 
L 78 6 
M 12 84 
L 84 12 
M 18 90 
L 90 18 
M 24 96 
L 96 24 
M 30 102 
L 102 30 
M 36 108 
L 108 36 
" style="fill: #ffffff; stroke: #ffffff; stroke-width: 1.0; stroke-linecap: butt; stroke-linejoin: miter; stroke-opacity: 0.2"/>
  </pattern>
 </defs>
</svg>
