<?xml version="1.0" encoding="utf-8" standalone="no"?>
<!DOCTYPE svg PUBLIC "-//W3C//DTD SVG 1.1//EN"
  "http://www.w3.org/Graphics/SVG/1.1/DTD/svg11.dtd">
<svg xmlns:xlink="http://www.w3.org/1999/xlink" width="684.46875pt" height="326.35325pt" viewBox="0 0 684.46875 326.35325" xmlns="http://www.w3.org/2000/svg" version="1.1">
 <metadata>
  <rdf:RDF xmlns:dc="http://purl.org/dc/elements/1.1/" xmlns:cc="http://creativecommons.org/ns#" xmlns:rdf="http://www.w3.org/1999/02/22-rdf-syntax-ns#">
   <cc:Work>
    <dc:type rdf:resource="http://purl.org/dc/dcmitype/StillImage"/>
    <dc:date>2023-12-14T14:07:17.089010</dc:date>
    <dc:format>image/svg+xml</dc:format>
    <dc:creator>
     <cc:Agent>
      <dc:title>Matplotlib v3.7.2, https://matplotlib.org/</dc:title>
     </cc:Agent>
    </dc:creator>
   </cc:Work>
  </rdf:RDF>
 </metadata>
 <defs>
  <style type="text/css">*{stroke-linejoin: round; stroke-linecap: butt}</style>
 </defs>
 <g id="figure_1">
  <g id="patch_1">
   <path d="M 0 326.35325 
L 684.46875 326.35325 
L 684.46875 0 
L 0 0 
z
" style="fill: #ffffff"/>
  </g>
  <g id="axes_1">
   <g id="patch_2">
    <path d="M 320.14875 273.312 
L 677.26875 273.312 
L 677.26875 7.2 
L 320.14875 7.2 
z
" style="fill: #ffffff"/>
   </g>
   <g id="patch_3">
    <path d="M 320.14875 268.194462 
L 660.263036 268.194462 
L 660.263036 257.959385 
L 320.14875 257.959385 
z
" clip-path="url(#p74058791f7)" style="fill: #1f77b4"/>
   </g>
   <g id="patch_4">
    <path d="M 320.14875 247.724308 
L 579.798179 247.724308 
L 579.798179 237.489231 
L 320.14875 237.489231 
z
" clip-path="url(#p74058791f7)" style="fill: #1f77b4"/>
   </g>
   <g id="patch_5">
    <path d="M 320.14875 227.254154 
L 444.719611 227.254154 
L 444.719611 217.019077 
L 320.14875 217.019077 
z
" clip-path="url(#p74058791f7)" style="fill: #1f77b4"/>
   </g>
   <g id="patch_6">
    <path d="M 320.14875 206.784 
L 439.744606 206.784 
L 439.744606 196.548923 
L 320.14875 196.548923 
z
" clip-path="url(#p74058791f7)" style="fill: #1f77b4"/>
   </g>
   <g id="patch_7">
    <path d="M 320.14875 186.313846 
L 403.196958 186.313846 
L 403.196958 176.078769 
L 320.14875 176.078769 
z
" clip-path="url(#p74058791f7)" style="fill: #1f77b4"/>
   </g>
   <g id="patch_8">
    <path d="M 320.14875 165.843692 
L 393.298528 165.843692 
L 393.298528 155.608615 
L 320.14875 155.608615 
z
" clip-path="url(#p74058791f7)" style="fill: #1f77b4"/>
   </g>
   <g id="patch_9">
    <path d="M 320.14875 145.373538 
L 334.325711 145.373538 
L 334.325711 135.138462 
L 320.14875 135.138462 
z
" clip-path="url(#p74058791f7)" style="fill: #1f77b4"/>
   </g>
   <g id="patch_10">
    <path d="M 320.14875 124.903385 
L 320.14875 124.903385 
L 320.14875 114.668308 
L 320.14875 114.668308 
z
" clip-path="url(#p74058791f7)" style="fill: #1f77b4"/>
   </g>
   <g id="patch_11">
    <path d="M 320.14875 104.433231 
L 320.14875 104.433231 
L 320.14875 94.198154 
L 320.14875 94.198154 
z
" clip-path="url(#p74058791f7)" style="fill: #1f77b4"/>
   </g>
   <g id="patch_12">
    <path d="M 320.14875 83.963077 
L 320.14875 83.963077 
L 320.14875 73.728 
L 320.14875 73.728 
z
" clip-path="url(#p74058791f7)" style="fill: #1f77b4"/>
   </g>
   <g id="patch_13">
    <path d="M 320.14875 63.492923 
L 320.14875 63.492923 
L 320.14875 53.257846 
L 320.14875 53.257846 
z
" clip-path="url(#p74058791f7)" style="fill: #1f77b4"/>
   </g>
   <g id="patch_14">
    <path d="M 320.14875 43.022769 
L 320.14875 43.022769 
L 320.14875 32.787692 
L 320.14875 32.787692 
z
" clip-path="url(#p74058791f7)" style="fill: #1f77b4"/>
   </g>
   <g id="patch_15">
    <path d="M 320.14875 22.552615 
L 320.14875 22.552615 
L 320.14875 12.317538 
L 320.14875 12.317538 
z
" clip-path="url(#p74058791f7)" style="fill: #1f77b4"/>
   </g>
   <g id="PolyCollection_1">
    <path d="M 337.154464 273.312 
L 320.14875 273.312 
L 320.14875 -3.035077 
L 337.154464 -3.035077 
L 337.154464 -3.035077 
L 337.154464 273.312 
z
" clip-path="url(#p74058791f7)" style="fill: url(#h842bbfd03b); fill-opacity: 0.2; stroke: #ffffff; stroke-opacity: 0.2"/>
   </g>
   <g id="matplotlib.axis_1">
    <g id="xtick_1">
     <g id="line2d_1">
      <path d="M 320.14875 273.312 
L 320.14875 7.2 
" clip-path="url(#p74058791f7)" style="fill: none; stroke: #b0b0b0; stroke-width: 0.8; stroke-linecap: square"/>
     </g>
     <g id="line2d_2">
      <defs>
       <path id="m842a1426fe" d="M 0 0 
L 0 3.5 
" style="stroke: #000000; stroke-width: 0.8"/>
      </defs>
      <g>
       <use xlink:href="#m842a1426fe" x="320.14875" y="273.312" style="stroke: #000000; stroke-width: 0.8"/>
      </g>
     </g>
     <g id="text_1">
      <!-- 0.0 -->
      <g transform="translate(307.42625 292.4695) scale(0.16 -0.16)">
       <defs>
        <path id="DejaVuSans-30" d="M 2034 4250 
Q 1547 4250 1301 3770 
Q 1056 3291 1056 2328 
Q 1056 1369 1301 889 
Q 1547 409 2034 409 
Q 2525 409 2770 889 
Q 3016 1369 3016 2328 
Q 3016 3291 2770 3770 
Q 2525 4250 2034 4250 
z
M 2034 4750 
Q 2819 4750 3233 4129 
Q 3647 3509 3647 2328 
Q 3647 1150 3233 529 
Q 2819 -91 2034 -91 
Q 1250 -91 836 529 
Q 422 1150 422 2328 
Q 422 3509 836 4129 
Q 1250 4750 2034 4750 
z
" transform="scale(0.015625)"/>
        <path id="DejaVuSans-2e" d="M 684 794 
L 1344 794 
L 1344 0 
L 684 0 
L 684 794 
z
" transform="scale(0.015625)"/>
       </defs>
       <use xlink:href="#DejaVuSans-30"/>
       <use xlink:href="#DejaVuSans-2e" x="63.623047"/>
       <use xlink:href="#DejaVuSans-30" x="95.410156"/>
      </g>
     </g>
    </g>
    <g id="xtick_2">
     <g id="line2d_3">
      <path d="M 388.171607 273.312 
L 388.171607 7.2 
" clip-path="url(#p74058791f7)" style="fill: none; stroke: #b0b0b0; stroke-width: 0.8; stroke-linecap: square"/>
     </g>
     <g id="line2d_4">
      <g>
       <use xlink:href="#m842a1426fe" x="388.171607" y="273.312" style="stroke: #000000; stroke-width: 0.8"/>
      </g>
     </g>
     <g id="text_2">
      <!-- 0.2 -->
      <g transform="translate(375.449107 292.4695) scale(0.16 -0.16)">
       <defs>
        <path id="DejaVuSans-32" d="M 1228 531 
L 3431 531 
L 3431 0 
L 469 0 
L 469 531 
Q 828 903 1448 1529 
Q 2069 2156 2228 2338 
Q 2531 2678 2651 2914 
Q 2772 3150 2772 3378 
Q 2772 3750 2511 3984 
Q 2250 4219 1831 4219 
Q 1534 4219 1204 4116 
Q 875 4013 500 3803 
L 500 4441 
Q 881 4594 1212 4672 
Q 1544 4750 1819 4750 
Q 2544 4750 2975 4387 
Q 3406 4025 3406 3419 
Q 3406 3131 3298 2873 
Q 3191 2616 2906 2266 
Q 2828 2175 2409 1742 
Q 1991 1309 1228 531 
z
" transform="scale(0.015625)"/>
       </defs>
       <use xlink:href="#DejaVuSans-30"/>
       <use xlink:href="#DejaVuSans-2e" x="63.623047"/>
       <use xlink:href="#DejaVuSans-32" x="95.410156"/>
      </g>
     </g>
    </g>
    <g id="xtick_3">
     <g id="line2d_5">
      <path d="M 456.194464 273.312 
L 456.194464 7.2 
" clip-path="url(#p74058791f7)" style="fill: none; stroke: #b0b0b0; stroke-width: 0.8; stroke-linecap: square"/>
     </g>
     <g id="line2d_6">
      <g>
       <use xlink:href="#m842a1426fe" x="456.194464" y="273.312" style="stroke: #000000; stroke-width: 0.8"/>
      </g>
     </g>
     <g id="text_3">
      <!-- 0.4 -->
      <g transform="translate(443.471964 292.4695) scale(0.16 -0.16)">
       <defs>
        <path id="DejaVuSans-34" d="M 2419 4116 
L 825 1625 
L 2419 1625 
L 2419 4116 
z
M 2253 4666 
L 3047 4666 
L 3047 1625 
L 3713 1625 
L 3713 1100 
L 3047 1100 
L 3047 0 
L 2419 0 
L 2419 1100 
L 313 1100 
L 313 1709 
L 2253 4666 
z
" transform="scale(0.015625)"/>
       </defs>
       <use xlink:href="#DejaVuSans-30"/>
       <use xlink:href="#DejaVuSans-2e" x="63.623047"/>
       <use xlink:href="#DejaVuSans-34" x="95.410156"/>
      </g>
     </g>
    </g>
    <g id="xtick_4">
     <g id="line2d_7">
      <path d="M 524.217321 273.312 
L 524.217321 7.2 
" clip-path="url(#p74058791f7)" style="fill: none; stroke: #b0b0b0; stroke-width: 0.8; stroke-linecap: square"/>
     </g>
     <g id="line2d_8">
      <g>
       <use xlink:href="#m842a1426fe" x="524.217321" y="273.312" style="stroke: #000000; stroke-width: 0.8"/>
      </g>
     </g>
     <g id="text_4">
      <!-- 0.6 -->
      <g transform="translate(511.494821 292.4695) scale(0.16 -0.16)">
       <defs>
        <path id="DejaVuSans-36" d="M 2113 2584 
Q 1688 2584 1439 2293 
Q 1191 2003 1191 1497 
Q 1191 994 1439 701 
Q 1688 409 2113 409 
Q 2538 409 2786 701 
Q 3034 994 3034 1497 
Q 3034 2003 2786 2293 
Q 2538 2584 2113 2584 
z
M 3366 4563 
L 3366 3988 
Q 3128 4100 2886 4159 
Q 2644 4219 2406 4219 
Q 1781 4219 1451 3797 
Q 1122 3375 1075 2522 
Q 1259 2794 1537 2939 
Q 1816 3084 2150 3084 
Q 2853 3084 3261 2657 
Q 3669 2231 3669 1497 
Q 3669 778 3244 343 
Q 2819 -91 2113 -91 
Q 1303 -91 875 529 
Q 447 1150 447 2328 
Q 447 3434 972 4092 
Q 1497 4750 2381 4750 
Q 2619 4750 2861 4703 
Q 3103 4656 3366 4563 
z
" transform="scale(0.015625)"/>
       </defs>
       <use xlink:href="#DejaVuSans-30"/>
       <use xlink:href="#DejaVuSans-2e" x="63.623047"/>
       <use xlink:href="#DejaVuSans-36" x="95.410156"/>
      </g>
     </g>
    </g>
    <g id="xtick_5">
     <g id="line2d_9">
      <path d="M 592.240179 273.312 
L 592.240179 7.2 
" clip-path="url(#p74058791f7)" style="fill: none; stroke: #b0b0b0; stroke-width: 0.8; stroke-linecap: square"/>
     </g>
     <g id="line2d_10">
      <g>
       <use xlink:href="#m842a1426fe" x="592.240179" y="273.312" style="stroke: #000000; stroke-width: 0.8"/>
      </g>
     </g>
     <g id="text_5">
      <!-- 0.8 -->
      <g transform="translate(579.517679 292.4695) scale(0.16 -0.16)">
       <defs>
        <path id="DejaVuSans-38" d="M 2034 2216 
Q 1584 2216 1326 1975 
Q 1069 1734 1069 1313 
Q 1069 891 1326 650 
Q 1584 409 2034 409 
Q 2484 409 2743 651 
Q 3003 894 3003 1313 
Q 3003 1734 2745 1975 
Q 2488 2216 2034 2216 
z
M 1403 2484 
Q 997 2584 770 2862 
Q 544 3141 544 3541 
Q 544 4100 942 4425 
Q 1341 4750 2034 4750 
Q 2731 4750 3128 4425 
Q 3525 4100 3525 3541 
Q 3525 3141 3298 2862 
Q 3072 2584 2669 2484 
Q 3125 2378 3379 2068 
Q 3634 1759 3634 1313 
Q 3634 634 3220 271 
Q 2806 -91 2034 -91 
Q 1263 -91 848 271 
Q 434 634 434 1313 
Q 434 1759 690 2068 
Q 947 2378 1403 2484 
z
M 1172 3481 
Q 1172 3119 1398 2916 
Q 1625 2713 2034 2713 
Q 2441 2713 2670 2916 
Q 2900 3119 2900 3481 
Q 2900 3844 2670 4047 
Q 2441 4250 2034 4250 
Q 1625 4250 1398 4047 
Q 1172 3844 1172 3481 
z
" transform="scale(0.015625)"/>
       </defs>
       <use xlink:href="#DejaVuSans-30"/>
       <use xlink:href="#DejaVuSans-2e" x="63.623047"/>
       <use xlink:href="#DejaVuSans-38" x="95.410156"/>
      </g>
     </g>
    </g>
    <g id="xtick_6">
     <g id="line2d_11">
      <path d="M 660.263036 273.312 
L 660.263036 7.2 
" clip-path="url(#p74058791f7)" style="fill: none; stroke: #b0b0b0; stroke-width: 0.8; stroke-linecap: square"/>
     </g>
     <g id="line2d_12">
      <g>
       <use xlink:href="#m842a1426fe" x="660.263036" y="273.312" style="stroke: #000000; stroke-width: 0.8"/>
      </g>
     </g>
     <g id="text_6">
      <!-- 1.0 -->
      <g transform="translate(647.540536 292.4695) scale(0.16 -0.16)">
       <defs>
        <path id="DejaVuSans-31" d="M 794 531 
L 1825 531 
L 1825 4091 
L 703 3866 
L 703 4441 
L 1819 4666 
L 2450 4666 
L 2450 531 
L 3481 531 
L 3481 0 
L 794 0 
L 794 531 
z
" transform="scale(0.015625)"/>
       </defs>
       <use xlink:href="#DejaVuSans-31"/>
       <use xlink:href="#DejaVuSans-2e" x="63.623047"/>
       <use xlink:href="#DejaVuSans-30" x="95.410156"/>
      </g>
     </g>
    </g>
    <g id="text_7">
     <!-- Influence on convergance -->
     <g transform="translate(369.4025 314.993875) scale(0.2 -0.2)">
      <defs>
       <path id="DejaVuSans-49" d="M 628 4666 
L 1259 4666 
L 1259 0 
L 628 0 
L 628 4666 
z
" transform="scale(0.015625)"/>
       <path id="DejaVuSans-6e" d="M 3513 2113 
L 3513 0 
L 2938 0 
L 2938 2094 
Q 2938 2591 2744 2837 
Q 2550 3084 2163 3084 
Q 1697 3084 1428 2787 
Q 1159 2491 1159 1978 
L 1159 0 
L 581 0 
L 581 3500 
L 1159 3500 
L 1159 2956 
Q 1366 3272 1645 3428 
Q 1925 3584 2291 3584 
Q 2894 3584 3203 3211 
Q 3513 2838 3513 2113 
z
" transform="scale(0.015625)"/>
       <path id="DejaVuSans-66" d="M 2375 4863 
L 2375 4384 
L 1825 4384 
Q 1516 4384 1395 4259 
Q 1275 4134 1275 3809 
L 1275 3500 
L 2222 3500 
L 2222 3053 
L 1275 3053 
L 1275 0 
L 697 0 
L 697 3053 
L 147 3053 
L 147 3500 
L 697 3500 
L 697 3744 
Q 697 4328 969 4595 
Q 1241 4863 1831 4863 
L 2375 4863 
z
" transform="scale(0.015625)"/>
       <path id="DejaVuSans-6c" d="M 603 4863 
L 1178 4863 
L 1178 0 
L 603 0 
L 603 4863 
z
" transform="scale(0.015625)"/>
       <path id="DejaVuSans-75" d="M 544 1381 
L 544 3500 
L 1119 3500 
L 1119 1403 
Q 1119 906 1312 657 
Q 1506 409 1894 409 
Q 2359 409 2629 706 
Q 2900 1003 2900 1516 
L 2900 3500 
L 3475 3500 
L 3475 0 
L 2900 0 
L 2900 538 
Q 2691 219 2414 64 
Q 2138 -91 1772 -91 
Q 1169 -91 856 284 
Q 544 659 544 1381 
z
M 1991 3584 
L 1991 3584 
z
" transform="scale(0.015625)"/>
       <path id="DejaVuSans-65" d="M 3597 1894 
L 3597 1613 
L 953 1613 
Q 991 1019 1311 708 
Q 1631 397 2203 397 
Q 2534 397 2845 478 
Q 3156 559 3463 722 
L 3463 178 
Q 3153 47 2828 -22 
Q 2503 -91 2169 -91 
Q 1331 -91 842 396 
Q 353 884 353 1716 
Q 353 2575 817 3079 
Q 1281 3584 2069 3584 
Q 2775 3584 3186 3129 
Q 3597 2675 3597 1894 
z
M 3022 2063 
Q 3016 2534 2758 2815 
Q 2500 3097 2075 3097 
Q 1594 3097 1305 2825 
Q 1016 2553 972 2059 
L 3022 2063 
z
" transform="scale(0.015625)"/>
       <path id="DejaVuSans-63" d="M 3122 3366 
L 3122 2828 
Q 2878 2963 2633 3030 
Q 2388 3097 2138 3097 
Q 1578 3097 1268 2742 
Q 959 2388 959 1747 
Q 959 1106 1268 751 
Q 1578 397 2138 397 
Q 2388 397 2633 464 
Q 2878 531 3122 666 
L 3122 134 
Q 2881 22 2623 -34 
Q 2366 -91 2075 -91 
Q 1284 -91 818 406 
Q 353 903 353 1747 
Q 353 2603 823 3093 
Q 1294 3584 2113 3584 
Q 2378 3584 2631 3529 
Q 2884 3475 3122 3366 
z
" transform="scale(0.015625)"/>
       <path id="DejaVuSans-20" transform="scale(0.015625)"/>
       <path id="DejaVuSans-6f" d="M 1959 3097 
Q 1497 3097 1228 2736 
Q 959 2375 959 1747 
Q 959 1119 1226 758 
Q 1494 397 1959 397 
Q 2419 397 2687 759 
Q 2956 1122 2956 1747 
Q 2956 2369 2687 2733 
Q 2419 3097 1959 3097 
z
M 1959 3584 
Q 2709 3584 3137 3096 
Q 3566 2609 3566 1747 
Q 3566 888 3137 398 
Q 2709 -91 1959 -91 
Q 1206 -91 779 398 
Q 353 888 353 1747 
Q 353 2609 779 3096 
Q 1206 3584 1959 3584 
z
" transform="scale(0.015625)"/>
       <path id="DejaVuSans-76" d="M 191 3500 
L 800 3500 
L 1894 563 
L 2988 3500 
L 3597 3500 
L 2284 0 
L 1503 0 
L 191 3500 
z
" transform="scale(0.015625)"/>
       <path id="DejaVuSans-72" d="M 2631 2963 
Q 2534 3019 2420 3045 
Q 2306 3072 2169 3072 
Q 1681 3072 1420 2755 
Q 1159 2438 1159 1844 
L 1159 0 
L 581 0 
L 581 3500 
L 1159 3500 
L 1159 2956 
Q 1341 3275 1631 3429 
Q 1922 3584 2338 3584 
Q 2397 3584 2469 3576 
Q 2541 3569 2628 3553 
L 2631 2963 
z
" transform="scale(0.015625)"/>
       <path id="DejaVuSans-67" d="M 2906 1791 
Q 2906 2416 2648 2759 
Q 2391 3103 1925 3103 
Q 1463 3103 1205 2759 
Q 947 2416 947 1791 
Q 947 1169 1205 825 
Q 1463 481 1925 481 
Q 2391 481 2648 825 
Q 2906 1169 2906 1791 
z
M 3481 434 
Q 3481 -459 3084 -895 
Q 2688 -1331 1869 -1331 
Q 1566 -1331 1297 -1286 
Q 1028 -1241 775 -1147 
L 775 -588 
Q 1028 -725 1275 -790 
Q 1522 -856 1778 -856 
Q 2344 -856 2625 -561 
Q 2906 -266 2906 331 
L 2906 616 
Q 2728 306 2450 153 
Q 2172 0 1784 0 
Q 1141 0 747 490 
Q 353 981 353 1791 
Q 353 2603 747 3093 
Q 1141 3584 1784 3584 
Q 2172 3584 2450 3431 
Q 2728 3278 2906 2969 
L 2906 3500 
L 3481 3500 
L 3481 434 
z
" transform="scale(0.015625)"/>
       <path id="DejaVuSans-61" d="M 2194 1759 
Q 1497 1759 1228 1600 
Q 959 1441 959 1056 
Q 959 750 1161 570 
Q 1363 391 1709 391 
Q 2188 391 2477 730 
Q 2766 1069 2766 1631 
L 2766 1759 
L 2194 1759 
z
M 3341 1997 
L 3341 0 
L 2766 0 
L 2766 531 
Q 2569 213 2275 61 
Q 1981 -91 1556 -91 
Q 1019 -91 701 211 
Q 384 513 384 1019 
Q 384 1609 779 1909 
Q 1175 2209 1959 2209 
L 2766 2209 
L 2766 2266 
Q 2766 2663 2505 2880 
Q 2244 3097 1772 3097 
Q 1472 3097 1187 3025 
Q 903 2953 641 2809 
L 641 3341 
Q 956 3463 1253 3523 
Q 1550 3584 1831 3584 
Q 2591 3584 2966 3190 
Q 3341 2797 3341 1997 
z
" transform="scale(0.015625)"/>
      </defs>
      <use xlink:href="#DejaVuSans-49"/>
      <use xlink:href="#DejaVuSans-6e" x="29.492188"/>
      <use xlink:href="#DejaVuSans-66" x="92.871094"/>
      <use xlink:href="#DejaVuSans-6c" x="128.076172"/>
      <use xlink:href="#DejaVuSans-75" x="155.859375"/>
      <use xlink:href="#DejaVuSans-65" x="219.238281"/>
      <use xlink:href="#DejaVuSans-6e" x="280.761719"/>
      <use xlink:href="#DejaVuSans-63" x="344.140625"/>
      <use xlink:href="#DejaVuSans-65" x="399.121094"/>
      <use xlink:href="#DejaVuSans-20" x="460.644531"/>
      <use xlink:href="#DejaVuSans-6f" x="492.431641"/>
      <use xlink:href="#DejaVuSans-6e" x="553.613281"/>
      <use xlink:href="#DejaVuSans-20" x="616.992188"/>
      <use xlink:href="#DejaVuSans-63" x="648.779297"/>
      <use xlink:href="#DejaVuSans-6f" x="703.759766"/>
      <use xlink:href="#DejaVuSans-6e" x="764.941406"/>
      <use xlink:href="#DejaVuSans-76" x="828.320312"/>
      <use xlink:href="#DejaVuSans-65" x="887.5"/>
      <use xlink:href="#DejaVuSans-72" x="949.023438"/>
      <use xlink:href="#DejaVuSans-67" x="988.386719"/>
      <use xlink:href="#DejaVuSans-61" x="1051.863281"/>
      <use xlink:href="#DejaVuSans-6e" x="1113.142578"/>
      <use xlink:href="#DejaVuSans-63" x="1176.521484"/>
      <use xlink:href="#DejaVuSans-65" x="1231.501953"/>
     </g>
    </g>
   </g>
   <g id="matplotlib.axis_2">
    <g id="ytick_1">
     <g id="line2d_13">
      <path d="M 320.14875 263.076923 
L 677.26875 263.076923 
" clip-path="url(#p74058791f7)" style="fill: none; stroke: #b0b0b0; stroke-width: 0.8; stroke-linecap: square"/>
     </g>
     <g id="line2d_14">
      <defs>
       <path id="m973fa8f6ef" d="M 0 0 
L -3.5 0 
" style="stroke: #000000; stroke-width: 0.8"/>
      </defs>
      <g>
       <use xlink:href="#m973fa8f6ef" x="320.14875" y="263.076923" style="stroke: #000000; stroke-width: 0.8"/>
      </g>
     </g>
     <g id="text_8">
      <!-- Plasma separatrix triangularity -->
      <g transform="translate(65.51375 269.155673) scale(0.16 -0.16)">
       <defs>
        <path id="DejaVuSans-50" d="M 1259 4147 
L 1259 2394 
L 2053 2394 
Q 2494 2394 2734 2622 
Q 2975 2850 2975 3272 
Q 2975 3691 2734 3919 
Q 2494 4147 2053 4147 
L 1259 4147 
z
M 628 4666 
L 2053 4666 
Q 2838 4666 3239 4311 
Q 3641 3956 3641 3272 
Q 3641 2581 3239 2228 
Q 2838 1875 2053 1875 
L 1259 1875 
L 1259 0 
L 628 0 
L 628 4666 
z
" transform="scale(0.015625)"/>
        <path id="DejaVuSans-73" d="M 2834 3397 
L 2834 2853 
Q 2591 2978 2328 3040 
Q 2066 3103 1784 3103 
Q 1356 3103 1142 2972 
Q 928 2841 928 2578 
Q 928 2378 1081 2264 
Q 1234 2150 1697 2047 
L 1894 2003 
Q 2506 1872 2764 1633 
Q 3022 1394 3022 966 
Q 3022 478 2636 193 
Q 2250 -91 1575 -91 
Q 1294 -91 989 -36 
Q 684 19 347 128 
L 347 722 
Q 666 556 975 473 
Q 1284 391 1588 391 
Q 1994 391 2212 530 
Q 2431 669 2431 922 
Q 2431 1156 2273 1281 
Q 2116 1406 1581 1522 
L 1381 1569 
Q 847 1681 609 1914 
Q 372 2147 372 2553 
Q 372 3047 722 3315 
Q 1072 3584 1716 3584 
Q 2034 3584 2315 3537 
Q 2597 3491 2834 3397 
z
" transform="scale(0.015625)"/>
        <path id="DejaVuSans-6d" d="M 3328 2828 
Q 3544 3216 3844 3400 
Q 4144 3584 4550 3584 
Q 5097 3584 5394 3201 
Q 5691 2819 5691 2113 
L 5691 0 
L 5113 0 
L 5113 2094 
Q 5113 2597 4934 2840 
Q 4756 3084 4391 3084 
Q 3944 3084 3684 2787 
Q 3425 2491 3425 1978 
L 3425 0 
L 2847 0 
L 2847 2094 
Q 2847 2600 2669 2842 
Q 2491 3084 2119 3084 
Q 1678 3084 1418 2786 
Q 1159 2488 1159 1978 
L 1159 0 
L 581 0 
L 581 3500 
L 1159 3500 
L 1159 2956 
Q 1356 3278 1631 3431 
Q 1906 3584 2284 3584 
Q 2666 3584 2933 3390 
Q 3200 3197 3328 2828 
z
" transform="scale(0.015625)"/>
        <path id="DejaVuSans-70" d="M 1159 525 
L 1159 -1331 
L 581 -1331 
L 581 3500 
L 1159 3500 
L 1159 2969 
Q 1341 3281 1617 3432 
Q 1894 3584 2278 3584 
Q 2916 3584 3314 3078 
Q 3713 2572 3713 1747 
Q 3713 922 3314 415 
Q 2916 -91 2278 -91 
Q 1894 -91 1617 61 
Q 1341 213 1159 525 
z
M 3116 1747 
Q 3116 2381 2855 2742 
Q 2594 3103 2138 3103 
Q 1681 3103 1420 2742 
Q 1159 2381 1159 1747 
Q 1159 1113 1420 752 
Q 1681 391 2138 391 
Q 2594 391 2855 752 
Q 3116 1113 3116 1747 
z
" transform="scale(0.015625)"/>
        <path id="DejaVuSans-74" d="M 1172 4494 
L 1172 3500 
L 2356 3500 
L 2356 3053 
L 1172 3053 
L 1172 1153 
Q 1172 725 1289 603 
Q 1406 481 1766 481 
L 2356 481 
L 2356 0 
L 1766 0 
Q 1100 0 847 248 
Q 594 497 594 1153 
L 594 3053 
L 172 3053 
L 172 3500 
L 594 3500 
L 594 4494 
L 1172 4494 
z
" transform="scale(0.015625)"/>
        <path id="DejaVuSans-69" d="M 603 3500 
L 1178 3500 
L 1178 0 
L 603 0 
L 603 3500 
z
M 603 4863 
L 1178 4863 
L 1178 4134 
L 603 4134 
L 603 4863 
z
" transform="scale(0.015625)"/>
        <path id="DejaVuSans-78" d="M 3513 3500 
L 2247 1797 
L 3578 0 
L 2900 0 
L 1881 1375 
L 863 0 
L 184 0 
L 1544 1831 
L 300 3500 
L 978 3500 
L 1906 2253 
L 2834 3500 
L 3513 3500 
z
" transform="scale(0.015625)"/>
        <path id="DejaVuSans-79" d="M 2059 -325 
Q 1816 -950 1584 -1140 
Q 1353 -1331 966 -1331 
L 506 -1331 
L 506 -850 
L 844 -850 
Q 1081 -850 1212 -737 
Q 1344 -625 1503 -206 
L 1606 56 
L 191 3500 
L 800 3500 
L 1894 763 
L 2988 3500 
L 3597 3500 
L 2059 -325 
z
" transform="scale(0.015625)"/>
       </defs>
       <use xlink:href="#DejaVuSans-50"/>
       <use xlink:href="#DejaVuSans-6c" x="60.302734"/>
       <use xlink:href="#DejaVuSans-61" x="88.085938"/>
       <use xlink:href="#DejaVuSans-73" x="149.365234"/>
       <use xlink:href="#DejaVuSans-6d" x="201.464844"/>
       <use xlink:href="#DejaVuSans-61" x="298.876953"/>
       <use xlink:href="#DejaVuSans-20" x="360.15625"/>
       <use xlink:href="#DejaVuSans-73" x="391.943359"/>
       <use xlink:href="#DejaVuSans-65" x="444.042969"/>
       <use xlink:href="#DejaVuSans-70" x="505.566406"/>
       <use xlink:href="#DejaVuSans-61" x="569.042969"/>
       <use xlink:href="#DejaVuSans-72" x="630.322266"/>
       <use xlink:href="#DejaVuSans-61" x="671.435547"/>
       <use xlink:href="#DejaVuSans-74" x="732.714844"/>
       <use xlink:href="#DejaVuSans-72" x="771.923828"/>
       <use xlink:href="#DejaVuSans-69" x="813.037109"/>
       <use xlink:href="#DejaVuSans-78" x="840.820312"/>
       <use xlink:href="#DejaVuSans-20" x="900"/>
       <use xlink:href="#DejaVuSans-74" x="931.787109"/>
       <use xlink:href="#DejaVuSans-72" x="970.996094"/>
       <use xlink:href="#DejaVuSans-69" x="1012.109375"/>
       <use xlink:href="#DejaVuSans-61" x="1039.892578"/>
       <use xlink:href="#DejaVuSans-6e" x="1101.171875"/>
       <use xlink:href="#DejaVuSans-67" x="1164.550781"/>
       <use xlink:href="#DejaVuSans-75" x="1228.027344"/>
       <use xlink:href="#DejaVuSans-6c" x="1291.40625"/>
       <use xlink:href="#DejaVuSans-61" x="1319.189453"/>
       <use xlink:href="#DejaVuSans-72" x="1380.46875"/>
       <use xlink:href="#DejaVuSans-69" x="1421.582031"/>
       <use xlink:href="#DejaVuSans-74" x="1449.365234"/>
       <use xlink:href="#DejaVuSans-79" x="1488.574219"/>
      </g>
     </g>
    </g>
    <g id="ytick_2">
     <g id="line2d_15">
      <path d="M 320.14875 242.606769 
L 677.26875 242.606769 
" clip-path="url(#p74058791f7)" style="fill: none; stroke: #b0b0b0; stroke-width: 0.8; stroke-linecap: square"/>
     </g>
     <g id="line2d_16">
      <g>
       <use xlink:href="#m973fa8f6ef" x="320.14875" y="242.606769" style="stroke: #000000; stroke-width: 0.8"/>
      </g>
     </g>
     <g id="text_9">
      <!-- Minimum burn time (s) -->
      <g transform="translate(130.04625 248.685519) scale(0.16 -0.16)">
       <defs>
        <path id="DejaVuSans-4d" d="M 628 4666 
L 1569 4666 
L 2759 1491 
L 3956 4666 
L 4897 4666 
L 4897 0 
L 4281 0 
L 4281 4097 
L 3078 897 
L 2444 897 
L 1241 4097 
L 1241 0 
L 628 0 
L 628 4666 
z
" transform="scale(0.015625)"/>
        <path id="DejaVuSans-62" d="M 3116 1747 
Q 3116 2381 2855 2742 
Q 2594 3103 2138 3103 
Q 1681 3103 1420 2742 
Q 1159 2381 1159 1747 
Q 1159 1113 1420 752 
Q 1681 391 2138 391 
Q 2594 391 2855 752 
Q 3116 1113 3116 1747 
z
M 1159 2969 
Q 1341 3281 1617 3432 
Q 1894 3584 2278 3584 
Q 2916 3584 3314 3078 
Q 3713 2572 3713 1747 
Q 3713 922 3314 415 
Q 2916 -91 2278 -91 
Q 1894 -91 1617 61 
Q 1341 213 1159 525 
L 1159 0 
L 581 0 
L 581 4863 
L 1159 4863 
L 1159 2969 
z
" transform="scale(0.015625)"/>
        <path id="DejaVuSans-28" d="M 1984 4856 
Q 1566 4138 1362 3434 
Q 1159 2731 1159 2009 
Q 1159 1288 1364 580 
Q 1569 -128 1984 -844 
L 1484 -844 
Q 1016 -109 783 600 
Q 550 1309 550 2009 
Q 550 2706 781 3412 
Q 1013 4119 1484 4856 
L 1984 4856 
z
" transform="scale(0.015625)"/>
        <path id="DejaVuSans-29" d="M 513 4856 
L 1013 4856 
Q 1481 4119 1714 3412 
Q 1947 2706 1947 2009 
Q 1947 1309 1714 600 
Q 1481 -109 1013 -844 
L 513 -844 
Q 928 -128 1133 580 
Q 1338 1288 1338 2009 
Q 1338 2731 1133 3434 
Q 928 4138 513 4856 
z
" transform="scale(0.015625)"/>
       </defs>
       <use xlink:href="#DejaVuSans-4d"/>
       <use xlink:href="#DejaVuSans-69" x="86.279297"/>
       <use xlink:href="#DejaVuSans-6e" x="114.0625"/>
       <use xlink:href="#DejaVuSans-69" x="177.441406"/>
       <use xlink:href="#DejaVuSans-6d" x="205.224609"/>
       <use xlink:href="#DejaVuSans-75" x="302.636719"/>
       <use xlink:href="#DejaVuSans-6d" x="366.015625"/>
       <use xlink:href="#DejaVuSans-20" x="463.427734"/>
       <use xlink:href="#DejaVuSans-62" x="495.214844"/>
       <use xlink:href="#DejaVuSans-75" x="558.691406"/>
       <use xlink:href="#DejaVuSans-72" x="622.070312"/>
       <use xlink:href="#DejaVuSans-6e" x="661.433594"/>
       <use xlink:href="#DejaVuSans-20" x="724.8125"/>
       <use xlink:href="#DejaVuSans-74" x="756.599609"/>
       <use xlink:href="#DejaVuSans-69" x="795.808594"/>
       <use xlink:href="#DejaVuSans-6d" x="823.591797"/>
       <use xlink:href="#DejaVuSans-65" x="921.003906"/>
       <use xlink:href="#DejaVuSans-20" x="982.527344"/>
       <use xlink:href="#DejaVuSans-28" x="1014.314453"/>
       <use xlink:href="#DejaVuSans-73" x="1053.328125"/>
       <use xlink:href="#DejaVuSans-29" x="1105.427734"/>
      </g>
     </g>
    </g>
    <g id="ytick_3">
     <g id="line2d_17">
      <path d="M 320.14875 222.136615 
L 677.26875 222.136615 
" clip-path="url(#p74058791f7)" style="fill: none; stroke: #b0b0b0; stroke-width: 0.8; stroke-linecap: square"/>
     </g>
     <g id="line2d_18">
      <g>
       <use xlink:href="#m973fa8f6ef" x="320.14875" y="222.136615" style="stroke: #000000; stroke-width: 0.8"/>
      </g>
     </g>
     <g id="text_10">
      <!-- ECH wall plug to injector eff. (%) -->
      <g transform="translate(53.54625 228.215365) scale(0.16 -0.16)">
       <defs>
        <path id="DejaVuSans-45" d="M 628 4666 
L 3578 4666 
L 3578 4134 
L 1259 4134 
L 1259 2753 
L 3481 2753 
L 3481 2222 
L 1259 2222 
L 1259 531 
L 3634 531 
L 3634 0 
L 628 0 
L 628 4666 
z
" transform="scale(0.015625)"/>
        <path id="DejaVuSans-43" d="M 4122 4306 
L 4122 3641 
Q 3803 3938 3442 4084 
Q 3081 4231 2675 4231 
Q 1875 4231 1450 3742 
Q 1025 3253 1025 2328 
Q 1025 1406 1450 917 
Q 1875 428 2675 428 
Q 3081 428 3442 575 
Q 3803 722 4122 1019 
L 4122 359 
Q 3791 134 3420 21 
Q 3050 -91 2638 -91 
Q 1578 -91 968 557 
Q 359 1206 359 2328 
Q 359 3453 968 4101 
Q 1578 4750 2638 4750 
Q 3056 4750 3426 4639 
Q 3797 4528 4122 4306 
z
" transform="scale(0.015625)"/>
        <path id="DejaVuSans-48" d="M 628 4666 
L 1259 4666 
L 1259 2753 
L 3553 2753 
L 3553 4666 
L 4184 4666 
L 4184 0 
L 3553 0 
L 3553 2222 
L 1259 2222 
L 1259 0 
L 628 0 
L 628 4666 
z
" transform="scale(0.015625)"/>
        <path id="DejaVuSans-77" d="M 269 3500 
L 844 3500 
L 1563 769 
L 2278 3500 
L 2956 3500 
L 3675 769 
L 4391 3500 
L 4966 3500 
L 4050 0 
L 3372 0 
L 2619 2869 
L 1863 0 
L 1184 0 
L 269 3500 
z
" transform="scale(0.015625)"/>
        <path id="DejaVuSans-6a" d="M 603 3500 
L 1178 3500 
L 1178 -63 
Q 1178 -731 923 -1031 
Q 669 -1331 103 -1331 
L -116 -1331 
L -116 -844 
L 38 -844 
Q 366 -844 484 -692 
Q 603 -541 603 -63 
L 603 3500 
z
M 603 4863 
L 1178 4863 
L 1178 4134 
L 603 4134 
L 603 4863 
z
" transform="scale(0.015625)"/>
        <path id="DejaVuSans-25" d="M 4653 2053 
Q 4381 2053 4226 1822 
Q 4072 1591 4072 1178 
Q 4072 772 4226 539 
Q 4381 306 4653 306 
Q 4919 306 5073 539 
Q 5228 772 5228 1178 
Q 5228 1588 5073 1820 
Q 4919 2053 4653 2053 
z
M 4653 2450 
Q 5147 2450 5437 2106 
Q 5728 1763 5728 1178 
Q 5728 594 5436 251 
Q 5144 -91 4653 -91 
Q 4153 -91 3862 251 
Q 3572 594 3572 1178 
Q 3572 1766 3864 2108 
Q 4156 2450 4653 2450 
z
M 1428 4353 
Q 1159 4353 1004 4120 
Q 850 3888 850 3481 
Q 850 3069 1003 2837 
Q 1156 2606 1428 2606 
Q 1700 2606 1854 2837 
Q 2009 3069 2009 3481 
Q 2009 3884 1853 4118 
Q 1697 4353 1428 4353 
z
M 4250 4750 
L 4750 4750 
L 1831 -91 
L 1331 -91 
L 4250 4750 
z
M 1428 4750 
Q 1922 4750 2215 4408 
Q 2509 4066 2509 3481 
Q 2509 2891 2217 2550 
Q 1925 2209 1428 2209 
Q 931 2209 642 2551 
Q 353 2894 353 3481 
Q 353 4063 643 4406 
Q 934 4750 1428 4750 
z
" transform="scale(0.015625)"/>
       </defs>
       <use xlink:href="#DejaVuSans-45"/>
       <use xlink:href="#DejaVuSans-43" x="63.183594"/>
       <use xlink:href="#DejaVuSans-48" x="133.007812"/>
       <use xlink:href="#DejaVuSans-20" x="208.203125"/>
       <use xlink:href="#DejaVuSans-77" x="239.990234"/>
       <use xlink:href="#DejaVuSans-61" x="321.777344"/>
       <use xlink:href="#DejaVuSans-6c" x="383.056641"/>
       <use xlink:href="#DejaVuSans-6c" x="410.839844"/>
       <use xlink:href="#DejaVuSans-20" x="438.623047"/>
       <use xlink:href="#DejaVuSans-70" x="470.410156"/>
       <use xlink:href="#DejaVuSans-6c" x="533.886719"/>
       <use xlink:href="#DejaVuSans-75" x="561.669922"/>
       <use xlink:href="#DejaVuSans-67" x="625.048828"/>
       <use xlink:href="#DejaVuSans-20" x="688.525391"/>
       <use xlink:href="#DejaVuSans-74" x="720.3125"/>
       <use xlink:href="#DejaVuSans-6f" x="759.521484"/>
       <use xlink:href="#DejaVuSans-20" x="820.703125"/>
       <use xlink:href="#DejaVuSans-69" x="852.490234"/>
       <use xlink:href="#DejaVuSans-6e" x="880.273438"/>
       <use xlink:href="#DejaVuSans-6a" x="943.652344"/>
       <use xlink:href="#DejaVuSans-65" x="971.435547"/>
       <use xlink:href="#DejaVuSans-63" x="1032.958984"/>
       <use xlink:href="#DejaVuSans-74" x="1087.939453"/>
       <use xlink:href="#DejaVuSans-6f" x="1127.148438"/>
       <use xlink:href="#DejaVuSans-72" x="1188.330078"/>
       <use xlink:href="#DejaVuSans-20" x="1229.443359"/>
       <use xlink:href="#DejaVuSans-65" x="1261.230469"/>
       <use xlink:href="#DejaVuSans-66" x="1322.753906"/>
       <use xlink:href="#DejaVuSans-66" x="1357.958984"/>
       <use xlink:href="#DejaVuSans-2e" x="1385.914062"/>
       <use xlink:href="#DejaVuSans-20" x="1417.701172"/>
       <use xlink:href="#DejaVuSans-28" x="1449.488281"/>
       <use xlink:href="#DejaVuSans-25" x="1488.501953"/>
       <use xlink:href="#DejaVuSans-29" x="1583.521484"/>
      </g>
     </g>
    </g>
    <g id="ytick_4">
     <g id="line2d_19">
      <path d="M 320.14875 201.666462 
L 677.26875 201.666462 
" clip-path="url(#p74058791f7)" style="fill: none; stroke: #b0b0b0; stroke-width: 0.8; stroke-linecap: square"/>
     </g>
     <g id="line2d_20">
      <g>
       <use xlink:href="#m973fa8f6ef" x="320.14875" y="201.666462" style="stroke: #000000; stroke-width: 0.8"/>
      </g>
     </g>
     <g id="text_11">
      <!-- Max stress in TF coil case (Pa) -->
      <g transform="translate(73.18125 207.745212) scale(0.16 -0.16)">
       <defs>
        <path id="DejaVuSans-54" d="M -19 4666 
L 3928 4666 
L 3928 4134 
L 2272 4134 
L 2272 0 
L 1638 0 
L 1638 4134 
L -19 4134 
L -19 4666 
z
" transform="scale(0.015625)"/>
        <path id="DejaVuSans-46" d="M 628 4666 
L 3309 4666 
L 3309 4134 
L 1259 4134 
L 1259 2759 
L 3109 2759 
L 3109 2228 
L 1259 2228 
L 1259 0 
L 628 0 
L 628 4666 
z
" transform="scale(0.015625)"/>
       </defs>
       <use xlink:href="#DejaVuSans-4d"/>
       <use xlink:href="#DejaVuSans-61" x="86.279297"/>
       <use xlink:href="#DejaVuSans-78" x="147.558594"/>
       <use xlink:href="#DejaVuSans-20" x="206.738281"/>
       <use xlink:href="#DejaVuSans-73" x="238.525391"/>
       <use xlink:href="#DejaVuSans-74" x="290.625"/>
       <use xlink:href="#DejaVuSans-72" x="329.833984"/>
       <use xlink:href="#DejaVuSans-65" x="368.697266"/>
       <use xlink:href="#DejaVuSans-73" x="430.220703"/>
       <use xlink:href="#DejaVuSans-73" x="482.320312"/>
       <use xlink:href="#DejaVuSans-20" x="534.419922"/>
       <use xlink:href="#DejaVuSans-69" x="566.207031"/>
       <use xlink:href="#DejaVuSans-6e" x="593.990234"/>
       <use xlink:href="#DejaVuSans-20" x="657.369141"/>
       <use xlink:href="#DejaVuSans-54" x="689.15625"/>
       <use xlink:href="#DejaVuSans-46" x="750.240234"/>
       <use xlink:href="#DejaVuSans-20" x="807.759766"/>
       <use xlink:href="#DejaVuSans-63" x="839.546875"/>
       <use xlink:href="#DejaVuSans-6f" x="894.527344"/>
       <use xlink:href="#DejaVuSans-69" x="955.708984"/>
       <use xlink:href="#DejaVuSans-6c" x="983.492188"/>
       <use xlink:href="#DejaVuSans-20" x="1011.275391"/>
       <use xlink:href="#DejaVuSans-63" x="1043.0625"/>
       <use xlink:href="#DejaVuSans-61" x="1098.042969"/>
       <use xlink:href="#DejaVuSans-73" x="1159.322266"/>
       <use xlink:href="#DejaVuSans-65" x="1211.421875"/>
       <use xlink:href="#DejaVuSans-20" x="1272.945312"/>
       <use xlink:href="#DejaVuSans-28" x="1304.732422"/>
       <use xlink:href="#DejaVuSans-50" x="1343.746094"/>
       <use xlink:href="#DejaVuSans-61" x="1399.548828"/>
       <use xlink:href="#DejaVuSans-29" x="1460.828125"/>
      </g>
     </g>
    </g>
    <g id="ytick_5">
     <g id="line2d_21">
      <path d="M 320.14875 181.196308 
L 677.26875 181.196308 
" clip-path="url(#p74058791f7)" style="fill: none; stroke: #b0b0b0; stroke-width: 0.8; stroke-linecap: square"/>
     </g>
     <g id="line2d_22">
      <g>
       <use xlink:href="#m973fa8f6ef" x="320.14875" y="181.196308" style="stroke: #000000; stroke-width: 0.8"/>
      </g>
     </g>
     <g id="text_12">
      <!-- Aspect ratio -->
      <g transform="translate(216.82125 187.275058) scale(0.16 -0.16)">
       <defs>
        <path id="DejaVuSans-41" d="M 2188 4044 
L 1331 1722 
L 3047 1722 
L 2188 4044 
z
M 1831 4666 
L 2547 4666 
L 4325 0 
L 3669 0 
L 3244 1197 
L 1141 1197 
L 716 0 
L 50 0 
L 1831 4666 
z
" transform="scale(0.015625)"/>
       </defs>
       <use xlink:href="#DejaVuSans-41"/>
       <use xlink:href="#DejaVuSans-73" x="68.408203"/>
       <use xlink:href="#DejaVuSans-70" x="120.507812"/>
       <use xlink:href="#DejaVuSans-65" x="183.984375"/>
       <use xlink:href="#DejaVuSans-63" x="245.507812"/>
       <use xlink:href="#DejaVuSans-74" x="300.488281"/>
       <use xlink:href="#DejaVuSans-20" x="339.697266"/>
       <use xlink:href="#DejaVuSans-72" x="371.484375"/>
       <use xlink:href="#DejaVuSans-61" x="412.597656"/>
       <use xlink:href="#DejaVuSans-74" x="473.876953"/>
       <use xlink:href="#DejaVuSans-69" x="513.085938"/>
       <use xlink:href="#DejaVuSans-6f" x="540.869141"/>
      </g>
     </g>
    </g>
    <g id="ytick_6">
     <g id="line2d_23">
      <path d="M 320.14875 160.726154 
L 677.26875 160.726154 
" clip-path="url(#p74058791f7)" style="fill: none; stroke: #b0b0b0; stroke-width: 0.8; stroke-linecap: square"/>
     </g>
     <g id="line2d_24">
      <g>
       <use xlink:href="#m973fa8f6ef" x="320.14875" y="160.726154" style="stroke: #000000; stroke-width: 0.8"/>
      </g>
     </g>
     <g id="text_13">
      <!-- Normalised core radius (m) -->
      <g transform="translate(95.03875 166.804904) scale(0.16 -0.16)">
       <defs>
        <path id="DejaVuSans-4e" d="M 628 4666 
L 1478 4666 
L 3547 763 
L 3547 4666 
L 4159 4666 
L 4159 0 
L 3309 0 
L 1241 3903 
L 1241 0 
L 628 0 
L 628 4666 
z
" transform="scale(0.015625)"/>
        <path id="DejaVuSans-64" d="M 2906 2969 
L 2906 4863 
L 3481 4863 
L 3481 0 
L 2906 0 
L 2906 525 
Q 2725 213 2448 61 
Q 2172 -91 1784 -91 
Q 1150 -91 751 415 
Q 353 922 353 1747 
Q 353 2572 751 3078 
Q 1150 3584 1784 3584 
Q 2172 3584 2448 3432 
Q 2725 3281 2906 2969 
z
M 947 1747 
Q 947 1113 1208 752 
Q 1469 391 1925 391 
Q 2381 391 2643 752 
Q 2906 1113 2906 1747 
Q 2906 2381 2643 2742 
Q 2381 3103 1925 3103 
Q 1469 3103 1208 2742 
Q 947 2381 947 1747 
z
" transform="scale(0.015625)"/>
       </defs>
       <use xlink:href="#DejaVuSans-4e"/>
       <use xlink:href="#DejaVuSans-6f" x="74.804688"/>
       <use xlink:href="#DejaVuSans-72" x="135.986328"/>
       <use xlink:href="#DejaVuSans-6d" x="175.349609"/>
       <use xlink:href="#DejaVuSans-61" x="272.761719"/>
       <use xlink:href="#DejaVuSans-6c" x="334.041016"/>
       <use xlink:href="#DejaVuSans-69" x="361.824219"/>
       <use xlink:href="#DejaVuSans-73" x="389.607422"/>
       <use xlink:href="#DejaVuSans-65" x="441.707031"/>
       <use xlink:href="#DejaVuSans-64" x="503.230469"/>
       <use xlink:href="#DejaVuSans-20" x="566.707031"/>
       <use xlink:href="#DejaVuSans-63" x="598.494141"/>
       <use xlink:href="#DejaVuSans-6f" x="653.474609"/>
       <use xlink:href="#DejaVuSans-72" x="714.65625"/>
       <use xlink:href="#DejaVuSans-65" x="753.519531"/>
       <use xlink:href="#DejaVuSans-20" x="815.042969"/>
       <use xlink:href="#DejaVuSans-72" x="846.830078"/>
       <use xlink:href="#DejaVuSans-61" x="887.943359"/>
       <use xlink:href="#DejaVuSans-64" x="949.222656"/>
       <use xlink:href="#DejaVuSans-69" x="1012.699219"/>
       <use xlink:href="#DejaVuSans-75" x="1040.482422"/>
       <use xlink:href="#DejaVuSans-73" x="1103.861328"/>
       <use xlink:href="#DejaVuSans-20" x="1155.960938"/>
       <use xlink:href="#DejaVuSans-28" x="1187.748047"/>
       <use xlink:href="#DejaVuSans-6d" x="1226.761719"/>
       <use xlink:href="#DejaVuSans-29" x="1324.173828"/>
      </g>
     </g>
    </g>
    <g id="ytick_7">
     <g id="line2d_25">
      <path d="M 320.14875 140.256 
L 677.26875 140.256 
" clip-path="url(#p74058791f7)" style="fill: none; stroke: #b0b0b0; stroke-width: 0.8; stroke-linecap: square"/>
     </g>
     <g id="line2d_26">
      <g>
       <use xlink:href="#m973fa8f6ef" x="320.14875" y="140.256" style="stroke: #000000; stroke-width: 0.8"/>
      </g>
     </g>
     <g id="text_14">
      <!-- Thermal alpha/electron density (%) -->
      <g transform="translate(30.55625 146.33475) scale(0.16 -0.16)">
       <defs>
        <path id="DejaVuSans-68" d="M 3513 2113 
L 3513 0 
L 2938 0 
L 2938 2094 
Q 2938 2591 2744 2837 
Q 2550 3084 2163 3084 
Q 1697 3084 1428 2787 
Q 1159 2491 1159 1978 
L 1159 0 
L 581 0 
L 581 4863 
L 1159 4863 
L 1159 2956 
Q 1366 3272 1645 3428 
Q 1925 3584 2291 3584 
Q 2894 3584 3203 3211 
Q 3513 2838 3513 2113 
z
" transform="scale(0.015625)"/>
        <path id="DejaVuSans-2f" d="M 1625 4666 
L 2156 4666 
L 531 -594 
L 0 -594 
L 1625 4666 
z
" transform="scale(0.015625)"/>
       </defs>
       <use xlink:href="#DejaVuSans-54"/>
       <use xlink:href="#DejaVuSans-68" x="61.083984"/>
       <use xlink:href="#DejaVuSans-65" x="124.462891"/>
       <use xlink:href="#DejaVuSans-72" x="185.986328"/>
       <use xlink:href="#DejaVuSans-6d" x="225.349609"/>
       <use xlink:href="#DejaVuSans-61" x="322.761719"/>
       <use xlink:href="#DejaVuSans-6c" x="384.041016"/>
       <use xlink:href="#DejaVuSans-20" x="411.824219"/>
       <use xlink:href="#DejaVuSans-61" x="443.611328"/>
       <use xlink:href="#DejaVuSans-6c" x="504.890625"/>
       <use xlink:href="#DejaVuSans-70" x="532.673828"/>
       <use xlink:href="#DejaVuSans-68" x="596.150391"/>
       <use xlink:href="#DejaVuSans-61" x="659.529297"/>
       <use xlink:href="#DejaVuSans-2f" x="720.808594"/>
       <use xlink:href="#DejaVuSans-65" x="754.5"/>
       <use xlink:href="#DejaVuSans-6c" x="816.023438"/>
       <use xlink:href="#DejaVuSans-65" x="843.806641"/>
       <use xlink:href="#DejaVuSans-63" x="905.330078"/>
       <use xlink:href="#DejaVuSans-74" x="960.310547"/>
       <use xlink:href="#DejaVuSans-72" x="999.519531"/>
       <use xlink:href="#DejaVuSans-6f" x="1038.382812"/>
       <use xlink:href="#DejaVuSans-6e" x="1099.564453"/>
       <use xlink:href="#DejaVuSans-20" x="1162.943359"/>
       <use xlink:href="#DejaVuSans-64" x="1194.730469"/>
       <use xlink:href="#DejaVuSans-65" x="1258.207031"/>
       <use xlink:href="#DejaVuSans-6e" x="1319.730469"/>
       <use xlink:href="#DejaVuSans-73" x="1383.109375"/>
       <use xlink:href="#DejaVuSans-69" x="1435.208984"/>
       <use xlink:href="#DejaVuSans-74" x="1462.992188"/>
       <use xlink:href="#DejaVuSans-79" x="1502.201172"/>
       <use xlink:href="#DejaVuSans-20" x="1561.380859"/>
       <use xlink:href="#DejaVuSans-28" x="1593.167969"/>
       <use xlink:href="#DejaVuSans-25" x="1632.181641"/>
       <use xlink:href="#DejaVuSans-29" x="1727.201172"/>
      </g>
     </g>
    </g>
    <g id="ytick_8">
     <g id="line2d_27">
      <path d="M 320.14875 119.785846 
L 677.26875 119.785846 
" clip-path="url(#p74058791f7)" style="fill: none; stroke: #b0b0b0; stroke-width: 0.8; stroke-linecap: square"/>
     </g>
     <g id="line2d_28">
      <g>
       <use xlink:href="#m973fa8f6ef" x="320.14875" y="119.785846" style="stroke: #000000; stroke-width: 0.8"/>
      </g>
     </g>
     <g id="text_15">
      <!-- Divertor protection (MWT/m) -->
      <g transform="translate(83.09625 125.864596) scale(0.16 -0.16)">
       <defs>
        <path id="DejaVuSans-44" d="M 1259 4147 
L 1259 519 
L 2022 519 
Q 2988 519 3436 956 
Q 3884 1394 3884 2338 
Q 3884 3275 3436 3711 
Q 2988 4147 2022 4147 
L 1259 4147 
z
M 628 4666 
L 1925 4666 
Q 3281 4666 3915 4102 
Q 4550 3538 4550 2338 
Q 4550 1131 3912 565 
Q 3275 0 1925 0 
L 628 0 
L 628 4666 
z
" transform="scale(0.015625)"/>
        <path id="DejaVuSans-57" d="M 213 4666 
L 850 4666 
L 1831 722 
L 2809 4666 
L 3519 4666 
L 4500 722 
L 5478 4666 
L 6119 4666 
L 4947 0 
L 4153 0 
L 3169 4050 
L 2175 0 
L 1381 0 
L 213 4666 
z
" transform="scale(0.015625)"/>
       </defs>
       <use xlink:href="#DejaVuSans-44"/>
       <use xlink:href="#DejaVuSans-69" x="77.001953"/>
       <use xlink:href="#DejaVuSans-76" x="104.785156"/>
       <use xlink:href="#DejaVuSans-65" x="163.964844"/>
       <use xlink:href="#DejaVuSans-72" x="225.488281"/>
       <use xlink:href="#DejaVuSans-74" x="266.601562"/>
       <use xlink:href="#DejaVuSans-6f" x="305.810547"/>
       <use xlink:href="#DejaVuSans-72" x="366.992188"/>
       <use xlink:href="#DejaVuSans-20" x="408.105469"/>
       <use xlink:href="#DejaVuSans-70" x="439.892578"/>
       <use xlink:href="#DejaVuSans-72" x="503.369141"/>
       <use xlink:href="#DejaVuSans-6f" x="542.232422"/>
       <use xlink:href="#DejaVuSans-74" x="603.414062"/>
       <use xlink:href="#DejaVuSans-65" x="642.623047"/>
       <use xlink:href="#DejaVuSans-63" x="704.146484"/>
       <use xlink:href="#DejaVuSans-74" x="759.126953"/>
       <use xlink:href="#DejaVuSans-69" x="798.335938"/>
       <use xlink:href="#DejaVuSans-6f" x="826.119141"/>
       <use xlink:href="#DejaVuSans-6e" x="887.300781"/>
       <use xlink:href="#DejaVuSans-20" x="950.679688"/>
       <use xlink:href="#DejaVuSans-28" x="982.466797"/>
       <use xlink:href="#DejaVuSans-4d" x="1021.480469"/>
       <use xlink:href="#DejaVuSans-57" x="1107.759766"/>
       <use xlink:href="#DejaVuSans-54" x="1206.636719"/>
       <use xlink:href="#DejaVuSans-2f" x="1267.720703"/>
       <use xlink:href="#DejaVuSans-6d" x="1301.412109"/>
       <use xlink:href="#DejaVuSans-29" x="1398.824219"/>
      </g>
     </g>
    </g>
    <g id="ytick_9">
     <g id="line2d_29">
      <path d="M 320.14875 99.315692 
L 677.26875 99.315692 
" clip-path="url(#p74058791f7)" style="fill: none; stroke: #b0b0b0; stroke-width: 0.8; stroke-linecap: square"/>
     </g>
     <g id="line2d_30">
      <g>
       <use xlink:href="#m973fa8f6ef" x="320.14875" y="99.315692" style="stroke: #000000; stroke-width: 0.8"/>
      </g>
     </g>
     <g id="text_16">
      <!-- Max sheer stress in TF coil (Pa) -->
      <g transform="translate(65.22125 105.394442) scale(0.16 -0.16)">
       <use xlink:href="#DejaVuSans-4d"/>
       <use xlink:href="#DejaVuSans-61" x="86.279297"/>
       <use xlink:href="#DejaVuSans-78" x="147.558594"/>
       <use xlink:href="#DejaVuSans-20" x="206.738281"/>
       <use xlink:href="#DejaVuSans-73" x="238.525391"/>
       <use xlink:href="#DejaVuSans-68" x="290.625"/>
       <use xlink:href="#DejaVuSans-65" x="354.003906"/>
       <use xlink:href="#DejaVuSans-65" x="415.527344"/>
       <use xlink:href="#DejaVuSans-72" x="477.050781"/>
       <use xlink:href="#DejaVuSans-20" x="518.164062"/>
       <use xlink:href="#DejaVuSans-73" x="549.951172"/>
       <use xlink:href="#DejaVuSans-74" x="602.050781"/>
       <use xlink:href="#DejaVuSans-72" x="641.259766"/>
       <use xlink:href="#DejaVuSans-65" x="680.123047"/>
       <use xlink:href="#DejaVuSans-73" x="741.646484"/>
       <use xlink:href="#DejaVuSans-73" x="793.746094"/>
       <use xlink:href="#DejaVuSans-20" x="845.845703"/>
       <use xlink:href="#DejaVuSans-69" x="877.632812"/>
       <use xlink:href="#DejaVuSans-6e" x="905.416016"/>
       <use xlink:href="#DejaVuSans-20" x="968.794922"/>
       <use xlink:href="#DejaVuSans-54" x="1000.582031"/>
       <use xlink:href="#DejaVuSans-46" x="1061.666016"/>
       <use xlink:href="#DejaVuSans-20" x="1119.185547"/>
       <use xlink:href="#DejaVuSans-63" x="1150.972656"/>
       <use xlink:href="#DejaVuSans-6f" x="1205.953125"/>
       <use xlink:href="#DejaVuSans-69" x="1267.134766"/>
       <use xlink:href="#DejaVuSans-6c" x="1294.917969"/>
       <use xlink:href="#DejaVuSans-20" x="1322.701172"/>
       <use xlink:href="#DejaVuSans-28" x="1354.488281"/>
       <use xlink:href="#DejaVuSans-50" x="1393.501953"/>
       <use xlink:href="#DejaVuSans-61" x="1449.304688"/>
       <use xlink:href="#DejaVuSans-29" x="1510.583984"/>
      </g>
     </g>
    </g>
    <g id="ytick_10">
     <g id="line2d_31">
      <path d="M 320.14875 78.845538 
L 677.26875 78.845538 
" clip-path="url(#p74058791f7)" style="fill: none; stroke: #b0b0b0; stroke-width: 0.8; stroke-linecap: square"/>
     </g>
     <g id="line2d_32">
      <g>
       <use xlink:href="#m973fa8f6ef" x="320.14875" y="78.845538" style="stroke: #000000; stroke-width: 0.8"/>
      </g>
     </g>
     <g id="text_17">
      <!-- Thermal to electric eff. (%) -->
      <g transform="translate(99.10875 84.924288) scale(0.16 -0.16)">
       <use xlink:href="#DejaVuSans-54"/>
       <use xlink:href="#DejaVuSans-68" x="61.083984"/>
       <use xlink:href="#DejaVuSans-65" x="124.462891"/>
       <use xlink:href="#DejaVuSans-72" x="185.986328"/>
       <use xlink:href="#DejaVuSans-6d" x="225.349609"/>
       <use xlink:href="#DejaVuSans-61" x="322.761719"/>
       <use xlink:href="#DejaVuSans-6c" x="384.041016"/>
       <use xlink:href="#DejaVuSans-20" x="411.824219"/>
       <use xlink:href="#DejaVuSans-74" x="443.611328"/>
       <use xlink:href="#DejaVuSans-6f" x="482.820312"/>
       <use xlink:href="#DejaVuSans-20" x="544.001953"/>
       <use xlink:href="#DejaVuSans-65" x="575.789062"/>
       <use xlink:href="#DejaVuSans-6c" x="637.3125"/>
       <use xlink:href="#DejaVuSans-65" x="665.095703"/>
       <use xlink:href="#DejaVuSans-63" x="726.619141"/>
       <use xlink:href="#DejaVuSans-74" x="781.599609"/>
       <use xlink:href="#DejaVuSans-72" x="820.808594"/>
       <use xlink:href="#DejaVuSans-69" x="861.921875"/>
       <use xlink:href="#DejaVuSans-63" x="889.705078"/>
       <use xlink:href="#DejaVuSans-20" x="944.685547"/>
       <use xlink:href="#DejaVuSans-65" x="976.472656"/>
       <use xlink:href="#DejaVuSans-66" x="1037.996094"/>
       <use xlink:href="#DejaVuSans-66" x="1073.201172"/>
       <use xlink:href="#DejaVuSans-2e" x="1101.15625"/>
       <use xlink:href="#DejaVuSans-20" x="1132.943359"/>
       <use xlink:href="#DejaVuSans-28" x="1164.730469"/>
       <use xlink:href="#DejaVuSans-25" x="1203.744141"/>
       <use xlink:href="#DejaVuSans-29" x="1298.763672"/>
      </g>
     </g>
    </g>
    <g id="ytick_11">
     <g id="line2d_33">
      <path d="M 320.14875 58.375385 
L 677.26875 58.375385 
" clip-path="url(#p74058791f7)" style="fill: none; stroke: #b0b0b0; stroke-width: 0.8; stroke-linecap: square"/>
     </g>
     <g id="line2d_34">
      <g>
       <use xlink:href="#m973fa8f6ef" x="320.14875" y="58.375385" style="stroke: #000000; stroke-width: 0.8"/>
      </g>
     </g>
     <g id="text_18">
      <!-- Allowable hoop stress in CS (Pa) -->
      <g transform="translate(56.41125 64.454135) scale(0.16 -0.16)">
       <defs>
        <path id="DejaVuSans-53" d="M 3425 4513 
L 3425 3897 
Q 3066 4069 2747 4153 
Q 2428 4238 2131 4238 
Q 1616 4238 1336 4038 
Q 1056 3838 1056 3469 
Q 1056 3159 1242 3001 
Q 1428 2844 1947 2747 
L 2328 2669 
Q 3034 2534 3370 2195 
Q 3706 1856 3706 1288 
Q 3706 609 3251 259 
Q 2797 -91 1919 -91 
Q 1588 -91 1214 -16 
Q 841 59 441 206 
L 441 856 
Q 825 641 1194 531 
Q 1563 422 1919 422 
Q 2459 422 2753 634 
Q 3047 847 3047 1241 
Q 3047 1584 2836 1778 
Q 2625 1972 2144 2069 
L 1759 2144 
Q 1053 2284 737 2584 
Q 422 2884 422 3419 
Q 422 4038 858 4394 
Q 1294 4750 2059 4750 
Q 2388 4750 2728 4690 
Q 3069 4631 3425 4513 
z
" transform="scale(0.015625)"/>
       </defs>
       <use xlink:href="#DejaVuSans-41"/>
       <use xlink:href="#DejaVuSans-6c" x="68.408203"/>
       <use xlink:href="#DejaVuSans-6c" x="96.191406"/>
       <use xlink:href="#DejaVuSans-6f" x="123.974609"/>
       <use xlink:href="#DejaVuSans-77" x="185.15625"/>
       <use xlink:href="#DejaVuSans-61" x="266.943359"/>
       <use xlink:href="#DejaVuSans-62" x="328.222656"/>
       <use xlink:href="#DejaVuSans-6c" x="391.699219"/>
       <use xlink:href="#DejaVuSans-65" x="419.482422"/>
       <use xlink:href="#DejaVuSans-20" x="481.005859"/>
       <use xlink:href="#DejaVuSans-68" x="512.792969"/>
       <use xlink:href="#DejaVuSans-6f" x="576.171875"/>
       <use xlink:href="#DejaVuSans-6f" x="637.353516"/>
       <use xlink:href="#DejaVuSans-70" x="698.535156"/>
       <use xlink:href="#DejaVuSans-20" x="762.011719"/>
       <use xlink:href="#DejaVuSans-73" x="793.798828"/>
       <use xlink:href="#DejaVuSans-74" x="845.898438"/>
       <use xlink:href="#DejaVuSans-72" x="885.107422"/>
       <use xlink:href="#DejaVuSans-65" x="923.970703"/>
       <use xlink:href="#DejaVuSans-73" x="985.494141"/>
       <use xlink:href="#DejaVuSans-73" x="1037.59375"/>
       <use xlink:href="#DejaVuSans-20" x="1089.693359"/>
       <use xlink:href="#DejaVuSans-69" x="1121.480469"/>
       <use xlink:href="#DejaVuSans-6e" x="1149.263672"/>
       <use xlink:href="#DejaVuSans-20" x="1212.642578"/>
       <use xlink:href="#DejaVuSans-43" x="1244.429688"/>
       <use xlink:href="#DejaVuSans-53" x="1314.253906"/>
       <use xlink:href="#DejaVuSans-20" x="1377.730469"/>
       <use xlink:href="#DejaVuSans-28" x="1409.517578"/>
       <use xlink:href="#DejaVuSans-50" x="1448.53125"/>
       <use xlink:href="#DejaVuSans-61" x="1504.333984"/>
       <use xlink:href="#DejaVuSans-29" x="1565.613281"/>
      </g>
     </g>
    </g>
    <g id="ytick_12">
     <g id="line2d_35">
      <path d="M 320.14875 37.905231 
L 677.26875 37.905231 
" clip-path="url(#p74058791f7)" style="fill: none; stroke: #b0b0b0; stroke-width: 0.8; stroke-linecap: square"/>
     </g>
     <g id="line2d_36">
      <g>
       <use xlink:href="#m973fa8f6ef" x="320.14875" y="37.905231" style="stroke: #000000; stroke-width: 0.8"/>
      </g>
     </g>
     <g id="text_19">
      <!-- Max neutron wall-load (MW/m$^{2}$) -->
      <g transform="translate(59.22875 44.641481) scale(0.16 -0.16)">
       <defs>
        <path id="DejaVuSans-2d" d="M 313 2009 
L 1997 2009 
L 1997 1497 
L 313 1497 
L 313 2009 
z
" transform="scale(0.015625)"/>
       </defs>
       <use xlink:href="#DejaVuSans-4d" transform="translate(0 0.765625)"/>
       <use xlink:href="#DejaVuSans-61" transform="translate(86.279297 0.765625)"/>
       <use xlink:href="#DejaVuSans-78" transform="translate(147.558594 0.765625)"/>
       <use xlink:href="#DejaVuSans-20" transform="translate(206.738281 0.765625)"/>
       <use xlink:href="#DejaVuSans-6e" transform="translate(238.525391 0.765625)"/>
       <use xlink:href="#DejaVuSans-65" transform="translate(301.904297 0.765625)"/>
       <use xlink:href="#DejaVuSans-75" transform="translate(363.427734 0.765625)"/>
       <use xlink:href="#DejaVuSans-74" transform="translate(426.806641 0.765625)"/>
       <use xlink:href="#DejaVuSans-72" transform="translate(466.015625 0.765625)"/>
       <use xlink:href="#DejaVuSans-6f" transform="translate(507.128906 0.765625)"/>
       <use xlink:href="#DejaVuSans-6e" transform="translate(568.310547 0.765625)"/>
       <use xlink:href="#DejaVuSans-20" transform="translate(631.689453 0.765625)"/>
       <use xlink:href="#DejaVuSans-77" transform="translate(663.476562 0.765625)"/>
       <use xlink:href="#DejaVuSans-61" transform="translate(745.263672 0.765625)"/>
       <use xlink:href="#DejaVuSans-6c" transform="translate(806.542969 0.765625)"/>
       <use xlink:href="#DejaVuSans-6c" transform="translate(834.326172 0.765625)"/>
       <use xlink:href="#DejaVuSans-2d" transform="translate(862.109375 0.765625)"/>
       <use xlink:href="#DejaVuSans-6c" transform="translate(898.193359 0.765625)"/>
       <use xlink:href="#DejaVuSans-6f" transform="translate(925.976562 0.765625)"/>
       <use xlink:href="#DejaVuSans-61" transform="translate(987.158203 0.765625)"/>
       <use xlink:href="#DejaVuSans-64" transform="translate(1048.4375 0.765625)"/>
       <use xlink:href="#DejaVuSans-20" transform="translate(1111.914062 0.765625)"/>
       <use xlink:href="#DejaVuSans-28" transform="translate(1143.701172 0.765625)"/>
       <use xlink:href="#DejaVuSans-4d" transform="translate(1182.714844 0.765625)"/>
       <use xlink:href="#DejaVuSans-57" transform="translate(1268.994141 0.765625)"/>
       <use xlink:href="#DejaVuSans-2f" transform="translate(1367.871094 0.765625)"/>
       <use xlink:href="#DejaVuSans-6d" transform="translate(1401.5625 0.765625)"/>
       <use xlink:href="#DejaVuSans-32" transform="translate(1499.931641 39.046875) scale(0.7)"/>
       <use xlink:href="#DejaVuSans-29" transform="translate(1547.202148 0.765625)"/>
      </g>
     </g>
    </g>
    <g id="ytick_13">
     <g id="line2d_37">
      <path d="M 320.14875 17.435077 
L 677.26875 17.435077 
" clip-path="url(#p74058791f7)" style="fill: none; stroke: #b0b0b0; stroke-width: 0.8; stroke-linecap: square"/>
     </g>
     <g id="line2d_38">
      <g>
       <use xlink:href="#m973fa8f6ef" x="320.14875" y="17.435077" style="stroke: #000000; stroke-width: 0.8"/>
      </g>
     </g>
     <g id="text_20">
      <!-- Max injected power (MW) -->
      <g transform="translate(109.30125 23.513827) scale(0.16 -0.16)">
       <use xlink:href="#DejaVuSans-4d"/>
       <use xlink:href="#DejaVuSans-61" x="86.279297"/>
       <use xlink:href="#DejaVuSans-78" x="147.558594"/>
       <use xlink:href="#DejaVuSans-20" x="206.738281"/>
       <use xlink:href="#DejaVuSans-69" x="238.525391"/>
       <use xlink:href="#DejaVuSans-6e" x="266.308594"/>
       <use xlink:href="#DejaVuSans-6a" x="329.6875"/>
       <use xlink:href="#DejaVuSans-65" x="357.470703"/>
       <use xlink:href="#DejaVuSans-63" x="418.994141"/>
       <use xlink:href="#DejaVuSans-74" x="473.974609"/>
       <use xlink:href="#DejaVuSans-65" x="513.183594"/>
       <use xlink:href="#DejaVuSans-64" x="574.707031"/>
       <use xlink:href="#DejaVuSans-20" x="638.183594"/>
       <use xlink:href="#DejaVuSans-70" x="669.970703"/>
       <use xlink:href="#DejaVuSans-6f" x="733.447266"/>
       <use xlink:href="#DejaVuSans-77" x="794.628906"/>
       <use xlink:href="#DejaVuSans-65" x="876.416016"/>
       <use xlink:href="#DejaVuSans-72" x="937.939453"/>
       <use xlink:href="#DejaVuSans-20" x="979.052734"/>
       <use xlink:href="#DejaVuSans-28" x="1010.839844"/>
       <use xlink:href="#DejaVuSans-4d" x="1049.853516"/>
       <use xlink:href="#DejaVuSans-57" x="1136.132812"/>
       <use xlink:href="#DejaVuSans-29" x="1235.009766"/>
      </g>
     </g>
    </g>
    <g id="text_21">
     <!-- PROCESS parameter -->
     <g transform="translate(22.396875 243.076312) rotate(-90) scale(0.2 -0.2)">
      <defs>
       <path id="DejaVuSans-52" d="M 2841 2188 
Q 3044 2119 3236 1894 
Q 3428 1669 3622 1275 
L 4263 0 
L 3584 0 
L 2988 1197 
Q 2756 1666 2539 1819 
Q 2322 1972 1947 1972 
L 1259 1972 
L 1259 0 
L 628 0 
L 628 4666 
L 2053 4666 
Q 2853 4666 3247 4331 
Q 3641 3997 3641 3322 
Q 3641 2881 3436 2590 
Q 3231 2300 2841 2188 
z
M 1259 4147 
L 1259 2491 
L 2053 2491 
Q 2509 2491 2742 2702 
Q 2975 2913 2975 3322 
Q 2975 3731 2742 3939 
Q 2509 4147 2053 4147 
L 1259 4147 
z
" transform="scale(0.015625)"/>
       <path id="DejaVuSans-4f" d="M 2522 4238 
Q 1834 4238 1429 3725 
Q 1025 3213 1025 2328 
Q 1025 1447 1429 934 
Q 1834 422 2522 422 
Q 3209 422 3611 934 
Q 4013 1447 4013 2328 
Q 4013 3213 3611 3725 
Q 3209 4238 2522 4238 
z
M 2522 4750 
Q 3503 4750 4090 4092 
Q 4678 3434 4678 2328 
Q 4678 1225 4090 567 
Q 3503 -91 2522 -91 
Q 1538 -91 948 565 
Q 359 1222 359 2328 
Q 359 3434 948 4092 
Q 1538 4750 2522 4750 
z
" transform="scale(0.015625)"/>
      </defs>
      <use xlink:href="#DejaVuSans-50"/>
      <use xlink:href="#DejaVuSans-52" x="60.302734"/>
      <use xlink:href="#DejaVuSans-4f" x="129.785156"/>
      <use xlink:href="#DejaVuSans-43" x="208.496094"/>
      <use xlink:href="#DejaVuSans-45" x="278.320312"/>
      <use xlink:href="#DejaVuSans-53" x="341.503906"/>
      <use xlink:href="#DejaVuSans-53" x="404.980469"/>
      <use xlink:href="#DejaVuSans-20" x="468.457031"/>
      <use xlink:href="#DejaVuSans-70" x="500.244141"/>
      <use xlink:href="#DejaVuSans-61" x="563.720703"/>
      <use xlink:href="#DejaVuSans-72" x="625"/>
      <use xlink:href="#DejaVuSans-61" x="666.113281"/>
      <use xlink:href="#DejaVuSans-6d" x="727.392578"/>
      <use xlink:href="#DejaVuSans-65" x="824.804688"/>
      <use xlink:href="#DejaVuSans-74" x="886.328125"/>
      <use xlink:href="#DejaVuSans-65" x="925.537109"/>
      <use xlink:href="#DejaVuSans-72" x="987.060547"/>
     </g>
    </g>
   </g>
   <g id="patch_16">
    <path d="M 320.14875 273.312 
L 320.14875 7.2 
" style="fill: none; stroke: #000000; stroke-width: 0.8; stroke-linejoin: miter; stroke-linecap: square"/>
   </g>
   <g id="patch_17">
    <path d="M 677.26875 273.312 
L 677.26875 7.2 
" style="fill: none; stroke: #000000; stroke-width: 0.8; stroke-linejoin: miter; stroke-linecap: square"/>
   </g>
   <g id="patch_18">
    <path d="M 320.14875 273.312 
L 677.26875 273.312 
" style="fill: none; stroke: #000000; stroke-width: 0.8; stroke-linejoin: miter; stroke-linecap: square"/>
   </g>
   <g id="patch_19">
    <path d="M 320.14875 7.2 
L 677.26875 7.2 
" style="fill: none; stroke: #000000; stroke-width: 0.8; stroke-linejoin: miter; stroke-linecap: square"/>
   </g>
   <g id="legend_1">
    <g id="patch_20">
     <path d="M 497.169375 42.6675 
L 668.86875 42.6675 
Q 671.26875 42.6675 671.26875 40.2675 
L 671.26875 15.6 
Q 671.26875 13.2 668.86875 13.2 
L 497.169375 13.2 
Q 494.769375 13.2 494.769375 15.6 
L 494.769375 40.2675 
Q 494.769375 42.6675 497.169375 42.6675 
z
" style="fill: #ffffff; opacity: 0.8; stroke: #cccccc; stroke-linejoin: miter"/>
    </g>
    <g id="patch_21">
     <path d="M 494.889375 22.438125 
L 518.889375 22.438125 
L 518.889375 14.038125 
L 494.889375 14.038125 
z
" style="fill: url(#h842bbfd03b); fill-opacity: 0.2; stroke: #ffffff; stroke-opacity: 0.2; stroke-linejoin: miter"/>
    </g>
    <g id="text_22">
     <!-- Region of Insignificance -->
     <g transform="translate(528.489375 22.438125) scale(0.12 -0.12)">
      <use xlink:href="#DejaVuSans-52"/>
      <use xlink:href="#DejaVuSans-65" x="64.982422"/>
      <use xlink:href="#DejaVuSans-67" x="126.505859"/>
      <use xlink:href="#DejaVuSans-69" x="189.982422"/>
      <use xlink:href="#DejaVuSans-6f" x="217.765625"/>
      <use xlink:href="#DejaVuSans-6e" x="278.947266"/>
      <use xlink:href="#DejaVuSans-20" x="342.326172"/>
      <use xlink:href="#DejaVuSans-6f" x="374.113281"/>
      <use xlink:href="#DejaVuSans-66" x="435.294922"/>
      <use xlink:href="#DejaVuSans-20" x="470.5"/>
      <use xlink:href="#DejaVuSans-49" x="502.287109"/>
      <use xlink:href="#DejaVuSans-6e" x="531.779297"/>
      <use xlink:href="#DejaVuSans-73" x="595.158203"/>
      <use xlink:href="#DejaVuSans-69" x="647.257812"/>
      <use xlink:href="#DejaVuSans-67" x="675.041016"/>
      <use xlink:href="#DejaVuSans-6e" x="738.517578"/>
      <use xlink:href="#DejaVuSans-69" x="801.896484"/>
      <use xlink:href="#DejaVuSans-66" x="829.679688"/>
      <use xlink:href="#DejaVuSans-69" x="864.884766"/>
      <use xlink:href="#DejaVuSans-63" x="892.667969"/>
      <use xlink:href="#DejaVuSans-61" x="947.648438"/>
      <use xlink:href="#DejaVuSans-6e" x="1008.927734"/>
      <use xlink:href="#DejaVuSans-63" x="1072.306641"/>
      <use xlink:href="#DejaVuSans-65" x="1127.287109"/>
     </g>
    </g>
    <g id="patch_22">
     <path d="M 494.889375 40.051875 
L 518.889375 40.051875 
L 518.889375 31.651875 
L 494.889375 31.651875 
z
" style="fill: #1f77b4"/>
    </g>
    <g id="text_23">
     <!-- Significance Index -->
     <g transform="translate(528.489375 40.051875) scale(0.12 -0.12)">
      <use xlink:href="#DejaVuSans-53"/>
      <use xlink:href="#DejaVuSans-69" x="63.476562"/>
      <use xlink:href="#DejaVuSans-67" x="91.259766"/>
      <use xlink:href="#DejaVuSans-6e" x="154.736328"/>
      <use xlink:href="#DejaVuSans-69" x="218.115234"/>
      <use xlink:href="#DejaVuSans-66" x="245.898438"/>
      <use xlink:href="#DejaVuSans-69" x="281.103516"/>
      <use xlink:href="#DejaVuSans-63" x="308.886719"/>
      <use xlink:href="#DejaVuSans-61" x="363.867188"/>
      <use xlink:href="#DejaVuSans-6e" x="425.146484"/>
      <use xlink:href="#DejaVuSans-63" x="488.525391"/>
      <use xlink:href="#DejaVuSans-65" x="543.505859"/>
      <use xlink:href="#DejaVuSans-20" x="605.029297"/>
      <use xlink:href="#DejaVuSans-49" x="636.816406"/>
      <use xlink:href="#DejaVuSans-6e" x="666.308594"/>
      <use xlink:href="#DejaVuSans-64" x="729.6875"/>
      <use xlink:href="#DejaVuSans-65" x="793.164062"/>
      <use xlink:href="#DejaVuSans-78" x="852.9375"/>
     </g>
    </g>
   </g>
  </g>
 </g>
 <defs>
  <clipPath id="p74058791f7">
   <rect x="320.14875" y="7.2" width="357.12" height="266.112"/>
  </clipPath>
 </defs>
 <defs>
  <pattern id="h842bbfd03b" patternUnits="userSpaceOnUse" x="0" y="0" width="72" height="72">
   <rect x="0" y="0" width="73" height="73" fill="#808080"/>
   <path d="M -36 36 
L 36 -36 
M -30 42 
L 42 -30 
M -24 48 
L 48 -24 
M -18 54 
L 54 -18 
M -12 60 
L 60 -12 
M -6 66 
L 66 -6 
M 0 72 
L 72 0 
M 6 78 
L 78 6 
M 12 84 
L 84 12 
M 18 90 
L 90 18 
M 24 96 
L 96 24 
M 30 102 
L 102 30 
M 36 108 
L 108 36 
" style="fill: #ffffff; stroke: #ffffff; stroke-width: 1.0; stroke-linecap: butt; stroke-linejoin: miter; stroke-opacity: 0.2"/>
  </pattern>
 </defs>
</svg>
