<svg version="1.1" xmlns="http://www.w3.org/2000/svg" width="350" height="350"><defs><clipPath id="QrNEtnmucyIt"><path fill="none" stroke="none" d="M 58.5 27.5 L 320.5 27.5 L 320.5 305.5 L 58.5 305.5 L 58.5 27.5 Z"/></clipPath><clipPath id="meykkaTJbDdc"><path fill="none" stroke="none" d="M 58.5 27.5 L 320.5 27.5 L 320.5 305.5 L 58.5 305.5 L 58.5 27.5 Z"/></clipPath><clipPath id="eVCkRSurXGXK"><path fill="none" stroke="none" d="M 58.5 27.5 L 320.5 27.5 L 320.5 305.5 L 58.5 305.5 L 58.5 27.5 Z"/></clipPath><pattern id="bgsXiVgnlzlx" width="3" height="3" patternUnits="userSpaceOnUse"><path fill="rgb(0,0,0)" stroke="none" paint-order="stroke" d="M 2.75 2 A 0.75 0.75 0 0 0 1.25 2 A 0.75 0.75 0 0 0 2.75 2" fill-opacity="0.14901960784313725"/></pattern><clipPath id="rbpGwsVCzklU"><path fill="none" stroke="none" d="M 58.5 27.5 L 320.5 27.5 L 320.5 305.5 L 58.5 305.5 L 58.5 27.5 Z"/></clipPath><clipPath id="NphLQAfTfAzm"><path fill="none" stroke="none" d="M 58.5 27.5 L 320.5 27.5 L 320.5 305.5 L 58.5 305.5 L 58.5 27.5 Z"/></clipPath><clipPath id="ZtOpAJEiWqUl"><path fill="none" stroke="none" d="M 58.5 27.5 L 320.5 27.5 L 320.5 305.5 L 58.5 305.5 L 58.5 27.5 Z"/></clipPath><clipPath id="iHyeOtnoSsGf"><path fill="none" stroke="none" d="M 58.5 27.5 L 320.5 27.5 L 320.5 305.5 L 58.5 305.5 L 58.5 27.5 Z"/></clipPath></defs><path fill="rgb(255,255,255)" stroke="none" paint-order="stroke" d="M 0.5 0.5 L 350.5 0.5 L 350.5 350.5 L 0.5 350.5 L 0.5 0.5 Z" fill-opacity="1"/><rect fill="#FFFFFF" stroke="none" x="58" y="27" width="262" height="278" transform="matrix(1, 0, 0, 1, 0.5, 0.5)"/><path fill="rgb(255,255,255)" stroke="none" paint-order="stroke" d="M 58.5 27.5 L 320.5 27.5 L 320.5 305.5 L 58.5 305.5 L 58.5 27.5 Z" fill-opacity="1"/><path fill="none" stroke="rgb(229,229,229)" paint-order="fill" d="M 58.5 27.5 L 320.5 27.5 L 320.5 305.5 L 58.5 305.5 L 58.5 27.5 Z" stroke-opacity="1" stroke-linejoin="bevel" stroke-miterlimit="10"/><path fill="none" stroke="rgb(229,229,229)" paint-order="fill" d="M 73.5 305.5 L 73.5 27.5 M 118.5 305.5 L 118.5 27.5 M 162.5 305.5 L 162.5 27.5 M 207.5 305.5 L 207.5 27.5 M 251.5 305.5 L 251.5 27.5 M 296.5 305.5 L 296.5 27.5" stroke-opacity="1" stroke-linejoin="bevel" stroke-miterlimit="10" clip-path="url(#QrNEtnmucyIt)"/><path fill="none" stroke="rgb(229,229,229)" paint-order="fill" d="M 58.5 292.5 L 320.5 292.5 M 58.5 237.5 L 320.5 237.5 M 58.5 183.5 L 320.5 183.5 M 58.5 128.5 L 320.5 128.5 M 58.5 73.5 L 320.5 73.5" stroke-opacity="1" stroke-linejoin="bevel" stroke-miterlimit="10" clip-path="url(#meykkaTJbDdc)"/><path fill="rgb(128,128,128)" stroke="none" paint-order="stroke" d="M 60.04801559448242 40.13636016845703 L 306.62322998046875 40.13636016845703 L 306.62322998046875 292.8636474609375 L 60.04801559448242 292.8636474609375 L 60.04801559448242 40.13636016845703 Z" fill-opacity="0.10196078431372549" clip-path="url(#eVCkRSurXGXK)"/><path fill="url(#bgsXiVgnlzlx)" stroke="rgb(0,0,0)" paint-order="fill" d="M 60.04801559448242 40.13636016845703 L 306.62322998046875 40.13636016845703 L 306.62322998046875 292.8636474609375 L 60.04801559448242 292.8636474609375 L 60.04801559448242 40.13636016845703 Z" clip-path="url(#eVCkRSurXGXK)" stroke-opacity="0.2" stroke-linejoin="bevel" stroke-miterlimit="10"/><path fill="rgb(100,149,237)" stroke="rgb(31,119,180)" paint-order="fill" d="M 60.04801940917969 40.1363639831543 L 84.70553588867188 40.1363639831543 L 84.70553588867188 292.8636474609375 L 60.04801940917969 292.8636474609375 L 60.04801940917969 40.1363639831543 Z" fill-opacity="1" clip-path="url(#rbpGwsVCzklU)" stroke-opacity="1" stroke-linejoin="bevel" stroke-miterlimit="10"/><path fill="rgb(100,149,237)" stroke="rgb(31,119,180)" paint-order="fill" d="M 87.44526672363281 111.27665710449219 L 112.102783203125 111.27665710449219 L 112.102783203125 292.8636474609375 L 87.44526672363281 292.8636474609375 L 87.44526672363281 111.27665710449219 Z" fill-opacity="1" clip-path="url(#rbpGwsVCzklU)" stroke-opacity="1" stroke-linejoin="bevel" stroke-miterlimit="10"/><path fill="rgb(100,149,237)" stroke="rgb(31,119,180)" paint-order="fill" d="M 114.8425064086914 264.7192077636719 L 139.50003051757812 264.7192077636719 L 139.50003051757812 292.8636474609375 L 114.8425064086914 292.8636474609375 L 114.8425064086914 264.7192077636719 Z" fill-opacity="1" clip-path="url(#rbpGwsVCzklU)" stroke-opacity="1" stroke-linejoin="bevel" stroke-miterlimit="10"/><path fill="rgb(100,149,237)" stroke="rgb(31,119,180)" paint-order="fill" d="M 142.23974609375 285.0377197265625 L 166.89727783203125 285.0377197265625 L 166.89727783203125 292.8636474609375 L 142.23974609375 292.8636474609375 L 142.23974609375 285.0377197265625 Z" fill-opacity="1" clip-path="url(#rbpGwsVCzklU)" stroke-opacity="1" stroke-linejoin="bevel" stroke-miterlimit="10"/><path fill="rgb(100,149,237)" stroke="rgb(31,119,180)" paint-order="fill" d="M 169.63699340820312 292.8636474609375 L 194.29452514648438 292.8636474609375 L 194.29452514648438 292.8636474609375 L 169.63699340820312 292.8636474609375 L 169.63699340820312 292.8636474609375 Z" fill-opacity="1" clip-path="url(#rbpGwsVCzklU)" stroke-opacity="1" stroke-linejoin="bevel" stroke-miterlimit="10"/><path fill="rgb(100,149,237)" stroke="rgb(31,119,180)" paint-order="fill" d="M 197.03424072265625 292.8636474609375 L 221.6917724609375 292.8636474609375 L 221.6917724609375 292.8636474609375 L 197.03424072265625 292.8636474609375 L 197.03424072265625 292.8636474609375 Z" fill-opacity="1" clip-path="url(#rbpGwsVCzklU)" stroke-opacity="1" stroke-linejoin="bevel" stroke-miterlimit="10"/><path fill="rgb(100,149,237)" stroke="rgb(31,119,180)" paint-order="fill" d="M 224.43148803710938 292.8636474609375 L 249.08901977539062 292.8636474609375 L 249.08901977539062 292.8636474609375 L 224.43148803710938 292.8636474609375 L 224.43148803710938 292.8636474609375 Z" fill-opacity="1" clip-path="url(#rbpGwsVCzklU)" stroke-opacity="1" stroke-linejoin="bevel" stroke-miterlimit="10"/><path fill="rgb(100,149,237)" stroke="rgb(31,119,180)" paint-order="fill" d="M 251.8287353515625 292.8636474609375 L 276.48626708984375 292.8636474609375 L 276.48626708984375 292.8636474609375 L 251.8287353515625 292.8636474609375 L 251.8287353515625 292.8636474609375 Z" fill-opacity="1" clip-path="url(#rbpGwsVCzklU)" stroke-opacity="1" stroke-linejoin="bevel" stroke-miterlimit="10"/><path fill="rgb(100,149,237)" stroke="rgb(31,119,180)" paint-order="fill" d="M 279.2259826660156 292.8636474609375 L 303.8835144042969 292.8636474609375 L 303.8835144042969 292.8636474609375 L 279.2259826660156 292.8636474609375 L 279.2259826660156 292.8636474609375 Z" fill-opacity="1" clip-path="url(#rbpGwsVCzklU)" stroke-opacity="1" stroke-linejoin="bevel" stroke-miterlimit="10"/><path fill="rgb(100,149,237)" stroke="rgb(31,119,180)" paint-order="fill" d="M 306.62322998046875 292.8636474609375 L 320.5 292.8636474609375 L 320.5 292.8636474609375 L 306.62322998046875 292.8636474609375 L 306.62322998046875 292.8636474609375 Z" fill-opacity="1" clip-path="url(#rbpGwsVCzklU)" stroke-opacity="1" stroke-linejoin="bevel" stroke-miterlimit="10"/><path fill="none" stroke="rgb(0,0,0)" paint-order="fill" d="M 58.5 305.5 L 320.5 305.5" stroke-opacity="1" stroke-linejoin="bevel" stroke-miterlimit="10"/><path fill="none" stroke="rgb(0,0,0)" paint-order="fill" d="M 73.5 311.5 L 73.5 303.5 M 118.5 311.5 L 118.5 303.5 M 162.5 311.5 L 162.5 303.5 M 207.5 311.5 L 207.5 303.5 M 251.5 311.5 L 251.5 303.5 M 296.5 311.5 L 296.5 303.5" stroke-opacity="1" stroke-linejoin="bevel" stroke-miterlimit="10"/><path fill="none" stroke="rgb(0,0,0)" paint-order="fill" d="M 64.5 309.5 L 64.5 305.5 M 73.5 309.5 L 73.5 305.5 M 82.5 309.5 L 82.5 305.5 M 91.5 309.5 L 91.5 305.5 M 100.5 309.5 L 100.5 305.5 M 109.5 309.5 L 109.5 305.5 M 118.5 309.5 L 118.5 305.5 M 127.5 309.5 L 127.5 305.5 M 135.5 309.5 L 135.5 305.5 M 144.5 309.5 L 144.5 305.5 M 153.5 309.5 L 153.5 305.5 M 162.5 309.5 L 162.5 305.5 M 171.5 309.5 L 171.5 305.5 M 180.5 309.5 L 180.5 305.5 M 189.5 309.5 L 189.5 305.5 M 198.5 309.5 L 198.5 305.5 M 207.5 309.5 L 207.5 305.5 M 216.5 309.5 L 216.5 305.5 M 225.5 309.5 L 225.5 305.5 M 233.5 309.5 L 233.5 305.5 M 242.5 309.5 L 242.5 305.5 M 251.5 309.5 L 251.5 305.5 M 260.5 309.5 L 260.5 305.5 M 269.5 309.5 L 269.5 305.5 M 278.5 309.5 L 278.5 305.5 M 287.5 309.5 L 287.5 305.5 M 296.5 309.5 L 296.5 305.5 M 305.5 309.5 L 305.5 305.5 M 314.5 309.5 L 314.5 305.5" stroke-opacity="1" stroke-linejoin="bevel" stroke-miterlimit="10"/><text fill="rgb(68,68,68)" stroke="none" font-family="helvetica" font-size="11px" font-style="normal" font-weight="normal" text-decoration="normal" x="57.83839416503906" y="324" text-anchor="start" dominant-baseline="alphabetic" transform="matrix(1, 0, 0, 1, 0.5, 0.5)" fill-opacity="1">10000</text><text fill="none" stroke="rgb(0,0,0)" font-family="helvetica" font-size="11px" font-style="normal" font-weight="normal" text-decoration="normal" x="57.83839416503906" y="324" text-anchor="start" dominant-baseline="alphabetic" transform="matrix(1, 0, 0, 1, 0.5, 0.5)" stroke-opacity="0" stroke-linejoin="bevel" stroke-miterlimit="10">10000</text><text fill="rgb(68,68,68)" stroke="none" font-family="helvetica" font-size="11px" font-style="normal" font-weight="normal" text-decoration="normal" x="102.3832778930664" y="324" text-anchor="start" dominant-baseline="alphabetic" transform="matrix(1, 0, 0, 1, 0.5, 0.5)" fill-opacity="1">20000</text><text fill="none" stroke="rgb(0,0,0)" font-family="helvetica" font-size="11px" font-style="normal" font-weight="normal" text-decoration="normal" x="102.3832778930664" y="324" text-anchor="start" dominant-baseline="alphabetic" transform="matrix(1, 0, 0, 1, 0.5, 0.5)" stroke-opacity="0" stroke-linejoin="bevel" stroke-miterlimit="10">20000</text><text fill="rgb(68,68,68)" stroke="none" font-family="helvetica" font-size="11px" font-style="normal" font-weight="normal" text-decoration="normal" x="146.92816162109375" y="324" text-anchor="start" dominant-baseline="alphabetic" transform="matrix(1, 0, 0, 1, 0.5, 0.5)" fill-opacity="1">30000</text><text fill="none" stroke="rgb(0,0,0)" font-family="helvetica" font-size="11px" font-style="normal" font-weight="normal" text-decoration="normal" x="146.92816162109375" y="324" text-anchor="start" dominant-baseline="alphabetic" transform="matrix(1, 0, 0, 1, 0.5, 0.5)" stroke-opacity="0" stroke-linejoin="bevel" stroke-miterlimit="10">30000</text><text fill="rgb(68,68,68)" stroke="none" font-family="helvetica" font-size="11px" font-style="normal" font-weight="normal" text-decoration="normal" x="191.47305297851562" y="324" text-anchor="start" dominant-baseline="alphabetic" transform="matrix(1, 0, 0, 1, 0.5, 0.5)" fill-opacity="1">40000</text><text fill="none" stroke="rgb(0,0,0)" font-family="helvetica" font-size="11px" font-style="normal" font-weight="normal" text-decoration="normal" x="191.47305297851562" y="324" text-anchor="start" dominant-baseline="alphabetic" transform="matrix(1, 0, 0, 1, 0.5, 0.5)" stroke-opacity="0" stroke-linejoin="bevel" stroke-miterlimit="10">40000</text><text fill="rgb(68,68,68)" stroke="none" font-family="helvetica" font-size="11px" font-style="normal" font-weight="normal" text-decoration="normal" x="236.0179443359375" y="324" text-anchor="start" dominant-baseline="alphabetic" transform="matrix(1, 0, 0, 1, 0.5, 0.5)" fill-opacity="1">50000</text><text fill="none" stroke="rgb(0,0,0)" font-family="helvetica" font-size="11px" font-style="normal" font-weight="normal" text-decoration="normal" x="236.0179443359375" y="324" text-anchor="start" dominant-baseline="alphabetic" transform="matrix(1, 0, 0, 1, 0.5, 0.5)" stroke-opacity="0" stroke-linejoin="bevel" stroke-miterlimit="10">50000</text><text fill="rgb(68,68,68)" stroke="none" font-family="helvetica" font-size="11px" font-style="normal" font-weight="normal" text-decoration="normal" x="280.5628356933594" y="324" text-anchor="start" dominant-baseline="alphabetic" transform="matrix(1, 0, 0, 1, 0.5, 0.5)" fill-opacity="1">60000</text><text fill="none" stroke="rgb(0,0,0)" font-family="helvetica" font-size="11px" font-style="normal" font-weight="normal" text-decoration="normal" x="280.5628356933594" y="324" text-anchor="start" dominant-baseline="alphabetic" transform="matrix(1, 0, 0, 1, 0.5, 0.5)" stroke-opacity="0" stroke-linejoin="bevel" stroke-miterlimit="10">60000</text><text fill="rgb(68,68,68)" stroke="none" font-family="helvetica" font-size="13px" font-style="italic" font-weight="normal" text-decoration="normal" x="124.352294921875" y="344" text-anchor="start" dominant-baseline="alphabetic" transform="matrix(1, 0, 0, 1, 0.5, 0.5)" fill-opacity="1">Minimum burn time (s)</text><text fill="none" stroke="rgb(0,0,0)" font-family="helvetica" font-size="13px" font-style="italic" font-weight="normal" text-decoration="normal" x="124.352294921875" y="344" text-anchor="start" dominant-baseline="alphabetic" transform="matrix(1, 0, 0, 1, 0.5, 0.5)" stroke-opacity="0" stroke-linejoin="bevel" stroke-miterlimit="10">Minimum burn time (s)</text><path fill="none" stroke="rgb(0,0,0)" paint-order="fill" d="M 58.5 305.5 L 58.5 27.5" stroke-opacity="1" stroke-linejoin="bevel" stroke-miterlimit="10"/><path fill="none" stroke="rgb(0,0,0)" paint-order="fill" d="M 52.5 292.5 L 60.5 292.5 M 52.5 237.5 L 60.5 237.5 M 52.5 183.5 L 60.5 183.5 M 52.5 128.5 L 60.5 128.5 M 52.5 73.5 L 60.5 73.5" stroke-opacity="1" stroke-linejoin="bevel" stroke-miterlimit="10"/><path fill="none" stroke="rgb(0,0,0)" paint-order="fill" d="M 54.5 303.5 L 58.5 303.5 M 54.5 292.5 L 58.5 292.5 M 54.5 281.5 L 58.5 281.5 M 54.5 270.5 L 58.5 270.5 M 54.5 259.5 L 58.5 259.5 M 54.5 248.5 L 58.5 248.5 M 54.5 237.5 L 58.5 237.5 M 54.5 226.5 L 58.5 226.5 M 54.5 216.5 L 58.5 216.5 M 54.5 205.5 L 58.5 205.5 M 54.5 194.5 L 58.5 194.5 M 54.5 183.5 L 58.5 183.5 M 54.5 172.5 L 58.5 172.5 M 54.5 161.5 L 58.5 161.5 M 54.5 150.5 L 58.5 150.5 M 54.5 139.5 L 58.5 139.5 M 54.5 128.5 L 58.5 128.5 M 54.5 117.5 L 58.5 117.5 M 54.5 106.5 L 58.5 106.5 M 54.5 95.5 L 58.5 95.5 M 54.5 84.5 L 58.5 84.5 M 54.5 73.5 L 58.5 73.5 M 54.5 62.5 L 58.5 62.5 M 54.5 51.5 L 58.5 51.5 M 54.5 40.5 L 58.5 40.5 M 54.5 29.5 L 58.5 29.5" stroke-opacity="1" stroke-linejoin="bevel" stroke-miterlimit="10"/><text fill="rgb(68,68,68)" stroke="none" font-family="helvetica" font-size="11px" font-style="normal" font-weight="normal" text-decoration="normal" x="40.88232421875" y="296.3636474609375" text-anchor="start" dominant-baseline="alphabetic" transform="matrix(1, 0, 0, 1, 0.5, 0.5)" fill-opacity="1">0</text><text fill="none" stroke="rgb(0,0,0)" font-family="helvetica" font-size="11px" font-style="normal" font-weight="normal" text-decoration="normal" x="40.88232421875" y="296.3636474609375" text-anchor="start" dominant-baseline="alphabetic" transform="matrix(1, 0, 0, 1, 0.5, 0.5)" stroke-opacity="0" stroke-linejoin="bevel" stroke-miterlimit="10">0</text><text fill="rgb(68,68,68)" stroke="none" font-family="helvetica" font-size="11px" font-style="normal" font-weight="normal" text-decoration="normal" x="25.5908203125" y="241.4699249267578" text-anchor="start" dominant-baseline="alphabetic" transform="matrix(1, 0, 0, 1, 0.5, 0.5)" fill-opacity="1">0.02</text><text fill="none" stroke="rgb(0,0,0)" font-family="helvetica" font-size="11px" font-style="normal" font-weight="normal" text-decoration="normal" x="25.5908203125" y="241.4699249267578" text-anchor="start" dominant-baseline="alphabetic" transform="matrix(1, 0, 0, 1, 0.5, 0.5)" stroke-opacity="0" stroke-linejoin="bevel" stroke-miterlimit="10">0.02</text><text fill="rgb(68,68,68)" stroke="none" font-family="helvetica" font-size="11px" font-style="normal" font-weight="normal" text-decoration="normal" x="25.5908203125" y="186.5762176513672" text-anchor="start" dominant-baseline="alphabetic" transform="matrix(1, 0, 0, 1, 0.5, 0.5)" fill-opacity="1">0.04</text><text fill="none" stroke="rgb(0,0,0)" font-family="helvetica" font-size="11px" font-style="normal" font-weight="normal" text-decoration="normal" x="25.5908203125" y="186.5762176513672" text-anchor="start" dominant-baseline="alphabetic" transform="matrix(1, 0, 0, 1, 0.5, 0.5)" stroke-opacity="0" stroke-linejoin="bevel" stroke-miterlimit="10">0.04</text><text fill="rgb(68,68,68)" stroke="none" font-family="helvetica" font-size="11px" font-style="normal" font-weight="normal" text-decoration="normal" x="25.5908203125" y="131.6825180053711" text-anchor="start" dominant-baseline="alphabetic" transform="matrix(1, 0, 0, 1, 0.5, 0.5)" fill-opacity="1">0.06</text><text fill="none" stroke="rgb(0,0,0)" font-family="helvetica" font-size="11px" font-style="normal" font-weight="normal" text-decoration="normal" x="25.5908203125" y="131.6825180053711" text-anchor="start" dominant-baseline="alphabetic" transform="matrix(1, 0, 0, 1, 0.5, 0.5)" stroke-opacity="0" stroke-linejoin="bevel" stroke-miterlimit="10">0.06</text><text fill="rgb(68,68,68)" stroke="none" font-family="helvetica" font-size="11px" font-style="normal" font-weight="normal" text-decoration="normal" x="25.5908203125" y="76.78881072998047" text-anchor="start" dominant-baseline="alphabetic" transform="matrix(1, 0, 0, 1, 0.5, 0.5)" fill-opacity="1">0.08</text><text fill="none" stroke="rgb(0,0,0)" font-family="helvetica" font-size="11px" font-style="normal" font-weight="normal" text-decoration="normal" x="25.5908203125" y="76.78881072998047" text-anchor="start" dominant-baseline="alphabetic" transform="matrix(1, 0, 0, 1, 0.5, 0.5)" stroke-opacity="0" stroke-linejoin="bevel" stroke-miterlimit="10">0.08</text><text fill="rgb(68,68,68)" stroke="none" font-family="helvetica" font-size="13px" font-style="italic" font-weight="normal" text-decoration="normal" x="-47.4345703125" y="163" text-anchor="start" dominant-baseline="alphabetic" transform="matrix(6.123233995736766e-17, -1, 1, 6.123233995736766e-17, -147.9091796875, 184.0908203125)" fill-opacity="1">Normalised Probability</text><text fill="none" stroke="rgb(0,0,0)" font-family="helvetica" font-size="13px" font-style="italic" font-weight="normal" text-decoration="normal" x="-47.4345703125" y="163" text-anchor="start" dominant-baseline="alphabetic" transform="matrix(6.123233995736766e-17, -1, 1, 6.123233995736766e-17, -147.9091796875, 184.0908203125)" stroke-opacity="0" stroke-linejoin="bevel" stroke-miterlimit="10">Normalised Probability</text><path fill="rgb(255,249,186)" stroke="rgb(255,0,0)" paint-order="fill" d="M 107.22916767367953 40.136363636363654 L 107.22916767367953 40.136363636363654 L 107.22916767367953 292.8636363636364 L 107.22916767367953 292.8636363636364 L 107.22916767367953 40.136363636363654 Z" fill-opacity="0.4" clip-path="url(#NphLQAfTfAzm)" stroke-opacity="1" stroke-linejoin="bevel" stroke-miterlimit="10" stroke-width="2" stroke-dasharray="6"/><path fill="rgb(255,249,186)" stroke="rgb(50,205,50)" paint-order="fill" d="M 72.37677649565866 40.136363636363654 L 72.37677649565866 40.136363636363654 L 72.37677649565866 292.8636363636364 L 72.37677649565866 292.8636363636364 L 72.37677649565866 40.136363636363654 Z" fill-opacity="0.4" clip-path="url(#ZtOpAJEiWqUl)" stroke-opacity="1" stroke-linejoin="bevel" stroke-miterlimit="10" stroke-width="2" stroke-dasharray="6"/><text fill="rgb(68,68,68)" stroke="none" font-family="helvetica" font-size="13px" font-style="normal" font-weight="bold" text-decoration="normal" x="58" y="19" text-anchor="start" dominant-baseline="alphabetic" transform="matrix(1, 0, 0, 1, 0.5, 0.5)" fill-opacity="1">Convergance Probability</text><text fill="none" stroke="rgb(0,0,0)" font-family="helvetica" font-size="13px" font-style="normal" font-weight="bold" text-decoration="normal" x="58" y="19" text-anchor="start" dominant-baseline="alphabetic" transform="matrix(1, 0, 0, 1, 0.5, 0.5)" stroke-opacity="0" stroke-miterlimit="10" stroke-dasharray="">Convergance Probability</text></svg>