<svg version="1.1" xmlns="http://www.w3.org/2000/svg" width="350" height="350"><defs><clipPath id="ZrrncdtxSGml"><path fill="none" stroke="none" d="M 58.5 27.5 L 320.5 27.5 L 320.5 305.5 L 58.5 305.5 L 58.5 27.5 Z"/></clipPath><clipPath id="hqxxoribmWge"><path fill="none" stroke="none" d="M 58.5 27.5 L 320.5 27.5 L 320.5 305.5 L 58.5 305.5 L 58.5 27.5 Z"/></clipPath><clipPath id="wSoOwwfKhamt"><path fill="none" stroke="none" d="M 58.5 27.5 L 320.5 27.5 L 320.5 305.5 L 58.5 305.5 L 58.5 27.5 Z"/></clipPath><pattern id="cvgxhropMqfD" width="3" height="3" patternUnits="userSpaceOnUse"><path fill="rgb(0,0,0)" stroke="none" paint-order="stroke" d="M 2.75 2 A 0.75 0.75 0 0 0 1.25 2 A 0.75 0.75 0 0 0 2.75 2" fill-opacity="0.14901960784313725"/></pattern><clipPath id="yUnxZSZkzlyN"><path fill="none" stroke="none" d="M 58.5 27.5 L 320.5 27.5 L 320.5 305.5 L 58.5 305.5 L 58.5 27.5 Z"/></clipPath><clipPath id="cirFqnNLSbqE"><path fill="none" stroke="none" d="M 58.5 27.5 L 320.5 27.5 L 320.5 305.5 L 58.5 305.5 L 58.5 27.5 Z"/></clipPath><clipPath id="TQMNmfndtQQf"><path fill="none" stroke="none" d="M 58.5 27.5 L 320.5 27.5 L 320.5 305.5 L 58.5 305.5 L 58.5 27.5 Z"/></clipPath><clipPath id="XLtAtKNMcwrl"><path fill="none" stroke="none" d="M 58.5 27.5 L 320.5 27.5 L 320.5 305.5 L 58.5 305.5 L 58.5 27.5 Z"/></clipPath></defs><path fill="rgb(255,255,255)" stroke="none" paint-order="stroke" d="M 0.5 0.5 L 350.5 0.5 L 350.5 350.5 L 0.5 350.5 L 0.5 0.5 Z" fill-opacity="1"/><rect fill="#FFFFFF" stroke="none" x="58" y="27" width="262" height="278" transform="matrix(1, 0, 0, 1, 0.5, 0.5)"/><path fill="rgb(255,255,255)" stroke="none" paint-order="stroke" d="M 58.5 27.5 L 320.5 27.5 L 320.5 305.5 L 58.5 305.5 L 58.5 27.5 Z" fill-opacity="1"/><path fill="none" stroke="rgb(229,229,229)" paint-order="fill" d="M 58.5 27.5 L 320.5 27.5 L 320.5 305.5 L 58.5 305.5 L 58.5 27.5 Z" stroke-opacity="1" stroke-linejoin="bevel" stroke-miterlimit="10"/><path fill="none" stroke="rgb(229,229,229)" paint-order="fill" d="M 71.5 305.5 L 71.5 27.5 M 145.5 305.5 L 145.5 27.5 M 219.5 305.5 L 219.5 27.5 M 292.5 305.5 L 292.5 27.5" stroke-opacity="1" stroke-linejoin="bevel" stroke-miterlimit="10" clip-path="url(#ZrrncdtxSGml)"/><path fill="none" stroke="rgb(229,229,229)" paint-order="fill" d="M 58.5 292.5 L 320.5 292.5 M 58.5 219.5 L 320.5 219.5 M 58.5 145.5 L 320.5 145.5 M 58.5 72.5 L 320.5 72.5" stroke-opacity="1" stroke-linejoin="bevel" stroke-miterlimit="10" clip-path="url(#hqxxoribmWge)"/><path fill="rgb(128,128,128)" stroke="none" paint-order="stroke" d="M 77.14936828613281 40.13636016845703 L 291.15057373046875 40.13636016845703 L 291.15057373046875 292.8636474609375 L 77.14936828613281 292.8636474609375 L 77.14936828613281 40.13636016845703 Z" fill-opacity="0.10196078431372549" clip-path="url(#wSoOwwfKhamt)"/><path fill="url(#cvgxhropMqfD)" stroke="rgb(0,0,0)" paint-order="fill" d="M 77.14936828613281 40.13636016845703 L 291.15057373046875 40.13636016845703 L 291.15057373046875 292.8636474609375 L 77.14936828613281 292.8636474609375 L 77.14936828613281 40.13636016845703 Z" clip-path="url(#wSoOwwfKhamt)" stroke-opacity="0.2" stroke-linejoin="bevel" stroke-miterlimit="10"/><path fill="rgb(100,149,237)" stroke="rgb(31,119,180)" paint-order="fill" d="M 77.14936828613281 40.1363639831543 L 148.4831085205078 40.1363639831543 L 148.4831085205078 292.8636474609375 L 77.14936828613281 292.8636474609375 L 77.14936828613281 40.1363639831543 Z" fill-opacity="1" clip-path="url(#yUnxZSZkzlyN)" stroke-opacity="1" stroke-linejoin="bevel" stroke-miterlimit="10"/><path fill="rgb(100,149,237)" stroke="rgb(31,119,180)" paint-order="fill" d="M 148.48309326171875 281.9798278808594 L 219.81683349609375 281.9798278808594 L 219.81683349609375 292.8636474609375 L 148.48309326171875 292.8636474609375 L 148.48309326171875 281.9798278808594 Z" fill-opacity="1" clip-path="url(#yUnxZSZkzlyN)" stroke-opacity="1" stroke-linejoin="bevel" stroke-miterlimit="10"/><path fill="rgb(100,149,237)" stroke="rgb(31,119,180)" paint-order="fill" d="M 219.81683349609375 292.8636474609375 L 291.15057373046875 292.8636474609375 L 291.15057373046875 292.8636474609375 L 219.81683349609375 292.8636474609375 L 219.81683349609375 292.8636474609375 Z" fill-opacity="1" clip-path="url(#yUnxZSZkzlyN)" stroke-opacity="1" stroke-linejoin="bevel" stroke-miterlimit="10"/><path fill="rgb(100,149,237)" stroke="rgb(31,119,180)" paint-order="fill" d="M 291.15057373046875 292.8636474609375 L 320.5 292.8636474609375 L 320.5 292.8636474609375 L 291.15057373046875 292.8636474609375 L 291.15057373046875 292.8636474609375 Z" fill-opacity="1" clip-path="url(#yUnxZSZkzlyN)" stroke-opacity="1" stroke-linejoin="bevel" stroke-miterlimit="10"/><path fill="none" stroke="rgb(0,0,0)" paint-order="fill" d="M 58.5 305.5 L 320.5 305.5" stroke-opacity="1" stroke-linejoin="bevel" stroke-miterlimit="10"/><path fill="none" stroke="rgb(0,0,0)" paint-order="fill" d="M 71.5 311.5 L 71.5 303.5 M 145.5 311.5 L 145.5 303.5 M 219.5 311.5 L 219.5 303.5 M 292.5 311.5 L 292.5 303.5" stroke-opacity="1" stroke-linejoin="bevel" stroke-miterlimit="10"/><path fill="none" stroke="rgb(0,0,0)" paint-order="fill" d="M 71.5 309.5 L 71.5 305.5 M 86.5 309.5 L 86.5 305.5 M 101.5 309.5 L 101.5 305.5 M 116.5 309.5 L 116.5 305.5 M 130.5 309.5 L 130.5 305.5 M 145.5 309.5 L 145.5 305.5 M 160.5 309.5 L 160.5 305.5 M 174.5 309.5 L 174.5 305.5 M 189.5 309.5 L 189.5 305.5 M 204.5 309.5 L 204.5 305.5 M 219.5 309.5 L 219.5 305.5 M 233.5 309.5 L 233.5 305.5 M 248.5 309.5 L 248.5 305.5 M 263.5 309.5 L 263.5 305.5 M 277.5 309.5 L 277.5 305.5 M 292.5 309.5 L 292.5 305.5 M 307.5 309.5 L 307.5 305.5" stroke-opacity="1" stroke-linejoin="bevel" stroke-miterlimit="10"/><text fill="rgb(68,68,68)" stroke="none" font-family="helvetica" font-size="11px" font-style="normal" font-weight="normal" text-decoration="normal" x="63.812782287597656" y="324" text-anchor="start" dominant-baseline="alphabetic" transform="matrix(1, 0, 0, 1, 0.5, 0.5)" fill-opacity="1">2.5</text><text fill="none" stroke="rgb(0,0,0)" font-family="helvetica" font-size="11px" font-style="normal" font-weight="normal" text-decoration="normal" x="63.812782287597656" y="324" text-anchor="start" dominant-baseline="alphabetic" transform="matrix(1, 0, 0, 1, 0.5, 0.5)" stroke-opacity="0" stroke-linejoin="bevel" stroke-miterlimit="10">2.5</text><text fill="rgb(68,68,68)" stroke="none" font-family="helvetica" font-size="11px" font-style="normal" font-weight="normal" text-decoration="normal" x="141.95901489257812" y="324" text-anchor="start" dominant-baseline="alphabetic" transform="matrix(1, 0, 0, 1, 0.5, 0.5)" fill-opacity="1">3</text><text fill="none" stroke="rgb(0,0,0)" font-family="helvetica" font-size="11px" font-style="normal" font-weight="normal" text-decoration="normal" x="141.95901489257812" y="324" text-anchor="start" dominant-baseline="alphabetic" transform="matrix(1, 0, 0, 1, 0.5, 0.5)" stroke-opacity="0" stroke-linejoin="bevel" stroke-miterlimit="10">3</text><text fill="rgb(68,68,68)" stroke="none" font-family="helvetica" font-size="11px" font-style="normal" font-weight="normal" text-decoration="normal" x="210.93141174316406" y="324" text-anchor="start" dominant-baseline="alphabetic" transform="matrix(1, 0, 0, 1, 0.5, 0.5)" fill-opacity="1">3.5</text><text fill="none" stroke="rgb(0,0,0)" font-family="helvetica" font-size="11px" font-style="normal" font-weight="normal" text-decoration="normal" x="210.93141174316406" y="324" text-anchor="start" dominant-baseline="alphabetic" transform="matrix(1, 0, 0, 1, 0.5, 0.5)" stroke-opacity="0" stroke-linejoin="bevel" stroke-miterlimit="10">3.5</text><text fill="rgb(68,68,68)" stroke="none" font-family="helvetica" font-size="11px" font-style="normal" font-weight="normal" text-decoration="normal" x="289.07763671875" y="324" text-anchor="start" dominant-baseline="alphabetic" transform="matrix(1, 0, 0, 1, 0.5, 0.5)" fill-opacity="1">4</text><text fill="none" stroke="rgb(0,0,0)" font-family="helvetica" font-size="11px" font-style="normal" font-weight="normal" text-decoration="normal" x="289.07763671875" y="324" text-anchor="start" dominant-baseline="alphabetic" transform="matrix(1, 0, 0, 1, 0.5, 0.5)" stroke-opacity="0" stroke-linejoin="bevel" stroke-miterlimit="10">4</text><text fill="rgb(68,68,68)" stroke="none" font-family="helvetica" font-size="13px" font-style="italic" font-weight="normal" text-decoration="normal" x="154.67822265625" y="344" text-anchor="start" dominant-baseline="alphabetic" transform="matrix(1, 0, 0, 1, 0.5, 0.5)" fill-opacity="1">Aspect ratio</text><text fill="none" stroke="rgb(0,0,0)" font-family="helvetica" font-size="13px" font-style="italic" font-weight="normal" text-decoration="normal" x="154.67822265625" y="344" text-anchor="start" dominant-baseline="alphabetic" transform="matrix(1, 0, 0, 1, 0.5, 0.5)" stroke-opacity="0" stroke-linejoin="bevel" stroke-miterlimit="10">Aspect ratio</text><path fill="none" stroke="rgb(0,0,0)" paint-order="fill" d="M 58.5 305.5 L 58.5 27.5" stroke-opacity="1" stroke-linejoin="bevel" stroke-miterlimit="10"/><path fill="none" stroke="rgb(0,0,0)" paint-order="fill" d="M 52.5 292.5 L 60.5 292.5 M 52.5 219.5 L 60.5 219.5 M 52.5 145.5 L 60.5 145.5 M 52.5 72.5 L 60.5 72.5" stroke-opacity="1" stroke-linejoin="bevel" stroke-miterlimit="10"/><path fill="none" stroke="rgb(0,0,0)" paint-order="fill" d="M 54.5 292.5 L 58.5 292.5 M 54.5 278.5 L 58.5 278.5 M 54.5 263.5 L 58.5 263.5 M 54.5 248.5 L 58.5 248.5 M 54.5 234.5 L 58.5 234.5 M 54.5 219.5 L 58.5 219.5 M 54.5 204.5 L 58.5 204.5 M 54.5 190.5 L 58.5 190.5 M 54.5 175.5 L 58.5 175.5 M 54.5 160.5 L 58.5 160.5 M 54.5 145.5 L 58.5 145.5 M 54.5 131.5 L 58.5 131.5 M 54.5 116.5 L 58.5 116.5 M 54.5 101.5 L 58.5 101.5 M 54.5 87.5 L 58.5 87.5 M 54.5 72.5 L 58.5 72.5 M 54.5 57.5 L 58.5 57.5 M 54.5 43.5 L 58.5 43.5 M 54.5 28.5 L 58.5 28.5" stroke-opacity="1" stroke-linejoin="bevel" stroke-miterlimit="10"/><text fill="rgb(68,68,68)" stroke="none" font-family="helvetica" font-size="11px" font-style="normal" font-weight="normal" text-decoration="normal" x="40.88232421875" y="296.3636474609375" text-anchor="start" dominant-baseline="alphabetic" transform="matrix(1, 0, 0, 1, 0.5, 0.5)" fill-opacity="1">0</text><text fill="none" stroke="rgb(0,0,0)" font-family="helvetica" font-size="11px" font-style="normal" font-weight="normal" text-decoration="normal" x="40.88232421875" y="296.3636474609375" text-anchor="start" dominant-baseline="alphabetic" transform="matrix(1, 0, 0, 1, 0.5, 0.5)" stroke-opacity="0" stroke-linejoin="bevel" stroke-miterlimit="10">0</text><text fill="rgb(68,68,68)" stroke="none" font-family="helvetica" font-size="11px" font-style="normal" font-weight="normal" text-decoration="normal" x="25.5908203125" y="222.8922119140625" text-anchor="start" dominant-baseline="alphabetic" transform="matrix(1, 0, 0, 1, 0.5, 0.5)" fill-opacity="1">0.05</text><text fill="none" stroke="rgb(0,0,0)" font-family="helvetica" font-size="11px" font-style="normal" font-weight="normal" text-decoration="normal" x="25.5908203125" y="222.8922119140625" text-anchor="start" dominant-baseline="alphabetic" transform="matrix(1, 0, 0, 1, 0.5, 0.5)" stroke-opacity="0" stroke-linejoin="bevel" stroke-miterlimit="10">0.05</text><text fill="rgb(68,68,68)" stroke="none" font-family="helvetica" font-size="11px" font-style="normal" font-weight="normal" text-decoration="normal" x="31.70849609375" y="149.4207763671875" text-anchor="start" dominant-baseline="alphabetic" transform="matrix(1, 0, 0, 1, 0.5, 0.5)" fill-opacity="1">0.1</text><text fill="none" stroke="rgb(0,0,0)" font-family="helvetica" font-size="11px" font-style="normal" font-weight="normal" text-decoration="normal" x="31.70849609375" y="149.4207763671875" text-anchor="start" dominant-baseline="alphabetic" transform="matrix(1, 0, 0, 1, 0.5, 0.5)" stroke-opacity="0" stroke-linejoin="bevel" stroke-miterlimit="10">0.1</text><text fill="rgb(68,68,68)" stroke="none" font-family="helvetica" font-size="11px" font-style="normal" font-weight="normal" text-decoration="normal" x="25.5908203125" y="75.94934844970703" text-anchor="start" dominant-baseline="alphabetic" transform="matrix(1, 0, 0, 1, 0.5, 0.5)" fill-opacity="1">0.15</text><text fill="none" stroke="rgb(0,0,0)" font-family="helvetica" font-size="11px" font-style="normal" font-weight="normal" text-decoration="normal" x="25.5908203125" y="75.94934844970703" text-anchor="start" dominant-baseline="alphabetic" transform="matrix(1, 0, 0, 1, 0.5, 0.5)" stroke-opacity="0" stroke-linejoin="bevel" stroke-miterlimit="10">0.15</text><text fill="rgb(68,68,68)" stroke="none" font-family="helvetica" font-size="13px" font-style="italic" font-weight="normal" text-decoration="normal" x="-47.4345703125" y="163" text-anchor="start" dominant-baseline="alphabetic" transform="matrix(6.123233995736766e-17, -1, 1, 6.123233995736766e-17, -147.9091796875, 184.0908203125)" fill-opacity="1">Normalised Probability</text><text fill="none" stroke="rgb(0,0,0)" font-family="helvetica" font-size="13px" font-style="italic" font-weight="normal" text-decoration="normal" x="-47.4345703125" y="163" text-anchor="start" dominant-baseline="alphabetic" transform="matrix(6.123233995736766e-17, -1, 1, 6.123233995736766e-17, -147.9091796875, 184.0908203125)" stroke-opacity="0" stroke-linejoin="bevel" stroke-miterlimit="10">Normalised Probability</text><path fill="rgb(255,249,186)" stroke="rgb(255,0,0)" paint-order="fill" d="M 192.82354053252226 40.136363636363654 L 192.82354053252226 40.136363636363654 L 192.82354053252226 292.8636363636364 L 192.82354053252226 292.8636363636364 L 192.82354053252226 40.136363636363654 Z" fill-opacity="0.4" clip-path="url(#cirFqnNLSbqE)" stroke-opacity="1" stroke-linejoin="bevel" stroke-miterlimit="10" stroke-width="2" stroke-dasharray="6"/><path fill="rgb(255,249,186)" stroke="rgb(50,205,50)" paint-order="fill" d="M 112.81623629721753 40.136363636363654 L 112.81623629721753 40.136363636363654 L 112.81623629721753 292.8636363636364 L 112.81623629721753 292.8636363636364 L 112.81623629721753 40.136363636363654 Z" fill-opacity="0.4" clip-path="url(#TQMNmfndtQQf)" stroke-opacity="1" stroke-linejoin="bevel" stroke-miterlimit="10" stroke-width="2" stroke-dasharray="6"/><text fill="rgb(68,68,68)" stroke="none" font-family="helvetica" font-size="13px" font-style="normal" font-weight="bold" text-decoration="normal" x="58" y="19" text-anchor="start" dominant-baseline="alphabetic" transform="matrix(1, 0, 0, 1, 0.5, 0.5)" fill-opacity="1">Convergance Probability</text><text fill="none" stroke="rgb(0,0,0)" font-family="helvetica" font-size="13px" font-style="normal" font-weight="bold" text-decoration="normal" x="58" y="19" text-anchor="start" dominant-baseline="alphabetic" transform="matrix(1, 0, 0, 1, 0.5, 0.5)" stroke-opacity="0" stroke-miterlimit="10" stroke-dasharray="">Convergance Probability</text></svg>