<svg version="1.1" xmlns="http://www.w3.org/2000/svg" width="275" height="275"><defs><clipPath id="gWTbVbXtnvXB"><path fill="none" stroke="none" d="M 52.5 27.5 L 245.5 27.5 L 245.5 230.5 L 52.5 230.5 L 52.5 27.5 Z"/></clipPath><clipPath id="QZWzJJRfLPBP"><path fill="none" stroke="none" d="M 52.5 27.5 L 245.5 27.5 L 245.5 230.5 L 52.5 230.5 L 52.5 27.5 Z"/></clipPath><clipPath id="KqDGFLKnwAQr"><path fill="none" stroke="none" d="M 52.5 27.5 L 245.5 27.5 L 245.5 230.5 L 52.5 230.5 L 52.5 27.5 Z"/></clipPath><clipPath id="huTrRsvDvaHs"><path fill="none" stroke="none" d="M 52.5 27.5 L 245.5 27.5 L 245.5 230.5 L 52.5 230.5 L 52.5 27.5 Z"/></clipPath><pattern id="oyfHSwmKNWyF" width="3" height="3" patternUnits="userSpaceOnUse"><path fill="rgb(0,0,0)" stroke="none" paint-order="stroke" d="M 2.75 2 A 0.75 0.75 0 0 0 1.25 2 A 0.75 0.75 0 0 0 2.75 2" fill-opacity="0.14901960784313725"/></pattern><clipPath id="iODNmsNiCosS"><path fill="none" stroke="none" d="M 52.5 27.5 L 245.5 27.5 L 245.5 230.5 L 52.5 230.5 L 52.5 27.5 Z"/></clipPath><clipPath id="JfLMTgaiofxH"><path fill="none" stroke="none" d="M 52.5 27.5 L 245.5 27.5 L 245.5 230.5 L 52.5 230.5 L 52.5 27.5 Z"/></clipPath><clipPath id="KZqKnNnBbRpL"><path fill="none" stroke="none" d="M 52.5 27.5 L 245.5 27.5 L 245.5 230.5 L 52.5 230.5 L 52.5 27.5 Z"/></clipPath><clipPath id="wbGCAmyGSroo"><path fill="none" stroke="none" d="M 52.5 27.5 L 245.5 27.5 L 245.5 230.5 L 52.5 230.5 L 52.5 27.5 Z"/></clipPath></defs><path fill="rgb(255,255,255)" stroke="none" paint-order="stroke" d="M 0.5 0.5 L 275.5 0.5 L 275.5 275.5 L 0.5 275.5 L 0.5 0.5 Z" fill-opacity="1"/><rect fill="#FFFFFF" stroke="none" x="52" y="27" width="193" height="203" transform="matrix(1, 0, 0, 1, 0.5, 0.5)"/><path fill="rgb(255,255,255)" stroke="none" paint-order="stroke" d="M 52.5 27.5 L 245.5 27.5 L 245.5 230.5 L 52.5 230.5 L 52.5 27.5 Z" fill-opacity="1"/><path fill="none" stroke="rgb(229,229,229)" paint-order="fill" d="M 52.5 27.5 L 245.5 27.5 L 245.5 230.5 L 52.5 230.5 L 52.5 27.5 Z" stroke-opacity="1" stroke-linejoin="bevel" stroke-miterlimit="10"/><path fill="none" stroke="rgb(229,229,229)" paint-order="fill" d="M 80.5 230.5 L 80.5 27.5 M 124.5 230.5 L 124.5 27.5 M 167.5 230.5 L 167.5 27.5 M 211.5 230.5 L 211.5 27.5" stroke-opacity="1" stroke-linejoin="bevel" stroke-miterlimit="10" clip-path="url(#gWTbVbXtnvXB)"/><path fill="none" stroke="rgb(229,229,229)" paint-order="fill" d="M 52.5 221.5 L 245.5 221.5 M 52.5 174.5 L 245.5 174.5 M 52.5 128.5 L 245.5 128.5 M 52.5 81.5 L 245.5 81.5 M 52.5 34.5 L 245.5 34.5" stroke-opacity="1" stroke-linejoin="bevel" stroke-miterlimit="10" clip-path="url(#QZWzJJRfLPBP)"/><path fill="none" stroke="rgb(0,0,0)" paint-order="fill" d="M 102.44117736816406 78.34823608398438 L 102.44117736816406 82.86954498291016" stroke-opacity="1" stroke-linejoin="bevel" stroke-miterlimit="10" clip-path="url(#KqDGFLKnwAQr)"/><path fill="none" stroke="rgb(0,0,0)" paint-order="fill" d="M 145.751708984375 35.24696731567383 L 145.751708984375 38.20758056640625" stroke-opacity="1" stroke-linejoin="bevel" stroke-miterlimit="10" clip-path="url(#KqDGFLKnwAQr)"/><path fill="none" stroke="rgb(0,0,0)" paint-order="fill" d="M 189.06224060058594 215.7626953125 L 189.06224060058594 217.45474243164062" stroke-opacity="1" stroke-linejoin="bevel" stroke-miterlimit="10" clip-path="url(#KqDGFLKnwAQr)"/><path fill="none" stroke="rgb(0,0,0)" paint-order="fill" d="M 97.44117736816406 78.34823608398438 L 107.44117736816406 78.34823608398438" stroke-opacity="1" stroke-linejoin="bevel" stroke-miterlimit="10" clip-path="url(#KqDGFLKnwAQr)"/><path fill="none" stroke="rgb(0,0,0)" paint-order="fill" d="M 140.751708984375 35.24696731567383 L 150.751708984375 35.24696731567383" stroke-opacity="1" stroke-linejoin="bevel" stroke-miterlimit="10" clip-path="url(#KqDGFLKnwAQr)"/><path fill="none" stroke="rgb(0,0,0)" paint-order="fill" d="M 184.06224060058594 215.7626953125 L 194.06224060058594 215.7626953125" stroke-opacity="1" stroke-linejoin="bevel" stroke-miterlimit="10" clip-path="url(#KqDGFLKnwAQr)"/><path fill="none" stroke="rgb(0,0,0)" paint-order="fill" d="M 107.44117736816406 82.86954498291016 L 97.44117736816406 82.86954498291016" stroke-opacity="1" stroke-linejoin="bevel" stroke-miterlimit="10" clip-path="url(#KqDGFLKnwAQr)"/><path fill="none" stroke="rgb(0,0,0)" paint-order="fill" d="M 150.751708984375 38.20758056640625 L 140.751708984375 38.20758056640625" stroke-opacity="1" stroke-linejoin="bevel" stroke-miterlimit="10" clip-path="url(#KqDGFLKnwAQr)"/><path fill="none" stroke="rgb(0,0,0)" paint-order="fill" d="M 194.06224060058594 217.45474243164062 L 184.06224060058594 217.45474243164062" stroke-opacity="1" stroke-linejoin="bevel" stroke-miterlimit="10" clip-path="url(#KqDGFLKnwAQr)"/><path fill="rgb(128,128,128)" stroke="none" paint-order="stroke" d="M 80.78590393066406 36.727272033691406 L 210.71751403808594 36.727272033691406 L 210.71751403808594 221.27273559570312 L 80.78590393066406 221.27273559570312 L 80.78590393066406 36.727272033691406 Z" fill-opacity="0.10196078431372549" clip-path="url(#huTrRsvDvaHs)"/><path fill="url(#oyfHSwmKNWyF)" stroke="rgb(0,0,0)" paint-order="fill" d="M 80.78590393066406 36.727272033691406 L 210.71751403808594 36.727272033691406 L 210.71751403808594 221.27273559570312 L 80.78590393066406 221.27273559570312 L 80.78590393066406 36.727272033691406 Z" clip-path="url(#huTrRsvDvaHs)" stroke-opacity="0.2" stroke-linejoin="bevel" stroke-miterlimit="10"/><path fill="rgb(100,149,237)" stroke="rgb(31,119,180)" paint-order="fill" d="M 80.7859115600586 80.60888671875 L 124.09644317626953 80.60888671875 L 124.09644317626953 221.27272033691406 L 80.7859115600586 221.27272033691406 L 80.7859115600586 80.60888671875 Z" fill-opacity="0.5019607843137255" clip-path="url(#iODNmsNiCosS)" stroke-opacity="0.5019607843137255" stroke-linejoin="bevel" stroke-miterlimit="10"/><path fill="rgb(100,149,237)" stroke="rgb(31,119,180)" paint-order="fill" d="M 124.09644317626953 36.727272033691406 L 167.406982421875 36.727272033691406 L 167.406982421875 221.27272033691406 L 124.09644317626953 221.27272033691406 L 124.09644317626953 36.727272033691406 Z" fill-opacity="0.5019607843137255" clip-path="url(#iODNmsNiCosS)" stroke-opacity="0.5019607843137255" stroke-linejoin="bevel" stroke-miterlimit="10"/><path fill="rgb(100,149,237)" stroke="rgb(31,119,180)" paint-order="fill" d="M 167.40696716308594 216.6087188720703 L 210.71751403808594 216.6087188720703 L 210.71751403808594 221.27272033691406 L 167.40696716308594 221.27272033691406 L 167.40696716308594 216.6087188720703 Z" fill-opacity="0.5019607843137255" clip-path="url(#iODNmsNiCosS)" stroke-opacity="0.5019607843137255" stroke-linejoin="bevel" stroke-miterlimit="10"/><path fill="none" stroke="rgb(0,0,0)" paint-order="fill" d="M 52.5 230.5 L 245.5 230.5" stroke-opacity="1" stroke-linejoin="bevel" stroke-miterlimit="10"/><path fill="none" stroke="rgb(0,0,0)" paint-order="fill" d="M 80.5 236.5 L 80.5 228.5 M 124.5 236.5 L 124.5 228.5 M 167.5 236.5 L 167.5 228.5 M 211.5 236.5 L 211.5 228.5" stroke-opacity="1" stroke-linejoin="bevel" stroke-miterlimit="10"/><path fill="none" stroke="rgb(0,0,0)" paint-order="fill" d="M 71.5 234.5 L 71.5 230.5 M 63.5 234.5 L 63.5 230.5 M 54.5 234.5 L 54.5 230.5 M 80.5 234.5 L 80.5 230.5 M 89.5 234.5 L 89.5 230.5 M 98.5 234.5 L 98.5 230.5 M 106.5 234.5 L 106.5 230.5 M 115.5 234.5 L 115.5 230.5 M 124.5 234.5 L 124.5 230.5 M 132.5 234.5 L 132.5 230.5 M 141.5 234.5 L 141.5 230.5 M 150.5 234.5 L 150.5 230.5 M 158.5 234.5 L 158.5 230.5 M 167.5 234.5 L 167.5 230.5 M 176.5 234.5 L 176.5 230.5 M 185.5 234.5 L 185.5 230.5 M 193.5 234.5 L 193.5 230.5 M 202.5 234.5 L 202.5 230.5 M 211.5 234.5 L 211.5 230.5 M 219.5 234.5 L 219.5 230.5 M 228.5 234.5 L 228.5 230.5 M 237.5 234.5 L 237.5 230.5" stroke-opacity="1" stroke-linejoin="bevel" stroke-miterlimit="10"/><text fill="rgb(68,68,68)" stroke="none" font-family="helvetica" font-size="11px" font-style="normal" font-weight="normal" text-decoration="normal" x="72.4713363647461" y="249" text-anchor="start" dominant-baseline="alphabetic" transform="matrix(1, 0, 0, 1, 0.5, 0.5)" fill-opacity="1">2.6</text><text fill="none" stroke="rgb(0,0,0)" font-family="helvetica" font-size="11px" font-style="normal" font-weight="normal" text-decoration="normal" x="72.4713363647461" y="249" text-anchor="start" dominant-baseline="alphabetic" transform="matrix(1, 0, 0, 1, 0.5, 0.5)" stroke-opacity="0" stroke-linejoin="bevel" stroke-miterlimit="10">2.6</text><text fill="rgb(68,68,68)" stroke="none" font-family="helvetica" font-size="11px" font-style="normal" font-weight="normal" text-decoration="normal" x="115.97512817382812" y="249" text-anchor="start" dominant-baseline="alphabetic" transform="matrix(1, 0, 0, 1, 0.5, 0.5)" fill-opacity="1">2.8</text><text fill="none" stroke="rgb(0,0,0)" font-family="helvetica" font-size="11px" font-style="normal" font-weight="normal" text-decoration="normal" x="115.97512817382812" y="249" text-anchor="start" dominant-baseline="alphabetic" transform="matrix(1, 0, 0, 1, 0.5, 0.5)" stroke-opacity="0" stroke-linejoin="bevel" stroke-miterlimit="10">2.8</text><text fill="rgb(68,68,68)" stroke="none" font-family="helvetica" font-size="11px" font-style="normal" font-weight="normal" text-decoration="normal" x="164.0658416748047" y="249" text-anchor="start" dominant-baseline="alphabetic" transform="matrix(1, 0, 0, 1, 0.5, 0.5)" fill-opacity="1">3</text><text fill="none" stroke="rgb(0,0,0)" font-family="helvetica" font-size="11px" font-style="normal" font-weight="normal" text-decoration="normal" x="164.0658416748047" y="249" text-anchor="start" dominant-baseline="alphabetic" transform="matrix(1, 0, 0, 1, 0.5, 0.5)" stroke-opacity="0" stroke-linejoin="bevel" stroke-miterlimit="10">3</text><text fill="rgb(68,68,68)" stroke="none" font-family="helvetica" font-size="11px" font-style="normal" font-weight="normal" text-decoration="normal" x="202.9827117919922" y="249" text-anchor="start" dominant-baseline="alphabetic" transform="matrix(1, 0, 0, 1, 0.5, 0.5)" fill-opacity="1">3.2</text><text fill="none" stroke="rgb(0,0,0)" font-family="helvetica" font-size="11px" font-style="normal" font-weight="normal" text-decoration="normal" x="202.9827117919922" y="249" text-anchor="start" dominant-baseline="alphabetic" transform="matrix(1, 0, 0, 1, 0.5, 0.5)" stroke-opacity="0" stroke-linejoin="bevel" stroke-miterlimit="10">3.2</text><text fill="rgb(68,68,68)" stroke="none" font-family="helvetica" font-size="13px" font-style="italic" font-weight="normal" text-decoration="normal" x="114.17822265625" y="269" text-anchor="start" dominant-baseline="alphabetic" transform="matrix(1, 0, 0, 1, 0.5, 0.5)" fill-opacity="1">Aspect ratio</text><text fill="none" stroke="rgb(0,0,0)" font-family="helvetica" font-size="13px" font-style="italic" font-weight="normal" text-decoration="normal" x="114.17822265625" y="269" text-anchor="start" dominant-baseline="alphabetic" transform="matrix(1, 0, 0, 1, 0.5, 0.5)" stroke-opacity="0" stroke-linejoin="bevel" stroke-miterlimit="10">Aspect ratio</text><path fill="none" stroke="rgb(0,0,0)" paint-order="fill" d="M 52.5 230.5 L 52.5 27.5" stroke-opacity="1" stroke-linejoin="bevel" stroke-miterlimit="10"/><path fill="none" stroke="rgb(0,0,0)" paint-order="fill" d="M 46.5 221.5 L 54.5 221.5 M 46.5 174.5 L 54.5 174.5 M 46.5 128.5 L 54.5 128.5 M 46.5 81.5 L 54.5 81.5 M 46.5 34.5 L 54.5 34.5" stroke-opacity="1" stroke-linejoin="bevel" stroke-miterlimit="10"/><path fill="none" stroke="rgb(0,0,0)" paint-order="fill" d="M 48.5 221.5 L 52.5 221.5 M 48.5 211.5 L 52.5 211.5 M 48.5 202.5 L 52.5 202.5 M 48.5 193.5 L 52.5 193.5 M 48.5 184.5 L 52.5 184.5 M 48.5 174.5 L 52.5 174.5 M 48.5 165.5 L 52.5 165.5 M 48.5 156.5 L 52.5 156.5 M 48.5 146.5 L 52.5 146.5 M 48.5 137.5 L 52.5 137.5 M 48.5 128.5 L 52.5 128.5 M 48.5 118.5 L 52.5 118.5 M 48.5 109.5 L 52.5 109.5 M 48.5 100.5 L 52.5 100.5 M 48.5 90.5 L 52.5 90.5 M 48.5 81.5 L 52.5 81.5 M 48.5 72.5 L 52.5 72.5 M 48.5 62.5 L 52.5 62.5 M 48.5 53.5 L 52.5 53.5 M 48.5 44.5 L 52.5 44.5 M 48.5 34.5 L 52.5 34.5" stroke-opacity="1" stroke-linejoin="bevel" stroke-miterlimit="10"/><text fill="rgb(68,68,68)" stroke="none" font-family="helvetica" font-size="11px" font-style="normal" font-weight="normal" text-decoration="normal" x="34.88232421875" y="224.77272033691406" text-anchor="start" dominant-baseline="alphabetic" transform="matrix(1, 0, 0, 1, 0.5, 0.5)" fill-opacity="1">0</text><text fill="none" stroke="rgb(0,0,0)" font-family="helvetica" font-size="11px" font-style="normal" font-weight="normal" text-decoration="normal" x="34.88232421875" y="224.77272033691406" text-anchor="start" dominant-baseline="alphabetic" transform="matrix(1, 0, 0, 1, 0.5, 0.5)" stroke-opacity="0" stroke-linejoin="bevel" stroke-miterlimit="10">0</text><text fill="rgb(68,68,68)" stroke="none" font-family="helvetica" font-size="11px" font-style="normal" font-weight="normal" text-decoration="normal" x="25.70849609375" y="178.19284057617188" text-anchor="start" dominant-baseline="alphabetic" transform="matrix(1, 0, 0, 1, 0.5, 0.5)" fill-opacity="1">0.2</text><text fill="none" stroke="rgb(0,0,0)" font-family="helvetica" font-size="11px" font-style="normal" font-weight="normal" text-decoration="normal" x="25.70849609375" y="178.19284057617188" text-anchor="start" dominant-baseline="alphabetic" transform="matrix(1, 0, 0, 1, 0.5, 0.5)" stroke-opacity="0" stroke-linejoin="bevel" stroke-miterlimit="10">0.2</text><text fill="rgb(68,68,68)" stroke="none" font-family="helvetica" font-size="11px" font-style="normal" font-weight="normal" text-decoration="normal" x="25.70849609375" y="131.61294555664062" text-anchor="start" dominant-baseline="alphabetic" transform="matrix(1, 0, 0, 1, 0.5, 0.5)" fill-opacity="1">0.4</text><text fill="none" stroke="rgb(0,0,0)" font-family="helvetica" font-size="11px" font-style="normal" font-weight="normal" text-decoration="normal" x="25.70849609375" y="131.61294555664062" text-anchor="start" dominant-baseline="alphabetic" transform="matrix(1, 0, 0, 1, 0.5, 0.5)" stroke-opacity="0" stroke-linejoin="bevel" stroke-miterlimit="10">0.4</text><text fill="rgb(68,68,68)" stroke="none" font-family="helvetica" font-size="11px" font-style="normal" font-weight="normal" text-decoration="normal" x="25.70849609375" y="85.0330581665039" text-anchor="start" dominant-baseline="alphabetic" transform="matrix(1, 0, 0, 1, 0.5, 0.5)" fill-opacity="1">0.6</text><text fill="none" stroke="rgb(0,0,0)" font-family="helvetica" font-size="11px" font-style="normal" font-weight="normal" text-decoration="normal" x="25.70849609375" y="85.0330581665039" text-anchor="start" dominant-baseline="alphabetic" transform="matrix(1, 0, 0, 1, 0.5, 0.5)" stroke-opacity="0" stroke-linejoin="bevel" stroke-miterlimit="10">0.6</text><text fill="rgb(68,68,68)" stroke="none" font-family="helvetica" font-size="11px" font-style="normal" font-weight="normal" text-decoration="normal" x="25.70849609375" y="38.45316696166992" text-anchor="start" dominant-baseline="alphabetic" transform="matrix(1, 0, 0, 1, 0.5, 0.5)" fill-opacity="1">0.8</text><text fill="none" stroke="rgb(0,0,0)" font-family="helvetica" font-size="11px" font-style="normal" font-weight="normal" text-decoration="normal" x="25.70849609375" y="38.45316696166992" text-anchor="start" dominant-baseline="alphabetic" transform="matrix(1, 0, 0, 1, 0.5, 0.5)" stroke-opacity="0" stroke-linejoin="bevel" stroke-miterlimit="10">0.8</text><text fill="rgb(68,68,68)" stroke="none" font-family="helvetica" font-size="13px" font-style="italic" font-weight="normal" text-decoration="normal" x="-15.175537109375" y="125.5" text-anchor="start" dominant-baseline="alphabetic" transform="matrix(6.123233995736766e-17, -1, 1, 6.123233995736766e-17, -110.29150390625, 146.70849609375)" fill-opacity="1">Confidence</text><text fill="none" stroke="rgb(0,0,0)" font-family="helvetica" font-size="13px" font-style="italic" font-weight="normal" text-decoration="normal" x="-15.175537109375" y="125.5" text-anchor="start" dominant-baseline="alphabetic" transform="matrix(6.123233995736766e-17, -1, 1, 6.123233995736766e-17, -110.29150390625, 146.70849609375)" stroke-opacity="0" stroke-linejoin="bevel" stroke-miterlimit="10">Confidence</text><path fill="rgb(255,249,186)" stroke="rgb(255,0,0)" paint-order="fill" d="M 133.59213172304374 36.72727272727272 L 133.59213172304374 36.72727272727272 L 133.59213172304374 221.27272727272725 L 133.59213172304374 221.27272727272725 L 133.59213172304374 36.72727272727272 Z" fill-opacity="0.4" clip-path="url(#JfLMTgaiofxH)" stroke-opacity="1" stroke-linejoin="bevel" stroke-miterlimit="10" stroke-width="2" stroke-dasharray="6"/><path fill="rgb(255,249,186)" stroke="rgb(50,205,50)" paint-order="fill" d="M 145.75170978726874 36.72727272727272 L 145.75170978726874 36.72727272727272 L 145.75170978726874 221.27272727272725 L 145.75170978726874 221.27272727272725 L 145.75170978726874 36.72727272727272 Z" fill-opacity="0.4" clip-path="url(#KZqKnNnBbRpL)" stroke-opacity="1" stroke-linejoin="bevel" stroke-miterlimit="10" stroke-width="2" stroke-dasharray="6"/><text fill="rgb(68,68,68)" stroke="none" font-family="helvetica" font-size="13px" font-style="normal" font-weight="bold" text-decoration="normal" x="52" y="19" text-anchor="start" dominant-baseline="alphabetic" transform="matrix(1, 0, 0, 1, 0.5, 0.5)" fill-opacity="1">Convergance Probability</text><text fill="none" stroke="rgb(0,0,0)" font-family="helvetica" font-size="13px" font-style="normal" font-weight="bold" text-decoration="normal" x="52" y="19" text-anchor="start" dominant-baseline="alphabetic" transform="matrix(1, 0, 0, 1, 0.5, 0.5)" stroke-opacity="0" stroke-miterlimit="10" stroke-dasharray="">Convergance Probability</text></svg>