<svg version="1.1" xmlns="http://www.w3.org/2000/svg" width="275" height="275"><defs><clipPath id="fDbQTZeHtmRJ"><path fill="none" stroke="none" d="M 52.5 27.5 L 245.5 27.5 L 245.5 230.5 L 52.5 230.5 L 52.5 27.5 Z"/></clipPath><clipPath id="yfwuGCSRFTlq"><path fill="none" stroke="none" d="M 52.5 27.5 L 245.5 27.5 L 245.5 230.5 L 52.5 230.5 L 52.5 27.5 Z"/></clipPath><clipPath id="LKCKEsmyuCxi"><path fill="none" stroke="none" d="M 52.5 27.5 L 245.5 27.5 L 245.5 230.5 L 52.5 230.5 L 52.5 27.5 Z"/></clipPath><clipPath id="tZPPPZtpvLDx"><path fill="none" stroke="none" d="M 52.5 27.5 L 245.5 27.5 L 245.5 230.5 L 52.5 230.5 L 52.5 27.5 Z"/></clipPath><pattern id="mmaLnmZNMPof" width="3" height="3" patternUnits="userSpaceOnUse"><path fill="rgb(0,0,0)" stroke="none" paint-order="stroke" d="M 2.75 2 A 0.75 0.75 0 0 0 1.25 2 A 0.75 0.75 0 0 0 2.75 2" fill-opacity="0.14901960784313725"/></pattern><clipPath id="PLUdXmDrqmUX"><path fill="none" stroke="none" d="M 52.5 27.5 L 245.5 27.5 L 245.5 230.5 L 52.5 230.5 L 52.5 27.5 Z"/></clipPath><clipPath id="uETppJVKUJTn"><path fill="none" stroke="none" d="M 52.5 27.5 L 245.5 27.5 L 245.5 230.5 L 52.5 230.5 L 52.5 27.5 Z"/></clipPath><clipPath id="DOJlmLNbLaTl"><path fill="none" stroke="none" d="M 52.5 27.5 L 245.5 27.5 L 245.5 230.5 L 52.5 230.5 L 52.5 27.5 Z"/></clipPath><clipPath id="rDZzJrZrrOuX"><path fill="none" stroke="none" d="M 52.5 27.5 L 245.5 27.5 L 245.5 230.5 L 52.5 230.5 L 52.5 27.5 Z"/></clipPath></defs><path fill="rgb(255,255,255)" stroke="none" paint-order="stroke" d="M 0.5 0.5 L 275.5 0.5 L 275.5 275.5 L 0.5 275.5 L 0.5 0.5 Z" fill-opacity="1"/><rect fill="#FFFFFF" stroke="none" x="52" y="27" width="193" height="203" transform="matrix(1, 0, 0, 1, 0.5, 0.5)"/><path fill="rgb(255,255,255)" stroke="none" paint-order="stroke" d="M 52.5 27.5 L 245.5 27.5 L 245.5 230.5 L 52.5 230.5 L 52.5 27.5 Z" fill-opacity="1"/><path fill="none" stroke="rgb(229,229,229)" paint-order="fill" d="M 52.5 27.5 L 245.5 27.5 L 245.5 230.5 L 52.5 230.5 L 52.5 27.5 Z" stroke-opacity="1" stroke-linejoin="bevel" stroke-miterlimit="10"/><path fill="none" stroke="rgb(229,229,229)" paint-order="fill" d="M 63.5 230.5 L 63.5 27.5 M 88.5 230.5 L 88.5 27.5 M 113.5 230.5 L 113.5 27.5 M 138.5 230.5 L 138.5 27.5 M 162.5 230.5 L 162.5 27.5 M 187.5 230.5 L 187.5 27.5 M 212.5 230.5 L 212.5 27.5 M 236.5 230.5 L 236.5 27.5" stroke-opacity="1" stroke-linejoin="bevel" stroke-miterlimit="10" clip-path="url(#fDbQTZeHtmRJ)"/><path fill="none" stroke="rgb(229,229,229)" paint-order="fill" d="M 52.5 221.5 L 245.5 221.5 M 52.5 179.5 L 245.5 179.5 M 52.5 137.5 L 245.5 137.5 M 52.5 95.5 L 245.5 95.5 M 52.5 53.5 L 245.5 53.5" stroke-opacity="1" stroke-linejoin="bevel" stroke-miterlimit="10" clip-path="url(#yfwuGCSRFTlq)"/><path fill="none" stroke="rgb(0,0,0)" paint-order="fill" d="M 95.14833068847656 90.95361328125 L 95.14833068847656 96.65168762207031" stroke-opacity="1" stroke-linejoin="bevel" stroke-miterlimit="10" clip-path="url(#LKCKEsmyuCxi)"/><path fill="none" stroke="rgb(0,0,0)" paint-order="fill" d="M 145.24290466308594 32.47737503051758 L 145.24290466308594 40.977169036865234" stroke-opacity="1" stroke-linejoin="bevel" stroke-miterlimit="10" clip-path="url(#LKCKEsmyuCxi)"/><path fill="none" stroke="rgb(0,0,0)" paint-order="fill" d="M 195.3374786376953 57.30487823486328 L 195.3374786376953 86.31075286865234" stroke-opacity="1" stroke-linejoin="bevel" stroke-miterlimit="10" clip-path="url(#LKCKEsmyuCxi)"/><path fill="none" stroke="rgb(0,0,0)" paint-order="fill" d="M 90.14833068847656 90.95361328125 L 100.14833068847656 90.95361328125" stroke-opacity="1" stroke-linejoin="bevel" stroke-miterlimit="10" clip-path="url(#LKCKEsmyuCxi)"/><path fill="none" stroke="rgb(0,0,0)" paint-order="fill" d="M 140.24290466308594 32.47737503051758 L 150.24290466308594 32.47737503051758" stroke-opacity="1" stroke-linejoin="bevel" stroke-miterlimit="10" clip-path="url(#LKCKEsmyuCxi)"/><path fill="none" stroke="rgb(0,0,0)" paint-order="fill" d="M 190.3374786376953 57.30487823486328 L 200.3374786376953 57.30487823486328" stroke-opacity="1" stroke-linejoin="bevel" stroke-miterlimit="10" clip-path="url(#LKCKEsmyuCxi)"/><path fill="none" stroke="rgb(0,0,0)" paint-order="fill" d="M 100.14833068847656 96.65168762207031 L 90.14833068847656 96.65168762207031" stroke-opacity="1" stroke-linejoin="bevel" stroke-miterlimit="10" clip-path="url(#LKCKEsmyuCxi)"/><path fill="none" stroke="rgb(0,0,0)" paint-order="fill" d="M 150.24290466308594 40.977169036865234 L 140.24290466308594 40.977169036865234" stroke-opacity="1" stroke-linejoin="bevel" stroke-miterlimit="10" clip-path="url(#LKCKEsmyuCxi)"/><path fill="none" stroke="rgb(0,0,0)" paint-order="fill" d="M 200.3374786376953 86.31075286865234 L 190.3374786376953 86.31075286865234" stroke-opacity="1" stroke-linejoin="bevel" stroke-miterlimit="10" clip-path="url(#LKCKEsmyuCxi)"/><path fill="rgb(128,128,128)" stroke="none" paint-order="stroke" d="M 70.10104370117188 36.727272033691406 L 220.384765625 36.727272033691406 L 220.384765625 221.27273559570312 L 70.10104370117188 221.27273559570312 L 70.10104370117188 36.727272033691406 Z" fill-opacity="0.10196078431372549" clip-path="url(#tZPPPZtpvLDx)"/><path fill="url(#mmaLnmZNMPof)" stroke="rgb(0,0,0)" paint-order="fill" d="M 70.10104370117188 36.727272033691406 L 220.384765625 36.727272033691406 L 220.384765625 221.27273559570312 L 70.10104370117188 221.27273559570312 L 70.10104370117188 36.727272033691406 Z" clip-path="url(#tZPPPZtpvLDx)" stroke-opacity="0.2" stroke-linejoin="bevel" stroke-miterlimit="10"/><path fill="rgb(100,149,237)" stroke="rgb(31,119,180)" paint-order="fill" d="M 70.10104370117188 93.80265045166016 L 120.19561767578125 93.80265045166016 L 120.19561767578125 221.27272033691406 L 70.10104370117188 221.27272033691406 L 70.10104370117188 93.80265045166016 Z" fill-opacity="0.5019607843137255" clip-path="url(#PLUdXmDrqmUX)" stroke-opacity="0.5019607843137255" stroke-linejoin="bevel" stroke-miterlimit="10"/><path fill="rgb(100,149,237)" stroke="rgb(31,119,180)" paint-order="fill" d="M 120.19561767578125 36.727272033691406 L 170.29019165039062 36.727272033691406 L 170.29019165039062 221.27272033691406 L 120.19561767578125 221.27272033691406 L 120.19561767578125 36.727272033691406 Z" fill-opacity="0.5019607843137255" clip-path="url(#PLUdXmDrqmUX)" stroke-opacity="0.5019607843137255" stroke-linejoin="bevel" stroke-miterlimit="10"/><path fill="rgb(100,149,237)" stroke="rgb(31,119,180)" paint-order="fill" d="M 170.29019165039062 71.80781555175781 L 220.384765625 71.80781555175781 L 220.384765625 221.27272033691406 L 170.29019165039062 221.27272033691406 L 170.29019165039062 71.80781555175781 Z" fill-opacity="0.5019607843137255" clip-path="url(#PLUdXmDrqmUX)" stroke-opacity="0.5019607843137255" stroke-linejoin="bevel" stroke-miterlimit="10"/><path fill="none" stroke="rgb(0,0,0)" paint-order="fill" d="M 52.5 230.5 L 245.5 230.5" stroke-opacity="1" stroke-linejoin="bevel" stroke-miterlimit="10"/><path fill="none" stroke="rgb(0,0,0)" paint-order="fill" d="M 63.5 236.5 L 63.5 228.5 M 88.5 236.5 L 88.5 228.5 M 113.5 236.5 L 113.5 228.5 M 138.5 236.5 L 138.5 228.5 M 162.5 236.5 L 162.5 228.5 M 187.5 236.5 L 187.5 228.5 M 212.5 236.5 L 212.5 228.5 M 236.5 236.5 L 236.5 228.5" stroke-opacity="1" stroke-linejoin="bevel" stroke-miterlimit="10"/><path fill="none" stroke="rgb(0,0,0)" paint-order="fill" d="M 59.5 234.5 L 59.5 230.5 M 54.5 234.5 L 54.5 230.5 M 63.5 234.5 L 63.5 230.5 M 68.5 234.5 L 68.5 230.5 M 73.5 234.5 L 73.5 230.5 M 78.5 234.5 L 78.5 230.5 M 83.5 234.5 L 83.5 230.5 M 88.5 234.5 L 88.5 230.5 M 93.5 234.5 L 93.5 230.5 M 98.5 234.5 L 98.5 230.5 M 103.5 234.5 L 103.5 230.5 M 108.5 234.5 L 108.5 230.5 M 113.5 234.5 L 113.5 230.5 M 118.5 234.5 L 118.5 230.5 M 123.5 234.5 L 123.5 230.5 M 128.5 234.5 L 128.5 230.5 M 133.5 234.5 L 133.5 230.5 M 138.5 234.5 L 138.5 230.5 M 143.5 234.5 L 143.5 230.5 M 147.5 234.5 L 147.5 230.5 M 152.5 234.5 L 152.5 230.5 M 157.5 234.5 L 157.5 230.5 M 162.5 234.5 L 162.5 230.5 M 167.5 234.5 L 167.5 230.5 M 172.5 234.5 L 172.5 230.5 M 177.5 234.5 L 177.5 230.5 M 182.5 234.5 L 182.5 230.5 M 187.5 234.5 L 187.5 230.5 M 192.5 234.5 L 192.5 230.5 M 197.5 234.5 L 197.5 230.5 M 202.5 234.5 L 202.5 230.5 M 207.5 234.5 L 207.5 230.5 M 212.5 234.5 L 212.5 230.5 M 217.5 234.5 L 217.5 230.5 M 222.5 234.5 L 222.5 230.5 M 227.5 234.5 L 227.5 230.5 M 231.5 234.5 L 231.5 230.5 M 236.5 234.5 L 236.5 230.5 M 241.5 234.5 L 241.5 230.5" stroke-opacity="1" stroke-linejoin="bevel" stroke-miterlimit="10"/><text fill="rgb(68,68,68)" stroke="none" font-family="helvetica" font-size="11px" font-style="normal" font-weight="normal" text-decoration="normal" x="49.72249984741211" y="249" text-anchor="start" dominant-baseline="alphabetic" transform="matrix(1, 0, 0, 1, 0.5, 0.5)" fill-opacity="1">0.028</text><text fill="none" stroke="rgb(0,0,0)" font-family="helvetica" font-size="11px" font-style="normal" font-weight="normal" text-decoration="normal" x="49.72249984741211" y="249" text-anchor="start" dominant-baseline="alphabetic" transform="matrix(1, 0, 0, 1, 0.5, 0.5)" stroke-opacity="0" stroke-linejoin="bevel" stroke-miterlimit="10">0.028</text><text fill="rgb(68,68,68)" stroke="none" font-family="helvetica" font-size="11px" font-style="normal" font-weight="normal" text-decoration="normal" x="77.4888916015625" y="249" text-anchor="start" dominant-baseline="alphabetic" transform="matrix(1, 0, 0, 1, 0.5, 0.5)" fill-opacity="1">0.03</text><text fill="none" stroke="rgb(0,0,0)" font-family="helvetica" font-size="11px" font-style="normal" font-weight="normal" text-decoration="normal" x="77.4888916015625" y="249" text-anchor="start" dominant-baseline="alphabetic" transform="matrix(1, 0, 0, 1, 0.5, 0.5)" stroke-opacity="0" stroke-linejoin="bevel" stroke-miterlimit="10">0.03</text><text fill="rgb(68,68,68)" stroke="none" font-family="helvetica" font-size="11px" font-style="normal" font-weight="normal" text-decoration="normal" x="99.13761138916016" y="249" text-anchor="start" dominant-baseline="alphabetic" transform="matrix(1, 0, 0, 1, 0.5, 0.5)" fill-opacity="1">0.032</text><text fill="none" stroke="rgb(0,0,0)" font-family="helvetica" font-size="11px" font-style="normal" font-weight="normal" text-decoration="normal" x="99.13761138916016" y="249" text-anchor="start" dominant-baseline="alphabetic" transform="matrix(1, 0, 0, 1, 0.5, 0.5)" stroke-opacity="0" stroke-linejoin="bevel" stroke-miterlimit="10">0.032</text><text fill="rgb(68,68,68)" stroke="none" font-family="helvetica" font-size="11px" font-style="normal" font-weight="normal" text-decoration="normal" x="123.84516906738281" y="249" text-anchor="start" dominant-baseline="alphabetic" transform="matrix(1, 0, 0, 1, 0.5, 0.5)" fill-opacity="1">0.034</text><text fill="none" stroke="rgb(0,0,0)" font-family="helvetica" font-size="11px" font-style="normal" font-weight="normal" text-decoration="normal" x="123.84516906738281" y="249" text-anchor="start" dominant-baseline="alphabetic" transform="matrix(1, 0, 0, 1, 0.5, 0.5)" stroke-opacity="0" stroke-linejoin="bevel" stroke-miterlimit="10">0.034</text><text fill="rgb(68,68,68)" stroke="none" font-family="helvetica" font-size="11px" font-style="normal" font-weight="normal" text-decoration="normal" x="148.552734375" y="249" text-anchor="start" dominant-baseline="alphabetic" transform="matrix(1, 0, 0, 1, 0.5, 0.5)" fill-opacity="1">0.036</text><text fill="none" stroke="rgb(0,0,0)" font-family="helvetica" font-size="11px" font-style="normal" font-weight="normal" text-decoration="normal" x="148.552734375" y="249" text-anchor="start" dominant-baseline="alphabetic" transform="matrix(1, 0, 0, 1, 0.5, 0.5)" stroke-opacity="0" stroke-linejoin="bevel" stroke-miterlimit="10">0.036</text><text fill="rgb(68,68,68)" stroke="none" font-family="helvetica" font-size="11px" font-style="normal" font-weight="normal" text-decoration="normal" x="173.26028442382812" y="249" text-anchor="start" dominant-baseline="alphabetic" transform="matrix(1, 0, 0, 1, 0.5, 0.5)" fill-opacity="1">0.038</text><text fill="none" stroke="rgb(0,0,0)" font-family="helvetica" font-size="11px" font-style="normal" font-weight="normal" text-decoration="normal" x="173.26028442382812" y="249" text-anchor="start" dominant-baseline="alphabetic" transform="matrix(1, 0, 0, 1, 0.5, 0.5)" stroke-opacity="0" stroke-linejoin="bevel" stroke-miterlimit="10">0.038</text><text fill="rgb(68,68,68)" stroke="none" font-family="helvetica" font-size="11px" font-style="normal" font-weight="normal" text-decoration="normal" x="201.0266876220703" y="249" text-anchor="start" dominant-baseline="alphabetic" transform="matrix(1, 0, 0, 1, 0.5, 0.5)" fill-opacity="1">0.04</text><text fill="none" stroke="rgb(0,0,0)" font-family="helvetica" font-size="11px" font-style="normal" font-weight="normal" text-decoration="normal" x="201.0266876220703" y="249" text-anchor="start" dominant-baseline="alphabetic" transform="matrix(1, 0, 0, 1, 0.5, 0.5)" stroke-opacity="0" stroke-linejoin="bevel" stroke-miterlimit="10">0.04</text><text fill="rgb(68,68,68)" stroke="none" font-family="helvetica" font-size="11px" font-style="normal" font-weight="normal" text-decoration="normal" x="222.67539978027344" y="249" text-anchor="start" dominant-baseline="alphabetic" transform="matrix(1, 0, 0, 1, 0.5, 0.5)" fill-opacity="1">0.042</text><text fill="none" stroke="rgb(0,0,0)" font-family="helvetica" font-size="11px" font-style="normal" font-weight="normal" text-decoration="normal" x="222.67539978027344" y="249" text-anchor="start" dominant-baseline="alphabetic" transform="matrix(1, 0, 0, 1, 0.5, 0.5)" stroke-opacity="0" stroke-linejoin="bevel" stroke-miterlimit="10">0.042</text><text fill="rgb(68,68,68)" stroke="none" font-family="helvetica" font-size="13px" font-style="italic" font-weight="normal" text-decoration="normal" x="135.84912109375" y="269" text-anchor="start" dominant-baseline="alphabetic" transform="matrix(1, 0, 0, 1, 0.5, 0.5)" fill-opacity="1">beta</text><text fill="none" stroke="rgb(0,0,0)" font-family="helvetica" font-size="13px" font-style="italic" font-weight="normal" text-decoration="normal" x="135.84912109375" y="269" text-anchor="start" dominant-baseline="alphabetic" transform="matrix(1, 0, 0, 1, 0.5, 0.5)" stroke-opacity="0" stroke-linejoin="bevel" stroke-miterlimit="10">beta</text><path fill="none" stroke="rgb(0,0,0)" paint-order="fill" d="M 52.5 230.5 L 52.5 27.5" stroke-opacity="1" stroke-linejoin="bevel" stroke-miterlimit="10"/><path fill="none" stroke="rgb(0,0,0)" paint-order="fill" d="M 46.5 221.5 L 54.5 221.5 M 46.5 179.5 L 54.5 179.5 M 46.5 137.5 L 54.5 137.5 M 46.5 95.5 L 54.5 95.5 M 46.5 53.5 L 54.5 53.5" stroke-opacity="1" stroke-linejoin="bevel" stroke-miterlimit="10"/><path fill="none" stroke="rgb(0,0,0)" paint-order="fill" d="M 48.5 229.5 L 52.5 229.5 M 48.5 221.5 L 52.5 221.5 M 48.5 212.5 L 52.5 212.5 M 48.5 204.5 L 52.5 204.5 M 48.5 196.5 L 52.5 196.5 M 48.5 187.5 L 52.5 187.5 M 48.5 179.5 L 52.5 179.5 M 48.5 171.5 L 52.5 171.5 M 48.5 162.5 L 52.5 162.5 M 48.5 154.5 L 52.5 154.5 M 48.5 145.5 L 52.5 145.5 M 48.5 137.5 L 52.5 137.5 M 48.5 129.5 L 52.5 129.5 M 48.5 120.5 L 52.5 120.5 M 48.5 112.5 L 52.5 112.5 M 48.5 104.5 L 52.5 104.5 M 48.5 95.5 L 52.5 95.5 M 48.5 87.5 L 52.5 87.5 M 48.5 78.5 L 52.5 78.5 M 48.5 70.5 L 52.5 70.5 M 48.5 62.5 L 52.5 62.5 M 48.5 53.5 L 52.5 53.5 M 48.5 45.5 L 52.5 45.5 M 48.5 37.5 L 52.5 37.5 M 48.5 28.5 L 52.5 28.5" stroke-opacity="1" stroke-linejoin="bevel" stroke-miterlimit="10"/><text fill="rgb(68,68,68)" stroke="none" font-family="helvetica" font-size="11px" font-style="normal" font-weight="normal" text-decoration="normal" x="34.88232421875" y="224.77272033691406" text-anchor="start" dominant-baseline="alphabetic" transform="matrix(1, 0, 0, 1, 0.5, 0.5)" fill-opacity="1">0</text><text fill="none" stroke="rgb(0,0,0)" font-family="helvetica" font-size="11px" font-style="normal" font-weight="normal" text-decoration="normal" x="34.88232421875" y="224.77272033691406" text-anchor="start" dominant-baseline="alphabetic" transform="matrix(1, 0, 0, 1, 0.5, 0.5)" stroke-opacity="0" stroke-linejoin="bevel" stroke-miterlimit="10">0</text><text fill="rgb(68,68,68)" stroke="none" font-family="helvetica" font-size="11px" font-style="normal" font-weight="normal" text-decoration="normal" x="25.70849609375" y="182.89572143554688" text-anchor="start" dominant-baseline="alphabetic" transform="matrix(1, 0, 0, 1, 0.5, 0.5)" fill-opacity="1">0.2</text><text fill="none" stroke="rgb(0,0,0)" font-family="helvetica" font-size="11px" font-style="normal" font-weight="normal" text-decoration="normal" x="25.70849609375" y="182.89572143554688" text-anchor="start" dominant-baseline="alphabetic" transform="matrix(1, 0, 0, 1, 0.5, 0.5)" stroke-opacity="0" stroke-linejoin="bevel" stroke-miterlimit="10">0.2</text><text fill="rgb(68,68,68)" stroke="none" font-family="helvetica" font-size="11px" font-style="normal" font-weight="normal" text-decoration="normal" x="25.70849609375" y="141.0187225341797" text-anchor="start" dominant-baseline="alphabetic" transform="matrix(1, 0, 0, 1, 0.5, 0.5)" fill-opacity="1">0.4</text><text fill="none" stroke="rgb(0,0,0)" font-family="helvetica" font-size="11px" font-style="normal" font-weight="normal" text-decoration="normal" x="25.70849609375" y="141.0187225341797" text-anchor="start" dominant-baseline="alphabetic" transform="matrix(1, 0, 0, 1, 0.5, 0.5)" stroke-opacity="0" stroke-linejoin="bevel" stroke-miterlimit="10">0.4</text><text fill="rgb(68,68,68)" stroke="none" font-family="helvetica" font-size="11px" font-style="normal" font-weight="normal" text-decoration="normal" x="25.70849609375" y="99.14173126220703" text-anchor="start" dominant-baseline="alphabetic" transform="matrix(1, 0, 0, 1, 0.5, 0.5)" fill-opacity="1">0.6</text><text fill="none" stroke="rgb(0,0,0)" font-family="helvetica" font-size="11px" font-style="normal" font-weight="normal" text-decoration="normal" x="25.70849609375" y="99.14173126220703" text-anchor="start" dominant-baseline="alphabetic" transform="matrix(1, 0, 0, 1, 0.5, 0.5)" stroke-opacity="0" stroke-linejoin="bevel" stroke-miterlimit="10">0.6</text><text fill="rgb(68,68,68)" stroke="none" font-family="helvetica" font-size="11px" font-style="normal" font-weight="normal" text-decoration="normal" x="25.70849609375" y="57.264732360839844" text-anchor="start" dominant-baseline="alphabetic" transform="matrix(1, 0, 0, 1, 0.5, 0.5)" fill-opacity="1">0.8</text><text fill="none" stroke="rgb(0,0,0)" font-family="helvetica" font-size="11px" font-style="normal" font-weight="normal" text-decoration="normal" x="25.70849609375" y="57.264732360839844" text-anchor="start" dominant-baseline="alphabetic" transform="matrix(1, 0, 0, 1, 0.5, 0.5)" stroke-opacity="0" stroke-linejoin="bevel" stroke-miterlimit="10">0.8</text><text fill="rgb(68,68,68)" stroke="none" font-family="helvetica" font-size="13px" font-style="italic" font-weight="normal" text-decoration="normal" x="-47.31689453125" y="125.5" text-anchor="start" dominant-baseline="alphabetic" transform="matrix(6.123233995736766e-17, -1, 1, 6.123233995736766e-17, -110.29150390625, 146.70849609375)" fill-opacity="1">Normalised Probability</text><text fill="none" stroke="rgb(0,0,0)" font-family="helvetica" font-size="13px" font-style="italic" font-weight="normal" text-decoration="normal" x="-47.31689453125" y="125.5" text-anchor="start" dominant-baseline="alphabetic" transform="matrix(6.123233995736766e-17, -1, 1, 6.123233995736766e-17, -110.29150390625, 146.70849609375)" stroke-opacity="0" stroke-linejoin="bevel" stroke-miterlimit="10">Normalised Probability</text><path fill="rgb(255,249,186)" stroke="rgb(255,0,0)" paint-order="fill" d="M 123.72473575417882 36.72727272727275 L 123.72473575417882 36.72727272727275 L 123.72473575417882 221.27272727272725 L 123.72473575417882 221.27272727272725 L 123.72473575417882 36.72727272727275 Z" fill-opacity="0.4" clip-path="url(#uETppJVKUJTn)" stroke-opacity="1" stroke-linejoin="bevel" stroke-miterlimit="10" stroke-width="2" stroke-dasharray="6"/><path fill="rgb(255,249,186)" stroke="rgb(50,205,50)" paint-order="fill" d="M 145.242906978605 36.72727272727275 L 145.242906978605 36.72727272727275 L 145.242906978605 221.27272727272725 L 145.242906978605 221.27272727272725 L 145.242906978605 36.72727272727275 Z" fill-opacity="0.4" clip-path="url(#DOJlmLNbLaTl)" stroke-opacity="1" stroke-linejoin="bevel" stroke-miterlimit="10" stroke-width="2" stroke-dasharray="6"/><text fill="rgb(68,68,68)" stroke="none" font-family="helvetica" font-size="13px" font-style="normal" font-weight="bold" text-decoration="normal" x="52" y="19" text-anchor="start" dominant-baseline="alphabetic" transform="matrix(1, 0, 0, 1, 0.5, 0.5)" fill-opacity="1">Convergance Probability</text><text fill="none" stroke="rgb(0,0,0)" font-family="helvetica" font-size="13px" font-style="normal" font-weight="bold" text-decoration="normal" x="52" y="19" text-anchor="start" dominant-baseline="alphabetic" transform="matrix(1, 0, 0, 1, 0.5, 0.5)" stroke-opacity="0" stroke-miterlimit="10" stroke-dasharray="">Convergance Probability</text></svg>