<svg version="1.1" xmlns="http://www.w3.org/2000/svg" width="275" height="275"><defs><clipPath id="pgWGmwvanQxc"><path fill="none" stroke="none" d="M 52.5 27.5 L 245.5 27.5 L 245.5 230.5 L 52.5 230.5 L 52.5 27.5 Z"/></clipPath><clipPath id="nWIOLbaQwgFW"><path fill="none" stroke="none" d="M 52.5 27.5 L 245.5 27.5 L 245.5 230.5 L 52.5 230.5 L 52.5 27.5 Z"/></clipPath><clipPath id="tGoZrWulzaHv"><path fill="none" stroke="none" d="M 52.5 27.5 L 245.5 27.5 L 245.5 230.5 L 52.5 230.5 L 52.5 27.5 Z"/></clipPath><clipPath id="wShvWkJewggL"><path fill="none" stroke="none" d="M 52.5 27.5 L 245.5 27.5 L 245.5 230.5 L 52.5 230.5 L 52.5 27.5 Z"/></clipPath><pattern id="fKvnkqFNciNW" width="3" height="3" patternUnits="userSpaceOnUse"><path fill="rgb(0,0,0)" stroke="none" paint-order="stroke" d="M 2.75 2 A 0.75 0.75 0 0 0 1.25 2 A 0.75 0.75 0 0 0 2.75 2" fill-opacity="0.14901960784313725"/></pattern><clipPath id="QabGxkBPyiHo"><path fill="none" stroke="none" d="M 52.5 27.5 L 245.5 27.5 L 245.5 230.5 L 52.5 230.5 L 52.5 27.5 Z"/></clipPath><clipPath id="cfMVfchwDxiT"><path fill="none" stroke="none" d="M 52.5 27.5 L 245.5 27.5 L 245.5 230.5 L 52.5 230.5 L 52.5 27.5 Z"/></clipPath><clipPath id="aJsrvANBBNNX"><path fill="none" stroke="none" d="M 52.5 27.5 L 245.5 27.5 L 245.5 230.5 L 52.5 230.5 L 52.5 27.5 Z"/></clipPath><clipPath id="VqrMTzbsrbWd"><path fill="none" stroke="none" d="M 52.5 27.5 L 245.5 27.5 L 245.5 230.5 L 52.5 230.5 L 52.5 27.5 Z"/></clipPath></defs><path fill="rgb(255,255,255)" stroke="none" paint-order="stroke" d="M 0.5 0.5 L 275.5 0.5 L 275.5 275.5 L 0.5 275.5 L 0.5 0.5 Z" fill-opacity="1"/><rect fill="#FFFFFF" stroke="none" x="52" y="27" width="193" height="203" transform="matrix(1, 0, 0, 1, 0.5, 0.5)"/><path fill="rgb(255,255,255)" stroke="none" paint-order="stroke" d="M 52.5 27.5 L 245.5 27.5 L 245.5 230.5 L 52.5 230.5 L 52.5 27.5 Z" fill-opacity="1"/><path fill="none" stroke="rgb(229,229,229)" paint-order="fill" d="M 52.5 27.5 L 245.5 27.5 L 245.5 230.5 L 52.5 230.5 L 52.5 27.5 Z" stroke-opacity="1" stroke-linejoin="bevel" stroke-miterlimit="10"/><path fill="none" stroke="rgb(229,229,229)" paint-order="fill" d="M 79.5 230.5 L 79.5 27.5 M 131.5 230.5 L 131.5 27.5 M 182.5 230.5 L 182.5 27.5 M 234.5 230.5 L 234.5 27.5" stroke-opacity="1" stroke-linejoin="bevel" stroke-miterlimit="10" clip-path="url(#pgWGmwvanQxc)"/><path fill="none" stroke="rgb(229,229,229)" paint-order="fill" d="M 52.5 221.5 L 245.5 221.5 M 52.5 177.5 L 245.5 177.5 M 52.5 133.5 L 245.5 133.5 M 52.5 89.5 L 245.5 89.5 M 52.5 45.5 L 245.5 45.5" stroke-opacity="1" stroke-linejoin="bevel" stroke-miterlimit="10" clip-path="url(#nWIOLbaQwgFW)"/><path fill="none" stroke="rgb(0,0,0)" paint-order="fill" d="M 114.87825775146484 65.75260162353516 L 114.87825775146484 71.02760314941406" stroke-opacity="1" stroke-linejoin="bevel" stroke-miterlimit="10" clip-path="url(#tGoZrWulzaHv)"/><path fill="none" stroke="rgb(0,0,0)" paint-order="fill" d="M 176.91778564453125 29.640016555786133 L 176.91778564453125 43.81452941894531" stroke-opacity="1" stroke-linejoin="bevel" stroke-miterlimit="10" clip-path="url(#tGoZrWulzaHv)"/><path fill="none" stroke="rgb(0,0,0)" paint-order="fill" d="M 109.87825775146484 65.75260162353516 L 119.87825775146484 65.75260162353516" stroke-opacity="1" stroke-linejoin="bevel" stroke-miterlimit="10" clip-path="url(#tGoZrWulzaHv)"/><path fill="none" stroke="rgb(0,0,0)" paint-order="fill" d="M 171.91778564453125 29.640016555786133 L 181.91778564453125 29.640016555786133" stroke-opacity="1" stroke-linejoin="bevel" stroke-miterlimit="10" clip-path="url(#tGoZrWulzaHv)"/><path fill="none" stroke="rgb(0,0,0)" paint-order="fill" d="M 119.87825775146484 71.02760314941406 L 109.87825775146484 71.02760314941406" stroke-opacity="1" stroke-linejoin="bevel" stroke-miterlimit="10" clip-path="url(#tGoZrWulzaHv)"/><path fill="none" stroke="rgb(0,0,0)" paint-order="fill" d="M 181.91778564453125 43.81452941894531 L 171.91778564453125 43.81452941894531" stroke-opacity="1" stroke-linejoin="bevel" stroke-miterlimit="10" clip-path="url(#tGoZrWulzaHv)"/><path fill="rgb(128,128,128)" stroke="none" paint-order="stroke" d="M 83.85848999023438 36.727272033691406 L 207.93756103515625 36.727272033691406 L 207.93756103515625 221.27273559570312 L 83.85848999023438 221.27273559570312 L 83.85848999023438 36.727272033691406 Z" fill-opacity="0.10196078431372549" clip-path="url(#wShvWkJewggL)"/><path fill="url(#fKvnkqFNciNW)" stroke="rgb(0,0,0)" paint-order="fill" d="M 83.85848999023438 36.727272033691406 L 207.93756103515625 36.727272033691406 L 207.93756103515625 221.27273559570312 L 83.85848999023438 221.27273559570312 L 83.85848999023438 36.727272033691406 Z" clip-path="url(#wShvWkJewggL)" stroke-opacity="0.2" stroke-linejoin="bevel" stroke-miterlimit="10"/><path fill="rgb(100,149,237)" stroke="rgb(31,119,180)" paint-order="fill" d="M 83.85848999023438 68.39009857177734 L 145.8980255126953 68.39009857177734 L 145.8980255126953 221.27272033691406 L 83.85848999023438 221.27272033691406 L 83.85848999023438 68.39009857177734 Z" fill-opacity="0.5019607843137255" clip-path="url(#QabGxkBPyiHo)" stroke-opacity="0.5019607843137255" stroke-linejoin="bevel" stroke-miterlimit="10"/><path fill="rgb(100,149,237)" stroke="rgb(31,119,180)" paint-order="fill" d="M 145.8980255126953 36.727272033691406 L 207.9375457763672 36.727272033691406 L 207.9375457763672 221.27272033691406 L 145.8980255126953 221.27272033691406 L 145.8980255126953 36.727272033691406 Z" fill-opacity="0.5019607843137255" clip-path="url(#QabGxkBPyiHo)" stroke-opacity="0.5019607843137255" stroke-linejoin="bevel" stroke-miterlimit="10"/><path fill="none" stroke="rgb(0,0,0)" paint-order="fill" d="M 52.5 230.5 L 245.5 230.5" stroke-opacity="1" stroke-linejoin="bevel" stroke-miterlimit="10"/><path fill="none" stroke="rgb(0,0,0)" paint-order="fill" d="M 79.5 236.5 L 79.5 228.5 M 131.5 236.5 L 131.5 228.5 M 182.5 236.5 L 182.5 228.5 M 234.5 236.5 L 234.5 228.5" stroke-opacity="1" stroke-linejoin="bevel" stroke-miterlimit="10"/><path fill="none" stroke="rgb(0,0,0)" paint-order="fill" d="M 68.5 234.5 L 68.5 230.5 M 58.5 234.5 L 58.5 230.5 M 79.5 234.5 L 79.5 230.5 M 89.5 234.5 L 89.5 230.5 M 99.5 234.5 L 99.5 230.5 M 110.5 234.5 L 110.5 230.5 M 120.5 234.5 L 120.5 230.5 M 131.5 234.5 L 131.5 230.5 M 141.5 234.5 L 141.5 230.5 M 151.5 234.5 L 151.5 230.5 M 162.5 234.5 L 162.5 230.5 M 172.5 234.5 L 172.5 230.5 M 182.5 234.5 L 182.5 230.5 M 193.5 234.5 L 193.5 230.5 M 203.5 234.5 L 203.5 230.5 M 214.5 234.5 L 214.5 230.5 M 224.5 234.5 L 224.5 230.5 M 234.5 234.5 L 234.5 230.5 M 245.5 234.5 L 245.5 230.5" stroke-opacity="1" stroke-linejoin="bevel" stroke-miterlimit="10"/><text fill="rgb(68,68,68)" stroke="none" font-family="helvetica" font-size="11px" font-style="normal" font-weight="normal" text-decoration="normal" x="67.95425415039062" y="249" text-anchor="start" dominant-baseline="alphabetic" transform="matrix(1, 0, 0, 1, 0.5, 0.5)" fill-opacity="1">0.06</text><text fill="none" stroke="rgb(0,0,0)" font-family="helvetica" font-size="11px" font-style="normal" font-weight="normal" text-decoration="normal" x="67.95425415039062" y="249" text-anchor="start" dominant-baseline="alphabetic" transform="matrix(1, 0, 0, 1, 0.5, 0.5)" stroke-opacity="0" stroke-linejoin="bevel" stroke-miterlimit="10">0.06</text><text fill="rgb(68,68,68)" stroke="none" font-family="helvetica" font-size="11px" font-style="normal" font-weight="normal" text-decoration="normal" x="116.76792907714844" y="249" text-anchor="start" dominant-baseline="alphabetic" transform="matrix(1, 0, 0, 1, 0.5, 0.5)" fill-opacity="1">0.065</text><text fill="none" stroke="rgb(0,0,0)" font-family="helvetica" font-size="11px" font-style="normal" font-weight="normal" text-decoration="normal" x="116.76792907714844" y="249" text-anchor="start" dominant-baseline="alphabetic" transform="matrix(1, 0, 0, 1, 0.5, 0.5)" stroke-opacity="0" stroke-linejoin="bevel" stroke-miterlimit="10">0.065</text><text fill="rgb(68,68,68)" stroke="none" font-family="helvetica" font-size="11px" font-style="normal" font-weight="normal" text-decoration="normal" x="171.6992950439453" y="249" text-anchor="start" dominant-baseline="alphabetic" transform="matrix(1, 0, 0, 1, 0.5, 0.5)" fill-opacity="1">0.07</text><text fill="none" stroke="rgb(0,0,0)" font-family="helvetica" font-size="11px" font-style="normal" font-weight="normal" text-decoration="normal" x="171.6992950439453" y="249" text-anchor="start" dominant-baseline="alphabetic" transform="matrix(1, 0, 0, 1, 0.5, 0.5)" stroke-opacity="0" stroke-linejoin="bevel" stroke-miterlimit="10">0.07</text><text fill="rgb(68,68,68)" stroke="none" font-family="helvetica" font-size="11px" font-style="normal" font-weight="normal" text-decoration="normal" x="220.51296997070312" y="249" text-anchor="start" dominant-baseline="alphabetic" transform="matrix(1, 0, 0, 1, 0.5, 0.5)" fill-opacity="1">0.075</text><text fill="none" stroke="rgb(0,0,0)" font-family="helvetica" font-size="11px" font-style="normal" font-weight="normal" text-decoration="normal" x="220.51296997070312" y="249" text-anchor="start" dominant-baseline="alphabetic" transform="matrix(1, 0, 0, 1, 0.5, 0.5)" stroke-opacity="0" stroke-linejoin="bevel" stroke-miterlimit="10">0.075</text><text fill="rgb(68,68,68)" stroke="none" font-family="helvetica" font-size="13px" font-style="italic" font-weight="normal" text-decoration="normal" x="127.54638671875" y="269" text-anchor="start" dominant-baseline="alphabetic" transform="matrix(1, 0, 0, 1, 0.5, 0.5)" fill-opacity="1">betalim</text><text fill="none" stroke="rgb(0,0,0)" font-family="helvetica" font-size="13px" font-style="italic" font-weight="normal" text-decoration="normal" x="127.54638671875" y="269" text-anchor="start" dominant-baseline="alphabetic" transform="matrix(1, 0, 0, 1, 0.5, 0.5)" stroke-opacity="0" stroke-linejoin="bevel" stroke-miterlimit="10">betalim</text><path fill="none" stroke="rgb(0,0,0)" paint-order="fill" d="M 52.5 230.5 L 52.5 27.5" stroke-opacity="1" stroke-linejoin="bevel" stroke-miterlimit="10"/><path fill="none" stroke="rgb(0,0,0)" paint-order="fill" d="M 46.5 221.5 L 54.5 221.5 M 46.5 177.5 L 54.5 177.5 M 46.5 133.5 L 54.5 133.5 M 46.5 89.5 L 54.5 89.5 M 46.5 45.5 L 54.5 45.5" stroke-opacity="1" stroke-linejoin="bevel" stroke-miterlimit="10"/><path fill="none" stroke="rgb(0,0,0)" paint-order="fill" d="M 48.5 230.5 L 52.5 230.5 M 48.5 221.5 L 52.5 221.5 M 48.5 212.5 L 52.5 212.5 M 48.5 203.5 L 52.5 203.5 M 48.5 194.5 L 52.5 194.5 M 48.5 186.5 L 52.5 186.5 M 48.5 177.5 L 52.5 177.5 M 48.5 168.5 L 52.5 168.5 M 48.5 159.5 L 52.5 159.5 M 48.5 151.5 L 52.5 151.5 M 48.5 142.5 L 52.5 142.5 M 48.5 133.5 L 52.5 133.5 M 48.5 124.5 L 52.5 124.5 M 48.5 115.5 L 52.5 115.5 M 48.5 107.5 L 52.5 107.5 M 48.5 98.5 L 52.5 98.5 M 48.5 89.5 L 52.5 89.5 M 48.5 80.5 L 52.5 80.5 M 48.5 72.5 L 52.5 72.5 M 48.5 63.5 L 52.5 63.5 M 48.5 54.5 L 52.5 54.5 M 48.5 45.5 L 52.5 45.5 M 48.5 37.5 L 52.5 37.5 M 48.5 28.5 L 52.5 28.5" stroke-opacity="1" stroke-linejoin="bevel" stroke-miterlimit="10"/><text fill="rgb(68,68,68)" stroke="none" font-family="helvetica" font-size="11px" font-style="normal" font-weight="normal" text-decoration="normal" x="34.88232421875" y="224.77272033691406" text-anchor="start" dominant-baseline="alphabetic" transform="matrix(1, 0, 0, 1, 0.5, 0.5)" fill-opacity="1">0</text><text fill="none" stroke="rgb(0,0,0)" font-family="helvetica" font-size="11px" font-style="normal" font-weight="normal" text-decoration="normal" x="34.88232421875" y="224.77272033691406" text-anchor="start" dominant-baseline="alphabetic" transform="matrix(1, 0, 0, 1, 0.5, 0.5)" stroke-opacity="0" stroke-linejoin="bevel" stroke-miterlimit="10">0</text><text fill="rgb(68,68,68)" stroke="none" font-family="helvetica" font-size="11px" font-style="normal" font-weight="normal" text-decoration="normal" x="25.70849609375" y="180.89939880371094" text-anchor="start" dominant-baseline="alphabetic" transform="matrix(1, 0, 0, 1, 0.5, 0.5)" fill-opacity="1">0.2</text><text fill="none" stroke="rgb(0,0,0)" font-family="helvetica" font-size="11px" font-style="normal" font-weight="normal" text-decoration="normal" x="25.70849609375" y="180.89939880371094" text-anchor="start" dominant-baseline="alphabetic" transform="matrix(1, 0, 0, 1, 0.5, 0.5)" stroke-opacity="0" stroke-linejoin="bevel" stroke-miterlimit="10">0.2</text><text fill="rgb(68,68,68)" stroke="none" font-family="helvetica" font-size="11px" font-style="normal" font-weight="normal" text-decoration="normal" x="25.70849609375" y="137.02606201171875" text-anchor="start" dominant-baseline="alphabetic" transform="matrix(1, 0, 0, 1, 0.5, 0.5)" fill-opacity="1">0.4</text><text fill="none" stroke="rgb(0,0,0)" font-family="helvetica" font-size="11px" font-style="normal" font-weight="normal" text-decoration="normal" x="25.70849609375" y="137.02606201171875" text-anchor="start" dominant-baseline="alphabetic" transform="matrix(1, 0, 0, 1, 0.5, 0.5)" stroke-opacity="0" stroke-linejoin="bevel" stroke-miterlimit="10">0.4</text><text fill="rgb(68,68,68)" stroke="none" font-family="helvetica" font-size="11px" font-style="normal" font-weight="normal" text-decoration="normal" x="25.70849609375" y="93.15274047851562" text-anchor="start" dominant-baseline="alphabetic" transform="matrix(1, 0, 0, 1, 0.5, 0.5)" fill-opacity="1">0.6</text><text fill="none" stroke="rgb(0,0,0)" font-family="helvetica" font-size="11px" font-style="normal" font-weight="normal" text-decoration="normal" x="25.70849609375" y="93.15274047851562" text-anchor="start" dominant-baseline="alphabetic" transform="matrix(1, 0, 0, 1, 0.5, 0.5)" stroke-opacity="0" stroke-linejoin="bevel" stroke-miterlimit="10">0.6</text><text fill="rgb(68,68,68)" stroke="none" font-family="helvetica" font-size="11px" font-style="normal" font-weight="normal" text-decoration="normal" x="25.70849609375" y="49.2794075012207" text-anchor="start" dominant-baseline="alphabetic" transform="matrix(1, 0, 0, 1, 0.5, 0.5)" fill-opacity="1">0.8</text><text fill="none" stroke="rgb(0,0,0)" font-family="helvetica" font-size="11px" font-style="normal" font-weight="normal" text-decoration="normal" x="25.70849609375" y="49.2794075012207" text-anchor="start" dominant-baseline="alphabetic" transform="matrix(1, 0, 0, 1, 0.5, 0.5)" stroke-opacity="0" stroke-linejoin="bevel" stroke-miterlimit="10">0.8</text><text fill="rgb(68,68,68)" stroke="none" font-family="helvetica" font-size="13px" font-style="italic" font-weight="normal" text-decoration="normal" x="-47.31689453125" y="125.5" text-anchor="start" dominant-baseline="alphabetic" transform="matrix(6.123233995736766e-17, -1, 1, 6.123233995736766e-17, -110.29150390625, 146.70849609375)" fill-opacity="1">Normalised Probability</text><text fill="none" stroke="rgb(0,0,0)" font-family="helvetica" font-size="13px" font-style="italic" font-weight="normal" text-decoration="normal" x="-47.31689453125" y="125.5" text-anchor="start" dominant-baseline="alphabetic" transform="matrix(6.123233995736766e-17, -1, 1, 6.123233995736766e-17, -110.29150390625, 146.70849609375)" stroke-opacity="0" stroke-linejoin="bevel" stroke-miterlimit="10">Normalised Probability</text><path fill="rgb(255,249,186)" stroke="rgb(255,0,0)" paint-order="fill" d="M 126.82450932837128 36.72727272727275 L 126.82450932837128 36.72727272727275 L 126.82450932837128 221.27272727272728 L 126.82450932837128 221.27272727272728 L 126.82450932837128 36.72727272727275 Z" fill-opacity="0.4" clip-path="url(#cfMVfchwDxiT)" stroke-opacity="1" stroke-linejoin="bevel" stroke-miterlimit="10" stroke-width="2" stroke-dasharray="6"/><path fill="rgb(255,249,186)" stroke="rgb(50,205,50)" paint-order="fill" d="M 176.91778877941022 36.72727272727275 L 176.91778877941022 36.72727272727275 L 176.91778877941022 221.27272727272728 L 176.91778877941022 221.27272727272728 L 176.91778877941022 36.72727272727275 Z" fill-opacity="0.4" clip-path="url(#aJsrvANBBNNX)" stroke-opacity="1" stroke-linejoin="bevel" stroke-miterlimit="10" stroke-width="2" stroke-dasharray="6"/><text fill="rgb(68,68,68)" stroke="none" font-family="helvetica" font-size="13px" font-style="normal" font-weight="bold" text-decoration="normal" x="52" y="19" text-anchor="start" dominant-baseline="alphabetic" transform="matrix(1, 0, 0, 1, 0.5, 0.5)" fill-opacity="1">Convergance Probability</text><text fill="none" stroke="rgb(0,0,0)" font-family="helvetica" font-size="13px" font-style="normal" font-weight="bold" text-decoration="normal" x="52" y="19" text-anchor="start" dominant-baseline="alphabetic" transform="matrix(1, 0, 0, 1, 0.5, 0.5)" stroke-opacity="0" stroke-miterlimit="10" stroke-dasharray="">Convergance Probability</text></svg>