<svg version="1.1" xmlns="http://www.w3.org/2000/svg" width="250" height="250"><defs><clipPath id="SOXvMunARhit"><path fill="none" stroke="none" d="M 52.5 27.5 L 220.5 27.5 L 220.5 205.5 L 52.5 205.5 L 52.5 27.5 Z"/></clipPath><clipPath id="IATeKQssEbiT"><path fill="none" stroke="none" d="M 52.5 27.5 L 220.5 27.5 L 220.5 205.5 L 52.5 205.5 L 52.5 27.5 Z"/></clipPath><clipPath id="LGMZrdCiEogr"><path fill="none" stroke="none" d="M 52.5 27.5 L 220.5 27.5 L 220.5 205.5 L 52.5 205.5 L 52.5 27.5 Z"/></clipPath><clipPath id="XXvJcnbigUaO"><path fill="none" stroke="none" d="M 52.5 27.5 L 220.5 27.5 L 220.5 205.5 L 52.5 205.5 L 52.5 27.5 Z"/></clipPath><pattern id="EAyShryoNTOK" width="3" height="3" patternUnits="userSpaceOnUse"><path fill="rgb(0,0,0)" stroke="none" paint-order="stroke" d="M 2.75 2 A 0.75 0.75 0 0 0 1.25 2 A 0.75 0.75 0 0 0 2.75 2" fill-opacity="0.14901960784313725"/></pattern><clipPath id="iuCVhqAVxPhC"><path fill="none" stroke="none" d="M 52.5 27.5 L 220.5 27.5 L 220.5 205.5 L 52.5 205.5 L 52.5 27.5 Z"/></clipPath><clipPath id="ByqrbeuZOTQf"><path fill="none" stroke="none" d="M 52.5 27.5 L 220.5 27.5 L 220.5 205.5 L 52.5 205.5 L 52.5 27.5 Z"/></clipPath><clipPath id="gTdNkxkSITft"><path fill="none" stroke="none" d="M 52.5 27.5 L 220.5 27.5 L 220.5 205.5 L 52.5 205.5 L 52.5 27.5 Z"/></clipPath><clipPath id="QKLvQeDcILal"><path fill="none" stroke="none" d="M 52.5 27.5 L 220.5 27.5 L 220.5 205.5 L 52.5 205.5 L 52.5 27.5 Z"/></clipPath></defs><path fill="rgb(255,255,255)" stroke="none" paint-order="stroke" d="M 0.5 0.5 L 250.5 0.5 L 250.5 250.5 L 0.5 250.5 L 0.5 0.5 Z" fill-opacity="1"/><rect fill="#FFFFFF" stroke="none" x="52" y="27" width="168" height="178" transform="matrix(1, 0, 0, 1, 0.5, 0.5)"/><path fill="rgb(255,255,255)" stroke="none" paint-order="stroke" d="M 52.5 27.5 L 220.5 27.5 L 220.5 205.5 L 52.5 205.5 L 52.5 27.5 Z" fill-opacity="1"/><path fill="none" stroke="rgb(229,229,229)" paint-order="fill" d="M 52.5 27.5 L 220.5 27.5 L 220.5 205.5 L 52.5 205.5 L 52.5 27.5 Z" stroke-opacity="1" stroke-linejoin="bevel" stroke-miterlimit="10"/><path fill="none" stroke="rgb(229,229,229)" paint-order="fill" d="M 86.5 205.5 L 86.5 27.5 M 122.5 205.5 L 122.5 27.5 M 158.5 205.5 L 158.5 27.5 M 194.5 205.5 L 194.5 27.5" stroke-opacity="1" stroke-linejoin="bevel" stroke-miterlimit="10" clip-path="url(#SOXvMunARhit)"/><path fill="none" stroke="rgb(229,229,229)" paint-order="fill" d="M 52.5 197.5 L 220.5 197.5 M 52.5 158.5 L 220.5 158.5 M 52.5 120.5 L 220.5 120.5 M 52.5 81.5 L 220.5 81.5 M 52.5 43.5 L 220.5 43.5" stroke-opacity="1" stroke-linejoin="bevel" stroke-miterlimit="10" clip-path="url(#IATeKQssEbiT)"/><path fill="none" stroke="rgb(0,0,0)" paint-order="fill" d="M 98.48461151123047 19.3890438079834 L 98.48461151123047 51.79277420043945" stroke-opacity="1" stroke-linejoin="bevel" stroke-miterlimit="10" clip-path="url(#LGMZrdCiEogr)"/><path fill="none" stroke="rgb(0,0,0)" paint-order="fill" d="M 167.60350036621094 41.97846221923828 L 167.60350036621094 81.891357421875" stroke-opacity="1" stroke-linejoin="bevel" stroke-miterlimit="10" clip-path="url(#LGMZrdCiEogr)"/><path fill="none" stroke="rgb(0,0,0)" paint-order="fill" d="" stroke-opacity="1" stroke-linejoin="bevel" stroke-miterlimit="10" clip-path="url(#LGMZrdCiEogr)"/><path fill="none" stroke="rgb(0,0,0)" paint-order="fill" d="M 93.48461151123047 19.3890438079834 L 103.48461151123047 19.3890438079834" stroke-opacity="1" stroke-linejoin="bevel" stroke-miterlimit="10" clip-path="url(#LGMZrdCiEogr)"/><path fill="none" stroke="rgb(0,0,0)" paint-order="fill" d="M 162.60350036621094 41.97846221923828 L 172.60350036621094 41.97846221923828" stroke-opacity="1" stroke-linejoin="bevel" stroke-miterlimit="10" clip-path="url(#LGMZrdCiEogr)"/><path fill="none" stroke="rgb(0,0,0)" paint-order="fill" d="M -4.5 0.5000000000000007 L 5.5 0.4999999999999994" stroke-opacity="1" stroke-linejoin="bevel" stroke-miterlimit="10" clip-path="url(#LGMZrdCiEogr)"/><path fill="none" stroke="rgb(0,0,0)" paint-order="fill" d="M 103.48461151123047 51.79277420043945 L 93.48461151123047 51.79277420043945" stroke-opacity="1" stroke-linejoin="bevel" stroke-miterlimit="10" clip-path="url(#LGMZrdCiEogr)"/><path fill="none" stroke="rgb(0,0,0)" paint-order="fill" d="M 172.60350036621094 81.891357421875 L 162.60350036621094 81.891357421875" stroke-opacity="1" stroke-linejoin="bevel" stroke-miterlimit="10" clip-path="url(#LGMZrdCiEogr)"/><path fill="none" stroke="rgb(0,0,0)" paint-order="fill" d="M 5.5 0.5 L -4.5 0.5" stroke-opacity="1" stroke-linejoin="bevel" stroke-miterlimit="10" clip-path="url(#LGMZrdCiEogr)"/><path fill="rgb(128,128,128)" stroke="none" paint-order="stroke" d="M 63.925174713134766 35.590911865234375 L 202.16293334960938 35.590911865234375 L 202.16293334960938 197.40908813476562 L 63.925174713134766 197.40908813476562 L 63.925174713134766 35.590911865234375 Z" fill-opacity="0.10196078431372549" clip-path="url(#XXvJcnbigUaO)"/><path fill="url(#EAyShryoNTOK)" stroke="rgb(0,0,0)" paint-order="fill" d="M 63.925174713134766 35.590911865234375 L 202.16293334960938 35.590911865234375 L 202.16293334960938 197.40908813476562 L 63.925174713134766 197.40908813476562 L 63.925174713134766 35.590911865234375 Z" clip-path="url(#XXvJcnbigUaO)" stroke-opacity="0.2" stroke-linejoin="bevel" stroke-miterlimit="10"/><path fill="rgb(100,149,237)" stroke="rgb(31,119,180)" paint-order="fill" d="M 63.9251708984375 35.59090805053711 L 133.04405212402344 35.59090805053711 L 133.04405212402344 197.40908813476562 L 63.9251708984375 197.40908813476562 L 63.9251708984375 35.59090805053711 Z" fill-opacity="0.5019607843137255" clip-path="url(#iuCVhqAVxPhC)" stroke-opacity="0.5019607843137255" stroke-linejoin="bevel" stroke-miterlimit="10"/><path fill="rgb(100,149,237)" stroke="rgb(31,119,180)" paint-order="fill" d="M 133.0440673828125 61.93490982055664 L 202.16293334960938 61.93490982055664 L 202.16293334960938 197.40908813476562 L 133.0440673828125 197.40908813476562 L 133.0440673828125 61.93490982055664 Z" fill-opacity="0.5019607843137255" clip-path="url(#iuCVhqAVxPhC)" stroke-opacity="0.5019607843137255" stroke-linejoin="bevel" stroke-miterlimit="10"/><path fill="rgb(100,149,237)" stroke="rgb(31,119,180)" paint-order="fill" d="M 202.16293334960938 197.40908813476562 L 220.5 197.40908813476562 L 220.5 197.40908813476562 L 202.16293334960938 197.40908813476562 L 202.16293334960938 197.40908813476562 Z" fill-opacity="0.5019607843137255" clip-path="url(#iuCVhqAVxPhC)" stroke-opacity="0.5019607843137255" stroke-linejoin="bevel" stroke-miterlimit="10"/><path fill="none" stroke="rgb(0,0,0)" paint-order="fill" d="M 52.5 205.5 L 220.5 205.5" stroke-opacity="1" stroke-linejoin="bevel" stroke-miterlimit="10"/><path fill="none" stroke="rgb(0,0,0)" paint-order="fill" d="M 86.5 211.5 L 86.5 203.5 M 122.5 211.5 L 122.5 203.5 M 158.5 211.5 L 158.5 203.5 M 194.5 211.5 L 194.5 203.5" stroke-opacity="1" stroke-linejoin="bevel" stroke-miterlimit="10"/><path fill="none" stroke="rgb(0,0,0)" paint-order="fill" d="M 79.5 209.5 L 79.5 205.5 M 72.5 209.5 L 72.5 205.5 M 65.5 209.5 L 65.5 205.5 M 58.5 209.5 L 58.5 205.5 M 86.5 209.5 L 86.5 205.5 M 94.5 209.5 L 94.5 205.5 M 101.5 209.5 L 101.5 205.5 M 108.5 209.5 L 108.5 205.5 M 115.5 209.5 L 115.5 205.5 M 122.5 209.5 L 122.5 205.5 M 130.5 209.5 L 130.5 205.5 M 137.5 209.5 L 137.5 205.5 M 144.5 209.5 L 144.5 205.5 M 151.5 209.5 L 151.5 205.5 M 158.5 209.5 L 158.5 205.5 M 166.5 209.5 L 166.5 205.5 M 173.5 209.5 L 173.5 205.5 M 180.5 209.5 L 180.5 205.5 M 187.5 209.5 L 187.5 205.5 M 194.5 209.5 L 194.5 205.5 M 202.5 209.5 L 202.5 205.5 M 209.5 209.5 L 209.5 205.5 M 216.5 209.5 L 216.5 205.5" stroke-opacity="1" stroke-linejoin="bevel" stroke-miterlimit="10"/><text fill="rgb(68,68,68)" stroke="none" font-family="helvetica" font-size="11px" font-style="normal" font-weight="normal" text-decoration="normal" x="80.38066864013672" y="224" text-anchor="start" dominant-baseline="alphabetic" transform="matrix(1, 0, 0, 1, 0.5, 0.5)" fill-opacity="1">35</text><text fill="none" stroke="rgb(0,0,0)" font-family="helvetica" font-size="11px" font-style="normal" font-weight="normal" text-decoration="normal" x="80.38066864013672" y="224" text-anchor="start" dominant-baseline="alphabetic" transform="matrix(1, 0, 0, 1, 0.5, 0.5)" stroke-opacity="0" stroke-linejoin="bevel" stroke-miterlimit="10">35</text><text fill="rgb(68,68,68)" stroke="none" font-family="helvetica" font-size="11px" font-style="normal" font-weight="normal" text-decoration="normal" x="116.3201904296875" y="224" text-anchor="start" dominant-baseline="alphabetic" transform="matrix(1, 0, 0, 1, 0.5, 0.5)" fill-opacity="1">40</text><text fill="none" stroke="rgb(0,0,0)" font-family="helvetica" font-size="11px" font-style="normal" font-weight="normal" text-decoration="normal" x="116.3201904296875" y="224" text-anchor="start" dominant-baseline="alphabetic" transform="matrix(1, 0, 0, 1, 0.5, 0.5)" stroke-opacity="0" stroke-linejoin="bevel" stroke-miterlimit="10">40</text><text fill="rgb(68,68,68)" stroke="none" font-family="helvetica" font-size="11px" font-style="normal" font-weight="normal" text-decoration="normal" x="152.25970458984375" y="224" text-anchor="start" dominant-baseline="alphabetic" transform="matrix(1, 0, 0, 1, 0.5, 0.5)" fill-opacity="1">45</text><text fill="none" stroke="rgb(0,0,0)" font-family="helvetica" font-size="11px" font-style="normal" font-weight="normal" text-decoration="normal" x="152.25970458984375" y="224" text-anchor="start" dominant-baseline="alphabetic" transform="matrix(1, 0, 0, 1, 0.5, 0.5)" stroke-opacity="0" stroke-linejoin="bevel" stroke-miterlimit="10">45</text><text fill="rgb(68,68,68)" stroke="none" font-family="helvetica" font-size="11px" font-style="normal" font-weight="normal" text-decoration="normal" x="188.19921875" y="224" text-anchor="start" dominant-baseline="alphabetic" transform="matrix(1, 0, 0, 1, 0.5, 0.5)" fill-opacity="1">50</text><text fill="none" stroke="rgb(0,0,0)" font-family="helvetica" font-size="11px" font-style="normal" font-weight="normal" text-decoration="normal" x="188.19921875" y="224" text-anchor="start" dominant-baseline="alphabetic" transform="matrix(1, 0, 0, 1, 0.5, 0.5)" stroke-opacity="0" stroke-linejoin="bevel" stroke-miterlimit="10">50</text><text fill="rgb(68,68,68)" stroke="none" font-family="helvetica" font-size="13px" font-style="italic" font-weight="normal" text-decoration="normal" x="123.7109375" y="244" text-anchor="start" dominant-baseline="alphabetic" transform="matrix(1, 0, 0, 1, 0.5, 0.5)" fill-opacity="1">bigq</text><text fill="none" stroke="rgb(0,0,0)" font-family="helvetica" font-size="13px" font-style="italic" font-weight="normal" text-decoration="normal" x="123.7109375" y="244" text-anchor="start" dominant-baseline="alphabetic" transform="matrix(1, 0, 0, 1, 0.5, 0.5)" stroke-opacity="0" stroke-linejoin="bevel" stroke-miterlimit="10">bigq</text><path fill="none" stroke="rgb(0,0,0)" paint-order="fill" d="M 52.5 205.5 L 52.5 27.5" stroke-opacity="1" stroke-linejoin="bevel" stroke-miterlimit="10"/><path fill="none" stroke="rgb(0,0,0)" paint-order="fill" d="M 46.5 197.5 L 54.5 197.5 M 46.5 158.5 L 54.5 158.5 M 46.5 120.5 L 54.5 120.5 M 46.5 81.5 L 54.5 81.5 M 46.5 43.5 L 54.5 43.5" stroke-opacity="1" stroke-linejoin="bevel" stroke-miterlimit="10"/><path fill="none" stroke="rgb(0,0,0)" paint-order="fill" d="M 48.5 205.5 L 52.5 205.5 M 48.5 197.5 L 52.5 197.5 M 48.5 189.5 L 52.5 189.5 M 48.5 182.5 L 52.5 182.5 M 48.5 174.5 L 52.5 174.5 M 48.5 166.5 L 52.5 166.5 M 48.5 158.5 L 52.5 158.5 M 48.5 151.5 L 52.5 151.5 M 48.5 143.5 L 52.5 143.5 M 48.5 135.5 L 52.5 135.5 M 48.5 128.5 L 52.5 128.5 M 48.5 120.5 L 52.5 120.5 M 48.5 112.5 L 52.5 112.5 M 48.5 105.5 L 52.5 105.5 M 48.5 97.5 L 52.5 97.5 M 48.5 89.5 L 52.5 89.5 M 48.5 81.5 L 52.5 81.5 M 48.5 74.5 L 52.5 74.5 M 48.5 66.5 L 52.5 66.5 M 48.5 58.5 L 52.5 58.5 M 48.5 51.5 L 52.5 51.5 M 48.5 43.5 L 52.5 43.5 M 48.5 35.5 L 52.5 35.5 M 48.5 28.5 L 52.5 28.5" stroke-opacity="1" stroke-linejoin="bevel" stroke-miterlimit="10"/><text fill="rgb(68,68,68)" stroke="none" font-family="helvetica" font-size="11px" font-style="normal" font-weight="normal" text-decoration="normal" x="34.88232421875" y="200.90908813476562" text-anchor="start" dominant-baseline="alphabetic" transform="matrix(1, 0, 0, 1, 0.5, 0.5)" fill-opacity="1">0</text><text fill="none" stroke="rgb(0,0,0)" font-family="helvetica" font-size="11px" font-style="normal" font-weight="normal" text-decoration="normal" x="34.88232421875" y="200.90908813476562" text-anchor="start" dominant-baseline="alphabetic" transform="matrix(1, 0, 0, 1, 0.5, 0.5)" stroke-opacity="0" stroke-linejoin="bevel" stroke-miterlimit="10">0</text><text fill="rgb(68,68,68)" stroke="none" font-family="helvetica" font-size="11px" font-style="normal" font-weight="normal" text-decoration="normal" x="25.70849609375" y="162.42298889160156" text-anchor="start" dominant-baseline="alphabetic" transform="matrix(1, 0, 0, 1, 0.5, 0.5)" fill-opacity="1">0.1</text><text fill="none" stroke="rgb(0,0,0)" font-family="helvetica" font-size="11px" font-style="normal" font-weight="normal" text-decoration="normal" x="25.70849609375" y="162.42298889160156" text-anchor="start" dominant-baseline="alphabetic" transform="matrix(1, 0, 0, 1, 0.5, 0.5)" stroke-opacity="0" stroke-linejoin="bevel" stroke-miterlimit="10">0.1</text><text fill="rgb(68,68,68)" stroke="none" font-family="helvetica" font-size="11px" font-style="normal" font-weight="normal" text-decoration="normal" x="25.70849609375" y="123.93687438964844" text-anchor="start" dominant-baseline="alphabetic" transform="matrix(1, 0, 0, 1, 0.5, 0.5)" fill-opacity="1">0.2</text><text fill="none" stroke="rgb(0,0,0)" font-family="helvetica" font-size="11px" font-style="normal" font-weight="normal" text-decoration="normal" x="25.70849609375" y="123.93687438964844" text-anchor="start" dominant-baseline="alphabetic" transform="matrix(1, 0, 0, 1, 0.5, 0.5)" stroke-opacity="0" stroke-linejoin="bevel" stroke-miterlimit="10">0.2</text><text fill="rgb(68,68,68)" stroke="none" font-family="helvetica" font-size="11px" font-style="normal" font-weight="normal" text-decoration="normal" x="25.70849609375" y="85.45077514648438" text-anchor="start" dominant-baseline="alphabetic" transform="matrix(1, 0, 0, 1, 0.5, 0.5)" fill-opacity="1">0.3</text><text fill="none" stroke="rgb(0,0,0)" font-family="helvetica" font-size="11px" font-style="normal" font-weight="normal" text-decoration="normal" x="25.70849609375" y="85.45077514648438" text-anchor="start" dominant-baseline="alphabetic" transform="matrix(1, 0, 0, 1, 0.5, 0.5)" stroke-opacity="0" stroke-linejoin="bevel" stroke-miterlimit="10">0.3</text><text fill="rgb(68,68,68)" stroke="none" font-family="helvetica" font-size="11px" font-style="normal" font-weight="normal" text-decoration="normal" x="25.70849609375" y="46.964664459228516" text-anchor="start" dominant-baseline="alphabetic" transform="matrix(1, 0, 0, 1, 0.5, 0.5)" fill-opacity="1">0.4</text><text fill="none" stroke="rgb(0,0,0)" font-family="helvetica" font-size="11px" font-style="normal" font-weight="normal" text-decoration="normal" x="25.70849609375" y="46.964664459228516" text-anchor="start" dominant-baseline="alphabetic" transform="matrix(1, 0, 0, 1, 0.5, 0.5)" stroke-opacity="0" stroke-linejoin="bevel" stroke-miterlimit="10">0.4</text><text fill="rgb(68,68,68)" stroke="none" font-family="helvetica" font-size="13px" font-style="italic" font-weight="normal" text-decoration="normal" x="-47.31689453125" y="113" text-anchor="start" dominant-baseline="alphabetic" transform="matrix(6.123233995736766e-17, -1, 1, 6.123233995736766e-17, -97.79150390625, 134.20849609375)" fill-opacity="1">Normalised Probability</text><text fill="none" stroke="rgb(0,0,0)" font-family="helvetica" font-size="13px" font-style="italic" font-weight="normal" text-decoration="normal" x="-47.31689453125" y="113" text-anchor="start" dominant-baseline="alphabetic" transform="matrix(6.123233995736766e-17, -1, 1, 6.123233995736766e-17, -97.79150390625, 134.20849609375)" stroke-opacity="0" stroke-linejoin="bevel" stroke-miterlimit="10">Normalised Probability</text><path fill="rgb(255,249,186)" stroke="rgb(255,0,0)" paint-order="fill" d="M 121.54813127085461 35.59090909090909 L 121.54813127085461 35.59090909090909 L 121.54813127085461 197.4090909090909 L 121.54813127085461 197.4090909090909 L 121.54813127085461 35.59090909090909 Z" fill-opacity="0.4" clip-path="url(#ByqrbeuZOTQf)" stroke-opacity="1" stroke-linejoin="bevel" stroke-miterlimit="10" stroke-width="2" stroke-dasharray="6"/><path fill="rgb(255,249,186)" stroke="rgb(50,205,50)" paint-order="fill" d="M 98.48461446308923 35.59090909090909 L 98.48461446308923 35.59090909090909 L 98.48461446308923 197.4090909090909 L 98.48461446308923 197.4090909090909 L 98.48461446308923 35.59090909090909 Z" fill-opacity="0.4" clip-path="url(#gTdNkxkSITft)" stroke-opacity="1" stroke-linejoin="bevel" stroke-miterlimit="10" stroke-width="2" stroke-dasharray="6"/><text fill="rgb(68,68,68)" stroke="none" font-family="helvetica" font-size="13px" font-style="normal" font-weight="bold" text-decoration="normal" x="52" y="19" text-anchor="start" dominant-baseline="alphabetic" transform="matrix(1, 0, 0, 1, 0.5, 0.5)" fill-opacity="1">Convergance Probability</text><text fill="none" stroke="rgb(0,0,0)" font-family="helvetica" font-size="13px" font-style="normal" font-weight="bold" text-decoration="normal" x="52" y="19" text-anchor="start" dominant-baseline="alphabetic" transform="matrix(1, 0, 0, 1, 0.5, 0.5)" stroke-opacity="0" stroke-miterlimit="10" stroke-dasharray="">Convergance Probability</text></svg>