<svg version="1.1" xmlns="http://www.w3.org/2000/svg" width="250" height="250"><defs><clipPath id="mXxNMoRTWBws"><path fill="none" stroke="none" d="M 52.5 27.5 L 220.5 27.5 L 220.5 205.5 L 52.5 205.5 L 52.5 27.5 Z"/></clipPath><clipPath id="onHhnTSQZTOs"><path fill="none" stroke="none" d="M 52.5 27.5 L 220.5 27.5 L 220.5 205.5 L 52.5 205.5 L 52.5 27.5 Z"/></clipPath><clipPath id="emztVEnZpZUc"><path fill="none" stroke="none" d="M 52.5 27.5 L 220.5 27.5 L 220.5 205.5 L 52.5 205.5 L 52.5 27.5 Z"/></clipPath><clipPath id="FCNBIbHIMzdX"><path fill="none" stroke="none" d="M 52.5 27.5 L 220.5 27.5 L 220.5 205.5 L 52.5 205.5 L 52.5 27.5 Z"/></clipPath><pattern id="aalCaAJpvHPR" width="3" height="3" patternUnits="userSpaceOnUse"><path fill="rgb(0,0,0)" stroke="none" paint-order="stroke" d="M 2.75 2 A 0.75 0.75 0 0 0 1.25 2 A 0.75 0.75 0 0 0 2.75 2" fill-opacity="0.14901960784313725"/></pattern><clipPath id="DAeMdUVLkrsU"><path fill="none" stroke="none" d="M 52.5 27.5 L 220.5 27.5 L 220.5 205.5 L 52.5 205.5 L 52.5 27.5 Z"/></clipPath><clipPath id="IFUkFpIRZNRt"><path fill="none" stroke="none" d="M 52.5 27.5 L 220.5 27.5 L 220.5 205.5 L 52.5 205.5 L 52.5 27.5 Z"/></clipPath><clipPath id="udhJqmubrkBd"><path fill="none" stroke="none" d="M 52.5 27.5 L 220.5 27.5 L 220.5 205.5 L 52.5 205.5 L 52.5 27.5 Z"/></clipPath><clipPath id="skPxrdgeXcEy"><path fill="none" stroke="none" d="M 52.5 27.5 L 220.5 27.5 L 220.5 205.5 L 52.5 205.5 L 52.5 27.5 Z"/></clipPath></defs><path fill="rgb(255,255,255)" stroke="none" paint-order="stroke" d="M 0.5 0.5 L 250.5 0.5 L 250.5 250.5 L 0.5 250.5 L 0.5 0.5 Z" fill-opacity="1"/><rect fill="#FFFFFF" stroke="none" x="52" y="27" width="168" height="178" transform="matrix(1, 0, 0, 1, 0.5, 0.5)"/><path fill="rgb(255,255,255)" stroke="none" paint-order="stroke" d="M 52.5 27.5 L 220.5 27.5 L 220.5 205.5 L 52.5 205.5 L 52.5 27.5 Z" fill-opacity="1"/><path fill="none" stroke="rgb(229,229,229)" paint-order="fill" d="M 52.5 27.5 L 220.5 27.5 L 220.5 205.5 L 52.5 205.5 L 52.5 27.5 Z" stroke-opacity="1" stroke-linejoin="bevel" stroke-miterlimit="10"/><path fill="none" stroke="rgb(229,229,229)" paint-order="fill" d="M 76.5 205.5 L 76.5 27.5 M 101.5 205.5 L 101.5 27.5 M 126.5 205.5 L 126.5 27.5 M 151.5 205.5 L 151.5 27.5 M 177.5 205.5 L 177.5 27.5 M 202.5 205.5 L 202.5 27.5" stroke-opacity="1" stroke-linejoin="bevel" stroke-miterlimit="10" clip-path="url(#mXxNMoRTWBws)"/><path fill="none" stroke="rgb(229,229,229)" paint-order="fill" d="M 52.5 197.5 L 220.5 197.5 M 52.5 168.5 L 220.5 168.5 M 52.5 140.5 L 220.5 140.5 M 52.5 111.5 L 220.5 111.5 M 52.5 82.5 L 220.5 82.5 M 52.5 53.5 L 220.5 53.5" stroke-opacity="1" stroke-linejoin="bevel" stroke-miterlimit="10" clip-path="url(#onHhnTSQZTOs)"/><path fill="none" stroke="rgb(0,0,0)" paint-order="fill" d="M 105.76663208007812 23.963573455810547 L 105.76663208007812 47.21824264526367" stroke-opacity="1" stroke-linejoin="bevel" stroke-miterlimit="10" clip-path="url(#emztVEnZpZUc)"/><path fill="none" stroke="rgb(0,0,0)" paint-order="fill" d="M 161.64547729492188 103.1290283203125 L 161.64547729492188 145.38255310058594" stroke-opacity="1" stroke-linejoin="bevel" stroke-miterlimit="10" clip-path="url(#emztVEnZpZUc)"/><path fill="none" stroke="rgb(0,0,0)" paint-order="fill" d="" stroke-opacity="1" stroke-linejoin="bevel" stroke-miterlimit="10" clip-path="url(#emztVEnZpZUc)"/><path fill="none" stroke="rgb(0,0,0)" paint-order="fill" d="M 100.76663208007812 23.963573455810547 L 110.76663208007812 23.963573455810547" stroke-opacity="1" stroke-linejoin="bevel" stroke-miterlimit="10" clip-path="url(#emztVEnZpZUc)"/><path fill="none" stroke="rgb(0,0,0)" paint-order="fill" d="M 156.64547729492188 103.1290283203125 L 166.64547729492188 103.1290283203125" stroke-opacity="1" stroke-linejoin="bevel" stroke-miterlimit="10" clip-path="url(#emztVEnZpZUc)"/><path fill="none" stroke="rgb(0,0,0)" paint-order="fill" d="M -4.5 0.5000000000000007 L 5.5 0.4999999999999994" stroke-opacity="1" stroke-linejoin="bevel" stroke-miterlimit="10" clip-path="url(#emztVEnZpZUc)"/><path fill="none" stroke="rgb(0,0,0)" paint-order="fill" d="M 110.76663208007812 47.21824264526367 L 100.76663208007812 47.21824264526367" stroke-opacity="1" stroke-linejoin="bevel" stroke-miterlimit="10" clip-path="url(#emztVEnZpZUc)"/><path fill="none" stroke="rgb(0,0,0)" paint-order="fill" d="M 166.64547729492188 145.38255310058594 L 156.64547729492188 145.38255310058594" stroke-opacity="1" stroke-linejoin="bevel" stroke-miterlimit="10" clip-path="url(#emztVEnZpZUc)"/><path fill="none" stroke="rgb(0,0,0)" paint-order="fill" d="M 5.5 0.5 L -4.5 0.5" stroke-opacity="1" stroke-linejoin="bevel" stroke-miterlimit="10" clip-path="url(#emztVEnZpZUc)"/><path fill="rgb(128,128,128)" stroke="none" paint-order="stroke" d="M 77.82720184326172 35.590911865234375 L 189.5849151611328 35.590911865234375 L 189.5849151611328 197.40908813476562 L 77.82720184326172 197.40908813476562 L 77.82720184326172 35.590911865234375 Z" fill-opacity="0.10196078431372549" clip-path="url(#FCNBIbHIMzdX)"/><path fill="url(#aalCaAJpvHPR)" stroke="rgb(0,0,0)" paint-order="fill" d="M 77.82720184326172 35.590911865234375 L 189.5849151611328 35.590911865234375 L 189.5849151611328 197.40908813476562 L 77.82720184326172 197.40908813476562 L 77.82720184326172 35.590911865234375 Z" clip-path="url(#FCNBIbHIMzdX)" stroke-opacity="0.2" stroke-linejoin="bevel" stroke-miterlimit="10"/><path fill="rgb(100,149,237)" stroke="rgb(31,119,180)" paint-order="fill" d="M 77.82720947265625 35.59090805053711 L 133.7060546875 35.59090805053711 L 133.7060546875 197.40908813476562 L 77.82720947265625 197.40908813476562 L 77.82720947265625 35.59090805053711 Z" fill-opacity="0.5019607843137255" clip-path="url(#DAeMdUVLkrsU)" stroke-opacity="0.5019607843137255" stroke-linejoin="bevel" stroke-miterlimit="10"/><path fill="rgb(100,149,237)" stroke="rgb(31,119,180)" paint-order="fill" d="M 133.7060546875 124.25579071044922 L 189.58489990234375 124.25579071044922 L 189.58489990234375 197.40908813476562 L 133.7060546875 197.40908813476562 L 133.7060546875 124.25579071044922 Z" fill-opacity="0.5019607843137255" clip-path="url(#DAeMdUVLkrsU)" stroke-opacity="0.5019607843137255" stroke-linejoin="bevel" stroke-miterlimit="10"/><path fill="rgb(100,149,237)" stroke="rgb(31,119,180)" paint-order="fill" d="M 189.5849151611328 197.40908813476562 L 220.5 197.40908813476562 L 220.5 197.40908813476562 L 189.5849151611328 197.40908813476562 L 189.5849151611328 197.40908813476562 Z" fill-opacity="0.5019607843137255" clip-path="url(#DAeMdUVLkrsU)" stroke-opacity="0.5019607843137255" stroke-linejoin="bevel" stroke-miterlimit="10"/><path fill="none" stroke="rgb(0,0,0)" paint-order="fill" d="M 52.5 205.5 L 220.5 205.5" stroke-opacity="1" stroke-linejoin="bevel" stroke-miterlimit="10"/><path fill="none" stroke="rgb(0,0,0)" paint-order="fill" d="M 76.5 211.5 L 76.5 203.5 M 101.5 211.5 L 101.5 203.5 M 126.5 211.5 L 126.5 203.5 M 151.5 211.5 L 151.5 203.5 M 177.5 211.5 L 177.5 203.5 M 202.5 211.5 L 202.5 203.5" stroke-opacity="1" stroke-linejoin="bevel" stroke-miterlimit="10"/><path fill="none" stroke="rgb(0,0,0)" paint-order="fill" d="M 71.5 209.5 L 71.5 205.5 M 65.5 209.5 L 65.5 205.5 M 60.5 209.5 L 60.5 205.5 M 55.5 209.5 L 55.5 205.5 M 76.5 209.5 L 76.5 205.5 M 81.5 209.5 L 81.5 205.5 M 86.5 209.5 L 86.5 205.5 M 91.5 209.5 L 91.5 205.5 M 96.5 209.5 L 96.5 205.5 M 101.5 209.5 L 101.5 205.5 M 106.5 209.5 L 106.5 205.5 M 111.5 209.5 L 111.5 205.5 M 116.5 209.5 L 116.5 205.5 M 121.5 209.5 L 121.5 205.5 M 126.5 209.5 L 126.5 205.5 M 131.5 209.5 L 131.5 205.5 M 136.5 209.5 L 136.5 205.5 M 141.5 209.5 L 141.5 205.5 M 146.5 209.5 L 146.5 205.5 M 151.5 209.5 L 151.5 205.5 M 156.5 209.5 L 156.5 205.5 M 161.5 209.5 L 161.5 205.5 M 166.5 209.5 L 166.5 205.5 M 171.5 209.5 L 171.5 205.5 M 177.5 209.5 L 177.5 205.5 M 182.5 209.5 L 182.5 205.5 M 187.5 209.5 L 187.5 205.5 M 192.5 209.5 L 192.5 205.5 M 197.5 209.5 L 197.5 205.5 M 202.5 209.5 L 202.5 205.5 M 207.5 209.5 L 207.5 205.5 M 212.5 209.5 L 212.5 205.5 M 217.5 209.5 L 217.5 205.5" stroke-opacity="1" stroke-linejoin="bevel" stroke-miterlimit="10"/><text fill="rgb(68,68,68)" stroke="none" font-family="helvetica" font-size="11px" font-style="normal" font-weight="normal" text-decoration="normal" x="72.50164794921875" y="224" text-anchor="start" dominant-baseline="alphabetic" transform="matrix(1, 0, 0, 1, 0.5, 0.5)" fill-opacity="1">2</text><text fill="none" stroke="rgb(0,0,0)" font-family="helvetica" font-size="11px" font-style="normal" font-weight="normal" text-decoration="normal" x="72.50164794921875" y="224" text-anchor="start" dominant-baseline="alphabetic" transform="matrix(1, 0, 0, 1, 0.5, 0.5)" stroke-opacity="0" stroke-linejoin="bevel" stroke-miterlimit="10">2</text><text fill="rgb(68,68,68)" stroke="none" font-family="helvetica" font-size="11px" font-style="normal" font-weight="normal" text-decoration="normal" x="93.15360260009766" y="224" text-anchor="start" dominant-baseline="alphabetic" transform="matrix(1, 0, 0, 1, 0.5, 0.5)" fill-opacity="1">2.1</text><text fill="none" stroke="rgb(0,0,0)" font-family="helvetica" font-size="11px" font-style="normal" font-weight="normal" text-decoration="normal" x="93.15360260009766" y="224" text-anchor="start" dominant-baseline="alphabetic" transform="matrix(1, 0, 0, 1, 0.5, 0.5)" stroke-opacity="0" stroke-linejoin="bevel" stroke-miterlimit="10">2.1</text><text fill="rgb(68,68,68)" stroke="none" font-family="helvetica" font-size="11px" font-style="normal" font-weight="normal" text-decoration="normal" x="118.39246368408203" y="224" text-anchor="start" dominant-baseline="alphabetic" transform="matrix(1, 0, 0, 1, 0.5, 0.5)" fill-opacity="1">2.2</text><text fill="none" stroke="rgb(0,0,0)" font-family="helvetica" font-size="11px" font-style="normal" font-weight="normal" text-decoration="normal" x="118.39246368408203" y="224" text-anchor="start" dominant-baseline="alphabetic" transform="matrix(1, 0, 0, 1, 0.5, 0.5)" stroke-opacity="0" stroke-linejoin="bevel" stroke-miterlimit="10">2.2</text><text fill="rgb(68,68,68)" stroke="none" font-family="helvetica" font-size="11px" font-style="normal" font-weight="normal" text-decoration="normal" x="143.63133239746094" y="224" text-anchor="start" dominant-baseline="alphabetic" transform="matrix(1, 0, 0, 1, 0.5, 0.5)" fill-opacity="1">2.3</text><text fill="none" stroke="rgb(0,0,0)" font-family="helvetica" font-size="11px" font-style="normal" font-weight="normal" text-decoration="normal" x="143.63133239746094" y="224" text-anchor="start" dominant-baseline="alphabetic" transform="matrix(1, 0, 0, 1, 0.5, 0.5)" stroke-opacity="0" stroke-linejoin="bevel" stroke-miterlimit="10">2.3</text><text fill="rgb(68,68,68)" stroke="none" font-family="helvetica" font-size="11px" font-style="normal" font-weight="normal" text-decoration="normal" x="168.87020874023438" y="224" text-anchor="start" dominant-baseline="alphabetic" transform="matrix(1, 0, 0, 1, 0.5, 0.5)" fill-opacity="1">2.4</text><text fill="none" stroke="rgb(0,0,0)" font-family="helvetica" font-size="11px" font-style="normal" font-weight="normal" text-decoration="normal" x="168.87020874023438" y="224" text-anchor="start" dominant-baseline="alphabetic" transform="matrix(1, 0, 0, 1, 0.5, 0.5)" stroke-opacity="0" stroke-linejoin="bevel" stroke-miterlimit="10">2.4</text><text fill="rgb(68,68,68)" stroke="none" font-family="helvetica" font-size="11px" font-style="normal" font-weight="normal" text-decoration="normal" x="194.10906982421875" y="224" text-anchor="start" dominant-baseline="alphabetic" transform="matrix(1, 0, 0, 1, 0.5, 0.5)" fill-opacity="1">2.5</text><text fill="none" stroke="rgb(0,0,0)" font-family="helvetica" font-size="11px" font-style="normal" font-weight="normal" text-decoration="normal" x="194.10906982421875" y="224" text-anchor="start" dominant-baseline="alphabetic" transform="matrix(1, 0, 0, 1, 0.5, 0.5)" stroke-opacity="0" stroke-linejoin="bevel" stroke-miterlimit="10">2.5</text><text fill="rgb(68,68,68)" stroke="none" font-family="helvetica" font-size="13px" font-style="italic" font-weight="normal" text-decoration="normal" x="122.990478515625" y="244" text-anchor="start" dominant-baseline="alphabetic" transform="matrix(1, 0, 0, 1, 0.5, 0.5)" fill-opacity="1">bore</text><text fill="none" stroke="rgb(0,0,0)" font-family="helvetica" font-size="13px" font-style="italic" font-weight="normal" text-decoration="normal" x="122.990478515625" y="244" text-anchor="start" dominant-baseline="alphabetic" transform="matrix(1, 0, 0, 1, 0.5, 0.5)" stroke-opacity="0" stroke-linejoin="bevel" stroke-miterlimit="10">bore</text><path fill="none" stroke="rgb(0,0,0)" paint-order="fill" d="M 52.5 205.5 L 52.5 27.5" stroke-opacity="1" stroke-linejoin="bevel" stroke-miterlimit="10"/><path fill="none" stroke="rgb(0,0,0)" paint-order="fill" d="M 46.5 197.5 L 54.5 197.5 M 46.5 168.5 L 54.5 168.5 M 46.5 140.5 L 54.5 140.5 M 46.5 111.5 L 54.5 111.5 M 46.5 82.5 L 54.5 82.5 M 46.5 53.5 L 54.5 53.5" stroke-opacity="1" stroke-linejoin="bevel" stroke-miterlimit="10"/><path fill="none" stroke="rgb(0,0,0)" paint-order="fill" d="M 48.5 203.5 L 52.5 203.5 M 48.5 197.5 L 52.5 197.5 M 48.5 191.5 L 52.5 191.5 M 48.5 185.5 L 52.5 185.5 M 48.5 180.5 L 52.5 180.5 M 48.5 174.5 L 52.5 174.5 M 48.5 168.5 L 52.5 168.5 M 48.5 162.5 L 52.5 162.5 M 48.5 157.5 L 52.5 157.5 M 48.5 151.5 L 52.5 151.5 M 48.5 145.5 L 52.5 145.5 M 48.5 140.5 L 52.5 140.5 M 48.5 134.5 L 52.5 134.5 M 48.5 128.5 L 52.5 128.5 M 48.5 122.5 L 52.5 122.5 M 48.5 117.5 L 52.5 117.5 M 48.5 111.5 L 52.5 111.5 M 48.5 105.5 L 52.5 105.5 M 48.5 99.5 L 52.5 99.5 M 48.5 94.5 L 52.5 94.5 M 48.5 88.5 L 52.5 88.5 M 48.5 82.5 L 52.5 82.5 M 48.5 76.5 L 52.5 76.5 M 48.5 71.5 L 52.5 71.5 M 48.5 65.5 L 52.5 65.5 M 48.5 59.5 L 52.5 59.5 M 48.5 53.5 L 52.5 53.5 M 48.5 48.5 L 52.5 48.5 M 48.5 42.5 L 52.5 42.5 M 48.5 36.5 L 52.5 36.5 M 48.5 31.5 L 52.5 31.5" stroke-opacity="1" stroke-linejoin="bevel" stroke-miterlimit="10"/><text fill="rgb(68,68,68)" stroke="none" font-family="helvetica" font-size="11px" font-style="normal" font-weight="normal" text-decoration="normal" x="34.88232421875" y="200.90908813476562" text-anchor="start" dominant-baseline="alphabetic" transform="matrix(1, 0, 0, 1, 0.5, 0.5)" fill-opacity="1">0</text><text fill="none" stroke="rgb(0,0,0)" font-family="helvetica" font-size="11px" font-style="normal" font-weight="normal" text-decoration="normal" x="34.88232421875" y="200.90908813476562" text-anchor="start" dominant-baseline="alphabetic" transform="matrix(1, 0, 0, 1, 0.5, 0.5)" stroke-opacity="0" stroke-linejoin="bevel" stroke-miterlimit="10">0</text><text fill="rgb(68,68,68)" stroke="none" font-family="helvetica" font-size="11px" font-style="normal" font-weight="normal" text-decoration="normal" x="25.70849609375" y="172.22593688964844" text-anchor="start" dominant-baseline="alphabetic" transform="matrix(1, 0, 0, 1, 0.5, 0.5)" fill-opacity="1">0.1</text><text fill="none" stroke="rgb(0,0,0)" font-family="helvetica" font-size="11px" font-style="normal" font-weight="normal" text-decoration="normal" x="25.70849609375" y="172.22593688964844" text-anchor="start" dominant-baseline="alphabetic" transform="matrix(1, 0, 0, 1, 0.5, 0.5)" stroke-opacity="0" stroke-linejoin="bevel" stroke-miterlimit="10">0.1</text><text fill="rgb(68,68,68)" stroke="none" font-family="helvetica" font-size="11px" font-style="normal" font-weight="normal" text-decoration="normal" x="25.70849609375" y="143.5428009033203" text-anchor="start" dominant-baseline="alphabetic" transform="matrix(1, 0, 0, 1, 0.5, 0.5)" fill-opacity="1">0.2</text><text fill="none" stroke="rgb(0,0,0)" font-family="helvetica" font-size="11px" font-style="normal" font-weight="normal" text-decoration="normal" x="25.70849609375" y="143.5428009033203" text-anchor="start" dominant-baseline="alphabetic" transform="matrix(1, 0, 0, 1, 0.5, 0.5)" stroke-opacity="0" stroke-linejoin="bevel" stroke-miterlimit="10">0.2</text><text fill="rgb(68,68,68)" stroke="none" font-family="helvetica" font-size="11px" font-style="normal" font-weight="normal" text-decoration="normal" x="25.70849609375" y="114.85964965820312" text-anchor="start" dominant-baseline="alphabetic" transform="matrix(1, 0, 0, 1, 0.5, 0.5)" fill-opacity="1">0.3</text><text fill="none" stroke="rgb(0,0,0)" font-family="helvetica" font-size="11px" font-style="normal" font-weight="normal" text-decoration="normal" x="25.70849609375" y="114.85964965820312" text-anchor="start" dominant-baseline="alphabetic" transform="matrix(1, 0, 0, 1, 0.5, 0.5)" stroke-opacity="0" stroke-linejoin="bevel" stroke-miterlimit="10">0.3</text><text fill="rgb(68,68,68)" stroke="none" font-family="helvetica" font-size="11px" font-style="normal" font-weight="normal" text-decoration="normal" x="25.70849609375" y="86.17649841308594" text-anchor="start" dominant-baseline="alphabetic" transform="matrix(1, 0, 0, 1, 0.5, 0.5)" fill-opacity="1">0.4</text><text fill="none" stroke="rgb(0,0,0)" font-family="helvetica" font-size="11px" font-style="normal" font-weight="normal" text-decoration="normal" x="25.70849609375" y="86.17649841308594" text-anchor="start" dominant-baseline="alphabetic" transform="matrix(1, 0, 0, 1, 0.5, 0.5)" stroke-opacity="0" stroke-linejoin="bevel" stroke-miterlimit="10">0.4</text><text fill="rgb(68,68,68)" stroke="none" font-family="helvetica" font-size="11px" font-style="normal" font-weight="normal" text-decoration="normal" x="25.70849609375" y="57.49335479736328" text-anchor="start" dominant-baseline="alphabetic" transform="matrix(1, 0, 0, 1, 0.5, 0.5)" fill-opacity="1">0.5</text><text fill="none" stroke="rgb(0,0,0)" font-family="helvetica" font-size="11px" font-style="normal" font-weight="normal" text-decoration="normal" x="25.70849609375" y="57.49335479736328" text-anchor="start" dominant-baseline="alphabetic" transform="matrix(1, 0, 0, 1, 0.5, 0.5)" stroke-opacity="0" stroke-linejoin="bevel" stroke-miterlimit="10">0.5</text><text fill="rgb(68,68,68)" stroke="none" font-family="helvetica" font-size="13px" font-style="italic" font-weight="normal" text-decoration="normal" x="-47.31689453125" y="113" text-anchor="start" dominant-baseline="alphabetic" transform="matrix(6.123233995736766e-17, -1, 1, 6.123233995736766e-17, -97.79150390625, 134.20849609375)" fill-opacity="1">Normalised Probability</text><text fill="none" stroke="rgb(0,0,0)" font-family="helvetica" font-size="13px" font-style="italic" font-weight="normal" text-decoration="normal" x="-47.31689453125" y="113" text-anchor="start" dominant-baseline="alphabetic" transform="matrix(6.123233995736766e-17, -1, 1, 6.123233995736766e-17, -97.79150390625, 134.20849609375)" stroke-opacity="0" stroke-linejoin="bevel" stroke-miterlimit="10">Normalised Probability</text><path fill="rgb(255,249,186)" stroke="rgb(255,0,0)" paint-order="fill" d="M 111.13631879887475 35.59090909090909 L 111.13631879887475 35.59090909090909 L 111.13631879887475 197.4090909090909 L 111.13631879887475 197.4090909090909 L 111.13631879887475 35.59090909090909 Z" fill-opacity="0.4" clip-path="url(#IFUkFpIRZNRt)" stroke-opacity="1" stroke-linejoin="bevel" stroke-miterlimit="10" stroke-width="2" stroke-dasharray="6"/><path fill="rgb(255,249,186)" stroke="rgb(50,205,50)" paint-order="fill" d="M 105.76663061114118 35.59090909090909 L 105.76663061114118 35.59090909090909 L 105.76663061114118 197.4090909090909 L 105.76663061114118 197.4090909090909 L 105.76663061114118 35.59090909090909 Z" fill-opacity="0.4" clip-path="url(#udhJqmubrkBd)" stroke-opacity="1" stroke-linejoin="bevel" stroke-miterlimit="10" stroke-width="2" stroke-dasharray="6"/><text fill="rgb(68,68,68)" stroke="none" font-family="helvetica" font-size="13px" font-style="normal" font-weight="bold" text-decoration="normal" x="52" y="19" text-anchor="start" dominant-baseline="alphabetic" transform="matrix(1, 0, 0, 1, 0.5, 0.5)" fill-opacity="1">Convergance Probability</text><text fill="none" stroke="rgb(0,0,0)" font-family="helvetica" font-size="13px" font-style="normal" font-weight="bold" text-decoration="normal" x="52" y="19" text-anchor="start" dominant-baseline="alphabetic" transform="matrix(1, 0, 0, 1, 0.5, 0.5)" stroke-opacity="0" stroke-miterlimit="10" stroke-dasharray="">Convergance Probability</text></svg>