<svg version="1.1" xmlns="http://www.w3.org/2000/svg" width="275" height="275"><defs><clipPath id="ppsoqqnfIyiI"><path fill="none" stroke="none" d="M 52.5 27.5 L 245.5 27.5 L 245.5 230.5 L 52.5 230.5 L 52.5 27.5 Z"/></clipPath><clipPath id="FlbGhCQnIFPO"><path fill="none" stroke="none" d="M 52.5 27.5 L 245.5 27.5 L 245.5 230.5 L 52.5 230.5 L 52.5 27.5 Z"/></clipPath><clipPath id="gFOmyoBkitaQ"><path fill="none" stroke="none" d="M 52.5 27.5 L 245.5 27.5 L 245.5 230.5 L 52.5 230.5 L 52.5 27.5 Z"/></clipPath><clipPath id="nRGwWPCcewDB"><path fill="none" stroke="none" d="M 52.5 27.5 L 245.5 27.5 L 245.5 230.5 L 52.5 230.5 L 52.5 27.5 Z"/></clipPath><pattern id="EQbpXITToALy" width="3" height="3" patternUnits="userSpaceOnUse"><path fill="rgb(0,0,0)" stroke="none" paint-order="stroke" d="M 2.75 2 A 0.75 0.75 0 0 0 1.25 2 A 0.75 0.75 0 0 0 2.75 2" fill-opacity="0.14901960784313725"/></pattern><clipPath id="UJUgPBrPAOJO"><path fill="none" stroke="none" d="M 52.5 27.5 L 245.5 27.5 L 245.5 230.5 L 52.5 230.5 L 52.5 27.5 Z"/></clipPath><clipPath id="osrSakZThwrV"><path fill="none" stroke="none" d="M 52.5 27.5 L 245.5 27.5 L 245.5 230.5 L 52.5 230.5 L 52.5 27.5 Z"/></clipPath><clipPath id="FQuOBfNrWlOr"><path fill="none" stroke="none" d="M 52.5 27.5 L 245.5 27.5 L 245.5 230.5 L 52.5 230.5 L 52.5 27.5 Z"/></clipPath><clipPath id="lRbtMOQWBGEQ"><path fill="none" stroke="none" d="M 52.5 27.5 L 245.5 27.5 L 245.5 230.5 L 52.5 230.5 L 52.5 27.5 Z"/></clipPath></defs><path fill="rgb(255,255,255)" stroke="none" paint-order="stroke" d="M 0.5 0.5 L 275.5 0.5 L 275.5 275.5 L 0.5 275.5 L 0.5 0.5 Z" fill-opacity="1"/><rect fill="#FFFFFF" stroke="none" x="52" y="27" width="193" height="203" transform="matrix(1, 0, 0, 1, 0.5, 0.5)"/><path fill="rgb(255,255,255)" stroke="none" paint-order="stroke" d="M 52.5 27.5 L 245.5 27.5 L 245.5 230.5 L 52.5 230.5 L 52.5 27.5 Z" fill-opacity="1"/><path fill="none" stroke="rgb(229,229,229)" paint-order="fill" d="M 52.5 27.5 L 245.5 27.5 L 245.5 230.5 L 52.5 230.5 L 52.5 27.5 Z" stroke-opacity="1" stroke-linejoin="bevel" stroke-miterlimit="10"/><path fill="none" stroke="rgb(229,229,229)" paint-order="fill" d="M 62.5 230.5 L 62.5 27.5 M 117.5 230.5 L 117.5 27.5 M 171.5 230.5 L 171.5 27.5 M 226.5 230.5 L 226.5 27.5" stroke-opacity="1" stroke-linejoin="bevel" stroke-miterlimit="10" clip-path="url(#ppsoqqnfIyiI)"/><path fill="none" stroke="rgb(229,229,229)" paint-order="fill" d="M 52.5 221.5 L 245.5 221.5 M 52.5 171.5 L 245.5 171.5 M 52.5 121.5 L 245.5 121.5 M 52.5 71.5 L 245.5 71.5" stroke-opacity="1" stroke-linejoin="bevel" stroke-miterlimit="10" clip-path="url(#FlbGhCQnIFPO)"/><path fill="none" stroke="rgb(0,0,0)" paint-order="fill" d="M 110.17701721191406 21.286495208740234 L 110.17701721191406 52.168052673339844" stroke-opacity="1" stroke-linejoin="bevel" stroke-miterlimit="10" clip-path="url(#gFOmyoBkitaQ)"/><path fill="none" stroke="rgb(0,0,0)" paint-order="fill" d="M 180.76426696777344 190.3882293701172 L 180.76426696777344 194.1761932373047" stroke-opacity="1" stroke-linejoin="bevel" stroke-miterlimit="10" clip-path="url(#gFOmyoBkitaQ)"/><path fill="none" stroke="rgb(0,0,0)" paint-order="fill" d="M 105.17701721191406 21.286495208740234 L 115.17701721191406 21.286495208740234" stroke-opacity="1" stroke-linejoin="bevel" stroke-miterlimit="10" clip-path="url(#gFOmyoBkitaQ)"/><path fill="none" stroke="rgb(0,0,0)" paint-order="fill" d="M 175.76426696777344 190.3882293701172 L 185.76426696777344 190.3882293701172" stroke-opacity="1" stroke-linejoin="bevel" stroke-miterlimit="10" clip-path="url(#gFOmyoBkitaQ)"/><path fill="none" stroke="rgb(0,0,0)" paint-order="fill" d="M 115.17701721191406 52.168052673339844 L 105.17701721191406 52.168052673339844" stroke-opacity="1" stroke-linejoin="bevel" stroke-miterlimit="10" clip-path="url(#gFOmyoBkitaQ)"/><path fill="none" stroke="rgb(0,0,0)" paint-order="fill" d="M 185.76426696777344 194.1761932373047 L 175.76426696777344 194.1761932373047" stroke-opacity="1" stroke-linejoin="bevel" stroke-miterlimit="10" clip-path="url(#gFOmyoBkitaQ)"/><path fill="rgb(128,128,128)" stroke="none" paint-order="stroke" d="M 74.88339233398438 36.727272033691406 L 216.05787658691406 36.727272033691406 L 216.05787658691406 221.27273559570312 L 74.88339233398438 221.27273559570312 L 74.88339233398438 36.727272033691406 Z" fill-opacity="0.10196078431372549" clip-path="url(#nRGwWPCcewDB)"/><path fill="url(#EQbpXITToALy)" stroke="rgb(0,0,0)" paint-order="fill" d="M 74.88339233398438 36.727272033691406 L 216.05787658691406 36.727272033691406 L 216.05787658691406 221.27273559570312 L 74.88339233398438 221.27273559570312 L 74.88339233398438 36.727272033691406 Z" clip-path="url(#nRGwWPCcewDB)" stroke-opacity="0.2" stroke-linejoin="bevel" stroke-miterlimit="10"/><path fill="rgb(100,149,237)" stroke="rgb(31,119,180)" paint-order="fill" d="M 74.88339233398438 36.727272033691406 L 145.47064208984375 36.727272033691406 L 145.47064208984375 221.27272033691406 L 74.88339233398438 221.27272033691406 L 74.88339233398438 36.727272033691406 Z" fill-opacity="0.5019607843137255" clip-path="url(#UJUgPBrPAOJO)" stroke-opacity="0.5019607843137255" stroke-linejoin="bevel" stroke-miterlimit="10"/><path fill="rgb(100,149,237)" stroke="rgb(31,119,180)" paint-order="fill" d="M 145.47064208984375 192.28221130371094 L 216.05789184570312 192.28221130371094 L 216.05789184570312 221.27272033691406 L 145.47064208984375 221.27272033691406 L 145.47064208984375 192.28221130371094 Z" fill-opacity="0.5019607843137255" clip-path="url(#UJUgPBrPAOJO)" stroke-opacity="0.5019607843137255" stroke-linejoin="bevel" stroke-miterlimit="10"/><path fill="none" stroke="rgb(0,0,0)" paint-order="fill" d="M 52.5 230.5 L 245.5 230.5" stroke-opacity="1" stroke-linejoin="bevel" stroke-miterlimit="10"/><path fill="none" stroke="rgb(0,0,0)" paint-order="fill" d="M 62.5 236.5 L 62.5 228.5 M 117.5 236.5 L 117.5 228.5 M 171.5 236.5 L 171.5 228.5 M 226.5 236.5 L 226.5 228.5" stroke-opacity="1" stroke-linejoin="bevel" stroke-miterlimit="10"/><path fill="none" stroke="rgb(0,0,0)" paint-order="fill" d="M 62.5 234.5 L 62.5 230.5 M 73.5 234.5 L 73.5 230.5 M 84.5 234.5 L 84.5 230.5 M 95.5 234.5 L 95.5 230.5 M 106.5 234.5 L 106.5 230.5 M 117.5 234.5 L 117.5 230.5 M 128.5 234.5 L 128.5 230.5 M 139.5 234.5 L 139.5 230.5 M 149.5 234.5 L 149.5 230.5 M 160.5 234.5 L 160.5 230.5 M 171.5 234.5 L 171.5 230.5 M 182.5 234.5 L 182.5 230.5 M 193.5 234.5 L 193.5 230.5 M 204.5 234.5 L 204.5 230.5 M 215.5 234.5 L 215.5 230.5 M 226.5 234.5 L 226.5 230.5 M 237.5 234.5 L 237.5 230.5" stroke-opacity="1" stroke-linejoin="bevel" stroke-miterlimit="10"/><text fill="rgb(68,68,68)" stroke="none" font-family="helvetica" font-size="11px" font-style="normal" font-weight="normal" text-decoration="normal" x="59.27958297729492" y="249" text-anchor="start" dominant-baseline="alphabetic" transform="matrix(1, 0, 0, 1, 0.5, 0.5)" fill-opacity="1">4</text><text fill="none" stroke="rgb(0,0,0)" font-family="helvetica" font-size="11px" font-style="normal" font-weight="normal" text-decoration="normal" x="59.27958297729492" y="249" text-anchor="start" dominant-baseline="alphabetic" transform="matrix(1, 0, 0, 1, 0.5, 0.5)" stroke-opacity="0" stroke-linejoin="bevel" stroke-miterlimit="10">4</text><text fill="rgb(68,68,68)" stroke="none" font-family="helvetica" font-size="11px" font-style="normal" font-weight="normal" text-decoration="normal" x="109.1455307006836" y="249" text-anchor="start" dominant-baseline="alphabetic" transform="matrix(1, 0, 0, 1, 0.5, 0.5)" fill-opacity="1">4.5</text><text fill="none" stroke="rgb(0,0,0)" font-family="helvetica" font-size="11px" font-style="normal" font-weight="normal" text-decoration="normal" x="109.1455307006836" y="249" text-anchor="start" dominant-baseline="alphabetic" transform="matrix(1, 0, 0, 1, 0.5, 0.5)" stroke-opacity="0" stroke-linejoin="bevel" stroke-miterlimit="10">4.5</text><text fill="rgb(68,68,68)" stroke="none" font-family="helvetica" font-size="11px" font-style="normal" font-weight="normal" text-decoration="normal" x="168.185302734375" y="249" text-anchor="start" dominant-baseline="alphabetic" transform="matrix(1, 0, 0, 1, 0.5, 0.5)" fill-opacity="1">5</text><text fill="none" stroke="rgb(0,0,0)" font-family="helvetica" font-size="11px" font-style="normal" font-weight="normal" text-decoration="normal" x="168.185302734375" y="249" text-anchor="start" dominant-baseline="alphabetic" transform="matrix(1, 0, 0, 1, 0.5, 0.5)" stroke-opacity="0" stroke-linejoin="bevel" stroke-miterlimit="10">5</text><text fill="rgb(68,68,68)" stroke="none" font-family="helvetica" font-size="11px" font-style="normal" font-weight="normal" text-decoration="normal" x="218.05125427246094" y="249" text-anchor="start" dominant-baseline="alphabetic" transform="matrix(1, 0, 0, 1, 0.5, 0.5)" fill-opacity="1">5.5</text><text fill="none" stroke="rgb(0,0,0)" font-family="helvetica" font-size="11px" font-style="normal" font-weight="normal" text-decoration="normal" x="218.05125427246094" y="249" text-anchor="start" dominant-baseline="alphabetic" transform="matrix(1, 0, 0, 1, 0.5, 0.5)" stroke-opacity="0" stroke-linejoin="bevel" stroke-miterlimit="10">5.5</text><text fill="rgb(68,68,68)" stroke="none" font-family="helvetica" font-size="13px" font-style="italic" font-weight="normal" text-decoration="normal" x="143.0791015625" y="269" text-anchor="start" dominant-baseline="alphabetic" transform="matrix(1, 0, 0, 1, 0.5, 0.5)" fill-opacity="1">bt</text><text fill="none" stroke="rgb(0,0,0)" font-family="helvetica" font-size="13px" font-style="italic" font-weight="normal" text-decoration="normal" x="143.0791015625" y="269" text-anchor="start" dominant-baseline="alphabetic" transform="matrix(1, 0, 0, 1, 0.5, 0.5)" stroke-opacity="0" stroke-linejoin="bevel" stroke-miterlimit="10">bt</text><path fill="none" stroke="rgb(0,0,0)" paint-order="fill" d="M 52.5 230.5 L 52.5 27.5" stroke-opacity="1" stroke-linejoin="bevel" stroke-miterlimit="10"/><path fill="none" stroke="rgb(0,0,0)" paint-order="fill" d="M 46.5 221.5 L 54.5 221.5 M 46.5 171.5 L 54.5 171.5 M 46.5 121.5 L 54.5 121.5 M 46.5 71.5 L 54.5 71.5" stroke-opacity="1" stroke-linejoin="bevel" stroke-miterlimit="10"/><path fill="none" stroke="rgb(0,0,0)" paint-order="fill" d="M 48.5 221.5 L 52.5 221.5 M 48.5 211.5 L 52.5 211.5 M 48.5 201.5 L 52.5 201.5 M 48.5 191.5 L 52.5 191.5 M 48.5 181.5 L 52.5 181.5 M 48.5 171.5 L 52.5 171.5 M 48.5 161.5 L 52.5 161.5 M 48.5 151.5 L 52.5 151.5 M 48.5 141.5 L 52.5 141.5 M 48.5 131.5 L 52.5 131.5 M 48.5 121.5 L 52.5 121.5 M 48.5 111.5 L 52.5 111.5 M 48.5 101.5 L 52.5 101.5 M 48.5 91.5 L 52.5 91.5 M 48.5 81.5 L 52.5 81.5 M 48.5 71.5 L 52.5 71.5 M 48.5 61.5 L 52.5 61.5 M 48.5 51.5 L 52.5 51.5 M 48.5 41.5 L 52.5 41.5 M 48.5 31.5 L 52.5 31.5" stroke-opacity="1" stroke-linejoin="bevel" stroke-miterlimit="10"/><text fill="rgb(68,68,68)" stroke="none" font-family="helvetica" font-size="11px" font-style="normal" font-weight="normal" text-decoration="normal" x="34.88232421875" y="224.77272033691406" text-anchor="start" dominant-baseline="alphabetic" transform="matrix(1, 0, 0, 1, 0.5, 0.5)" fill-opacity="1">0</text><text fill="none" stroke="rgb(0,0,0)" font-family="helvetica" font-size="11px" font-style="normal" font-weight="normal" text-decoration="normal" x="34.88232421875" y="224.77272033691406" text-anchor="start" dominant-baseline="alphabetic" transform="matrix(1, 0, 0, 1, 0.5, 0.5)" stroke-opacity="0" stroke-linejoin="bevel" stroke-miterlimit="10">0</text><text fill="rgb(68,68,68)" stroke="none" font-family="helvetica" font-size="11px" font-style="normal" font-weight="normal" text-decoration="normal" x="25.70849609375" y="174.8649139404297" text-anchor="start" dominant-baseline="alphabetic" transform="matrix(1, 0, 0, 1, 0.5, 0.5)" fill-opacity="1">0.2</text><text fill="none" stroke="rgb(0,0,0)" font-family="helvetica" font-size="11px" font-style="normal" font-weight="normal" text-decoration="normal" x="25.70849609375" y="174.8649139404297" text-anchor="start" dominant-baseline="alphabetic" transform="matrix(1, 0, 0, 1, 0.5, 0.5)" stroke-opacity="0" stroke-linejoin="bevel" stroke-miterlimit="10">0.2</text><text fill="rgb(68,68,68)" stroke="none" font-family="helvetica" font-size="11px" font-style="normal" font-weight="normal" text-decoration="normal" x="25.70849609375" y="124.95709991455078" text-anchor="start" dominant-baseline="alphabetic" transform="matrix(1, 0, 0, 1, 0.5, 0.5)" fill-opacity="1">0.4</text><text fill="none" stroke="rgb(0,0,0)" font-family="helvetica" font-size="11px" font-style="normal" font-weight="normal" text-decoration="normal" x="25.70849609375" y="124.95709991455078" text-anchor="start" dominant-baseline="alphabetic" transform="matrix(1, 0, 0, 1, 0.5, 0.5)" stroke-opacity="0" stroke-linejoin="bevel" stroke-miterlimit="10">0.4</text><text fill="rgb(68,68,68)" stroke="none" font-family="helvetica" font-size="11px" font-style="normal" font-weight="normal" text-decoration="normal" x="25.70849609375" y="75.04928588867188" text-anchor="start" dominant-baseline="alphabetic" transform="matrix(1, 0, 0, 1, 0.5, 0.5)" fill-opacity="1">0.6</text><text fill="none" stroke="rgb(0,0,0)" font-family="helvetica" font-size="11px" font-style="normal" font-weight="normal" text-decoration="normal" x="25.70849609375" y="75.04928588867188" text-anchor="start" dominant-baseline="alphabetic" transform="matrix(1, 0, 0, 1, 0.5, 0.5)" stroke-opacity="0" stroke-linejoin="bevel" stroke-miterlimit="10">0.6</text><text fill="rgb(68,68,68)" stroke="none" font-family="helvetica" font-size="13px" font-style="italic" font-weight="normal" text-decoration="normal" x="-47.31689453125" y="125.5" text-anchor="start" dominant-baseline="alphabetic" transform="matrix(6.123233995736766e-17, -1, 1, 6.123233995736766e-17, -110.29150390625, 146.70849609375)" fill-opacity="1">Normalised Probability</text><text fill="none" stroke="rgb(0,0,0)" font-family="helvetica" font-size="13px" font-style="italic" font-weight="normal" text-decoration="normal" x="-47.31689453125" y="125.5" text-anchor="start" dominant-baseline="alphabetic" transform="matrix(6.123233995736766e-17, -1, 1, 6.123233995736766e-17, -110.29150390625, 146.70849609375)" stroke-opacity="0" stroke-linejoin="bevel" stroke-miterlimit="10">Normalised Probability</text><path fill="rgb(255,249,186)" stroke="rgb(255,0,0)" paint-order="fill" d="M 144.7584584081211 36.72727272727275 L 144.7584584081211 36.72727272727275 L 144.7584584081211 221.27272727272728 L 144.7584584081211 221.27272727272728 L 144.7584584081211 36.72727272727275 Z" fill-opacity="0.4" clip-path="url(#osrSakZThwrV)" stroke-opacity="1" stroke-linejoin="bevel" stroke-miterlimit="10" stroke-width="2" stroke-dasharray="6"/><path fill="rgb(255,249,186)" stroke="rgb(50,205,50)" paint-order="fill" d="M 110.17701553176187 36.72727272727275 L 110.17701553176187 36.72727272727275 L 110.17701553176187 221.27272727272728 L 110.17701553176187 221.27272727272728 L 110.17701553176187 36.72727272727275 Z" fill-opacity="0.4" clip-path="url(#FQuOBfNrWlOr)" stroke-opacity="1" stroke-linejoin="bevel" stroke-miterlimit="10" stroke-width="2" stroke-dasharray="6"/><text fill="rgb(68,68,68)" stroke="none" font-family="helvetica" font-size="13px" font-style="normal" font-weight="bold" text-decoration="normal" x="52" y="19" text-anchor="start" dominant-baseline="alphabetic" transform="matrix(1, 0, 0, 1, 0.5, 0.5)" fill-opacity="1">Convergance Probability</text><text fill="none" stroke="rgb(0,0,0)" font-family="helvetica" font-size="13px" font-style="normal" font-weight="bold" text-decoration="normal" x="52" y="19" text-anchor="start" dominant-baseline="alphabetic" transform="matrix(1, 0, 0, 1, 0.5, 0.5)" stroke-opacity="0" stroke-miterlimit="10" stroke-dasharray="">Convergance Probability</text></svg>