<svg version="1.1" xmlns="http://www.w3.org/2000/svg" width="250" height="250"><defs><clipPath id="PProSNqXdXBO"><path fill="none" stroke="none" d="M 52.5 27.5 L 220.5 27.5 L 220.5 205.5 L 52.5 205.5 L 52.5 27.5 Z"/></clipPath><clipPath id="FxVDvDqwQrcC"><path fill="none" stroke="none" d="M 52.5 27.5 L 220.5 27.5 L 220.5 205.5 L 52.5 205.5 L 52.5 27.5 Z"/></clipPath><clipPath id="mIkdemsDRbTH"><path fill="none" stroke="none" d="M 52.5 27.5 L 220.5 27.5 L 220.5 205.5 L 52.5 205.5 L 52.5 27.5 Z"/></clipPath><clipPath id="hXZPckZQwkGz"><path fill="none" stroke="none" d="M 52.5 27.5 L 220.5 27.5 L 220.5 205.5 L 52.5 205.5 L 52.5 27.5 Z"/></clipPath><pattern id="ctlsuAbqVUTo" width="3" height="3" patternUnits="userSpaceOnUse"><path fill="rgb(0,0,0)" stroke="none" paint-order="stroke" d="M 2.75 2 A 0.75 0.75 0 0 0 1.25 2 A 0.75 0.75 0 0 0 2.75 2" fill-opacity="0.14901960784313725"/></pattern><clipPath id="ENKazmiRuRxI"><path fill="none" stroke="none" d="M 52.5 27.5 L 220.5 27.5 L 220.5 205.5 L 52.5 205.5 L 52.5 27.5 Z"/></clipPath><clipPath id="awDakuAlzkXF"><path fill="none" stroke="none" d="M 52.5 27.5 L 220.5 27.5 L 220.5 205.5 L 52.5 205.5 L 52.5 27.5 Z"/></clipPath><clipPath id="FvdvyRpiyyrG"><path fill="none" stroke="none" d="M 52.5 27.5 L 220.5 27.5 L 220.5 205.5 L 52.5 205.5 L 52.5 27.5 Z"/></clipPath><clipPath id="JwKlvhHaehHm"><path fill="none" stroke="none" d="M 52.5 27.5 L 220.5 27.5 L 220.5 205.5 L 52.5 205.5 L 52.5 27.5 Z"/></clipPath></defs><path fill="rgb(255,255,255)" stroke="none" paint-order="stroke" d="M 0.5 0.5 L 250.5 0.5 L 250.5 250.5 L 0.5 250.5 L 0.5 0.5 Z" fill-opacity="1"/><rect fill="#FFFFFF" stroke="none" x="52" y="27" width="168" height="178" transform="matrix(1, 0, 0, 1, 0.5, 0.5)"/><path fill="rgb(255,255,255)" stroke="none" paint-order="stroke" d="M 52.5 27.5 L 220.5 27.5 L 220.5 205.5 L 52.5 205.5 L 52.5 27.5 Z" fill-opacity="1"/><path fill="none" stroke="rgb(229,229,229)" paint-order="fill" d="M 52.5 27.5 L 220.5 27.5 L 220.5 205.5 L 52.5 205.5 L 52.5 27.5 Z" stroke-opacity="1" stroke-linejoin="bevel" stroke-miterlimit="10"/><path fill="none" stroke="rgb(229,229,229)" paint-order="fill" d="M 67.5 205.5 L 67.5 27.5 M 109.5 205.5 L 109.5 27.5 M 150.5 205.5 L 150.5 27.5 M 192.5 205.5 L 192.5 27.5" stroke-opacity="1" stroke-linejoin="bevel" stroke-miterlimit="10" clip-path="url(#PProSNqXdXBO)"/><path fill="none" stroke="rgb(229,229,229)" paint-order="fill" d="M 52.5 197.5 L 220.5 197.5 M 52.5 174.5 L 220.5 174.5 M 52.5 150.5 L 220.5 150.5 M 52.5 127.5 L 220.5 127.5 M 52.5 104.5 L 220.5 104.5 M 52.5 81.5 L 220.5 81.5 M 52.5 58.5 L 220.5 58.5 M 52.5 34.5 L 220.5 34.5" stroke-opacity="1" stroke-linejoin="bevel" stroke-miterlimit="10" clip-path="url(#FxVDvDqwQrcC)"/><path fill="none" stroke="rgb(0,0,0)" paint-order="fill" d="M 105.91447448730469 88.94094848632812 L 105.91447448730469 110.442626953125" stroke-opacity="1" stroke-linejoin="bevel" stroke-miterlimit="10" clip-path="url(#mIkdemsDRbTH)"/><path fill="none" stroke="rgb(0,0,0)" paint-order="fill" d="M 161.52452087402344 20.710233688354492 L 161.52452087402344 50.47158432006836" stroke-opacity="1" stroke-linejoin="bevel" stroke-miterlimit="10" clip-path="url(#mIkdemsDRbTH)"/><path fill="none" stroke="rgb(0,0,0)" paint-order="fill" d="" stroke-opacity="1" stroke-linejoin="bevel" stroke-miterlimit="10" clip-path="url(#mIkdemsDRbTH)"/><path fill="none" stroke="rgb(0,0,0)" paint-order="fill" d="M 100.91447448730469 88.94094848632812 L 110.91447448730469 88.94094848632812" stroke-opacity="1" stroke-linejoin="bevel" stroke-miterlimit="10" clip-path="url(#mIkdemsDRbTH)"/><path fill="none" stroke="rgb(0,0,0)" paint-order="fill" d="M 156.52452087402344 20.710233688354492 L 166.52452087402344 20.710233688354492" stroke-opacity="1" stroke-linejoin="bevel" stroke-miterlimit="10" clip-path="url(#mIkdemsDRbTH)"/><path fill="none" stroke="rgb(0,0,0)" paint-order="fill" d="M -4.5 0.5000000000000007 L 5.5 0.4999999999999994" stroke-opacity="1" stroke-linejoin="bevel" stroke-miterlimit="10" clip-path="url(#mIkdemsDRbTH)"/><path fill="none" stroke="rgb(0,0,0)" paint-order="fill" d="M 110.91447448730469 110.442626953125 L 100.91447448730469 110.442626953125" stroke-opacity="1" stroke-linejoin="bevel" stroke-miterlimit="10" clip-path="url(#mIkdemsDRbTH)"/><path fill="none" stroke="rgb(0,0,0)" paint-order="fill" d="M 166.52452087402344 50.47158432006836 L 156.52452087402344 50.47158432006836" stroke-opacity="1" stroke-linejoin="bevel" stroke-miterlimit="10" clip-path="url(#mIkdemsDRbTH)"/><path fill="none" stroke="rgb(0,0,0)" paint-order="fill" d="M 5.5 0.5 L -4.5 0.5" stroke-opacity="1" stroke-linejoin="bevel" stroke-miterlimit="10" clip-path="url(#mIkdemsDRbTH)"/><path fill="rgb(128,128,128)" stroke="none" paint-order="stroke" d="M 78.10945129394531 35.590911865234375 L 189.3295440673828 35.590911865234375 L 189.3295440673828 197.40908813476562 L 78.10945129394531 197.40908813476562 L 78.10945129394531 35.590911865234375 Z" fill-opacity="0.10196078431372549" clip-path="url(#hXZPckZQwkGz)"/><path fill="url(#ctlsuAbqVUTo)" stroke="rgb(0,0,0)" paint-order="fill" d="M 78.10945129394531 35.590911865234375 L 189.3295440673828 35.590911865234375 L 189.3295440673828 197.40908813476562 L 78.10945129394531 197.40908813476562 L 78.10945129394531 35.590911865234375 Z" clip-path="url(#hXZPckZQwkGz)" stroke-opacity="0.2" stroke-linejoin="bevel" stroke-miterlimit="10"/><path fill="rgb(100,149,237)" stroke="rgb(31,119,180)" paint-order="fill" d="M 78.10945129394531 99.69178771972656 L 133.71949768066406 99.69178771972656 L 133.71949768066406 197.40908813476562 L 78.10945129394531 197.40908813476562 L 78.10945129394531 99.69178771972656 Z" fill-opacity="0.5019607843137255" clip-path="url(#ENKazmiRuRxI)" stroke-opacity="0.5019607843137255" stroke-linejoin="bevel" stroke-miterlimit="10"/><path fill="rgb(100,149,237)" stroke="rgb(31,119,180)" paint-order="fill" d="M 133.71949768066406 35.59090805053711 L 189.3295440673828 35.59090805053711 L 189.3295440673828 197.40908813476562 L 133.71949768066406 197.40908813476562 L 133.71949768066406 35.59090805053711 Z" fill-opacity="0.5019607843137255" clip-path="url(#ENKazmiRuRxI)" stroke-opacity="0.5019607843137255" stroke-linejoin="bevel" stroke-miterlimit="10"/><path fill="rgb(100,149,237)" stroke="rgb(31,119,180)" paint-order="fill" d="M 189.3295440673828 197.40908813476562 L 220.5 197.40908813476562 L 220.5 197.40908813476562 L 189.3295440673828 197.40908813476562 L 189.3295440673828 197.40908813476562 Z" fill-opacity="0.5019607843137255" clip-path="url(#ENKazmiRuRxI)" stroke-opacity="0.5019607843137255" stroke-linejoin="bevel" stroke-miterlimit="10"/><path fill="none" stroke="rgb(0,0,0)" paint-order="fill" d="M 52.5 205.5 L 220.5 205.5" stroke-opacity="1" stroke-linejoin="bevel" stroke-miterlimit="10"/><path fill="none" stroke="rgb(0,0,0)" paint-order="fill" d="M 67.5 211.5 L 67.5 203.5 M 109.5 211.5 L 109.5 203.5 M 150.5 211.5 L 150.5 203.5 M 192.5 211.5 L 192.5 203.5" stroke-opacity="1" stroke-linejoin="bevel" stroke-miterlimit="10"/><path fill="none" stroke="rgb(0,0,0)" paint-order="fill" d="M 58.5 209.5 L 58.5 205.5 M 67.5 209.5 L 67.5 205.5 M 75.5 209.5 L 75.5 205.5 M 84.5 209.5 L 84.5 205.5 M 92.5 209.5 L 92.5 205.5 M 100.5 209.5 L 100.5 205.5 M 109.5 209.5 L 109.5 205.5 M 117.5 209.5 L 117.5 205.5 M 125.5 209.5 L 125.5 205.5 M 134.5 209.5 L 134.5 205.5 M 142.5 209.5 L 142.5 205.5 M 150.5 209.5 L 150.5 205.5 M 159.5 209.5 L 159.5 205.5 M 167.5 209.5 L 167.5 205.5 M 175.5 209.5 L 175.5 205.5 M 184.5 209.5 L 184.5 205.5 M 192.5 209.5 L 192.5 205.5 M 200.5 209.5 L 200.5 205.5 M 209.5 209.5 L 209.5 205.5 M 217.5 209.5 L 217.5 205.5" stroke-opacity="1" stroke-linejoin="bevel" stroke-miterlimit="10"/><text fill="rgb(68,68,68)" stroke="none" font-family="helvetica" font-size="11px" font-style="normal" font-weight="normal" text-decoration="normal" x="43.69524383544922" y="224" text-anchor="start" dominant-baseline="alphabetic" transform="matrix(1, 0, 0, 1, 0.5, 0.5)" fill-opacity="1">1.200e+7</text><text fill="none" stroke="rgb(0,0,0)" font-family="helvetica" font-size="11px" font-style="normal" font-weight="normal" text-decoration="normal" x="43.69524383544922" y="224" text-anchor="start" dominant-baseline="alphabetic" transform="matrix(1, 0, 0, 1, 0.5, 0.5)" stroke-opacity="0" stroke-linejoin="bevel" stroke-miterlimit="10">1.200e+7</text><text fill="rgb(68,68,68)" stroke="none" font-family="helvetica" font-size="11px" font-style="normal" font-weight="normal" text-decoration="normal" x="85.47589874267578" y="224" text-anchor="start" dominant-baseline="alphabetic" transform="matrix(1, 0, 0, 1, 0.5, 0.5)" fill-opacity="1">1.300e+7</text><text fill="none" stroke="rgb(0,0,0)" font-family="helvetica" font-size="11px" font-style="normal" font-weight="normal" text-decoration="normal" x="85.47589874267578" y="224" text-anchor="start" dominant-baseline="alphabetic" transform="matrix(1, 0, 0, 1, 0.5, 0.5)" stroke-opacity="0" stroke-linejoin="bevel" stroke-miterlimit="10">1.300e+7</text><text fill="rgb(68,68,68)" stroke="none" font-family="helvetica" font-size="11px" font-style="normal" font-weight="normal" text-decoration="normal" x="127.25654602050781" y="224" text-anchor="start" dominant-baseline="alphabetic" transform="matrix(1, 0, 0, 1, 0.5, 0.5)" fill-opacity="1">1.400e+7</text><text fill="none" stroke="rgb(0,0,0)" font-family="helvetica" font-size="11px" font-style="normal" font-weight="normal" text-decoration="normal" x="127.25654602050781" y="224" text-anchor="start" dominant-baseline="alphabetic" transform="matrix(1, 0, 0, 1, 0.5, 0.5)" stroke-opacity="0" stroke-linejoin="bevel" stroke-miterlimit="10">1.400e+7</text><text fill="rgb(68,68,68)" stroke="none" font-family="helvetica" font-size="11px" font-style="normal" font-weight="normal" text-decoration="normal" x="169.03720092773438" y="224" text-anchor="start" dominant-baseline="alphabetic" transform="matrix(1, 0, 0, 1, 0.5, 0.5)" fill-opacity="1">1.500e+7</text><text fill="none" stroke="rgb(0,0,0)" font-family="helvetica" font-size="11px" font-style="normal" font-weight="normal" text-decoration="normal" x="169.03720092773438" y="224" text-anchor="start" dominant-baseline="alphabetic" transform="matrix(1, 0, 0, 1, 0.5, 0.5)" stroke-opacity="0" stroke-linejoin="bevel" stroke-miterlimit="10">1.500e+7</text><text fill="rgb(68,68,68)" stroke="none" font-family="helvetica" font-size="13px" font-style="italic" font-weight="normal" text-decoration="normal" x="114.675048828125" y="244" text-anchor="start" dominant-baseline="alphabetic" transform="matrix(1, 0, 0, 1, 0.5, 0.5)" fill-opacity="1">cohbop</text><text fill="none" stroke="rgb(0,0,0)" font-family="helvetica" font-size="13px" font-style="italic" font-weight="normal" text-decoration="normal" x="114.675048828125" y="244" text-anchor="start" dominant-baseline="alphabetic" transform="matrix(1, 0, 0, 1, 0.5, 0.5)" stroke-opacity="0" stroke-linejoin="bevel" stroke-miterlimit="10">cohbop</text><path fill="none" stroke="rgb(0,0,0)" paint-order="fill" d="M 52.5 205.5 L 52.5 27.5" stroke-opacity="1" stroke-linejoin="bevel" stroke-miterlimit="10"/><path fill="none" stroke="rgb(0,0,0)" paint-order="fill" d="M 46.5 197.5 L 54.5 197.5 M 46.5 174.5 L 54.5 174.5 M 46.5 150.5 L 54.5 150.5 M 46.5 127.5 L 54.5 127.5 M 46.5 104.5 L 54.5 104.5 M 46.5 81.5 L 54.5 81.5 M 46.5 58.5 L 54.5 58.5 M 46.5 34.5 L 54.5 34.5" stroke-opacity="1" stroke-linejoin="bevel" stroke-miterlimit="10"/><path fill="none" stroke="rgb(0,0,0)" paint-order="fill" d="M 48.5 202.5 L 52.5 202.5 M 48.5 197.5 L 52.5 197.5 M 48.5 192.5 L 52.5 192.5 M 48.5 188.5 L 52.5 188.5 M 48.5 183.5 L 52.5 183.5 M 48.5 178.5 L 52.5 178.5 M 48.5 174.5 L 52.5 174.5 M 48.5 169.5 L 52.5 169.5 M 48.5 164.5 L 52.5 164.5 M 48.5 160.5 L 52.5 160.5 M 48.5 155.5 L 52.5 155.5 M 48.5 150.5 L 52.5 150.5 M 48.5 146.5 L 52.5 146.5 M 48.5 141.5 L 52.5 141.5 M 48.5 137.5 L 52.5 137.5 M 48.5 132.5 L 52.5 132.5 M 48.5 127.5 L 52.5 127.5 M 48.5 123.5 L 52.5 123.5 M 48.5 118.5 L 52.5 118.5 M 48.5 113.5 L 52.5 113.5 M 48.5 109.5 L 52.5 109.5 M 48.5 104.5 L 52.5 104.5 M 48.5 99.5 L 52.5 99.5 M 48.5 95.5 L 52.5 95.5 M 48.5 90.5 L 52.5 90.5 M 48.5 85.5 L 52.5 85.5 M 48.5 81.5 L 52.5 81.5 M 48.5 76.5 L 52.5 76.5 M 48.5 71.5 L 52.5 71.5 M 48.5 67.5 L 52.5 67.5 M 48.5 62.5 L 52.5 62.5 M 48.5 58.5 L 52.5 58.5 M 48.5 53.5 L 52.5 53.5 M 48.5 48.5 L 52.5 48.5 M 48.5 44.5 L 52.5 44.5 M 48.5 39.5 L 52.5 39.5 M 48.5 34.5 L 52.5 34.5 M 48.5 30.5 L 52.5 30.5" stroke-opacity="1" stroke-linejoin="bevel" stroke-miterlimit="10"/><text fill="rgb(68,68,68)" stroke="none" font-family="helvetica" font-size="11px" font-style="normal" font-weight="normal" text-decoration="normal" x="34.88232421875" y="200.90908813476562" text-anchor="start" dominant-baseline="alphabetic" transform="matrix(1, 0, 0, 1, 0.5, 0.5)" fill-opacity="1">0</text><text fill="none" stroke="rgb(0,0,0)" font-family="helvetica" font-size="11px" font-style="normal" font-weight="normal" text-decoration="normal" x="34.88232421875" y="200.90908813476562" text-anchor="start" dominant-baseline="alphabetic" transform="matrix(1, 0, 0, 1, 0.5, 0.5)" stroke-opacity="0" stroke-linejoin="bevel" stroke-miterlimit="10">0</text><text fill="rgb(68,68,68)" stroke="none" font-family="helvetica" font-size="11px" font-style="normal" font-weight="normal" text-decoration="normal" x="25.70849609375" y="177.6805419921875" text-anchor="start" dominant-baseline="alphabetic" transform="matrix(1, 0, 0, 1, 0.5, 0.5)" fill-opacity="1">0.1</text><text fill="none" stroke="rgb(0,0,0)" font-family="helvetica" font-size="11px" font-style="normal" font-weight="normal" text-decoration="normal" x="25.70849609375" y="177.6805419921875" text-anchor="start" dominant-baseline="alphabetic" transform="matrix(1, 0, 0, 1, 0.5, 0.5)" stroke-opacity="0" stroke-linejoin="bevel" stroke-miterlimit="10">0.1</text><text fill="rgb(68,68,68)" stroke="none" font-family="helvetica" font-size="11px" font-style="normal" font-weight="normal" text-decoration="normal" x="25.70849609375" y="154.45201110839844" text-anchor="start" dominant-baseline="alphabetic" transform="matrix(1, 0, 0, 1, 0.5, 0.5)" fill-opacity="1">0.2</text><text fill="none" stroke="rgb(0,0,0)" font-family="helvetica" font-size="11px" font-style="normal" font-weight="normal" text-decoration="normal" x="25.70849609375" y="154.45201110839844" text-anchor="start" dominant-baseline="alphabetic" transform="matrix(1, 0, 0, 1, 0.5, 0.5)" stroke-opacity="0" stroke-linejoin="bevel" stroke-miterlimit="10">0.2</text><text fill="rgb(68,68,68)" stroke="none" font-family="helvetica" font-size="11px" font-style="normal" font-weight="normal" text-decoration="normal" x="25.70849609375" y="131.2234649658203" text-anchor="start" dominant-baseline="alphabetic" transform="matrix(1, 0, 0, 1, 0.5, 0.5)" fill-opacity="1">0.3</text><text fill="none" stroke="rgb(0,0,0)" font-family="helvetica" font-size="11px" font-style="normal" font-weight="normal" text-decoration="normal" x="25.70849609375" y="131.2234649658203" text-anchor="start" dominant-baseline="alphabetic" transform="matrix(1, 0, 0, 1, 0.5, 0.5)" stroke-opacity="0" stroke-linejoin="bevel" stroke-miterlimit="10">0.3</text><text fill="rgb(68,68,68)" stroke="none" font-family="helvetica" font-size="11px" font-style="normal" font-weight="normal" text-decoration="normal" x="25.70849609375" y="107.99492645263672" text-anchor="start" dominant-baseline="alphabetic" transform="matrix(1, 0, 0, 1, 0.5, 0.5)" fill-opacity="1">0.4</text><text fill="none" stroke="rgb(0,0,0)" font-family="helvetica" font-size="11px" font-style="normal" font-weight="normal" text-decoration="normal" x="25.70849609375" y="107.99492645263672" text-anchor="start" dominant-baseline="alphabetic" transform="matrix(1, 0, 0, 1, 0.5, 0.5)" stroke-opacity="0" stroke-linejoin="bevel" stroke-miterlimit="10">0.4</text><text fill="rgb(68,68,68)" stroke="none" font-family="helvetica" font-size="11px" font-style="normal" font-weight="normal" text-decoration="normal" x="25.70849609375" y="84.7663803100586" text-anchor="start" dominant-baseline="alphabetic" transform="matrix(1, 0, 0, 1, 0.5, 0.5)" fill-opacity="1">0.5</text><text fill="none" stroke="rgb(0,0,0)" font-family="helvetica" font-size="11px" font-style="normal" font-weight="normal" text-decoration="normal" x="25.70849609375" y="84.7663803100586" text-anchor="start" dominant-baseline="alphabetic" transform="matrix(1, 0, 0, 1, 0.5, 0.5)" stroke-opacity="0" stroke-linejoin="bevel" stroke-miterlimit="10">0.5</text><text fill="rgb(68,68,68)" stroke="none" font-family="helvetica" font-size="11px" font-style="normal" font-weight="normal" text-decoration="normal" x="25.70849609375" y="61.537837982177734" text-anchor="start" dominant-baseline="alphabetic" transform="matrix(1, 0, 0, 1, 0.5, 0.5)" fill-opacity="1">0.6</text><text fill="none" stroke="rgb(0,0,0)" font-family="helvetica" font-size="11px" font-style="normal" font-weight="normal" text-decoration="normal" x="25.70849609375" y="61.537837982177734" text-anchor="start" dominant-baseline="alphabetic" transform="matrix(1, 0, 0, 1, 0.5, 0.5)" stroke-opacity="0" stroke-linejoin="bevel" stroke-miterlimit="10">0.6</text><text fill="rgb(68,68,68)" stroke="none" font-family="helvetica" font-size="11px" font-style="normal" font-weight="normal" text-decoration="normal" x="25.70849609375" y="38.309295654296875" text-anchor="start" dominant-baseline="alphabetic" transform="matrix(1, 0, 0, 1, 0.5, 0.5)" fill-opacity="1">0.7</text><text fill="none" stroke="rgb(0,0,0)" font-family="helvetica" font-size="11px" font-style="normal" font-weight="normal" text-decoration="normal" x="25.70849609375" y="38.309295654296875" text-anchor="start" dominant-baseline="alphabetic" transform="matrix(1, 0, 0, 1, 0.5, 0.5)" stroke-opacity="0" stroke-linejoin="bevel" stroke-miterlimit="10">0.7</text><text fill="rgb(68,68,68)" stroke="none" font-family="helvetica" font-size="13px" font-style="italic" font-weight="normal" text-decoration="normal" x="-47.31689453125" y="113" text-anchor="start" dominant-baseline="alphabetic" transform="matrix(6.123233995736766e-17, -1, 1, 6.123233995736766e-17, -97.79150390625, 134.20849609375)" fill-opacity="1">Normalised Probability</text><text fill="none" stroke="rgb(0,0,0)" font-family="helvetica" font-size="13px" font-style="italic" font-weight="normal" text-decoration="normal" x="-47.31689453125" y="113" text-anchor="start" dominant-baseline="alphabetic" transform="matrix(6.123233995736766e-17, -1, 1, 6.123233995736766e-17, -97.79150390625, 134.20849609375)" stroke-opacity="0" stroke-linejoin="bevel" stroke-miterlimit="10">Normalised Probability</text><path fill="rgb(255,249,186)" stroke="rgb(255,0,0)" paint-order="fill" d="M 135.77082252138536 35.59090909090909 L 135.77082252138536 35.59090909090909 L 135.77082252138536 197.4090909090909 L 135.77082252138536 197.4090909090909 L 135.77082252138536 35.59090909090909 Z" fill-opacity="0.4" clip-path="url(#awDakuAlzkXF)" stroke-opacity="1" stroke-linejoin="bevel" stroke-miterlimit="10" stroke-width="2" stroke-dasharray="6"/><path fill="rgb(255,249,186)" stroke="rgb(50,205,50)" paint-order="fill" d="M 161.52452126336726 35.59090909090909 L 161.52452126336726 35.59090909090909 L 161.52452126336726 197.4090909090909 L 161.52452126336726 197.4090909090909 L 161.52452126336726 35.59090909090909 Z" fill-opacity="0.4" clip-path="url(#FvdvyRpiyyrG)" stroke-opacity="1" stroke-linejoin="bevel" stroke-miterlimit="10" stroke-width="2" stroke-dasharray="6"/><text fill="rgb(68,68,68)" stroke="none" font-family="helvetica" font-size="13px" font-style="normal" font-weight="bold" text-decoration="normal" x="52" y="19" text-anchor="start" dominant-baseline="alphabetic" transform="matrix(1, 0, 0, 1, 0.5, 0.5)" fill-opacity="1">Convergance Probability</text><text fill="none" stroke="rgb(0,0,0)" font-family="helvetica" font-size="13px" font-style="normal" font-weight="bold" text-decoration="normal" x="52" y="19" text-anchor="start" dominant-baseline="alphabetic" transform="matrix(1, 0, 0, 1, 0.5, 0.5)" stroke-opacity="0" stroke-miterlimit="10" stroke-dasharray="">Convergance Probability</text></svg>