<svg version="1.1" xmlns="http://www.w3.org/2000/svg" width="250" height="250"><defs><clipPath id="XaUFJWZdebUf"><path fill="none" stroke="none" d="M 52.5 27.5 L 220.5 27.5 L 220.5 205.5 L 52.5 205.5 L 52.5 27.5 Z"/></clipPath><clipPath id="hRIGikxPzMVw"><path fill="none" stroke="none" d="M 52.5 27.5 L 220.5 27.5 L 220.5 205.5 L 52.5 205.5 L 52.5 27.5 Z"/></clipPath><clipPath id="OzFRTQHbnTBq"><path fill="none" stroke="none" d="M 52.5 27.5 L 220.5 27.5 L 220.5 205.5 L 52.5 205.5 L 52.5 27.5 Z"/></clipPath><clipPath id="pexNyanXsazw"><path fill="none" stroke="none" d="M 52.5 27.5 L 220.5 27.5 L 220.5 205.5 L 52.5 205.5 L 52.5 27.5 Z"/></clipPath><pattern id="ESHDPPbNtToL" width="3" height="3" patternUnits="userSpaceOnUse"><path fill="rgb(0,0,0)" stroke="none" paint-order="stroke" d="M 2.75 2 A 0.75 0.75 0 0 0 1.25 2 A 0.75 0.75 0 0 0 2.75 2" fill-opacity="0.14901960784313725"/></pattern><clipPath id="OVWXLFOeVsgZ"><path fill="none" stroke="none" d="M 52.5 27.5 L 220.5 27.5 L 220.5 205.5 L 52.5 205.5 L 52.5 27.5 Z"/></clipPath><clipPath id="CUcdsBTMCgyC"><path fill="none" stroke="none" d="M 52.5 27.5 L 220.5 27.5 L 220.5 205.5 L 52.5 205.5 L 52.5 27.5 Z"/></clipPath><clipPath id="LQowpFpdCkra"><path fill="none" stroke="none" d="M 52.5 27.5 L 220.5 27.5 L 220.5 205.5 L 52.5 205.5 L 52.5 27.5 Z"/></clipPath><clipPath id="dCEZTtAaHhWM"><path fill="none" stroke="none" d="M 52.5 27.5 L 220.5 27.5 L 220.5 205.5 L 52.5 205.5 L 52.5 27.5 Z"/></clipPath></defs><path fill="rgb(255,255,255)" stroke="none" paint-order="stroke" d="M 0.5 0.5 L 250.5 0.5 L 250.5 250.5 L 0.5 250.5 L 0.5 0.5 Z" fill-opacity="1"/><rect fill="#FFFFFF" stroke="none" x="52" y="27" width="168" height="178" transform="matrix(1, 0, 0, 1, 0.5, 0.5)"/><path fill="rgb(255,255,255)" stroke="none" paint-order="stroke" d="M 52.5 27.5 L 220.5 27.5 L 220.5 205.5 L 52.5 205.5 L 52.5 27.5 Z" fill-opacity="1"/><path fill="none" stroke="rgb(229,229,229)" paint-order="fill" d="M 52.5 27.5 L 220.5 27.5 L 220.5 205.5 L 52.5 205.5 L 52.5 27.5 Z" stroke-opacity="1" stroke-linejoin="bevel" stroke-miterlimit="10"/><path fill="none" stroke="rgb(229,229,229)" paint-order="fill" d="M 59.5 205.5 L 59.5 27.5 M 85.5 205.5 L 85.5 27.5 M 112.5 205.5 L 112.5 27.5 M 138.5 205.5 L 138.5 27.5 M 164.5 205.5 L 164.5 27.5 M 191.5 205.5 L 191.5 27.5 M 217.5 205.5 L 217.5 27.5" stroke-opacity="1" stroke-linejoin="bevel" stroke-miterlimit="10" clip-path="url(#XaUFJWZdebUf)"/><path fill="none" stroke="rgb(229,229,229)" paint-order="fill" d="M 52.5 197.5 L 220.5 197.5 M 52.5 173.5 L 220.5 173.5 M 52.5 149.5 L 220.5 149.5 M 52.5 125.5 L 220.5 125.5 M 52.5 101.5 L 220.5 101.5 M 52.5 78.5 L 220.5 78.5 M 52.5 54.5 L 220.5 54.5 M 52.5 30.5 L 220.5 30.5" stroke-opacity="1" stroke-linejoin="bevel" stroke-miterlimit="10" clip-path="url(#hRIGikxPzMVw)"/><path fill="none" stroke="rgb(0,0,0)" paint-order="fill" d="M 101.0394058227539 124.89529418945312 L 101.0394058227539 145.46656799316406" stroke-opacity="1" stroke-linejoin="bevel" stroke-miterlimit="10" clip-path="url(#OzFRTQHbnTBq)"/><path fill="none" stroke="rgb(0,0,0)" paint-order="fill" d="M 165.51321411132812 22.877931594848633 L 165.51321411132812 48.30388641357422" stroke-opacity="1" stroke-linejoin="bevel" stroke-miterlimit="10" clip-path="url(#OzFRTQHbnTBq)"/><path fill="none" stroke="rgb(0,0,0)" paint-order="fill" d="" stroke-opacity="1" stroke-linejoin="bevel" stroke-miterlimit="10" clip-path="url(#OzFRTQHbnTBq)"/><path fill="none" stroke="rgb(0,0,0)" paint-order="fill" d="M 96.0394058227539 124.89529418945312 L 106.0394058227539 124.89529418945312" stroke-opacity="1" stroke-linejoin="bevel" stroke-miterlimit="10" clip-path="url(#OzFRTQHbnTBq)"/><path fill="none" stroke="rgb(0,0,0)" paint-order="fill" d="M 160.51321411132812 22.877931594848633 L 170.51321411132812 22.877931594848633" stroke-opacity="1" stroke-linejoin="bevel" stroke-miterlimit="10" clip-path="url(#OzFRTQHbnTBq)"/><path fill="none" stroke="rgb(0,0,0)" paint-order="fill" d="M -4.5 0.5000000000000007 L 5.5 0.4999999999999994" stroke-opacity="1" stroke-linejoin="bevel" stroke-miterlimit="10" clip-path="url(#OzFRTQHbnTBq)"/><path fill="none" stroke="rgb(0,0,0)" paint-order="fill" d="M 106.0394058227539 145.46656799316406 L 96.0394058227539 145.46656799316406" stroke-opacity="1" stroke-linejoin="bevel" stroke-miterlimit="10" clip-path="url(#OzFRTQHbnTBq)"/><path fill="none" stroke="rgb(0,0,0)" paint-order="fill" d="M 170.51321411132812 48.30388641357422 L 160.51321411132812 48.30388641357422" stroke-opacity="1" stroke-linejoin="bevel" stroke-miterlimit="10" clip-path="url(#OzFRTQHbnTBq)"/><path fill="none" stroke="rgb(0,0,0)" paint-order="fill" d="M 5.5 0.5 L -4.5 0.5" stroke-opacity="1" stroke-linejoin="bevel" stroke-miterlimit="10" clip-path="url(#OzFRTQHbnTBq)"/><path fill="rgb(128,128,128)" stroke="none" paint-order="stroke" d="M 68.80249786376953 35.590911865234375 L 197.7501220703125 35.590911865234375 L 197.7501220703125 197.40908813476562 L 68.80249786376953 197.40908813476562 L 68.80249786376953 35.590911865234375 Z" fill-opacity="0.10196078431372549" clip-path="url(#pexNyanXsazw)"/><path fill="url(#ESHDPPbNtToL)" stroke="rgb(0,0,0)" paint-order="fill" d="M 68.80249786376953 35.590911865234375 L 197.7501220703125 35.590911865234375 L 197.7501220703125 197.40908813476562 L 68.80249786376953 197.40908813476562 L 68.80249786376953 35.590911865234375 Z" clip-path="url(#pexNyanXsazw)" stroke-opacity="0.2" stroke-linejoin="bevel" stroke-miterlimit="10"/><path fill="rgb(100,149,237)" stroke="rgb(31,119,180)" paint-order="fill" d="M 68.80249786376953 135.18092346191406 L 133.27630615234375 135.18092346191406 L 133.27630615234375 197.40908813476562 L 68.80249786376953 197.40908813476562 L 68.80249786376953 135.18092346191406 Z" fill-opacity="0.5019607843137255" clip-path="url(#OVWXLFOeVsgZ)" stroke-opacity="0.5019607843137255" stroke-linejoin="bevel" stroke-miterlimit="10"/><path fill="rgb(100,149,237)" stroke="rgb(31,119,180)" paint-order="fill" d="M 133.27630615234375 35.59090805053711 L 197.7501220703125 35.59090805053711 L 197.7501220703125 197.40908813476562 L 133.27630615234375 197.40908813476562 L 133.27630615234375 35.59090805053711 Z" fill-opacity="0.5019607843137255" clip-path="url(#OVWXLFOeVsgZ)" stroke-opacity="0.5019607843137255" stroke-linejoin="bevel" stroke-miterlimit="10"/><path fill="rgb(100,149,237)" stroke="rgb(31,119,180)" paint-order="fill" d="M 197.7501220703125 197.40908813476562 L 220.5 197.40908813476562 L 220.5 197.40908813476562 L 197.7501220703125 197.40908813476562 L 197.7501220703125 197.40908813476562 Z" fill-opacity="0.5019607843137255" clip-path="url(#OVWXLFOeVsgZ)" stroke-opacity="0.5019607843137255" stroke-linejoin="bevel" stroke-miterlimit="10"/><path fill="none" stroke="rgb(0,0,0)" paint-order="fill" d="M 52.5 205.5 L 220.5 205.5" stroke-opacity="1" stroke-linejoin="bevel" stroke-miterlimit="10"/><path fill="none" stroke="rgb(0,0,0)" paint-order="fill" d="M 59.5 211.5 L 59.5 203.5 M 85.5 211.5 L 85.5 203.5 M 112.5 211.5 L 112.5 203.5 M 138.5 211.5 L 138.5 203.5 M 164.5 211.5 L 164.5 203.5 M 191.5 211.5 L 191.5 203.5 M 217.5 211.5 L 217.5 203.5" stroke-opacity="1" stroke-linejoin="bevel" stroke-miterlimit="10"/><path fill="none" stroke="rgb(0,0,0)" paint-order="fill" d="M 54.5 209.5 L 54.5 205.5 M 59.5 209.5 L 59.5 205.5 M 64.5 209.5 L 64.5 205.5 M 69.5 209.5 L 69.5 205.5 M 75.5 209.5 L 75.5 205.5 M 80.5 209.5 L 80.5 205.5 M 85.5 209.5 L 85.5 205.5 M 91.5 209.5 L 91.5 205.5 M 96.5 209.5 L 96.5 205.5 M 101.5 209.5 L 101.5 205.5 M 106.5 209.5 L 106.5 205.5 M 112.5 209.5 L 112.5 205.5 M 117.5 209.5 L 117.5 205.5 M 122.5 209.5 L 122.5 205.5 M 127.5 209.5 L 127.5 205.5 M 133.5 209.5 L 133.5 205.5 M 138.5 209.5 L 138.5 205.5 M 143.5 209.5 L 143.5 205.5 M 149.5 209.5 L 149.5 205.5 M 154.5 209.5 L 154.5 205.5 M 159.5 209.5 L 159.5 205.5 M 164.5 209.5 L 164.5 205.5 M 170.5 209.5 L 170.5 205.5 M 175.5 209.5 L 175.5 205.5 M 180.5 209.5 L 180.5 205.5 M 186.5 209.5 L 186.5 205.5 M 191.5 209.5 L 191.5 205.5 M 196.5 209.5 L 196.5 205.5 M 201.5 209.5 L 201.5 205.5 M 207.5 209.5 L 207.5 205.5 M 212.5 209.5 L 212.5 205.5 M 217.5 209.5 L 217.5 205.5" stroke-opacity="1" stroke-linejoin="bevel" stroke-miterlimit="10"/><text fill="rgb(68,68,68)" stroke="none" font-family="helvetica" font-size="11px" font-style="normal" font-weight="normal" text-decoration="normal" x="35.789730072021484" y="224" text-anchor="start" dominant-baseline="alphabetic" transform="matrix(1, 0, 0, 1, 0.5, 0.5)" fill-opacity="1">1.200e+7</text><text fill="none" stroke="rgb(0,0,0)" font-family="helvetica" font-size="11px" font-style="normal" font-weight="normal" text-decoration="normal" x="35.789730072021484" y="224" text-anchor="start" dominant-baseline="alphabetic" transform="matrix(1, 0, 0, 1, 0.5, 0.5)" stroke-opacity="0" stroke-linejoin="bevel" stroke-miterlimit="10">1.200e+7</text><text fill="rgb(68,68,68)" stroke="none" font-family="helvetica" font-size="11px" font-style="normal" font-weight="normal" text-decoration="normal" x="62.175575256347656" y="224" text-anchor="start" dominant-baseline="alphabetic" transform="matrix(1, 0, 0, 1, 0.5, 0.5)" fill-opacity="1">1.300e+7</text><text fill="none" stroke="rgb(0,0,0)" font-family="helvetica" font-size="11px" font-style="normal" font-weight="normal" text-decoration="normal" x="62.175575256347656" y="224" text-anchor="start" dominant-baseline="alphabetic" transform="matrix(1, 0, 0, 1, 0.5, 0.5)" stroke-opacity="0" stroke-linejoin="bevel" stroke-miterlimit="10">1.300e+7</text><text fill="rgb(68,68,68)" stroke="none" font-family="helvetica" font-size="11px" font-style="normal" font-weight="normal" text-decoration="normal" x="88.5614242553711" y="224" text-anchor="start" dominant-baseline="alphabetic" transform="matrix(1, 0, 0, 1, 0.5, 0.5)" fill-opacity="1">1.400e+7</text><text fill="none" stroke="rgb(0,0,0)" font-family="helvetica" font-size="11px" font-style="normal" font-weight="normal" text-decoration="normal" x="88.5614242553711" y="224" text-anchor="start" dominant-baseline="alphabetic" transform="matrix(1, 0, 0, 1, 0.5, 0.5)" stroke-opacity="0" stroke-linejoin="bevel" stroke-miterlimit="10">1.400e+7</text><text fill="rgb(68,68,68)" stroke="none" font-family="helvetica" font-size="11px" font-style="normal" font-weight="normal" text-decoration="normal" x="114.947265625" y="224" text-anchor="start" dominant-baseline="alphabetic" transform="matrix(1, 0, 0, 1, 0.5, 0.5)" fill-opacity="1">1.500e+7</text><text fill="none" stroke="rgb(0,0,0)" font-family="helvetica" font-size="11px" font-style="normal" font-weight="normal" text-decoration="normal" x="114.947265625" y="224" text-anchor="start" dominant-baseline="alphabetic" transform="matrix(1, 0, 0, 1, 0.5, 0.5)" stroke-opacity="0" stroke-linejoin="bevel" stroke-miterlimit="10">1.500e+7</text><text fill="rgb(68,68,68)" stroke="none" font-family="helvetica" font-size="11px" font-style="normal" font-weight="normal" text-decoration="normal" x="141.33311462402344" y="224" text-anchor="start" dominant-baseline="alphabetic" transform="matrix(1, 0, 0, 1, 0.5, 0.5)" fill-opacity="1">1.600e+7</text><text fill="none" stroke="rgb(0,0,0)" font-family="helvetica" font-size="11px" font-style="normal" font-weight="normal" text-decoration="normal" x="141.33311462402344" y="224" text-anchor="start" dominant-baseline="alphabetic" transform="matrix(1, 0, 0, 1, 0.5, 0.5)" stroke-opacity="0" stroke-linejoin="bevel" stroke-miterlimit="10">1.600e+7</text><text fill="rgb(68,68,68)" stroke="none" font-family="helvetica" font-size="11px" font-style="normal" font-weight="normal" text-decoration="normal" x="167.71896362304688" y="224" text-anchor="start" dominant-baseline="alphabetic" transform="matrix(1, 0, 0, 1, 0.5, 0.5)" fill-opacity="1">1.700e+7</text><text fill="none" stroke="rgb(0,0,0)" font-family="helvetica" font-size="11px" font-style="normal" font-weight="normal" text-decoration="normal" x="167.71896362304688" y="224" text-anchor="start" dominant-baseline="alphabetic" transform="matrix(1, 0, 0, 1, 0.5, 0.5)" stroke-opacity="0" stroke-linejoin="bevel" stroke-miterlimit="10">1.700e+7</text><text fill="rgb(68,68,68)" stroke="none" font-family="helvetica" font-size="11px" font-style="normal" font-weight="normal" text-decoration="normal" x="194.1048126220703" y="224" text-anchor="start" dominant-baseline="alphabetic" transform="matrix(1, 0, 0, 1, 0.5, 0.5)" fill-opacity="1">1.800e+7</text><text fill="none" stroke="rgb(0,0,0)" font-family="helvetica" font-size="11px" font-style="normal" font-weight="normal" text-decoration="normal" x="194.1048126220703" y="224" text-anchor="start" dominant-baseline="alphabetic" transform="matrix(1, 0, 0, 1, 0.5, 0.5)" stroke-opacity="0" stroke-linejoin="bevel" stroke-miterlimit="10">1.800e+7</text><text fill="rgb(68,68,68)" stroke="none" font-family="helvetica" font-size="13px" font-style="italic" font-weight="normal" text-decoration="normal" x="116.484130859375" y="244" text-anchor="start" dominant-baseline="alphabetic" transform="matrix(1, 0, 0, 1, 0.5, 0.5)" fill-opacity="1">coheof</text><text fill="none" stroke="rgb(0,0,0)" font-family="helvetica" font-size="13px" font-style="italic" font-weight="normal" text-decoration="normal" x="116.484130859375" y="244" text-anchor="start" dominant-baseline="alphabetic" transform="matrix(1, 0, 0, 1, 0.5, 0.5)" stroke-opacity="0" stroke-linejoin="bevel" stroke-miterlimit="10">coheof</text><path fill="none" stroke="rgb(0,0,0)" paint-order="fill" d="M 52.5 205.5 L 52.5 27.5" stroke-opacity="1" stroke-linejoin="bevel" stroke-miterlimit="10"/><path fill="none" stroke="rgb(0,0,0)" paint-order="fill" d="M 46.5 197.5 L 54.5 197.5 M 46.5 173.5 L 54.5 173.5 M 46.5 149.5 L 54.5 149.5 M 46.5 125.5 L 54.5 125.5 M 46.5 101.5 L 54.5 101.5 M 46.5 78.5 L 54.5 78.5 M 46.5 54.5 L 54.5 54.5 M 46.5 30.5 L 54.5 30.5" stroke-opacity="1" stroke-linejoin="bevel" stroke-miterlimit="10"/><path fill="none" stroke="rgb(0,0,0)" paint-order="fill" d="M 48.5 202.5 L 52.5 202.5 M 48.5 197.5 L 52.5 197.5 M 48.5 192.5 L 52.5 192.5 M 48.5 187.5 L 52.5 187.5 M 48.5 183.5 L 52.5 183.5 M 48.5 178.5 L 52.5 178.5 M 48.5 173.5 L 52.5 173.5 M 48.5 168.5 L 52.5 168.5 M 48.5 163.5 L 52.5 163.5 M 48.5 159.5 L 52.5 159.5 M 48.5 154.5 L 52.5 154.5 M 48.5 149.5 L 52.5 149.5 M 48.5 144.5 L 52.5 144.5 M 48.5 140.5 L 52.5 140.5 M 48.5 135.5 L 52.5 135.5 M 48.5 130.5 L 52.5 130.5 M 48.5 125.5 L 52.5 125.5 M 48.5 121.5 L 52.5 121.5 M 48.5 116.5 L 52.5 116.5 M 48.5 111.5 L 52.5 111.5 M 48.5 106.5 L 52.5 106.5 M 48.5 101.5 L 52.5 101.5 M 48.5 97.5 L 52.5 97.5 M 48.5 92.5 L 52.5 92.5 M 48.5 87.5 L 52.5 87.5 M 48.5 82.5 L 52.5 82.5 M 48.5 78.5 L 52.5 78.5 M 48.5 73.5 L 52.5 73.5 M 48.5 68.5 L 52.5 68.5 M 48.5 63.5 L 52.5 63.5 M 48.5 58.5 L 52.5 58.5 M 48.5 54.5 L 52.5 54.5 M 48.5 49.5 L 52.5 49.5 M 48.5 44.5 L 52.5 44.5 M 48.5 39.5 L 52.5 39.5 M 48.5 35.5 L 52.5 35.5 M 48.5 30.5 L 52.5 30.5" stroke-opacity="1" stroke-linejoin="bevel" stroke-miterlimit="10"/><text fill="rgb(68,68,68)" stroke="none" font-family="helvetica" font-size="11px" font-style="normal" font-weight="normal" text-decoration="normal" x="34.88232421875" y="200.90908813476562" text-anchor="start" dominant-baseline="alphabetic" transform="matrix(1, 0, 0, 1, 0.5, 0.5)" fill-opacity="1">0</text><text fill="none" stroke="rgb(0,0,0)" font-family="helvetica" font-size="11px" font-style="normal" font-weight="normal" text-decoration="normal" x="34.88232421875" y="200.90908813476562" text-anchor="start" dominant-baseline="alphabetic" transform="matrix(1, 0, 0, 1, 0.5, 0.5)" stroke-opacity="0" stroke-linejoin="bevel" stroke-miterlimit="10">0</text><text fill="rgb(68,68,68)" stroke="none" font-family="helvetica" font-size="11px" font-style="normal" font-weight="normal" text-decoration="normal" x="25.70849609375" y="177.04006958007812" text-anchor="start" dominant-baseline="alphabetic" transform="matrix(1, 0, 0, 1, 0.5, 0.5)" fill-opacity="1">0.1</text><text fill="none" stroke="rgb(0,0,0)" font-family="helvetica" font-size="11px" font-style="normal" font-weight="normal" text-decoration="normal" x="25.70849609375" y="177.04006958007812" text-anchor="start" dominant-baseline="alphabetic" transform="matrix(1, 0, 0, 1, 0.5, 0.5)" stroke-opacity="0" stroke-linejoin="bevel" stroke-miterlimit="10">0.1</text><text fill="rgb(68,68,68)" stroke="none" font-family="helvetica" font-size="11px" font-style="normal" font-weight="normal" text-decoration="normal" x="25.70849609375" y="153.17105102539062" text-anchor="start" dominant-baseline="alphabetic" transform="matrix(1, 0, 0, 1, 0.5, 0.5)" fill-opacity="1">0.2</text><text fill="none" stroke="rgb(0,0,0)" font-family="helvetica" font-size="11px" font-style="normal" font-weight="normal" text-decoration="normal" x="25.70849609375" y="153.17105102539062" text-anchor="start" dominant-baseline="alphabetic" transform="matrix(1, 0, 0, 1, 0.5, 0.5)" stroke-opacity="0" stroke-linejoin="bevel" stroke-miterlimit="10">0.2</text><text fill="rgb(68,68,68)" stroke="none" font-family="helvetica" font-size="11px" font-style="normal" font-weight="normal" text-decoration="normal" x="25.70849609375" y="129.30204010009766" text-anchor="start" dominant-baseline="alphabetic" transform="matrix(1, 0, 0, 1, 0.5, 0.5)" fill-opacity="1">0.3</text><text fill="none" stroke="rgb(0,0,0)" font-family="helvetica" font-size="11px" font-style="normal" font-weight="normal" text-decoration="normal" x="25.70849609375" y="129.30204010009766" text-anchor="start" dominant-baseline="alphabetic" transform="matrix(1, 0, 0, 1, 0.5, 0.5)" stroke-opacity="0" stroke-linejoin="bevel" stroke-miterlimit="10">0.3</text><text fill="rgb(68,68,68)" stroke="none" font-family="helvetica" font-size="11px" font-style="normal" font-weight="normal" text-decoration="normal" x="25.70849609375" y="105.43302154541016" text-anchor="start" dominant-baseline="alphabetic" transform="matrix(1, 0, 0, 1, 0.5, 0.5)" fill-opacity="1">0.4</text><text fill="none" stroke="rgb(0,0,0)" font-family="helvetica" font-size="11px" font-style="normal" font-weight="normal" text-decoration="normal" x="25.70849609375" y="105.43302154541016" text-anchor="start" dominant-baseline="alphabetic" transform="matrix(1, 0, 0, 1, 0.5, 0.5)" stroke-opacity="0" stroke-linejoin="bevel" stroke-miterlimit="10">0.4</text><text fill="rgb(68,68,68)" stroke="none" font-family="helvetica" font-size="11px" font-style="normal" font-weight="normal" text-decoration="normal" x="25.70849609375" y="81.56400299072266" text-anchor="start" dominant-baseline="alphabetic" transform="matrix(1, 0, 0, 1, 0.5, 0.5)" fill-opacity="1">0.5</text><text fill="none" stroke="rgb(0,0,0)" font-family="helvetica" font-size="11px" font-style="normal" font-weight="normal" text-decoration="normal" x="25.70849609375" y="81.56400299072266" text-anchor="start" dominant-baseline="alphabetic" transform="matrix(1, 0, 0, 1, 0.5, 0.5)" stroke-opacity="0" stroke-linejoin="bevel" stroke-miterlimit="10">0.5</text><text fill="rgb(68,68,68)" stroke="none" font-family="helvetica" font-size="11px" font-style="normal" font-weight="normal" text-decoration="normal" x="25.70849609375" y="57.69498825073242" text-anchor="start" dominant-baseline="alphabetic" transform="matrix(1, 0, 0, 1, 0.5, 0.5)" fill-opacity="1">0.6</text><text fill="none" stroke="rgb(0,0,0)" font-family="helvetica" font-size="11px" font-style="normal" font-weight="normal" text-decoration="normal" x="25.70849609375" y="57.69498825073242" text-anchor="start" dominant-baseline="alphabetic" transform="matrix(1, 0, 0, 1, 0.5, 0.5)" stroke-opacity="0" stroke-linejoin="bevel" stroke-miterlimit="10">0.6</text><text fill="rgb(68,68,68)" stroke="none" font-family="helvetica" font-size="11px" font-style="normal" font-weight="normal" text-decoration="normal" x="25.70849609375" y="33.82596969604492" text-anchor="start" dominant-baseline="alphabetic" transform="matrix(1, 0, 0, 1, 0.5, 0.5)" fill-opacity="1">0.7</text><text fill="none" stroke="rgb(0,0,0)" font-family="helvetica" font-size="11px" font-style="normal" font-weight="normal" text-decoration="normal" x="25.70849609375" y="33.82596969604492" text-anchor="start" dominant-baseline="alphabetic" transform="matrix(1, 0, 0, 1, 0.5, 0.5)" stroke-opacity="0" stroke-linejoin="bevel" stroke-miterlimit="10">0.7</text><text fill="rgb(68,68,68)" stroke="none" font-family="helvetica" font-size="13px" font-style="italic" font-weight="normal" text-decoration="normal" x="-47.31689453125" y="113" text-anchor="start" dominant-baseline="alphabetic" transform="matrix(6.123233995736766e-17, -1, 1, 6.123233995736766e-17, -97.79150390625, 134.20849609375)" fill-opacity="1">Normalised Probability</text><text fill="none" stroke="rgb(0,0,0)" font-family="helvetica" font-size="13px" font-style="italic" font-weight="normal" text-decoration="normal" x="-47.31689453125" y="113" text-anchor="start" dominant-baseline="alphabetic" transform="matrix(6.123233995736766e-17, -1, 1, 6.123233995736766e-17, -97.79150390625, 134.20849609375)" stroke-opacity="0" stroke-linejoin="bevel" stroke-miterlimit="10">Normalised Probability</text><path fill="rgb(255,249,186)" stroke="rgb(255,0,0)" paint-order="fill" d="M 147.69675487285434 35.59090909090909 L 147.69675487285434 35.59090909090909 L 147.69675487285434 197.4090909090909 L 147.69675487285434 197.4090909090909 L 147.69675487285434 35.59090909090909 Z" fill-opacity="0.4" clip-path="url(#CUcdsBTMCgyC)" stroke-opacity="1" stroke-linejoin="bevel" stroke-miterlimit="10" stroke-width="2" stroke-dasharray="6"/><path fill="rgb(255,249,186)" stroke="rgb(50,205,50)" paint-order="fill" d="M 165.51321648173013 35.59090909090909 L 165.51321648173013 35.59090909090909 L 165.51321648173013 197.4090909090909 L 165.51321648173013 197.4090909090909 L 165.51321648173013 35.59090909090909 Z" fill-opacity="0.4" clip-path="url(#LQowpFpdCkra)" stroke-opacity="1" stroke-linejoin="bevel" stroke-miterlimit="10" stroke-width="2" stroke-dasharray="6"/><text fill="rgb(68,68,68)" stroke="none" font-family="helvetica" font-size="13px" font-style="normal" font-weight="bold" text-decoration="normal" x="52" y="19" text-anchor="start" dominant-baseline="alphabetic" transform="matrix(1, 0, 0, 1, 0.5, 0.5)" fill-opacity="1">Convergance Probability</text><text fill="none" stroke="rgb(0,0,0)" font-family="helvetica" font-size="13px" font-style="normal" font-weight="bold" text-decoration="normal" x="52" y="19" text-anchor="start" dominant-baseline="alphabetic" transform="matrix(1, 0, 0, 1, 0.5, 0.5)" stroke-opacity="0" stroke-miterlimit="10" stroke-dasharray="">Convergance Probability</text></svg>