<svg version="1.1" xmlns="http://www.w3.org/2000/svg" width="275" height="275"><defs><clipPath id="cDhMxqcLwDMg"><path fill="none" stroke="none" d="M 52.5 27.5 L 245.5 27.5 L 245.5 230.5 L 52.5 230.5 L 52.5 27.5 Z"/></clipPath><clipPath id="vhVZkTqwfPlu"><path fill="none" stroke="none" d="M 52.5 27.5 L 245.5 27.5 L 245.5 230.5 L 52.5 230.5 L 52.5 27.5 Z"/></clipPath><clipPath id="tRouwuDnoaMZ"><path fill="none" stroke="none" d="M 52.5 27.5 L 245.5 27.5 L 245.5 230.5 L 52.5 230.5 L 52.5 27.5 Z"/></clipPath><clipPath id="krXRRmlqxJoB"><path fill="none" stroke="none" d="M 52.5 27.5 L 245.5 27.5 L 245.5 230.5 L 52.5 230.5 L 52.5 27.5 Z"/></clipPath><pattern id="tecfvVpbrklK" width="3" height="3" patternUnits="userSpaceOnUse"><path fill="rgb(0,0,0)" stroke="none" paint-order="stroke" d="M 2.75 2 A 0.75 0.75 0 0 0 1.25 2 A 0.75 0.75 0 0 0 2.75 2" fill-opacity="0.14901960784313725"/></pattern><clipPath id="FDpmkxqQuzRC"><path fill="none" stroke="none" d="M 52.5 27.5 L 245.5 27.5 L 245.5 230.5 L 52.5 230.5 L 52.5 27.5 Z"/></clipPath><clipPath id="eNDVUJBPrqIu"><path fill="none" stroke="none" d="M 52.5 27.5 L 245.5 27.5 L 245.5 230.5 L 52.5 230.5 L 52.5 27.5 Z"/></clipPath><clipPath id="eMeTGKOXqVPw"><path fill="none" stroke="none" d="M 52.5 27.5 L 245.5 27.5 L 245.5 230.5 L 52.5 230.5 L 52.5 27.5 Z"/></clipPath><clipPath id="vbNugVcLvRxR"><path fill="none" stroke="none" d="M 52.5 27.5 L 245.5 27.5 L 245.5 230.5 L 52.5 230.5 L 52.5 27.5 Z"/></clipPath></defs><path fill="rgb(255,255,255)" stroke="none" paint-order="stroke" d="M 0.5 0.5 L 275.5 0.5 L 275.5 275.5 L 0.5 275.5 L 0.5 0.5 Z" fill-opacity="1"/><rect fill="#FFFFFF" stroke="none" x="52" y="27" width="193" height="203" transform="matrix(1, 0, 0, 1, 0.5, 0.5)"/><path fill="rgb(255,255,255)" stroke="none" paint-order="stroke" d="M 52.5 27.5 L 245.5 27.5 L 245.5 230.5 L 52.5 230.5 L 52.5 27.5 Z" fill-opacity="1"/><path fill="none" stroke="rgb(229,229,229)" paint-order="fill" d="M 52.5 27.5 L 245.5 27.5 L 245.5 230.5 L 52.5 230.5 L 52.5 27.5 Z" stroke-opacity="1" stroke-linejoin="bevel" stroke-miterlimit="10"/><path fill="none" stroke="rgb(229,229,229)" paint-order="fill" d="M 64.5 230.5 L 64.5 27.5 M 87.5 230.5 L 87.5 27.5 M 110.5 230.5 L 110.5 27.5 M 134.5 230.5 L 134.5 27.5 M 157.5 230.5 L 157.5 27.5 M 181.5 230.5 L 181.5 27.5 M 204.5 230.5 L 204.5 27.5 M 227.5 230.5 L 227.5 27.5" stroke-opacity="1" stroke-linejoin="bevel" stroke-miterlimit="10" clip-path="url(#cDhMxqcLwDMg)"/><path fill="none" stroke="rgb(229,229,229)" paint-order="fill" d="M 52.5 221.5 L 245.5 221.5 M 52.5 174.5 L 245.5 174.5 M 52.5 128.5 L 245.5 128.5 M 52.5 81.5 L 245.5 81.5 M 52.5 35.5 L 245.5 35.5" stroke-opacity="1" stroke-linejoin="bevel" stroke-miterlimit="10" clip-path="url(#vhVZkTqwfPlu)"/><path fill="none" stroke="rgb(0,0,0)" paint-order="fill" d="M 116.84549713134766 33.11129379272461 L 116.84549713134766 40.3432502746582" stroke-opacity="1" stroke-linejoin="bevel" stroke-miterlimit="10" clip-path="url(#tRouwuDnoaMZ)"/><path fill="none" stroke="rgb(0,0,0)" paint-order="fill" d="M 175.3082275390625 38.921566009521484 L 175.3082275390625 45.87022018432617" stroke-opacity="1" stroke-linejoin="bevel" stroke-miterlimit="10" clip-path="url(#tRouwuDnoaMZ)"/><path fill="none" stroke="rgb(0,0,0)" paint-order="fill" d="M 111.84549713134766 33.11129379272461 L 121.84549713134766 33.11129379272461" stroke-opacity="1" stroke-linejoin="bevel" stroke-miterlimit="10" clip-path="url(#tRouwuDnoaMZ)"/><path fill="none" stroke="rgb(0,0,0)" paint-order="fill" d="M 170.3082275390625 38.921566009521484 L 180.3082275390625 38.921566009521484" stroke-opacity="1" stroke-linejoin="bevel" stroke-miterlimit="10" clip-path="url(#tRouwuDnoaMZ)"/><path fill="none" stroke="rgb(0,0,0)" paint-order="fill" d="M 121.84549713134766 40.3432502746582 L 111.84549713134766 40.3432502746582" stroke-opacity="1" stroke-linejoin="bevel" stroke-miterlimit="10" clip-path="url(#tRouwuDnoaMZ)"/><path fill="none" stroke="rgb(0,0,0)" paint-order="fill" d="M 180.3082275390625 45.87022018432617 L 170.3082275390625 45.87022018432617" stroke-opacity="1" stroke-linejoin="bevel" stroke-miterlimit="10" clip-path="url(#tRouwuDnoaMZ)"/><path fill="rgb(128,128,128)" stroke="none" paint-order="stroke" d="M 87.6141357421875 36.727272033691406 L 204.5395965576172 36.727272033691406 L 204.5395965576172 221.27273559570312 L 87.6141357421875 221.27273559570312 L 87.6141357421875 36.727272033691406 Z" fill-opacity="0.10196078431372549" clip-path="url(#krXRRmlqxJoB)"/><path fill="url(#tecfvVpbrklK)" stroke="rgb(0,0,0)" paint-order="fill" d="M 87.6141357421875 36.727272033691406 L 204.5395965576172 36.727272033691406 L 204.5395965576172 221.27273559570312 L 87.6141357421875 221.27273559570312 L 87.6141357421875 36.727272033691406 Z" clip-path="url(#krXRRmlqxJoB)" stroke-opacity="0.2" stroke-linejoin="bevel" stroke-miterlimit="10"/><path fill="rgb(100,149,237)" stroke="rgb(31,119,180)" paint-order="fill" d="M 87.6141357421875 36.727272033691406 L 146.0768585205078 36.727272033691406 L 146.0768585205078 221.27272033691406 L 87.6141357421875 221.27272033691406 L 87.6141357421875 36.727272033691406 Z" fill-opacity="0.5019607843137255" clip-path="url(#FDpmkxqQuzRC)" stroke-opacity="0.5019607843137255" stroke-linejoin="bevel" stroke-miterlimit="10"/><path fill="rgb(100,149,237)" stroke="rgb(31,119,180)" paint-order="fill" d="M 146.0768585205078 42.39589309692383 L 204.5395965576172 42.39589309692383 L 204.5395965576172 221.27272033691406 L 146.0768585205078 221.27272033691406 L 146.0768585205078 42.39589309692383 Z" fill-opacity="0.5019607843137255" clip-path="url(#FDpmkxqQuzRC)" stroke-opacity="0.5019607843137255" stroke-linejoin="bevel" stroke-miterlimit="10"/><path fill="none" stroke="rgb(0,0,0)" paint-order="fill" d="M 52.5 230.5 L 245.5 230.5" stroke-opacity="1" stroke-linejoin="bevel" stroke-miterlimit="10"/><path fill="none" stroke="rgb(0,0,0)" paint-order="fill" d="M 64.5 236.5 L 64.5 228.5 M 87.5 236.5 L 87.5 228.5 M 110.5 236.5 L 110.5 228.5 M 134.5 236.5 L 134.5 228.5 M 157.5 236.5 L 157.5 228.5 M 181.5 236.5 L 181.5 228.5 M 204.5 236.5 L 204.5 228.5 M 227.5 236.5 L 227.5 228.5" stroke-opacity="1" stroke-linejoin="bevel" stroke-miterlimit="10"/><path fill="none" stroke="rgb(0,0,0)" paint-order="fill" d="M 59.5 234.5 L 59.5 230.5 M 54.5 234.5 L 54.5 230.5 M 64.5 234.5 L 64.5 230.5 M 68.5 234.5 L 68.5 230.5 M 73.5 234.5 L 73.5 230.5 M 78.5 234.5 L 78.5 230.5 M 82.5 234.5 L 82.5 230.5 M 87.5 234.5 L 87.5 230.5 M 92.5 234.5 L 92.5 230.5 M 96.5 234.5 L 96.5 230.5 M 101.5 234.5 L 101.5 230.5 M 106.5 234.5 L 106.5 230.5 M 110.5 234.5 L 110.5 230.5 M 115.5 234.5 L 115.5 230.5 M 120.5 234.5 L 120.5 230.5 M 124.5 234.5 L 124.5 230.5 M 129.5 234.5 L 129.5 230.5 M 134.5 234.5 L 134.5 230.5 M 139.5 234.5 L 139.5 230.5 M 143.5 234.5 L 143.5 230.5 M 148.5 234.5 L 148.5 230.5 M 153.5 234.5 L 153.5 230.5 M 157.5 234.5 L 157.5 230.5 M 162.5 234.5 L 162.5 230.5 M 167.5 234.5 L 167.5 230.5 M 171.5 234.5 L 171.5 230.5 M 176.5 234.5 L 176.5 230.5 M 181.5 234.5 L 181.5 230.5 M 185.5 234.5 L 185.5 230.5 M 190.5 234.5 L 190.5 230.5 M 195.5 234.5 L 195.5 230.5 M 199.5 234.5 L 199.5 230.5 M 204.5 234.5 L 204.5 230.5 M 209.5 234.5 L 209.5 230.5 M 213.5 234.5 L 213.5 230.5 M 218.5 234.5 L 218.5 230.5 M 223.5 234.5 L 223.5 230.5 M 227.5 234.5 L 227.5 230.5 M 232.5 234.5 L 232.5 230.5 M 237.5 234.5 L 237.5 230.5 M 242.5 234.5 L 242.5 230.5" stroke-opacity="1" stroke-linejoin="bevel" stroke-miterlimit="10"/><text fill="rgb(68,68,68)" stroke="none" font-family="helvetica" font-size="11px" font-style="normal" font-weight="normal" text-decoration="normal" x="52.9166259765625" y="249" text-anchor="start" dominant-baseline="alphabetic" transform="matrix(1, 0, 0, 1, 0.5, 0.5)" fill-opacity="1">0.58</text><text fill="none" stroke="rgb(0,0,0)" font-family="helvetica" font-size="11px" font-style="normal" font-weight="normal" text-decoration="normal" x="52.9166259765625" y="249" text-anchor="start" dominant-baseline="alphabetic" transform="matrix(1, 0, 0, 1, 0.5, 0.5)" stroke-opacity="0" stroke-linejoin="bevel" stroke-miterlimit="10">0.58</text><text fill="rgb(68,68,68)" stroke="none" font-family="helvetica" font-size="11px" font-style="normal" font-weight="normal" text-decoration="normal" x="79.38201141357422" y="249" text-anchor="start" dominant-baseline="alphabetic" transform="matrix(1, 0, 0, 1, 0.5, 0.5)" fill-opacity="1">0.6</text><text fill="none" stroke="rgb(0,0,0)" font-family="helvetica" font-size="11px" font-style="normal" font-weight="normal" text-decoration="normal" x="79.38201141357422" y="249" text-anchor="start" dominant-baseline="alphabetic" transform="matrix(1, 0, 0, 1, 0.5, 0.5)" stroke-opacity="0" stroke-linejoin="bevel" stroke-miterlimit="10">0.6</text><text fill="rgb(68,68,68)" stroke="none" font-family="helvetica" font-size="11px" font-style="normal" font-weight="normal" text-decoration="normal" x="99.72972106933594" y="249" text-anchor="start" dominant-baseline="alphabetic" transform="matrix(1, 0, 0, 1, 0.5, 0.5)" fill-opacity="1">0.62</text><text fill="none" stroke="rgb(0,0,0)" font-family="helvetica" font-size="11px" font-style="normal" font-weight="normal" text-decoration="normal" x="99.72972106933594" y="249" text-anchor="start" dominant-baseline="alphabetic" transform="matrix(1, 0, 0, 1, 0.5, 0.5)" stroke-opacity="0" stroke-linejoin="bevel" stroke-miterlimit="10">0.62</text><text fill="rgb(68,68,68)" stroke="none" font-family="helvetica" font-size="11px" font-style="normal" font-weight="normal" text-decoration="normal" x="123.13626098632812" y="249" text-anchor="start" dominant-baseline="alphabetic" transform="matrix(1, 0, 0, 1, 0.5, 0.5)" fill-opacity="1">0.64</text><text fill="none" stroke="rgb(0,0,0)" font-family="helvetica" font-size="11px" font-style="normal" font-weight="normal" text-decoration="normal" x="123.13626098632812" y="249" text-anchor="start" dominant-baseline="alphabetic" transform="matrix(1, 0, 0, 1, 0.5, 0.5)" stroke-opacity="0" stroke-linejoin="bevel" stroke-miterlimit="10">0.64</text><text fill="rgb(68,68,68)" stroke="none" font-family="helvetica" font-size="11px" font-style="normal" font-weight="normal" text-decoration="normal" x="146.54281616210938" y="249" text-anchor="start" dominant-baseline="alphabetic" transform="matrix(1, 0, 0, 1, 0.5, 0.5)" fill-opacity="1">0.66</text><text fill="none" stroke="rgb(0,0,0)" font-family="helvetica" font-size="11px" font-style="normal" font-weight="normal" text-decoration="normal" x="146.54281616210938" y="249" text-anchor="start" dominant-baseline="alphabetic" transform="matrix(1, 0, 0, 1, 0.5, 0.5)" stroke-opacity="0" stroke-linejoin="bevel" stroke-miterlimit="10">0.66</text><text fill="rgb(68,68,68)" stroke="none" font-family="helvetica" font-size="11px" font-style="normal" font-weight="normal" text-decoration="normal" x="169.94935607910156" y="249" text-anchor="start" dominant-baseline="alphabetic" transform="matrix(1, 0, 0, 1, 0.5, 0.5)" fill-opacity="1">0.68</text><text fill="none" stroke="rgb(0,0,0)" font-family="helvetica" font-size="11px" font-style="normal" font-weight="normal" text-decoration="normal" x="169.94935607910156" y="249" text-anchor="start" dominant-baseline="alphabetic" transform="matrix(1, 0, 0, 1, 0.5, 0.5)" stroke-opacity="0" stroke-linejoin="bevel" stroke-miterlimit="10">0.68</text><text fill="rgb(68,68,68)" stroke="none" font-family="helvetica" font-size="11px" font-style="normal" font-weight="normal" text-decoration="normal" x="196.41473388671875" y="249" text-anchor="start" dominant-baseline="alphabetic" transform="matrix(1, 0, 0, 1, 0.5, 0.5)" fill-opacity="1">0.7</text><text fill="none" stroke="rgb(0,0,0)" font-family="helvetica" font-size="11px" font-style="normal" font-weight="normal" text-decoration="normal" x="196.41473388671875" y="249" text-anchor="start" dominant-baseline="alphabetic" transform="matrix(1, 0, 0, 1, 0.5, 0.5)" stroke-opacity="0" stroke-linejoin="bevel" stroke-miterlimit="10">0.7</text><text fill="rgb(68,68,68)" stroke="none" font-family="helvetica" font-size="11px" font-style="normal" font-weight="normal" text-decoration="normal" x="216.762451171875" y="249" text-anchor="start" dominant-baseline="alphabetic" transform="matrix(1, 0, 0, 1, 0.5, 0.5)" fill-opacity="1">0.72</text><text fill="none" stroke="rgb(0,0,0)" font-family="helvetica" font-size="11px" font-style="normal" font-weight="normal" text-decoration="normal" x="216.762451171875" y="249" text-anchor="start" dominant-baseline="alphabetic" transform="matrix(1, 0, 0, 1, 0.5, 0.5)" stroke-opacity="0" stroke-linejoin="bevel" stroke-miterlimit="10">0.72</text><text fill="rgb(68,68,68)" stroke="none" font-family="helvetica" font-size="13px" font-style="italic" font-weight="normal" text-decoration="normal" x="70.119140625" y="269" text-anchor="start" dominant-baseline="alphabetic" transform="matrix(1, 0, 0, 1, 0.5, 0.5)" fill-opacity="1">Normalised core radius (m)</text><text fill="none" stroke="rgb(0,0,0)" font-family="helvetica" font-size="13px" font-style="italic" font-weight="normal" text-decoration="normal" x="70.119140625" y="269" text-anchor="start" dominant-baseline="alphabetic" transform="matrix(1, 0, 0, 1, 0.5, 0.5)" stroke-opacity="0" stroke-linejoin="bevel" stroke-miterlimit="10">Normalised core radius (m)</text><path fill="none" stroke="rgb(0,0,0)" paint-order="fill" d="M 52.5 230.5 L 52.5 27.5" stroke-opacity="1" stroke-linejoin="bevel" stroke-miterlimit="10"/><path fill="none" stroke="rgb(0,0,0)" paint-order="fill" d="M 46.5 221.5 L 54.5 221.5 M 46.5 174.5 L 54.5 174.5 M 46.5 128.5 L 54.5 128.5 M 46.5 81.5 L 54.5 81.5 M 46.5 35.5 L 54.5 35.5" stroke-opacity="1" stroke-linejoin="bevel" stroke-miterlimit="10"/><path fill="none" stroke="rgb(0,0,0)" paint-order="fill" d="M 48.5 221.5 L 52.5 221.5 M 48.5 211.5 L 52.5 211.5 M 48.5 202.5 L 52.5 202.5 M 48.5 193.5 L 52.5 193.5 M 48.5 184.5 L 52.5 184.5 M 48.5 174.5 L 52.5 174.5 M 48.5 165.5 L 52.5 165.5 M 48.5 156.5 L 52.5 156.5 M 48.5 146.5 L 52.5 146.5 M 48.5 137.5 L 52.5 137.5 M 48.5 128.5 L 52.5 128.5 M 48.5 118.5 L 52.5 118.5 M 48.5 109.5 L 52.5 109.5 M 48.5 100.5 L 52.5 100.5 M 48.5 91.5 L 52.5 91.5 M 48.5 81.5 L 52.5 81.5 M 48.5 72.5 L 52.5 72.5 M 48.5 63.5 L 52.5 63.5 M 48.5 53.5 L 52.5 53.5 M 48.5 44.5 L 52.5 44.5 M 48.5 35.5 L 52.5 35.5" stroke-opacity="1" stroke-linejoin="bevel" stroke-miterlimit="10"/><text fill="rgb(68,68,68)" stroke="none" font-family="helvetica" font-size="11px" font-style="normal" font-weight="normal" text-decoration="normal" x="34.88232421875" y="224.77272033691406" text-anchor="start" dominant-baseline="alphabetic" transform="matrix(1, 0, 0, 1, 0.5, 0.5)" fill-opacity="1">0</text><text fill="none" stroke="rgb(0,0,0)" font-family="helvetica" font-size="11px" font-style="normal" font-weight="normal" text-decoration="normal" x="34.88232421875" y="224.77272033691406" text-anchor="start" dominant-baseline="alphabetic" transform="matrix(1, 0, 0, 1, 0.5, 0.5)" stroke-opacity="0" stroke-linejoin="bevel" stroke-miterlimit="10">0</text><text fill="rgb(68,68,68)" stroke="none" font-family="helvetica" font-size="11px" font-style="normal" font-weight="normal" text-decoration="normal" x="25.70849609375" y="178.24720764160156" text-anchor="start" dominant-baseline="alphabetic" transform="matrix(1, 0, 0, 1, 0.5, 0.5)" fill-opacity="1">0.2</text><text fill="none" stroke="rgb(0,0,0)" font-family="helvetica" font-size="11px" font-style="normal" font-weight="normal" text-decoration="normal" x="25.70849609375" y="178.24720764160156" text-anchor="start" dominant-baseline="alphabetic" transform="matrix(1, 0, 0, 1, 0.5, 0.5)" stroke-opacity="0" stroke-linejoin="bevel" stroke-miterlimit="10">0.2</text><text fill="rgb(68,68,68)" stroke="none" font-family="helvetica" font-size="11px" font-style="normal" font-weight="normal" text-decoration="normal" x="25.70849609375" y="131.7216796875" text-anchor="start" dominant-baseline="alphabetic" transform="matrix(1, 0, 0, 1, 0.5, 0.5)" fill-opacity="1">0.4</text><text fill="none" stroke="rgb(0,0,0)" font-family="helvetica" font-size="11px" font-style="normal" font-weight="normal" text-decoration="normal" x="25.70849609375" y="131.7216796875" text-anchor="start" dominant-baseline="alphabetic" transform="matrix(1, 0, 0, 1, 0.5, 0.5)" stroke-opacity="0" stroke-linejoin="bevel" stroke-miterlimit="10">0.4</text><text fill="rgb(68,68,68)" stroke="none" font-family="helvetica" font-size="11px" font-style="normal" font-weight="normal" text-decoration="normal" x="25.70849609375" y="85.19615173339844" text-anchor="start" dominant-baseline="alphabetic" transform="matrix(1, 0, 0, 1, 0.5, 0.5)" fill-opacity="1">0.6</text><text fill="none" stroke="rgb(0,0,0)" font-family="helvetica" font-size="11px" font-style="normal" font-weight="normal" text-decoration="normal" x="25.70849609375" y="85.19615173339844" text-anchor="start" dominant-baseline="alphabetic" transform="matrix(1, 0, 0, 1, 0.5, 0.5)" stroke-opacity="0" stroke-linejoin="bevel" stroke-miterlimit="10">0.6</text><text fill="rgb(68,68,68)" stroke="none" font-family="helvetica" font-size="11px" font-style="normal" font-weight="normal" text-decoration="normal" x="25.70849609375" y="38.67062759399414" text-anchor="start" dominant-baseline="alphabetic" transform="matrix(1, 0, 0, 1, 0.5, 0.5)" fill-opacity="1">0.8</text><text fill="none" stroke="rgb(0,0,0)" font-family="helvetica" font-size="11px" font-style="normal" font-weight="normal" text-decoration="normal" x="25.70849609375" y="38.67062759399414" text-anchor="start" dominant-baseline="alphabetic" transform="matrix(1, 0, 0, 1, 0.5, 0.5)" stroke-opacity="0" stroke-linejoin="bevel" stroke-miterlimit="10">0.8</text><text fill="rgb(68,68,68)" stroke="none" font-family="helvetica" font-size="13px" font-style="italic" font-weight="normal" text-decoration="normal" x="-15.175537109375" y="125.5" text-anchor="start" dominant-baseline="alphabetic" transform="matrix(6.123233995736766e-17, -1, 1, 6.123233995736766e-17, -110.29150390625, 146.70849609375)" fill-opacity="1">Confidence</text><text fill="none" stroke="rgb(0,0,0)" font-family="helvetica" font-size="13px" font-style="italic" font-weight="normal" text-decoration="normal" x="-15.175537109375" y="125.5" text-anchor="start" dominant-baseline="alphabetic" transform="matrix(6.123233995736766e-17, -1, 1, 6.123233995736766e-17, -110.29150390625, 146.70849609375)" stroke-opacity="0" stroke-linejoin="bevel" stroke-miterlimit="10">Confidence</text><path fill="rgb(255,249,186)" stroke="rgb(255,0,0)" paint-order="fill" d="M 146.71317483527525 36.72727272727275 L 146.71317483527525 36.72727272727275 L 146.71317483527525 221.27272727272728 L 146.71317483527525 221.27272727272728 L 146.71317483527525 36.72727272727275 Z" fill-opacity="0.4" clip-path="url(#eNDVUJBPrqIu)" stroke-opacity="1" stroke-linejoin="bevel" stroke-miterlimit="10" stroke-width="2" stroke-dasharray="6"/><path fill="rgb(255,249,186)" stroke="rgb(50,205,50)" paint-order="fill" d="M 116.84550052030454 36.72727272727275 L 116.84550052030454 36.72727272727275 L 116.84550052030454 221.27272727272728 L 116.84550052030454 221.27272727272728 L 116.84550052030454 36.72727272727275 Z" fill-opacity="0.4" clip-path="url(#eMeTGKOXqVPw)" stroke-opacity="1" stroke-linejoin="bevel" stroke-miterlimit="10" stroke-width="2" stroke-dasharray="6"/><text fill="rgb(68,68,68)" stroke="none" font-family="helvetica" font-size="13px" font-style="normal" font-weight="bold" text-decoration="normal" x="52" y="19" text-anchor="start" dominant-baseline="alphabetic" transform="matrix(1, 0, 0, 1, 0.5, 0.5)" fill-opacity="1">Convergance Probability</text><text fill="none" stroke="rgb(0,0,0)" font-family="helvetica" font-size="13px" font-style="normal" font-weight="bold" text-decoration="normal" x="52" y="19" text-anchor="start" dominant-baseline="alphabetic" transform="matrix(1, 0, 0, 1, 0.5, 0.5)" stroke-opacity="0" stroke-miterlimit="10" stroke-dasharray="">Convergance Probability</text></svg>