<svg version="1.1" xmlns="http://www.w3.org/2000/svg" width="275" height="275"><defs><clipPath id="InAXUygaGsqg"><path fill="none" stroke="none" d="M 52.5 27.5 L 245.5 27.5 L 245.5 230.5 L 52.5 230.5 L 52.5 27.5 Z"/></clipPath><clipPath id="sBRyhBJpEFpU"><path fill="none" stroke="none" d="M 52.5 27.5 L 245.5 27.5 L 245.5 230.5 L 52.5 230.5 L 52.5 27.5 Z"/></clipPath><clipPath id="ffzXpcHAvLTi"><path fill="none" stroke="none" d="M 52.5 27.5 L 245.5 27.5 L 245.5 230.5 L 52.5 230.5 L 52.5 27.5 Z"/></clipPath><clipPath id="foNaKyHFTAHU"><path fill="none" stroke="none" d="M 52.5 27.5 L 245.5 27.5 L 245.5 230.5 L 52.5 230.5 L 52.5 27.5 Z"/></clipPath><pattern id="JrwBZKHLfWXh" width="3" height="3" patternUnits="userSpaceOnUse"><path fill="rgb(0,0,0)" stroke="none" paint-order="stroke" d="M 2.75 2 A 0.75 0.75 0 0 0 1.25 2 A 0.75 0.75 0 0 0 2.75 2" fill-opacity="0.14901960784313725"/></pattern><clipPath id="TaEXbAVgGtcP"><path fill="none" stroke="none" d="M 52.5 27.5 L 245.5 27.5 L 245.5 230.5 L 52.5 230.5 L 52.5 27.5 Z"/></clipPath><clipPath id="eEJJcNbCGpMv"><path fill="none" stroke="none" d="M 52.5 27.5 L 245.5 27.5 L 245.5 230.5 L 52.5 230.5 L 52.5 27.5 Z"/></clipPath><clipPath id="ThteKweZudVw"><path fill="none" stroke="none" d="M 52.5 27.5 L 245.5 27.5 L 245.5 230.5 L 52.5 230.5 L 52.5 27.5 Z"/></clipPath><clipPath id="tJWdPLfzzcuL"><path fill="none" stroke="none" d="M 52.5 27.5 L 245.5 27.5 L 245.5 230.5 L 52.5 230.5 L 52.5 27.5 Z"/></clipPath></defs><path fill="rgb(255,255,255)" stroke="none" paint-order="stroke" d="M 0.5 0.5 L 275.5 0.5 L 275.5 275.5 L 0.5 275.5 L 0.5 0.5 Z" fill-opacity="1"/><rect fill="#FFFFFF" stroke="none" x="52" y="27" width="193" height="203" transform="matrix(1, 0, 0, 1, 0.5, 0.5)"/><path fill="rgb(255,255,255)" stroke="none" paint-order="stroke" d="M 52.5 27.5 L 245.5 27.5 L 245.5 230.5 L 52.5 230.5 L 52.5 27.5 Z" fill-opacity="1"/><path fill="none" stroke="rgb(229,229,229)" paint-order="fill" d="M 52.5 27.5 L 245.5 27.5 L 245.5 230.5 L 52.5 230.5 L 52.5 27.5 Z" stroke-opacity="1" stroke-linejoin="bevel" stroke-miterlimit="10"/><path fill="none" stroke="rgb(229,229,229)" paint-order="fill" d="M 68.5 230.5 L 68.5 27.5 M 94.5 230.5 L 94.5 27.5 M 120.5 230.5 L 120.5 27.5 M 146.5 230.5 L 146.5 27.5 M 172.5 230.5 L 172.5 27.5 M 198.5 230.5 L 198.5 27.5 M 223.5 230.5 L 223.5 27.5" stroke-opacity="1" stroke-linejoin="bevel" stroke-miterlimit="10" clip-path="url(#InAXUygaGsqg)"/><path fill="none" stroke="rgb(229,229,229)" paint-order="fill" d="M 52.5 221.5 L 245.5 221.5 M 52.5 183.5 L 245.5 183.5 M 52.5 145.5 L 245.5 145.5 M 52.5 107.5 L 245.5 107.5 M 52.5 69.5 L 245.5 69.5 M 52.5 31.5 L 245.5 31.5" stroke-opacity="1" stroke-linejoin="bevel" stroke-miterlimit="10" clip-path="url(#sBRyhBJpEFpU)"/><path fill="none" stroke="rgb(0,0,0)" paint-order="fill" d="M 93.78334045410156 31.10355567932129 L 93.78334045410156 47.04932403564453" stroke-opacity="1" stroke-linejoin="bevel" stroke-miterlimit="10" clip-path="url(#ffzXpcHAvLTi)"/><path fill="none" stroke="rgb(0,0,0)" paint-order="fill" d="M 145.14767456054688 27.937564849853516 L 145.14767456054688 45.5169792175293" stroke-opacity="1" stroke-linejoin="bevel" stroke-miterlimit="10" clip-path="url(#ffzXpcHAvLTi)"/><path fill="none" stroke="rgb(0,0,0)" paint-order="fill" d="M 196.5120086669922 32.53278732299805 L 196.5120086669922 48.59391403198242" stroke-opacity="1" stroke-linejoin="bevel" stroke-miterlimit="10" clip-path="url(#ffzXpcHAvLTi)"/><path fill="none" stroke="rgb(0,0,0)" paint-order="fill" d="M 88.78334045410156 31.10355567932129 L 98.78334045410156 31.10355567932129" stroke-opacity="1" stroke-linejoin="bevel" stroke-miterlimit="10" clip-path="url(#ffzXpcHAvLTi)"/><path fill="none" stroke="rgb(0,0,0)" paint-order="fill" d="M 140.14767456054688 27.937564849853516 L 150.14767456054688 27.937564849853516" stroke-opacity="1" stroke-linejoin="bevel" stroke-miterlimit="10" clip-path="url(#ffzXpcHAvLTi)"/><path fill="none" stroke="rgb(0,0,0)" paint-order="fill" d="M 191.5120086669922 32.53278732299805 L 201.5120086669922 32.53278732299805" stroke-opacity="1" stroke-linejoin="bevel" stroke-miterlimit="10" clip-path="url(#ffzXpcHAvLTi)"/><path fill="none" stroke="rgb(0,0,0)" paint-order="fill" d="M 98.78334045410156 47.04932403564453 L 88.78334045410156 47.04932403564453" stroke-opacity="1" stroke-linejoin="bevel" stroke-miterlimit="10" clip-path="url(#ffzXpcHAvLTi)"/><path fill="none" stroke="rgb(0,0,0)" paint-order="fill" d="M 150.14767456054688 45.5169792175293 L 140.14767456054688 45.5169792175293" stroke-opacity="1" stroke-linejoin="bevel" stroke-miterlimit="10" clip-path="url(#ffzXpcHAvLTi)"/><path fill="none" stroke="rgb(0,0,0)" paint-order="fill" d="M 201.5120086669922 48.59391403198242 L 191.5120086669922 48.59391403198242" stroke-opacity="1" stroke-linejoin="bevel" stroke-miterlimit="10" clip-path="url(#ffzXpcHAvLTi)"/><path fill="rgb(128,128,128)" stroke="none" paint-order="stroke" d="M 68.1011734008789 36.727272033691406 L 222.19418334960938 36.727272033691406 L 222.19418334960938 221.27273559570312 L 68.1011734008789 221.27273559570312 L 68.1011734008789 36.727272033691406 Z" fill-opacity="0.10196078431372549" clip-path="url(#foNaKyHFTAHU)"/><path fill="url(#JrwBZKHLfWXh)" stroke="rgb(0,0,0)" paint-order="fill" d="M 68.1011734008789 36.727272033691406 L 222.19418334960938 36.727272033691406 L 222.19418334960938 221.27273559570312 L 68.1011734008789 221.27273559570312 L 68.1011734008789 36.727272033691406 Z" clip-path="url(#foNaKyHFTAHU)" stroke-opacity="0.2" stroke-linejoin="bevel" stroke-miterlimit="10"/><path fill="rgb(100,149,237)" stroke="rgb(31,119,180)" paint-order="fill" d="M 68.1011734008789 39.076438903808594 L 119.46550750732422 39.076438903808594 L 119.46550750732422 221.27272033691406 L 68.1011734008789 221.27272033691406 L 68.1011734008789 39.076438903808594 Z" fill-opacity="0.5019607843137255" clip-path="url(#TaEXbAVgGtcP)" stroke-opacity="0.5019607843137255" stroke-linejoin="bevel" stroke-miterlimit="10"/><path fill="rgb(100,149,237)" stroke="rgb(31,119,180)" paint-order="fill" d="M 119.46550750732422 36.727272033691406 L 170.829833984375 36.727272033691406 L 170.829833984375 221.27272033691406 L 119.46550750732422 221.27272033691406 L 119.46550750732422 36.727272033691406 Z" fill-opacity="0.5019607843137255" clip-path="url(#TaEXbAVgGtcP)" stroke-opacity="0.5019607843137255" stroke-linejoin="bevel" stroke-miterlimit="10"/><path fill="rgb(100,149,237)" stroke="rgb(31,119,180)" paint-order="fill" d="M 170.829833984375 40.563350677490234 L 222.19418334960938 40.563350677490234 L 222.19418334960938 221.27272033691406 L 170.829833984375 221.27272033691406 L 170.829833984375 40.563350677490234 Z" fill-opacity="0.5019607843137255" clip-path="url(#TaEXbAVgGtcP)" stroke-opacity="0.5019607843137255" stroke-linejoin="bevel" stroke-miterlimit="10"/><path fill="none" stroke="rgb(0,0,0)" paint-order="fill" d="M 52.5 230.5 L 245.5 230.5" stroke-opacity="1" stroke-linejoin="bevel" stroke-miterlimit="10"/><path fill="none" stroke="rgb(0,0,0)" paint-order="fill" d="M 68.5 236.5 L 68.5 228.5 M 94.5 236.5 L 94.5 228.5 M 120.5 236.5 L 120.5 228.5 M 146.5 236.5 L 146.5 228.5 M 172.5 236.5 L 172.5 228.5 M 198.5 236.5 L 198.5 228.5 M 223.5 236.5 L 223.5 228.5" stroke-opacity="1" stroke-linejoin="bevel" stroke-miterlimit="10"/><path fill="none" stroke="rgb(0,0,0)" paint-order="fill" d="M 62.5 234.5 L 62.5 230.5 M 57.5 234.5 L 57.5 230.5 M 68.5 234.5 L 68.5 230.5 M 73.5 234.5 L 73.5 230.5 M 78.5 234.5 L 78.5 230.5 M 83.5 234.5 L 83.5 230.5 M 88.5 234.5 L 88.5 230.5 M 94.5 234.5 L 94.5 230.5 M 99.5 234.5 L 99.5 230.5 M 104.5 234.5 L 104.5 230.5 M 109.5 234.5 L 109.5 230.5 M 114.5 234.5 L 114.5 230.5 M 120.5 234.5 L 120.5 230.5 M 125.5 234.5 L 125.5 230.5 M 130.5 234.5 L 130.5 230.5 M 135.5 234.5 L 135.5 230.5 M 140.5 234.5 L 140.5 230.5 M 146.5 234.5 L 146.5 230.5 M 151.5 234.5 L 151.5 230.5 M 156.5 234.5 L 156.5 230.5 M 161.5 234.5 L 161.5 230.5 M 166.5 234.5 L 166.5 230.5 M 172.5 234.5 L 172.5 230.5 M 177.5 234.5 L 177.5 230.5 M 182.5 234.5 L 182.5 230.5 M 187.5 234.5 L 187.5 230.5 M 192.5 234.5 L 192.5 230.5 M 198.5 234.5 L 198.5 230.5 M 203.5 234.5 L 203.5 230.5 M 208.5 234.5 L 208.5 230.5 M 213.5 234.5 L 213.5 230.5 M 218.5 234.5 L 218.5 230.5 M 223.5 234.5 L 223.5 230.5 M 229.5 234.5 L 229.5 230.5 M 234.5 234.5 L 234.5 230.5 M 239.5 234.5 L 239.5 230.5 M 244.5 234.5 L 244.5 230.5" stroke-opacity="1" stroke-linejoin="bevel" stroke-miterlimit="10"/><text fill="rgb(68,68,68)" stroke="none" font-family="helvetica" font-size="11px" font-style="normal" font-weight="normal" text-decoration="normal" x="59.87855529785156" y="249" text-anchor="start" dominant-baseline="alphabetic" transform="matrix(1, 0, 0, 1, 0.5, 0.5)" fill-opacity="1">0.6</text><text fill="none" stroke="rgb(0,0,0)" font-family="helvetica" font-size="11px" font-style="normal" font-weight="normal" text-decoration="normal" x="59.87855529785156" y="249" text-anchor="start" dominant-baseline="alphabetic" transform="matrix(1, 0, 0, 1, 0.5, 0.5)" stroke-opacity="0" stroke-linejoin="bevel" stroke-miterlimit="10">0.6</text><text fill="rgb(68,68,68)" stroke="none" font-family="helvetica" font-size="11px" font-style="normal" font-weight="normal" text-decoration="normal" x="82.81526947021484" y="249" text-anchor="start" dominant-baseline="alphabetic" transform="matrix(1, 0, 0, 1, 0.5, 0.5)" fill-opacity="1">0.65</text><text fill="none" stroke="rgb(0,0,0)" font-family="helvetica" font-size="11px" font-style="normal" font-weight="normal" text-decoration="normal" x="82.81526947021484" y="249" text-anchor="start" dominant-baseline="alphabetic" transform="matrix(1, 0, 0, 1, 0.5, 0.5)" stroke-opacity="0" stroke-linejoin="bevel" stroke-miterlimit="10">0.65</text><text fill="rgb(68,68,68)" stroke="none" font-family="helvetica" font-size="11px" font-style="normal" font-weight="normal" text-decoration="normal" x="111.86965942382812" y="249" text-anchor="start" dominant-baseline="alphabetic" transform="matrix(1, 0, 0, 1, 0.5, 0.5)" fill-opacity="1">0.7</text><text fill="none" stroke="rgb(0,0,0)" font-family="helvetica" font-size="11px" font-style="normal" font-weight="normal" text-decoration="normal" x="111.86965942382812" y="249" text-anchor="start" dominant-baseline="alphabetic" transform="matrix(1, 0, 0, 1, 0.5, 0.5)" stroke-opacity="0" stroke-linejoin="bevel" stroke-miterlimit="10">0.7</text><text fill="rgb(68,68,68)" stroke="none" font-family="helvetica" font-size="11px" font-style="normal" font-weight="normal" text-decoration="normal" x="134.80638122558594" y="249" text-anchor="start" dominant-baseline="alphabetic" transform="matrix(1, 0, 0, 1, 0.5, 0.5)" fill-opacity="1">0.75</text><text fill="none" stroke="rgb(0,0,0)" font-family="helvetica" font-size="11px" font-style="normal" font-weight="normal" text-decoration="normal" x="134.80638122558594" y="249" text-anchor="start" dominant-baseline="alphabetic" transform="matrix(1, 0, 0, 1, 0.5, 0.5)" stroke-opacity="0" stroke-linejoin="bevel" stroke-miterlimit="10">0.75</text><text fill="rgb(68,68,68)" stroke="none" font-family="helvetica" font-size="11px" font-style="normal" font-weight="normal" text-decoration="normal" x="163.8607635498047" y="249" text-anchor="start" dominant-baseline="alphabetic" transform="matrix(1, 0, 0, 1, 0.5, 0.5)" fill-opacity="1">0.8</text><text fill="none" stroke="rgb(0,0,0)" font-family="helvetica" font-size="11px" font-style="normal" font-weight="normal" text-decoration="normal" x="163.8607635498047" y="249" text-anchor="start" dominant-baseline="alphabetic" transform="matrix(1, 0, 0, 1, 0.5, 0.5)" stroke-opacity="0" stroke-linejoin="bevel" stroke-miterlimit="10">0.8</text><text fill="rgb(68,68,68)" stroke="none" font-family="helvetica" font-size="11px" font-style="normal" font-weight="normal" text-decoration="normal" x="186.79747009277344" y="249" text-anchor="start" dominant-baseline="alphabetic" transform="matrix(1, 0, 0, 1, 0.5, 0.5)" fill-opacity="1">0.85</text><text fill="none" stroke="rgb(0,0,0)" font-family="helvetica" font-size="11px" font-style="normal" font-weight="normal" text-decoration="normal" x="186.79747009277344" y="249" text-anchor="start" dominant-baseline="alphabetic" transform="matrix(1, 0, 0, 1, 0.5, 0.5)" stroke-opacity="0" stroke-linejoin="bevel" stroke-miterlimit="10">0.85</text><text fill="rgb(68,68,68)" stroke="none" font-family="helvetica" font-size="11px" font-style="normal" font-weight="normal" text-decoration="normal" x="215.85186767578125" y="249" text-anchor="start" dominant-baseline="alphabetic" transform="matrix(1, 0, 0, 1, 0.5, 0.5)" fill-opacity="1">0.9</text><text fill="none" stroke="rgb(0,0,0)" font-family="helvetica" font-size="11px" font-style="normal" font-weight="normal" text-decoration="normal" x="215.85186767578125" y="249" text-anchor="start" dominant-baseline="alphabetic" transform="matrix(1, 0, 0, 1, 0.5, 0.5)" stroke-opacity="0" stroke-linejoin="bevel" stroke-miterlimit="10">0.9</text><text fill="rgb(68,68,68)" stroke="none" font-family="helvetica" font-size="13px" font-style="italic" font-weight="normal" text-decoration="normal" x="70.119140625" y="269" text-anchor="start" dominant-baseline="alphabetic" transform="matrix(1, 0, 0, 1, 0.5, 0.5)" fill-opacity="1">Normalised core radius (m)</text><text fill="none" stroke="rgb(0,0,0)" font-family="helvetica" font-size="13px" font-style="italic" font-weight="normal" text-decoration="normal" x="70.119140625" y="269" text-anchor="start" dominant-baseline="alphabetic" transform="matrix(1, 0, 0, 1, 0.5, 0.5)" stroke-opacity="0" stroke-linejoin="bevel" stroke-miterlimit="10">Normalised core radius (m)</text><path fill="none" stroke="rgb(0,0,0)" paint-order="fill" d="M 52.5 230.5 L 52.5 27.5" stroke-opacity="1" stroke-linejoin="bevel" stroke-miterlimit="10"/><path fill="none" stroke="rgb(0,0,0)" paint-order="fill" d="M 46.5 221.5 L 54.5 221.5 M 46.5 183.5 L 54.5 183.5 M 46.5 145.5 L 54.5 145.5 M 46.5 107.5 L 54.5 107.5 M 46.5 69.5 L 54.5 69.5 M 46.5 31.5 L 54.5 31.5" stroke-opacity="1" stroke-linejoin="bevel" stroke-miterlimit="10"/><path fill="none" stroke="rgb(0,0,0)" paint-order="fill" d="M 48.5 228.5 L 52.5 228.5 M 48.5 221.5 L 52.5 221.5 M 48.5 213.5 L 52.5 213.5 M 48.5 206.5 L 52.5 206.5 M 48.5 198.5 L 52.5 198.5 M 48.5 190.5 L 52.5 190.5 M 48.5 183.5 L 52.5 183.5 M 48.5 175.5 L 52.5 175.5 M 48.5 168.5 L 52.5 168.5 M 48.5 160.5 L 52.5 160.5 M 48.5 152.5 L 52.5 152.5 M 48.5 145.5 L 52.5 145.5 M 48.5 137.5 L 52.5 137.5 M 48.5 130.5 L 52.5 130.5 M 48.5 122.5 L 52.5 122.5 M 48.5 115.5 L 52.5 115.5 M 48.5 107.5 L 52.5 107.5 M 48.5 99.5 L 52.5 99.5 M 48.5 92.5 L 52.5 92.5 M 48.5 84.5 L 52.5 84.5 M 48.5 77.5 L 52.5 77.5 M 48.5 69.5 L 52.5 69.5 M 48.5 61.5 L 52.5 61.5 M 48.5 54.5 L 52.5 54.5 M 48.5 46.5 L 52.5 46.5 M 48.5 39.5 L 52.5 39.5 M 48.5 31.5 L 52.5 31.5" stroke-opacity="1" stroke-linejoin="bevel" stroke-miterlimit="10"/><text fill="rgb(68,68,68)" stroke="none" font-family="helvetica" font-size="11px" font-style="normal" font-weight="normal" text-decoration="normal" x="34.88232421875" y="224.77272033691406" text-anchor="start" dominant-baseline="alphabetic" transform="matrix(1, 0, 0, 1, 0.5, 0.5)" fill-opacity="1">0</text><text fill="none" stroke="rgb(0,0,0)" font-family="helvetica" font-size="11px" font-style="normal" font-weight="normal" text-decoration="normal" x="34.88232421875" y="224.77272033691406" text-anchor="start" dominant-baseline="alphabetic" transform="matrix(1, 0, 0, 1, 0.5, 0.5)" stroke-opacity="0" stroke-linejoin="bevel" stroke-miterlimit="10">0</text><text fill="rgb(68,68,68)" stroke="none" font-family="helvetica" font-size="11px" font-style="normal" font-weight="normal" text-decoration="normal" x="25.70849609375" y="186.82815551757812" text-anchor="start" dominant-baseline="alphabetic" transform="matrix(1, 0, 0, 1, 0.5, 0.5)" fill-opacity="1">0.2</text><text fill="none" stroke="rgb(0,0,0)" font-family="helvetica" font-size="11px" font-style="normal" font-weight="normal" text-decoration="normal" x="25.70849609375" y="186.82815551757812" text-anchor="start" dominant-baseline="alphabetic" transform="matrix(1, 0, 0, 1, 0.5, 0.5)" stroke-opacity="0" stroke-linejoin="bevel" stroke-miterlimit="10">0.2</text><text fill="rgb(68,68,68)" stroke="none" font-family="helvetica" font-size="11px" font-style="normal" font-weight="normal" text-decoration="normal" x="25.70849609375" y="148.8835906982422" text-anchor="start" dominant-baseline="alphabetic" transform="matrix(1, 0, 0, 1, 0.5, 0.5)" fill-opacity="1">0.4</text><text fill="none" stroke="rgb(0,0,0)" font-family="helvetica" font-size="11px" font-style="normal" font-weight="normal" text-decoration="normal" x="25.70849609375" y="148.8835906982422" text-anchor="start" dominant-baseline="alphabetic" transform="matrix(1, 0, 0, 1, 0.5, 0.5)" stroke-opacity="0" stroke-linejoin="bevel" stroke-miterlimit="10">0.4</text><text fill="rgb(68,68,68)" stroke="none" font-family="helvetica" font-size="11px" font-style="normal" font-weight="normal" text-decoration="normal" x="25.70849609375" y="110.93902587890625" text-anchor="start" dominant-baseline="alphabetic" transform="matrix(1, 0, 0, 1, 0.5, 0.5)" fill-opacity="1">0.6</text><text fill="none" stroke="rgb(0,0,0)" font-family="helvetica" font-size="11px" font-style="normal" font-weight="normal" text-decoration="normal" x="25.70849609375" y="110.93902587890625" text-anchor="start" dominant-baseline="alphabetic" transform="matrix(1, 0, 0, 1, 0.5, 0.5)" stroke-opacity="0" stroke-linejoin="bevel" stroke-miterlimit="10">0.6</text><text fill="rgb(68,68,68)" stroke="none" font-family="helvetica" font-size="11px" font-style="normal" font-weight="normal" text-decoration="normal" x="25.70849609375" y="72.99446105957031" text-anchor="start" dominant-baseline="alphabetic" transform="matrix(1, 0, 0, 1, 0.5, 0.5)" fill-opacity="1">0.8</text><text fill="none" stroke="rgb(0,0,0)" font-family="helvetica" font-size="11px" font-style="normal" font-weight="normal" text-decoration="normal" x="25.70849609375" y="72.99446105957031" text-anchor="start" dominant-baseline="alphabetic" transform="matrix(1, 0, 0, 1, 0.5, 0.5)" stroke-opacity="0" stroke-linejoin="bevel" stroke-miterlimit="10">0.8</text><text fill="rgb(68,68,68)" stroke="none" font-family="helvetica" font-size="11px" font-style="normal" font-weight="normal" text-decoration="normal" x="34.88232421875" y="35.04989242553711" text-anchor="start" dominant-baseline="alphabetic" transform="matrix(1, 0, 0, 1, 0.5, 0.5)" fill-opacity="1">1</text><text fill="none" stroke="rgb(0,0,0)" font-family="helvetica" font-size="11px" font-style="normal" font-weight="normal" text-decoration="normal" x="34.88232421875" y="35.04989242553711" text-anchor="start" dominant-baseline="alphabetic" transform="matrix(1, 0, 0, 1, 0.5, 0.5)" stroke-opacity="0" stroke-linejoin="bevel" stroke-miterlimit="10">1</text><text fill="rgb(68,68,68)" stroke="none" font-family="helvetica" font-size="13px" font-style="italic" font-weight="normal" text-decoration="normal" x="-47.31689453125" y="125.5" text-anchor="start" dominant-baseline="alphabetic" transform="matrix(6.123233995736766e-17, -1, 1, 6.123233995736766e-17, -110.29150390625, 146.70849609375)" fill-opacity="1">Normalised Probability</text><text fill="none" stroke="rgb(0,0,0)" font-family="helvetica" font-size="13px" font-style="italic" font-weight="normal" text-decoration="normal" x="-47.31689453125" y="125.5" text-anchor="start" dominant-baseline="alphabetic" transform="matrix(6.123233995736766e-17, -1, 1, 6.123233995736766e-17, -110.29150390625, 146.70849609375)" stroke-opacity="0" stroke-linejoin="bevel" stroke-miterlimit="10">Normalised Probability</text><path fill="rgb(255,249,186)" stroke="rgb(255,0,0)" paint-order="fill" d="M 144.86303456254967 36.72727272727272 L 144.86303456254967 36.72727272727272 L 144.86303456254967 221.27272727272725 L 144.86303456254967 221.27272727272725 L 144.86303456254967 36.72727272727272 Z" fill-opacity="0.4" clip-path="url(#eEJJcNbCGpMv)" stroke-opacity="1" stroke-linejoin="bevel" stroke-miterlimit="10" stroke-width="2" stroke-dasharray="6"/><path fill="rgb(255,249,186)" stroke="rgb(50,205,50)" paint-order="fill" d="M 145.1476749416695 36.72727272727272 L 145.1476749416695 36.72727272727272 L 145.1476749416695 221.27272727272725 L 145.1476749416695 221.27272727272725 L 145.1476749416695 36.72727272727272 Z" fill-opacity="0.4" clip-path="url(#ThteKweZudVw)" stroke-opacity="1" stroke-linejoin="bevel" stroke-miterlimit="10" stroke-width="2" stroke-dasharray="6"/><text fill="rgb(68,68,68)" stroke="none" font-family="helvetica" font-size="13px" font-style="normal" font-weight="bold" text-decoration="normal" x="52" y="19" text-anchor="start" dominant-baseline="alphabetic" transform="matrix(1, 0, 0, 1, 0.5, 0.5)" fill-opacity="1">Convergance Probability</text><text fill="none" stroke="rgb(0,0,0)" font-family="helvetica" font-size="13px" font-style="normal" font-weight="bold" text-decoration="normal" x="52" y="19" text-anchor="start" dominant-baseline="alphabetic" transform="matrix(1, 0, 0, 1, 0.5, 0.5)" stroke-opacity="0" stroke-miterlimit="10" stroke-dasharray="">Convergance Probability</text></svg>