<svg version="1.1" xmlns="http://www.w3.org/2000/svg" width="350" height="350"><defs><clipPath id="iPERThUhyTGU"><path fill="none" stroke="none" d="M 52.5 27.5 L 320.5 27.5 L 320.5 305.5 L 52.5 305.5 L 52.5 27.5 Z"/></clipPath><clipPath id="HGHAdVuTCOEM"><path fill="none" stroke="none" d="M 52.5 27.5 L 320.5 27.5 L 320.5 305.5 L 52.5 305.5 L 52.5 27.5 Z"/></clipPath><clipPath id="VKCtxObCPXiG"><path fill="none" stroke="none" d="M 52.5 27.5 L 320.5 27.5 L 320.5 305.5 L 52.5 305.5 L 52.5 27.5 Z"/></clipPath><pattern id="SBvdOhiFKPAH" width="3" height="3" patternUnits="userSpaceOnUse"><path fill="rgb(0,0,0)" stroke="none" paint-order="stroke" d="M 2.75 2 A 0.75 0.75 0 0 0 1.25 2 A 0.75 0.75 0 0 0 2.75 2" fill-opacity="0.14901960784313725"/></pattern><clipPath id="vcxRHeZPmmyh"><path fill="none" stroke="none" d="M 52.5 27.5 L 320.5 27.5 L 320.5 305.5 L 52.5 305.5 L 52.5 27.5 Z"/></clipPath><clipPath id="QZcgotLCTCuo"><path fill="none" stroke="none" d="M 52.5 27.5 L 320.5 27.5 L 320.5 305.5 L 52.5 305.5 L 52.5 27.5 Z"/></clipPath><clipPath id="TTpebhOGfbMW"><path fill="none" stroke="none" d="M 52.5 27.5 L 320.5 27.5 L 320.5 305.5 L 52.5 305.5 L 52.5 27.5 Z"/></clipPath><clipPath id="TdLMczvXTuos"><path fill="none" stroke="none" d="M 52.5 27.5 L 320.5 27.5 L 320.5 305.5 L 52.5 305.5 L 52.5 27.5 Z"/></clipPath></defs><path fill="rgb(255,255,255)" stroke="none" paint-order="stroke" d="M 0.5 0.5 L 350.5 0.5 L 350.5 350.5 L 0.5 350.5 L 0.5 0.5 Z" fill-opacity="1"/><rect fill="#FFFFFF" stroke="none" x="52" y="27" width="268" height="278" transform="matrix(1, 0, 0, 1, 0.5, 0.5)"/><path fill="rgb(255,255,255)" stroke="none" paint-order="stroke" d="M 52.5 27.5 L 320.5 27.5 L 320.5 305.5 L 52.5 305.5 L 52.5 27.5 Z" fill-opacity="1"/><path fill="none" stroke="rgb(229,229,229)" paint-order="fill" d="M 52.5 27.5 L 320.5 27.5 L 320.5 305.5 L 52.5 305.5 L 52.5 27.5 Z" stroke-opacity="1" stroke-linejoin="bevel" stroke-miterlimit="10"/><path fill="none" stroke="rgb(229,229,229)" paint-order="fill" d="M 102.5 305.5 L 102.5 27.5 M 160.5 305.5 L 160.5 27.5 M 219.5 305.5 L 219.5 27.5 M 278.5 305.5 L 278.5 27.5" stroke-opacity="1" stroke-linejoin="bevel" stroke-miterlimit="10" clip-path="url(#iPERThUhyTGU)"/><path fill="none" stroke="rgb(229,229,229)" paint-order="fill" d="M 52.5 292.5 L 320.5 292.5 M 52.5 241.5 L 320.5 241.5 M 52.5 189.5 L 320.5 189.5 M 52.5 138.5 L 320.5 138.5 M 52.5 86.5 L 320.5 86.5 M 52.5 34.5 L 320.5 34.5" stroke-opacity="1" stroke-linejoin="bevel" stroke-miterlimit="10" clip-path="url(#HGHAdVuTCOEM)"/><path fill="rgb(128,128,128)" stroke="none" paint-order="stroke" d="M 68.40531158447266 40.13636016845703 L 293.3475646972656 40.13636016845703 L 293.3475646972656 292.8636474609375 L 68.40531158447266 292.8636474609375 L 68.40531158447266 40.13636016845703 Z" fill-opacity="0.10196078431372549" clip-path="url(#VKCtxObCPXiG)"/><path fill="url(#SBvdOhiFKPAH)" stroke="rgb(0,0,0)" paint-order="fill" d="M 68.40531158447266 40.13636016845703 L 293.3475646972656 40.13636016845703 L 293.3475646972656 292.8636474609375 L 68.40531158447266 292.8636474609375 L 68.40531158447266 40.13636016845703 Z" clip-path="url(#VKCtxObCPXiG)" stroke-opacity="0.2" stroke-linejoin="bevel" stroke-miterlimit="10"/><path fill="rgb(100,149,237)" stroke="rgb(31,119,180)" paint-order="fill" d="M 68.40531158447266 61.92855453491211 L 124.64087677001953 61.92855453491211 L 124.64087677001953 292.8636474609375 L 68.40531158447266 292.8636474609375 L 68.40531158447266 61.92855453491211 Z" fill-opacity="1" clip-path="url(#vcxRHeZPmmyh)" stroke-opacity="1" stroke-linejoin="bevel" stroke-miterlimit="10"/><path fill="rgb(100,149,237)" stroke="rgb(31,119,180)" paint-order="fill" d="M 124.64088439941406 66.62200164794922 L 180.87644958496094 66.62200164794922 L 180.87644958496094 292.8636474609375 L 124.64088439941406 292.8636474609375 L 124.64088439941406 66.62200164794922 Z" fill-opacity="1" clip-path="url(#vcxRHeZPmmyh)" stroke-opacity="1" stroke-linejoin="bevel" stroke-miterlimit="10"/><path fill="rgb(100,149,237)" stroke="rgb(31,119,180)" paint-order="fill" d="M 180.87644958496094 40.1363639831543 L 237.1120147705078 40.1363639831543 L 237.1120147705078 292.8636474609375 L 180.87644958496094 292.8636474609375 L 180.87644958496094 40.1363639831543 Z" fill-opacity="1" clip-path="url(#vcxRHeZPmmyh)" stroke-opacity="1" stroke-linejoin="bevel" stroke-miterlimit="10"/><path fill="rgb(100,149,237)" stroke="rgb(31,119,180)" paint-order="fill" d="M 237.1120147705078 76.4275894165039 L 293.34759521484375 76.4275894165039 L 293.34759521484375 292.8636474609375 L 237.1120147705078 292.8636474609375 L 237.1120147705078 76.4275894165039 Z" fill-opacity="1" clip-path="url(#vcxRHeZPmmyh)" stroke-opacity="1" stroke-linejoin="bevel" stroke-miterlimit="10"/><path fill="rgb(100,149,237)" stroke="rgb(31,119,180)" paint-order="fill" d="M 293.34759521484375 292.8636474609375 L 320.5 292.8636474609375 L 320.5 292.8636474609375 L 293.34759521484375 292.8636474609375 L 293.34759521484375 292.8636474609375 Z" fill-opacity="1" clip-path="url(#vcxRHeZPmmyh)" stroke-opacity="1" stroke-linejoin="bevel" stroke-miterlimit="10"/><path fill="none" stroke="rgb(0,0,0)" paint-order="fill" d="M 52.5 305.5 L 320.5 305.5" stroke-opacity="1" stroke-linejoin="bevel" stroke-miterlimit="10"/><path fill="none" stroke="rgb(0,0,0)" paint-order="fill" d="M 102.5 311.5 L 102.5 303.5 M 160.5 311.5 L 160.5 303.5 M 219.5 311.5 L 219.5 303.5 M 278.5 311.5 L 278.5 303.5" stroke-opacity="1" stroke-linejoin="bevel" stroke-miterlimit="10"/><path fill="none" stroke="rgb(0,0,0)" paint-order="fill" d="M 90.5 309.5 L 90.5 305.5 M 78.5 309.5 L 78.5 305.5 M 67.5 309.5 L 67.5 305.5 M 55.5 309.5 L 55.5 305.5 M 102.5 309.5 L 102.5 305.5 M 114.5 309.5 L 114.5 305.5 M 125.5 309.5 L 125.5 305.5 M 137.5 309.5 L 137.5 305.5 M 149.5 309.5 L 149.5 305.5 M 160.5 309.5 L 160.5 305.5 M 172.5 309.5 L 172.5 305.5 M 184.5 309.5 L 184.5 305.5 M 196.5 309.5 L 196.5 305.5 M 207.5 309.5 L 207.5 305.5 M 219.5 309.5 L 219.5 305.5 M 231.5 309.5 L 231.5 305.5 M 243.5 309.5 L 243.5 305.5 M 254.5 309.5 L 254.5 305.5 M 266.5 309.5 L 266.5 305.5 M 278.5 309.5 L 278.5 305.5 M 289.5 309.5 L 289.5 305.5 M 301.5 309.5 L 301.5 305.5 M 313.5 309.5 L 313.5 305.5" stroke-opacity="1" stroke-linejoin="bevel" stroke-miterlimit="10"/><text fill="rgb(68,68,68)" stroke="none" font-family="helvetica" font-size="11px" font-style="normal" font-weight="normal" text-decoration="normal" x="94.128173828125" y="324" text-anchor="start" dominant-baseline="alphabetic" transform="matrix(1, 0, 0, 1, 0.5, 0.5)" fill-opacity="1">0.6</text><text fill="none" stroke="rgb(0,0,0)" font-family="helvetica" font-size="11px" font-style="normal" font-weight="normal" text-decoration="normal" x="94.128173828125" y="324" text-anchor="start" dominant-baseline="alphabetic" transform="matrix(1, 0, 0, 1, 0.5, 0.5)" stroke-opacity="0" stroke-linejoin="bevel" stroke-miterlimit="10">0.6</text><text fill="rgb(68,68,68)" stroke="none" font-family="helvetica" font-size="11px" font-style="normal" font-weight="normal" text-decoration="normal" x="152.7906494140625" y="324" text-anchor="start" dominant-baseline="alphabetic" transform="matrix(1, 0, 0, 1, 0.5, 0.5)" fill-opacity="1">0.7</text><text fill="none" stroke="rgb(0,0,0)" font-family="helvetica" font-size="11px" font-style="normal" font-weight="normal" text-decoration="normal" x="152.7906494140625" y="324" text-anchor="start" dominant-baseline="alphabetic" transform="matrix(1, 0, 0, 1, 0.5, 0.5)" stroke-opacity="0" stroke-linejoin="bevel" stroke-miterlimit="10">0.7</text><text fill="rgb(68,68,68)" stroke="none" font-family="helvetica" font-size="11px" font-style="normal" font-weight="normal" text-decoration="normal" x="211.45314025878906" y="324" text-anchor="start" dominant-baseline="alphabetic" transform="matrix(1, 0, 0, 1, 0.5, 0.5)" fill-opacity="1">0.8</text><text fill="none" stroke="rgb(0,0,0)" font-family="helvetica" font-size="11px" font-style="normal" font-weight="normal" text-decoration="normal" x="211.45314025878906" y="324" text-anchor="start" dominant-baseline="alphabetic" transform="matrix(1, 0, 0, 1, 0.5, 0.5)" stroke-opacity="0" stroke-linejoin="bevel" stroke-miterlimit="10">0.8</text><text fill="rgb(68,68,68)" stroke="none" font-family="helvetica" font-size="11px" font-style="normal" font-weight="normal" text-decoration="normal" x="270.1156311035156" y="324" text-anchor="start" dominant-baseline="alphabetic" transform="matrix(1, 0, 0, 1, 0.5, 0.5)" fill-opacity="1">0.9</text><text fill="none" stroke="rgb(0,0,0)" font-family="helvetica" font-size="11px" font-style="normal" font-weight="normal" text-decoration="normal" x="270.1156311035156" y="324" text-anchor="start" dominant-baseline="alphabetic" transform="matrix(1, 0, 0, 1, 0.5, 0.5)" stroke-opacity="0" stroke-linejoin="bevel" stroke-miterlimit="10">0.9</text><text fill="rgb(68,68,68)" stroke="none" font-family="helvetica" font-size="13px" font-style="italic" font-weight="normal" text-decoration="normal" x="107.619140625" y="344" text-anchor="start" dominant-baseline="alphabetic" transform="matrix(1, 0, 0, 1, 0.5, 0.5)" fill-opacity="1">Normalised core radius (m)</text><text fill="none" stroke="rgb(0,0,0)" font-family="helvetica" font-size="13px" font-style="italic" font-weight="normal" text-decoration="normal" x="107.619140625" y="344" text-anchor="start" dominant-baseline="alphabetic" transform="matrix(1, 0, 0, 1, 0.5, 0.5)" stroke-opacity="0" stroke-linejoin="bevel" stroke-miterlimit="10">Normalised core radius (m)</text><path fill="none" stroke="rgb(0,0,0)" paint-order="fill" d="M 52.5 305.5 L 52.5 27.5" stroke-opacity="1" stroke-linejoin="bevel" stroke-miterlimit="10"/><path fill="none" stroke="rgb(0,0,0)" paint-order="fill" d="M 46.5 292.5 L 54.5 292.5 M 46.5 241.5 L 54.5 241.5 M 46.5 189.5 L 54.5 189.5 M 46.5 138.5 L 54.5 138.5 M 46.5 86.5 L 54.5 86.5 M 46.5 34.5 L 54.5 34.5" stroke-opacity="1" stroke-linejoin="bevel" stroke-miterlimit="10"/><path fill="none" stroke="rgb(0,0,0)" paint-order="fill" d="M 48.5 303.5 L 52.5 303.5 M 48.5 292.5 L 52.5 292.5 M 48.5 282.5 L 52.5 282.5 M 48.5 272.5 L 52.5 272.5 M 48.5 261.5 L 52.5 261.5 M 48.5 251.5 L 52.5 251.5 M 48.5 241.5 L 52.5 241.5 M 48.5 230.5 L 52.5 230.5 M 48.5 220.5 L 52.5 220.5 M 48.5 210.5 L 52.5 210.5 M 48.5 199.5 L 52.5 199.5 M 48.5 189.5 L 52.5 189.5 M 48.5 179.5 L 52.5 179.5 M 48.5 168.5 L 52.5 168.5 M 48.5 158.5 L 52.5 158.5 M 48.5 148.5 L 52.5 148.5 M 48.5 138.5 L 52.5 138.5 M 48.5 127.5 L 52.5 127.5 M 48.5 117.5 L 52.5 117.5 M 48.5 107.5 L 52.5 107.5 M 48.5 96.5 L 52.5 96.5 M 48.5 86.5 L 52.5 86.5 M 48.5 76.5 L 52.5 76.5 M 48.5 65.5 L 52.5 65.5 M 48.5 55.5 L 52.5 55.5 M 48.5 45.5 L 52.5 45.5 M 48.5 34.5 L 52.5 34.5" stroke-opacity="1" stroke-linejoin="bevel" stroke-miterlimit="10"/><text fill="rgb(68,68,68)" stroke="none" font-family="helvetica" font-size="11px" font-style="normal" font-weight="normal" text-decoration="normal" x="34.88232421875" y="296.3636474609375" text-anchor="start" dominant-baseline="alphabetic" transform="matrix(1, 0, 0, 1, 0.5, 0.5)" fill-opacity="1">0</text><text fill="none" stroke="rgb(0,0,0)" font-family="helvetica" font-size="11px" font-style="normal" font-weight="normal" text-decoration="normal" x="34.88232421875" y="296.3636474609375" text-anchor="start" dominant-baseline="alphabetic" transform="matrix(1, 0, 0, 1, 0.5, 0.5)" stroke-opacity="0" stroke-linejoin="bevel" stroke-miterlimit="10">0</text><text fill="rgb(68,68,68)" stroke="none" font-family="helvetica" font-size="11px" font-style="normal" font-weight="normal" text-decoration="normal" x="25.70849609375" y="244.7435760498047" text-anchor="start" dominant-baseline="alphabetic" transform="matrix(1, 0, 0, 1, 0.5, 0.5)" fill-opacity="1">0.2</text><text fill="none" stroke="rgb(0,0,0)" font-family="helvetica" font-size="11px" font-style="normal" font-weight="normal" text-decoration="normal" x="25.70849609375" y="244.7435760498047" text-anchor="start" dominant-baseline="alphabetic" transform="matrix(1, 0, 0, 1, 0.5, 0.5)" stroke-opacity="0" stroke-linejoin="bevel" stroke-miterlimit="10">0.2</text><text fill="rgb(68,68,68)" stroke="none" font-family="helvetica" font-size="11px" font-style="normal" font-weight="normal" text-decoration="normal" x="25.70849609375" y="193.12351989746094" text-anchor="start" dominant-baseline="alphabetic" transform="matrix(1, 0, 0, 1, 0.5, 0.5)" fill-opacity="1">0.4</text><text fill="none" stroke="rgb(0,0,0)" font-family="helvetica" font-size="11px" font-style="normal" font-weight="normal" text-decoration="normal" x="25.70849609375" y="193.12351989746094" text-anchor="start" dominant-baseline="alphabetic" transform="matrix(1, 0, 0, 1, 0.5, 0.5)" stroke-opacity="0" stroke-linejoin="bevel" stroke-miterlimit="10">0.4</text><text fill="rgb(68,68,68)" stroke="none" font-family="helvetica" font-size="11px" font-style="normal" font-weight="normal" text-decoration="normal" x="25.70849609375" y="141.5034637451172" text-anchor="start" dominant-baseline="alphabetic" transform="matrix(1, 0, 0, 1, 0.5, 0.5)" fill-opacity="1">0.6</text><text fill="none" stroke="rgb(0,0,0)" font-family="helvetica" font-size="11px" font-style="normal" font-weight="normal" text-decoration="normal" x="25.70849609375" y="141.5034637451172" text-anchor="start" dominant-baseline="alphabetic" transform="matrix(1, 0, 0, 1, 0.5, 0.5)" stroke-opacity="0" stroke-linejoin="bevel" stroke-miterlimit="10">0.6</text><text fill="rgb(68,68,68)" stroke="none" font-family="helvetica" font-size="11px" font-style="normal" font-weight="normal" text-decoration="normal" x="25.70849609375" y="89.8833999633789" text-anchor="start" dominant-baseline="alphabetic" transform="matrix(1, 0, 0, 1, 0.5, 0.5)" fill-opacity="1">0.8</text><text fill="none" stroke="rgb(0,0,0)" font-family="helvetica" font-size="11px" font-style="normal" font-weight="normal" text-decoration="normal" x="25.70849609375" y="89.8833999633789" text-anchor="start" dominant-baseline="alphabetic" transform="matrix(1, 0, 0, 1, 0.5, 0.5)" stroke-opacity="0" stroke-linejoin="bevel" stroke-miterlimit="10">0.8</text><text fill="rgb(68,68,68)" stroke="none" font-family="helvetica" font-size="11px" font-style="normal" font-weight="normal" text-decoration="normal" x="34.88232421875" y="38.263343811035156" text-anchor="start" dominant-baseline="alphabetic" transform="matrix(1, 0, 0, 1, 0.5, 0.5)" fill-opacity="1">1</text><text fill="none" stroke="rgb(0,0,0)" font-family="helvetica" font-size="11px" font-style="normal" font-weight="normal" text-decoration="normal" x="34.88232421875" y="38.263343811035156" text-anchor="start" dominant-baseline="alphabetic" transform="matrix(1, 0, 0, 1, 0.5, 0.5)" stroke-opacity="0" stroke-linejoin="bevel" stroke-miterlimit="10">1</text><text fill="rgb(68,68,68)" stroke="none" font-family="helvetica" font-size="13px" font-style="italic" font-weight="normal" text-decoration="normal" x="-47.31689453125" y="163" text-anchor="start" dominant-baseline="alphabetic" transform="matrix(6.123233995736766e-17, -1, 1, 6.123233995736766e-17, -147.79150390625, 184.20849609375)" fill-opacity="1">Normalised Probability</text><text fill="none" stroke="rgb(0,0,0)" font-family="helvetica" font-size="13px" font-style="italic" font-weight="normal" text-decoration="normal" x="-47.31689453125" y="163" text-anchor="start" dominant-baseline="alphabetic" transform="matrix(6.123233995736766e-17, -1, 1, 6.123233995736766e-17, -147.79150390625, 184.20849609375)" stroke-opacity="0" stroke-linejoin="bevel" stroke-miterlimit="10">Normalised Probability</text><path fill="rgb(255,249,186)" stroke="rgb(255,0,0)" paint-order="fill" d="M 183.55677197229875 40.13636363636368 L 183.55677197229875 40.13636363636368 L 183.55677197229875 292.8636363636364 L 183.55677197229875 292.8636363636364 L 183.55677197229875 40.13636363636368 Z" fill-opacity="0.4" clip-path="url(#QZcgotLCTCuo)" stroke-opacity="1" stroke-linejoin="bevel" stroke-miterlimit="10" stroke-width="2" stroke-dasharray="6"/><path fill="rgb(255,249,186)" stroke="rgb(50,205,50)" paint-order="fill" d="M 208.9942258556037 40.13636363636368 L 208.9942258556037 40.13636363636368 L 208.9942258556037 292.8636363636364 L 208.9942258556037 292.8636363636364 L 208.9942258556037 40.13636363636368 Z" fill-opacity="0.4" clip-path="url(#TTpebhOGfbMW)" stroke-opacity="1" stroke-linejoin="bevel" stroke-miterlimit="10" stroke-width="2" stroke-dasharray="6"/><text fill="rgb(68,68,68)" stroke="none" font-family="helvetica" font-size="13px" font-style="normal" font-weight="bold" text-decoration="normal" x="52" y="19" text-anchor="start" dominant-baseline="alphabetic" transform="matrix(1, 0, 0, 1, 0.5, 0.5)" fill-opacity="1">Convergance Probability</text><text fill="none" stroke="rgb(0,0,0)" font-family="helvetica" font-size="13px" font-style="normal" font-weight="bold" text-decoration="normal" x="52" y="19" text-anchor="start" dominant-baseline="alphabetic" transform="matrix(1, 0, 0, 1, 0.5, 0.5)" stroke-opacity="0" stroke-miterlimit="10" stroke-dasharray="">Convergance Probability</text></svg>