<svg version="1.1" xmlns="http://www.w3.org/2000/svg" width="275" height="275"><defs><clipPath id="FfpkUHBNiBSP"><path fill="none" stroke="none" d="M 52.5 27.5 L 245.5 27.5 L 245.5 230.5 L 52.5 230.5 L 52.5 27.5 Z"/></clipPath><clipPath id="VTJDoWeeunMp"><path fill="none" stroke="none" d="M 52.5 27.5 L 245.5 27.5 L 245.5 230.5 L 52.5 230.5 L 52.5 27.5 Z"/></clipPath><clipPath id="lmzUzvfgWHUC"><path fill="none" stroke="none" d="M 52.5 27.5 L 245.5 27.5 L 245.5 230.5 L 52.5 230.5 L 52.5 27.5 Z"/></clipPath><clipPath id="ZhLqrOHyaXeM"><path fill="none" stroke="none" d="M 52.5 27.5 L 245.5 27.5 L 245.5 230.5 L 52.5 230.5 L 52.5 27.5 Z"/></clipPath><pattern id="uyMCkzbOIULJ" width="3" height="3" patternUnits="userSpaceOnUse"><path fill="rgb(0,0,0)" stroke="none" paint-order="stroke" d="M 2.75 2 A 0.75 0.75 0 0 0 1.25 2 A 0.75 0.75 0 0 0 2.75 2" fill-opacity="0.14901960784313725"/></pattern><clipPath id="AnGZHABVLFOm"><path fill="none" stroke="none" d="M 52.5 27.5 L 245.5 27.5 L 245.5 230.5 L 52.5 230.5 L 52.5 27.5 Z"/></clipPath><clipPath id="VbfJsAybBTPc"><path fill="none" stroke="none" d="M 52.5 27.5 L 245.5 27.5 L 245.5 230.5 L 52.5 230.5 L 52.5 27.5 Z"/></clipPath><clipPath id="NoTdakRoOoFK"><path fill="none" stroke="none" d="M 52.5 27.5 L 245.5 27.5 L 245.5 230.5 L 52.5 230.5 L 52.5 27.5 Z"/></clipPath><clipPath id="DWbQoioqWEMd"><path fill="none" stroke="none" d="M 52.5 27.5 L 245.5 27.5 L 245.5 230.5 L 52.5 230.5 L 52.5 27.5 Z"/></clipPath></defs><path fill="rgb(255,255,255)" stroke="none" paint-order="stroke" d="M 0.5 0.5 L 275.5 0.5 L 275.5 275.5 L 0.5 275.5 L 0.5 0.5 Z" fill-opacity="1"/><rect fill="#FFFFFF" stroke="none" x="52" y="27" width="193" height="203" transform="matrix(1, 0, 0, 1, 0.5, 0.5)"/><path fill="rgb(255,255,255)" stroke="none" paint-order="stroke" d="M 52.5 27.5 L 245.5 27.5 L 245.5 230.5 L 52.5 230.5 L 52.5 27.5 Z" fill-opacity="1"/><path fill="none" stroke="rgb(229,229,229)" paint-order="fill" d="M 52.5 27.5 L 245.5 27.5 L 245.5 230.5 L 52.5 230.5 L 52.5 27.5 Z" stroke-opacity="1" stroke-linejoin="bevel" stroke-miterlimit="10"/><path fill="none" stroke="rgb(229,229,229)" paint-order="fill" d="M 55.5 230.5 L 55.5 27.5 M 107.5 230.5 L 107.5 27.5 M 158.5 230.5 L 158.5 27.5 M 210.5 230.5 L 210.5 27.5" stroke-opacity="1" stroke-linejoin="bevel" stroke-miterlimit="10" clip-path="url(#FfpkUHBNiBSP)"/><path fill="none" stroke="rgb(229,229,229)" paint-order="fill" d="M 52.5 221.5 L 245.5 221.5 M 52.5 183.5 L 245.5 183.5 M 52.5 144.5 L 245.5 144.5 M 52.5 106.5 L 245.5 106.5 M 52.5 68.5 L 245.5 68.5 M 52.5 30.5 L 245.5 30.5" stroke-opacity="1" stroke-linejoin="bevel" stroke-miterlimit="10" clip-path="url(#VTJDoWeeunMp)"/><path fill="none" stroke="rgb(0,0,0)" paint-order="fill" d="M 97.12512969970703 24.210304260253906 L 97.12512969970703 55.66615295410156" stroke-opacity="1" stroke-linejoin="bevel" stroke-miterlimit="10" clip-path="url(#lmzUzvfgWHUC)"/><path fill="none" stroke="rgb(0,0,0)" paint-order="fill" d="M 121.53683471679688 28.26279640197754 L 121.53683471679688 46.102935791015625" stroke-opacity="1" stroke-linejoin="bevel" stroke-miterlimit="10" clip-path="url(#lmzUzvfgWHUC)"/><path fill="none" stroke="rgb(0,0,0)" paint-order="fill" d="M 145.9485321044922 33.083133697509766 L 145.9485321044922 47.3243522644043" stroke-opacity="1" stroke-linejoin="bevel" stroke-miterlimit="10" clip-path="url(#lmzUzvfgWHUC)"/><path fill="none" stroke="rgb(0,0,0)" paint-order="fill" d="M 170.36024475097656 27.801027297973633 L 170.36024475097656 45.65351867675781" stroke-opacity="1" stroke-linejoin="bevel" stroke-miterlimit="10" clip-path="url(#lmzUzvfgWHUC)"/><path fill="none" stroke="rgb(0,0,0)" paint-order="fill" d="M 194.77194213867188 47.88090515136719 L 194.77194213867188 86.21000671386719" stroke-opacity="1" stroke-linejoin="bevel" stroke-miterlimit="10" clip-path="url(#lmzUzvfgWHUC)"/><path fill="none" stroke="rgb(0,0,0)" paint-order="fill" d="M 92.12512969970703 24.210304260253906 L 102.12512969970703 24.210304260253906" stroke-opacity="1" stroke-linejoin="bevel" stroke-miterlimit="10" clip-path="url(#lmzUzvfgWHUC)"/><path fill="none" stroke="rgb(0,0,0)" paint-order="fill" d="M 116.53683471679688 28.26279640197754 L 126.53683471679688 28.26279640197754" stroke-opacity="1" stroke-linejoin="bevel" stroke-miterlimit="10" clip-path="url(#lmzUzvfgWHUC)"/><path fill="none" stroke="rgb(0,0,0)" paint-order="fill" d="M 140.9485321044922 33.083133697509766 L 150.9485321044922 33.083133697509766" stroke-opacity="1" stroke-linejoin="bevel" stroke-miterlimit="10" clip-path="url(#lmzUzvfgWHUC)"/><path fill="none" stroke="rgb(0,0,0)" paint-order="fill" d="M 165.36024475097656 27.801027297973633 L 175.36024475097656 27.801027297973633" stroke-opacity="1" stroke-linejoin="bevel" stroke-miterlimit="10" clip-path="url(#lmzUzvfgWHUC)"/><path fill="none" stroke="rgb(0,0,0)" paint-order="fill" d="M 189.77194213867188 47.88090515136719 L 199.77194213867188 47.88090515136719" stroke-opacity="1" stroke-linejoin="bevel" stroke-miterlimit="10" clip-path="url(#lmzUzvfgWHUC)"/><path fill="none" stroke="rgb(0,0,0)" paint-order="fill" d="M 102.12512969970703 55.66615295410156 L 92.12512969970703 55.66615295410156" stroke-opacity="1" stroke-linejoin="bevel" stroke-miterlimit="10" clip-path="url(#lmzUzvfgWHUC)"/><path fill="none" stroke="rgb(0,0,0)" paint-order="fill" d="M 126.53683471679688 46.102935791015625 L 116.53683471679688 46.102935791015625" stroke-opacity="1" stroke-linejoin="bevel" stroke-miterlimit="10" clip-path="url(#lmzUzvfgWHUC)"/><path fill="none" stroke="rgb(0,0,0)" paint-order="fill" d="M 150.9485321044922 47.3243522644043 L 140.9485321044922 47.3243522644043" stroke-opacity="1" stroke-linejoin="bevel" stroke-miterlimit="10" clip-path="url(#lmzUzvfgWHUC)"/><path fill="none" stroke="rgb(0,0,0)" paint-order="fill" d="M 175.36024475097656 45.65351867675781 L 165.36024475097656 45.65351867675781" stroke-opacity="1" stroke-linejoin="bevel" stroke-miterlimit="10" clip-path="url(#lmzUzvfgWHUC)"/><path fill="none" stroke="rgb(0,0,0)" paint-order="fill" d="M 199.77194213867188 86.21000671386719 L 189.77194213867188 86.21000671386719" stroke-opacity="1" stroke-linejoin="bevel" stroke-miterlimit="10" clip-path="url(#lmzUzvfgWHUC)"/><path fill="rgb(128,128,128)" stroke="none" paint-order="stroke" d="M 84.91928100585938 36.727272033691406 L 206.97779846191406 36.727272033691406 L 206.97779846191406 221.27273559570312 L 84.91928100585938 221.27273559570312 L 84.91928100585938 36.727272033691406 Z" fill-opacity="0.10196078431372549" clip-path="url(#ZhLqrOHyaXeM)"/><path fill="url(#uyMCkzbOIULJ)" stroke="rgb(0,0,0)" paint-order="fill" d="M 84.91928100585938 36.727272033691406 L 206.97779846191406 36.727272033691406 L 206.97779846191406 221.27273559570312 L 84.91928100585938 221.27273559570312 L 84.91928100585938 36.727272033691406 Z" clip-path="url(#ZhLqrOHyaXeM)" stroke-opacity="0.2" stroke-linejoin="bevel" stroke-miterlimit="10"/><path fill="rgb(100,149,237)" stroke="rgb(31,119,180)" paint-order="fill" d="M 84.91928100585938 39.938228607177734 L 109.33097839355469 39.938228607177734 L 109.33097839355469 221.27272033691406 L 84.91928100585938 221.27272033691406 L 84.91928100585938 39.938228607177734 Z" fill-opacity="0.5019607843137255" clip-path="url(#AnGZHABVLFOm)" stroke-opacity="0.5019607843137255" stroke-linejoin="bevel" stroke-miterlimit="10"/><path fill="rgb(100,149,237)" stroke="rgb(31,119,180)" paint-order="fill" d="M 109.33098602294922 37.182865142822266 L 133.74269104003906 37.182865142822266 L 133.74269104003906 221.27272033691406 L 109.33098602294922 221.27272033691406 L 109.33098602294922 37.182865142822266 Z" fill-opacity="0.5019607843137255" clip-path="url(#AnGZHABVLFOm)" stroke-opacity="0.5019607843137255" stroke-linejoin="bevel" stroke-miterlimit="10"/><path fill="rgb(100,149,237)" stroke="rgb(31,119,180)" paint-order="fill" d="M 133.74267578125 40.20374298095703 L 158.15438842773438 40.20374298095703 L 158.15438842773438 221.27272033691406 L 133.74267578125 221.27272033691406 L 133.74267578125 40.20374298095703 Z" fill-opacity="0.5019607843137255" clip-path="url(#AnGZHABVLFOm)" stroke-opacity="0.5019607843137255" stroke-linejoin="bevel" stroke-miterlimit="10"/><path fill="rgb(100,149,237)" stroke="rgb(31,119,180)" paint-order="fill" d="M 158.15438842773438 36.727272033691406 L 182.56610107421875 36.727272033691406 L 182.56610107421875 221.27272033691406 L 158.15438842773438 221.27272033691406 L 158.15438842773438 36.727272033691406 Z" fill-opacity="0.5019607843137255" clip-path="url(#AnGZHABVLFOm)" stroke-opacity="0.5019607843137255" stroke-linejoin="bevel" stroke-miterlimit="10"/><path fill="rgb(100,149,237)" stroke="rgb(31,119,180)" paint-order="fill" d="M 182.5660858154297 67.04545593261719 L 206.97779846191406 67.04545593261719 L 206.97779846191406 221.27272033691406 L 182.5660858154297 221.27272033691406 L 182.5660858154297 67.04545593261719 Z" fill-opacity="0.5019607843137255" clip-path="url(#AnGZHABVLFOm)" stroke-opacity="0.5019607843137255" stroke-linejoin="bevel" stroke-miterlimit="10"/><path fill="none" stroke="rgb(0,0,0)" paint-order="fill" d="M 52.5 230.5 L 245.5 230.5" stroke-opacity="1" stroke-linejoin="bevel" stroke-miterlimit="10"/><path fill="none" stroke="rgb(0,0,0)" paint-order="fill" d="M 55.5 236.5 L 55.5 228.5 M 107.5 236.5 L 107.5 228.5 M 158.5 236.5 L 158.5 228.5 M 210.5 236.5 L 210.5 228.5" stroke-opacity="1" stroke-linejoin="bevel" stroke-miterlimit="10"/><path fill="none" stroke="rgb(0,0,0)" paint-order="fill" d="M 55.5 234.5 L 55.5 230.5 M 65.5 234.5 L 65.5 230.5 M 76.5 234.5 L 76.5 230.5 M 86.5 234.5 L 86.5 230.5 M 96.5 234.5 L 96.5 230.5 M 107.5 234.5 L 107.5 230.5 M 117.5 234.5 L 117.5 230.5 M 127.5 234.5 L 127.5 230.5 M 138.5 234.5 L 138.5 230.5 M 148.5 234.5 L 148.5 230.5 M 158.5 234.5 L 158.5 230.5 M 169.5 234.5 L 169.5 230.5 M 179.5 234.5 L 179.5 230.5 M 189.5 234.5 L 189.5 230.5 M 200.5 234.5 L 200.5 230.5 M 210.5 234.5 L 210.5 230.5 M 220.5 234.5 L 220.5 230.5 M 230.5 234.5 L 230.5 230.5 M 241.5 234.5 L 241.5 230.5" stroke-opacity="1" stroke-linejoin="bevel" stroke-miterlimit="10"/><text fill="rgb(68,68,68)" stroke="none" font-family="helvetica" font-size="11px" font-style="normal" font-weight="normal" text-decoration="normal" x="39.802154541015625" y="249" text-anchor="start" dominant-baseline="alphabetic" transform="matrix(1, 0, 0, 1, 0.5, 0.5)" fill-opacity="1">60000</text><text fill="none" stroke="rgb(0,0,0)" font-family="helvetica" font-size="11px" font-style="normal" font-weight="normal" text-decoration="normal" x="39.802154541015625" y="249" text-anchor="start" dominant-baseline="alphabetic" transform="matrix(1, 0, 0, 1, 0.5, 0.5)" stroke-opacity="0" stroke-linejoin="bevel" stroke-miterlimit="10">60000</text><text fill="rgb(68,68,68)" stroke="none" font-family="helvetica" font-size="11px" font-style="normal" font-weight="normal" text-decoration="normal" x="91.39070892333984" y="249" text-anchor="start" dominant-baseline="alphabetic" transform="matrix(1, 0, 0, 1, 0.5, 0.5)" fill-opacity="1">65000</text><text fill="none" stroke="rgb(0,0,0)" font-family="helvetica" font-size="11px" font-style="normal" font-weight="normal" text-decoration="normal" x="91.39070892333984" y="249" text-anchor="start" dominant-baseline="alphabetic" transform="matrix(1, 0, 0, 1, 0.5, 0.5)" stroke-opacity="0" stroke-linejoin="bevel" stroke-miterlimit="10">65000</text><text fill="rgb(68,68,68)" stroke="none" font-family="helvetica" font-size="11px" font-style="normal" font-weight="normal" text-decoration="normal" x="142.97926330566406" y="249" text-anchor="start" dominant-baseline="alphabetic" transform="matrix(1, 0, 0, 1, 0.5, 0.5)" fill-opacity="1">70000</text><text fill="none" stroke="rgb(0,0,0)" font-family="helvetica" font-size="11px" font-style="normal" font-weight="normal" text-decoration="normal" x="142.97926330566406" y="249" text-anchor="start" dominant-baseline="alphabetic" transform="matrix(1, 0, 0, 1, 0.5, 0.5)" stroke-opacity="0" stroke-linejoin="bevel" stroke-miterlimit="10">70000</text><text fill="rgb(68,68,68)" stroke="none" font-family="helvetica" font-size="11px" font-style="normal" font-weight="normal" text-decoration="normal" x="194.56781005859375" y="249" text-anchor="start" dominant-baseline="alphabetic" transform="matrix(1, 0, 0, 1, 0.5, 0.5)" fill-opacity="1">75000</text><text fill="none" stroke="rgb(0,0,0)" font-family="helvetica" font-size="11px" font-style="normal" font-weight="normal" text-decoration="normal" x="194.56781005859375" y="249" text-anchor="start" dominant-baseline="alphabetic" transform="matrix(1, 0, 0, 1, 0.5, 0.5)" stroke-opacity="0" stroke-linejoin="bevel" stroke-miterlimit="10">75000</text><text fill="rgb(68,68,68)" stroke="none" font-family="helvetica" font-size="13px" font-style="italic" font-weight="normal" text-decoration="normal" x="136.21728515625" y="269" text-anchor="start" dominant-baseline="alphabetic" transform="matrix(1, 0, 0, 1, 0.5, 0.5)" fill-opacity="1">cpttf</text><text fill="none" stroke="rgb(0,0,0)" font-family="helvetica" font-size="13px" font-style="italic" font-weight="normal" text-decoration="normal" x="136.21728515625" y="269" text-anchor="start" dominant-baseline="alphabetic" transform="matrix(1, 0, 0, 1, 0.5, 0.5)" stroke-opacity="0" stroke-linejoin="bevel" stroke-miterlimit="10">cpttf</text><path fill="none" stroke="rgb(0,0,0)" paint-order="fill" d="M 52.5 230.5 L 52.5 27.5" stroke-opacity="1" stroke-linejoin="bevel" stroke-miterlimit="10"/><path fill="none" stroke="rgb(0,0,0)" paint-order="fill" d="M 46.5 221.5 L 54.5 221.5 M 46.5 183.5 L 54.5 183.5 M 46.5 144.5 L 54.5 144.5 M 46.5 106.5 L 54.5 106.5 M 46.5 68.5 L 54.5 68.5 M 46.5 30.5 L 54.5 30.5" stroke-opacity="1" stroke-linejoin="bevel" stroke-miterlimit="10"/><path fill="none" stroke="rgb(0,0,0)" paint-order="fill" d="M 48.5 228.5 L 52.5 228.5 M 48.5 221.5 L 52.5 221.5 M 48.5 213.5 L 52.5 213.5 M 48.5 205.5 L 52.5 205.5 M 48.5 198.5 L 52.5 198.5 M 48.5 190.5 L 52.5 190.5 M 48.5 183.5 L 52.5 183.5 M 48.5 175.5 L 52.5 175.5 M 48.5 167.5 L 52.5 167.5 M 48.5 160.5 L 52.5 160.5 M 48.5 152.5 L 52.5 152.5 M 48.5 144.5 L 52.5 144.5 M 48.5 137.5 L 52.5 137.5 M 48.5 129.5 L 52.5 129.5 M 48.5 121.5 L 52.5 121.5 M 48.5 114.5 L 52.5 114.5 M 48.5 106.5 L 52.5 106.5 M 48.5 98.5 L 52.5 98.5 M 48.5 91.5 L 52.5 91.5 M 48.5 83.5 L 52.5 83.5 M 48.5 76.5 L 52.5 76.5 M 48.5 68.5 L 52.5 68.5 M 48.5 60.5 L 52.5 60.5 M 48.5 53.5 L 52.5 53.5 M 48.5 45.5 L 52.5 45.5 M 48.5 37.5 L 52.5 37.5 M 48.5 30.5 L 52.5 30.5" stroke-opacity="1" stroke-linejoin="bevel" stroke-miterlimit="10"/><text fill="rgb(68,68,68)" stroke="none" font-family="helvetica" font-size="11px" font-style="normal" font-weight="normal" text-decoration="normal" x="34.88232421875" y="224.77272033691406" text-anchor="start" dominant-baseline="alphabetic" transform="matrix(1, 0, 0, 1, 0.5, 0.5)" fill-opacity="1">0</text><text fill="none" stroke="rgb(0,0,0)" font-family="helvetica" font-size="11px" font-style="normal" font-weight="normal" text-decoration="normal" x="34.88232421875" y="224.77272033691406" text-anchor="start" dominant-baseline="alphabetic" transform="matrix(1, 0, 0, 1, 0.5, 0.5)" stroke-opacity="0" stroke-linejoin="bevel" stroke-miterlimit="10">0</text><text fill="rgb(68,68,68)" stroke="none" font-family="helvetica" font-size="11px" font-style="normal" font-weight="normal" text-decoration="normal" x="25.70849609375" y="186.55699157714844" text-anchor="start" dominant-baseline="alphabetic" transform="matrix(1, 0, 0, 1, 0.5, 0.5)" fill-opacity="1">0.2</text><text fill="none" stroke="rgb(0,0,0)" font-family="helvetica" font-size="11px" font-style="normal" font-weight="normal" text-decoration="normal" x="25.70849609375" y="186.55699157714844" text-anchor="start" dominant-baseline="alphabetic" transform="matrix(1, 0, 0, 1, 0.5, 0.5)" stroke-opacity="0" stroke-linejoin="bevel" stroke-miterlimit="10">0.2</text><text fill="rgb(68,68,68)" stroke="none" font-family="helvetica" font-size="11px" font-style="normal" font-weight="normal" text-decoration="normal" x="25.70849609375" y="148.3412628173828" text-anchor="start" dominant-baseline="alphabetic" transform="matrix(1, 0, 0, 1, 0.5, 0.5)" fill-opacity="1">0.4</text><text fill="none" stroke="rgb(0,0,0)" font-family="helvetica" font-size="11px" font-style="normal" font-weight="normal" text-decoration="normal" x="25.70849609375" y="148.3412628173828" text-anchor="start" dominant-baseline="alphabetic" transform="matrix(1, 0, 0, 1, 0.5, 0.5)" stroke-opacity="0" stroke-linejoin="bevel" stroke-miterlimit="10">0.4</text><text fill="rgb(68,68,68)" stroke="none" font-family="helvetica" font-size="11px" font-style="normal" font-weight="normal" text-decoration="normal" x="25.70849609375" y="110.12553405761719" text-anchor="start" dominant-baseline="alphabetic" transform="matrix(1, 0, 0, 1, 0.5, 0.5)" fill-opacity="1">0.6</text><text fill="none" stroke="rgb(0,0,0)" font-family="helvetica" font-size="11px" font-style="normal" font-weight="normal" text-decoration="normal" x="25.70849609375" y="110.12553405761719" text-anchor="start" dominant-baseline="alphabetic" transform="matrix(1, 0, 0, 1, 0.5, 0.5)" stroke-opacity="0" stroke-linejoin="bevel" stroke-miterlimit="10">0.6</text><text fill="rgb(68,68,68)" stroke="none" font-family="helvetica" font-size="11px" font-style="normal" font-weight="normal" text-decoration="normal" x="25.70849609375" y="71.90980529785156" text-anchor="start" dominant-baseline="alphabetic" transform="matrix(1, 0, 0, 1, 0.5, 0.5)" fill-opacity="1">0.8</text><text fill="none" stroke="rgb(0,0,0)" font-family="helvetica" font-size="11px" font-style="normal" font-weight="normal" text-decoration="normal" x="25.70849609375" y="71.90980529785156" text-anchor="start" dominant-baseline="alphabetic" transform="matrix(1, 0, 0, 1, 0.5, 0.5)" stroke-opacity="0" stroke-linejoin="bevel" stroke-miterlimit="10">0.8</text><text fill="rgb(68,68,68)" stroke="none" font-family="helvetica" font-size="11px" font-style="normal" font-weight="normal" text-decoration="normal" x="34.88232421875" y="33.694074630737305" text-anchor="start" dominant-baseline="alphabetic" transform="matrix(1, 0, 0, 1, 0.5, 0.5)" fill-opacity="1">1</text><text fill="none" stroke="rgb(0,0,0)" font-family="helvetica" font-size="11px" font-style="normal" font-weight="normal" text-decoration="normal" x="34.88232421875" y="33.694074630737305" text-anchor="start" dominant-baseline="alphabetic" transform="matrix(1, 0, 0, 1, 0.5, 0.5)" stroke-opacity="0" stroke-linejoin="bevel" stroke-miterlimit="10">1</text><text fill="rgb(68,68,68)" stroke="none" font-family="helvetica" font-size="13px" font-style="italic" font-weight="normal" text-decoration="normal" x="-47.31689453125" y="125.5" text-anchor="start" dominant-baseline="alphabetic" transform="matrix(6.123233995736766e-17, -1, 1, 6.123233995736766e-17, -110.29150390625, 146.70849609375)" fill-opacity="1">Normalised Probability</text><text fill="none" stroke="rgb(0,0,0)" font-family="helvetica" font-size="13px" font-style="italic" font-weight="normal" text-decoration="normal" x="-47.31689453125" y="125.5" text-anchor="start" dominant-baseline="alphabetic" transform="matrix(6.123233995736766e-17, -1, 1, 6.123233995736766e-17, -110.29150390625, 146.70849609375)" stroke-opacity="0" stroke-linejoin="bevel" stroke-miterlimit="10">Normalised Probability</text><path fill="rgb(255,249,186)" stroke="rgb(255,0,0)" paint-order="fill" d="M 143.94399468293523 36.72727272727275 L 143.94399468293523 36.72727272727275 L 143.94399468293523 221.27272727272728 L 143.94399468293523 221.27272727272728 L 143.94399468293523 36.72727272727275 Z" fill-opacity="0.4" clip-path="url(#VbfJsAybBTPc)" stroke-opacity="1" stroke-linejoin="bevel" stroke-miterlimit="10" stroke-width="2" stroke-dasharray="6"/><path fill="rgb(255,249,186)" stroke="rgb(50,205,50)" paint-order="fill" d="M 170.3602404614636 36.72727272727275 L 170.3602404614636 36.72727272727275 L 170.3602404614636 221.27272727272728 L 170.3602404614636 221.27272727272728 L 170.3602404614636 36.72727272727275 Z" fill-opacity="0.4" clip-path="url(#NoTdakRoOoFK)" stroke-opacity="1" stroke-linejoin="bevel" stroke-miterlimit="10" stroke-width="2" stroke-dasharray="6"/><text fill="rgb(68,68,68)" stroke="none" font-family="helvetica" font-size="13px" font-style="normal" font-weight="bold" text-decoration="normal" x="52" y="19" text-anchor="start" dominant-baseline="alphabetic" transform="matrix(1, 0, 0, 1, 0.5, 0.5)" fill-opacity="1">Convergance Probability</text><text fill="none" stroke="rgb(0,0,0)" font-family="helvetica" font-size="13px" font-style="normal" font-weight="bold" text-decoration="normal" x="52" y="19" text-anchor="start" dominant-baseline="alphabetic" transform="matrix(1, 0, 0, 1, 0.5, 0.5)" stroke-opacity="0" stroke-miterlimit="10" stroke-dasharray="">Convergance Probability</text></svg>