<svg version="1.1" xmlns="http://www.w3.org/2000/svg" width="250" height="250"><defs><clipPath id="lLnDbmvlGUdR"><path fill="none" stroke="none" d="M 52.5 27.5 L 220.5 27.5 L 220.5 205.5 L 52.5 205.5 L 52.5 27.5 Z"/></clipPath><clipPath id="VFAltAJCANgG"><path fill="none" stroke="none" d="M 52.5 27.5 L 220.5 27.5 L 220.5 205.5 L 52.5 205.5 L 52.5 27.5 Z"/></clipPath><clipPath id="THDaIqwfcCeR"><path fill="none" stroke="none" d="M 52.5 27.5 L 220.5 27.5 L 220.5 205.5 L 52.5 205.5 L 52.5 27.5 Z"/></clipPath><clipPath id="zGsWIBkqvoDM"><path fill="none" stroke="none" d="M 52.5 27.5 L 220.5 27.5 L 220.5 205.5 L 52.5 205.5 L 52.5 27.5 Z"/></clipPath><pattern id="RTEdBLTZaBBL" width="3" height="3" patternUnits="userSpaceOnUse"><path fill="rgb(0,0,0)" stroke="none" paint-order="stroke" d="M 2.75 2 A 0.75 0.75 0 0 0 1.25 2 A 0.75 0.75 0 0 0 2.75 2" fill-opacity="0.14901960784313725"/></pattern><clipPath id="WWAbnyoqEXgL"><path fill="none" stroke="none" d="M 52.5 27.5 L 220.5 27.5 L 220.5 205.5 L 52.5 205.5 L 52.5 27.5 Z"/></clipPath><clipPath id="sgcACLhHohXX"><path fill="none" stroke="none" d="M 52.5 27.5 L 220.5 27.5 L 220.5 205.5 L 52.5 205.5 L 52.5 27.5 Z"/></clipPath><clipPath id="uiXiQdZZiyql"><path fill="none" stroke="none" d="M 52.5 27.5 L 220.5 27.5 L 220.5 205.5 L 52.5 205.5 L 52.5 27.5 Z"/></clipPath><clipPath id="ATzvsbFNEusC"><path fill="none" stroke="none" d="M 52.5 27.5 L 220.5 27.5 L 220.5 205.5 L 52.5 205.5 L 52.5 27.5 Z"/></clipPath></defs><path fill="rgb(255,255,255)" stroke="none" paint-order="stroke" d="M 0.5 0.5 L 250.5 0.5 L 250.5 250.5 L 0.5 250.5 L 0.5 0.5 Z" fill-opacity="1"/><rect fill="#FFFFFF" stroke="none" x="52" y="27" width="168" height="178" transform="matrix(1, 0, 0, 1, 0.5, 0.5)"/><path fill="rgb(255,255,255)" stroke="none" paint-order="stroke" d="M 52.5 27.5 L 220.5 27.5 L 220.5 205.5 L 52.5 205.5 L 52.5 27.5 Z" fill-opacity="1"/><path fill="none" stroke="rgb(229,229,229)" paint-order="fill" d="M 52.5 27.5 L 220.5 27.5 L 220.5 205.5 L 52.5 205.5 L 52.5 27.5 Z" stroke-opacity="1" stroke-linejoin="bevel" stroke-miterlimit="10"/><path fill="none" stroke="rgb(229,229,229)" paint-order="fill" d="M 91.5 205.5 L 91.5 27.5 M 139.5 205.5 L 139.5 27.5 M 188.5 205.5 L 188.5 27.5" stroke-opacity="1" stroke-linejoin="bevel" stroke-miterlimit="10" clip-path="url(#lLnDbmvlGUdR)"/><path fill="none" stroke="rgb(229,229,229)" paint-order="fill" d="M 52.5 197.5 L 220.5 197.5 M 52.5 169.5 L 220.5 169.5 M 52.5 141.5 L 220.5 141.5 M 52.5 114.5 L 220.5 114.5 M 52.5 86.5 L 220.5 86.5 M 52.5 58.5 L 220.5 58.5 M 52.5 30.5 L 220.5 30.5" stroke-opacity="1" stroke-linejoin="bevel" stroke-miterlimit="10" clip-path="url(#VFAltAJCANgG)"/><path fill="none" stroke="rgb(0,0,0)" paint-order="fill" d="M 108.62374114990234 47.16192626953125 L 108.62374114990234 73.16285705566406" stroke-opacity="1" stroke-linejoin="bevel" stroke-miterlimit="10" clip-path="url(#THDaIqwfcCeR)"/><path fill="none" stroke="rgb(0,0,0)" paint-order="fill" d="M 159.30784606933594 19.05071258544922 L 159.30784606933594 52.131107330322266" stroke-opacity="1" stroke-linejoin="bevel" stroke-miterlimit="10" clip-path="url(#THDaIqwfcCeR)"/><path fill="none" stroke="rgb(0,0,0)" paint-order="fill" d="" stroke-opacity="1" stroke-linejoin="bevel" stroke-miterlimit="10" clip-path="url(#THDaIqwfcCeR)"/><path fill="none" stroke="rgb(0,0,0)" paint-order="fill" d="M 103.62374114990234 47.16192626953125 L 113.62374114990234 47.16192626953125" stroke-opacity="1" stroke-linejoin="bevel" stroke-miterlimit="10" clip-path="url(#THDaIqwfcCeR)"/><path fill="none" stroke="rgb(0,0,0)" paint-order="fill" d="M 154.30784606933594 19.05071258544922 L 164.30784606933594 19.05071258544922" stroke-opacity="1" stroke-linejoin="bevel" stroke-miterlimit="10" clip-path="url(#THDaIqwfcCeR)"/><path fill="none" stroke="rgb(0,0,0)" paint-order="fill" d="M -4.5 0.5000000000000007 L 5.5 0.4999999999999994" stroke-opacity="1" stroke-linejoin="bevel" stroke-miterlimit="10" clip-path="url(#THDaIqwfcCeR)"/><path fill="none" stroke="rgb(0,0,0)" paint-order="fill" d="M 113.62374114990234 73.16285705566406 L 103.62374114990234 73.16285705566406" stroke-opacity="1" stroke-linejoin="bevel" stroke-miterlimit="10" clip-path="url(#THDaIqwfcCeR)"/><path fill="none" stroke="rgb(0,0,0)" paint-order="fill" d="M 164.30784606933594 52.131107330322266 L 154.30784606933594 52.131107330322266" stroke-opacity="1" stroke-linejoin="bevel" stroke-miterlimit="10" clip-path="url(#THDaIqwfcCeR)"/><path fill="none" stroke="rgb(0,0,0)" paint-order="fill" d="M 5.5 0.5 L -4.5 0.5" stroke-opacity="1" stroke-linejoin="bevel" stroke-miterlimit="10" clip-path="url(#THDaIqwfcCeR)"/><path fill="rgb(128,128,128)" stroke="none" paint-order="stroke" d="M 83.28168487548828 35.590911865234375 L 184.64990234375 35.590911865234375 L 184.64990234375 197.40908813476562 L 83.28168487548828 197.40908813476562 L 83.28168487548828 35.590911865234375 Z" fill-opacity="0.10196078431372549" clip-path="url(#zGsWIBkqvoDM)"/><path fill="url(#RTEdBLTZaBBL)" stroke="rgb(0,0,0)" paint-order="fill" d="M 83.28168487548828 35.590911865234375 L 184.64990234375 35.590911865234375 L 184.64990234375 197.40908813476562 L 83.28168487548828 197.40908813476562 L 83.28168487548828 35.590911865234375 Z" clip-path="url(#zGsWIBkqvoDM)" stroke-opacity="0.2" stroke-linejoin="bevel" stroke-miterlimit="10"/><path fill="rgb(100,149,237)" stroke="rgb(31,119,180)" paint-order="fill" d="M 83.28168487548828 60.162391662597656 L 133.96578979492188 60.162391662597656 L 133.96578979492188 197.40908813476562 L 83.28168487548828 197.40908813476562 L 83.28168487548828 60.162391662597656 Z" fill-opacity="0.5019607843137255" clip-path="url(#WWAbnyoqEXgL)" stroke-opacity="0.5019607843137255" stroke-linejoin="bevel" stroke-miterlimit="10"/><path fill="rgb(100,149,237)" stroke="rgb(31,119,180)" paint-order="fill" d="M 133.96578979492188 35.59090805053711 L 184.64990234375 35.59090805053711 L 184.64990234375 197.40908813476562 L 133.96578979492188 197.40908813476562 L 133.96578979492188 35.59090805053711 Z" fill-opacity="0.5019607843137255" clip-path="url(#WWAbnyoqEXgL)" stroke-opacity="0.5019607843137255" stroke-linejoin="bevel" stroke-miterlimit="10"/><path fill="rgb(100,149,237)" stroke="rgb(31,119,180)" paint-order="fill" d="M 184.64990234375 197.40908813476562 L 220.5 197.40908813476562 L 220.5 197.40908813476562 L 184.64990234375 197.40908813476562 L 184.64990234375 197.40908813476562 Z" fill-opacity="0.5019607843137255" clip-path="url(#WWAbnyoqEXgL)" stroke-opacity="0.5019607843137255" stroke-linejoin="bevel" stroke-miterlimit="10"/><path fill="none" stroke="rgb(0,0,0)" paint-order="fill" d="M 52.5 205.5 L 220.5 205.5" stroke-opacity="1" stroke-linejoin="bevel" stroke-miterlimit="10"/><path fill="none" stroke="rgb(0,0,0)" paint-order="fill" d="M 91.5 211.5 L 91.5 203.5 M 139.5 211.5 L 139.5 203.5 M 188.5 211.5 L 188.5 203.5" stroke-opacity="1" stroke-linejoin="bevel" stroke-miterlimit="10"/><path fill="none" stroke="rgb(0,0,0)" paint-order="fill" d="M 82.5 209.5 L 82.5 205.5 M 72.5 209.5 L 72.5 205.5 M 63.5 209.5 L 63.5 205.5 M 53.5 209.5 L 53.5 205.5 M 91.5 209.5 L 91.5 205.5 M 101.5 209.5 L 101.5 205.5 M 111.5 209.5 L 111.5 205.5 M 120.5 209.5 L 120.5 205.5 M 130.5 209.5 L 130.5 205.5 M 139.5 209.5 L 139.5 205.5 M 149.5 209.5 L 149.5 205.5 M 159.5 209.5 L 159.5 205.5 M 168.5 209.5 L 168.5 205.5 M 178.5 209.5 L 178.5 205.5 M 188.5 209.5 L 188.5 205.5 M 197.5 209.5 L 197.5 205.5 M 207.5 209.5 L 207.5 205.5 M 216.5 209.5 L 216.5 205.5" stroke-opacity="1" stroke-linejoin="bevel" stroke-miterlimit="10"/><text fill="rgb(68,68,68)" stroke="none" font-family="helvetica" font-size="11px" font-style="normal" font-weight="normal" text-decoration="normal" x="65.30289459228516" y="224" text-anchor="start" dominant-baseline="alphabetic" transform="matrix(1, 0, 0, 1, 0.5, 0.5)" fill-opacity="1">6.500e+19</text><text fill="none" stroke="rgb(0,0,0)" font-family="helvetica" font-size="11px" font-style="normal" font-weight="normal" text-decoration="normal" x="65.30289459228516" y="224" text-anchor="start" dominant-baseline="alphabetic" transform="matrix(1, 0, 0, 1, 0.5, 0.5)" stroke-opacity="0" stroke-linejoin="bevel" stroke-miterlimit="10">6.500e+19</text><text fill="rgb(68,68,68)" stroke="none" font-family="helvetica" font-size="11px" font-style="normal" font-weight="normal" text-decoration="normal" x="113.32649230957031" y="224" text-anchor="start" dominant-baseline="alphabetic" transform="matrix(1, 0, 0, 1, 0.5, 0.5)" fill-opacity="1">7.000e+19</text><text fill="none" stroke="rgb(0,0,0)" font-family="helvetica" font-size="11px" font-style="normal" font-weight="normal" text-decoration="normal" x="113.32649230957031" y="224" text-anchor="start" dominant-baseline="alphabetic" transform="matrix(1, 0, 0, 1, 0.5, 0.5)" stroke-opacity="0" stroke-linejoin="bevel" stroke-miterlimit="10">7.000e+19</text><text fill="rgb(68,68,68)" stroke="none" font-family="helvetica" font-size="11px" font-style="normal" font-weight="normal" text-decoration="normal" x="161.35009765625" y="224" text-anchor="start" dominant-baseline="alphabetic" transform="matrix(1, 0, 0, 1, 0.5, 0.5)" fill-opacity="1">7.500e+19</text><text fill="none" stroke="rgb(0,0,0)" font-family="helvetica" font-size="11px" font-style="normal" font-weight="normal" text-decoration="normal" x="161.35009765625" y="224" text-anchor="start" dominant-baseline="alphabetic" transform="matrix(1, 0, 0, 1, 0.5, 0.5)" stroke-opacity="0" stroke-linejoin="bevel" stroke-miterlimit="10">7.500e+19</text><text fill="rgb(68,68,68)" stroke="none" font-family="helvetica" font-size="13px" font-style="italic" font-weight="normal" text-decoration="normal" x="121.5400390625" y="244" text-anchor="start" dominant-baseline="alphabetic" transform="matrix(1, 0, 0, 1, 0.5, 0.5)" fill-opacity="1">dene</text><text fill="none" stroke="rgb(0,0,0)" font-family="helvetica" font-size="13px" font-style="italic" font-weight="normal" text-decoration="normal" x="121.5400390625" y="244" text-anchor="start" dominant-baseline="alphabetic" transform="matrix(1, 0, 0, 1, 0.5, 0.5)" stroke-opacity="0" stroke-linejoin="bevel" stroke-miterlimit="10">dene</text><path fill="none" stroke="rgb(0,0,0)" paint-order="fill" d="M 52.5 205.5 L 52.5 27.5" stroke-opacity="1" stroke-linejoin="bevel" stroke-miterlimit="10"/><path fill="none" stroke="rgb(0,0,0)" paint-order="fill" d="M 46.5 197.5 L 54.5 197.5 M 46.5 169.5 L 54.5 169.5 M 46.5 141.5 L 54.5 141.5 M 46.5 114.5 L 54.5 114.5 M 46.5 86.5 L 54.5 86.5 M 46.5 58.5 L 54.5 58.5 M 46.5 30.5 L 54.5 30.5" stroke-opacity="1" stroke-linejoin="bevel" stroke-miterlimit="10"/><path fill="none" stroke="rgb(0,0,0)" paint-order="fill" d="M 48.5 202.5 L 52.5 202.5 M 48.5 197.5 L 52.5 197.5 M 48.5 191.5 L 52.5 191.5 M 48.5 186.5 L 52.5 186.5 M 48.5 180.5 L 52.5 180.5 M 48.5 175.5 L 52.5 175.5 M 48.5 169.5 L 52.5 169.5 M 48.5 164.5 L 52.5 164.5 M 48.5 158.5 L 52.5 158.5 M 48.5 152.5 L 52.5 152.5 M 48.5 147.5 L 52.5 147.5 M 48.5 141.5 L 52.5 141.5 M 48.5 136.5 L 52.5 136.5 M 48.5 130.5 L 52.5 130.5 M 48.5 125.5 L 52.5 125.5 M 48.5 119.5 L 52.5 119.5 M 48.5 114.5 L 52.5 114.5 M 48.5 108.5 L 52.5 108.5 M 48.5 102.5 L 52.5 102.5 M 48.5 97.5 L 52.5 97.5 M 48.5 91.5 L 52.5 91.5 M 48.5 86.5 L 52.5 86.5 M 48.5 80.5 L 52.5 80.5 M 48.5 75.5 L 52.5 75.5 M 48.5 69.5 L 52.5 69.5 M 48.5 64.5 L 52.5 64.5 M 48.5 58.5 L 52.5 58.5 M 48.5 52.5 L 52.5 52.5 M 48.5 47.5 L 52.5 47.5 M 48.5 41.5 L 52.5 41.5 M 48.5 36.5 L 52.5 36.5 M 48.5 30.5 L 52.5 30.5" stroke-opacity="1" stroke-linejoin="bevel" stroke-miterlimit="10"/><text fill="rgb(68,68,68)" stroke="none" font-family="helvetica" font-size="11px" font-style="normal" font-weight="normal" text-decoration="normal" x="34.88232421875" y="200.90908813476562" text-anchor="start" dominant-baseline="alphabetic" transform="matrix(1, 0, 0, 1, 0.5, 0.5)" fill-opacity="1">0</text><text fill="none" stroke="rgb(0,0,0)" font-family="helvetica" font-size="11px" font-style="normal" font-weight="normal" text-decoration="normal" x="34.88232421875" y="200.90908813476562" text-anchor="start" dominant-baseline="alphabetic" transform="matrix(1, 0, 0, 1, 0.5, 0.5)" stroke-opacity="0" stroke-linejoin="bevel" stroke-miterlimit="10">0</text><text fill="rgb(68,68,68)" stroke="none" font-family="helvetica" font-size="11px" font-style="normal" font-weight="normal" text-decoration="normal" x="25.70849609375" y="173.13397216796875" text-anchor="start" dominant-baseline="alphabetic" transform="matrix(1, 0, 0, 1, 0.5, 0.5)" fill-opacity="1">0.1</text><text fill="none" stroke="rgb(0,0,0)" font-family="helvetica" font-size="11px" font-style="normal" font-weight="normal" text-decoration="normal" x="25.70849609375" y="173.13397216796875" text-anchor="start" dominant-baseline="alphabetic" transform="matrix(1, 0, 0, 1, 0.5, 0.5)" stroke-opacity="0" stroke-linejoin="bevel" stroke-miterlimit="10">0.1</text><text fill="rgb(68,68,68)" stroke="none" font-family="helvetica" font-size="11px" font-style="normal" font-weight="normal" text-decoration="normal" x="25.70849609375" y="145.35885620117188" text-anchor="start" dominant-baseline="alphabetic" transform="matrix(1, 0, 0, 1, 0.5, 0.5)" fill-opacity="1">0.2</text><text fill="none" stroke="rgb(0,0,0)" font-family="helvetica" font-size="11px" font-style="normal" font-weight="normal" text-decoration="normal" x="25.70849609375" y="145.35885620117188" text-anchor="start" dominant-baseline="alphabetic" transform="matrix(1, 0, 0, 1, 0.5, 0.5)" stroke-opacity="0" stroke-linejoin="bevel" stroke-miterlimit="10">0.2</text><text fill="rgb(68,68,68)" stroke="none" font-family="helvetica" font-size="11px" font-style="normal" font-weight="normal" text-decoration="normal" x="25.70849609375" y="117.58374786376953" text-anchor="start" dominant-baseline="alphabetic" transform="matrix(1, 0, 0, 1, 0.5, 0.5)" fill-opacity="1">0.3</text><text fill="none" stroke="rgb(0,0,0)" font-family="helvetica" font-size="11px" font-style="normal" font-weight="normal" text-decoration="normal" x="25.70849609375" y="117.58374786376953" text-anchor="start" dominant-baseline="alphabetic" transform="matrix(1, 0, 0, 1, 0.5, 0.5)" stroke-opacity="0" stroke-linejoin="bevel" stroke-miterlimit="10">0.3</text><text fill="rgb(68,68,68)" stroke="none" font-family="helvetica" font-size="11px" font-style="normal" font-weight="normal" text-decoration="normal" x="25.70849609375" y="89.80863189697266" text-anchor="start" dominant-baseline="alphabetic" transform="matrix(1, 0, 0, 1, 0.5, 0.5)" fill-opacity="1">0.4</text><text fill="none" stroke="rgb(0,0,0)" font-family="helvetica" font-size="11px" font-style="normal" font-weight="normal" text-decoration="normal" x="25.70849609375" y="89.80863189697266" text-anchor="start" dominant-baseline="alphabetic" transform="matrix(1, 0, 0, 1, 0.5, 0.5)" stroke-opacity="0" stroke-linejoin="bevel" stroke-miterlimit="10">0.4</text><text fill="rgb(68,68,68)" stroke="none" font-family="helvetica" font-size="11px" font-style="normal" font-weight="normal" text-decoration="normal" x="25.70849609375" y="62.03351593017578" text-anchor="start" dominant-baseline="alphabetic" transform="matrix(1, 0, 0, 1, 0.5, 0.5)" fill-opacity="1">0.5</text><text fill="none" stroke="rgb(0,0,0)" font-family="helvetica" font-size="11px" font-style="normal" font-weight="normal" text-decoration="normal" x="25.70849609375" y="62.03351593017578" text-anchor="start" dominant-baseline="alphabetic" transform="matrix(1, 0, 0, 1, 0.5, 0.5)" stroke-opacity="0" stroke-linejoin="bevel" stroke-miterlimit="10">0.5</text><text fill="rgb(68,68,68)" stroke="none" font-family="helvetica" font-size="11px" font-style="normal" font-weight="normal" text-decoration="normal" x="25.70849609375" y="34.25840377807617" text-anchor="start" dominant-baseline="alphabetic" transform="matrix(1, 0, 0, 1, 0.5, 0.5)" fill-opacity="1">0.6</text><text fill="none" stroke="rgb(0,0,0)" font-family="helvetica" font-size="11px" font-style="normal" font-weight="normal" text-decoration="normal" x="25.70849609375" y="34.25840377807617" text-anchor="start" dominant-baseline="alphabetic" transform="matrix(1, 0, 0, 1, 0.5, 0.5)" stroke-opacity="0" stroke-linejoin="bevel" stroke-miterlimit="10">0.6</text><text fill="rgb(68,68,68)" stroke="none" font-family="helvetica" font-size="13px" font-style="italic" font-weight="normal" text-decoration="normal" x="-47.31689453125" y="113" text-anchor="start" dominant-baseline="alphabetic" transform="matrix(6.123233995736766e-17, -1, 1, 6.123233995736766e-17, -97.79150390625, 134.20849609375)" fill-opacity="1">Normalised Probability</text><text fill="none" stroke="rgb(0,0,0)" font-family="helvetica" font-size="13px" font-style="italic" font-weight="normal" text-decoration="normal" x="-47.31689453125" y="113" text-anchor="start" dominant-baseline="alphabetic" transform="matrix(6.123233995736766e-17, -1, 1, 6.123233995736766e-17, -97.79150390625, 134.20849609375)" stroke-opacity="0" stroke-linejoin="bevel" stroke-miterlimit="10">Normalised Probability</text><path fill="rgb(255,249,186)" stroke="rgb(255,0,0)" paint-order="fill" d="M 130.22342721091388 35.59090909090909 L 130.22342721091388 35.59090909090909 L 130.22342721091388 197.4090909090909 L 130.22342721091388 197.4090909090909 L 130.22342721091388 35.59090909090909 Z" fill-opacity="0.4" clip-path="url(#sgcACLhHohXX)" stroke-opacity="1" stroke-linejoin="bevel" stroke-miterlimit="10" stroke-width="2" stroke-dasharray="6"/><path fill="rgb(255,249,186)" stroke="rgb(50,205,50)" paint-order="fill" d="M 159.30784842837045 35.59090909090909 L 159.30784842837045 35.59090909090909 L 159.30784842837045 197.4090909090909 L 159.30784842837045 197.4090909090909 L 159.30784842837045 35.59090909090909 Z" fill-opacity="0.4" clip-path="url(#uiXiQdZZiyql)" stroke-opacity="1" stroke-linejoin="bevel" stroke-miterlimit="10" stroke-width="2" stroke-dasharray="6"/><text fill="rgb(68,68,68)" stroke="none" font-family="helvetica" font-size="13px" font-style="normal" font-weight="bold" text-decoration="normal" x="52" y="19" text-anchor="start" dominant-baseline="alphabetic" transform="matrix(1, 0, 0, 1, 0.5, 0.5)" fill-opacity="1">Convergance Probability</text><text fill="none" stroke="rgb(0,0,0)" font-family="helvetica" font-size="13px" font-style="normal" font-weight="bold" text-decoration="normal" x="52" y="19" text-anchor="start" dominant-baseline="alphabetic" transform="matrix(1, 0, 0, 1, 0.5, 0.5)" stroke-opacity="0" stroke-miterlimit="10" stroke-dasharray="">Convergance Probability</text></svg>