<svg version="1.1" xmlns="http://www.w3.org/2000/svg" width="275" height="275"><defs><clipPath id="SxuOOICTZtFD"><path fill="none" stroke="none" d="M 52.5 27.5 L 245.5 27.5 L 245.5 230.5 L 52.5 230.5 L 52.5 27.5 Z"/></clipPath><clipPath id="zrOOiHvpLuAc"><path fill="none" stroke="none" d="M 52.5 27.5 L 245.5 27.5 L 245.5 230.5 L 52.5 230.5 L 52.5 27.5 Z"/></clipPath><clipPath id="xbPpnZTfiOBq"><path fill="none" stroke="none" d="M 52.5 27.5 L 245.5 27.5 L 245.5 230.5 L 52.5 230.5 L 52.5 27.5 Z"/></clipPath><clipPath id="BSrsXsGExhFQ"><path fill="none" stroke="none" d="M 52.5 27.5 L 245.5 27.5 L 245.5 230.5 L 52.5 230.5 L 52.5 27.5 Z"/></clipPath><pattern id="MCuSQWAxzCtd" width="3" height="3" patternUnits="userSpaceOnUse"><path fill="rgb(0,0,0)" stroke="none" paint-order="stroke" d="M 2.75 2 A 0.75 0.75 0 0 0 1.25 2 A 0.75 0.75 0 0 0 2.75 2" fill-opacity="0.14901960784313725"/></pattern><clipPath id="hpSwXWAoordT"><path fill="none" stroke="none" d="M 52.5 27.5 L 245.5 27.5 L 245.5 230.5 L 52.5 230.5 L 52.5 27.5 Z"/></clipPath><clipPath id="TWJBiDOnQvQQ"><path fill="none" stroke="none" d="M 52.5 27.5 L 245.5 27.5 L 245.5 230.5 L 52.5 230.5 L 52.5 27.5 Z"/></clipPath><clipPath id="nSNMXDsBsWeF"><path fill="none" stroke="none" d="M 52.5 27.5 L 245.5 27.5 L 245.5 230.5 L 52.5 230.5 L 52.5 27.5 Z"/></clipPath><clipPath id="kZVwMgTDvkwC"><path fill="none" stroke="none" d="M 52.5 27.5 L 245.5 27.5 L 245.5 230.5 L 52.5 230.5 L 52.5 27.5 Z"/></clipPath></defs><path fill="rgb(255,255,255)" stroke="none" paint-order="stroke" d="M 0.5 0.5 L 275.5 0.5 L 275.5 275.5 L 0.5 275.5 L 0.5 0.5 Z" fill-opacity="1"/><rect fill="#FFFFFF" stroke="none" x="52" y="27" width="193" height="203" transform="matrix(1, 0, 0, 1, 0.5, 0.5)"/><path fill="rgb(255,255,255)" stroke="none" paint-order="stroke" d="M 52.5 27.5 L 245.5 27.5 L 245.5 230.5 L 52.5 230.5 L 52.5 27.5 Z" fill-opacity="1"/><path fill="none" stroke="rgb(229,229,229)" paint-order="fill" d="M 52.5 27.5 L 245.5 27.5 L 245.5 230.5 L 52.5 230.5 L 52.5 27.5 Z" stroke-opacity="1" stroke-linejoin="bevel" stroke-miterlimit="10"/><path fill="none" stroke="rgb(229,229,229)" paint-order="fill" d="M 80.5 230.5 L 80.5 27.5 M 113.5 230.5 L 113.5 27.5 M 145.5 230.5 L 145.5 27.5 M 178.5 230.5 L 178.5 27.5 M 210.5 230.5 L 210.5 27.5 M 243.5 230.5 L 243.5 27.5" stroke-opacity="1" stroke-linejoin="bevel" stroke-miterlimit="10" clip-path="url(#SxuOOICTZtFD)"/><path fill="none" stroke="rgb(229,229,229)" paint-order="fill" d="M 52.5 221.5 L 245.5 221.5 M 52.5 178.5 L 245.5 178.5 M 52.5 136.5 L 245.5 136.5 M 52.5 94.5 L 245.5 94.5 M 52.5 52.5 L 245.5 52.5" stroke-opacity="1" stroke-linejoin="bevel" stroke-miterlimit="10" clip-path="url(#zrOOiHvpLuAc)"/><path fill="none" stroke="rgb(0,0,0)" paint-order="fill" d="M 97.81417846679688 24.93147087097168 L 97.81417846679688 57.04635238647461" stroke-opacity="1" stroke-linejoin="bevel" stroke-miterlimit="10" clip-path="url(#xbPpnZTfiOBq)"/><path fill="none" stroke="rgb(0,0,0)" paint-order="fill" d="M 129.80531311035156 24.299152374267578 L 129.80531311035156 53.54279327392578" stroke-opacity="1" stroke-linejoin="bevel" stroke-miterlimit="10" clip-path="url(#xbPpnZTfiOBq)"/><path fill="none" stroke="rgb(0,0,0)" paint-order="fill" d="M 161.7964630126953 28.40643882751465 L 161.7964630126953 66.00025939941406" stroke-opacity="1" stroke-linejoin="bevel" stroke-miterlimit="10" clip-path="url(#xbPpnZTfiOBq)"/><path fill="none" stroke="rgb(0,0,0)" paint-order="fill" d="M 193.78759765625 22.965322494506836 L 193.78759765625 50.48922348022461" stroke-opacity="1" stroke-linejoin="bevel" stroke-miterlimit="10" clip-path="url(#xbPpnZTfiOBq)"/><path fill="none" stroke="rgb(0,0,0)" paint-order="fill" d="M 92.81417846679688 24.93147087097168 L 102.81417846679688 24.93147087097168" stroke-opacity="1" stroke-linejoin="bevel" stroke-miterlimit="10" clip-path="url(#xbPpnZTfiOBq)"/><path fill="none" stroke="rgb(0,0,0)" paint-order="fill" d="M 124.80531311035156 24.299152374267578 L 134.80531311035156 24.299152374267578" stroke-opacity="1" stroke-linejoin="bevel" stroke-miterlimit="10" clip-path="url(#xbPpnZTfiOBq)"/><path fill="none" stroke="rgb(0,0,0)" paint-order="fill" d="M 156.7964630126953 28.40643882751465 L 166.7964630126953 28.40643882751465" stroke-opacity="1" stroke-linejoin="bevel" stroke-miterlimit="10" clip-path="url(#xbPpnZTfiOBq)"/><path fill="none" stroke="rgb(0,0,0)" paint-order="fill" d="M 188.78759765625 22.965322494506836 L 198.78759765625 22.965322494506836" stroke-opacity="1" stroke-linejoin="bevel" stroke-miterlimit="10" clip-path="url(#xbPpnZTfiOBq)"/><path fill="none" stroke="rgb(0,0,0)" paint-order="fill" d="M 102.81417846679688 57.04635238647461 L 92.81417846679688 57.04635238647461" stroke-opacity="1" stroke-linejoin="bevel" stroke-miterlimit="10" clip-path="url(#xbPpnZTfiOBq)"/><path fill="none" stroke="rgb(0,0,0)" paint-order="fill" d="M 134.80531311035156 53.54279327392578 L 124.80531311035156 53.54279327392578" stroke-opacity="1" stroke-linejoin="bevel" stroke-miterlimit="10" clip-path="url(#xbPpnZTfiOBq)"/><path fill="none" stroke="rgb(0,0,0)" paint-order="fill" d="M 166.7964630126953 66.00025939941406 L 156.7964630126953 66.00025939941406" stroke-opacity="1" stroke-linejoin="bevel" stroke-miterlimit="10" clip-path="url(#xbPpnZTfiOBq)"/><path fill="none" stroke="rgb(0,0,0)" paint-order="fill" d="M 198.78759765625 50.48922348022461 L 188.78759765625 50.48922348022461" stroke-opacity="1" stroke-linejoin="bevel" stroke-miterlimit="10" clip-path="url(#xbPpnZTfiOBq)"/><path fill="rgb(128,128,128)" stroke="none" paint-order="stroke" d="M 81.81861114501953 36.727272033691406 L 209.7831573486328 36.727272033691406 L 209.7831573486328 221.27273559570312 L 81.81861114501953 221.27273559570312 L 81.81861114501953 36.727272033691406 Z" fill-opacity="0.10196078431372549" clip-path="url(#BSrsXsGExhFQ)"/><path fill="url(#MCuSQWAxzCtd)" stroke="rgb(0,0,0)" paint-order="fill" d="M 81.81861114501953 36.727272033691406 L 209.7831573486328 36.727272033691406 L 209.7831573486328 221.27273559570312 L 81.81861114501953 221.27273559570312 L 81.81861114501953 36.727272033691406 Z" clip-path="url(#BSrsXsGExhFQ)" stroke-opacity="0.2" stroke-linejoin="bevel" stroke-miterlimit="10"/><path fill="rgb(100,149,237)" stroke="rgb(31,119,180)" paint-order="fill" d="M 81.81861114501953 40.988914489746094 L 113.80974578857422 40.988914489746094 L 113.80974578857422 221.27272033691406 L 81.81861114501953 221.27272033691406 L 81.81861114501953 40.988914489746094 Z" fill-opacity="0.5019607843137255" clip-path="url(#hpSwXWAoordT)" stroke-opacity="0.5019607843137255" stroke-linejoin="bevel" stroke-miterlimit="10"/><path fill="rgb(100,149,237)" stroke="rgb(31,119,180)" paint-order="fill" d="M 113.80974578857422 38.92097473144531 L 145.80088806152344 38.92097473144531 L 145.80088806152344 221.27272033691406 L 113.80974578857422 221.27272033691406 L 113.80974578857422 38.92097473144531 Z" fill-opacity="0.5019607843137255" clip-path="url(#hpSwXWAoordT)" stroke-opacity="0.5019607843137255" stroke-linejoin="bevel" stroke-miterlimit="10"/><path fill="rgb(100,149,237)" stroke="rgb(31,119,180)" paint-order="fill" d="M 145.80088806152344 47.20335006713867 L 177.7920379638672 47.20335006713867 L 177.7920379638672 221.27272033691406 L 145.80088806152344 221.27272033691406 L 145.80088806152344 47.20335006713867 Z" fill-opacity="0.5019607843137255" clip-path="url(#hpSwXWAoordT)" stroke-opacity="0.5019607843137255" stroke-linejoin="bevel" stroke-miterlimit="10"/><path fill="rgb(100,149,237)" stroke="rgb(31,119,180)" paint-order="fill" d="M 177.79202270507812 36.727272033691406 L 209.78317260742188 36.727272033691406 L 209.78317260742188 221.27272033691406 L 177.79202270507812 221.27272033691406 L 177.79202270507812 36.727272033691406 Z" fill-opacity="0.5019607843137255" clip-path="url(#hpSwXWAoordT)" stroke-opacity="0.5019607843137255" stroke-linejoin="bevel" stroke-miterlimit="10"/><path fill="none" stroke="rgb(0,0,0)" paint-order="fill" d="M 52.5 230.5 L 245.5 230.5" stroke-opacity="1" stroke-linejoin="bevel" stroke-miterlimit="10"/><path fill="none" stroke="rgb(0,0,0)" paint-order="fill" d="M 80.5 236.5 L 80.5 228.5 M 113.5 236.5 L 113.5 228.5 M 145.5 236.5 L 145.5 228.5 M 178.5 236.5 L 178.5 228.5 M 210.5 236.5 L 210.5 228.5 M 243.5 236.5 L 243.5 228.5" stroke-opacity="1" stroke-linejoin="bevel" stroke-miterlimit="10"/><path fill="none" stroke="rgb(0,0,0)" paint-order="fill" d="M 74.5 234.5 L 74.5 230.5 M 67.5 234.5 L 67.5 230.5 M 61.5 234.5 L 61.5 230.5 M 54.5 234.5 L 54.5 230.5 M 80.5 234.5 L 80.5 230.5 M 87.5 234.5 L 87.5 230.5 M 93.5 234.5 L 93.5 230.5 M 100.5 234.5 L 100.5 230.5 M 106.5 234.5 L 106.5 230.5 M 113.5 234.5 L 113.5 230.5 M 119.5 234.5 L 119.5 230.5 M 126.5 234.5 L 126.5 230.5 M 132.5 234.5 L 132.5 230.5 M 139.5 234.5 L 139.5 230.5 M 145.5 234.5 L 145.5 230.5 M 152.5 234.5 L 152.5 230.5 M 158.5 234.5 L 158.5 230.5 M 165.5 234.5 L 165.5 230.5 M 171.5 234.5 L 171.5 230.5 M 178.5 234.5 L 178.5 230.5 M 184.5 234.5 L 184.5 230.5 M 191.5 234.5 L 191.5 230.5 M 197.5 234.5 L 197.5 230.5 M 204.5 234.5 L 204.5 230.5 M 210.5 234.5 L 210.5 230.5 M 217.5 234.5 L 217.5 230.5 M 223.5 234.5 L 223.5 230.5 M 230.5 234.5 L 230.5 230.5 M 236.5 234.5 L 236.5 230.5 M 243.5 234.5 L 243.5 230.5" stroke-opacity="1" stroke-linejoin="bevel" stroke-miterlimit="10"/><text fill="rgb(68,68,68)" stroke="none" font-family="helvetica" font-size="11px" font-style="normal" font-weight="normal" text-decoration="normal" x="66.5718994140625" y="249" text-anchor="start" dominant-baseline="alphabetic" transform="matrix(1, 0, 0, 1, 0.5, 0.5)" fill-opacity="1">0.009</text><text fill="none" stroke="rgb(0,0,0)" font-family="helvetica" font-size="11px" font-style="normal" font-weight="normal" text-decoration="normal" x="66.5718994140625" y="249" text-anchor="start" dominant-baseline="alphabetic" transform="matrix(1, 0, 0, 1, 0.5, 0.5)" stroke-opacity="0" stroke-linejoin="bevel" stroke-miterlimit="10">0.009</text><text fill="rgb(68,68,68)" stroke="none" font-family="helvetica" font-size="11px" font-style="normal" font-weight="normal" text-decoration="normal" x="96.03466796875" y="249" text-anchor="start" dominant-baseline="alphabetic" transform="matrix(1, 0, 0, 1, 0.5, 0.5)" fill-opacity="1">0.0095</text><text fill="none" stroke="rgb(0,0,0)" font-family="helvetica" font-size="11px" font-style="normal" font-weight="normal" text-decoration="normal" x="96.03466796875" y="249" text-anchor="start" dominant-baseline="alphabetic" transform="matrix(1, 0, 0, 1, 0.5, 0.5)" stroke-opacity="0" stroke-linejoin="bevel" stroke-miterlimit="10">0.0095</text><text fill="rgb(68,68,68)" stroke="none" font-family="helvetica" font-size="11px" font-style="normal" font-weight="normal" text-decoration="normal" x="134.6739501953125" y="249" text-anchor="start" dominant-baseline="alphabetic" transform="matrix(1, 0, 0, 1, 0.5, 0.5)" fill-opacity="1">0.01</text><text fill="none" stroke="rgb(0,0,0)" font-family="helvetica" font-size="11px" font-style="normal" font-weight="normal" text-decoration="normal" x="134.6739501953125" y="249" text-anchor="start" dominant-baseline="alphabetic" transform="matrix(1, 0, 0, 1, 0.5, 0.5)" stroke-opacity="0" stroke-linejoin="bevel" stroke-miterlimit="10">0.01</text><text fill="rgb(68,68,68)" stroke="none" font-family="helvetica" font-size="11px" font-style="normal" font-weight="normal" text-decoration="normal" x="161.077880859375" y="249" text-anchor="start" dominant-baseline="alphabetic" transform="matrix(1, 0, 0, 1, 0.5, 0.5)" fill-opacity="1">0.0105</text><text fill="none" stroke="rgb(0,0,0)" font-family="helvetica" font-size="11px" font-style="normal" font-weight="normal" text-decoration="normal" x="161.077880859375" y="249" text-anchor="start" dominant-baseline="alphabetic" transform="matrix(1, 0, 0, 1, 0.5, 0.5)" stroke-opacity="0" stroke-linejoin="bevel" stroke-miterlimit="10">0.0105</text><text fill="rgb(68,68,68)" stroke="none" font-family="helvetica" font-size="11px" font-style="normal" font-weight="normal" text-decoration="normal" x="197.0665283203125" y="249" text-anchor="start" dominant-baseline="alphabetic" transform="matrix(1, 0, 0, 1, 0.5, 0.5)" fill-opacity="1">0.011</text><text fill="none" stroke="rgb(0,0,0)" font-family="helvetica" font-size="11px" font-style="normal" font-weight="normal" text-decoration="normal" x="197.0665283203125" y="249" text-anchor="start" dominant-baseline="alphabetic" transform="matrix(1, 0, 0, 1, 0.5, 0.5)" stroke-opacity="0" stroke-linejoin="bevel" stroke-miterlimit="10">0.011</text><text fill="rgb(68,68,68)" stroke="none" font-family="helvetica" font-size="11px" font-style="normal" font-weight="normal" text-decoration="normal" x="226.529296875" y="249" text-anchor="start" dominant-baseline="alphabetic" transform="matrix(1, 0, 0, 1, 0.5, 0.5)" fill-opacity="1">0.0115</text><text fill="none" stroke="rgb(0,0,0)" font-family="helvetica" font-size="11px" font-style="normal" font-weight="normal" text-decoration="normal" x="226.529296875" y="249" text-anchor="start" dominant-baseline="alphabetic" transform="matrix(1, 0, 0, 1, 0.5, 0.5)" stroke-opacity="0" stroke-linejoin="bevel" stroke-miterlimit="10">0.0115</text><text fill="rgb(68,68,68)" stroke="none" font-family="helvetica" font-size="13px" font-style="italic" font-weight="normal" text-decoration="normal" x="127.90185546875" y="269" text-anchor="start" dominant-baseline="alphabetic" transform="matrix(1, 0, 0, 1, 0.5, 0.5)" fill-opacity="1">dhecoil</text><text fill="none" stroke="rgb(0,0,0)" font-family="helvetica" font-size="13px" font-style="italic" font-weight="normal" text-decoration="normal" x="127.90185546875" y="269" text-anchor="start" dominant-baseline="alphabetic" transform="matrix(1, 0, 0, 1, 0.5, 0.5)" stroke-opacity="0" stroke-linejoin="bevel" stroke-miterlimit="10">dhecoil</text><path fill="none" stroke="rgb(0,0,0)" paint-order="fill" d="M 52.5 230.5 L 52.5 27.5" stroke-opacity="1" stroke-linejoin="bevel" stroke-miterlimit="10"/><path fill="none" stroke="rgb(0,0,0)" paint-order="fill" d="M 46.5 221.5 L 54.5 221.5 M 46.5 178.5 L 54.5 178.5 M 46.5 136.5 L 54.5 136.5 M 46.5 94.5 L 54.5 94.5 M 46.5 52.5 L 54.5 52.5" stroke-opacity="1" stroke-linejoin="bevel" stroke-miterlimit="10"/><path fill="none" stroke="rgb(0,0,0)" paint-order="fill" d="M 48.5 229.5 L 52.5 229.5 M 48.5 221.5 L 52.5 221.5 M 48.5 212.5 L 52.5 212.5 M 48.5 204.5 L 52.5 204.5 M 48.5 195.5 L 52.5 195.5 M 48.5 187.5 L 52.5 187.5 M 48.5 178.5 L 52.5 178.5 M 48.5 170.5 L 52.5 170.5 M 48.5 162.5 L 52.5 162.5 M 48.5 153.5 L 52.5 153.5 M 48.5 145.5 L 52.5 145.5 M 48.5 136.5 L 52.5 136.5 M 48.5 128.5 L 52.5 128.5 M 48.5 119.5 L 52.5 119.5 M 48.5 111.5 L 52.5 111.5 M 48.5 102.5 L 52.5 102.5 M 48.5 94.5 L 52.5 94.5 M 48.5 85.5 L 52.5 85.5 M 48.5 77.5 L 52.5 77.5 M 48.5 68.5 L 52.5 68.5 M 48.5 60.5 L 52.5 60.5 M 48.5 52.5 L 52.5 52.5 M 48.5 43.5 L 52.5 43.5 M 48.5 35.5 L 52.5 35.5" stroke-opacity="1" stroke-linejoin="bevel" stroke-miterlimit="10"/><text fill="rgb(68,68,68)" stroke="none" font-family="helvetica" font-size="11px" font-style="normal" font-weight="normal" text-decoration="normal" x="34.88232421875" y="224.77272033691406" text-anchor="start" dominant-baseline="alphabetic" transform="matrix(1, 0, 0, 1, 0.5, 0.5)" fill-opacity="1">0</text><text fill="none" stroke="rgb(0,0,0)" font-family="helvetica" font-size="11px" font-style="normal" font-weight="normal" text-decoration="normal" x="34.88232421875" y="224.77272033691406" text-anchor="start" dominant-baseline="alphabetic" transform="matrix(1, 0, 0, 1, 0.5, 0.5)" stroke-opacity="0" stroke-linejoin="bevel" stroke-miterlimit="10">0</text><text fill="rgb(68,68,68)" stroke="none" font-family="helvetica" font-size="11px" font-style="normal" font-weight="normal" text-decoration="normal" x="25.70849609375" y="182.45468139648438" text-anchor="start" dominant-baseline="alphabetic" transform="matrix(1, 0, 0, 1, 0.5, 0.5)" fill-opacity="1">0.2</text><text fill="none" stroke="rgb(0,0,0)" font-family="helvetica" font-size="11px" font-style="normal" font-weight="normal" text-decoration="normal" x="25.70849609375" y="182.45468139648438" text-anchor="start" dominant-baseline="alphabetic" transform="matrix(1, 0, 0, 1, 0.5, 0.5)" stroke-opacity="0" stroke-linejoin="bevel" stroke-miterlimit="10">0.2</text><text fill="rgb(68,68,68)" stroke="none" font-family="helvetica" font-size="11px" font-style="normal" font-weight="normal" text-decoration="normal" x="25.70849609375" y="140.13662719726562" text-anchor="start" dominant-baseline="alphabetic" transform="matrix(1, 0, 0, 1, 0.5, 0.5)" fill-opacity="1">0.4</text><text fill="none" stroke="rgb(0,0,0)" font-family="helvetica" font-size="11px" font-style="normal" font-weight="normal" text-decoration="normal" x="25.70849609375" y="140.13662719726562" text-anchor="start" dominant-baseline="alphabetic" transform="matrix(1, 0, 0, 1, 0.5, 0.5)" stroke-opacity="0" stroke-linejoin="bevel" stroke-miterlimit="10">0.4</text><text fill="rgb(68,68,68)" stroke="none" font-family="helvetica" font-size="11px" font-style="normal" font-weight="normal" text-decoration="normal" x="25.70849609375" y="97.81858825683594" text-anchor="start" dominant-baseline="alphabetic" transform="matrix(1, 0, 0, 1, 0.5, 0.5)" fill-opacity="1">0.6</text><text fill="none" stroke="rgb(0,0,0)" font-family="helvetica" font-size="11px" font-style="normal" font-weight="normal" text-decoration="normal" x="25.70849609375" y="97.81858825683594" text-anchor="start" dominant-baseline="alphabetic" transform="matrix(1, 0, 0, 1, 0.5, 0.5)" stroke-opacity="0" stroke-linejoin="bevel" stroke-miterlimit="10">0.6</text><text fill="rgb(68,68,68)" stroke="none" font-family="helvetica" font-size="11px" font-style="normal" font-weight="normal" text-decoration="normal" x="25.70849609375" y="55.50053787231445" text-anchor="start" dominant-baseline="alphabetic" transform="matrix(1, 0, 0, 1, 0.5, 0.5)" fill-opacity="1">0.8</text><text fill="none" stroke="rgb(0,0,0)" font-family="helvetica" font-size="11px" font-style="normal" font-weight="normal" text-decoration="normal" x="25.70849609375" y="55.50053787231445" text-anchor="start" dominant-baseline="alphabetic" transform="matrix(1, 0, 0, 1, 0.5, 0.5)" stroke-opacity="0" stroke-linejoin="bevel" stroke-miterlimit="10">0.8</text><text fill="rgb(68,68,68)" stroke="none" font-family="helvetica" font-size="13px" font-style="italic" font-weight="normal" text-decoration="normal" x="-47.31689453125" y="125.5" text-anchor="start" dominant-baseline="alphabetic" transform="matrix(6.123233995736766e-17, -1, 1, 6.123233995736766e-17, -110.29150390625, 146.70849609375)" fill-opacity="1">Normalised Probability</text><text fill="none" stroke="rgb(0,0,0)" font-family="helvetica" font-size="13px" font-style="italic" font-weight="normal" text-decoration="normal" x="-47.31689453125" y="125.5" text-anchor="start" dominant-baseline="alphabetic" transform="matrix(6.123233995736766e-17, -1, 1, 6.123233995736766e-17, -110.29150390625, 146.70849609375)" stroke-opacity="0" stroke-linejoin="bevel" stroke-miterlimit="10">Normalised Probability</text><path fill="rgb(255,249,186)" stroke="rgb(255,0,0)" paint-order="fill" d="M 147.87353423864306 36.72727272727275 L 147.87353423864306 36.72727272727275 L 147.87353423864306 221.27272727272728 L 147.87353423864306 221.27272727272728 L 147.87353423864306 36.72727272727275 Z" fill-opacity="0.4" clip-path="url(#TWJBiDOnQvQQ)" stroke-opacity="1" stroke-linejoin="bevel" stroke-miterlimit="10" stroke-width="2" stroke-dasharray="6"/><path fill="rgb(255,249,186)" stroke="rgb(50,205,50)" paint-order="fill" d="M 193.78759445190383 36.72727272727275 L 193.78759445190383 36.72727272727275 L 193.78759445190383 221.27272727272728 L 193.78759445190383 221.27272727272728 L 193.78759445190383 36.72727272727275 Z" fill-opacity="0.4" clip-path="url(#nSNMXDsBsWeF)" stroke-opacity="1" stroke-linejoin="bevel" stroke-miterlimit="10" stroke-width="2" stroke-dasharray="6"/><text fill="rgb(68,68,68)" stroke="none" font-family="helvetica" font-size="13px" font-style="normal" font-weight="bold" text-decoration="normal" x="52" y="19" text-anchor="start" dominant-baseline="alphabetic" transform="matrix(1, 0, 0, 1, 0.5, 0.5)" fill-opacity="1">Convergance Probability</text><text fill="none" stroke="rgb(0,0,0)" font-family="helvetica" font-size="13px" font-style="normal" font-weight="bold" text-decoration="normal" x="52" y="19" text-anchor="start" dominant-baseline="alphabetic" transform="matrix(1, 0, 0, 1, 0.5, 0.5)" stroke-opacity="0" stroke-miterlimit="10" stroke-dasharray="">Convergance Probability</text></svg>