<svg version="1.1" xmlns="http://www.w3.org/2000/svg" width="350" height="350"><defs><clipPath id="nQLMHuWsLPzT"><path fill="none" stroke="none" d="M 52.5 27.5 L 320.5 27.5 L 320.5 305.5 L 52.5 305.5 L 52.5 27.5 Z"/></clipPath><clipPath id="WIrlGyvUCAbb"><path fill="none" stroke="none" d="M 52.5 27.5 L 320.5 27.5 L 320.5 305.5 L 52.5 305.5 L 52.5 27.5 Z"/></clipPath><clipPath id="mJbrHTgnTdGx"><path fill="none" stroke="none" d="M 52.5 27.5 L 320.5 27.5 L 320.5 305.5 L 52.5 305.5 L 52.5 27.5 Z"/></clipPath><pattern id="KJkMTtUwZgBb" width="3" height="3" patternUnits="userSpaceOnUse"><path fill="rgb(0,0,0)" stroke="none" paint-order="stroke" d="M 2.75 2 A 0.75 0.75 0 0 0 1.25 2 A 0.75 0.75 0 0 0 2.75 2" fill-opacity="0.14901960784313725"/></pattern><clipPath id="mADcBMnapTJR"><path fill="none" stroke="none" d="M 52.5 27.5 L 320.5 27.5 L 320.5 305.5 L 52.5 305.5 L 52.5 27.5 Z"/></clipPath><clipPath id="UFzWcvHnMTTI"><path fill="none" stroke="none" d="M 52.5 27.5 L 320.5 27.5 L 320.5 305.5 L 52.5 305.5 L 52.5 27.5 Z"/></clipPath><clipPath id="MITWDQtiKlbp"><path fill="none" stroke="none" d="M 52.5 27.5 L 320.5 27.5 L 320.5 305.5 L 52.5 305.5 L 52.5 27.5 Z"/></clipPath><clipPath id="HTzCJrKLwCyE"><path fill="none" stroke="none" d="M 52.5 27.5 L 320.5 27.5 L 320.5 305.5 L 52.5 305.5 L 52.5 27.5 Z"/></clipPath></defs><path fill="rgb(255,255,255)" stroke="none" paint-order="stroke" d="M 0.5 0.5 L 350.5 0.5 L 350.5 350.5 L 0.5 350.5 L 0.5 0.5 Z" fill-opacity="1"/><rect fill="#FFFFFF" stroke="none" x="52" y="27" width="268" height="278" transform="matrix(1, 0, 0, 1, 0.5, 0.5)"/><path fill="rgb(255,255,255)" stroke="none" paint-order="stroke" d="M 52.5 27.5 L 320.5 27.5 L 320.5 305.5 L 52.5 305.5 L 52.5 27.5 Z" fill-opacity="1"/><path fill="none" stroke="rgb(229,229,229)" paint-order="fill" d="M 52.5 27.5 L 320.5 27.5 L 320.5 305.5 L 52.5 305.5 L 52.5 27.5 Z" stroke-opacity="1" stroke-linejoin="bevel" stroke-miterlimit="10"/><path fill="none" stroke="rgb(229,229,229)" paint-order="fill" d="M 76.5 305.5 L 76.5 27.5 M 131.5 305.5 L 131.5 27.5 M 186.5 305.5 L 186.5 27.5 M 242.5 305.5 L 242.5 27.5 M 297.5 305.5 L 297.5 27.5" stroke-opacity="1" stroke-linejoin="bevel" stroke-miterlimit="10" clip-path="url(#nQLMHuWsLPzT)"/><path fill="none" stroke="rgb(229,229,229)" paint-order="fill" d="M 52.5 292.5 L 320.5 292.5 M 52.5 242.5 L 320.5 242.5 M 52.5 191.5 L 320.5 191.5 M 52.5 140.5 L 320.5 140.5 M 52.5 89.5 L 320.5 89.5 M 52.5 39.5 L 320.5 39.5" stroke-opacity="1" stroke-linejoin="bevel" stroke-miterlimit="10" clip-path="url(#WIrlGyvUCAbb)"/><path fill="rgb(128,128,128)" stroke="none" paint-order="stroke" d="M 68.61221313476562 40.13636016845703 L 293.1603698730469 40.13636016845703 L 293.1603698730469 292.8636474609375 L 68.61221313476562 292.8636474609375 L 68.61221313476562 40.13636016845703 Z" fill-opacity="0.10196078431372549" clip-path="url(#mJbrHTgnTdGx)"/><path fill="url(#KJkMTtUwZgBb)" stroke="rgb(0,0,0)" paint-order="fill" d="M 68.61221313476562 40.13636016845703 L 293.1603698730469 40.13636016845703 L 293.1603698730469 292.8636474609375 L 68.61221313476562 292.8636474609375 L 68.61221313476562 40.13636016845703 Z" clip-path="url(#mJbrHTgnTdGx)" stroke-opacity="0.2" stroke-linejoin="bevel" stroke-miterlimit="10"/><path fill="rgb(100,149,237)" stroke="rgb(31,119,180)" paint-order="fill" d="M 68.61221313476562 56.63322830200195 L 124.74925231933594 56.63322830200195 L 124.74925231933594 292.8636474609375 L 68.61221313476562 292.8636474609375 L 68.61221313476562 56.63322830200195 Z" fill-opacity="1" clip-path="url(#mADcBMnapTJR)" stroke-opacity="1" stroke-linejoin="bevel" stroke-miterlimit="10"/><path fill="rgb(100,149,237)" stroke="rgb(31,119,180)" paint-order="fill" d="M 124.74925994873047 76.89424896240234 L 180.8863067626953 76.89424896240234 L 180.8863067626953 292.8636474609375 L 124.74925994873047 292.8636474609375 L 124.74925994873047 76.89424896240234 Z" fill-opacity="1" clip-path="url(#mADcBMnapTJR)" stroke-opacity="1" stroke-linejoin="bevel" stroke-miterlimit="10"/><path fill="rgb(100,149,237)" stroke="rgb(31,119,180)" paint-order="fill" d="M 180.88629150390625 67.41799926757812 L 237.02334594726562 67.41799926757812 L 237.02334594726562 292.8636474609375 L 180.88629150390625 292.8636474609375 L 180.88629150390625 67.41799926757812 Z" fill-opacity="1" clip-path="url(#mADcBMnapTJR)" stroke-opacity="1" stroke-linejoin="bevel" stroke-miterlimit="10"/><path fill="rgb(100,149,237)" stroke="rgb(31,119,180)" paint-order="fill" d="M 237.02333068847656 40.1363639831543 L 293.1603698730469 40.1363639831543 L 293.1603698730469 292.8636474609375 L 237.02333068847656 292.8636474609375 L 237.02333068847656 40.1363639831543 Z" fill-opacity="1" clip-path="url(#mADcBMnapTJR)" stroke-opacity="1" stroke-linejoin="bevel" stroke-miterlimit="10"/><path fill="rgb(100,149,237)" stroke="rgb(31,119,180)" paint-order="fill" d="M 293.160400390625 292.8636474609375 L 320.5 292.8636474609375 L 320.5 292.8636474609375 L 293.160400390625 292.8636474609375 L 293.160400390625 292.8636474609375 Z" fill-opacity="1" clip-path="url(#mADcBMnapTJR)" stroke-opacity="1" stroke-linejoin="bevel" stroke-miterlimit="10"/><path fill="none" stroke="rgb(0,0,0)" paint-order="fill" d="M 52.5 305.5 L 320.5 305.5" stroke-opacity="1" stroke-linejoin="bevel" stroke-miterlimit="10"/><path fill="none" stroke="rgb(0,0,0)" paint-order="fill" d="M 76.5 311.5 L 76.5 303.5 M 131.5 311.5 L 131.5 303.5 M 186.5 311.5 L 186.5 303.5 M 242.5 311.5 L 242.5 303.5 M 297.5 311.5 L 297.5 303.5" stroke-opacity="1" stroke-linejoin="bevel" stroke-miterlimit="10"/><path fill="none" stroke="rgb(0,0,0)" paint-order="fill" d="M 65.5 309.5 L 65.5 305.5 M 54.5 309.5 L 54.5 305.5 M 76.5 309.5 L 76.5 305.5 M 87.5 309.5 L 87.5 305.5 M 98.5 309.5 L 98.5 305.5 M 109.5 309.5 L 109.5 305.5 M 120.5 309.5 L 120.5 305.5 M 131.5 309.5 L 131.5 305.5 M 142.5 309.5 L 142.5 305.5 M 153.5 309.5 L 153.5 305.5 M 164.5 309.5 L 164.5 305.5 M 175.5 309.5 L 175.5 305.5 M 186.5 309.5 L 186.5 305.5 M 198.5 309.5 L 198.5 305.5 M 209.5 309.5 L 209.5 305.5 M 220.5 309.5 L 220.5 305.5 M 231.5 309.5 L 231.5 305.5 M 242.5 309.5 L 242.5 305.5 M 253.5 309.5 L 253.5 305.5 M 264.5 309.5 L 264.5 305.5 M 275.5 309.5 L 275.5 305.5 M 286.5 309.5 L 286.5 305.5 M 297.5 309.5 L 297.5 305.5 M 308.5 309.5 L 308.5 305.5 M 319.5 309.5 L 319.5 305.5" stroke-opacity="1" stroke-linejoin="bevel" stroke-miterlimit="10"/><text fill="rgb(68,68,68)" stroke="none" font-family="helvetica" font-size="11px" font-style="normal" font-weight="normal" text-decoration="normal" x="68.68692016601562" y="324" text-anchor="start" dominant-baseline="alphabetic" transform="matrix(1, 0, 0, 1, 0.5, 0.5)" fill-opacity="1">0.3</text><text fill="none" stroke="rgb(0,0,0)" font-family="helvetica" font-size="11px" font-style="normal" font-weight="normal" text-decoration="normal" x="68.68692016601562" y="324" text-anchor="start" dominant-baseline="alphabetic" transform="matrix(1, 0, 0, 1, 0.5, 0.5)" stroke-opacity="0" stroke-linejoin="bevel" stroke-miterlimit="10">0.3</text><text fill="rgb(68,68,68)" stroke="none" font-family="helvetica" font-size="11px" font-style="normal" font-weight="normal" text-decoration="normal" x="120.70553588867188" y="324" text-anchor="start" dominant-baseline="alphabetic" transform="matrix(1, 0, 0, 1, 0.5, 0.5)" fill-opacity="1">0.35</text><text fill="none" stroke="rgb(0,0,0)" font-family="helvetica" font-size="11px" font-style="normal" font-weight="normal" text-decoration="normal" x="120.70553588867188" y="324" text-anchor="start" dominant-baseline="alphabetic" transform="matrix(1, 0, 0, 1, 0.5, 0.5)" stroke-opacity="0" stroke-linejoin="bevel" stroke-miterlimit="10">0.35</text><text fill="rgb(68,68,68)" stroke="none" font-family="helvetica" font-size="11px" font-style="normal" font-weight="normal" text-decoration="normal" x="178.84181213378906" y="324" text-anchor="start" dominant-baseline="alphabetic" transform="matrix(1, 0, 0, 1, 0.5, 0.5)" fill-opacity="1">0.4</text><text fill="none" stroke="rgb(0,0,0)" font-family="helvetica" font-size="11px" font-style="normal" font-weight="normal" text-decoration="normal" x="178.84181213378906" y="324" text-anchor="start" dominant-baseline="alphabetic" transform="matrix(1, 0, 0, 1, 0.5, 0.5)" stroke-opacity="0" stroke-linejoin="bevel" stroke-miterlimit="10">0.4</text><text fill="rgb(68,68,68)" stroke="none" font-family="helvetica" font-size="11px" font-style="normal" font-weight="normal" text-decoration="normal" x="230.8604278564453" y="324" text-anchor="start" dominant-baseline="alphabetic" transform="matrix(1, 0, 0, 1, 0.5, 0.5)" fill-opacity="1">0.45</text><text fill="none" stroke="rgb(0,0,0)" font-family="helvetica" font-size="11px" font-style="normal" font-weight="normal" text-decoration="normal" x="230.8604278564453" y="324" text-anchor="start" dominant-baseline="alphabetic" transform="matrix(1, 0, 0, 1, 0.5, 0.5)" stroke-opacity="0" stroke-linejoin="bevel" stroke-miterlimit="10">0.45</text><text fill="rgb(68,68,68)" stroke="none" font-family="helvetica" font-size="11px" font-style="normal" font-weight="normal" text-decoration="normal" x="288.9967041015625" y="324" text-anchor="start" dominant-baseline="alphabetic" transform="matrix(1, 0, 0, 1, 0.5, 0.5)" fill-opacity="1">0.5</text><text fill="none" stroke="rgb(0,0,0)" font-family="helvetica" font-size="11px" font-style="normal" font-weight="normal" text-decoration="normal" x="288.9967041015625" y="324" text-anchor="start" dominant-baseline="alphabetic" transform="matrix(1, 0, 0, 1, 0.5, 0.5)" stroke-opacity="0" stroke-linejoin="bevel" stroke-miterlimit="10">0.5</text><text fill="rgb(68,68,68)" stroke="none" font-family="helvetica" font-size="13px" font-style="italic" font-weight="normal" text-decoration="normal" x="92.438720703125" y="344" text-anchor="start" dominant-baseline="alphabetic" transform="matrix(1, 0, 0, 1, 0.5, 0.5)" fill-opacity="1">ECH wall plug to injector eff. (%)</text><text fill="none" stroke="rgb(0,0,0)" font-family="helvetica" font-size="13px" font-style="italic" font-weight="normal" text-decoration="normal" x="92.438720703125" y="344" text-anchor="start" dominant-baseline="alphabetic" transform="matrix(1, 0, 0, 1, 0.5, 0.5)" stroke-opacity="0" stroke-linejoin="bevel" stroke-miterlimit="10">ECH wall plug to injector eff. (%)</text><path fill="none" stroke="rgb(0,0,0)" paint-order="fill" d="M 52.5 305.5 L 52.5 27.5" stroke-opacity="1" stroke-linejoin="bevel" stroke-miterlimit="10"/><path fill="none" stroke="rgb(0,0,0)" paint-order="fill" d="M 46.5 292.5 L 54.5 292.5 M 46.5 242.5 L 54.5 242.5 M 46.5 191.5 L 54.5 191.5 M 46.5 140.5 L 54.5 140.5 M 46.5 89.5 L 54.5 89.5 M 46.5 39.5 L 54.5 39.5" stroke-opacity="1" stroke-linejoin="bevel" stroke-miterlimit="10"/><path fill="none" stroke="rgb(0,0,0)" paint-order="fill" d="M 48.5 303.5 L 52.5 303.5 M 48.5 292.5 L 52.5 292.5 M 48.5 282.5 L 52.5 282.5 M 48.5 272.5 L 52.5 272.5 M 48.5 262.5 L 52.5 262.5 M 48.5 252.5 L 52.5 252.5 M 48.5 242.5 L 52.5 242.5 M 48.5 231.5 L 52.5 231.5 M 48.5 221.5 L 52.5 221.5 M 48.5 211.5 L 52.5 211.5 M 48.5 201.5 L 52.5 201.5 M 48.5 191.5 L 52.5 191.5 M 48.5 181.5 L 52.5 181.5 M 48.5 171.5 L 52.5 171.5 M 48.5 160.5 L 52.5 160.5 M 48.5 150.5 L 52.5 150.5 M 48.5 140.5 L 52.5 140.5 M 48.5 130.5 L 52.5 130.5 M 48.5 120.5 L 52.5 120.5 M 48.5 110.5 L 52.5 110.5 M 48.5 100.5 L 52.5 100.5 M 48.5 89.5 L 52.5 89.5 M 48.5 79.5 L 52.5 79.5 M 48.5 69.5 L 52.5 69.5 M 48.5 59.5 L 52.5 59.5 M 48.5 49.5 L 52.5 49.5 M 48.5 39.5 L 52.5 39.5 M 48.5 29.5 L 52.5 29.5" stroke-opacity="1" stroke-linejoin="bevel" stroke-miterlimit="10"/><text fill="rgb(68,68,68)" stroke="none" font-family="helvetica" font-size="11px" font-style="normal" font-weight="normal" text-decoration="normal" x="34.88232421875" y="296.3636474609375" text-anchor="start" dominant-baseline="alphabetic" transform="matrix(1, 0, 0, 1, 0.5, 0.5)" fill-opacity="1">0</text><text fill="none" stroke="rgb(0,0,0)" font-family="helvetica" font-size="11px" font-style="normal" font-weight="normal" text-decoration="normal" x="34.88232421875" y="296.3636474609375" text-anchor="start" dominant-baseline="alphabetic" transform="matrix(1, 0, 0, 1, 0.5, 0.5)" stroke-opacity="0" stroke-linejoin="bevel" stroke-miterlimit="10">0</text><text fill="rgb(68,68,68)" stroke="none" font-family="helvetica" font-size="11px" font-style="normal" font-weight="normal" text-decoration="normal" x="25.70849609375" y="245.626708984375" text-anchor="start" dominant-baseline="alphabetic" transform="matrix(1, 0, 0, 1, 0.5, 0.5)" fill-opacity="1">0.2</text><text fill="none" stroke="rgb(0,0,0)" font-family="helvetica" font-size="11px" font-style="normal" font-weight="normal" text-decoration="normal" x="25.70849609375" y="245.626708984375" text-anchor="start" dominant-baseline="alphabetic" transform="matrix(1, 0, 0, 1, 0.5, 0.5)" stroke-opacity="0" stroke-linejoin="bevel" stroke-miterlimit="10">0.2</text><text fill="rgb(68,68,68)" stroke="none" font-family="helvetica" font-size="11px" font-style="normal" font-weight="normal" text-decoration="normal" x="25.70849609375" y="194.8897705078125" text-anchor="start" dominant-baseline="alphabetic" transform="matrix(1, 0, 0, 1, 0.5, 0.5)" fill-opacity="1">0.4</text><text fill="none" stroke="rgb(0,0,0)" font-family="helvetica" font-size="11px" font-style="normal" font-weight="normal" text-decoration="normal" x="25.70849609375" y="194.8897705078125" text-anchor="start" dominant-baseline="alphabetic" transform="matrix(1, 0, 0, 1, 0.5, 0.5)" stroke-opacity="0" stroke-linejoin="bevel" stroke-miterlimit="10">0.4</text><text fill="rgb(68,68,68)" stroke="none" font-family="helvetica" font-size="11px" font-style="normal" font-weight="normal" text-decoration="normal" x="25.70849609375" y="144.15283203125" text-anchor="start" dominant-baseline="alphabetic" transform="matrix(1, 0, 0, 1, 0.5, 0.5)" fill-opacity="1">0.6</text><text fill="none" stroke="rgb(0,0,0)" font-family="helvetica" font-size="11px" font-style="normal" font-weight="normal" text-decoration="normal" x="25.70849609375" y="144.15283203125" text-anchor="start" dominant-baseline="alphabetic" transform="matrix(1, 0, 0, 1, 0.5, 0.5)" stroke-opacity="0" stroke-linejoin="bevel" stroke-miterlimit="10">0.6</text><text fill="rgb(68,68,68)" stroke="none" font-family="helvetica" font-size="11px" font-style="normal" font-weight="normal" text-decoration="normal" x="25.70849609375" y="93.41590118408203" text-anchor="start" dominant-baseline="alphabetic" transform="matrix(1, 0, 0, 1, 0.5, 0.5)" fill-opacity="1">0.8</text><text fill="none" stroke="rgb(0,0,0)" font-family="helvetica" font-size="11px" font-style="normal" font-weight="normal" text-decoration="normal" x="25.70849609375" y="93.41590118408203" text-anchor="start" dominant-baseline="alphabetic" transform="matrix(1, 0, 0, 1, 0.5, 0.5)" stroke-opacity="0" stroke-linejoin="bevel" stroke-miterlimit="10">0.8</text><text fill="rgb(68,68,68)" stroke="none" font-family="helvetica" font-size="11px" font-style="normal" font-weight="normal" text-decoration="normal" x="34.88232421875" y="42.67897033691406" text-anchor="start" dominant-baseline="alphabetic" transform="matrix(1, 0, 0, 1, 0.5, 0.5)" fill-opacity="1">1</text><text fill="none" stroke="rgb(0,0,0)" font-family="helvetica" font-size="11px" font-style="normal" font-weight="normal" text-decoration="normal" x="34.88232421875" y="42.67897033691406" text-anchor="start" dominant-baseline="alphabetic" transform="matrix(1, 0, 0, 1, 0.5, 0.5)" stroke-opacity="0" stroke-linejoin="bevel" stroke-miterlimit="10">1</text><text fill="rgb(68,68,68)" stroke="none" font-family="helvetica" font-size="13px" font-style="italic" font-weight="normal" text-decoration="normal" x="-47.31689453125" y="163" text-anchor="start" dominant-baseline="alphabetic" transform="matrix(6.123233995736766e-17, -1, 1, 6.123233995736766e-17, -147.79150390625, 184.20849609375)" fill-opacity="1">Normalised Probability</text><text fill="none" stroke="rgb(0,0,0)" font-family="helvetica" font-size="13px" font-style="italic" font-weight="normal" text-decoration="normal" x="-47.31689453125" y="163" text-anchor="start" dominant-baseline="alphabetic" transform="matrix(6.123233995736766e-17, -1, 1, 6.123233995736766e-17, -147.79150390625, 184.20849609375)" stroke-opacity="0" stroke-linejoin="bevel" stroke-miterlimit="10">Normalised Probability</text><path fill="rgb(255,249,186)" stroke="rgb(255,0,0)" paint-order="fill" d="M 190.2522901154794 40.136363636363654 L 190.2522901154794 40.136363636363654 L 190.2522901154794 292.8636363636364 L 190.2522901154794 292.8636363636364 L 190.2522901154794 40.136363636363654 Z" fill-opacity="0.4" clip-path="url(#UFzWcvHnMTTI)" stroke-opacity="1" stroke-linejoin="bevel" stroke-miterlimit="10" stroke-width="2" stroke-dasharray="6"/><path fill="rgb(255,249,186)" stroke="rgb(50,205,50)" paint-order="fill" d="M 265.091858964988 40.136363636363654 L 265.091858964988 40.136363636363654 L 265.091858964988 292.8636363636364 L 265.091858964988 292.8636363636364 L 265.091858964988 40.136363636363654 Z" fill-opacity="0.4" clip-path="url(#MITWDQtiKlbp)" stroke-opacity="1" stroke-linejoin="bevel" stroke-miterlimit="10" stroke-width="2" stroke-dasharray="6"/><text fill="rgb(68,68,68)" stroke="none" font-family="helvetica" font-size="13px" font-style="normal" font-weight="bold" text-decoration="normal" x="52" y="19" text-anchor="start" dominant-baseline="alphabetic" transform="matrix(1, 0, 0, 1, 0.5, 0.5)" fill-opacity="1">Convergance Probability</text><text fill="none" stroke="rgb(0,0,0)" font-family="helvetica" font-size="13px" font-style="normal" font-weight="bold" text-decoration="normal" x="52" y="19" text-anchor="start" dominant-baseline="alphabetic" transform="matrix(1, 0, 0, 1, 0.5, 0.5)" stroke-opacity="0" stroke-miterlimit="10" stroke-dasharray="">Convergance Probability</text></svg>