<svg version="1.1" xmlns="http://www.w3.org/2000/svg" width="275" height="275"><defs><clipPath id="wskIpbXcCKJt"><path fill="none" stroke="none" d="M 52.5 27.5 L 245.5 27.5 L 245.5 230.5 L 52.5 230.5 L 52.5 27.5 Z"/></clipPath><clipPath id="yfnCDNdLlKiU"><path fill="none" stroke="none" d="M 52.5 27.5 L 245.5 27.5 L 245.5 230.5 L 52.5 230.5 L 52.5 27.5 Z"/></clipPath><clipPath id="dFXSqJUcKGCv"><path fill="none" stroke="none" d="M 52.5 27.5 L 245.5 27.5 L 245.5 230.5 L 52.5 230.5 L 52.5 27.5 Z"/></clipPath><clipPath id="AusqBGAtmGTI"><path fill="none" stroke="none" d="M 52.5 27.5 L 245.5 27.5 L 245.5 230.5 L 52.5 230.5 L 52.5 27.5 Z"/></clipPath><pattern id="pIuHTAuvUJik" width="3" height="3" patternUnits="userSpaceOnUse"><path fill="rgb(0,0,0)" stroke="none" paint-order="stroke" d="M 2.75 2 A 0.75 0.75 0 0 0 1.25 2 A 0.75 0.75 0 0 0 2.75 2" fill-opacity="0.14901960784313725"/></pattern><clipPath id="dESrILGgpggC"><path fill="none" stroke="none" d="M 52.5 27.5 L 245.5 27.5 L 245.5 230.5 L 52.5 230.5 L 52.5 27.5 Z"/></clipPath><clipPath id="MkGsaUUJpppe"><path fill="none" stroke="none" d="M 52.5 27.5 L 245.5 27.5 L 245.5 230.5 L 52.5 230.5 L 52.5 27.5 Z"/></clipPath><clipPath id="NVavQANumiOp"><path fill="none" stroke="none" d="M 52.5 27.5 L 245.5 27.5 L 245.5 230.5 L 52.5 230.5 L 52.5 27.5 Z"/></clipPath><clipPath id="swTffPwGETdJ"><path fill="none" stroke="none" d="M 52.5 27.5 L 245.5 27.5 L 245.5 230.5 L 52.5 230.5 L 52.5 27.5 Z"/></clipPath></defs><path fill="rgb(255,255,255)" stroke="none" paint-order="stroke" d="M 0.5 0.5 L 275.5 0.5 L 275.5 275.5 L 0.5 275.5 L 0.5 0.5 Z" fill-opacity="1"/><rect fill="#FFFFFF" stroke="none" x="52" y="27" width="193" height="203" transform="matrix(1, 0, 0, 1, 0.5, 0.5)"/><path fill="rgb(255,255,255)" stroke="none" paint-order="stroke" d="M 52.5 27.5 L 245.5 27.5 L 245.5 230.5 L 52.5 230.5 L 52.5 27.5 Z" fill-opacity="1"/><path fill="none" stroke="rgb(229,229,229)" paint-order="fill" d="M 52.5 27.5 L 245.5 27.5 L 245.5 230.5 L 52.5 230.5 L 52.5 27.5 Z" stroke-opacity="1" stroke-linejoin="bevel" stroke-miterlimit="10"/><path fill="none" stroke="rgb(229,229,229)" paint-order="fill" d="M 85.5 230.5 L 85.5 27.5 M 120.5 230.5 L 120.5 27.5 M 154.5 230.5 L 154.5 27.5 M 188.5 230.5 L 188.5 27.5 M 223.5 230.5 L 223.5 27.5" stroke-opacity="1" stroke-linejoin="bevel" stroke-miterlimit="10" clip-path="url(#wskIpbXcCKJt)"/><path fill="none" stroke="rgb(229,229,229)" paint-order="fill" d="M 52.5 221.5 L 245.5 221.5 M 52.5 191.5 L 245.5 191.5 M 52.5 161.5 L 245.5 161.5 M 52.5 130.5 L 245.5 130.5 M 52.5 100.5 L 245.5 100.5 M 52.5 70.5 L 245.5 70.5 M 52.5 40.5 L 245.5 40.5" stroke-opacity="1" stroke-linejoin="bevel" stroke-miterlimit="10" clip-path="url(#yfnCDNdLlKiU)"/><path fill="none" stroke="rgb(0,0,0)" paint-order="fill" d="M 97.53813934326172 190.8570098876953 L 97.53813934326172 195.08590698242188" stroke-opacity="1" stroke-linejoin="bevel" stroke-miterlimit="10" clip-path="url(#dFXSqJUcKGCv)"/><path fill="none" stroke="rgb(0,0,0)" paint-order="fill" d="M 129.70179748535156 180.51812744140625 L 129.70179748535156 185.59906005859375" stroke-opacity="1" stroke-linejoin="bevel" stroke-miterlimit="10" clip-path="url(#dFXSqJUcKGCv)"/><path fill="none" stroke="rgb(0,0,0)" paint-order="fill" d="M 161.86546325683594 157.3663787841797 L 161.86546325683594 164.070556640625" stroke-opacity="1" stroke-linejoin="bevel" stroke-miterlimit="10" clip-path="url(#dFXSqJUcKGCv)"/><path fill="none" stroke="rgb(0,0,0)" paint-order="fill" d="M 194.0291290283203 33.72780990600586 L 194.0291290283203 39.72673797607422" stroke-opacity="1" stroke-linejoin="bevel" stroke-miterlimit="10" clip-path="url(#dFXSqJUcKGCv)"/><path fill="none" stroke="rgb(0,0,0)" paint-order="fill" d="M 92.53813934326172 190.8570098876953 L 102.53813934326172 190.8570098876953" stroke-opacity="1" stroke-linejoin="bevel" stroke-miterlimit="10" clip-path="url(#dFXSqJUcKGCv)"/><path fill="none" stroke="rgb(0,0,0)" paint-order="fill" d="M 124.70179748535156 180.51812744140625 L 134.70179748535156 180.51812744140625" stroke-opacity="1" stroke-linejoin="bevel" stroke-miterlimit="10" clip-path="url(#dFXSqJUcKGCv)"/><path fill="none" stroke="rgb(0,0,0)" paint-order="fill" d="M 156.86546325683594 157.3663787841797 L 166.86546325683594 157.3663787841797" stroke-opacity="1" stroke-linejoin="bevel" stroke-miterlimit="10" clip-path="url(#dFXSqJUcKGCv)"/><path fill="none" stroke="rgb(0,0,0)" paint-order="fill" d="M 189.0291290283203 33.72780990600586 L 199.0291290283203 33.72780990600586" stroke-opacity="1" stroke-linejoin="bevel" stroke-miterlimit="10" clip-path="url(#dFXSqJUcKGCv)"/><path fill="none" stroke="rgb(0,0,0)" paint-order="fill" d="M 102.53813934326172 195.08590698242188 L 92.53813934326172 195.08590698242188" stroke-opacity="1" stroke-linejoin="bevel" stroke-miterlimit="10" clip-path="url(#dFXSqJUcKGCv)"/><path fill="none" stroke="rgb(0,0,0)" paint-order="fill" d="M 134.70179748535156 185.59906005859375 L 124.70179748535156 185.59906005859375" stroke-opacity="1" stroke-linejoin="bevel" stroke-miterlimit="10" clip-path="url(#dFXSqJUcKGCv)"/><path fill="none" stroke="rgb(0,0,0)" paint-order="fill" d="M 166.86546325683594 164.070556640625 L 156.86546325683594 164.070556640625" stroke-opacity="1" stroke-linejoin="bevel" stroke-miterlimit="10" clip-path="url(#dFXSqJUcKGCv)"/><path fill="none" stroke="rgb(0,0,0)" paint-order="fill" d="M 199.0291290283203 39.72673797607422 L 189.0291290283203 39.72673797607422" stroke-opacity="1" stroke-linejoin="bevel" stroke-miterlimit="10" clip-path="url(#dFXSqJUcKGCv)"/><path fill="rgb(128,128,128)" stroke="none" paint-order="stroke" d="M 81.45630645751953 36.727272033691406 L 210.1109619140625 36.727272033691406 L 210.1109619140625 221.27273559570312 L 81.45630645751953 221.27273559570312 L 81.45630645751953 36.727272033691406 Z" fill-opacity="0.10196078431372549" clip-path="url(#AusqBGAtmGTI)"/><path fill="url(#pIuHTAuvUJik)" stroke="rgb(0,0,0)" paint-order="fill" d="M 81.45630645751953 36.727272033691406 L 210.1109619140625 36.727272033691406 L 210.1109619140625 221.27273559570312 L 81.45630645751953 221.27273559570312 L 81.45630645751953 36.727272033691406 Z" clip-path="url(#AusqBGAtmGTI)" stroke-opacity="0.2" stroke-linejoin="bevel" stroke-miterlimit="10"/><path fill="rgb(100,149,237)" stroke="rgb(31,119,180)" paint-order="fill" d="M 81.45630645751953 192.97145080566406 L 113.6199722290039 192.97145080566406 L 113.6199722290039 221.27272033691406 L 81.45630645751953 221.27272033691406 L 81.45630645751953 192.97145080566406 Z" fill-opacity="0.5019607843137255" clip-path="url(#dESrILGgpggC)" stroke-opacity="0.5019607843137255" stroke-linejoin="bevel" stroke-miterlimit="10"/><path fill="rgb(100,149,237)" stroke="rgb(31,119,180)" paint-order="fill" d="M 113.61996459960938 183.05859375 L 145.78363037109375 183.05859375 L 145.78363037109375 221.27272033691406 L 113.61996459960938 221.27272033691406 L 113.61996459960938 183.05859375 Z" fill-opacity="0.5019607843137255" clip-path="url(#dESrILGgpggC)" stroke-opacity="0.5019607843137255" stroke-linejoin="bevel" stroke-miterlimit="10"/><path fill="rgb(100,149,237)" stroke="rgb(31,119,180)" paint-order="fill" d="M 145.78363037109375 160.71847534179688 L 177.94729614257812 160.71847534179688 L 177.94729614257812 221.27272033691406 L 145.78363037109375 221.27272033691406 L 145.78363037109375 160.71847534179688 Z" fill-opacity="0.5019607843137255" clip-path="url(#dESrILGgpggC)" stroke-opacity="0.5019607843137255" stroke-linejoin="bevel" stroke-miterlimit="10"/><path fill="rgb(100,149,237)" stroke="rgb(31,119,180)" paint-order="fill" d="M 177.94729614257812 36.727272033691406 L 210.1109619140625 36.727272033691406 L 210.1109619140625 221.27272033691406 L 177.94729614257812 221.27272033691406 L 177.94729614257812 36.727272033691406 Z" fill-opacity="0.5019607843137255" clip-path="url(#dESrILGgpggC)" stroke-opacity="0.5019607843137255" stroke-linejoin="bevel" stroke-miterlimit="10"/><path fill="none" stroke="rgb(0,0,0)" paint-order="fill" d="M 52.5 230.5 L 245.5 230.5" stroke-opacity="1" stroke-linejoin="bevel" stroke-miterlimit="10"/><path fill="none" stroke="rgb(0,0,0)" paint-order="fill" d="M 85.5 236.5 L 85.5 228.5 M 120.5 236.5 L 120.5 228.5 M 154.5 236.5 L 154.5 228.5 M 188.5 236.5 L 188.5 228.5 M 223.5 236.5 L 223.5 228.5" stroke-opacity="1" stroke-linejoin="bevel" stroke-miterlimit="10"/><path fill="none" stroke="rgb(0,0,0)" paint-order="fill" d="M 78.5 234.5 L 78.5 230.5 M 72.5 234.5 L 72.5 230.5 M 65.5 234.5 L 65.5 230.5 M 58.5 234.5 L 58.5 230.5 M 85.5 234.5 L 85.5 230.5 M 92.5 234.5 L 92.5 230.5 M 99.5 234.5 L 99.5 230.5 M 106.5 234.5 L 106.5 230.5 M 113.5 234.5 L 113.5 230.5 M 120.5 234.5 L 120.5 230.5 M 126.5 234.5 L 126.5 230.5 M 133.5 234.5 L 133.5 230.5 M 140.5 234.5 L 140.5 230.5 M 147.5 234.5 L 147.5 230.5 M 154.5 234.5 L 154.5 230.5 M 161.5 234.5 L 161.5 230.5 M 168.5 234.5 L 168.5 230.5 M 174.5 234.5 L 174.5 230.5 M 181.5 234.5 L 181.5 230.5 M 188.5 234.5 L 188.5 230.5 M 195.5 234.5 L 195.5 230.5 M 202.5 234.5 L 202.5 230.5 M 209.5 234.5 L 209.5 230.5 M 216.5 234.5 L 216.5 230.5 M 223.5 234.5 L 223.5 230.5 M 229.5 234.5 L 229.5 230.5 M 236.5 234.5 L 236.5 230.5 M 243.5 234.5 L 243.5 230.5" stroke-opacity="1" stroke-linejoin="bevel" stroke-miterlimit="10"/><text fill="rgb(68,68,68)" stroke="none" font-family="helvetica" font-size="11px" font-style="normal" font-weight="normal" text-decoration="normal" x="74.52639770507812" y="249" text-anchor="start" dominant-baseline="alphabetic" transform="matrix(1, 0, 0, 1, 0.5, 0.5)" fill-opacity="1">0.34</text><text fill="none" stroke="rgb(0,0,0)" font-family="helvetica" font-size="11px" font-style="normal" font-weight="normal" text-decoration="normal" x="74.52639770507812" y="249" text-anchor="start" dominant-baseline="alphabetic" transform="matrix(1, 0, 0, 1, 0.5, 0.5)" stroke-opacity="0" stroke-linejoin="bevel" stroke-miterlimit="10">0.34</text><text fill="rgb(68,68,68)" stroke="none" font-family="helvetica" font-size="11px" font-style="normal" font-weight="normal" text-decoration="normal" x="108.84410095214844" y="249" text-anchor="start" dominant-baseline="alphabetic" transform="matrix(1, 0, 0, 1, 0.5, 0.5)" fill-opacity="1">0.36</text><text fill="none" stroke="rgb(0,0,0)" font-family="helvetica" font-size="11px" font-style="normal" font-weight="normal" text-decoration="normal" x="108.84410095214844" y="249" text-anchor="start" dominant-baseline="alphabetic" transform="matrix(1, 0, 0, 1, 0.5, 0.5)" stroke-opacity="0" stroke-linejoin="bevel" stroke-miterlimit="10">0.36</text><text fill="rgb(68,68,68)" stroke="none" font-family="helvetica" font-size="11px" font-style="normal" font-weight="normal" text-decoration="normal" x="143.1617889404297" y="249" text-anchor="start" dominant-baseline="alphabetic" transform="matrix(1, 0, 0, 1, 0.5, 0.5)" fill-opacity="1">0.38</text><text fill="none" stroke="rgb(0,0,0)" font-family="helvetica" font-size="11px" font-style="normal" font-weight="normal" text-decoration="normal" x="143.1617889404297" y="249" text-anchor="start" dominant-baseline="alphabetic" transform="matrix(1, 0, 0, 1, 0.5, 0.5)" stroke-opacity="0" stroke-linejoin="bevel" stroke-miterlimit="10">0.38</text><text fill="rgb(68,68,68)" stroke="none" font-family="helvetica" font-size="11px" font-style="normal" font-weight="normal" text-decoration="normal" x="180.538330078125" y="249" text-anchor="start" dominant-baseline="alphabetic" transform="matrix(1, 0, 0, 1, 0.5, 0.5)" fill-opacity="1">0.4</text><text fill="none" stroke="rgb(0,0,0)" font-family="helvetica" font-size="11px" font-style="normal" font-weight="normal" text-decoration="normal" x="180.538330078125" y="249" text-anchor="start" dominant-baseline="alphabetic" transform="matrix(1, 0, 0, 1, 0.5, 0.5)" stroke-opacity="0" stroke-linejoin="bevel" stroke-miterlimit="10">0.4</text><text fill="rgb(68,68,68)" stroke="none" font-family="helvetica" font-size="11px" font-style="normal" font-weight="normal" text-decoration="normal" x="211.79718017578125" y="249" text-anchor="start" dominant-baseline="alphabetic" transform="matrix(1, 0, 0, 1, 0.5, 0.5)" fill-opacity="1">0.42</text><text fill="none" stroke="rgb(0,0,0)" font-family="helvetica" font-size="11px" font-style="normal" font-weight="normal" text-decoration="normal" x="211.79718017578125" y="249" text-anchor="start" dominant-baseline="alphabetic" transform="matrix(1, 0, 0, 1, 0.5, 0.5)" stroke-opacity="0" stroke-linejoin="bevel" stroke-miterlimit="10">0.42</text><text fill="rgb(68,68,68)" stroke="none" font-family="helvetica" font-size="13px" font-style="italic" font-weight="normal" text-decoration="normal" x="72.286865234375" y="269" text-anchor="start" dominant-baseline="alphabetic" transform="matrix(1, 0, 0, 1, 0.5, 0.5)" fill-opacity="1">Thermal to electric eff. (%)</text><text fill="none" stroke="rgb(0,0,0)" font-family="helvetica" font-size="13px" font-style="italic" font-weight="normal" text-decoration="normal" x="72.286865234375" y="269" text-anchor="start" dominant-baseline="alphabetic" transform="matrix(1, 0, 0, 1, 0.5, 0.5)" stroke-opacity="0" stroke-linejoin="bevel" stroke-miterlimit="10">Thermal to electric eff. (%)</text><path fill="none" stroke="rgb(0,0,0)" paint-order="fill" d="M 52.5 230.5 L 52.5 27.5" stroke-opacity="1" stroke-linejoin="bevel" stroke-miterlimit="10"/><path fill="none" stroke="rgb(0,0,0)" paint-order="fill" d="M 46.5 221.5 L 54.5 221.5 M 46.5 191.5 L 54.5 191.5 M 46.5 161.5 L 54.5 161.5 M 46.5 130.5 L 54.5 130.5 M 46.5 100.5 L 54.5 100.5 M 46.5 70.5 L 54.5 70.5 M 46.5 40.5 L 54.5 40.5" stroke-opacity="1" stroke-linejoin="bevel" stroke-miterlimit="10"/><path fill="none" stroke="rgb(0,0,0)" paint-order="fill" d="M 48.5 227.5 L 52.5 227.5 M 48.5 221.5 L 52.5 221.5 M 48.5 215.5 L 52.5 215.5 M 48.5 209.5 L 52.5 209.5 M 48.5 203.5 L 52.5 203.5 M 48.5 197.5 L 52.5 197.5 M 48.5 191.5 L 52.5 191.5 M 48.5 185.5 L 52.5 185.5 M 48.5 179.5 L 52.5 179.5 M 48.5 173.5 L 52.5 173.5 M 48.5 167.5 L 52.5 167.5 M 48.5 161.5 L 52.5 161.5 M 48.5 155.5 L 52.5 155.5 M 48.5 149.5 L 52.5 149.5 M 48.5 143.5 L 52.5 143.5 M 48.5 137.5 L 52.5 137.5 M 48.5 130.5 L 52.5 130.5 M 48.5 124.5 L 52.5 124.5 M 48.5 118.5 L 52.5 118.5 M 48.5 112.5 L 52.5 112.5 M 48.5 106.5 L 52.5 106.5 M 48.5 100.5 L 52.5 100.5 M 48.5 94.5 L 52.5 94.5 M 48.5 88.5 L 52.5 88.5 M 48.5 82.5 L 52.5 82.5 M 48.5 76.5 L 52.5 76.5 M 48.5 70.5 L 52.5 70.5 M 48.5 64.5 L 52.5 64.5 M 48.5 58.5 L 52.5 58.5 M 48.5 52.5 L 52.5 52.5 M 48.5 46.5 L 52.5 46.5 M 48.5 40.5 L 52.5 40.5 M 48.5 34.5 L 52.5 34.5 M 48.5 28.5 L 52.5 28.5" stroke-opacity="1" stroke-linejoin="bevel" stroke-miterlimit="10"/><text fill="rgb(68,68,68)" stroke="none" font-family="helvetica" font-size="11px" font-style="normal" font-weight="normal" text-decoration="normal" x="34.88232421875" y="224.77272033691406" text-anchor="start" dominant-baseline="alphabetic" transform="matrix(1, 0, 0, 1, 0.5, 0.5)" fill-opacity="1">0</text><text fill="none" stroke="rgb(0,0,0)" font-family="helvetica" font-size="11px" font-style="normal" font-weight="normal" text-decoration="normal" x="34.88232421875" y="224.77272033691406" text-anchor="start" dominant-baseline="alphabetic" transform="matrix(1, 0, 0, 1, 0.5, 0.5)" stroke-opacity="0" stroke-linejoin="bevel" stroke-miterlimit="10">0</text><text fill="rgb(68,68,68)" stroke="none" font-family="helvetica" font-size="11px" font-style="normal" font-weight="normal" text-decoration="normal" x="25.70849609375" y="194.68096923828125" text-anchor="start" dominant-baseline="alphabetic" transform="matrix(1, 0, 0, 1, 0.5, 0.5)" fill-opacity="1">0.1</text><text fill="none" stroke="rgb(0,0,0)" font-family="helvetica" font-size="11px" font-style="normal" font-weight="normal" text-decoration="normal" x="25.70849609375" y="194.68096923828125" text-anchor="start" dominant-baseline="alphabetic" transform="matrix(1, 0, 0, 1, 0.5, 0.5)" stroke-opacity="0" stroke-linejoin="bevel" stroke-miterlimit="10">0.1</text><text fill="rgb(68,68,68)" stroke="none" font-family="helvetica" font-size="11px" font-style="normal" font-weight="normal" text-decoration="normal" x="25.70849609375" y="164.58921813964844" text-anchor="start" dominant-baseline="alphabetic" transform="matrix(1, 0, 0, 1, 0.5, 0.5)" fill-opacity="1">0.2</text><text fill="none" stroke="rgb(0,0,0)" font-family="helvetica" font-size="11px" font-style="normal" font-weight="normal" text-decoration="normal" x="25.70849609375" y="164.58921813964844" text-anchor="start" dominant-baseline="alphabetic" transform="matrix(1, 0, 0, 1, 0.5, 0.5)" stroke-opacity="0" stroke-linejoin="bevel" stroke-miterlimit="10">0.2</text><text fill="rgb(68,68,68)" stroke="none" font-family="helvetica" font-size="11px" font-style="normal" font-weight="normal" text-decoration="normal" x="25.70849609375" y="134.49745178222656" text-anchor="start" dominant-baseline="alphabetic" transform="matrix(1, 0, 0, 1, 0.5, 0.5)" fill-opacity="1">0.3</text><text fill="none" stroke="rgb(0,0,0)" font-family="helvetica" font-size="11px" font-style="normal" font-weight="normal" text-decoration="normal" x="25.70849609375" y="134.49745178222656" text-anchor="start" dominant-baseline="alphabetic" transform="matrix(1, 0, 0, 1, 0.5, 0.5)" stroke-opacity="0" stroke-linejoin="bevel" stroke-miterlimit="10">0.3</text><text fill="rgb(68,68,68)" stroke="none" font-family="helvetica" font-size="11px" font-style="normal" font-weight="normal" text-decoration="normal" x="25.70849609375" y="104.40570068359375" text-anchor="start" dominant-baseline="alphabetic" transform="matrix(1, 0, 0, 1, 0.5, 0.5)" fill-opacity="1">0.4</text><text fill="none" stroke="rgb(0,0,0)" font-family="helvetica" font-size="11px" font-style="normal" font-weight="normal" text-decoration="normal" x="25.70849609375" y="104.40570068359375" text-anchor="start" dominant-baseline="alphabetic" transform="matrix(1, 0, 0, 1, 0.5, 0.5)" stroke-opacity="0" stroke-linejoin="bevel" stroke-miterlimit="10">0.4</text><text fill="rgb(68,68,68)" stroke="none" font-family="helvetica" font-size="11px" font-style="normal" font-weight="normal" text-decoration="normal" x="25.70849609375" y="74.3139419555664" text-anchor="start" dominant-baseline="alphabetic" transform="matrix(1, 0, 0, 1, 0.5, 0.5)" fill-opacity="1">0.5</text><text fill="none" stroke="rgb(0,0,0)" font-family="helvetica" font-size="11px" font-style="normal" font-weight="normal" text-decoration="normal" x="25.70849609375" y="74.3139419555664" text-anchor="start" dominant-baseline="alphabetic" transform="matrix(1, 0, 0, 1, 0.5, 0.5)" stroke-opacity="0" stroke-linejoin="bevel" stroke-miterlimit="10">0.5</text><text fill="rgb(68,68,68)" stroke="none" font-family="helvetica" font-size="11px" font-style="normal" font-weight="normal" text-decoration="normal" x="25.70849609375" y="44.22218322753906" text-anchor="start" dominant-baseline="alphabetic" transform="matrix(1, 0, 0, 1, 0.5, 0.5)" fill-opacity="1">0.6</text><text fill="none" stroke="rgb(0,0,0)" font-family="helvetica" font-size="11px" font-style="normal" font-weight="normal" text-decoration="normal" x="25.70849609375" y="44.22218322753906" text-anchor="start" dominant-baseline="alphabetic" transform="matrix(1, 0, 0, 1, 0.5, 0.5)" stroke-opacity="0" stroke-linejoin="bevel" stroke-miterlimit="10">0.6</text><text fill="rgb(68,68,68)" stroke="none" font-family="helvetica" font-size="13px" font-style="italic" font-weight="normal" text-decoration="normal" x="-47.31689453125" y="125.5" text-anchor="start" dominant-baseline="alphabetic" transform="matrix(6.123233995736766e-17, -1, 1, 6.123233995736766e-17, -110.29150390625, 146.70849609375)" fill-opacity="1">Normalised Probability</text><text fill="none" stroke="rgb(0,0,0)" font-family="helvetica" font-size="13px" font-style="italic" font-weight="normal" text-decoration="normal" x="-47.31689453125" y="125.5" text-anchor="start" dominant-baseline="alphabetic" transform="matrix(6.123233995736766e-17, -1, 1, 6.123233995736766e-17, -110.29150390625, 146.70849609375)" stroke-opacity="0" stroke-linejoin="bevel" stroke-miterlimit="10">Normalised Probability</text><path fill="rgb(255,249,186)" stroke="rgb(255,0,0)" paint-order="fill" d="M 172.03006036569934 36.72727272727272 L 172.03006036569934 36.72727272727272 L 172.03006036569934 221.27272727272725 L 172.03006036569934 221.27272727272725 L 172.03006036569934 36.72727272727272 Z" fill-opacity="0.4" clip-path="url(#MkGsaUUJpppe)" stroke-opacity="1" stroke-linejoin="bevel" stroke-miterlimit="10" stroke-width="2" stroke-dasharray="6"/><path fill="rgb(255,249,186)" stroke="rgb(50,205,50)" paint-order="fill" d="M 194.02912790416997 36.72727272727272 L 194.02912790416997 36.72727272727272 L 194.02912790416997 221.27272727272725 L 194.02912790416997 221.27272727272725 L 194.02912790416997 36.72727272727272 Z" fill-opacity="0.4" clip-path="url(#NVavQANumiOp)" stroke-opacity="1" stroke-linejoin="bevel" stroke-miterlimit="10" stroke-width="2" stroke-dasharray="6"/><text fill="rgb(68,68,68)" stroke="none" font-family="helvetica" font-size="13px" font-style="normal" font-weight="bold" text-decoration="normal" x="52" y="19" text-anchor="start" dominant-baseline="alphabetic" transform="matrix(1, 0, 0, 1, 0.5, 0.5)" fill-opacity="1">Convergance Probability</text><text fill="none" stroke="rgb(0,0,0)" font-family="helvetica" font-size="13px" font-style="normal" font-weight="bold" text-decoration="normal" x="52" y="19" text-anchor="start" dominant-baseline="alphabetic" transform="matrix(1, 0, 0, 1, 0.5, 0.5)" stroke-opacity="0" stroke-miterlimit="10" stroke-dasharray="">Convergance Probability</text></svg>