<svg version="1.1" xmlns="http://www.w3.org/2000/svg" width="275" height="275"><defs><clipPath id="VEtUXiAkBvqJ"><path fill="none" stroke="none" d="M 52.5 27.5 L 245.5 27.5 L 245.5 230.5 L 52.5 230.5 L 52.5 27.5 Z"/></clipPath><clipPath id="xwRntiPseLxb"><path fill="none" stroke="none" d="M 52.5 27.5 L 245.5 27.5 L 245.5 230.5 L 52.5 230.5 L 52.5 27.5 Z"/></clipPath><clipPath id="eVExZNrTwSNl"><path fill="none" stroke="none" d="M 52.5 27.5 L 245.5 27.5 L 245.5 230.5 L 52.5 230.5 L 52.5 27.5 Z"/></clipPath><clipPath id="NMpMsHlhcWoy"><path fill="none" stroke="none" d="M 52.5 27.5 L 245.5 27.5 L 245.5 230.5 L 52.5 230.5 L 52.5 27.5 Z"/></clipPath><pattern id="aFdBihdpTDAk" width="3" height="3" patternUnits="userSpaceOnUse"><path fill="rgb(0,0,0)" stroke="none" paint-order="stroke" d="M 2.75 2 A 0.75 0.75 0 0 0 1.25 2 A 0.75 0.75 0 0 0 2.75 2" fill-opacity="0.14901960784313725"/></pattern><clipPath id="QlXwGfaPPvoo"><path fill="none" stroke="none" d="M 52.5 27.5 L 245.5 27.5 L 245.5 230.5 L 52.5 230.5 L 52.5 27.5 Z"/></clipPath><clipPath id="xPmApDgbKxUM"><path fill="none" stroke="none" d="M 52.5 27.5 L 245.5 27.5 L 245.5 230.5 L 52.5 230.5 L 52.5 27.5 Z"/></clipPath><clipPath id="FeJOrqJAheMy"><path fill="none" stroke="none" d="M 52.5 27.5 L 245.5 27.5 L 245.5 230.5 L 52.5 230.5 L 52.5 27.5 Z"/></clipPath><clipPath id="XuGRbxENGssP"><path fill="none" stroke="none" d="M 52.5 27.5 L 245.5 27.5 L 245.5 230.5 L 52.5 230.5 L 52.5 27.5 Z"/></clipPath></defs><path fill="rgb(255,255,255)" stroke="none" paint-order="stroke" d="M 0.5 0.5 L 275.5 0.5 L 275.5 275.5 L 0.5 275.5 L 0.5 0.5 Z" fill-opacity="1"/><rect fill="#FFFFFF" stroke="none" x="52" y="27" width="193" height="203" transform="matrix(1, 0, 0, 1, 0.5, 0.5)"/><path fill="rgb(255,255,255)" stroke="none" paint-order="stroke" d="M 52.5 27.5 L 245.5 27.5 L 245.5 230.5 L 52.5 230.5 L 52.5 27.5 Z" fill-opacity="1"/><path fill="none" stroke="rgb(229,229,229)" paint-order="fill" d="M 52.5 27.5 L 245.5 27.5 L 245.5 230.5 L 52.5 230.5 L 52.5 27.5 Z" stroke-opacity="1" stroke-linejoin="bevel" stroke-miterlimit="10"/><path fill="none" stroke="rgb(229,229,229)" paint-order="fill" d="M 88.5 230.5 L 88.5 27.5 M 125.5 230.5 L 125.5 27.5 M 161.5 230.5 L 161.5 27.5 M 197.5 230.5 L 197.5 27.5 M 234.5 230.5 L 234.5 27.5" stroke-opacity="1" stroke-linejoin="bevel" stroke-miterlimit="10" clip-path="url(#VEtUXiAkBvqJ)"/><path fill="none" stroke="rgb(229,229,229)" paint-order="fill" d="M 52.5 221.5 L 245.5 221.5 M 52.5 183.5 L 245.5 183.5 M 52.5 144.5 L 245.5 144.5 M 52.5 106.5 L 245.5 106.5 M 52.5 68.5 L 245.5 68.5 M 52.5 30.5 L 245.5 30.5" stroke-opacity="1" stroke-linejoin="bevel" stroke-miterlimit="10" clip-path="url(#xwRntiPseLxb)"/><path fill="none" stroke="rgb(0,0,0)" paint-order="fill" d="M 132.7470245361328 34.13328170776367 L 132.7470245361328 44.20528793334961" stroke-opacity="1" stroke-linejoin="bevel" stroke-miterlimit="10" clip-path="url(#eVExZNrTwSNl)"/><path fill="none" stroke="rgb(0,0,0)" paint-order="fill" d="M 147.86607360839844 33.34834289550781 L 147.86607360839844 43.407955169677734" stroke-opacity="1" stroke-linejoin="bevel" stroke-miterlimit="10" clip-path="url(#eVExZNrTwSNl)"/><path fill="none" stroke="rgb(0,0,0)" paint-order="fill" d="M 162.98512268066406 31.565385818481445 L 162.98512268066406 41.88916015625" stroke-opacity="1" stroke-linejoin="bevel" stroke-miterlimit="10" clip-path="url(#eVExZNrTwSNl)"/><path fill="none" stroke="rgb(0,0,0)" paint-order="fill" d="M 127.74702453613281 34.13328170776367 L 137.7470245361328 34.13328170776367" stroke-opacity="1" stroke-linejoin="bevel" stroke-miterlimit="10" clip-path="url(#eVExZNrTwSNl)"/><path fill="none" stroke="rgb(0,0,0)" paint-order="fill" d="M 142.86607360839844 33.34834289550781 L 152.86607360839844 33.34834289550781" stroke-opacity="1" stroke-linejoin="bevel" stroke-miterlimit="10" clip-path="url(#eVExZNrTwSNl)"/><path fill="none" stroke="rgb(0,0,0)" paint-order="fill" d="M 157.98512268066406 31.565385818481445 L 167.98512268066406 31.565385818481445" stroke-opacity="1" stroke-linejoin="bevel" stroke-miterlimit="10" clip-path="url(#eVExZNrTwSNl)"/><path fill="none" stroke="rgb(0,0,0)" paint-order="fill" d="M 137.7470245361328 44.20528793334961 L 127.74702453613281 44.20528793334961" stroke-opacity="1" stroke-linejoin="bevel" stroke-miterlimit="10" clip-path="url(#eVExZNrTwSNl)"/><path fill="none" stroke="rgb(0,0,0)" paint-order="fill" d="M 152.86607360839844 43.407955169677734 L 142.86607360839844 43.407955169677734" stroke-opacity="1" stroke-linejoin="bevel" stroke-miterlimit="10" clip-path="url(#eVExZNrTwSNl)"/><path fill="none" stroke="rgb(0,0,0)" paint-order="fill" d="M 167.98512268066406 41.88916015625 L 157.98512268066406 41.88916015625" stroke-opacity="1" stroke-linejoin="bevel" stroke-miterlimit="10" clip-path="url(#eVExZNrTwSNl)"/><path fill="rgb(128,128,128)" stroke="none" paint-order="stroke" d="M 125.18750762939453 36.727272033691406 L 170.5446319580078 36.727272033691406 L 170.5446319580078 221.27273559570312 L 125.18750762939453 221.27273559570312 L 125.18750762939453 36.727272033691406 Z" fill-opacity="0.10196078431372549" clip-path="url(#NMpMsHlhcWoy)"/><path fill="url(#aFdBihdpTDAk)" stroke="rgb(0,0,0)" paint-order="fill" d="M 125.18750762939453 36.727272033691406 L 170.5446319580078 36.727272033691406 L 170.5446319580078 221.27273559570312 L 125.18750762939453 221.27273559570312 L 125.18750762939453 36.727272033691406 Z" clip-path="url(#NMpMsHlhcWoy)" stroke-opacity="0.2" stroke-linejoin="bevel" stroke-miterlimit="10"/><path fill="rgb(100,149,237)" stroke="rgb(31,119,180)" paint-order="fill" d="M 125.1875 39.16928482055664 L 140.30654907226562 39.16928482055664 L 140.30654907226562 221.27272033691406 L 125.1875 221.27272033691406 L 125.1875 39.16928482055664 Z" fill-opacity="0.5019607843137255" clip-path="url(#QlXwGfaPPvoo)" stroke-opacity="0.5019607843137255" stroke-linejoin="bevel" stroke-miterlimit="10"/><path fill="rgb(100,149,237)" stroke="rgb(31,119,180)" paint-order="fill" d="M 140.30654907226562 38.37814712524414 L 155.42559814453125 38.37814712524414 L 155.42559814453125 221.27272033691406 L 140.30654907226562 221.27272033691406 L 140.30654907226562 38.37814712524414 Z" fill-opacity="0.5019607843137255" clip-path="url(#QlXwGfaPPvoo)" stroke-opacity="0.5019607843137255" stroke-linejoin="bevel" stroke-miterlimit="10"/><path fill="rgb(100,149,237)" stroke="rgb(31,119,180)" paint-order="fill" d="M 155.42559814453125 36.727272033691406 L 170.54464721679688 36.727272033691406 L 170.54464721679688 221.27272033691406 L 155.42559814453125 221.27272033691406 L 155.42559814453125 36.727272033691406 Z" fill-opacity="0.5019607843137255" clip-path="url(#QlXwGfaPPvoo)" stroke-opacity="0.5019607843137255" stroke-linejoin="bevel" stroke-miterlimit="10"/><path fill="none" stroke="rgb(0,0,0)" paint-order="fill" d="M 52.5 230.5 L 245.5 230.5" stroke-opacity="1" stroke-linejoin="bevel" stroke-miterlimit="10"/><path fill="none" stroke="rgb(0,0,0)" paint-order="fill" d="M 88.5 236.5 L 88.5 228.5 M 125.5 236.5 L 125.5 228.5 M 161.5 236.5 L 161.5 228.5 M 197.5 236.5 L 197.5 228.5 M 234.5 236.5 L 234.5 228.5" stroke-opacity="1" stroke-linejoin="bevel" stroke-miterlimit="10"/><path fill="none" stroke="rgb(0,0,0)" paint-order="fill" d="M 81.5 234.5 L 81.5 230.5 M 74.5 234.5 L 74.5 230.5 M 66.5 234.5 L 66.5 230.5 M 59.5 234.5 L 59.5 230.5 M 88.5 234.5 L 88.5 230.5 M 96.5 234.5 L 96.5 230.5 M 103.5 234.5 L 103.5 230.5 M 110.5 234.5 L 110.5 230.5 M 117.5 234.5 L 117.5 230.5 M 125.5 234.5 L 125.5 230.5 M 132.5 234.5 L 132.5 230.5 M 139.5 234.5 L 139.5 230.5 M 146.5 234.5 L 146.5 230.5 M 154.5 234.5 L 154.5 230.5 M 161.5 234.5 L 161.5 230.5 M 168.5 234.5 L 168.5 230.5 M 175.5 234.5 L 175.5 230.5 M 183.5 234.5 L 183.5 230.5 M 190.5 234.5 L 190.5 230.5 M 197.5 234.5 L 197.5 230.5 M 205.5 234.5 L 205.5 230.5 M 212.5 234.5 L 212.5 230.5 M 219.5 234.5 L 219.5 230.5 M 226.5 234.5 L 226.5 230.5 M 234.5 234.5 L 234.5 230.5 M 241.5 234.5 L 241.5 230.5" stroke-opacity="1" stroke-linejoin="bevel" stroke-miterlimit="10"/><text fill="rgb(68,68,68)" stroke="none" font-family="helvetica" font-size="11px" font-style="normal" font-weight="normal" text-decoration="normal" x="77.57257080078125" y="249" text-anchor="start" dominant-baseline="alphabetic" transform="matrix(1, 0, 0, 1, 0.5, 0.5)" fill-opacity="1">0.39</text><text fill="none" stroke="rgb(0,0,0)" font-family="helvetica" font-size="11px" font-style="normal" font-weight="normal" text-decoration="normal" x="77.57257080078125" y="249" text-anchor="start" dominant-baseline="alphabetic" transform="matrix(1, 0, 0, 1, 0.5, 0.5)" stroke-opacity="0" stroke-linejoin="bevel" stroke-miterlimit="10">0.39</text><text fill="rgb(68,68,68)" stroke="none" font-family="helvetica" font-size="11px" font-style="normal" font-weight="normal" text-decoration="normal" x="116.97344970703125" y="249" text-anchor="start" dominant-baseline="alphabetic" transform="matrix(1, 0, 0, 1, 0.5, 0.5)" fill-opacity="1">0.4</text><text fill="none" stroke="rgb(0,0,0)" font-family="helvetica" font-size="11px" font-style="normal" font-weight="normal" text-decoration="normal" x="116.97344970703125" y="249" text-anchor="start" dominant-baseline="alphabetic" transform="matrix(1, 0, 0, 1, 0.5, 0.5)" stroke-opacity="0" stroke-linejoin="bevel" stroke-miterlimit="10">0.4</text><text fill="rgb(68,68,68)" stroke="none" font-family="helvetica" font-size="11px" font-style="normal" font-weight="normal" text-decoration="normal" x="150.25665283203125" y="249" text-anchor="start" dominant-baseline="alphabetic" transform="matrix(1, 0, 0, 1, 0.5, 0.5)" fill-opacity="1">0.41</text><text fill="none" stroke="rgb(0,0,0)" font-family="helvetica" font-size="11px" font-style="normal" font-weight="normal" text-decoration="normal" x="150.25665283203125" y="249" text-anchor="start" dominant-baseline="alphabetic" transform="matrix(1, 0, 0, 1, 0.5, 0.5)" stroke-opacity="0" stroke-linejoin="bevel" stroke-miterlimit="10">0.41</text><text fill="rgb(68,68,68)" stroke="none" font-family="helvetica" font-size="11px" font-style="normal" font-weight="normal" text-decoration="normal" x="186.5987091064453" y="249" text-anchor="start" dominant-baseline="alphabetic" transform="matrix(1, 0, 0, 1, 0.5, 0.5)" fill-opacity="1">0.42</text><text fill="none" stroke="rgb(0,0,0)" font-family="helvetica" font-size="11px" font-style="normal" font-weight="normal" text-decoration="normal" x="186.5987091064453" y="249" text-anchor="start" dominant-baseline="alphabetic" transform="matrix(1, 0, 0, 1, 0.5, 0.5)" stroke-opacity="0" stroke-linejoin="bevel" stroke-miterlimit="10">0.42</text><text fill="rgb(68,68,68)" stroke="none" font-family="helvetica" font-size="11px" font-style="normal" font-weight="normal" text-decoration="normal" x="222.9407501220703" y="249" text-anchor="start" dominant-baseline="alphabetic" transform="matrix(1, 0, 0, 1, 0.5, 0.5)" fill-opacity="1">0.43</text><text fill="none" stroke="rgb(0,0,0)" font-family="helvetica" font-size="11px" font-style="normal" font-weight="normal" text-decoration="normal" x="222.9407501220703" y="249" text-anchor="start" dominant-baseline="alphabetic" transform="matrix(1, 0, 0, 1, 0.5, 0.5)" stroke-opacity="0" stroke-linejoin="bevel" stroke-miterlimit="10">0.43</text><text fill="rgb(68,68,68)" stroke="none" font-family="helvetica" font-size="13px" font-style="italic" font-weight="normal" text-decoration="normal" x="72.286865234375" y="269" text-anchor="start" dominant-baseline="alphabetic" transform="matrix(1, 0, 0, 1, 0.5, 0.5)" fill-opacity="1">Thermal to electric eff. (%)</text><text fill="none" stroke="rgb(0,0,0)" font-family="helvetica" font-size="13px" font-style="italic" font-weight="normal" text-decoration="normal" x="72.286865234375" y="269" text-anchor="start" dominant-baseline="alphabetic" transform="matrix(1, 0, 0, 1, 0.5, 0.5)" stroke-opacity="0" stroke-linejoin="bevel" stroke-miterlimit="10">Thermal to electric eff. (%)</text><path fill="none" stroke="rgb(0,0,0)" paint-order="fill" d="M 52.5 230.5 L 52.5 27.5" stroke-opacity="1" stroke-linejoin="bevel" stroke-miterlimit="10"/><path fill="none" stroke="rgb(0,0,0)" paint-order="fill" d="M 46.5 221.5 L 54.5 221.5 M 46.5 183.5 L 54.5 183.5 M 46.5 144.5 L 54.5 144.5 M 46.5 106.5 L 54.5 106.5 M 46.5 68.5 L 54.5 68.5 M 46.5 30.5 L 54.5 30.5" stroke-opacity="1" stroke-linejoin="bevel" stroke-miterlimit="10"/><path fill="none" stroke="rgb(0,0,0)" paint-order="fill" d="M 48.5 228.5 L 52.5 228.5 M 48.5 221.5 L 52.5 221.5 M 48.5 213.5 L 52.5 213.5 M 48.5 205.5 L 52.5 205.5 M 48.5 198.5 L 52.5 198.5 M 48.5 190.5 L 52.5 190.5 M 48.5 183.5 L 52.5 183.5 M 48.5 175.5 L 52.5 175.5 M 48.5 167.5 L 52.5 167.5 M 48.5 160.5 L 52.5 160.5 M 48.5 152.5 L 52.5 152.5 M 48.5 144.5 L 52.5 144.5 M 48.5 137.5 L 52.5 137.5 M 48.5 129.5 L 52.5 129.5 M 48.5 121.5 L 52.5 121.5 M 48.5 114.5 L 52.5 114.5 M 48.5 106.5 L 52.5 106.5 M 48.5 98.5 L 52.5 98.5 M 48.5 91.5 L 52.5 91.5 M 48.5 83.5 L 52.5 83.5 M 48.5 76.5 L 52.5 76.5 M 48.5 68.5 L 52.5 68.5 M 48.5 60.5 L 52.5 60.5 M 48.5 53.5 L 52.5 53.5 M 48.5 45.5 L 52.5 45.5 M 48.5 37.5 L 52.5 37.5 M 48.5 30.5 L 52.5 30.5" stroke-opacity="1" stroke-linejoin="bevel" stroke-miterlimit="10"/><text fill="rgb(68,68,68)" stroke="none" font-family="helvetica" font-size="11px" font-style="normal" font-weight="normal" text-decoration="normal" x="34.88232421875" y="224.77272033691406" text-anchor="start" dominant-baseline="alphabetic" transform="matrix(1, 0, 0, 1, 0.5, 0.5)" fill-opacity="1">0</text><text fill="none" stroke="rgb(0,0,0)" font-family="helvetica" font-size="11px" font-style="normal" font-weight="normal" text-decoration="normal" x="34.88232421875" y="224.77272033691406" text-anchor="start" dominant-baseline="alphabetic" transform="matrix(1, 0, 0, 1, 0.5, 0.5)" stroke-opacity="0" stroke-linejoin="bevel" stroke-miterlimit="10">0</text><text fill="rgb(68,68,68)" stroke="none" font-family="helvetica" font-size="11px" font-style="normal" font-weight="normal" text-decoration="normal" x="25.70849609375" y="186.5453338623047" text-anchor="start" dominant-baseline="alphabetic" transform="matrix(1, 0, 0, 1, 0.5, 0.5)" fill-opacity="1">0.2</text><text fill="none" stroke="rgb(0,0,0)" font-family="helvetica" font-size="11px" font-style="normal" font-weight="normal" text-decoration="normal" x="25.70849609375" y="186.5453338623047" text-anchor="start" dominant-baseline="alphabetic" transform="matrix(1, 0, 0, 1, 0.5, 0.5)" stroke-opacity="0" stroke-linejoin="bevel" stroke-miterlimit="10">0.2</text><text fill="rgb(68,68,68)" stroke="none" font-family="helvetica" font-size="11px" font-style="normal" font-weight="normal" text-decoration="normal" x="25.70849609375" y="148.31793212890625" text-anchor="start" dominant-baseline="alphabetic" transform="matrix(1, 0, 0, 1, 0.5, 0.5)" fill-opacity="1">0.4</text><text fill="none" stroke="rgb(0,0,0)" font-family="helvetica" font-size="11px" font-style="normal" font-weight="normal" text-decoration="normal" x="25.70849609375" y="148.31793212890625" text-anchor="start" dominant-baseline="alphabetic" transform="matrix(1, 0, 0, 1, 0.5, 0.5)" stroke-opacity="0" stroke-linejoin="bevel" stroke-miterlimit="10">0.4</text><text fill="rgb(68,68,68)" stroke="none" font-family="helvetica" font-size="11px" font-style="normal" font-weight="normal" text-decoration="normal" x="25.70849609375" y="110.09053039550781" text-anchor="start" dominant-baseline="alphabetic" transform="matrix(1, 0, 0, 1, 0.5, 0.5)" fill-opacity="1">0.6</text><text fill="none" stroke="rgb(0,0,0)" font-family="helvetica" font-size="11px" font-style="normal" font-weight="normal" text-decoration="normal" x="25.70849609375" y="110.09053039550781" text-anchor="start" dominant-baseline="alphabetic" transform="matrix(1, 0, 0, 1, 0.5, 0.5)" stroke-opacity="0" stroke-linejoin="bevel" stroke-miterlimit="10">0.6</text><text fill="rgb(68,68,68)" stroke="none" font-family="helvetica" font-size="11px" font-style="normal" font-weight="normal" text-decoration="normal" x="25.70849609375" y="71.86312866210938" text-anchor="start" dominant-baseline="alphabetic" transform="matrix(1, 0, 0, 1, 0.5, 0.5)" fill-opacity="1">0.8</text><text fill="none" stroke="rgb(0,0,0)" font-family="helvetica" font-size="11px" font-style="normal" font-weight="normal" text-decoration="normal" x="25.70849609375" y="71.86312866210938" text-anchor="start" dominant-baseline="alphabetic" transform="matrix(1, 0, 0, 1, 0.5, 0.5)" stroke-opacity="0" stroke-linejoin="bevel" stroke-miterlimit="10">0.8</text><text fill="rgb(68,68,68)" stroke="none" font-family="helvetica" font-size="11px" font-style="normal" font-weight="normal" text-decoration="normal" x="34.88232421875" y="33.6357307434082" text-anchor="start" dominant-baseline="alphabetic" transform="matrix(1, 0, 0, 1, 0.5, 0.5)" fill-opacity="1">1</text><text fill="none" stroke="rgb(0,0,0)" font-family="helvetica" font-size="11px" font-style="normal" font-weight="normal" text-decoration="normal" x="34.88232421875" y="33.6357307434082" text-anchor="start" dominant-baseline="alphabetic" transform="matrix(1, 0, 0, 1, 0.5, 0.5)" stroke-opacity="0" stroke-linejoin="bevel" stroke-miterlimit="10">1</text><text fill="rgb(68,68,68)" stroke="none" font-family="helvetica" font-size="13px" font-style="italic" font-weight="normal" text-decoration="normal" x="-47.31689453125" y="125.5" text-anchor="start" dominant-baseline="alphabetic" transform="matrix(6.123233995736766e-17, -1, 1, 6.123233995736766e-17, -110.29150390625, 146.70849609375)" fill-opacity="1">Normalised Probability</text><text fill="none" stroke="rgb(0,0,0)" font-family="helvetica" font-size="13px" font-style="italic" font-weight="normal" text-decoration="normal" x="-47.31689453125" y="125.5" text-anchor="start" dominant-baseline="alphabetic" transform="matrix(6.123233995736766e-17, -1, 1, 6.123233995736766e-17, -110.29150390625, 146.70849609375)" stroke-opacity="0" stroke-linejoin="bevel" stroke-miterlimit="10">Normalised Probability</text><path fill="rgb(255,249,186)" stroke="rgb(255,0,0)" paint-order="fill" d="M 147.64170321871302 36.72727272727272 L 147.64170321871302 36.72727272727272 L 147.64170321871302 221.27272727272725 L 147.64170321871302 221.27272727272725 L 147.64170321871302 36.72727272727272 Z" fill-opacity="0.4" clip-path="url(#xPmApDgbKxUM)" stroke-opacity="1" stroke-linejoin="bevel" stroke-miterlimit="10" stroke-width="2" stroke-dasharray="6"/><path fill="rgb(255,249,186)" stroke="rgb(50,205,50)" paint-order="fill" d="M 162.98511517357178 36.72727272727272 L 162.98511517357178 36.72727272727272 L 162.98511517357178 221.27272727272725 L 162.98511517357178 221.27272727272725 L 162.98511517357178 36.72727272727272 Z" fill-opacity="0.4" clip-path="url(#FeJOrqJAheMy)" stroke-opacity="1" stroke-linejoin="bevel" stroke-miterlimit="10" stroke-width="2" stroke-dasharray="6"/><text fill="rgb(68,68,68)" stroke="none" font-family="helvetica" font-size="13px" font-style="normal" font-weight="bold" text-decoration="normal" x="52" y="19" text-anchor="start" dominant-baseline="alphabetic" transform="matrix(1, 0, 0, 1, 0.5, 0.5)" fill-opacity="1">Convergance Probability</text><text fill="none" stroke="rgb(0,0,0)" font-family="helvetica" font-size="13px" font-style="normal" font-weight="bold" text-decoration="normal" x="52" y="19" text-anchor="start" dominant-baseline="alphabetic" transform="matrix(1, 0, 0, 1, 0.5, 0.5)" stroke-opacity="0" stroke-miterlimit="10" stroke-dasharray="">Convergance Probability</text></svg>