<svg version="1.1" xmlns="http://www.w3.org/2000/svg" width="275" height="275"><defs><clipPath id="EnDMfdTpDSCM"><path fill="none" stroke="none" d="M 52.5 27.5 L 245.5 27.5 L 245.5 230.5 L 52.5 230.5 L 52.5 27.5 Z"/></clipPath><clipPath id="DyScJIGuUOnN"><path fill="none" stroke="none" d="M 52.5 27.5 L 245.5 27.5 L 245.5 230.5 L 52.5 230.5 L 52.5 27.5 Z"/></clipPath><clipPath id="aJmvvvFuvTQR"><path fill="none" stroke="none" d="M 52.5 27.5 L 245.5 27.5 L 245.5 230.5 L 52.5 230.5 L 52.5 27.5 Z"/></clipPath><clipPath id="TrKvIlVGXmOz"><path fill="none" stroke="none" d="M 52.5 27.5 L 245.5 27.5 L 245.5 230.5 L 52.5 230.5 L 52.5 27.5 Z"/></clipPath><pattern id="oLJxDavhBJNW" width="3" height="3" patternUnits="userSpaceOnUse"><path fill="rgb(0,0,0)" stroke="none" paint-order="stroke" d="M 2.75 2 A 0.75 0.75 0 0 0 1.25 2 A 0.75 0.75 0 0 0 2.75 2" fill-opacity="0.14901960784313725"/></pattern><clipPath id="fDGZlBonpXgG"><path fill="none" stroke="none" d="M 52.5 27.5 L 245.5 27.5 L 245.5 230.5 L 52.5 230.5 L 52.5 27.5 Z"/></clipPath><clipPath id="xPiTcUHwoXfl"><path fill="none" stroke="none" d="M 52.5 27.5 L 245.5 27.5 L 245.5 230.5 L 52.5 230.5 L 52.5 27.5 Z"/></clipPath><clipPath id="yflGOEyXXNbB"><path fill="none" stroke="none" d="M 52.5 27.5 L 245.5 27.5 L 245.5 230.5 L 52.5 230.5 L 52.5 27.5 Z"/></clipPath><clipPath id="FRCGFusyefNR"><path fill="none" stroke="none" d="M 52.5 27.5 L 245.5 27.5 L 245.5 230.5 L 52.5 230.5 L 52.5 27.5 Z"/></clipPath></defs><path fill="rgb(255,255,255)" stroke="none" paint-order="stroke" d="M 0.5 0.5 L 275.5 0.5 L 275.5 275.5 L 0.5 275.5 L 0.5 0.5 Z" fill-opacity="1"/><rect fill="#FFFFFF" stroke="none" x="52" y="27" width="193" height="203" transform="matrix(1, 0, 0, 1, 0.5, 0.5)"/><path fill="rgb(255,255,255)" stroke="none" paint-order="stroke" d="M 52.5 27.5 L 245.5 27.5 L 245.5 230.5 L 52.5 230.5 L 52.5 27.5 Z" fill-opacity="1"/><path fill="none" stroke="rgb(229,229,229)" paint-order="fill" d="M 52.5 27.5 L 245.5 27.5 L 245.5 230.5 L 52.5 230.5 L 52.5 27.5 Z" stroke-opacity="1" stroke-linejoin="bevel" stroke-miterlimit="10"/><path fill="none" stroke="rgb(229,229,229)" paint-order="fill" d="M 85.5 230.5 L 85.5 27.5 M 120.5 230.5 L 120.5 27.5 M 154.5 230.5 L 154.5 27.5 M 188.5 230.5 L 188.5 27.5 M 222.5 230.5 L 222.5 27.5" stroke-opacity="1" stroke-linejoin="bevel" stroke-miterlimit="10" clip-path="url(#EnDMfdTpDSCM)"/><path fill="none" stroke="rgb(229,229,229)" paint-order="fill" d="M 52.5 221.5 L 245.5 221.5 M 52.5 177.5 L 245.5 177.5 M 52.5 132.5 L 245.5 132.5 M 52.5 88.5 L 245.5 88.5 M 52.5 44.5 L 245.5 44.5" stroke-opacity="1" stroke-linejoin="bevel" stroke-miterlimit="10" clip-path="url(#DyScJIGuUOnN)"/><path fill="none" stroke="rgb(0,0,0)" paint-order="fill" d="M 92.17478942871094 203.8775177001953 L 92.17478942871094 207.18589782714844" stroke-opacity="1" stroke-linejoin="bevel" stroke-miterlimit="10" clip-path="url(#aJmvvvFuvTQR)"/><path fill="none" stroke="rgb(0,0,0)" paint-order="fill" d="M 113.6182632446289 193.50120544433594 L 113.6182632446289 197.6092987060547" stroke-opacity="1" stroke-linejoin="bevel" stroke-miterlimit="10" clip-path="url(#aJmvvvFuvTQR)"/><path fill="none" stroke="rgb(0,0,0)" paint-order="fill" d="M 135.06173706054688 186.4205322265625 L 135.06173706054688 191.5846710205078" stroke-opacity="1" stroke-linejoin="bevel" stroke-miterlimit="10" clip-path="url(#aJmvvvFuvTQR)"/><path fill="none" stroke="rgb(0,0,0)" paint-order="fill" d="M 156.50521850585938 171.12767028808594 L 156.50521850585938 177.20054626464844" stroke-opacity="1" stroke-linejoin="bevel" stroke-miterlimit="10" clip-path="url(#aJmvvvFuvTQR)"/><path fill="none" stroke="rgb(0,0,0)" paint-order="fill" d="M 177.94869995117188 92.21187591552734 L 177.94869995117188 98.11212921142578" stroke-opacity="1" stroke-linejoin="bevel" stroke-miterlimit="10" clip-path="url(#aJmvvvFuvTQR)"/><path fill="none" stroke="rgb(0,0,0)" paint-order="fill" d="M 199.3921661376953 35.29517364501953 L 199.3921661376953 38.15937042236328" stroke-opacity="1" stroke-linejoin="bevel" stroke-miterlimit="10" clip-path="url(#aJmvvvFuvTQR)"/><path fill="none" stroke="rgb(0,0,0)" paint-order="fill" d="M 87.17478942871094 203.8775177001953 L 97.17478942871094 203.8775177001953" stroke-opacity="1" stroke-linejoin="bevel" stroke-miterlimit="10" clip-path="url(#aJmvvvFuvTQR)"/><path fill="none" stroke="rgb(0,0,0)" paint-order="fill" d="M 108.6182632446289 193.50120544433594 L 118.6182632446289 193.50120544433594" stroke-opacity="1" stroke-linejoin="bevel" stroke-miterlimit="10" clip-path="url(#aJmvvvFuvTQR)"/><path fill="none" stroke="rgb(0,0,0)" paint-order="fill" d="M 130.06173706054688 186.4205322265625 L 140.06173706054688 186.4205322265625" stroke-opacity="1" stroke-linejoin="bevel" stroke-miterlimit="10" clip-path="url(#aJmvvvFuvTQR)"/><path fill="none" stroke="rgb(0,0,0)" paint-order="fill" d="M 151.50521850585938 171.12767028808594 L 161.50521850585938 171.12767028808594" stroke-opacity="1" stroke-linejoin="bevel" stroke-miterlimit="10" clip-path="url(#aJmvvvFuvTQR)"/><path fill="none" stroke="rgb(0,0,0)" paint-order="fill" d="M 172.94869995117188 92.21187591552734 L 182.94869995117188 92.21187591552734" stroke-opacity="1" stroke-linejoin="bevel" stroke-miterlimit="10" clip-path="url(#aJmvvvFuvTQR)"/><path fill="none" stroke="rgb(0,0,0)" paint-order="fill" d="M 194.3921661376953 35.29517364501953 L 204.3921661376953 35.29517364501953" stroke-opacity="1" stroke-linejoin="bevel" stroke-miterlimit="10" clip-path="url(#aJmvvvFuvTQR)"/><path fill="none" stroke="rgb(0,0,0)" paint-order="fill" d="M 97.17478942871094 207.18589782714844 L 87.17478942871094 207.18589782714844" stroke-opacity="1" stroke-linejoin="bevel" stroke-miterlimit="10" clip-path="url(#aJmvvvFuvTQR)"/><path fill="none" stroke="rgb(0,0,0)" paint-order="fill" d="M 118.6182632446289 197.6092987060547 L 108.6182632446289 197.6092987060547" stroke-opacity="1" stroke-linejoin="bevel" stroke-miterlimit="10" clip-path="url(#aJmvvvFuvTQR)"/><path fill="none" stroke="rgb(0,0,0)" paint-order="fill" d="M 140.06173706054688 191.5846710205078 L 130.06173706054688 191.5846710205078" stroke-opacity="1" stroke-linejoin="bevel" stroke-miterlimit="10" clip-path="url(#aJmvvvFuvTQR)"/><path fill="none" stroke="rgb(0,0,0)" paint-order="fill" d="M 161.50521850585938 177.20054626464844 L 151.50521850585938 177.20054626464844" stroke-opacity="1" stroke-linejoin="bevel" stroke-miterlimit="10" clip-path="url(#aJmvvvFuvTQR)"/><path fill="none" stroke="rgb(0,0,0)" paint-order="fill" d="M 182.94869995117188 98.11212921142578 L 172.94869995117188 98.11212921142578" stroke-opacity="1" stroke-linejoin="bevel" stroke-miterlimit="10" clip-path="url(#aJmvvvFuvTQR)"/><path fill="none" stroke="rgb(0,0,0)" paint-order="fill" d="M 204.3921661376953 38.15937042236328 L 194.3921661376953 38.15937042236328" stroke-opacity="1" stroke-linejoin="bevel" stroke-miterlimit="10" clip-path="url(#aJmvvvFuvTQR)"/><path fill="rgb(128,128,128)" stroke="none" paint-order="stroke" d="M 81.45304870605469 36.727272033691406 L 210.11390686035156 36.727272033691406 L 210.11390686035156 221.27273559570312 L 81.45304870605469 221.27273559570312 L 81.45304870605469 36.727272033691406 Z" fill-opacity="0.10196078431372549" clip-path="url(#TrKvIlVGXmOz)"/><path fill="url(#oLJxDavhBJNW)" stroke="rgb(0,0,0)" paint-order="fill" d="M 81.45304870605469 36.727272033691406 L 210.11390686035156 36.727272033691406 L 210.11390686035156 221.27273559570312 L 81.45304870605469 221.27273559570312 L 81.45304870605469 36.727272033691406 Z" clip-path="url(#TrKvIlVGXmOz)" stroke-opacity="0.2" stroke-linejoin="bevel" stroke-miterlimit="10"/><path fill="rgb(100,149,237)" stroke="rgb(31,119,180)" paint-order="fill" d="M 81.45304870605469 205.53170776367188 L 102.89653015136719 205.53170776367188 L 102.89653015136719 221.27272033691406 L 81.45304870605469 221.27272033691406 L 81.45304870605469 205.53170776367188 Z" fill-opacity="0.5019607843137255" clip-path="url(#fDGZlBonpXgG)" stroke-opacity="0.5019607843137255" stroke-linejoin="bevel" stroke-miterlimit="10"/><path fill="rgb(100,149,237)" stroke="rgb(31,119,180)" paint-order="fill" d="M 102.89652252197266 195.5552520751953 L 124.34000396728516 195.5552520751953 L 124.34000396728516 221.27272033691406 L 102.89652252197266 221.27272033691406 L 102.89652252197266 195.5552520751953 Z" fill-opacity="0.5019607843137255" clip-path="url(#fDGZlBonpXgG)" stroke-opacity="0.5019607843137255" stroke-linejoin="bevel" stroke-miterlimit="10"/><path fill="rgb(100,149,237)" stroke="rgb(31,119,180)" paint-order="fill" d="M 124.33999633789062 189.00259399414062 L 145.78347778320312 189.00259399414062 L 145.78347778320312 221.27272033691406 L 124.33999633789062 221.27272033691406 L 124.33999633789062 189.00259399414062 Z" fill-opacity="0.5019607843137255" clip-path="url(#fDGZlBonpXgG)" stroke-opacity="0.5019607843137255" stroke-linejoin="bevel" stroke-miterlimit="10"/><path fill="rgb(100,149,237)" stroke="rgb(31,119,180)" paint-order="fill" d="M 145.78347778320312 174.1641082763672 L 167.22695922851562 174.1641082763672 L 167.22695922851562 221.27272033691406 L 145.78347778320312 221.27272033691406 L 145.78347778320312 174.1641082763672 Z" fill-opacity="0.5019607843137255" clip-path="url(#fDGZlBonpXgG)" stroke-opacity="0.5019607843137255" stroke-linejoin="bevel" stroke-miterlimit="10"/><path fill="rgb(100,149,237)" stroke="rgb(31,119,180)" paint-order="fill" d="M 167.22695922851562 95.16200256347656 L 188.67044067382812 95.16200256347656 L 188.67044067382812 221.27272033691406 L 167.22695922851562 221.27272033691406 L 167.22695922851562 95.16200256347656 Z" fill-opacity="0.5019607843137255" clip-path="url(#fDGZlBonpXgG)" stroke-opacity="0.5019607843137255" stroke-linejoin="bevel" stroke-miterlimit="10"/><path fill="rgb(100,149,237)" stroke="rgb(31,119,180)" paint-order="fill" d="M 188.67042541503906 36.727272033691406 L 210.11390686035156 36.727272033691406 L 210.11390686035156 221.27272033691406 L 188.67042541503906 221.27272033691406 L 188.67042541503906 36.727272033691406 Z" fill-opacity="0.5019607843137255" clip-path="url(#fDGZlBonpXgG)" stroke-opacity="0.5019607843137255" stroke-linejoin="bevel" stroke-miterlimit="10"/><path fill="none" stroke="rgb(0,0,0)" paint-order="fill" d="M 52.5 230.5 L 245.5 230.5" stroke-opacity="1" stroke-linejoin="bevel" stroke-miterlimit="10"/><path fill="none" stroke="rgb(0,0,0)" paint-order="fill" d="M 85.5 236.5 L 85.5 228.5 M 120.5 236.5 L 120.5 228.5 M 154.5 236.5 L 154.5 228.5 M 188.5 236.5 L 188.5 228.5 M 222.5 236.5 L 222.5 228.5" stroke-opacity="1" stroke-linejoin="bevel" stroke-miterlimit="10"/><path fill="none" stroke="rgb(0,0,0)" paint-order="fill" d="M 78.5 234.5 L 78.5 230.5 M 72.5 234.5 L 72.5 230.5 M 65.5 234.5 L 65.5 230.5 M 58.5 234.5 L 58.5 230.5 M 85.5 234.5 L 85.5 230.5 M 92.5 234.5 L 92.5 230.5 M 99.5 234.5 L 99.5 230.5 M 106.5 234.5 L 106.5 230.5 M 113.5 234.5 L 113.5 230.5 M 120.5 234.5 L 120.5 230.5 M 126.5 234.5 L 126.5 230.5 M 133.5 234.5 L 133.5 230.5 M 140.5 234.5 L 140.5 230.5 M 147.5 234.5 L 147.5 230.5 M 154.5 234.5 L 154.5 230.5 M 161.5 234.5 L 161.5 230.5 M 168.5 234.5 L 168.5 230.5 M 174.5 234.5 L 174.5 230.5 M 181.5 234.5 L 181.5 230.5 M 188.5 234.5 L 188.5 230.5 M 195.5 234.5 L 195.5 230.5 M 202.5 234.5 L 202.5 230.5 M 209.5 234.5 L 209.5 230.5 M 216.5 234.5 L 216.5 230.5 M 222.5 234.5 L 222.5 230.5 M 229.5 234.5 L 229.5 230.5 M 236.5 234.5 L 236.5 230.5 M 243.5 234.5 L 243.5 230.5" stroke-opacity="1" stroke-linejoin="bevel" stroke-miterlimit="10"/><text fill="rgb(68,68,68)" stroke="none" font-family="helvetica" font-size="11px" font-style="normal" font-weight="normal" text-decoration="normal" x="74.52265930175781" y="249" text-anchor="start" dominant-baseline="alphabetic" transform="matrix(1, 0, 0, 1, 0.5, 0.5)" fill-opacity="1">0.34</text><text fill="none" stroke="rgb(0,0,0)" font-family="helvetica" font-size="11px" font-style="normal" font-weight="normal" text-decoration="normal" x="74.52265930175781" y="249" text-anchor="start" dominant-baseline="alphabetic" transform="matrix(1, 0, 0, 1, 0.5, 0.5)" stroke-opacity="0" stroke-linejoin="bevel" stroke-miterlimit="10">0.34</text><text fill="rgb(68,68,68)" stroke="none" font-family="helvetica" font-size="11px" font-style="normal" font-weight="normal" text-decoration="normal" x="108.83650207519531" y="249" text-anchor="start" dominant-baseline="alphabetic" transform="matrix(1, 0, 0, 1, 0.5, 0.5)" fill-opacity="1">0.36</text><text fill="none" stroke="rgb(0,0,0)" font-family="helvetica" font-size="11px" font-style="normal" font-weight="normal" text-decoration="normal" x="108.83650207519531" y="249" text-anchor="start" dominant-baseline="alphabetic" transform="matrix(1, 0, 0, 1, 0.5, 0.5)" stroke-opacity="0" stroke-linejoin="bevel" stroke-miterlimit="10">0.36</text><text fill="rgb(68,68,68)" stroke="none" font-family="helvetica" font-size="11px" font-style="normal" font-weight="normal" text-decoration="normal" x="143.15032958984375" y="249" text-anchor="start" dominant-baseline="alphabetic" transform="matrix(1, 0, 0, 1, 0.5, 0.5)" fill-opacity="1">0.38</text><text fill="none" stroke="rgb(0,0,0)" font-family="helvetica" font-size="11px" font-style="normal" font-weight="normal" text-decoration="normal" x="143.15032958984375" y="249" text-anchor="start" dominant-baseline="alphabetic" transform="matrix(1, 0, 0, 1, 0.5, 0.5)" stroke-opacity="0" stroke-linejoin="bevel" stroke-miterlimit="10">0.38</text><text fill="rgb(68,68,68)" stroke="none" font-family="helvetica" font-size="11px" font-style="normal" font-weight="normal" text-decoration="normal" x="180.52301025390625" y="249" text-anchor="start" dominant-baseline="alphabetic" transform="matrix(1, 0, 0, 1, 0.5, 0.5)" fill-opacity="1">0.4</text><text fill="none" stroke="rgb(0,0,0)" font-family="helvetica" font-size="11px" font-style="normal" font-weight="normal" text-decoration="normal" x="180.52301025390625" y="249" text-anchor="start" dominant-baseline="alphabetic" transform="matrix(1, 0, 0, 1, 0.5, 0.5)" stroke-opacity="0" stroke-linejoin="bevel" stroke-miterlimit="10">0.4</text><text fill="rgb(68,68,68)" stroke="none" font-family="helvetica" font-size="11px" font-style="normal" font-weight="normal" text-decoration="normal" x="211.77801513671875" y="249" text-anchor="start" dominant-baseline="alphabetic" transform="matrix(1, 0, 0, 1, 0.5, 0.5)" fill-opacity="1">0.42</text><text fill="none" stroke="rgb(0,0,0)" font-family="helvetica" font-size="11px" font-style="normal" font-weight="normal" text-decoration="normal" x="211.77801513671875" y="249" text-anchor="start" dominant-baseline="alphabetic" transform="matrix(1, 0, 0, 1, 0.5, 0.5)" stroke-opacity="0" stroke-linejoin="bevel" stroke-miterlimit="10">0.42</text><text fill="rgb(68,68,68)" stroke="none" font-family="helvetica" font-size="13px" font-style="italic" font-weight="normal" text-decoration="normal" x="72.286865234375" y="269" text-anchor="start" dominant-baseline="alphabetic" transform="matrix(1, 0, 0, 1, 0.5, 0.5)" fill-opacity="1">Thermal to electric eff. (%)</text><text fill="none" stroke="rgb(0,0,0)" font-family="helvetica" font-size="13px" font-style="italic" font-weight="normal" text-decoration="normal" x="72.286865234375" y="269" text-anchor="start" dominant-baseline="alphabetic" transform="matrix(1, 0, 0, 1, 0.5, 0.5)" stroke-opacity="0" stroke-linejoin="bevel" stroke-miterlimit="10">Thermal to electric eff. (%)</text><path fill="none" stroke="rgb(0,0,0)" paint-order="fill" d="M 52.5 230.5 L 52.5 27.5" stroke-opacity="1" stroke-linejoin="bevel" stroke-miterlimit="10"/><path fill="none" stroke="rgb(0,0,0)" paint-order="fill" d="M 46.5 221.5 L 54.5 221.5 M 46.5 177.5 L 54.5 177.5 M 46.5 132.5 L 54.5 132.5 M 46.5 88.5 L 54.5 88.5 M 46.5 44.5 L 54.5 44.5" stroke-opacity="1" stroke-linejoin="bevel" stroke-miterlimit="10"/><path fill="none" stroke="rgb(0,0,0)" paint-order="fill" d="M 48.5 230.5 L 52.5 230.5 M 48.5 221.5 L 52.5 221.5 M 48.5 212.5 L 52.5 212.5 M 48.5 203.5 L 52.5 203.5 M 48.5 194.5 L 52.5 194.5 M 48.5 185.5 L 52.5 185.5 M 48.5 177.5 L 52.5 177.5 M 48.5 168.5 L 52.5 168.5 M 48.5 159.5 L 52.5 159.5 M 48.5 150.5 L 52.5 150.5 M 48.5 141.5 L 52.5 141.5 M 48.5 132.5 L 52.5 132.5 M 48.5 124.5 L 52.5 124.5 M 48.5 115.5 L 52.5 115.5 M 48.5 106.5 L 52.5 106.5 M 48.5 97.5 L 52.5 97.5 M 48.5 88.5 L 52.5 88.5 M 48.5 79.5 L 52.5 79.5 M 48.5 70.5 L 52.5 70.5 M 48.5 62.5 L 52.5 62.5 M 48.5 53.5 L 52.5 53.5 M 48.5 44.5 L 52.5 44.5 M 48.5 35.5 L 52.5 35.5" stroke-opacity="1" stroke-linejoin="bevel" stroke-miterlimit="10"/><text fill="rgb(68,68,68)" stroke="none" font-family="helvetica" font-size="11px" font-style="normal" font-weight="normal" text-decoration="normal" x="34.88232421875" y="224.77272033691406" text-anchor="start" dominant-baseline="alphabetic" transform="matrix(1, 0, 0, 1, 0.5, 0.5)" fill-opacity="1">0</text><text fill="none" stroke="rgb(0,0,0)" font-family="helvetica" font-size="11px" font-style="normal" font-weight="normal" text-decoration="normal" x="34.88232421875" y="224.77272033691406" text-anchor="start" dominant-baseline="alphabetic" transform="matrix(1, 0, 0, 1, 0.5, 0.5)" stroke-opacity="0" stroke-linejoin="bevel" stroke-miterlimit="10">0</text><text fill="rgb(68,68,68)" stroke="none" font-family="helvetica" font-size="11px" font-style="normal" font-weight="normal" text-decoration="normal" x="25.70849609375" y="180.56805419921875" text-anchor="start" dominant-baseline="alphabetic" transform="matrix(1, 0, 0, 1, 0.5, 0.5)" fill-opacity="1">0.2</text><text fill="none" stroke="rgb(0,0,0)" font-family="helvetica" font-size="11px" font-style="normal" font-weight="normal" text-decoration="normal" x="25.70849609375" y="180.56805419921875" text-anchor="start" dominant-baseline="alphabetic" transform="matrix(1, 0, 0, 1, 0.5, 0.5)" stroke-opacity="0" stroke-linejoin="bevel" stroke-miterlimit="10">0.2</text><text fill="rgb(68,68,68)" stroke="none" font-family="helvetica" font-size="11px" font-style="normal" font-weight="normal" text-decoration="normal" x="25.70849609375" y="136.3634033203125" text-anchor="start" dominant-baseline="alphabetic" transform="matrix(1, 0, 0, 1, 0.5, 0.5)" fill-opacity="1">0.4</text><text fill="none" stroke="rgb(0,0,0)" font-family="helvetica" font-size="11px" font-style="normal" font-weight="normal" text-decoration="normal" x="25.70849609375" y="136.3634033203125" text-anchor="start" dominant-baseline="alphabetic" transform="matrix(1, 0, 0, 1, 0.5, 0.5)" stroke-opacity="0" stroke-linejoin="bevel" stroke-miterlimit="10">0.4</text><text fill="rgb(68,68,68)" stroke="none" font-family="helvetica" font-size="11px" font-style="normal" font-weight="normal" text-decoration="normal" x="25.70849609375" y="92.15872955322266" text-anchor="start" dominant-baseline="alphabetic" transform="matrix(1, 0, 0, 1, 0.5, 0.5)" fill-opacity="1">0.6</text><text fill="none" stroke="rgb(0,0,0)" font-family="helvetica" font-size="11px" font-style="normal" font-weight="normal" text-decoration="normal" x="25.70849609375" y="92.15872955322266" text-anchor="start" dominant-baseline="alphabetic" transform="matrix(1, 0, 0, 1, 0.5, 0.5)" stroke-opacity="0" stroke-linejoin="bevel" stroke-miterlimit="10">0.6</text><text fill="rgb(68,68,68)" stroke="none" font-family="helvetica" font-size="11px" font-style="normal" font-weight="normal" text-decoration="normal" x="25.70849609375" y="47.954063415527344" text-anchor="start" dominant-baseline="alphabetic" transform="matrix(1, 0, 0, 1, 0.5, 0.5)" fill-opacity="1">0.8</text><text fill="none" stroke="rgb(0,0,0)" font-family="helvetica" font-size="11px" font-style="normal" font-weight="normal" text-decoration="normal" x="25.70849609375" y="47.954063415527344" text-anchor="start" dominant-baseline="alphabetic" transform="matrix(1, 0, 0, 1, 0.5, 0.5)" stroke-opacity="0" stroke-linejoin="bevel" stroke-miterlimit="10">0.8</text><text fill="rgb(68,68,68)" stroke="none" font-family="helvetica" font-size="13px" font-style="italic" font-weight="normal" text-decoration="normal" x="-15.175537109375" y="125.5" text-anchor="start" dominant-baseline="alphabetic" transform="matrix(6.123233995736766e-17, -1, 1, 6.123233995736766e-17, -110.29150390625, 146.70849609375)" fill-opacity="1">Confidence</text><text fill="none" stroke="rgb(0,0,0)" font-family="helvetica" font-size="13px" font-style="italic" font-weight="normal" text-decoration="normal" x="-15.175537109375" y="125.5" text-anchor="start" dominant-baseline="alphabetic" transform="matrix(6.123233995736766e-17, -1, 1, 6.123233995736766e-17, -110.29150390625, 146.70849609375)" stroke-opacity="0" stroke-linejoin="bevel" stroke-miterlimit="10">Confidence</text><path fill="rgb(255,249,186)" stroke="rgb(255,0,0)" paint-order="fill" d="M 188.5287296586166 36.72727272727272 L 188.5287296586166 36.72727272727272 L 188.5287296586166 221.27272727272725 L 188.5287296586166 221.27272727272725 L 188.5287296586166 36.72727272727272 Z" fill-opacity="0.4" clip-path="url(#xPiTcUHwoXfl)" stroke-opacity="1" stroke-linejoin="bevel" stroke-miterlimit="10" stroke-width="2" stroke-dasharray="6"/><path fill="rgb(255,249,186)" stroke="rgb(50,205,50)" paint-order="fill" d="M 199.39216838417576 36.72727272727272 L 199.39216838417576 36.72727272727272 L 199.39216838417576 221.27272727272725 L 199.39216838417576 221.27272727272725 L 199.39216838417576 36.72727272727272 Z" fill-opacity="0.4" clip-path="url(#yflGOEyXXNbB)" stroke-opacity="1" stroke-linejoin="bevel" stroke-miterlimit="10" stroke-width="2" stroke-dasharray="6"/><text fill="rgb(68,68,68)" stroke="none" font-family="helvetica" font-size="13px" font-style="normal" font-weight="bold" text-decoration="normal" x="52" y="19" text-anchor="start" dominant-baseline="alphabetic" transform="matrix(1, 0, 0, 1, 0.5, 0.5)" fill-opacity="1">Convergance Probability</text><text fill="none" stroke="rgb(0,0,0)" font-family="helvetica" font-size="13px" font-style="normal" font-weight="bold" text-decoration="normal" x="52" y="19" text-anchor="start" dominant-baseline="alphabetic" transform="matrix(1, 0, 0, 1, 0.5, 0.5)" stroke-opacity="0" stroke-miterlimit="10" stroke-dasharray="">Convergance Probability</text></svg>