<svg version="1.1" xmlns="http://www.w3.org/2000/svg" width="275" height="275"><defs><clipPath id="cMJtOzsXTCPR"><path fill="none" stroke="none" d="M 52.5 27.5 L 245.5 27.5 L 245.5 230.5 L 52.5 230.5 L 52.5 27.5 Z"/></clipPath><clipPath id="kHmZFtOcTOaX"><path fill="none" stroke="none" d="M 52.5 27.5 L 245.5 27.5 L 245.5 230.5 L 52.5 230.5 L 52.5 27.5 Z"/></clipPath><clipPath id="EMlQvuvlSvIc"><path fill="none" stroke="none" d="M 52.5 27.5 L 245.5 27.5 L 245.5 230.5 L 52.5 230.5 L 52.5 27.5 Z"/></clipPath><clipPath id="tNdoWMscmAVk"><path fill="none" stroke="none" d="M 52.5 27.5 L 245.5 27.5 L 245.5 230.5 L 52.5 230.5 L 52.5 27.5 Z"/></clipPath><pattern id="agFdNdMlechx" width="3" height="3" patternUnits="userSpaceOnUse"><path fill="rgb(0,0,0)" stroke="none" paint-order="stroke" d="M 2.75 2 A 0.75 0.75 0 0 0 1.25 2 A 0.75 0.75 0 0 0 2.75 2" fill-opacity="0.14901960784313725"/></pattern><clipPath id="wEQVxVNhIHSW"><path fill="none" stroke="none" d="M 52.5 27.5 L 245.5 27.5 L 245.5 230.5 L 52.5 230.5 L 52.5 27.5 Z"/></clipPath><clipPath id="iGxxRTvSgGCU"><path fill="none" stroke="none" d="M 52.5 27.5 L 245.5 27.5 L 245.5 230.5 L 52.5 230.5 L 52.5 27.5 Z"/></clipPath><clipPath id="WOldzxgRlomE"><path fill="none" stroke="none" d="M 52.5 27.5 L 245.5 27.5 L 245.5 230.5 L 52.5 230.5 L 52.5 27.5 Z"/></clipPath><clipPath id="ahFvcoZiqoXG"><path fill="none" stroke="none" d="M 52.5 27.5 L 245.5 27.5 L 245.5 230.5 L 52.5 230.5 L 52.5 27.5 Z"/></clipPath></defs><path fill="rgb(255,255,255)" stroke="none" paint-order="stroke" d="M 0.5 0.5 L 275.5 0.5 L 275.5 275.5 L 0.5 275.5 L 0.5 0.5 Z" fill-opacity="1"/><rect fill="#FFFFFF" stroke="none" x="52" y="27" width="193" height="203" transform="matrix(1, 0, 0, 1, 0.5, 0.5)"/><path fill="rgb(255,255,255)" stroke="none" paint-order="stroke" d="M 52.5 27.5 L 245.5 27.5 L 245.5 230.5 L 52.5 230.5 L 52.5 27.5 Z" fill-opacity="1"/><path fill="none" stroke="rgb(229,229,229)" paint-order="fill" d="M 52.5 27.5 L 245.5 27.5 L 245.5 230.5 L 52.5 230.5 L 52.5 27.5 Z" stroke-opacity="1" stroke-linejoin="bevel" stroke-miterlimit="10"/><path fill="none" stroke="rgb(229,229,229)" paint-order="fill" d="M 67.5 230.5 L 67.5 27.5 M 101.5 230.5 L 101.5 27.5 M 135.5 230.5 L 135.5 27.5 M 169.5 230.5 L 169.5 27.5 M 203.5 230.5 L 203.5 27.5 M 236.5 230.5 L 236.5 27.5" stroke-opacity="1" stroke-linejoin="bevel" stroke-miterlimit="10" clip-path="url(#cMJtOzsXTCPR)"/><path fill="none" stroke="rgb(229,229,229)" paint-order="fill" d="M 52.5 221.5 L 245.5 221.5 M 52.5 183.5 L 245.5 183.5 M 52.5 144.5 L 245.5 144.5 M 52.5 106.5 L 245.5 106.5 M 52.5 68.5 L 245.5 68.5 M 52.5 30.5 L 245.5 30.5" stroke-opacity="1" stroke-linejoin="bevel" stroke-miterlimit="10" clip-path="url(#kHmZFtOcTOaX)"/><path fill="none" stroke="rgb(0,0,0)" paint-order="fill" d="M 133.4461669921875 40.25455856323242 L 133.4461669921875 71.77664947509766" stroke-opacity="1" stroke-linejoin="bevel" stroke-miterlimit="10" clip-path="url(#EMlQvuvlSvIc)"/><path fill="none" stroke="rgb(0,0,0)" paint-order="fill" d="M 143.1673126220703 29.23007583618164 L 143.1673126220703 44.22446823120117" stroke-opacity="1" stroke-linejoin="bevel" stroke-miterlimit="10" clip-path="url(#EMlQvuvlSvIc)"/><path fill="none" stroke="rgb(0,0,0)" paint-order="fill" d="M 152.88845825195312 31.10329246520996 L 152.88845825195312 44.272789001464844" stroke-opacity="1" stroke-linejoin="bevel" stroke-miterlimit="10" clip-path="url(#EMlQvuvlSvIc)"/><path fill="none" stroke="rgb(0,0,0)" paint-order="fill" d="M 162.60960388183594 25.22327995300293 L 162.60960388183594 51.13657760620117" stroke-opacity="1" stroke-linejoin="bevel" stroke-miterlimit="10" clip-path="url(#EMlQvuvlSvIc)"/><path fill="none" stroke="rgb(0,0,0)" paint-order="fill" d="M 128.4461669921875 40.25455856323242 L 138.4461669921875 40.25455856323242" stroke-opacity="1" stroke-linejoin="bevel" stroke-miterlimit="10" clip-path="url(#EMlQvuvlSvIc)"/><path fill="none" stroke="rgb(0,0,0)" paint-order="fill" d="M 138.1673126220703 29.23007583618164 L 148.1673126220703 29.23007583618164" stroke-opacity="1" stroke-linejoin="bevel" stroke-miterlimit="10" clip-path="url(#EMlQvuvlSvIc)"/><path fill="none" stroke="rgb(0,0,0)" paint-order="fill" d="M 147.88845825195312 31.10329246520996 L 157.88845825195312 31.10329246520996" stroke-opacity="1" stroke-linejoin="bevel" stroke-miterlimit="10" clip-path="url(#EMlQvuvlSvIc)"/><path fill="none" stroke="rgb(0,0,0)" paint-order="fill" d="M 157.60960388183594 25.22327995300293 L 167.60960388183594 25.22327995300293" stroke-opacity="1" stroke-linejoin="bevel" stroke-miterlimit="10" clip-path="url(#EMlQvuvlSvIc)"/><path fill="none" stroke="rgb(0,0,0)" paint-order="fill" d="M 138.4461669921875 71.77664947509766 L 128.4461669921875 71.77664947509766" stroke-opacity="1" stroke-linejoin="bevel" stroke-miterlimit="10" clip-path="url(#EMlQvuvlSvIc)"/><path fill="none" stroke="rgb(0,0,0)" paint-order="fill" d="M 148.1673126220703 44.22446823120117 L 138.1673126220703 44.22446823120117" stroke-opacity="1" stroke-linejoin="bevel" stroke-miterlimit="10" clip-path="url(#EMlQvuvlSvIc)"/><path fill="none" stroke="rgb(0,0,0)" paint-order="fill" d="M 157.88845825195312 44.272789001464844 L 147.88845825195312 44.272789001464844" stroke-opacity="1" stroke-linejoin="bevel" stroke-miterlimit="10" clip-path="url(#EMlQvuvlSvIc)"/><path fill="none" stroke="rgb(0,0,0)" paint-order="fill" d="M 167.60960388183594 51.13657760620117 L 157.60960388183594 51.13657760620117" stroke-opacity="1" stroke-linejoin="bevel" stroke-miterlimit="10" clip-path="url(#EMlQvuvlSvIc)"/><path fill="rgb(128,128,128)" stroke="none" paint-order="stroke" d="M 128.58558654785156 36.727272033691406 L 167.47018432617188 36.727272033691406 L 167.47018432617188 221.27273559570312 L 128.58558654785156 221.27273559570312 L 128.58558654785156 36.727272033691406 Z" fill-opacity="0.10196078431372549" clip-path="url(#tNdoWMscmAVk)"/><path fill="url(#agFdNdMlechx)" stroke="rgb(0,0,0)" paint-order="fill" d="M 128.58558654785156 36.727272033691406 L 167.47018432617188 36.727272033691406 L 167.47018432617188 221.27273559570312 L 128.58558654785156 221.27273559570312 L 128.58558654785156 36.727272033691406 Z" clip-path="url(#tNdoWMscmAVk)" stroke-opacity="0.2" stroke-linejoin="bevel" stroke-miterlimit="10"/><path fill="rgb(100,149,237)" stroke="rgb(31,119,180)" paint-order="fill" d="M 128.58558654785156 56.01560592651367 L 138.30674743652344 56.01560592651367 L 138.30674743652344 221.27272033691406 L 128.58558654785156 221.27272033691406 L 128.58558654785156 56.01560592651367 Z" fill-opacity="0.5019607843137255" clip-path="url(#wEQVxVNhIHSW)" stroke-opacity="0.5019607843137255" stroke-linejoin="bevel" stroke-miterlimit="10"/><path fill="rgb(100,149,237)" stroke="rgb(31,119,180)" paint-order="fill" d="M 138.30673217773438 36.727272033691406 L 148.02789306640625 36.727272033691406 L 148.02789306640625 221.27272033691406 L 138.30673217773438 221.27272033691406 L 138.30673217773438 36.727272033691406 Z" fill-opacity="0.5019607843137255" clip-path="url(#wEQVxVNhIHSW)" stroke-opacity="0.5019607843137255" stroke-linejoin="bevel" stroke-miterlimit="10"/><path fill="rgb(100,149,237)" stroke="rgb(31,119,180)" paint-order="fill" d="M 148.0278778076172 37.68804168701172 L 157.74903869628906 37.68804168701172 L 157.74903869628906 221.27272033691406 L 148.0278778076172 221.27272033691406 L 148.0278778076172 37.68804168701172 Z" fill-opacity="0.5019607843137255" clip-path="url(#wEQVxVNhIHSW)" stroke-opacity="0.5019607843137255" stroke-linejoin="bevel" stroke-miterlimit="10"/><path fill="rgb(100,149,237)" stroke="rgb(31,119,180)" paint-order="fill" d="M 157.7490234375 38.179927825927734 L 167.47018432617188 38.179927825927734 L 167.47018432617188 221.27272033691406 L 157.7490234375 221.27272033691406 L 157.7490234375 38.179927825927734 Z" fill-opacity="0.5019607843137255" clip-path="url(#wEQVxVNhIHSW)" stroke-opacity="0.5019607843137255" stroke-linejoin="bevel" stroke-miterlimit="10"/><path fill="none" stroke="rgb(0,0,0)" paint-order="fill" d="M 52.5 230.5 L 245.5 230.5" stroke-opacity="1" stroke-linejoin="bevel" stroke-miterlimit="10"/><path fill="none" stroke="rgb(0,0,0)" paint-order="fill" d="M 67.5 236.5 L 67.5 228.5 M 101.5 236.5 L 101.5 228.5 M 135.5 236.5 L 135.5 228.5 M 169.5 236.5 L 169.5 228.5 M 203.5 236.5 L 203.5 228.5 M 236.5 236.5 L 236.5 228.5" stroke-opacity="1" stroke-linejoin="bevel" stroke-miterlimit="10"/><path fill="none" stroke="rgb(0,0,0)" paint-order="fill" d="M 60.5 234.5 L 60.5 230.5 M 53.5 234.5 L 53.5 230.5 M 67.5 234.5 L 67.5 230.5 M 73.5 234.5 L 73.5 230.5 M 80.5 234.5 L 80.5 230.5 M 87.5 234.5 L 87.5 230.5 M 94.5 234.5 L 94.5 230.5 M 101.5 234.5 L 101.5 230.5 M 107.5 234.5 L 107.5 230.5 M 114.5 234.5 L 114.5 230.5 M 121.5 234.5 L 121.5 230.5 M 128.5 234.5 L 128.5 230.5 M 135.5 234.5 L 135.5 230.5 M 141.5 234.5 L 141.5 230.5 M 148.5 234.5 L 148.5 230.5 M 155.5 234.5 L 155.5 230.5 M 162.5 234.5 L 162.5 230.5 M 169.5 234.5 L 169.5 230.5 M 175.5 234.5 L 175.5 230.5 M 182.5 234.5 L 182.5 230.5 M 189.5 234.5 L 189.5 230.5 M 196.5 234.5 L 196.5 230.5 M 203.5 234.5 L 203.5 230.5 M 209.5 234.5 L 209.5 230.5 M 216.5 234.5 L 216.5 230.5 M 223.5 234.5 L 223.5 230.5 M 230.5 234.5 L 230.5 230.5 M 236.5 234.5 L 236.5 230.5 M 243.5 234.5 L 243.5 230.5" stroke-opacity="1" stroke-linejoin="bevel" stroke-miterlimit="10"/><text fill="rgb(68,68,68)" stroke="none" font-family="helvetica" font-size="11px" font-style="normal" font-weight="normal" text-decoration="normal" x="55.96372985839844" y="249" text-anchor="start" dominant-baseline="alphabetic" transform="matrix(1, 0, 0, 1, 0.5, 0.5)" fill-opacity="1">0.86</text><text fill="none" stroke="rgb(0,0,0)" font-family="helvetica" font-size="11px" font-style="normal" font-weight="normal" text-decoration="normal" x="55.96372985839844" y="249" text-anchor="start" dominant-baseline="alphabetic" transform="matrix(1, 0, 0, 1, 0.5, 0.5)" stroke-opacity="0" stroke-linejoin="bevel" stroke-miterlimit="10">0.86</text><text fill="rgb(68,68,68)" stroke="none" font-family="helvetica" font-size="11px" font-style="normal" font-weight="normal" text-decoration="normal" x="89.92406463623047" y="249" text-anchor="start" dominant-baseline="alphabetic" transform="matrix(1, 0, 0, 1, 0.5, 0.5)" fill-opacity="1">0.88</text><text fill="none" stroke="rgb(0,0,0)" font-family="helvetica" font-size="11px" font-style="normal" font-weight="normal" text-decoration="normal" x="89.92406463623047" y="249" text-anchor="start" dominant-baseline="alphabetic" transform="matrix(1, 0, 0, 1, 0.5, 0.5)" stroke-opacity="0" stroke-linejoin="bevel" stroke-miterlimit="10">0.88</text><text fill="rgb(68,68,68)" stroke="none" font-family="helvetica" font-size="11px" font-style="normal" font-weight="normal" text-decoration="normal" x="126.9432373046875" y="249" text-anchor="start" dominant-baseline="alphabetic" transform="matrix(1, 0, 0, 1, 0.5, 0.5)" fill-opacity="1">0.9</text><text fill="none" stroke="rgb(0,0,0)" font-family="helvetica" font-size="11px" font-style="normal" font-weight="normal" text-decoration="normal" x="126.9432373046875" y="249" text-anchor="start" dominant-baseline="alphabetic" transform="matrix(1, 0, 0, 1, 0.5, 0.5)" stroke-opacity="0" stroke-linejoin="bevel" stroke-miterlimit="10">0.9</text><text fill="rgb(68,68,68)" stroke="none" font-family="helvetica" font-size="11px" font-style="normal" font-weight="normal" text-decoration="normal" x="157.84474182128906" y="249" text-anchor="start" dominant-baseline="alphabetic" transform="matrix(1, 0, 0, 1, 0.5, 0.5)" fill-opacity="1">0.92</text><text fill="none" stroke="rgb(0,0,0)" font-family="helvetica" font-size="11px" font-style="normal" font-weight="normal" text-decoration="normal" x="157.84474182128906" y="249" text-anchor="start" dominant-baseline="alphabetic" transform="matrix(1, 0, 0, 1, 0.5, 0.5)" stroke-opacity="0" stroke-linejoin="bevel" stroke-miterlimit="10">0.92</text><text fill="rgb(68,68,68)" stroke="none" font-family="helvetica" font-size="11px" font-style="normal" font-weight="normal" text-decoration="normal" x="191.80508422851562" y="249" text-anchor="start" dominant-baseline="alphabetic" transform="matrix(1, 0, 0, 1, 0.5, 0.5)" fill-opacity="1">0.94</text><text fill="none" stroke="rgb(0,0,0)" font-family="helvetica" font-size="11px" font-style="normal" font-weight="normal" text-decoration="normal" x="191.80508422851562" y="249" text-anchor="start" dominant-baseline="alphabetic" transform="matrix(1, 0, 0, 1, 0.5, 0.5)" stroke-opacity="0" stroke-linejoin="bevel" stroke-miterlimit="10">0.94</text><text fill="rgb(68,68,68)" stroke="none" font-family="helvetica" font-size="11px" font-style="normal" font-weight="normal" text-decoration="normal" x="225.7654266357422" y="249" text-anchor="start" dominant-baseline="alphabetic" transform="matrix(1, 0, 0, 1, 0.5, 0.5)" fill-opacity="1">0.96</text><text fill="none" stroke="rgb(0,0,0)" font-family="helvetica" font-size="11px" font-style="normal" font-weight="normal" text-decoration="normal" x="225.7654266357422" y="249" text-anchor="start" dominant-baseline="alphabetic" transform="matrix(1, 0, 0, 1, 0.5, 0.5)" stroke-opacity="0" stroke-linejoin="bevel" stroke-miterlimit="10">0.96</text><text fill="rgb(68,68,68)" stroke="none" font-family="helvetica" font-size="13px" font-style="italic" font-weight="normal" text-decoration="normal" x="129.352294921875" y="269" text-anchor="start" dominant-baseline="alphabetic" transform="matrix(1, 0, 0, 1, 0.5, 0.5)" fill-opacity="1">fcutfsu</text><text fill="none" stroke="rgb(0,0,0)" font-family="helvetica" font-size="13px" font-style="italic" font-weight="normal" text-decoration="normal" x="129.352294921875" y="269" text-anchor="start" dominant-baseline="alphabetic" transform="matrix(1, 0, 0, 1, 0.5, 0.5)" stroke-opacity="0" stroke-linejoin="bevel" stroke-miterlimit="10">fcutfsu</text><path fill="none" stroke="rgb(0,0,0)" paint-order="fill" d="M 52.5 230.5 L 52.5 27.5" stroke-opacity="1" stroke-linejoin="bevel" stroke-miterlimit="10"/><path fill="none" stroke="rgb(0,0,0)" paint-order="fill" d="M 46.5 221.5 L 54.5 221.5 M 46.5 183.5 L 54.5 183.5 M 46.5 144.5 L 54.5 144.5 M 46.5 106.5 L 54.5 106.5 M 46.5 68.5 L 54.5 68.5 M 46.5 30.5 L 54.5 30.5" stroke-opacity="1" stroke-linejoin="bevel" stroke-miterlimit="10"/><path fill="none" stroke="rgb(0,0,0)" paint-order="fill" d="M 48.5 228.5 L 52.5 228.5 M 48.5 221.5 L 52.5 221.5 M 48.5 213.5 L 52.5 213.5 M 48.5 205.5 L 52.5 205.5 M 48.5 198.5 L 52.5 198.5 M 48.5 190.5 L 52.5 190.5 M 48.5 183.5 L 52.5 183.5 M 48.5 175.5 L 52.5 175.5 M 48.5 167.5 L 52.5 167.5 M 48.5 160.5 L 52.5 160.5 M 48.5 152.5 L 52.5 152.5 M 48.5 144.5 L 52.5 144.5 M 48.5 137.5 L 52.5 137.5 M 48.5 129.5 L 52.5 129.5 M 48.5 121.5 L 52.5 121.5 M 48.5 114.5 L 52.5 114.5 M 48.5 106.5 L 52.5 106.5 M 48.5 99.5 L 52.5 99.5 M 48.5 91.5 L 52.5 91.5 M 48.5 83.5 L 52.5 83.5 M 48.5 76.5 L 52.5 76.5 M 48.5 68.5 L 52.5 68.5 M 48.5 60.5 L 52.5 60.5 M 48.5 53.5 L 52.5 53.5 M 48.5 45.5 L 52.5 45.5 M 48.5 37.5 L 52.5 37.5 M 48.5 30.5 L 52.5 30.5" stroke-opacity="1" stroke-linejoin="bevel" stroke-miterlimit="10"/><text fill="rgb(68,68,68)" stroke="none" font-family="helvetica" font-size="11px" font-style="normal" font-weight="normal" text-decoration="normal" x="34.88232421875" y="224.77272033691406" text-anchor="start" dominant-baseline="alphabetic" transform="matrix(1, 0, 0, 1, 0.5, 0.5)" fill-opacity="1">0</text><text fill="none" stroke="rgb(0,0,0)" font-family="helvetica" font-size="11px" font-style="normal" font-weight="normal" text-decoration="normal" x="34.88232421875" y="224.77272033691406" text-anchor="start" dominant-baseline="alphabetic" transform="matrix(1, 0, 0, 1, 0.5, 0.5)" stroke-opacity="0" stroke-linejoin="bevel" stroke-miterlimit="10">0</text><text fill="rgb(68,68,68)" stroke="none" font-family="helvetica" font-size="11px" font-style="normal" font-weight="normal" text-decoration="normal" x="25.70849609375" y="186.57359313964844" text-anchor="start" dominant-baseline="alphabetic" transform="matrix(1, 0, 0, 1, 0.5, 0.5)" fill-opacity="1">0.2</text><text fill="none" stroke="rgb(0,0,0)" font-family="helvetica" font-size="11px" font-style="normal" font-weight="normal" text-decoration="normal" x="25.70849609375" y="186.57359313964844" text-anchor="start" dominant-baseline="alphabetic" transform="matrix(1, 0, 0, 1, 0.5, 0.5)" stroke-opacity="0" stroke-linejoin="bevel" stroke-miterlimit="10">0.2</text><text fill="rgb(68,68,68)" stroke="none" font-family="helvetica" font-size="11px" font-style="normal" font-weight="normal" text-decoration="normal" x="25.70849609375" y="148.3744659423828" text-anchor="start" dominant-baseline="alphabetic" transform="matrix(1, 0, 0, 1, 0.5, 0.5)" fill-opacity="1">0.4</text><text fill="none" stroke="rgb(0,0,0)" font-family="helvetica" font-size="11px" font-style="normal" font-weight="normal" text-decoration="normal" x="25.70849609375" y="148.3744659423828" text-anchor="start" dominant-baseline="alphabetic" transform="matrix(1, 0, 0, 1, 0.5, 0.5)" stroke-opacity="0" stroke-linejoin="bevel" stroke-miterlimit="10">0.4</text><text fill="rgb(68,68,68)" stroke="none" font-family="helvetica" font-size="11px" font-style="normal" font-weight="normal" text-decoration="normal" x="25.70849609375" y="110.17532348632812" text-anchor="start" dominant-baseline="alphabetic" transform="matrix(1, 0, 0, 1, 0.5, 0.5)" fill-opacity="1">0.6</text><text fill="none" stroke="rgb(0,0,0)" font-family="helvetica" font-size="11px" font-style="normal" font-weight="normal" text-decoration="normal" x="25.70849609375" y="110.17532348632812" text-anchor="start" dominant-baseline="alphabetic" transform="matrix(1, 0, 0, 1, 0.5, 0.5)" stroke-opacity="0" stroke-linejoin="bevel" stroke-miterlimit="10">0.6</text><text fill="rgb(68,68,68)" stroke="none" font-family="helvetica" font-size="11px" font-style="normal" font-weight="normal" text-decoration="normal" x="25.70849609375" y="71.97618865966797" text-anchor="start" dominant-baseline="alphabetic" transform="matrix(1, 0, 0, 1, 0.5, 0.5)" fill-opacity="1">0.8</text><text fill="none" stroke="rgb(0,0,0)" font-family="helvetica" font-size="11px" font-style="normal" font-weight="normal" text-decoration="normal" x="25.70849609375" y="71.97618865966797" text-anchor="start" dominant-baseline="alphabetic" transform="matrix(1, 0, 0, 1, 0.5, 0.5)" stroke-opacity="0" stroke-linejoin="bevel" stroke-miterlimit="10">0.8</text><text fill="rgb(68,68,68)" stroke="none" font-family="helvetica" font-size="11px" font-style="normal" font-weight="normal" text-decoration="normal" x="34.88232421875" y="33.77705764770508" text-anchor="start" dominant-baseline="alphabetic" transform="matrix(1, 0, 0, 1, 0.5, 0.5)" fill-opacity="1">1</text><text fill="none" stroke="rgb(0,0,0)" font-family="helvetica" font-size="11px" font-style="normal" font-weight="normal" text-decoration="normal" x="34.88232421875" y="33.77705764770508" text-anchor="start" dominant-baseline="alphabetic" transform="matrix(1, 0, 0, 1, 0.5, 0.5)" stroke-opacity="0" stroke-linejoin="bevel" stroke-miterlimit="10">1</text><text fill="rgb(68,68,68)" stroke="none" font-family="helvetica" font-size="13px" font-style="italic" font-weight="normal" text-decoration="normal" x="-47.31689453125" y="125.5" text-anchor="start" dominant-baseline="alphabetic" transform="matrix(6.123233995736766e-17, -1, 1, 6.123233995736766e-17, -110.29150390625, 146.70849609375)" fill-opacity="1">Normalised Probability</text><text fill="none" stroke="rgb(0,0,0)" font-family="helvetica" font-size="13px" font-style="italic" font-weight="normal" text-decoration="normal" x="-47.31689453125" y="125.5" text-anchor="start" dominant-baseline="alphabetic" transform="matrix(6.123233995736766e-17, -1, 1, 6.123233995736766e-17, -110.29150390625, 146.70849609375)" stroke-opacity="0" stroke-linejoin="bevel" stroke-miterlimit="10">Normalised Probability</text><path fill="rgb(255,249,186)" stroke="rgb(255,0,0)" paint-order="fill" d="M 149.27979340517777 36.72727272727272 L 149.27979340517777 36.72727272727272 L 149.27979340517777 221.27272727272725 L 149.27979340517777 221.27272727272725 L 149.27979340517777 36.72727272727272 Z" fill-opacity="0.4" clip-path="url(#iGxxRTvSgGCU)" stroke-opacity="1" stroke-linejoin="bevel" stroke-miterlimit="10" stroke-width="2" stroke-dasharray="6"/><path fill="rgb(255,249,186)" stroke="rgb(50,205,50)" paint-order="fill" d="M 143.16731185444564 36.72727272727272 L 143.16731185444564 36.72727272727272 L 143.16731185444564 221.27272727272725 L 143.16731185444564 221.27272727272725 L 143.16731185444564 36.72727272727272 Z" fill-opacity="0.4" clip-path="url(#WOldzxgRlomE)" stroke-opacity="1" stroke-linejoin="bevel" stroke-miterlimit="10" stroke-width="2" stroke-dasharray="6"/><text fill="rgb(68,68,68)" stroke="none" font-family="helvetica" font-size="13px" font-style="normal" font-weight="bold" text-decoration="normal" x="52" y="19" text-anchor="start" dominant-baseline="alphabetic" transform="matrix(1, 0, 0, 1, 0.5, 0.5)" fill-opacity="1">Convergance Probability</text><text fill="none" stroke="rgb(0,0,0)" font-family="helvetica" font-size="13px" font-style="normal" font-weight="bold" text-decoration="normal" x="52" y="19" text-anchor="start" dominant-baseline="alphabetic" transform="matrix(1, 0, 0, 1, 0.5, 0.5)" stroke-opacity="0" stroke-miterlimit="10" stroke-dasharray="">Convergance Probability</text></svg>