<svg version="1.1" xmlns="http://www.w3.org/2000/svg" width="250" height="250"><defs><clipPath id="bIWRUyqtMyUb"><path fill="none" stroke="none" d="M 52.5 27.5 L 220.5 27.5 L 220.5 205.5 L 52.5 205.5 L 52.5 27.5 Z"/></clipPath><clipPath id="QEMFBmcoWfll"><path fill="none" stroke="none" d="M 52.5 27.5 L 220.5 27.5 L 220.5 205.5 L 52.5 205.5 L 52.5 27.5 Z"/></clipPath><clipPath id="xvrdxxHSuNdr"><path fill="none" stroke="none" d="M 52.5 27.5 L 220.5 27.5 L 220.5 205.5 L 52.5 205.5 L 52.5 27.5 Z"/></clipPath><clipPath id="IDGdTutcuAfF"><path fill="none" stroke="none" d="M 52.5 27.5 L 220.5 27.5 L 220.5 205.5 L 52.5 205.5 L 52.5 27.5 Z"/></clipPath><pattern id="MTTcFQvWeRsU" width="3" height="3" patternUnits="userSpaceOnUse"><path fill="rgb(0,0,0)" stroke="none" paint-order="stroke" d="M 2.75 2 A 0.75 0.75 0 0 0 1.25 2 A 0.75 0.75 0 0 0 2.75 2" fill-opacity="0.14901960784313725"/></pattern><clipPath id="mOwokNuDxRTe"><path fill="none" stroke="none" d="M 52.5 27.5 L 220.5 27.5 L 220.5 205.5 L 52.5 205.5 L 52.5 27.5 Z"/></clipPath><clipPath id="JeuBgONCdPwK"><path fill="none" stroke="none" d="M 52.5 27.5 L 220.5 27.5 L 220.5 205.5 L 52.5 205.5 L 52.5 27.5 Z"/></clipPath><clipPath id="wmXfHrOLWnrh"><path fill="none" stroke="none" d="M 52.5 27.5 L 220.5 27.5 L 220.5 205.5 L 52.5 205.5 L 52.5 27.5 Z"/></clipPath><clipPath id="nKrECwmKCiBe"><path fill="none" stroke="none" d="M 52.5 27.5 L 220.5 27.5 L 220.5 205.5 L 52.5 205.5 L 52.5 27.5 Z"/></clipPath></defs><path fill="rgb(255,255,255)" stroke="none" paint-order="stroke" d="M 0.5 0.5 L 250.5 0.5 L 250.5 250.5 L 0.5 250.5 L 0.5 0.5 Z" fill-opacity="1"/><rect fill="#FFFFFF" stroke="none" x="52" y="27" width="168" height="178" transform="matrix(1, 0, 0, 1, 0.5, 0.5)"/><path fill="rgb(255,255,255)" stroke="none" paint-order="stroke" d="M 52.5 27.5 L 220.5 27.5 L 220.5 205.5 L 52.5 205.5 L 52.5 27.5 Z" fill-opacity="1"/><path fill="none" stroke="rgb(229,229,229)" paint-order="fill" d="M 52.5 27.5 L 220.5 27.5 L 220.5 205.5 L 52.5 205.5 L 52.5 27.5 Z" stroke-opacity="1" stroke-linejoin="bevel" stroke-miterlimit="10"/><path fill="none" stroke="rgb(229,229,229)" paint-order="fill" d="M 56.5 205.5 L 56.5 27.5 M 82.5 205.5 L 82.5 27.5 M 108.5 205.5 L 108.5 27.5 M 134.5 205.5 L 134.5 27.5 M 160.5 205.5 L 160.5 27.5 M 185.5 205.5 L 185.5 27.5 M 211.5 205.5 L 211.5 27.5" stroke-opacity="1" stroke-linejoin="bevel" stroke-miterlimit="10" clip-path="url(#bIWRUyqtMyUb)"/><path fill="none" stroke="rgb(229,229,229)" paint-order="fill" d="M 52.5 197.5 L 220.5 197.5 M 52.5 166.5 L 220.5 166.5 M 52.5 136.5 L 220.5 136.5 M 52.5 105.5 L 220.5 105.5 M 52.5 74.5 L 220.5 74.5 M 52.5 44.5 L 220.5 44.5" stroke-opacity="1" stroke-linejoin="bevel" stroke-miterlimit="10" clip-path="url(#QEMFBmcoWfll)"/><path fill="none" stroke="rgb(0,0,0)" paint-order="fill" d="M 108.04126739501953 20.273786544799805 L 108.04126739501953 50.90803146362305" stroke-opacity="1" stroke-linejoin="bevel" stroke-miterlimit="10" clip-path="url(#xvrdxxHSuNdr)"/><path fill="none" stroke="rgb(0,0,0)" paint-order="fill" d="M 159.784423828125 39.61407470703125 L 159.784423828125 68.24653625488281" stroke-opacity="1" stroke-linejoin="bevel" stroke-miterlimit="10" clip-path="url(#xvrdxxHSuNdr)"/><path fill="none" stroke="rgb(0,0,0)" paint-order="fill" d="" stroke-opacity="1" stroke-linejoin="bevel" stroke-miterlimit="10" clip-path="url(#xvrdxxHSuNdr)"/><path fill="none" stroke="rgb(0,0,0)" paint-order="fill" d="M 103.04126739501953 20.273786544799805 L 113.04126739501953 20.273786544799805" stroke-opacity="1" stroke-linejoin="bevel" stroke-miterlimit="10" clip-path="url(#xvrdxxHSuNdr)"/><path fill="none" stroke="rgb(0,0,0)" paint-order="fill" d="M 154.784423828125 39.61407470703125 L 164.784423828125 39.61407470703125" stroke-opacity="1" stroke-linejoin="bevel" stroke-miterlimit="10" clip-path="url(#xvrdxxHSuNdr)"/><path fill="none" stroke="rgb(0,0,0)" paint-order="fill" d="M -4.5 0.5000000000000007 L 5.5 0.4999999999999994" stroke-opacity="1" stroke-linejoin="bevel" stroke-miterlimit="10" clip-path="url(#xvrdxxHSuNdr)"/><path fill="none" stroke="rgb(0,0,0)" paint-order="fill" d="M 113.04126739501953 50.90803146362305 L 103.04126739501953 50.90803146362305" stroke-opacity="1" stroke-linejoin="bevel" stroke-miterlimit="10" clip-path="url(#xvrdxxHSuNdr)"/><path fill="none" stroke="rgb(0,0,0)" paint-order="fill" d="M 164.784423828125 68.24653625488281 L 154.784423828125 68.24653625488281" stroke-opacity="1" stroke-linejoin="bevel" stroke-miterlimit="10" clip-path="url(#xvrdxxHSuNdr)"/><path fill="none" stroke="rgb(0,0,0)" paint-order="fill" d="M 5.5 0.5 L -4.5 0.5" stroke-opacity="1" stroke-linejoin="bevel" stroke-miterlimit="10" clip-path="url(#xvrdxxHSuNdr)"/><path fill="rgb(128,128,128)" stroke="none" paint-order="stroke" d="M 82.16969299316406 35.590911865234375 L 185.65599060058594 35.590911865234375 L 185.65599060058594 197.40908813476562 L 82.16969299316406 197.40908813476562 L 82.16969299316406 35.590911865234375 Z" fill-opacity="0.10196078431372549" clip-path="url(#IDGdTutcuAfF)"/><path fill="url(#MTTcFQvWeRsU)" stroke="rgb(0,0,0)" paint-order="fill" d="M 82.16969299316406 35.590911865234375 L 185.65599060058594 35.590911865234375 L 185.65599060058594 197.40908813476562 L 82.16969299316406 197.40908813476562 L 82.16969299316406 35.590911865234375 Z" clip-path="url(#IDGdTutcuAfF)" stroke-opacity="0.2" stroke-linejoin="bevel" stroke-miterlimit="10"/><path fill="rgb(100,149,237)" stroke="rgb(31,119,180)" paint-order="fill" d="M 82.16969299316406 35.59090805053711 L 133.912841796875 35.59090805053711 L 133.912841796875 197.40908813476562 L 82.16969299316406 197.40908813476562 L 82.16969299316406 35.59090805053711 Z" fill-opacity="0.5019607843137255" clip-path="url(#mOwokNuDxRTe)" stroke-opacity="0.5019607843137255" stroke-linejoin="bevel" stroke-miterlimit="10"/><path fill="rgb(100,149,237)" stroke="rgb(31,119,180)" paint-order="fill" d="M 133.912841796875 53.930301666259766 L 185.656005859375 53.930301666259766 L 185.656005859375 197.40908813476562 L 133.912841796875 197.40908813476562 L 133.912841796875 53.930301666259766 Z" fill-opacity="0.5019607843137255" clip-path="url(#mOwokNuDxRTe)" stroke-opacity="0.5019607843137255" stroke-linejoin="bevel" stroke-miterlimit="10"/><path fill="rgb(100,149,237)" stroke="rgb(31,119,180)" paint-order="fill" d="M 185.65599060058594 197.40908813476562 L 220.5 197.40908813476562 L 220.5 197.40908813476562 L 185.65599060058594 197.40908813476562 L 185.65599060058594 197.40908813476562 Z" fill-opacity="0.5019607843137255" clip-path="url(#mOwokNuDxRTe)" stroke-opacity="0.5019607843137255" stroke-linejoin="bevel" stroke-miterlimit="10"/><path fill="none" stroke="rgb(0,0,0)" paint-order="fill" d="M 52.5 205.5 L 220.5 205.5" stroke-opacity="1" stroke-linejoin="bevel" stroke-miterlimit="10"/><path fill="none" stroke="rgb(0,0,0)" paint-order="fill" d="M 56.5 211.5 L 56.5 203.5 M 82.5 211.5 L 82.5 203.5 M 108.5 211.5 L 108.5 203.5 M 134.5 211.5 L 134.5 203.5 M 160.5 211.5 L 160.5 203.5 M 185.5 211.5 L 185.5 203.5 M 211.5 211.5 L 211.5 203.5" stroke-opacity="1" stroke-linejoin="bevel" stroke-miterlimit="10"/><path fill="none" stroke="rgb(0,0,0)" paint-order="fill" d="M 56.5 209.5 L 56.5 205.5 M 61.5 209.5 L 61.5 205.5 M 67.5 209.5 L 67.5 205.5 M 72.5 209.5 L 72.5 205.5 M 77.5 209.5 L 77.5 205.5 M 82.5 209.5 L 82.5 205.5 M 87.5 209.5 L 87.5 205.5 M 92.5 209.5 L 92.5 205.5 M 98.5 209.5 L 98.5 205.5 M 103.5 209.5 L 103.5 205.5 M 108.5 209.5 L 108.5 205.5 M 113.5 209.5 L 113.5 205.5 M 118.5 209.5 L 118.5 205.5 M 123.5 209.5 L 123.5 205.5 M 129.5 209.5 L 129.5 205.5 M 134.5 209.5 L 134.5 205.5 M 139.5 209.5 L 139.5 205.5 M 144.5 209.5 L 144.5 205.5 M 149.5 209.5 L 149.5 205.5 M 154.5 209.5 L 154.5 205.5 M 160.5 209.5 L 160.5 205.5 M 165.5 209.5 L 165.5 205.5 M 170.5 209.5 L 170.5 205.5 M 175.5 209.5 L 175.5 205.5 M 180.5 209.5 L 180.5 205.5 M 185.5 209.5 L 185.5 205.5 M 191.5 209.5 L 191.5 205.5 M 196.5 209.5 L 196.5 205.5 M 201.5 209.5 L 201.5 205.5 M 206.5 209.5 L 206.5 205.5 M 211.5 209.5 L 211.5 205.5 M 216.5 209.5 L 216.5 205.5" stroke-opacity="1" stroke-linejoin="bevel" stroke-miterlimit="10"/><text fill="rgb(68,68,68)" stroke="none" font-family="helvetica" font-size="11px" font-style="normal" font-weight="normal" text-decoration="normal" x="45.609920501708984" y="224" text-anchor="start" dominant-baseline="alphabetic" transform="matrix(1, 0, 0, 1, 0.5, 0.5)" fill-opacity="1">0.44</text><text fill="none" stroke="rgb(0,0,0)" font-family="helvetica" font-size="11px" font-style="normal" font-weight="normal" text-decoration="normal" x="45.609920501708984" y="224" text-anchor="start" dominant-baseline="alphabetic" transform="matrix(1, 0, 0, 1, 0.5, 0.5)" stroke-opacity="0" stroke-linejoin="bevel" stroke-miterlimit="10">0.44</text><text fill="rgb(68,68,68)" stroke="none" font-family="helvetica" font-size="11px" font-style="normal" font-weight="normal" text-decoration="normal" x="71.42985534667969" y="224" text-anchor="start" dominant-baseline="alphabetic" transform="matrix(1, 0, 0, 1, 0.5, 0.5)" fill-opacity="1">0.46</text><text fill="none" stroke="rgb(0,0,0)" font-family="helvetica" font-size="11px" font-style="normal" font-weight="normal" text-decoration="normal" x="71.42985534667969" y="224" text-anchor="start" dominant-baseline="alphabetic" transform="matrix(1, 0, 0, 1, 0.5, 0.5)" stroke-opacity="0" stroke-linejoin="bevel" stroke-miterlimit="10">0.46</text><text fill="rgb(68,68,68)" stroke="none" font-family="helvetica" font-size="11px" font-style="normal" font-weight="normal" text-decoration="normal" x="97.24979400634766" y="224" text-anchor="start" dominant-baseline="alphabetic" transform="matrix(1, 0, 0, 1, 0.5, 0.5)" fill-opacity="1">0.48</text><text fill="none" stroke="rgb(0,0,0)" font-family="helvetica" font-size="11px" font-style="normal" font-weight="normal" text-decoration="normal" x="97.24979400634766" y="224" text-anchor="start" dominant-baseline="alphabetic" transform="matrix(1, 0, 0, 1, 0.5, 0.5)" stroke-opacity="0" stroke-linejoin="bevel" stroke-miterlimit="10">0.48</text><text fill="rgb(68,68,68)" stroke="none" font-family="helvetica" font-size="11px" font-style="normal" font-weight="normal" text-decoration="normal" x="126.12857055664062" y="224" text-anchor="start" dominant-baseline="alphabetic" transform="matrix(1, 0, 0, 1, 0.5, 0.5)" fill-opacity="1">0.5</text><text fill="none" stroke="rgb(0,0,0)" font-family="helvetica" font-size="11px" font-style="normal" font-weight="normal" text-decoration="normal" x="126.12857055664062" y="224" text-anchor="start" dominant-baseline="alphabetic" transform="matrix(1, 0, 0, 1, 0.5, 0.5)" stroke-opacity="0" stroke-linejoin="bevel" stroke-miterlimit="10">0.5</text><text fill="rgb(68,68,68)" stroke="none" font-family="helvetica" font-size="11px" font-style="normal" font-weight="normal" text-decoration="normal" x="148.88966369628906" y="224" text-anchor="start" dominant-baseline="alphabetic" transform="matrix(1, 0, 0, 1, 0.5, 0.5)" fill-opacity="1">0.52</text><text fill="none" stroke="rgb(0,0,0)" font-family="helvetica" font-size="11px" font-style="normal" font-weight="normal" text-decoration="normal" x="148.88966369628906" y="224" text-anchor="start" dominant-baseline="alphabetic" transform="matrix(1, 0, 0, 1, 0.5, 0.5)" stroke-opacity="0" stroke-linejoin="bevel" stroke-miterlimit="10">0.52</text><text fill="rgb(68,68,68)" stroke="none" font-family="helvetica" font-size="11px" font-style="normal" font-weight="normal" text-decoration="normal" x="174.70960998535156" y="224" text-anchor="start" dominant-baseline="alphabetic" transform="matrix(1, 0, 0, 1, 0.5, 0.5)" fill-opacity="1">0.54</text><text fill="none" stroke="rgb(0,0,0)" font-family="helvetica" font-size="11px" font-style="normal" font-weight="normal" text-decoration="normal" x="174.70960998535156" y="224" text-anchor="start" dominant-baseline="alphabetic" transform="matrix(1, 0, 0, 1, 0.5, 0.5)" stroke-opacity="0" stroke-linejoin="bevel" stroke-miterlimit="10">0.54</text><text fill="rgb(68,68,68)" stroke="none" font-family="helvetica" font-size="11px" font-style="normal" font-weight="normal" text-decoration="normal" x="200.529541015625" y="224" text-anchor="start" dominant-baseline="alphabetic" transform="matrix(1, 0, 0, 1, 0.5, 0.5)" fill-opacity="1">0.56</text><text fill="none" stroke="rgb(0,0,0)" font-family="helvetica" font-size="11px" font-style="normal" font-weight="normal" text-decoration="normal" x="200.529541015625" y="224" text-anchor="start" dominant-baseline="alphabetic" transform="matrix(1, 0, 0, 1, 0.5, 0.5)" stroke-opacity="0" stroke-linejoin="bevel" stroke-miterlimit="10">0.56</text><text fill="rgb(68,68,68)" stroke="none" font-family="helvetica" font-size="13px" font-style="italic" font-weight="normal" text-decoration="normal" x="113.240478515625" y="244" text-anchor="start" dominant-baseline="alphabetic" transform="matrix(1, 0, 0, 1, 0.5, 0.5)" fill-opacity="1">fvsbrnni</text><text fill="none" stroke="rgb(0,0,0)" font-family="helvetica" font-size="13px" font-style="italic" font-weight="normal" text-decoration="normal" x="113.240478515625" y="244" text-anchor="start" dominant-baseline="alphabetic" transform="matrix(1, 0, 0, 1, 0.5, 0.5)" stroke-opacity="0" stroke-linejoin="bevel" stroke-miterlimit="10">fvsbrnni</text><path fill="none" stroke="rgb(0,0,0)" paint-order="fill" d="M 52.5 205.5 L 52.5 27.5" stroke-opacity="1" stroke-linejoin="bevel" stroke-miterlimit="10"/><path fill="none" stroke="rgb(0,0,0)" paint-order="fill" d="M 46.5 197.5 L 54.5 197.5 M 46.5 166.5 L 54.5 166.5 M 46.5 136.5 L 54.5 136.5 M 46.5 105.5 L 54.5 105.5 M 46.5 74.5 L 54.5 74.5 M 46.5 44.5 L 54.5 44.5" stroke-opacity="1" stroke-linejoin="bevel" stroke-miterlimit="10"/><path fill="none" stroke="rgb(0,0,0)" paint-order="fill" d="M 48.5 203.5 L 52.5 203.5 M 48.5 197.5 L 52.5 197.5 M 48.5 191.5 L 52.5 191.5 M 48.5 185.5 L 52.5 185.5 M 48.5 179.5 L 52.5 179.5 M 48.5 172.5 L 52.5 172.5 M 48.5 166.5 L 52.5 166.5 M 48.5 160.5 L 52.5 160.5 M 48.5 154.5 L 52.5 154.5 M 48.5 148.5 L 52.5 148.5 M 48.5 142.5 L 52.5 142.5 M 48.5 136.5 L 52.5 136.5 M 48.5 129.5 L 52.5 129.5 M 48.5 123.5 L 52.5 123.5 M 48.5 117.5 L 52.5 117.5 M 48.5 111.5 L 52.5 111.5 M 48.5 105.5 L 52.5 105.5 M 48.5 99.5 L 52.5 99.5 M 48.5 93.5 L 52.5 93.5 M 48.5 87.5 L 52.5 87.5 M 48.5 80.5 L 52.5 80.5 M 48.5 74.5 L 52.5 74.5 M 48.5 68.5 L 52.5 68.5 M 48.5 62.5 L 52.5 62.5 M 48.5 56.5 L 52.5 56.5 M 48.5 50.5 L 52.5 50.5 M 48.5 44.5 L 52.5 44.5 M 48.5 38.5 L 52.5 38.5 M 48.5 31.5 L 52.5 31.5" stroke-opacity="1" stroke-linejoin="bevel" stroke-miterlimit="10"/><text fill="rgb(68,68,68)" stroke="none" font-family="helvetica" font-size="11px" font-style="normal" font-weight="normal" text-decoration="normal" x="34.88232421875" y="200.90908813476562" text-anchor="start" dominant-baseline="alphabetic" transform="matrix(1, 0, 0, 1, 0.5, 0.5)" fill-opacity="1">0</text><text fill="none" stroke="rgb(0,0,0)" font-family="helvetica" font-size="11px" font-style="normal" font-weight="normal" text-decoration="normal" x="34.88232421875" y="200.90908813476562" text-anchor="start" dominant-baseline="alphabetic" transform="matrix(1, 0, 0, 1, 0.5, 0.5)" stroke-opacity="0" stroke-linejoin="bevel" stroke-miterlimit="10">0</text><text fill="rgb(68,68,68)" stroke="none" font-family="helvetica" font-size="11px" font-style="normal" font-weight="normal" text-decoration="normal" x="25.70849609375" y="170.26031494140625" text-anchor="start" dominant-baseline="alphabetic" transform="matrix(1, 0, 0, 1, 0.5, 0.5)" fill-opacity="1">0.1</text><text fill="none" stroke="rgb(0,0,0)" font-family="helvetica" font-size="11px" font-style="normal" font-weight="normal" text-decoration="normal" x="25.70849609375" y="170.26031494140625" text-anchor="start" dominant-baseline="alphabetic" transform="matrix(1, 0, 0, 1, 0.5, 0.5)" stroke-opacity="0" stroke-linejoin="bevel" stroke-miterlimit="10">0.1</text><text fill="rgb(68,68,68)" stroke="none" font-family="helvetica" font-size="11px" font-style="normal" font-weight="normal" text-decoration="normal" x="25.70849609375" y="139.61155700683594" text-anchor="start" dominant-baseline="alphabetic" transform="matrix(1, 0, 0, 1, 0.5, 0.5)" fill-opacity="1">0.2</text><text fill="none" stroke="rgb(0,0,0)" font-family="helvetica" font-size="11px" font-style="normal" font-weight="normal" text-decoration="normal" x="25.70849609375" y="139.61155700683594" text-anchor="start" dominant-baseline="alphabetic" transform="matrix(1, 0, 0, 1, 0.5, 0.5)" stroke-opacity="0" stroke-linejoin="bevel" stroke-miterlimit="10">0.2</text><text fill="rgb(68,68,68)" stroke="none" font-family="helvetica" font-size="11px" font-style="normal" font-weight="normal" text-decoration="normal" x="25.70849609375" y="108.96277618408203" text-anchor="start" dominant-baseline="alphabetic" transform="matrix(1, 0, 0, 1, 0.5, 0.5)" fill-opacity="1">0.3</text><text fill="none" stroke="rgb(0,0,0)" font-family="helvetica" font-size="11px" font-style="normal" font-weight="normal" text-decoration="normal" x="25.70849609375" y="108.96277618408203" text-anchor="start" dominant-baseline="alphabetic" transform="matrix(1, 0, 0, 1, 0.5, 0.5)" stroke-opacity="0" stroke-linejoin="bevel" stroke-miterlimit="10">0.3</text><text fill="rgb(68,68,68)" stroke="none" font-family="helvetica" font-size="11px" font-style="normal" font-weight="normal" text-decoration="normal" x="25.70849609375" y="78.31401062011719" text-anchor="start" dominant-baseline="alphabetic" transform="matrix(1, 0, 0, 1, 0.5, 0.5)" fill-opacity="1">0.4</text><text fill="none" stroke="rgb(0,0,0)" font-family="helvetica" font-size="11px" font-style="normal" font-weight="normal" text-decoration="normal" x="25.70849609375" y="78.31401062011719" text-anchor="start" dominant-baseline="alphabetic" transform="matrix(1, 0, 0, 1, 0.5, 0.5)" stroke-opacity="0" stroke-linejoin="bevel" stroke-miterlimit="10">0.4</text><text fill="rgb(68,68,68)" stroke="none" font-family="helvetica" font-size="11px" font-style="normal" font-weight="normal" text-decoration="normal" x="25.70849609375" y="47.66523742675781" text-anchor="start" dominant-baseline="alphabetic" transform="matrix(1, 0, 0, 1, 0.5, 0.5)" fill-opacity="1">0.5</text><text fill="none" stroke="rgb(0,0,0)" font-family="helvetica" font-size="11px" font-style="normal" font-weight="normal" text-decoration="normal" x="25.70849609375" y="47.66523742675781" text-anchor="start" dominant-baseline="alphabetic" transform="matrix(1, 0, 0, 1, 0.5, 0.5)" stroke-opacity="0" stroke-linejoin="bevel" stroke-miterlimit="10">0.5</text><text fill="rgb(68,68,68)" stroke="none" font-family="helvetica" font-size="13px" font-style="italic" font-weight="normal" text-decoration="normal" x="-47.31689453125" y="113" text-anchor="start" dominant-baseline="alphabetic" transform="matrix(6.123233995736766e-17, -1, 1, 6.123233995736766e-17, -97.79150390625, 134.20849609375)" fill-opacity="1">Normalised Probability</text><text fill="none" stroke="rgb(0,0,0)" font-family="helvetica" font-size="13px" font-style="italic" font-weight="normal" text-decoration="normal" x="-47.31689453125" y="113" text-anchor="start" dominant-baseline="alphabetic" transform="matrix(6.123233995736766e-17, -1, 1, 6.123233995736766e-17, -97.79150390625, 134.20849609375)" stroke-opacity="0" stroke-linejoin="bevel" stroke-miterlimit="10">Normalised Probability</text><path fill="rgb(255,249,186)" stroke="rgb(255,0,0)" paint-order="fill" d="M 135.64509215316343 35.59090909090912 L 135.64509215316343 35.59090909090912 L 135.64509215316343 197.4090909090909 L 135.64509215316343 197.4090909090909 L 135.64509215316343 35.59090909090912 Z" fill-opacity="0.4" clip-path="url(#JeuBgONCdPwK)" stroke-opacity="1" stroke-linejoin="bevel" stroke-miterlimit="10" stroke-width="2" stroke-dasharray="6"/><path fill="rgb(255,249,186)" stroke="rgb(50,205,50)" paint-order="fill" d="M 108.04126579165768 35.59090909090912 L 108.04126579165768 35.59090909090912 L 108.04126579165768 197.4090909090909 L 108.04126579165768 197.4090909090909 L 108.04126579165768 35.59090909090912 Z" fill-opacity="0.4" clip-path="url(#wmXfHrOLWnrh)" stroke-opacity="1" stroke-linejoin="bevel" stroke-miterlimit="10" stroke-width="2" stroke-dasharray="6"/><text fill="rgb(68,68,68)" stroke="none" font-family="helvetica" font-size="13px" font-style="normal" font-weight="bold" text-decoration="normal" x="52" y="19" text-anchor="start" dominant-baseline="alphabetic" transform="matrix(1, 0, 0, 1, 0.5, 0.5)" fill-opacity="1">Convergance Probability</text><text fill="none" stroke="rgb(0,0,0)" font-family="helvetica" font-size="13px" font-style="normal" font-weight="bold" text-decoration="normal" x="52" y="19" text-anchor="start" dominant-baseline="alphabetic" transform="matrix(1, 0, 0, 1, 0.5, 0.5)" stroke-opacity="0" stroke-miterlimit="10" stroke-dasharray="">Convergance Probability</text></svg>