<svg version="1.1" xmlns="http://www.w3.org/2000/svg" width="275" height="275"><defs><clipPath id="zMMtFGczieIn"><path fill="none" stroke="none" d="M 52.5 27.5 L 245.5 27.5 L 245.5 230.5 L 52.5 230.5 L 52.5 27.5 Z"/></clipPath><clipPath id="VrgzwFlTMTZx"><path fill="none" stroke="none" d="M 52.5 27.5 L 245.5 27.5 L 245.5 230.5 L 52.5 230.5 L 52.5 27.5 Z"/></clipPath><clipPath id="TZTnfaQfVGlR"><path fill="none" stroke="none" d="M 52.5 27.5 L 245.5 27.5 L 245.5 230.5 L 52.5 230.5 L 52.5 27.5 Z"/></clipPath><clipPath id="mEFZiSISDZGf"><path fill="none" stroke="none" d="M 52.5 27.5 L 245.5 27.5 L 245.5 230.5 L 52.5 230.5 L 52.5 27.5 Z"/></clipPath><pattern id="xwUaKFUOUseZ" width="3" height="3" patternUnits="userSpaceOnUse"><path fill="rgb(0,0,0)" stroke="none" paint-order="stroke" d="M 2.75 2 A 0.75 0.75 0 0 0 1.25 2 A 0.75 0.75 0 0 0 2.75 2" fill-opacity="0.14901960784313725"/></pattern><clipPath id="TalPzUPwdkow"><path fill="none" stroke="none" d="M 52.5 27.5 L 245.5 27.5 L 245.5 230.5 L 52.5 230.5 L 52.5 27.5 Z"/></clipPath><clipPath id="AODeBILIgycv"><path fill="none" stroke="none" d="M 52.5 27.5 L 245.5 27.5 L 245.5 230.5 L 52.5 230.5 L 52.5 27.5 Z"/></clipPath><clipPath id="NLfbckUdKiAn"><path fill="none" stroke="none" d="M 52.5 27.5 L 245.5 27.5 L 245.5 230.5 L 52.5 230.5 L 52.5 27.5 Z"/></clipPath><clipPath id="ayZuWoBVzOTa"><path fill="none" stroke="none" d="M 52.5 27.5 L 245.5 27.5 L 245.5 230.5 L 52.5 230.5 L 52.5 27.5 Z"/></clipPath></defs><path fill="rgb(255,255,255)" stroke="none" paint-order="stroke" d="M 0.5 0.5 L 275.5 0.5 L 275.5 275.5 L 0.5 275.5 L 0.5 0.5 Z" fill-opacity="1"/><rect fill="#FFFFFF" stroke="none" x="52" y="27" width="193" height="203" transform="matrix(1, 0, 0, 1, 0.5, 0.5)"/><path fill="rgb(255,255,255)" stroke="none" paint-order="stroke" d="M 52.5 27.5 L 245.5 27.5 L 245.5 230.5 L 52.5 230.5 L 52.5 27.5 Z" fill-opacity="1"/><path fill="none" stroke="rgb(229,229,229)" paint-order="fill" d="M 52.5 27.5 L 245.5 27.5 L 245.5 230.5 L 52.5 230.5 L 52.5 27.5 Z" stroke-opacity="1" stroke-linejoin="bevel" stroke-miterlimit="10"/><path fill="none" stroke="rgb(229,229,229)" paint-order="fill" d="M 56.5 230.5 L 56.5 27.5 M 88.5 230.5 L 88.5 27.5 M 120.5 230.5 L 120.5 27.5 M 152.5 230.5 L 152.5 27.5 M 184.5 230.5 L 184.5 27.5 M 216.5 230.5 L 216.5 27.5" stroke-opacity="1" stroke-linejoin="bevel" stroke-miterlimit="10" clip-path="url(#zMMtFGczieIn)"/><path fill="none" stroke="rgb(229,229,229)" paint-order="fill" d="M 52.5 221.5 L 245.5 221.5 M 52.5 184.5 L 245.5 184.5 M 52.5 147.5 L 245.5 147.5 M 52.5 110.5 L 245.5 110.5 M 52.5 73.5 L 245.5 73.5 M 52.5 37.5 L 245.5 37.5" stroke-opacity="1" stroke-linejoin="bevel" stroke-miterlimit="10" clip-path="url(#VrgzwFlTMTZx)"/><path fill="none" stroke="rgb(0,0,0)" paint-order="fill" d="M 102.52020263671875 23.726497650146484 L 102.52020263671875 57.93006896972656" stroke-opacity="1" stroke-linejoin="bevel" stroke-miterlimit="10" clip-path="url(#TZTnfaQfVGlR)"/><path fill="none" stroke="rgb(0,0,0)" paint-order="fill" d="M 145.75721740722656 24.457717895507812 L 145.75721740722656 55.882850646972656" stroke-opacity="1" stroke-linejoin="bevel" stroke-miterlimit="10" clip-path="url(#TZTnfaQfVGlR)"/><path fill="none" stroke="rgb(0,0,0)" paint-order="fill" d="M 188.99424743652344 13.668516159057617 L 188.99424743652344 59.78602981567383" stroke-opacity="1" stroke-linejoin="bevel" stroke-miterlimit="10" clip-path="url(#TZTnfaQfVGlR)"/><path fill="none" stroke="rgb(0,0,0)" paint-order="fill" d="M 97.52020263671875 23.726497650146484 L 107.52020263671875 23.726497650146484" stroke-opacity="1" stroke-linejoin="bevel" stroke-miterlimit="10" clip-path="url(#TZTnfaQfVGlR)"/><path fill="none" stroke="rgb(0,0,0)" paint-order="fill" d="M 140.75721740722656 24.457717895507812 L 150.75721740722656 24.457717895507812" stroke-opacity="1" stroke-linejoin="bevel" stroke-miterlimit="10" clip-path="url(#TZTnfaQfVGlR)"/><path fill="none" stroke="rgb(0,0,0)" paint-order="fill" d="M 183.99424743652344 13.668516159057617 L 193.99424743652344 13.668516159057617" stroke-opacity="1" stroke-linejoin="bevel" stroke-miterlimit="10" clip-path="url(#TZTnfaQfVGlR)"/><path fill="none" stroke="rgb(0,0,0)" paint-order="fill" d="M 107.52020263671875 57.93006896972656 L 97.52020263671875 57.93006896972656" stroke-opacity="1" stroke-linejoin="bevel" stroke-miterlimit="10" clip-path="url(#TZTnfaQfVGlR)"/><path fill="none" stroke="rgb(0,0,0)" paint-order="fill" d="M 150.75721740722656 55.882850646972656 L 140.75721740722656 55.882850646972656" stroke-opacity="1" stroke-linejoin="bevel" stroke-miterlimit="10" clip-path="url(#TZTnfaQfVGlR)"/><path fill="none" stroke="rgb(0,0,0)" paint-order="fill" d="M 193.99424743652344 59.78602981567383 L 183.99424743652344 59.78602981567383" stroke-opacity="1" stroke-linejoin="bevel" stroke-miterlimit="10" clip-path="url(#TZTnfaQfVGlR)"/><path fill="rgb(128,128,128)" stroke="none" paint-order="stroke" d="M 80.90169525146484 36.727272033691406 L 210.6127471923828 36.727272033691406 L 210.6127471923828 221.27273559570312 L 80.90169525146484 221.27273559570312 L 80.90169525146484 36.727272033691406 Z" fill-opacity="0.10196078431372549" clip-path="url(#mEFZiSISDZGf)"/><path fill="url(#xwUaKFUOUseZ)" stroke="rgb(0,0,0)" paint-order="fill" d="M 80.90169525146484 36.727272033691406 L 210.6127471923828 36.727272033691406 L 210.6127471923828 221.27273559570312 L 80.90169525146484 221.27273559570312 L 80.90169525146484 36.727272033691406 Z" clip-path="url(#mEFZiSISDZGf)" stroke-opacity="0.2" stroke-linejoin="bevel" stroke-miterlimit="10"/><path fill="rgb(100,149,237)" stroke="rgb(31,119,180)" paint-order="fill" d="M 80.90169525146484 40.82828140258789 L 124.13871002197266 40.82828140258789 L 124.13871002197266 221.27272033691406 L 80.90169525146484 221.27272033691406 L 80.90169525146484 40.82828140258789 Z" fill-opacity="0.5019607843137255" clip-path="url(#TalPzUPwdkow)" stroke-opacity="0.5019607843137255" stroke-linejoin="bevel" stroke-miterlimit="10"/><path fill="rgb(100,149,237)" stroke="rgb(31,119,180)" paint-order="fill" d="M 124.13871002197266 40.170284271240234 L 167.375732421875 40.170284271240234 L 167.375732421875 221.27272033691406 L 124.13871002197266 221.27272033691406 L 124.13871002197266 40.170284271240234 Z" fill-opacity="0.5019607843137255" clip-path="url(#TalPzUPwdkow)" stroke-opacity="0.5019607843137255" stroke-linejoin="bevel" stroke-miterlimit="10"/><path fill="rgb(100,149,237)" stroke="rgb(31,119,180)" paint-order="fill" d="M 167.375732421875 36.727272033691406 L 210.61276245117188 36.727272033691406 L 210.61276245117188 221.27272033691406 L 167.375732421875 221.27272033691406 L 167.375732421875 36.727272033691406 Z" fill-opacity="0.5019607843137255" clip-path="url(#TalPzUPwdkow)" stroke-opacity="0.5019607843137255" stroke-linejoin="bevel" stroke-miterlimit="10"/><path fill="none" stroke="rgb(0,0,0)" paint-order="fill" d="M 52.5 230.5 L 245.5 230.5" stroke-opacity="1" stroke-linejoin="bevel" stroke-miterlimit="10"/><path fill="none" stroke="rgb(0,0,0)" paint-order="fill" d="M 56.5 236.5 L 56.5 228.5 M 88.5 236.5 L 88.5 228.5 M 120.5 236.5 L 120.5 228.5 M 152.5 236.5 L 152.5 228.5 M 184.5 236.5 L 184.5 228.5 M 216.5 236.5 L 216.5 228.5" stroke-opacity="1" stroke-linejoin="bevel" stroke-miterlimit="10"/><path fill="none" stroke="rgb(0,0,0)" paint-order="fill" d="M 56.5 234.5 L 56.5 230.5 M 63.5 234.5 L 63.5 230.5 M 69.5 234.5 L 69.5 230.5 M 76.5 234.5 L 76.5 230.5 M 82.5 234.5 L 82.5 230.5 M 88.5 234.5 L 88.5 230.5 M 95.5 234.5 L 95.5 230.5 M 101.5 234.5 L 101.5 230.5 M 108.5 234.5 L 108.5 230.5 M 114.5 234.5 L 114.5 230.5 M 120.5 234.5 L 120.5 230.5 M 127.5 234.5 L 127.5 230.5 M 133.5 234.5 L 133.5 230.5 M 140.5 234.5 L 140.5 230.5 M 146.5 234.5 L 146.5 230.5 M 152.5 234.5 L 152.5 230.5 M 159.5 234.5 L 159.5 230.5 M 165.5 234.5 L 165.5 230.5 M 172.5 234.5 L 172.5 230.5 M 178.5 234.5 L 178.5 230.5 M 184.5 234.5 L 184.5 230.5 M 191.5 234.5 L 191.5 230.5 M 197.5 234.5 L 197.5 230.5 M 204.5 234.5 L 204.5 230.5 M 210.5 234.5 L 210.5 230.5 M 216.5 234.5 L 216.5 230.5 M 223.5 234.5 L 223.5 230.5 M 229.5 234.5 L 229.5 230.5 M 236.5 234.5 L 236.5 230.5 M 242.5 234.5 L 242.5 230.5" stroke-opacity="1" stroke-linejoin="bevel" stroke-miterlimit="10"/><text fill="rgb(68,68,68)" stroke="none" font-family="helvetica" font-size="11px" font-style="normal" font-weight="normal" text-decoration="normal" x="41.13672637939453" y="249" text-anchor="start" dominant-baseline="alphabetic" transform="matrix(1, 0, 0, 1, 0.5, 0.5)" fill-opacity="1">17000</text><text fill="none" stroke="rgb(0,0,0)" font-family="helvetica" font-size="11px" font-style="normal" font-weight="normal" text-decoration="normal" x="41.13672637939453" y="249" text-anchor="start" dominant-baseline="alphabetic" transform="matrix(1, 0, 0, 1, 0.5, 0.5)" stroke-opacity="0" stroke-linejoin="bevel" stroke-miterlimit="10">17000</text><text fill="rgb(68,68,68)" stroke="none" font-family="helvetica" font-size="11px" font-style="normal" font-weight="normal" text-decoration="normal" x="73.14044189453125" y="249" text-anchor="start" dominant-baseline="alphabetic" transform="matrix(1, 0, 0, 1, 0.5, 0.5)" fill-opacity="1">18000</text><text fill="none" stroke="rgb(0,0,0)" font-family="helvetica" font-size="11px" font-style="normal" font-weight="normal" text-decoration="normal" x="73.14044189453125" y="249" text-anchor="start" dominant-baseline="alphabetic" transform="matrix(1, 0, 0, 1, 0.5, 0.5)" stroke-opacity="0" stroke-linejoin="bevel" stroke-miterlimit="10">18000</text><text fill="rgb(68,68,68)" stroke="none" font-family="helvetica" font-size="11px" font-style="normal" font-weight="normal" text-decoration="normal" x="105.14415740966797" y="249" text-anchor="start" dominant-baseline="alphabetic" transform="matrix(1, 0, 0, 1, 0.5, 0.5)" fill-opacity="1">19000</text><text fill="none" stroke="rgb(0,0,0)" font-family="helvetica" font-size="11px" font-style="normal" font-weight="normal" text-decoration="normal" x="105.14415740966797" y="249" text-anchor="start" dominant-baseline="alphabetic" transform="matrix(1, 0, 0, 1, 0.5, 0.5)" stroke-opacity="0" stroke-linejoin="bevel" stroke-miterlimit="10">19000</text><text fill="rgb(68,68,68)" stroke="none" font-family="helvetica" font-size="11px" font-style="normal" font-weight="normal" text-decoration="normal" x="137.1478729248047" y="249" text-anchor="start" dominant-baseline="alphabetic" transform="matrix(1, 0, 0, 1, 0.5, 0.5)" fill-opacity="1">20000</text><text fill="none" stroke="rgb(0,0,0)" font-family="helvetica" font-size="11px" font-style="normal" font-weight="normal" text-decoration="normal" x="137.1478729248047" y="249" text-anchor="start" dominant-baseline="alphabetic" transform="matrix(1, 0, 0, 1, 0.5, 0.5)" stroke-opacity="0" stroke-linejoin="bevel" stroke-miterlimit="10">20000</text><text fill="rgb(68,68,68)" stroke="none" font-family="helvetica" font-size="11px" font-style="normal" font-weight="normal" text-decoration="normal" x="169.15158081054688" y="249" text-anchor="start" dominant-baseline="alphabetic" transform="matrix(1, 0, 0, 1, 0.5, 0.5)" fill-opacity="1">21000</text><text fill="none" stroke="rgb(0,0,0)" font-family="helvetica" font-size="11px" font-style="normal" font-weight="normal" text-decoration="normal" x="169.15158081054688" y="249" text-anchor="start" dominant-baseline="alphabetic" transform="matrix(1, 0, 0, 1, 0.5, 0.5)" stroke-opacity="0" stroke-linejoin="bevel" stroke-miterlimit="10">21000</text><text fill="rgb(68,68,68)" stroke="none" font-family="helvetica" font-size="11px" font-style="normal" font-weight="normal" text-decoration="normal" x="201.15530395507812" y="249" text-anchor="start" dominant-baseline="alphabetic" transform="matrix(1, 0, 0, 1, 0.5, 0.5)" fill-opacity="1">22000</text><text fill="none" stroke="rgb(0,0,0)" font-family="helvetica" font-size="11px" font-style="normal" font-weight="normal" text-decoration="normal" x="201.15530395507812" y="249" text-anchor="start" dominant-baseline="alphabetic" transform="matrix(1, 0, 0, 1, 0.5, 0.5)" stroke-opacity="0" stroke-linejoin="bevel" stroke-miterlimit="10">22000</text><text fill="rgb(68,68,68)" stroke="none" font-family="helvetica" font-size="13px" font-style="italic" font-weight="normal" text-decoration="normal" x="126.4609375" y="269" text-anchor="start" dominant-baseline="alphabetic" transform="matrix(1, 0, 0, 1, 0.5, 0.5)" fill-opacity="1">n_cycle</text><text fill="none" stroke="rgb(0,0,0)" font-family="helvetica" font-size="13px" font-style="italic" font-weight="normal" text-decoration="normal" x="126.4609375" y="269" text-anchor="start" dominant-baseline="alphabetic" transform="matrix(1, 0, 0, 1, 0.5, 0.5)" stroke-opacity="0" stroke-linejoin="bevel" stroke-miterlimit="10">n_cycle</text><path fill="none" stroke="rgb(0,0,0)" paint-order="fill" d="M 52.5 230.5 L 52.5 27.5" stroke-opacity="1" stroke-linejoin="bevel" stroke-miterlimit="10"/><path fill="none" stroke="rgb(0,0,0)" paint-order="fill" d="M 46.5 221.5 L 54.5 221.5 M 46.5 184.5 L 54.5 184.5 M 46.5 147.5 L 54.5 147.5 M 46.5 110.5 L 54.5 110.5 M 46.5 73.5 L 54.5 73.5 M 46.5 37.5 L 54.5 37.5" stroke-opacity="1" stroke-linejoin="bevel" stroke-miterlimit="10"/><path fill="none" stroke="rgb(0,0,0)" paint-order="fill" d="M 48.5 228.5 L 52.5 228.5 M 48.5 221.5 L 52.5 221.5 M 48.5 213.5 L 52.5 213.5 M 48.5 206.5 L 52.5 206.5 M 48.5 199.5 L 52.5 199.5 M 48.5 191.5 L 52.5 191.5 M 48.5 184.5 L 52.5 184.5 M 48.5 177.5 L 52.5 177.5 M 48.5 169.5 L 52.5 169.5 M 48.5 162.5 L 52.5 162.5 M 48.5 154.5 L 52.5 154.5 M 48.5 147.5 L 52.5 147.5 M 48.5 140.5 L 52.5 140.5 M 48.5 132.5 L 52.5 132.5 M 48.5 125.5 L 52.5 125.5 M 48.5 118.5 L 52.5 118.5 M 48.5 110.5 L 52.5 110.5 M 48.5 103.5 L 52.5 103.5 M 48.5 95.5 L 52.5 95.5 M 48.5 88.5 L 52.5 88.5 M 48.5 81.5 L 52.5 81.5 M 48.5 73.5 L 52.5 73.5 M 48.5 66.5 L 52.5 66.5 M 48.5 59.5 L 52.5 59.5 M 48.5 51.5 L 52.5 51.5 M 48.5 44.5 L 52.5 44.5 M 48.5 37.5 L 52.5 37.5 M 48.5 29.5 L 52.5 29.5" stroke-opacity="1" stroke-linejoin="bevel" stroke-miterlimit="10"/><text fill="rgb(68,68,68)" stroke="none" font-family="helvetica" font-size="11px" font-style="normal" font-weight="normal" text-decoration="normal" x="34.88232421875" y="224.77272033691406" text-anchor="start" dominant-baseline="alphabetic" transform="matrix(1, 0, 0, 1, 0.5, 0.5)" fill-opacity="1">0</text><text fill="none" stroke="rgb(0,0,0)" font-family="helvetica" font-size="11px" font-style="normal" font-weight="normal" text-decoration="normal" x="34.88232421875" y="224.77272033691406" text-anchor="start" dominant-baseline="alphabetic" transform="matrix(1, 0, 0, 1, 0.5, 0.5)" stroke-opacity="0" stroke-linejoin="bevel" stroke-miterlimit="10">0</text><text fill="rgb(68,68,68)" stroke="none" font-family="helvetica" font-size="11px" font-style="normal" font-weight="normal" text-decoration="normal" x="25.70849609375" y="187.9239501953125" text-anchor="start" dominant-baseline="alphabetic" transform="matrix(1, 0, 0, 1, 0.5, 0.5)" fill-opacity="1">0.2</text><text fill="none" stroke="rgb(0,0,0)" font-family="helvetica" font-size="11px" font-style="normal" font-weight="normal" text-decoration="normal" x="25.70849609375" y="187.9239501953125" text-anchor="start" dominant-baseline="alphabetic" transform="matrix(1, 0, 0, 1, 0.5, 0.5)" stroke-opacity="0" stroke-linejoin="bevel" stroke-miterlimit="10">0.2</text><text fill="rgb(68,68,68)" stroke="none" font-family="helvetica" font-size="11px" font-style="normal" font-weight="normal" text-decoration="normal" x="25.70849609375" y="151.07516479492188" text-anchor="start" dominant-baseline="alphabetic" transform="matrix(1, 0, 0, 1, 0.5, 0.5)" fill-opacity="1">0.4</text><text fill="none" stroke="rgb(0,0,0)" font-family="helvetica" font-size="11px" font-style="normal" font-weight="normal" text-decoration="normal" x="25.70849609375" y="151.07516479492188" text-anchor="start" dominant-baseline="alphabetic" transform="matrix(1, 0, 0, 1, 0.5, 0.5)" stroke-opacity="0" stroke-linejoin="bevel" stroke-miterlimit="10">0.4</text><text fill="rgb(68,68,68)" stroke="none" font-family="helvetica" font-size="11px" font-style="normal" font-weight="normal" text-decoration="normal" x="25.70849609375" y="114.22637939453125" text-anchor="start" dominant-baseline="alphabetic" transform="matrix(1, 0, 0, 1, 0.5, 0.5)" fill-opacity="1">0.6</text><text fill="none" stroke="rgb(0,0,0)" font-family="helvetica" font-size="11px" font-style="normal" font-weight="normal" text-decoration="normal" x="25.70849609375" y="114.22637939453125" text-anchor="start" dominant-baseline="alphabetic" transform="matrix(1, 0, 0, 1, 0.5, 0.5)" stroke-opacity="0" stroke-linejoin="bevel" stroke-miterlimit="10">0.6</text><text fill="rgb(68,68,68)" stroke="none" font-family="helvetica" font-size="11px" font-style="normal" font-weight="normal" text-decoration="normal" x="25.70849609375" y="77.37760162353516" text-anchor="start" dominant-baseline="alphabetic" transform="matrix(1, 0, 0, 1, 0.5, 0.5)" fill-opacity="1">0.8</text><text fill="none" stroke="rgb(0,0,0)" font-family="helvetica" font-size="11px" font-style="normal" font-weight="normal" text-decoration="normal" x="25.70849609375" y="77.37760162353516" text-anchor="start" dominant-baseline="alphabetic" transform="matrix(1, 0, 0, 1, 0.5, 0.5)" stroke-opacity="0" stroke-linejoin="bevel" stroke-miterlimit="10">0.8</text><text fill="rgb(68,68,68)" stroke="none" font-family="helvetica" font-size="11px" font-style="normal" font-weight="normal" text-decoration="normal" x="34.88232421875" y="40.52881622314453" text-anchor="start" dominant-baseline="alphabetic" transform="matrix(1, 0, 0, 1, 0.5, 0.5)" fill-opacity="1">1</text><text fill="none" stroke="rgb(0,0,0)" font-family="helvetica" font-size="11px" font-style="normal" font-weight="normal" text-decoration="normal" x="34.88232421875" y="40.52881622314453" text-anchor="start" dominant-baseline="alphabetic" transform="matrix(1, 0, 0, 1, 0.5, 0.5)" stroke-opacity="0" stroke-linejoin="bevel" stroke-miterlimit="10">1</text><text fill="rgb(68,68,68)" stroke="none" font-family="helvetica" font-size="13px" font-style="italic" font-weight="normal" text-decoration="normal" x="-47.31689453125" y="125.5" text-anchor="start" dominant-baseline="alphabetic" transform="matrix(6.123233995736766e-17, -1, 1, 6.123233995736766e-17, -110.29150390625, 146.70849609375)" fill-opacity="1">Normalised Probability</text><text fill="none" stroke="rgb(0,0,0)" font-family="helvetica" font-size="13px" font-style="italic" font-weight="normal" text-decoration="normal" x="-47.31689453125" y="125.5" text-anchor="start" dominant-baseline="alphabetic" transform="matrix(6.123233995736766e-17, -1, 1, 6.123233995736766e-17, -110.29150390625, 146.70849609375)" stroke-opacity="0" stroke-linejoin="bevel" stroke-miterlimit="10">Normalised Probability</text><path fill="rgb(255,249,186)" stroke="rgb(255,0,0)" paint-order="fill" d="M 137.68073070541755 36.727272727272776 L 137.68073070541755 36.727272727272776 L 137.68073070541755 221.27272727272728 L 137.68073070541755 221.27272727272728 L 137.68073070541755 36.727272727272776 Z" fill-opacity="0.4" clip-path="url(#AODeBILIgycv)" stroke-opacity="1" stroke-linejoin="bevel" stroke-miterlimit="10" stroke-width="2" stroke-dasharray="6"/><path fill="rgb(255,249,186)" stroke="rgb(50,205,50)" paint-order="fill" d="M 188.9942418187395 36.727272727272776 L 188.9942418187395 36.727272727272776 L 188.9942418187395 221.27272727272728 L 188.9942418187395 221.27272727272728 L 188.9942418187395 36.727272727272776 Z" fill-opacity="0.4" clip-path="url(#NLfbckUdKiAn)" stroke-opacity="1" stroke-linejoin="bevel" stroke-miterlimit="10" stroke-width="2" stroke-dasharray="6"/><text fill="rgb(68,68,68)" stroke="none" font-family="helvetica" font-size="13px" font-style="normal" font-weight="bold" text-decoration="normal" x="52" y="19" text-anchor="start" dominant-baseline="alphabetic" transform="matrix(1, 0, 0, 1, 0.5, 0.5)" fill-opacity="1">Convergance Probability</text><text fill="none" stroke="rgb(0,0,0)" font-family="helvetica" font-size="13px" font-style="normal" font-weight="bold" text-decoration="normal" x="52" y="19" text-anchor="start" dominant-baseline="alphabetic" transform="matrix(1, 0, 0, 1, 0.5, 0.5)" stroke-opacity="0" stroke-miterlimit="10" stroke-dasharray="">Convergance Probability</text></svg>