<svg version="1.1" xmlns="http://www.w3.org/2000/svg" width="250" height="250"><defs><clipPath id="HWuKaftlooev"><path fill="none" stroke="none" d="M 52.5 27.5 L 220.5 27.5 L 220.5 205.5 L 52.5 205.5 L 52.5 27.5 Z"/></clipPath><clipPath id="tagkiSPBumee"><path fill="none" stroke="none" d="M 52.5 27.5 L 220.5 27.5 L 220.5 205.5 L 52.5 205.5 L 52.5 27.5 Z"/></clipPath><clipPath id="FmVCQRBmSWcG"><path fill="none" stroke="none" d="M 52.5 27.5 L 220.5 27.5 L 220.5 205.5 L 52.5 205.5 L 52.5 27.5 Z"/></clipPath><clipPath id="CaBRuorlTmvF"><path fill="none" stroke="none" d="M 52.5 27.5 L 220.5 27.5 L 220.5 205.5 L 52.5 205.5 L 52.5 27.5 Z"/></clipPath><pattern id="FTGbSySUzVLk" width="3" height="3" patternUnits="userSpaceOnUse"><path fill="rgb(0,0,0)" stroke="none" paint-order="stroke" d="M 2.75 2 A 0.75 0.75 0 0 0 1.25 2 A 0.75 0.75 0 0 0 2.75 2" fill-opacity="0.14901960784313725"/></pattern><clipPath id="GLgWbEGTVVrP"><path fill="none" stroke="none" d="M 52.5 27.5 L 220.5 27.5 L 220.5 205.5 L 52.5 205.5 L 52.5 27.5 Z"/></clipPath><clipPath id="MmcaSZkrNFNF"><path fill="none" stroke="none" d="M 52.5 27.5 L 220.5 27.5 L 220.5 205.5 L 52.5 205.5 L 52.5 27.5 Z"/></clipPath><clipPath id="xnlpchEoMEzc"><path fill="none" stroke="none" d="M 52.5 27.5 L 220.5 27.5 L 220.5 205.5 L 52.5 205.5 L 52.5 27.5 Z"/></clipPath><clipPath id="gRJcRslKKrhT"><path fill="none" stroke="none" d="M 52.5 27.5 L 220.5 27.5 L 220.5 205.5 L 52.5 205.5 L 52.5 27.5 Z"/></clipPath></defs><path fill="rgb(255,255,255)" stroke="none" paint-order="stroke" d="M 0.5 0.5 L 250.5 0.5 L 250.5 250.5 L 0.5 250.5 L 0.5 0.5 Z" fill-opacity="1"/><rect fill="#FFFFFF" stroke="none" x="52" y="27" width="168" height="178" transform="matrix(1, 0, 0, 1, 0.5, 0.5)"/><path fill="rgb(255,255,255)" stroke="none" paint-order="stroke" d="M 52.5 27.5 L 220.5 27.5 L 220.5 205.5 L 52.5 205.5 L 52.5 27.5 Z" fill-opacity="1"/><path fill="none" stroke="rgb(229,229,229)" paint-order="fill" d="M 52.5 27.5 L 220.5 27.5 L 220.5 205.5 L 52.5 205.5 L 52.5 27.5 Z" stroke-opacity="1" stroke-linejoin="bevel" stroke-miterlimit="10"/><path fill="none" stroke="rgb(229,229,229)" paint-order="fill" d="M 65.5 205.5 L 65.5 27.5 M 87.5 205.5 L 87.5 27.5 M 110.5 205.5 L 110.5 27.5 M 133.5 205.5 L 133.5 27.5 M 156.5 205.5 L 156.5 27.5 M 179.5 205.5 L 179.5 27.5 M 202.5 205.5 L 202.5 27.5" stroke-opacity="1" stroke-linejoin="bevel" stroke-miterlimit="10" clip-path="url(#HWuKaftlooev)"/><path fill="none" stroke="rgb(229,229,229)" paint-order="fill" d="M 52.5 197.5 L 220.5 197.5 M 52.5 171.5 L 220.5 171.5 M 52.5 146.5 L 220.5 146.5 M 52.5 120.5 L 220.5 120.5 M 52.5 94.5 L 220.5 94.5 M 52.5 69.5 L 220.5 69.5 M 52.5 43.5 L 220.5 43.5" stroke-opacity="1" stroke-linejoin="bevel" stroke-miterlimit="10" clip-path="url(#tagkiSPBumee)"/><path fill="none" stroke="rgb(0,0,0)" paint-order="fill" d="M 112.96204376220703 120.8600845336914 L 112.96204376220703 151.9564208984375" stroke-opacity="1" stroke-linejoin="bevel" stroke-miterlimit="10" clip-path="url(#FmVCQRBmSWcG)"/><path fill="none" stroke="rgb(0,0,0)" paint-order="fill" d="M 155.75833129882812 23.634618759155273 L 155.75833129882812 47.54719924926758" stroke-opacity="1" stroke-linejoin="bevel" stroke-miterlimit="10" clip-path="url(#FmVCQRBmSWcG)"/><path fill="none" stroke="rgb(0,0,0)" paint-order="fill" d="" stroke-opacity="1" stroke-linejoin="bevel" stroke-miterlimit="10" clip-path="url(#FmVCQRBmSWcG)"/><path fill="none" stroke="rgb(0,0,0)" paint-order="fill" d="M 107.96204376220703 120.8600845336914 L 117.96204376220703 120.8600845336914" stroke-opacity="1" stroke-linejoin="bevel" stroke-miterlimit="10" clip-path="url(#FmVCQRBmSWcG)"/><path fill="none" stroke="rgb(0,0,0)" paint-order="fill" d="M 150.75833129882812 23.634618759155273 L 160.75833129882812 23.634618759155273" stroke-opacity="1" stroke-linejoin="bevel" stroke-miterlimit="10" clip-path="url(#FmVCQRBmSWcG)"/><path fill="none" stroke="rgb(0,0,0)" paint-order="fill" d="M -4.5 0.5000000000000007 L 5.5 0.4999999999999994" stroke-opacity="1" stroke-linejoin="bevel" stroke-miterlimit="10" clip-path="url(#FmVCQRBmSWcG)"/><path fill="none" stroke="rgb(0,0,0)" paint-order="fill" d="M 117.96204376220703 151.9564208984375 L 107.96204376220703 151.9564208984375" stroke-opacity="1" stroke-linejoin="bevel" stroke-miterlimit="10" clip-path="url(#FmVCQRBmSWcG)"/><path fill="none" stroke="rgb(0,0,0)" paint-order="fill" d="M 160.75833129882812 47.54719924926758 L 150.75833129882812 47.54719924926758" stroke-opacity="1" stroke-linejoin="bevel" stroke-miterlimit="10" clip-path="url(#FmVCQRBmSWcG)"/><path fill="none" stroke="rgb(0,0,0)" paint-order="fill" d="M 5.5 0.5 L -4.5 0.5" stroke-opacity="1" stroke-linejoin="bevel" stroke-miterlimit="10" clip-path="url(#FmVCQRBmSWcG)"/><path fill="rgb(128,128,128)" stroke="none" paint-order="stroke" d="M 91.56390380859375 35.590911865234375 L 177.15646362304688 35.590911865234375 L 177.15646362304688 197.40908813476562 L 91.56390380859375 197.40908813476562 L 91.56390380859375 35.590911865234375 Z" fill-opacity="0.10196078431372549" clip-path="url(#CaBRuorlTmvF)"/><path fill="url(#FTGbSySUzVLk)" stroke="rgb(0,0,0)" paint-order="fill" d="M 91.56390380859375 35.590911865234375 L 177.15646362304688 35.590911865234375 L 177.15646362304688 197.40908813476562 L 91.56390380859375 197.40908813476562 L 91.56390380859375 35.590911865234375 Z" clip-path="url(#CaBRuorlTmvF)" stroke-opacity="0.2" stroke-linejoin="bevel" stroke-miterlimit="10"/><path fill="rgb(100,149,237)" stroke="rgb(31,119,180)" paint-order="fill" d="M 91.56390380859375 136.4082489013672 L 134.3601837158203 136.4082489013672 L 134.3601837158203 197.40908813476562 L 91.56390380859375 197.40908813476562 L 91.56390380859375 136.4082489013672 Z" fill-opacity="0.5019607843137255" clip-path="url(#GLgWbEGTVVrP)" stroke-opacity="0.5019607843137255" stroke-linejoin="bevel" stroke-miterlimit="10"/><path fill="rgb(100,149,237)" stroke="rgb(31,119,180)" paint-order="fill" d="M 134.3601837158203 35.59090805053711 L 177.15647888183594 35.59090805053711 L 177.15647888183594 197.40908813476562 L 134.3601837158203 197.40908813476562 L 134.3601837158203 35.59090805053711 Z" fill-opacity="0.5019607843137255" clip-path="url(#GLgWbEGTVVrP)" stroke-opacity="0.5019607843137255" stroke-linejoin="bevel" stroke-miterlimit="10"/><path fill="rgb(100,149,237)" stroke="rgb(31,119,180)" paint-order="fill" d="M 177.15646362304688 197.40908813476562 L 219.9527587890625 197.40908813476562 L 219.9527587890625 197.40908813476562 L 177.15646362304688 197.40908813476562 L 177.15646362304688 197.40908813476562 Z" fill-opacity="0.5019607843137255" clip-path="url(#GLgWbEGTVVrP)" stroke-opacity="0.5019607843137255" stroke-linejoin="bevel" stroke-miterlimit="10"/><path fill="none" stroke="rgb(0,0,0)" paint-order="fill" d="M 52.5 205.5 L 220.5 205.5" stroke-opacity="1" stroke-linejoin="bevel" stroke-miterlimit="10"/><path fill="none" stroke="rgb(0,0,0)" paint-order="fill" d="M 65.5 211.5 L 65.5 203.5 M 87.5 211.5 L 87.5 203.5 M 110.5 211.5 L 110.5 203.5 M 133.5 211.5 L 133.5 203.5 M 156.5 211.5 L 156.5 203.5 M 179.5 211.5 L 179.5 203.5 M 202.5 211.5 L 202.5 203.5" stroke-opacity="1" stroke-linejoin="bevel" stroke-miterlimit="10"/><path fill="none" stroke="rgb(0,0,0)" paint-order="fill" d="M 60.5 209.5 L 60.5 205.5 M 55.5 209.5 L 55.5 205.5 M 65.5 209.5 L 65.5 205.5 M 69.5 209.5 L 69.5 205.5 M 74.5 209.5 L 74.5 205.5 M 78.5 209.5 L 78.5 205.5 M 83.5 209.5 L 83.5 205.5 M 87.5 209.5 L 87.5 205.5 M 92.5 209.5 L 92.5 205.5 M 97.5 209.5 L 97.5 205.5 M 101.5 209.5 L 101.5 205.5 M 106.5 209.5 L 106.5 205.5 M 110.5 209.5 L 110.5 205.5 M 115.5 209.5 L 115.5 205.5 M 120.5 209.5 L 120.5 205.5 M 124.5 209.5 L 124.5 205.5 M 129.5 209.5 L 129.5 205.5 M 133.5 209.5 L 133.5 205.5 M 138.5 209.5 L 138.5 205.5 M 142.5 209.5 L 142.5 205.5 M 147.5 209.5 L 147.5 205.5 M 152.5 209.5 L 152.5 205.5 M 156.5 209.5 L 156.5 205.5 M 161.5 209.5 L 161.5 205.5 M 165.5 209.5 L 165.5 205.5 M 170.5 209.5 L 170.5 205.5 M 174.5 209.5 L 174.5 205.5 M 179.5 209.5 L 179.5 205.5 M 184.5 209.5 L 184.5 205.5 M 188.5 209.5 L 188.5 205.5 M 193.5 209.5 L 193.5 205.5 M 197.5 209.5 L 197.5 205.5 M 202.5 209.5 L 202.5 205.5 M 206.5 209.5 L 206.5 205.5 M 211.5 209.5 L 211.5 205.5 M 216.5 209.5 L 216.5 205.5" stroke-opacity="1" stroke-linejoin="bevel" stroke-miterlimit="10"/><text fill="rgb(68,68,68)" stroke="none" font-family="helvetica" font-size="11px" font-style="normal" font-weight="normal" text-decoration="normal" x="53.90613555908203" y="224" text-anchor="start" dominant-baseline="alphabetic" transform="matrix(1, 0, 0, 1, 0.5, 0.5)" fill-opacity="1">0.66</text><text fill="none" stroke="rgb(0,0,0)" font-family="helvetica" font-size="11px" font-style="normal" font-weight="normal" text-decoration="normal" x="53.90613555908203" y="224" text-anchor="start" dominant-baseline="alphabetic" transform="matrix(1, 0, 0, 1, 0.5, 0.5)" stroke-opacity="0" stroke-linejoin="bevel" stroke-miterlimit="10">0.66</text><text fill="rgb(68,68,68)" stroke="none" font-family="helvetica" font-size="11px" font-style="normal" font-weight="normal" text-decoration="normal" x="76.77960968017578" y="224" text-anchor="start" dominant-baseline="alphabetic" transform="matrix(1, 0, 0, 1, 0.5, 0.5)" fill-opacity="1">0.68</text><text fill="none" stroke="rgb(0,0,0)" font-family="helvetica" font-size="11px" font-style="normal" font-weight="normal" text-decoration="normal" x="76.77960968017578" y="224" text-anchor="start" dominant-baseline="alphabetic" transform="matrix(1, 0, 0, 1, 0.5, 0.5)" stroke-opacity="0" stroke-linejoin="bevel" stroke-miterlimit="10">0.68</text><text fill="rgb(68,68,68)" stroke="none" font-family="helvetica" font-size="11px" font-style="normal" font-weight="normal" text-decoration="normal" x="102.71192932128906" y="224" text-anchor="start" dominant-baseline="alphabetic" transform="matrix(1, 0, 0, 1, 0.5, 0.5)" fill-opacity="1">0.7</text><text fill="none" stroke="rgb(0,0,0)" font-family="helvetica" font-size="11px" font-style="normal" font-weight="normal" text-decoration="normal" x="102.71192932128906" y="224" text-anchor="start" dominant-baseline="alphabetic" transform="matrix(1, 0, 0, 1, 0.5, 0.5)" stroke-opacity="0" stroke-linejoin="bevel" stroke-miterlimit="10">0.7</text><text fill="rgb(68,68,68)" stroke="none" font-family="helvetica" font-size="11px" font-style="normal" font-weight="normal" text-decoration="normal" x="122.52658081054688" y="224" text-anchor="start" dominant-baseline="alphabetic" transform="matrix(1, 0, 0, 1, 0.5, 0.5)" fill-opacity="1">0.72</text><text fill="none" stroke="rgb(0,0,0)" font-family="helvetica" font-size="11px" font-style="normal" font-weight="normal" text-decoration="normal" x="122.52658081054688" y="224" text-anchor="start" dominant-baseline="alphabetic" transform="matrix(1, 0, 0, 1, 0.5, 0.5)" stroke-opacity="0" stroke-linejoin="bevel" stroke-miterlimit="10">0.72</text><text fill="rgb(68,68,68)" stroke="none" font-family="helvetica" font-size="11px" font-style="normal" font-weight="normal" text-decoration="normal" x="145.40005493164062" y="224" text-anchor="start" dominant-baseline="alphabetic" transform="matrix(1, 0, 0, 1, 0.5, 0.5)" fill-opacity="1">0.74</text><text fill="none" stroke="rgb(0,0,0)" font-family="helvetica" font-size="11px" font-style="normal" font-weight="normal" text-decoration="normal" x="145.40005493164062" y="224" text-anchor="start" dominant-baseline="alphabetic" transform="matrix(1, 0, 0, 1, 0.5, 0.5)" stroke-opacity="0" stroke-linejoin="bevel" stroke-miterlimit="10">0.74</text><text fill="rgb(68,68,68)" stroke="none" font-family="helvetica" font-size="11px" font-style="normal" font-weight="normal" text-decoration="normal" x="168.27354431152344" y="224" text-anchor="start" dominant-baseline="alphabetic" transform="matrix(1, 0, 0, 1, 0.5, 0.5)" fill-opacity="1">0.76</text><text fill="none" stroke="rgb(0,0,0)" font-family="helvetica" font-size="11px" font-style="normal" font-weight="normal" text-decoration="normal" x="168.27354431152344" y="224" text-anchor="start" dominant-baseline="alphabetic" transform="matrix(1, 0, 0, 1, 0.5, 0.5)" stroke-opacity="0" stroke-linejoin="bevel" stroke-miterlimit="10">0.76</text><text fill="rgb(68,68,68)" stroke="none" font-family="helvetica" font-size="11px" font-style="normal" font-weight="normal" text-decoration="normal" x="191.1470184326172" y="224" text-anchor="start" dominant-baseline="alphabetic" transform="matrix(1, 0, 0, 1, 0.5, 0.5)" fill-opacity="1">0.78</text><text fill="none" stroke="rgb(0,0,0)" font-family="helvetica" font-size="11px" font-style="normal" font-weight="normal" text-decoration="normal" x="191.1470184326172" y="224" text-anchor="start" dominant-baseline="alphabetic" transform="matrix(1, 0, 0, 1, 0.5, 0.5)" stroke-opacity="0" stroke-linejoin="bevel" stroke-miterlimit="10">0.78</text><text fill="rgb(68,68,68)" stroke="none" font-family="helvetica" font-size="13px" font-style="italic" font-weight="normal" text-decoration="normal" x="96.974609375" y="244" text-anchor="start" dominant-baseline="alphabetic" transform="matrix(1, 0, 0, 1, 0.5, 0.5)" fill-opacity="1">oh_steel_frac</text><text fill="none" stroke="rgb(0,0,0)" font-family="helvetica" font-size="13px" font-style="italic" font-weight="normal" text-decoration="normal" x="96.974609375" y="244" text-anchor="start" dominant-baseline="alphabetic" transform="matrix(1, 0, 0, 1, 0.5, 0.5)" stroke-opacity="0" stroke-linejoin="bevel" stroke-miterlimit="10">oh_steel_frac</text><path fill="none" stroke="rgb(0,0,0)" paint-order="fill" d="M 52.5 205.5 L 52.5 27.5" stroke-opacity="1" stroke-linejoin="bevel" stroke-miterlimit="10"/><path fill="none" stroke="rgb(0,0,0)" paint-order="fill" d="M 46.5 197.5 L 54.5 197.5 M 46.5 171.5 L 54.5 171.5 M 46.5 146.5 L 54.5 146.5 M 46.5 120.5 L 54.5 120.5 M 46.5 94.5 L 54.5 94.5 M 46.5 69.5 L 54.5 69.5 M 46.5 43.5 L 54.5 43.5" stroke-opacity="1" stroke-linejoin="bevel" stroke-miterlimit="10"/><path fill="none" stroke="rgb(0,0,0)" paint-order="fill" d="M 48.5 202.5 L 52.5 202.5 M 48.5 197.5 L 52.5 197.5 M 48.5 192.5 L 52.5 192.5 M 48.5 187.5 L 52.5 187.5 M 48.5 182.5 L 52.5 182.5 M 48.5 176.5 L 52.5 176.5 M 48.5 171.5 L 52.5 171.5 M 48.5 166.5 L 52.5 166.5 M 48.5 161.5 L 52.5 161.5 M 48.5 156.5 L 52.5 156.5 M 48.5 151.5 L 52.5 151.5 M 48.5 146.5 L 52.5 146.5 M 48.5 141.5 L 52.5 141.5 M 48.5 135.5 L 52.5 135.5 M 48.5 130.5 L 52.5 130.5 M 48.5 125.5 L 52.5 125.5 M 48.5 120.5 L 52.5 120.5 M 48.5 115.5 L 52.5 115.5 M 48.5 110.5 L 52.5 110.5 M 48.5 105.5 L 52.5 105.5 M 48.5 100.5 L 52.5 100.5 M 48.5 94.5 L 52.5 94.5 M 48.5 89.5 L 52.5 89.5 M 48.5 84.5 L 52.5 84.5 M 48.5 79.5 L 52.5 79.5 M 48.5 74.5 L 52.5 74.5 M 48.5 69.5 L 52.5 69.5 M 48.5 64.5 L 52.5 64.5 M 48.5 59.5 L 52.5 59.5 M 48.5 54.5 L 52.5 54.5 M 48.5 48.5 L 52.5 48.5 M 48.5 43.5 L 52.5 43.5 M 48.5 38.5 L 52.5 38.5 M 48.5 33.5 L 52.5 33.5 M 48.5 28.5 L 52.5 28.5" stroke-opacity="1" stroke-linejoin="bevel" stroke-miterlimit="10"/><text fill="rgb(68,68,68)" stroke="none" font-family="helvetica" font-size="11px" font-style="normal" font-weight="normal" text-decoration="normal" x="34.88232421875" y="200.90908813476562" text-anchor="start" dominant-baseline="alphabetic" transform="matrix(1, 0, 0, 1, 0.5, 0.5)" fill-opacity="1">0</text><text fill="none" stroke="rgb(0,0,0)" font-family="helvetica" font-size="11px" font-style="normal" font-weight="normal" text-decoration="normal" x="34.88232421875" y="200.90908813476562" text-anchor="start" dominant-baseline="alphabetic" transform="matrix(1, 0, 0, 1, 0.5, 0.5)" stroke-opacity="0" stroke-linejoin="bevel" stroke-miterlimit="10">0</text><text fill="rgb(68,68,68)" stroke="none" font-family="helvetica" font-size="11px" font-style="normal" font-weight="normal" text-decoration="normal" x="25.70849609375" y="175.3052978515625" text-anchor="start" dominant-baseline="alphabetic" transform="matrix(1, 0, 0, 1, 0.5, 0.5)" fill-opacity="1">0.1</text><text fill="none" stroke="rgb(0,0,0)" font-family="helvetica" font-size="11px" font-style="normal" font-weight="normal" text-decoration="normal" x="25.70849609375" y="175.3052978515625" text-anchor="start" dominant-baseline="alphabetic" transform="matrix(1, 0, 0, 1, 0.5, 0.5)" stroke-opacity="0" stroke-linejoin="bevel" stroke-miterlimit="10">0.1</text><text fill="rgb(68,68,68)" stroke="none" font-family="helvetica" font-size="11px" font-style="normal" font-weight="normal" text-decoration="normal" x="25.70849609375" y="149.70150756835938" text-anchor="start" dominant-baseline="alphabetic" transform="matrix(1, 0, 0, 1, 0.5, 0.5)" fill-opacity="1">0.2</text><text fill="none" stroke="rgb(0,0,0)" font-family="helvetica" font-size="11px" font-style="normal" font-weight="normal" text-decoration="normal" x="25.70849609375" y="149.70150756835938" text-anchor="start" dominant-baseline="alphabetic" transform="matrix(1, 0, 0, 1, 0.5, 0.5)" stroke-opacity="0" stroke-linejoin="bevel" stroke-miterlimit="10">0.2</text><text fill="rgb(68,68,68)" stroke="none" font-family="helvetica" font-size="11px" font-style="normal" font-weight="normal" text-decoration="normal" x="25.70849609375" y="124.09770965576172" text-anchor="start" dominant-baseline="alphabetic" transform="matrix(1, 0, 0, 1, 0.5, 0.5)" fill-opacity="1">0.3</text><text fill="none" stroke="rgb(0,0,0)" font-family="helvetica" font-size="11px" font-style="normal" font-weight="normal" text-decoration="normal" x="25.70849609375" y="124.09770965576172" text-anchor="start" dominant-baseline="alphabetic" transform="matrix(1, 0, 0, 1, 0.5, 0.5)" stroke-opacity="0" stroke-linejoin="bevel" stroke-miterlimit="10">0.3</text><text fill="rgb(68,68,68)" stroke="none" font-family="helvetica" font-size="11px" font-style="normal" font-weight="normal" text-decoration="normal" x="25.70849609375" y="98.49391174316406" text-anchor="start" dominant-baseline="alphabetic" transform="matrix(1, 0, 0, 1, 0.5, 0.5)" fill-opacity="1">0.4</text><text fill="none" stroke="rgb(0,0,0)" font-family="helvetica" font-size="11px" font-style="normal" font-weight="normal" text-decoration="normal" x="25.70849609375" y="98.49391174316406" text-anchor="start" dominant-baseline="alphabetic" transform="matrix(1, 0, 0, 1, 0.5, 0.5)" stroke-opacity="0" stroke-linejoin="bevel" stroke-miterlimit="10">0.4</text><text fill="rgb(68,68,68)" stroke="none" font-family="helvetica" font-size="11px" font-style="normal" font-weight="normal" text-decoration="normal" x="25.70849609375" y="72.8901138305664" text-anchor="start" dominant-baseline="alphabetic" transform="matrix(1, 0, 0, 1, 0.5, 0.5)" fill-opacity="1">0.5</text><text fill="none" stroke="rgb(0,0,0)" font-family="helvetica" font-size="11px" font-style="normal" font-weight="normal" text-decoration="normal" x="25.70849609375" y="72.8901138305664" text-anchor="start" dominant-baseline="alphabetic" transform="matrix(1, 0, 0, 1, 0.5, 0.5)" stroke-opacity="0" stroke-linejoin="bevel" stroke-miterlimit="10">0.5</text><text fill="rgb(68,68,68)" stroke="none" font-family="helvetica" font-size="11px" font-style="normal" font-weight="normal" text-decoration="normal" x="25.70849609375" y="47.28632354736328" text-anchor="start" dominant-baseline="alphabetic" transform="matrix(1, 0, 0, 1, 0.5, 0.5)" fill-opacity="1">0.6</text><text fill="none" stroke="rgb(0,0,0)" font-family="helvetica" font-size="11px" font-style="normal" font-weight="normal" text-decoration="normal" x="25.70849609375" y="47.28632354736328" text-anchor="start" dominant-baseline="alphabetic" transform="matrix(1, 0, 0, 1, 0.5, 0.5)" stroke-opacity="0" stroke-linejoin="bevel" stroke-miterlimit="10">0.6</text><text fill="rgb(68,68,68)" stroke="none" font-family="helvetica" font-size="13px" font-style="italic" font-weight="normal" text-decoration="normal" x="-47.31689453125" y="113" text-anchor="start" dominant-baseline="alphabetic" transform="matrix(6.123233995736766e-17, -1, 1, 6.123233995736766e-17, -97.79150390625, 134.20849609375)" fill-opacity="1">Normalised Probability</text><text fill="none" stroke="rgb(0,0,0)" font-family="helvetica" font-size="13px" font-style="italic" font-weight="normal" text-decoration="normal" x="-47.31689453125" y="113" text-anchor="start" dominant-baseline="alphabetic" transform="matrix(6.123233995736766e-17, -1, 1, 6.123233995736766e-17, -97.79150390625, 134.20849609375)" stroke-opacity="0" stroke-linejoin="bevel" stroke-miterlimit="10">Normalised Probability</text><path fill="rgb(255,249,186)" stroke="rgb(255,0,0)" paint-order="fill" d="M 152.08458018081194 35.59090909090909 L 152.08458018081194 35.59090909090909 L 152.08458018081194 197.4090909090909 L 152.08458018081194 197.4090909090909 L 152.08458018081194 35.59090909090909 Z" fill-opacity="0.4" clip-path="url(#MmcaSZkrNFNF)" stroke-opacity="1" stroke-linejoin="bevel" stroke-miterlimit="10" stroke-width="2" stroke-dasharray="6"/><path fill="rgb(255,249,186)" stroke="rgb(50,205,50)" paint-order="fill" d="M 155.7583273766976 35.59090909090909 L 155.7583273766976 35.59090909090909 L 155.7583273766976 197.4090909090909 L 155.7583273766976 197.4090909090909 L 155.7583273766976 35.59090909090909 Z" fill-opacity="0.4" clip-path="url(#xnlpchEoMEzc)" stroke-opacity="1" stroke-linejoin="bevel" stroke-miterlimit="10" stroke-width="2" stroke-dasharray="6"/><text fill="rgb(68,68,68)" stroke="none" font-family="helvetica" font-size="13px" font-style="normal" font-weight="bold" text-decoration="normal" x="52" y="19" text-anchor="start" dominant-baseline="alphabetic" transform="matrix(1, 0, 0, 1, 0.5, 0.5)" fill-opacity="1">Convergance Probability</text><text fill="none" stroke="rgb(0,0,0)" font-family="helvetica" font-size="13px" font-style="normal" font-weight="bold" text-decoration="normal" x="52" y="19" text-anchor="start" dominant-baseline="alphabetic" transform="matrix(1, 0, 0, 1, 0.5, 0.5)" stroke-opacity="0" stroke-miterlimit="10" stroke-dasharray="">Convergance Probability</text></svg>