<svg version="1.1" xmlns="http://www.w3.org/2000/svg" width="250" height="250"><defs><clipPath id="AGEUEuCPVrhb"><path fill="none" stroke="none" d="M 52.5 27.5 L 220.5 27.5 L 220.5 205.5 L 52.5 205.5 L 52.5 27.5 Z"/></clipPath><clipPath id="HTPExqmHQTCU"><path fill="none" stroke="none" d="M 52.5 27.5 L 220.5 27.5 L 220.5 205.5 L 52.5 205.5 L 52.5 27.5 Z"/></clipPath><clipPath id="PruJPkwLcTKk"><path fill="none" stroke="none" d="M 52.5 27.5 L 220.5 27.5 L 220.5 205.5 L 52.5 205.5 L 52.5 27.5 Z"/></clipPath><clipPath id="LEnxtIHNKZan"><path fill="none" stroke="none" d="M 52.5 27.5 L 220.5 27.5 L 220.5 205.5 L 52.5 205.5 L 52.5 27.5 Z"/></clipPath><pattern id="xIaUJAiZZFIB" width="3" height="3" patternUnits="userSpaceOnUse"><path fill="rgb(0,0,0)" stroke="none" paint-order="stroke" d="M 2.75 2 A 0.75 0.75 0 0 0 1.25 2 A 0.75 0.75 0 0 0 2.75 2" fill-opacity="0.14901960784313725"/></pattern><clipPath id="IfXaQAupZzBE"><path fill="none" stroke="none" d="M 52.5 27.5 L 220.5 27.5 L 220.5 205.5 L 52.5 205.5 L 52.5 27.5 Z"/></clipPath><clipPath id="dMultcLWqykS"><path fill="none" stroke="none" d="M 52.5 27.5 L 220.5 27.5 L 220.5 205.5 L 52.5 205.5 L 52.5 27.5 Z"/></clipPath><clipPath id="xNAHyDPIbMwK"><path fill="none" stroke="none" d="M 52.5 27.5 L 220.5 27.5 L 220.5 205.5 L 52.5 205.5 L 52.5 27.5 Z"/></clipPath><clipPath id="DyilDvTGvdod"><path fill="none" stroke="none" d="M 52.5 27.5 L 220.5 27.5 L 220.5 205.5 L 52.5 205.5 L 52.5 27.5 Z"/></clipPath></defs><path fill="rgb(255,255,255)" stroke="none" paint-order="stroke" d="M 0.5 0.5 L 250.5 0.5 L 250.5 250.5 L 0.5 250.5 L 0.5 0.5 Z" fill-opacity="1"/><rect fill="#FFFFFF" stroke="none" x="52" y="27" width="168" height="178" transform="matrix(1, 0, 0, 1, 0.5, 0.5)"/><path fill="rgb(255,255,255)" stroke="none" paint-order="stroke" d="M 52.5 27.5 L 220.5 27.5 L 220.5 205.5 L 52.5 205.5 L 52.5 27.5 Z" fill-opacity="1"/><path fill="none" stroke="rgb(229,229,229)" paint-order="fill" d="M 52.5 27.5 L 220.5 27.5 L 220.5 205.5 L 52.5 205.5 L 52.5 27.5 Z" stroke-opacity="1" stroke-linejoin="bevel" stroke-miterlimit="10"/><path fill="none" stroke="rgb(229,229,229)" paint-order="fill" d="M 59.5 205.5 L 59.5 27.5 M 99.5 205.5 L 99.5 27.5 M 138.5 205.5 L 138.5 27.5 M 177.5 205.5 L 177.5 27.5 M 216.5 205.5 L 216.5 27.5" stroke-opacity="1" stroke-linejoin="bevel" stroke-miterlimit="10" clip-path="url(#AGEUEuCPVrhb)"/><path fill="none" stroke="rgb(229,229,229)" paint-order="fill" d="M 52.5 197.5 L 220.5 197.5 M 52.5 170.5 L 220.5 170.5 M 52.5 144.5 L 220.5 144.5 M 52.5 117.5 L 220.5 117.5 M 52.5 90.5 L 220.5 90.5 M 52.5 64.5 L 220.5 64.5 M 52.5 37.5 L 220.5 37.5" stroke-opacity="1" stroke-linejoin="bevel" stroke-miterlimit="10" clip-path="url(#HTPExqmHQTCU)"/><path fill="none" stroke="rgb(0,0,0)" paint-order="fill" d="M 105.20011138916016 13.104832649230957 L 105.20011138916016 58.07698440551758" stroke-opacity="1" stroke-linejoin="bevel" stroke-miterlimit="10" clip-path="url(#PruJPkwLcTKk)"/><path fill="none" stroke="rgb(0,0,0)" paint-order="fill" d="M 162.10899353027344 32.89787673950195 L 162.10899353027344 57.78010559082031" stroke-opacity="1" stroke-linejoin="bevel" stroke-miterlimit="10" clip-path="url(#PruJPkwLcTKk)"/><path fill="none" stroke="rgb(0,0,0)" paint-order="fill" d="" stroke-opacity="1" stroke-linejoin="bevel" stroke-miterlimit="10" clip-path="url(#PruJPkwLcTKk)"/><path fill="none" stroke="rgb(0,0,0)" paint-order="fill" d="M 100.20011138916016 13.104832649230957 L 110.20011138916016 13.104832649230957" stroke-opacity="1" stroke-linejoin="bevel" stroke-miterlimit="10" clip-path="url(#PruJPkwLcTKk)"/><path fill="none" stroke="rgb(0,0,0)" paint-order="fill" d="M 157.10899353027344 32.89787673950195 L 167.10899353027344 32.89787673950195" stroke-opacity="1" stroke-linejoin="bevel" stroke-miterlimit="10" clip-path="url(#PruJPkwLcTKk)"/><path fill="none" stroke="rgb(0,0,0)" paint-order="fill" d="M -4.5 0.5000000000000007 L 5.5 0.4999999999999994" stroke-opacity="1" stroke-linejoin="bevel" stroke-miterlimit="10" clip-path="url(#PruJPkwLcTKk)"/><path fill="none" stroke="rgb(0,0,0)" paint-order="fill" d="M 110.20011138916016 58.07698440551758 L 100.20011138916016 58.07698440551758" stroke-opacity="1" stroke-linejoin="bevel" stroke-miterlimit="10" clip-path="url(#PruJPkwLcTKk)"/><path fill="none" stroke="rgb(0,0,0)" paint-order="fill" d="M 167.10899353027344 57.78010559082031 L 157.10899353027344 57.78010559082031" stroke-opacity="1" stroke-linejoin="bevel" stroke-miterlimit="10" clip-path="url(#PruJPkwLcTKk)"/><path fill="none" stroke="rgb(0,0,0)" paint-order="fill" d="M 5.5 0.5 L -4.5 0.5" stroke-opacity="1" stroke-linejoin="bevel" stroke-miterlimit="10" clip-path="url(#PruJPkwLcTKk)"/><path fill="rgb(128,128,128)" stroke="none" paint-order="stroke" d="M 76.74567413330078 35.590911865234375 L 190.56344604492188 35.590911865234375 L 190.56344604492188 197.40908813476562 L 76.74567413330078 197.40908813476562 L 76.74567413330078 35.590911865234375 Z" fill-opacity="0.10196078431372549" clip-path="url(#LEnxtIHNKZan)"/><path fill="url(#xIaUJAiZZFIB)" stroke="rgb(0,0,0)" paint-order="fill" d="M 76.74567413330078 35.590911865234375 L 190.56344604492188 35.590911865234375 L 190.56344604492188 197.40908813476562 L 76.74567413330078 197.40908813476562 L 76.74567413330078 35.590911865234375 Z" clip-path="url(#LEnxtIHNKZan)" stroke-opacity="0.2" stroke-linejoin="bevel" stroke-miterlimit="10"/><path fill="rgb(100,149,237)" stroke="rgb(31,119,180)" paint-order="fill" d="M 76.74566650390625 35.59090805053711 L 133.65455627441406 35.59090805053711 L 133.65455627441406 197.40908813476562 L 76.74566650390625 197.40908813476562 L 76.74566650390625 35.59090805053711 Z" fill-opacity="0.5019607843137255" clip-path="url(#IfXaQAupZzBE)" stroke-opacity="0.5019607843137255" stroke-linejoin="bevel" stroke-miterlimit="10"/><path fill="rgb(100,149,237)" stroke="rgb(31,119,180)" paint-order="fill" d="M 133.65455627441406 45.338993072509766 L 190.5634307861328 45.338993072509766 L 190.5634307861328 197.40908813476562 L 133.65455627441406 197.40908813476562 L 133.65455627441406 45.338993072509766 Z" fill-opacity="0.5019607843137255" clip-path="url(#IfXaQAupZzBE)" stroke-opacity="0.5019607843137255" stroke-linejoin="bevel" stroke-miterlimit="10"/><path fill="rgb(100,149,237)" stroke="rgb(31,119,180)" paint-order="fill" d="M 190.56344604492188 197.40908813476562 L 220.5 197.40908813476562 L 220.5 197.40908813476562 L 190.56344604492188 197.40908813476562 L 190.56344604492188 197.40908813476562 Z" fill-opacity="0.5019607843137255" clip-path="url(#IfXaQAupZzBE)" stroke-opacity="0.5019607843137255" stroke-linejoin="bevel" stroke-miterlimit="10"/><path fill="none" stroke="rgb(0,0,0)" paint-order="fill" d="M 52.5 205.5 L 220.5 205.5" stroke-opacity="1" stroke-linejoin="bevel" stroke-miterlimit="10"/><path fill="none" stroke="rgb(0,0,0)" paint-order="fill" d="M 59.5 211.5 L 59.5 203.5 M 99.5 211.5 L 99.5 203.5 M 138.5 211.5 L 138.5 203.5 M 177.5 211.5 L 177.5 203.5 M 216.5 211.5 L 216.5 203.5" stroke-opacity="1" stroke-linejoin="bevel" stroke-miterlimit="10"/><path fill="none" stroke="rgb(0,0,0)" paint-order="fill" d="M 59.5 209.5 L 59.5 205.5 M 67.5 209.5 L 67.5 205.5 M 75.5 209.5 L 75.5 205.5 M 83.5 209.5 L 83.5 205.5 M 91.5 209.5 L 91.5 205.5 M 99.5 209.5 L 99.5 205.5 M 106.5 209.5 L 106.5 205.5 M 114.5 209.5 L 114.5 205.5 M 122.5 209.5 L 122.5 205.5 M 130.5 209.5 L 130.5 205.5 M 138.5 209.5 L 138.5 205.5 M 145.5 209.5 L 145.5 205.5 M 153.5 209.5 L 153.5 205.5 M 161.5 209.5 L 161.5 205.5 M 169.5 209.5 L 169.5 205.5 M 177.5 209.5 L 177.5 205.5 M 184.5 209.5 L 184.5 205.5 M 192.5 209.5 L 192.5 205.5 M 200.5 209.5 L 200.5 205.5 M 208.5 209.5 L 208.5 205.5 M 216.5 209.5 L 216.5 205.5" stroke-opacity="1" stroke-linejoin="bevel" stroke-miterlimit="10"/><text fill="rgb(68,68,68)" stroke="none" font-family="helvetica" font-size="11px" font-style="normal" font-weight="normal" text-decoration="normal" x="51.847557067871094" y="224" text-anchor="start" dominant-baseline="alphabetic" transform="matrix(1, 0, 0, 1, 0.5, 0.5)" fill-opacity="1">0.6</text><text fill="none" stroke="rgb(0,0,0)" font-family="helvetica" font-size="11px" font-style="normal" font-weight="normal" text-decoration="normal" x="51.847557067871094" y="224" text-anchor="start" dominant-baseline="alphabetic" transform="matrix(1, 0, 0, 1, 0.5, 0.5)" stroke-opacity="0" stroke-linejoin="bevel" stroke-miterlimit="10">0.6</text><text fill="rgb(68,68,68)" stroke="none" font-family="helvetica" font-size="11px" font-style="normal" font-weight="normal" text-decoration="normal" x="87.8021469116211" y="224" text-anchor="start" dominant-baseline="alphabetic" transform="matrix(1, 0, 0, 1, 0.5, 0.5)" fill-opacity="1">0.65</text><text fill="none" stroke="rgb(0,0,0)" font-family="helvetica" font-size="11px" font-style="normal" font-weight="normal" text-decoration="normal" x="87.8021469116211" y="224" text-anchor="start" dominant-baseline="alphabetic" transform="matrix(1, 0, 0, 1, 0.5, 0.5)" stroke-opacity="0" stroke-linejoin="bevel" stroke-miterlimit="10">0.65</text><text fill="rgb(68,68,68)" stroke="none" font-family="helvetica" font-size="11px" font-style="normal" font-weight="normal" text-decoration="normal" x="129.87440490722656" y="224" text-anchor="start" dominant-baseline="alphabetic" transform="matrix(1, 0, 0, 1, 0.5, 0.5)" fill-opacity="1">0.7</text><text fill="none" stroke="rgb(0,0,0)" font-family="helvetica" font-size="11px" font-style="normal" font-weight="normal" text-decoration="normal" x="129.87440490722656" y="224" text-anchor="start" dominant-baseline="alphabetic" transform="matrix(1, 0, 0, 1, 0.5, 0.5)" stroke-opacity="0" stroke-linejoin="bevel" stroke-miterlimit="10">0.7</text><text fill="rgb(68,68,68)" stroke="none" font-family="helvetica" font-size="11px" font-style="normal" font-weight="normal" text-decoration="normal" x="165.82899475097656" y="224" text-anchor="start" dominant-baseline="alphabetic" transform="matrix(1, 0, 0, 1, 0.5, 0.5)" fill-opacity="1">0.75</text><text fill="none" stroke="rgb(0,0,0)" font-family="helvetica" font-size="11px" font-style="normal" font-weight="normal" text-decoration="normal" x="165.82899475097656" y="224" text-anchor="start" dominant-baseline="alphabetic" transform="matrix(1, 0, 0, 1, 0.5, 0.5)" stroke-opacity="0" stroke-linejoin="bevel" stroke-miterlimit="10">0.75</text><text fill="rgb(68,68,68)" stroke="none" font-family="helvetica" font-size="11px" font-style="normal" font-weight="normal" text-decoration="normal" x="207.90126037597656" y="224" text-anchor="start" dominant-baseline="alphabetic" transform="matrix(1, 0, 0, 1, 0.5, 0.5)" fill-opacity="1">0.8</text><text fill="none" stroke="rgb(0,0,0)" font-family="helvetica" font-size="11px" font-style="normal" font-weight="normal" text-decoration="normal" x="207.90126037597656" y="224" text-anchor="start" dominant-baseline="alphabetic" transform="matrix(1, 0, 0, 1, 0.5, 0.5)" stroke-opacity="0" stroke-linejoin="bevel" stroke-miterlimit="10">0.8</text><text fill="rgb(68,68,68)" stroke="none" font-family="helvetica" font-size="13px" font-style="italic" font-weight="normal" text-decoration="normal" x="120.09912109375" y="244" text-anchor="start" dominant-baseline="alphabetic" transform="matrix(1, 0, 0, 1, 0.5, 0.5)" fill-opacity="1">ohcth</text><text fill="none" stroke="rgb(0,0,0)" font-family="helvetica" font-size="13px" font-style="italic" font-weight="normal" text-decoration="normal" x="120.09912109375" y="244" text-anchor="start" dominant-baseline="alphabetic" transform="matrix(1, 0, 0, 1, 0.5, 0.5)" stroke-opacity="0" stroke-linejoin="bevel" stroke-miterlimit="10">ohcth</text><path fill="none" stroke="rgb(0,0,0)" paint-order="fill" d="M 52.5 205.5 L 52.5 27.5" stroke-opacity="1" stroke-linejoin="bevel" stroke-miterlimit="10"/><path fill="none" stroke="rgb(0,0,0)" paint-order="fill" d="M 46.5 197.5 L 54.5 197.5 M 46.5 170.5 L 54.5 170.5 M 46.5 144.5 L 54.5 144.5 M 46.5 117.5 L 54.5 117.5 M 46.5 90.5 L 54.5 90.5 M 46.5 64.5 L 54.5 64.5 M 46.5 37.5 L 54.5 37.5" stroke-opacity="1" stroke-linejoin="bevel" stroke-miterlimit="10"/><path fill="none" stroke="rgb(0,0,0)" paint-order="fill" d="M 48.5 202.5 L 52.5 202.5 M 48.5 197.5 L 52.5 197.5 M 48.5 192.5 L 52.5 192.5 M 48.5 186.5 L 52.5 186.5 M 48.5 181.5 L 52.5 181.5 M 48.5 176.5 L 52.5 176.5 M 48.5 170.5 L 52.5 170.5 M 48.5 165.5 L 52.5 165.5 M 48.5 160.5 L 52.5 160.5 M 48.5 154.5 L 52.5 154.5 M 48.5 149.5 L 52.5 149.5 M 48.5 144.5 L 52.5 144.5 M 48.5 138.5 L 52.5 138.5 M 48.5 133.5 L 52.5 133.5 M 48.5 128.5 L 52.5 128.5 M 48.5 122.5 L 52.5 122.5 M 48.5 117.5 L 52.5 117.5 M 48.5 112.5 L 52.5 112.5 M 48.5 106.5 L 52.5 106.5 M 48.5 101.5 L 52.5 101.5 M 48.5 96.5 L 52.5 96.5 M 48.5 90.5 L 52.5 90.5 M 48.5 85.5 L 52.5 85.5 M 48.5 80.5 L 52.5 80.5 M 48.5 74.5 L 52.5 74.5 M 48.5 69.5 L 52.5 69.5 M 48.5 64.5 L 52.5 64.5 M 48.5 58.5 L 52.5 58.5 M 48.5 53.5 L 52.5 53.5 M 48.5 48.5 L 52.5 48.5 M 48.5 42.5 L 52.5 42.5 M 48.5 37.5 L 52.5 37.5 M 48.5 32.5 L 52.5 32.5" stroke-opacity="1" stroke-linejoin="bevel" stroke-miterlimit="10"/><text fill="rgb(68,68,68)" stroke="none" font-family="helvetica" font-size="11px" font-style="normal" font-weight="normal" text-decoration="normal" x="34.88232421875" y="200.90908813476562" text-anchor="start" dominant-baseline="alphabetic" transform="matrix(1, 0, 0, 1, 0.5, 0.5)" fill-opacity="1">0</text><text fill="none" stroke="rgb(0,0,0)" font-family="helvetica" font-size="11px" font-style="normal" font-weight="normal" text-decoration="normal" x="34.88232421875" y="200.90908813476562" text-anchor="start" dominant-baseline="alphabetic" transform="matrix(1, 0, 0, 1, 0.5, 0.5)" stroke-opacity="0" stroke-linejoin="bevel" stroke-miterlimit="10">0</text><text fill="rgb(68,68,68)" stroke="none" font-family="helvetica" font-size="11px" font-style="normal" font-weight="normal" text-decoration="normal" x="25.70849609375" y="174.28334045410156" text-anchor="start" dominant-baseline="alphabetic" transform="matrix(1, 0, 0, 1, 0.5, 0.5)" fill-opacity="1">0.1</text><text fill="none" stroke="rgb(0,0,0)" font-family="helvetica" font-size="11px" font-style="normal" font-weight="normal" text-decoration="normal" x="25.70849609375" y="174.28334045410156" text-anchor="start" dominant-baseline="alphabetic" transform="matrix(1, 0, 0, 1, 0.5, 0.5)" stroke-opacity="0" stroke-linejoin="bevel" stroke-miterlimit="10">0.1</text><text fill="rgb(68,68,68)" stroke="none" font-family="helvetica" font-size="11px" font-style="normal" font-weight="normal" text-decoration="normal" x="25.70849609375" y="147.65757751464844" text-anchor="start" dominant-baseline="alphabetic" transform="matrix(1, 0, 0, 1, 0.5, 0.5)" fill-opacity="1">0.2</text><text fill="none" stroke="rgb(0,0,0)" font-family="helvetica" font-size="11px" font-style="normal" font-weight="normal" text-decoration="normal" x="25.70849609375" y="147.65757751464844" text-anchor="start" dominant-baseline="alphabetic" transform="matrix(1, 0, 0, 1, 0.5, 0.5)" stroke-opacity="0" stroke-linejoin="bevel" stroke-miterlimit="10">0.2</text><text fill="rgb(68,68,68)" stroke="none" font-family="helvetica" font-size="11px" font-style="normal" font-weight="normal" text-decoration="normal" x="25.70849609375" y="121.03182220458984" text-anchor="start" dominant-baseline="alphabetic" transform="matrix(1, 0, 0, 1, 0.5, 0.5)" fill-opacity="1">0.3</text><text fill="none" stroke="rgb(0,0,0)" font-family="helvetica" font-size="11px" font-style="normal" font-weight="normal" text-decoration="normal" x="25.70849609375" y="121.03182220458984" text-anchor="start" dominant-baseline="alphabetic" transform="matrix(1, 0, 0, 1, 0.5, 0.5)" stroke-opacity="0" stroke-linejoin="bevel" stroke-miterlimit="10">0.3</text><text fill="rgb(68,68,68)" stroke="none" font-family="helvetica" font-size="11px" font-style="normal" font-weight="normal" text-decoration="normal" x="25.70849609375" y="94.40606689453125" text-anchor="start" dominant-baseline="alphabetic" transform="matrix(1, 0, 0, 1, 0.5, 0.5)" fill-opacity="1">0.4</text><text fill="none" stroke="rgb(0,0,0)" font-family="helvetica" font-size="11px" font-style="normal" font-weight="normal" text-decoration="normal" x="25.70849609375" y="94.40606689453125" text-anchor="start" dominant-baseline="alphabetic" transform="matrix(1, 0, 0, 1, 0.5, 0.5)" stroke-opacity="0" stroke-linejoin="bevel" stroke-miterlimit="10">0.4</text><text fill="rgb(68,68,68)" stroke="none" font-family="helvetica" font-size="11px" font-style="normal" font-weight="normal" text-decoration="normal" x="25.70849609375" y="67.78031539916992" text-anchor="start" dominant-baseline="alphabetic" transform="matrix(1, 0, 0, 1, 0.5, 0.5)" fill-opacity="1">0.5</text><text fill="none" stroke="rgb(0,0,0)" font-family="helvetica" font-size="11px" font-style="normal" font-weight="normal" text-decoration="normal" x="25.70849609375" y="67.78031539916992" text-anchor="start" dominant-baseline="alphabetic" transform="matrix(1, 0, 0, 1, 0.5, 0.5)" stroke-opacity="0" stroke-linejoin="bevel" stroke-miterlimit="10">0.5</text><text fill="rgb(68,68,68)" stroke="none" font-family="helvetica" font-size="11px" font-style="normal" font-weight="normal" text-decoration="normal" x="25.70849609375" y="41.15456008911133" text-anchor="start" dominant-baseline="alphabetic" transform="matrix(1, 0, 0, 1, 0.5, 0.5)" fill-opacity="1">0.6</text><text fill="none" stroke="rgb(0,0,0)" font-family="helvetica" font-size="11px" font-style="normal" font-weight="normal" text-decoration="normal" x="25.70849609375" y="41.15456008911133" text-anchor="start" dominant-baseline="alphabetic" transform="matrix(1, 0, 0, 1, 0.5, 0.5)" stroke-opacity="0" stroke-linejoin="bevel" stroke-miterlimit="10">0.6</text><text fill="rgb(68,68,68)" stroke="none" font-family="helvetica" font-size="13px" font-style="italic" font-weight="normal" text-decoration="normal" x="-47.31689453125" y="113" text-anchor="start" dominant-baseline="alphabetic" transform="matrix(6.123233995736766e-17, -1, 1, 6.123233995736766e-17, -97.79150390625, 134.20849609375)" fill-opacity="1">Normalised Probability</text><text fill="none" stroke="rgb(0,0,0)" font-family="helvetica" font-size="13px" font-style="italic" font-weight="normal" text-decoration="normal" x="-47.31689453125" y="113" text-anchor="start" dominant-baseline="alphabetic" transform="matrix(6.123233995736766e-17, -1, 1, 6.123233995736766e-17, -97.79150390625, 134.20849609375)" stroke-opacity="0" stroke-linejoin="bevel" stroke-miterlimit="10">Normalised Probability</text><path fill="rgb(255,249,186)" stroke="rgb(255,0,0)" paint-order="fill" d="M 146.04934175142313 35.59090909090909 L 146.04934175142313 35.59090909090909 L 146.04934175142313 197.4090909090909 L 146.04934175142313 197.4090909090909 L 146.04934175142313 35.59090909090909 Z" fill-opacity="0.4" clip-path="url(#dMultcLWqykS)" stroke-opacity="1" stroke-linejoin="bevel" stroke-miterlimit="10" stroke-width="2" stroke-dasharray="6"/><path fill="rgb(255,249,186)" stroke="rgb(50,205,50)" paint-order="fill" d="M 105.20011448582392 35.59090909090909 L 105.20011448582392 35.59090909090909 L 105.20011448582392 197.4090909090909 L 105.20011448582392 197.4090909090909 L 105.20011448582392 35.59090909090909 Z" fill-opacity="0.4" clip-path="url(#xNAHyDPIbMwK)" stroke-opacity="1" stroke-linejoin="bevel" stroke-miterlimit="10" stroke-width="2" stroke-dasharray="6"/><text fill="rgb(68,68,68)" stroke="none" font-family="helvetica" font-size="13px" font-style="normal" font-weight="bold" text-decoration="normal" x="52" y="19" text-anchor="start" dominant-baseline="alphabetic" transform="matrix(1, 0, 0, 1, 0.5, 0.5)" fill-opacity="1">Convergance Probability</text><text fill="none" stroke="rgb(0,0,0)" font-family="helvetica" font-size="13px" font-style="normal" font-weight="bold" text-decoration="normal" x="52" y="19" text-anchor="start" dominant-baseline="alphabetic" transform="matrix(1, 0, 0, 1, 0.5, 0.5)" stroke-opacity="0" stroke-miterlimit="10" stroke-dasharray="">Convergance Probability</text></svg>