<svg version="1.1" xmlns="http://www.w3.org/2000/svg" width="250" height="250"><defs><clipPath id="OTluEzVvILZr"><path fill="none" stroke="none" d="M 52.5 27.5 L 220.5 27.5 L 220.5 205.5 L 52.5 205.5 L 52.5 27.5 Z"/></clipPath><clipPath id="rgfeeppWCQdu"><path fill="none" stroke="none" d="M 52.5 27.5 L 220.5 27.5 L 220.5 205.5 L 52.5 205.5 L 52.5 27.5 Z"/></clipPath><clipPath id="NOJbxSiBRspm"><path fill="none" stroke="none" d="M 52.5 27.5 L 220.5 27.5 L 220.5 205.5 L 52.5 205.5 L 52.5 27.5 Z"/></clipPath><clipPath id="luCiQalTFSMm"><path fill="none" stroke="none" d="M 52.5 27.5 L 220.5 27.5 L 220.5 205.5 L 52.5 205.5 L 52.5 27.5 Z"/></clipPath><pattern id="TrcAfhGXIpTC" width="3" height="3" patternUnits="userSpaceOnUse"><path fill="rgb(0,0,0)" stroke="none" paint-order="stroke" d="M 2.75 2 A 0.75 0.75 0 0 0 1.25 2 A 0.75 0.75 0 0 0 2.75 2" fill-opacity="0.14901960784313725"/></pattern><clipPath id="DlIWoZHebmvB"><path fill="none" stroke="none" d="M 52.5 27.5 L 220.5 27.5 L 220.5 205.5 L 52.5 205.5 L 52.5 27.5 Z"/></clipPath><clipPath id="mVpneDGSRmgl"><path fill="none" stroke="none" d="M 52.5 27.5 L 220.5 27.5 L 220.5 205.5 L 52.5 205.5 L 52.5 27.5 Z"/></clipPath><clipPath id="kLIUblFaTtLk"><path fill="none" stroke="none" d="M 52.5 27.5 L 220.5 27.5 L 220.5 205.5 L 52.5 205.5 L 52.5 27.5 Z"/></clipPath><clipPath id="sSJCAMhyJfru"><path fill="none" stroke="none" d="M 52.5 27.5 L 220.5 27.5 L 220.5 205.5 L 52.5 205.5 L 52.5 27.5 Z"/></clipPath></defs><path fill="rgb(255,255,255)" stroke="none" paint-order="stroke" d="M 0.5 0.5 L 250.5 0.5 L 250.5 250.5 L 0.5 250.5 L 0.5 0.5 Z" fill-opacity="1"/><rect fill="#FFFFFF" stroke="none" x="52" y="27" width="168" height="178" transform="matrix(1, 0, 0, 1, 0.5, 0.5)"/><path fill="rgb(255,255,255)" stroke="none" paint-order="stroke" d="M 52.5 27.5 L 220.5 27.5 L 220.5 205.5 L 52.5 205.5 L 52.5 27.5 Z" fill-opacity="1"/><path fill="none" stroke="rgb(229,229,229)" paint-order="fill" d="M 52.5 27.5 L 220.5 27.5 L 220.5 205.5 L 52.5 205.5 L 52.5 27.5 Z" stroke-opacity="1" stroke-linejoin="bevel" stroke-miterlimit="10"/><path fill="none" stroke="rgb(229,229,229)" paint-order="fill" d="M 66.5 205.5 L 66.5 27.5 M 100.5 205.5 L 100.5 27.5 M 133.5 205.5 L 133.5 27.5 M 167.5 205.5 L 167.5 27.5 M 201.5 205.5 L 201.5 27.5" stroke-opacity="1" stroke-linejoin="bevel" stroke-miterlimit="10" clip-path="url(#OTluEzVvILZr)"/><path fill="none" stroke="rgb(229,229,229)" paint-order="fill" d="M 52.5 197.5 L 220.5 197.5 M 52.5 163.5 L 220.5 163.5 M 52.5 129.5 L 220.5 129.5 M 52.5 95.5 L 220.5 95.5 M 52.5 61.5 L 220.5 61.5" stroke-opacity="1" stroke-linejoin="bevel" stroke-miterlimit="10" clip-path="url(#rgfeeppWCQdu)"/><path fill="none" stroke="rgb(0,0,0)" paint-order="fill" d="M 105.08677673339844 13.39273738861084 L 105.08677673339844 57.78908157348633" stroke-opacity="1" stroke-linejoin="bevel" stroke-miterlimit="10" clip-path="url(#NOJbxSiBRspm)"/><path fill="none" stroke="rgb(0,0,0)" paint-order="fill" d="M 162.2017364501953 51.00749206542969 L 162.2017364501953 78.86665344238281" stroke-opacity="1" stroke-linejoin="bevel" stroke-miterlimit="10" clip-path="url(#NOJbxSiBRspm)"/><path fill="none" stroke="rgb(0,0,0)" paint-order="fill" d="" stroke-opacity="1" stroke-linejoin="bevel" stroke-miterlimit="10" clip-path="url(#NOJbxSiBRspm)"/><path fill="none" stroke="rgb(0,0,0)" paint-order="fill" d="M 100.08677673339844 13.39273738861084 L 110.08677673339844 13.39273738861084" stroke-opacity="1" stroke-linejoin="bevel" stroke-miterlimit="10" clip-path="url(#NOJbxSiBRspm)"/><path fill="none" stroke="rgb(0,0,0)" paint-order="fill" d="M 157.2017364501953 51.00749206542969 L 167.2017364501953 51.00749206542969" stroke-opacity="1" stroke-linejoin="bevel" stroke-miterlimit="10" clip-path="url(#NOJbxSiBRspm)"/><path fill="none" stroke="rgb(0,0,0)" paint-order="fill" d="M -4.5 0.5000000000000007 L 5.5 0.4999999999999994" stroke-opacity="1" stroke-linejoin="bevel" stroke-miterlimit="10" clip-path="url(#NOJbxSiBRspm)"/><path fill="none" stroke="rgb(0,0,0)" paint-order="fill" d="M 110.08677673339844 57.78908157348633 L 100.08677673339844 57.78908157348633" stroke-opacity="1" stroke-linejoin="bevel" stroke-miterlimit="10" clip-path="url(#NOJbxSiBRspm)"/><path fill="none" stroke="rgb(0,0,0)" paint-order="fill" d="M 167.2017364501953 78.86665344238281 L 157.2017364501953 78.86665344238281" stroke-opacity="1" stroke-linejoin="bevel" stroke-miterlimit="10" clip-path="url(#NOJbxSiBRspm)"/><path fill="none" stroke="rgb(0,0,0)" paint-order="fill" d="M 5.5 0.5 L -4.5 0.5" stroke-opacity="1" stroke-linejoin="bevel" stroke-miterlimit="10" clip-path="url(#NOJbxSiBRspm)"/><path fill="rgb(128,128,128)" stroke="none" paint-order="stroke" d="M 76.529296875 35.590911865234375 L 190.75921630859375 35.590911865234375 L 190.75921630859375 197.40908813476562 L 76.529296875 197.40908813476562 L 76.529296875 35.590911865234375 Z" fill-opacity="0.10196078431372549" clip-path="url(#luCiQalTFSMm)"/><path fill="url(#TrcAfhGXIpTC)" stroke="rgb(0,0,0)" paint-order="fill" d="M 76.529296875 35.590911865234375 L 190.75921630859375 35.590911865234375 L 190.75921630859375 197.40908813476562 L 76.529296875 197.40908813476562 L 76.529296875 35.590911865234375 Z" clip-path="url(#luCiQalTFSMm)" stroke-opacity="0.2" stroke-linejoin="bevel" stroke-miterlimit="10"/><path fill="rgb(100,149,237)" stroke="rgb(31,119,180)" paint-order="fill" d="M 76.529296875 35.59090805053711 L 133.64425659179688 35.59090805053711 L 133.64425659179688 197.40908813476562 L 76.529296875 197.40908813476562 L 76.529296875 35.59090805053711 Z" fill-opacity="0.5019607843137255" clip-path="url(#DlIWoZHebmvB)" stroke-opacity="0.5019607843137255" stroke-linejoin="bevel" stroke-miterlimit="10"/><path fill="rgb(100,149,237)" stroke="rgb(31,119,180)" paint-order="fill" d="M 133.64425659179688 64.93707275390625 L 190.75921630859375 64.93707275390625 L 190.75921630859375 197.40908813476562 L 133.64425659179688 197.40908813476562 L 133.64425659179688 64.93707275390625 Z" fill-opacity="0.5019607843137255" clip-path="url(#DlIWoZHebmvB)" stroke-opacity="0.5019607843137255" stroke-linejoin="bevel" stroke-miterlimit="10"/><path fill="rgb(100,149,237)" stroke="rgb(31,119,180)" paint-order="fill" d="M 190.7592010498047 197.40908813476562 L 220.5 197.40908813476562 L 220.5 197.40908813476562 L 190.7592010498047 197.40908813476562 L 190.7592010498047 197.40908813476562 Z" fill-opacity="0.5019607843137255" clip-path="url(#DlIWoZHebmvB)" stroke-opacity="0.5019607843137255" stroke-linejoin="bevel" stroke-miterlimit="10"/><path fill="none" stroke="rgb(0,0,0)" paint-order="fill" d="M 52.5 205.5 L 220.5 205.5" stroke-opacity="1" stroke-linejoin="bevel" stroke-miterlimit="10"/><path fill="none" stroke="rgb(0,0,0)" paint-order="fill" d="M 66.5 211.5 L 66.5 203.5 M 100.5 211.5 L 100.5 203.5 M 133.5 211.5 L 133.5 203.5 M 167.5 211.5 L 167.5 203.5 M 201.5 211.5 L 201.5 203.5" stroke-opacity="1" stroke-linejoin="bevel" stroke-miterlimit="10"/><path fill="none" stroke="rgb(0,0,0)" paint-order="fill" d="M 59.5 209.5 L 59.5 205.5 M 53.5 209.5 L 53.5 205.5 M 66.5 209.5 L 66.5 205.5 M 73.5 209.5 L 73.5 205.5 M 80.5 209.5 L 80.5 205.5 M 86.5 209.5 L 86.5 205.5 M 93.5 209.5 L 93.5 205.5 M 100.5 209.5 L 100.5 205.5 M 106.5 209.5 L 106.5 205.5 M 113.5 209.5 L 113.5 205.5 M 120.5 209.5 L 120.5 205.5 M 127.5 209.5 L 127.5 205.5 M 133.5 209.5 L 133.5 205.5 M 140.5 209.5 L 140.5 205.5 M 147.5 209.5 L 147.5 205.5 M 153.5 209.5 L 153.5 205.5 M 160.5 209.5 L 160.5 205.5 M 167.5 209.5 L 167.5 205.5 M 174.5 209.5 L 174.5 205.5 M 180.5 209.5 L 180.5 205.5 M 187.5 209.5 L 187.5 205.5 M 194.5 209.5 L 194.5 205.5 M 201.5 209.5 L 201.5 205.5 M 207.5 209.5 L 207.5 205.5 M 214.5 209.5 L 214.5 205.5" stroke-opacity="1" stroke-linejoin="bevel" stroke-miterlimit="10"/><text fill="rgb(68,68,68)" stroke="none" font-family="helvetica" font-size="11px" font-style="normal" font-weight="normal" text-decoration="normal" x="56.90220642089844" y="224" text-anchor="start" dominant-baseline="alphabetic" transform="matrix(1, 0, 0, 1, 0.5, 0.5)" fill-opacity="1">140</text><text fill="none" stroke="rgb(0,0,0)" font-family="helvetica" font-size="11px" font-style="normal" font-weight="normal" text-decoration="normal" x="56.90220642089844" y="224" text-anchor="start" dominant-baseline="alphabetic" transform="matrix(1, 0, 0, 1, 0.5, 0.5)" stroke-opacity="0" stroke-linejoin="bevel" stroke-miterlimit="10">140</text><text fill="rgb(68,68,68)" stroke="none" font-family="helvetica" font-size="11px" font-style="normal" font-weight="normal" text-decoration="normal" x="90.51901245117188" y="224" text-anchor="start" dominant-baseline="alphabetic" transform="matrix(1, 0, 0, 1, 0.5, 0.5)" fill-opacity="1">150</text><text fill="none" stroke="rgb(0,0,0)" font-family="helvetica" font-size="11px" font-style="normal" font-weight="normal" text-decoration="normal" x="90.51901245117188" y="224" text-anchor="start" dominant-baseline="alphabetic" transform="matrix(1, 0, 0, 1, 0.5, 0.5)" stroke-opacity="0" stroke-linejoin="bevel" stroke-miterlimit="10">150</text><text fill="rgb(68,68,68)" stroke="none" font-family="helvetica" font-size="11px" font-style="normal" font-weight="normal" text-decoration="normal" x="124.13581848144531" y="224" text-anchor="start" dominant-baseline="alphabetic" transform="matrix(1, 0, 0, 1, 0.5, 0.5)" fill-opacity="1">160</text><text fill="none" stroke="rgb(0,0,0)" font-family="helvetica" font-size="11px" font-style="normal" font-weight="normal" text-decoration="normal" x="124.13581848144531" y="224" text-anchor="start" dominant-baseline="alphabetic" transform="matrix(1, 0, 0, 1, 0.5, 0.5)" stroke-opacity="0" stroke-linejoin="bevel" stroke-miterlimit="10">160</text><text fill="rgb(68,68,68)" stroke="none" font-family="helvetica" font-size="11px" font-style="normal" font-weight="normal" text-decoration="normal" x="157.75262451171875" y="224" text-anchor="start" dominant-baseline="alphabetic" transform="matrix(1, 0, 0, 1, 0.5, 0.5)" fill-opacity="1">170</text><text fill="none" stroke="rgb(0,0,0)" font-family="helvetica" font-size="11px" font-style="normal" font-weight="normal" text-decoration="normal" x="157.75262451171875" y="224" text-anchor="start" dominant-baseline="alphabetic" transform="matrix(1, 0, 0, 1, 0.5, 0.5)" stroke-opacity="0" stroke-linejoin="bevel" stroke-miterlimit="10">170</text><text fill="rgb(68,68,68)" stroke="none" font-family="helvetica" font-size="11px" font-style="normal" font-weight="normal" text-decoration="normal" x="191.36944580078125" y="224" text-anchor="start" dominant-baseline="alphabetic" transform="matrix(1, 0, 0, 1, 0.5, 0.5)" fill-opacity="1">180</text><text fill="none" stroke="rgb(0,0,0)" font-family="helvetica" font-size="11px" font-style="normal" font-weight="normal" text-decoration="normal" x="191.36944580078125" y="224" text-anchor="start" dominant-baseline="alphabetic" transform="matrix(1, 0, 0, 1, 0.5, 0.5)" stroke-opacity="0" stroke-linejoin="bevel" stroke-miterlimit="10">180</text><text fill="rgb(68,68,68)" stroke="none" font-family="helvetica" font-size="13px" font-style="italic" font-weight="normal" text-decoration="normal" x="122.27001953125" y="244" text-anchor="start" dominant-baseline="alphabetic" transform="matrix(1, 0, 0, 1, 0.5, 0.5)" fill-opacity="1">pdivt</text><text fill="none" stroke="rgb(0,0,0)" font-family="helvetica" font-size="13px" font-style="italic" font-weight="normal" text-decoration="normal" x="122.27001953125" y="244" text-anchor="start" dominant-baseline="alphabetic" transform="matrix(1, 0, 0, 1, 0.5, 0.5)" stroke-opacity="0" stroke-linejoin="bevel" stroke-miterlimit="10">pdivt</text><path fill="none" stroke="rgb(0,0,0)" paint-order="fill" d="M 52.5 205.5 L 52.5 27.5" stroke-opacity="1" stroke-linejoin="bevel" stroke-miterlimit="10"/><path fill="none" stroke="rgb(0,0,0)" paint-order="fill" d="M 46.5 197.5 L 54.5 197.5 M 46.5 163.5 L 54.5 163.5 M 46.5 129.5 L 54.5 129.5 M 46.5 95.5 L 54.5 95.5 M 46.5 61.5 L 54.5 61.5" stroke-opacity="1" stroke-linejoin="bevel" stroke-miterlimit="10"/><path fill="none" stroke="rgb(0,0,0)" paint-order="fill" d="M 48.5 204.5 L 52.5 204.5 M 48.5 197.5 L 52.5 197.5 M 48.5 190.5 L 52.5 190.5 M 48.5 183.5 L 52.5 183.5 M 48.5 176.5 L 52.5 176.5 M 48.5 170.5 L 52.5 170.5 M 48.5 163.5 L 52.5 163.5 M 48.5 156.5 L 52.5 156.5 M 48.5 149.5 L 52.5 149.5 M 48.5 142.5 L 52.5 142.5 M 48.5 136.5 L 52.5 136.5 M 48.5 129.5 L 52.5 129.5 M 48.5 122.5 L 52.5 122.5 M 48.5 115.5 L 52.5 115.5 M 48.5 108.5 L 52.5 108.5 M 48.5 102.5 L 52.5 102.5 M 48.5 95.5 L 52.5 95.5 M 48.5 88.5 L 52.5 88.5 M 48.5 81.5 L 52.5 81.5 M 48.5 74.5 L 52.5 74.5 M 48.5 67.5 L 52.5 67.5 M 48.5 61.5 L 52.5 61.5 M 48.5 54.5 L 52.5 54.5 M 48.5 47.5 L 52.5 47.5 M 48.5 40.5 L 52.5 40.5 M 48.5 33.5 L 52.5 33.5" stroke-opacity="1" stroke-linejoin="bevel" stroke-miterlimit="10"/><text fill="rgb(68,68,68)" stroke="none" font-family="helvetica" font-size="11px" font-style="normal" font-weight="normal" text-decoration="normal" x="34.88232421875" y="200.90908813476562" text-anchor="start" dominant-baseline="alphabetic" transform="matrix(1, 0, 0, 1, 0.5, 0.5)" fill-opacity="1">0</text><text fill="none" stroke="rgb(0,0,0)" font-family="helvetica" font-size="11px" font-style="normal" font-weight="normal" text-decoration="normal" x="34.88232421875" y="200.90908813476562" text-anchor="start" dominant-baseline="alphabetic" transform="matrix(1, 0, 0, 1, 0.5, 0.5)" stroke-opacity="0" stroke-linejoin="bevel" stroke-miterlimit="10">0</text><text fill="rgb(68,68,68)" stroke="none" font-family="helvetica" font-size="11px" font-style="normal" font-weight="normal" text-decoration="normal" x="25.70849609375" y="166.8461151123047" text-anchor="start" dominant-baseline="alphabetic" transform="matrix(1, 0, 0, 1, 0.5, 0.5)" fill-opacity="1">0.1</text><text fill="none" stroke="rgb(0,0,0)" font-family="helvetica" font-size="11px" font-style="normal" font-weight="normal" text-decoration="normal" x="25.70849609375" y="166.8461151123047" text-anchor="start" dominant-baseline="alphabetic" transform="matrix(1, 0, 0, 1, 0.5, 0.5)" stroke-opacity="0" stroke-linejoin="bevel" stroke-miterlimit="10">0.1</text><text fill="rgb(68,68,68)" stroke="none" font-family="helvetica" font-size="11px" font-style="normal" font-weight="normal" text-decoration="normal" x="25.70849609375" y="132.78314208984375" text-anchor="start" dominant-baseline="alphabetic" transform="matrix(1, 0, 0, 1, 0.5, 0.5)" fill-opacity="1">0.2</text><text fill="none" stroke="rgb(0,0,0)" font-family="helvetica" font-size="11px" font-style="normal" font-weight="normal" text-decoration="normal" x="25.70849609375" y="132.78314208984375" text-anchor="start" dominant-baseline="alphabetic" transform="matrix(1, 0, 0, 1, 0.5, 0.5)" stroke-opacity="0" stroke-linejoin="bevel" stroke-miterlimit="10">0.2</text><text fill="rgb(68,68,68)" stroke="none" font-family="helvetica" font-size="11px" font-style="normal" font-weight="normal" text-decoration="normal" x="25.70849609375" y="98.72017669677734" text-anchor="start" dominant-baseline="alphabetic" transform="matrix(1, 0, 0, 1, 0.5, 0.5)" fill-opacity="1">0.3</text><text fill="none" stroke="rgb(0,0,0)" font-family="helvetica" font-size="11px" font-style="normal" font-weight="normal" text-decoration="normal" x="25.70849609375" y="98.72017669677734" text-anchor="start" dominant-baseline="alphabetic" transform="matrix(1, 0, 0, 1, 0.5, 0.5)" stroke-opacity="0" stroke-linejoin="bevel" stroke-miterlimit="10">0.3</text><text fill="rgb(68,68,68)" stroke="none" font-family="helvetica" font-size="11px" font-style="normal" font-weight="normal" text-decoration="normal" x="25.70849609375" y="64.6572036743164" text-anchor="start" dominant-baseline="alphabetic" transform="matrix(1, 0, 0, 1, 0.5, 0.5)" fill-opacity="1">0.4</text><text fill="none" stroke="rgb(0,0,0)" font-family="helvetica" font-size="11px" font-style="normal" font-weight="normal" text-decoration="normal" x="25.70849609375" y="64.6572036743164" text-anchor="start" dominant-baseline="alphabetic" transform="matrix(1, 0, 0, 1, 0.5, 0.5)" stroke-opacity="0" stroke-linejoin="bevel" stroke-miterlimit="10">0.4</text><text fill="rgb(68,68,68)" stroke="none" font-family="helvetica" font-size="13px" font-style="italic" font-weight="normal" text-decoration="normal" x="-47.31689453125" y="113" text-anchor="start" dominant-baseline="alphabetic" transform="matrix(6.123233995736766e-17, -1, 1, 6.123233995736766e-17, -97.79150390625, 134.20849609375)" fill-opacity="1">Normalised Probability</text><text fill="none" stroke="rgb(0,0,0)" font-family="helvetica" font-size="13px" font-style="italic" font-weight="normal" text-decoration="normal" x="-47.31689453125" y="113" text-anchor="start" dominant-baseline="alphabetic" transform="matrix(6.123233995736766e-17, -1, 1, 6.123233995736766e-17, -97.79150390625, 134.20849609375)" stroke-opacity="0" stroke-linejoin="bevel" stroke-miterlimit="10">Normalised Probability</text><path fill="rgb(255,249,186)" stroke="rgb(255,0,0)" paint-order="fill" d="M 140.14795103434068 35.59090909090912 L 140.14795103434068 35.59090909090912 L 140.14795103434068 197.4090909090909 L 140.14795103434068 197.4090909090909 L 140.14795103434068 35.59090909090912 Z" fill-opacity="0.4" clip-path="url(#mVpneDGSRmgl)" stroke-opacity="1" stroke-linejoin="bevel" stroke-miterlimit="10" stroke-width="2" stroke-dasharray="6"/><path fill="rgb(255,249,186)" stroke="rgb(50,205,50)" paint-order="fill" d="M 105.08677338669321 35.59090909090912 L 105.08677338669321 35.59090909090912 L 105.08677338669321 197.4090909090909 L 105.08677338669321 197.4090909090909 L 105.08677338669321 35.59090909090912 Z" fill-opacity="0.4" clip-path="url(#kLIUblFaTtLk)" stroke-opacity="1" stroke-linejoin="bevel" stroke-miterlimit="10" stroke-width="2" stroke-dasharray="6"/><text fill="rgb(68,68,68)" stroke="none" font-family="helvetica" font-size="13px" font-style="normal" font-weight="bold" text-decoration="normal" x="52" y="19" text-anchor="start" dominant-baseline="alphabetic" transform="matrix(1, 0, 0, 1, 0.5, 0.5)" fill-opacity="1">Convergance Probability</text><text fill="none" stroke="rgb(0,0,0)" font-family="helvetica" font-size="13px" font-style="normal" font-weight="bold" text-decoration="normal" x="52" y="19" text-anchor="start" dominant-baseline="alphabetic" transform="matrix(1, 0, 0, 1, 0.5, 0.5)" stroke-opacity="0" stroke-miterlimit="10" stroke-dasharray="">Convergance Probability</text></svg>