<svg version="1.1" xmlns="http://www.w3.org/2000/svg" width="275" height="275"><defs><clipPath id="SdRwIJwpcpXb"><path fill="none" stroke="none" d="M 52.5 27.5 L 245.5 27.5 L 245.5 230.5 L 52.5 230.5 L 52.5 27.5 Z"/></clipPath><clipPath id="ONUMhJcmzHCP"><path fill="none" stroke="none" d="M 52.5 27.5 L 245.5 27.5 L 245.5 230.5 L 52.5 230.5 L 52.5 27.5 Z"/></clipPath><clipPath id="zMFKeTFFtLVG"><path fill="none" stroke="none" d="M 52.5 27.5 L 245.5 27.5 L 245.5 230.5 L 52.5 230.5 L 52.5 27.5 Z"/></clipPath><clipPath id="XbDhsUKVJUUK"><path fill="none" stroke="none" d="M 52.5 27.5 L 245.5 27.5 L 245.5 230.5 L 52.5 230.5 L 52.5 27.5 Z"/></clipPath><pattern id="TVoOAqmLrIoy" width="3" height="3" patternUnits="userSpaceOnUse"><path fill="rgb(0,0,0)" stroke="none" paint-order="stroke" d="M 2.75 2 A 0.75 0.75 0 0 0 1.25 2 A 0.75 0.75 0 0 0 2.75 2" fill-opacity="0.14901960784313725"/></pattern><clipPath id="KkryGANWQbFa"><path fill="none" stroke="none" d="M 52.5 27.5 L 245.5 27.5 L 245.5 230.5 L 52.5 230.5 L 52.5 27.5 Z"/></clipPath><clipPath id="ALtCaptQPEKn"><path fill="none" stroke="none" d="M 52.5 27.5 L 245.5 27.5 L 245.5 230.5 L 52.5 230.5 L 52.5 27.5 Z"/></clipPath><clipPath id="CefMEVEzVUJL"><path fill="none" stroke="none" d="M 52.5 27.5 L 245.5 27.5 L 245.5 230.5 L 52.5 230.5 L 52.5 27.5 Z"/></clipPath><clipPath id="fudQREfXglsr"><path fill="none" stroke="none" d="M 52.5 27.5 L 245.5 27.5 L 245.5 230.5 L 52.5 230.5 L 52.5 27.5 Z"/></clipPath></defs><path fill="rgb(255,255,255)" stroke="none" paint-order="stroke" d="M 0.5 0.5 L 275.5 0.5 L 275.5 275.5 L 0.5 275.5 L 0.5 0.5 Z" fill-opacity="1"/><rect fill="#FFFFFF" stroke="none" x="52" y="27" width="193" height="203" transform="matrix(1, 0, 0, 1, 0.5, 0.5)"/><path fill="rgb(255,255,255)" stroke="none" paint-order="stroke" d="M 52.5 27.5 L 245.5 27.5 L 245.5 230.5 L 52.5 230.5 L 52.5 27.5 Z" fill-opacity="1"/><path fill="none" stroke="rgb(229,229,229)" paint-order="fill" d="M 52.5 27.5 L 245.5 27.5 L 245.5 230.5 L 52.5 230.5 L 52.5 27.5 Z" stroke-opacity="1" stroke-linejoin="bevel" stroke-miterlimit="10"/><path fill="none" stroke="rgb(229,229,229)" paint-order="fill" d="M 65.5 230.5 L 65.5 27.5 M 115.5 230.5 L 115.5 27.5 M 165.5 230.5 L 165.5 27.5 M 215.5 230.5 L 215.5 27.5" stroke-opacity="1" stroke-linejoin="bevel" stroke-miterlimit="10" clip-path="url(#SdRwIJwpcpXb)"/><path fill="none" stroke="rgb(229,229,229)" paint-order="fill" d="M 52.5 221.5 L 245.5 221.5 M 52.5 183.5 L 245.5 183.5 M 52.5 145.5 L 245.5 145.5 M 52.5 107.5 L 245.5 107.5 M 52.5 69.5 L 245.5 69.5 M 52.5 31.5 L 245.5 31.5" stroke-opacity="1" stroke-linejoin="bevel" stroke-miterlimit="10" clip-path="url(#ONUMhJcmzHCP)"/><path fill="none" stroke="rgb(0,0,0)" paint-order="fill" d="M 98.88306427001953 28.343645095825195 L 98.88306427001953 45.11090087890625" stroke-opacity="1" stroke-linejoin="bevel" stroke-miterlimit="10" clip-path="url(#zMFKeTFFtLVG)"/><path fill="none" stroke="rgb(0,0,0)" paint-order="fill" d="M 145.5034637451172 30.559680938720703 L 145.5034637451172 48.045799255371094" stroke-opacity="1" stroke-linejoin="bevel" stroke-miterlimit="10" clip-path="url(#zMFKeTFFtLVG)"/><path fill="none" stroke="rgb(0,0,0)" paint-order="fill" d="M 192.12387084960938 30.07094955444336 L 192.12387084960938 45.71321487426758" stroke-opacity="1" stroke-linejoin="bevel" stroke-miterlimit="10" clip-path="url(#zMFKeTFFtLVG)"/><path fill="none" stroke="rgb(0,0,0)" paint-order="fill" d="M 93.88306427001953 28.343645095825195 L 103.88306427001953 28.343645095825195" stroke-opacity="1" stroke-linejoin="bevel" stroke-miterlimit="10" clip-path="url(#zMFKeTFFtLVG)"/><path fill="none" stroke="rgb(0,0,0)" paint-order="fill" d="M 140.5034637451172 30.559680938720703 L 150.5034637451172 30.559680938720703" stroke-opacity="1" stroke-linejoin="bevel" stroke-miterlimit="10" clip-path="url(#zMFKeTFFtLVG)"/><path fill="none" stroke="rgb(0,0,0)" paint-order="fill" d="M 187.12387084960938 30.07094955444336 L 197.12387084960938 30.07094955444336" stroke-opacity="1" stroke-linejoin="bevel" stroke-miterlimit="10" clip-path="url(#zMFKeTFFtLVG)"/><path fill="none" stroke="rgb(0,0,0)" paint-order="fill" d="M 103.88306427001953 45.11090087890625 L 93.88306427001953 45.11090087890625" stroke-opacity="1" stroke-linejoin="bevel" stroke-miterlimit="10" clip-path="url(#zMFKeTFFtLVG)"/><path fill="none" stroke="rgb(0,0,0)" paint-order="fill" d="M 150.5034637451172 48.045799255371094 L 140.5034637451172 48.045799255371094" stroke-opacity="1" stroke-linejoin="bevel" stroke-miterlimit="10" clip-path="url(#zMFKeTFFtLVG)"/><path fill="none" stroke="rgb(0,0,0)" paint-order="fill" d="M 197.12387084960938 45.71321487426758 L 187.12387084960938 45.71321487426758" stroke-opacity="1" stroke-linejoin="bevel" stroke-miterlimit="10" clip-path="url(#zMFKeTFFtLVG)"/><path fill="rgb(128,128,128)" stroke="none" paint-order="stroke" d="M 75.5728530883789 36.727272033691406 L 215.43408203125 36.727272033691406 L 215.43408203125 221.27273559570312 L 75.5728530883789 221.27273559570312 L 75.5728530883789 36.727272033691406 Z" fill-opacity="0.10196078431372549" clip-path="url(#XbDhsUKVJUUK)"/><path fill="url(#TVoOAqmLrIoy)" stroke="rgb(0,0,0)" paint-order="fill" d="M 75.5728530883789 36.727272033691406 L 215.43408203125 36.727272033691406 L 215.43408203125 221.27273559570312 L 75.5728530883789 221.27273559570312 L 75.5728530883789 36.727272033691406 Z" clip-path="url(#XbDhsUKVJUUK)" stroke-opacity="0.2" stroke-linejoin="bevel" stroke-miterlimit="10"/><path fill="rgb(100,149,237)" stroke="rgb(31,119,180)" paint-order="fill" d="M 75.57286071777344 36.727272033691406 L 122.19326782226562 36.727272033691406 L 122.19326782226562 221.27272033691406 L 75.57286071777344 221.27272033691406 L 75.57286071777344 36.727272033691406 Z" fill-opacity="0.5019607843137255" clip-path="url(#KkryGANWQbFa)" stroke-opacity="0.5019607843137255" stroke-linejoin="bevel" stroke-miterlimit="10"/><path fill="rgb(100,149,237)" stroke="rgb(31,119,180)" paint-order="fill" d="M 122.1932601928711 39.302738189697266 L 168.81365966796875 39.302738189697266 L 168.81365966796875 221.27272033691406 L 122.1932601928711 221.27272033691406 L 122.1932601928711 39.302738189697266 Z" fill-opacity="0.5019607843137255" clip-path="url(#KkryGANWQbFa)" stroke-opacity="0.5019607843137255" stroke-linejoin="bevel" stroke-miterlimit="10"/><path fill="rgb(100,149,237)" stroke="rgb(31,119,180)" paint-order="fill" d="M 168.81365966796875 37.89208221435547 L 215.43408203125 37.89208221435547 L 215.43408203125 221.27272033691406 L 168.81365966796875 221.27272033691406 L 168.81365966796875 37.89208221435547 Z" fill-opacity="0.5019607843137255" clip-path="url(#KkryGANWQbFa)" stroke-opacity="0.5019607843137255" stroke-linejoin="bevel" stroke-miterlimit="10"/><path fill="none" stroke="rgb(0,0,0)" paint-order="fill" d="M 52.5 230.5 L 245.5 230.5" stroke-opacity="1" stroke-linejoin="bevel" stroke-miterlimit="10"/><path fill="none" stroke="rgb(0,0,0)" paint-order="fill" d="M 65.5 236.5 L 65.5 228.5 M 115.5 236.5 L 115.5 228.5 M 165.5 236.5 L 165.5 228.5 M 215.5 236.5 L 215.5 228.5" stroke-opacity="1" stroke-linejoin="bevel" stroke-miterlimit="10"/><path fill="none" stroke="rgb(0,0,0)" paint-order="fill" d="M 55.5 234.5 L 55.5 230.5 M 65.5 234.5 L 65.5 230.5 M 75.5 234.5 L 75.5 230.5 M 85.5 234.5 L 85.5 230.5 M 95.5 234.5 L 95.5 230.5 M 105.5 234.5 L 105.5 230.5 M 115.5 234.5 L 115.5 230.5 M 125.5 234.5 L 125.5 230.5 M 135.5 234.5 L 135.5 230.5 M 145.5 234.5 L 145.5 230.5 M 155.5 234.5 L 155.5 230.5 M 165.5 234.5 L 165.5 230.5 M 175.5 234.5 L 175.5 230.5 M 185.5 234.5 L 185.5 230.5 M 195.5 234.5 L 195.5 230.5 M 205.5 234.5 L 205.5 230.5 M 215.5 234.5 L 215.5 230.5 M 225.5 234.5 L 225.5 230.5 M 235.5 234.5 L 235.5 230.5" stroke-opacity="1" stroke-linejoin="bevel" stroke-miterlimit="10"/><text fill="rgb(68,68,68)" stroke="none" font-family="helvetica" font-size="11px" font-style="normal" font-weight="normal" text-decoration="normal" x="58.69404602050781" y="249" text-anchor="start" dominant-baseline="alphabetic" transform="matrix(1, 0, 0, 1, 0.5, 0.5)" fill-opacity="1">45</text><text fill="none" stroke="rgb(0,0,0)" font-family="helvetica" font-size="11px" font-style="normal" font-weight="normal" text-decoration="normal" x="58.69404602050781" y="249" text-anchor="start" dominant-baseline="alphabetic" transform="matrix(1, 0, 0, 1, 0.5, 0.5)" stroke-opacity="0" stroke-linejoin="bevel" stroke-miterlimit="10">45</text><text fill="rgb(68,68,68)" stroke="none" font-family="helvetica" font-size="11px" font-style="normal" font-weight="normal" text-decoration="normal" x="108.82693481445312" y="249" text-anchor="start" dominant-baseline="alphabetic" transform="matrix(1, 0, 0, 1, 0.5, 0.5)" fill-opacity="1">50</text><text fill="none" stroke="rgb(0,0,0)" font-family="helvetica" font-size="11px" font-style="normal" font-weight="normal" text-decoration="normal" x="108.82693481445312" y="249" text-anchor="start" dominant-baseline="alphabetic" transform="matrix(1, 0, 0, 1, 0.5, 0.5)" stroke-opacity="0" stroke-linejoin="bevel" stroke-miterlimit="10">50</text><text fill="rgb(68,68,68)" stroke="none" font-family="helvetica" font-size="11px" font-style="normal" font-weight="normal" text-decoration="normal" x="158.95982360839844" y="249" text-anchor="start" dominant-baseline="alphabetic" transform="matrix(1, 0, 0, 1, 0.5, 0.5)" fill-opacity="1">55</text><text fill="none" stroke="rgb(0,0,0)" font-family="helvetica" font-size="11px" font-style="normal" font-weight="normal" text-decoration="normal" x="158.95982360839844" y="249" text-anchor="start" dominant-baseline="alphabetic" transform="matrix(1, 0, 0, 1, 0.5, 0.5)" stroke-opacity="0" stroke-linejoin="bevel" stroke-miterlimit="10">55</text><text fill="rgb(68,68,68)" stroke="none" font-family="helvetica" font-size="11px" font-style="normal" font-weight="normal" text-decoration="normal" x="209.09271240234375" y="249" text-anchor="start" dominant-baseline="alphabetic" transform="matrix(1, 0, 0, 1, 0.5, 0.5)" fill-opacity="1">60</text><text fill="none" stroke="rgb(0,0,0)" font-family="helvetica" font-size="11px" font-style="normal" font-weight="normal" text-decoration="normal" x="209.09271240234375" y="249" text-anchor="start" dominant-baseline="alphabetic" transform="matrix(1, 0, 0, 1, 0.5, 0.5)" stroke-opacity="0" stroke-linejoin="bevel" stroke-miterlimit="10">60</text><text fill="rgb(68,68,68)" stroke="none" font-family="helvetica" font-size="13px" font-style="italic" font-weight="normal" text-decoration="normal" x="74.81640625" y="269" text-anchor="start" dominant-baseline="alphabetic" transform="matrix(1, 0, 0, 1, 0.5, 0.5)" fill-opacity="1">Max injected power (MW)</text><text fill="none" stroke="rgb(0,0,0)" font-family="helvetica" font-size="13px" font-style="italic" font-weight="normal" text-decoration="normal" x="74.81640625" y="269" text-anchor="start" dominant-baseline="alphabetic" transform="matrix(1, 0, 0, 1, 0.5, 0.5)" stroke-opacity="0" stroke-linejoin="bevel" stroke-miterlimit="10">Max injected power (MW)</text><path fill="none" stroke="rgb(0,0,0)" paint-order="fill" d="M 52.5 230.5 L 52.5 27.5" stroke-opacity="1" stroke-linejoin="bevel" stroke-miterlimit="10"/><path fill="none" stroke="rgb(0,0,0)" paint-order="fill" d="M 46.5 221.5 L 54.5 221.5 M 46.5 183.5 L 54.5 183.5 M 46.5 145.5 L 54.5 145.5 M 46.5 107.5 L 54.5 107.5 M 46.5 69.5 L 54.5 69.5 M 46.5 31.5 L 54.5 31.5" stroke-opacity="1" stroke-linejoin="bevel" stroke-miterlimit="10"/><path fill="none" stroke="rgb(0,0,0)" paint-order="fill" d="M 48.5 228.5 L 52.5 228.5 M 48.5 221.5 L 52.5 221.5 M 48.5 213.5 L 52.5 213.5 M 48.5 206.5 L 52.5 206.5 M 48.5 198.5 L 52.5 198.5 M 48.5 190.5 L 52.5 190.5 M 48.5 183.5 L 52.5 183.5 M 48.5 175.5 L 52.5 175.5 M 48.5 168.5 L 52.5 168.5 M 48.5 160.5 L 52.5 160.5 M 48.5 152.5 L 52.5 152.5 M 48.5 145.5 L 52.5 145.5 M 48.5 137.5 L 52.5 137.5 M 48.5 129.5 L 52.5 129.5 M 48.5 122.5 L 52.5 122.5 M 48.5 114.5 L 52.5 114.5 M 48.5 107.5 L 52.5 107.5 M 48.5 99.5 L 52.5 99.5 M 48.5 91.5 L 52.5 91.5 M 48.5 84.5 L 52.5 84.5 M 48.5 76.5 L 52.5 76.5 M 48.5 69.5 L 52.5 69.5 M 48.5 61.5 L 52.5 61.5 M 48.5 53.5 L 52.5 53.5 M 48.5 46.5 L 52.5 46.5 M 48.5 38.5 L 52.5 38.5 M 48.5 31.5 L 52.5 31.5" stroke-opacity="1" stroke-linejoin="bevel" stroke-miterlimit="10"/><text fill="rgb(68,68,68)" stroke="none" font-family="helvetica" font-size="11px" font-style="normal" font-weight="normal" text-decoration="normal" x="34.88232421875" y="224.77272033691406" text-anchor="start" dominant-baseline="alphabetic" transform="matrix(1, 0, 0, 1, 0.5, 0.5)" fill-opacity="1">0</text><text fill="none" stroke="rgb(0,0,0)" font-family="helvetica" font-size="11px" font-style="normal" font-weight="normal" text-decoration="normal" x="34.88232421875" y="224.77272033691406" text-anchor="start" dominant-baseline="alphabetic" transform="matrix(1, 0, 0, 1, 0.5, 0.5)" stroke-opacity="0" stroke-linejoin="bevel" stroke-miterlimit="10">0</text><text fill="rgb(68,68,68)" stroke="none" font-family="helvetica" font-size="11px" font-style="normal" font-weight="normal" text-decoration="normal" x="25.70849609375" y="186.72938537597656" text-anchor="start" dominant-baseline="alphabetic" transform="matrix(1, 0, 0, 1, 0.5, 0.5)" fill-opacity="1">0.2</text><text fill="none" stroke="rgb(0,0,0)" font-family="helvetica" font-size="11px" font-style="normal" font-weight="normal" text-decoration="normal" x="25.70849609375" y="186.72938537597656" text-anchor="start" dominant-baseline="alphabetic" transform="matrix(1, 0, 0, 1, 0.5, 0.5)" stroke-opacity="0" stroke-linejoin="bevel" stroke-miterlimit="10">0.2</text><text fill="rgb(68,68,68)" stroke="none" font-family="helvetica" font-size="11px" font-style="normal" font-weight="normal" text-decoration="normal" x="25.70849609375" y="148.68605041503906" text-anchor="start" dominant-baseline="alphabetic" transform="matrix(1, 0, 0, 1, 0.5, 0.5)" fill-opacity="1">0.4</text><text fill="none" stroke="rgb(0,0,0)" font-family="helvetica" font-size="11px" font-style="normal" font-weight="normal" text-decoration="normal" x="25.70849609375" y="148.68605041503906" text-anchor="start" dominant-baseline="alphabetic" transform="matrix(1, 0, 0, 1, 0.5, 0.5)" stroke-opacity="0" stroke-linejoin="bevel" stroke-miterlimit="10">0.4</text><text fill="rgb(68,68,68)" stroke="none" font-family="helvetica" font-size="11px" font-style="normal" font-weight="normal" text-decoration="normal" x="25.70849609375" y="110.6427230834961" text-anchor="start" dominant-baseline="alphabetic" transform="matrix(1, 0, 0, 1, 0.5, 0.5)" fill-opacity="1">0.6</text><text fill="none" stroke="rgb(0,0,0)" font-family="helvetica" font-size="11px" font-style="normal" font-weight="normal" text-decoration="normal" x="25.70849609375" y="110.6427230834961" text-anchor="start" dominant-baseline="alphabetic" transform="matrix(1, 0, 0, 1, 0.5, 0.5)" stroke-opacity="0" stroke-linejoin="bevel" stroke-miterlimit="10">0.6</text><text fill="rgb(68,68,68)" stroke="none" font-family="helvetica" font-size="11px" font-style="normal" font-weight="normal" text-decoration="normal" x="25.70849609375" y="72.5993881225586" text-anchor="start" dominant-baseline="alphabetic" transform="matrix(1, 0, 0, 1, 0.5, 0.5)" fill-opacity="1">0.8</text><text fill="none" stroke="rgb(0,0,0)" font-family="helvetica" font-size="11px" font-style="normal" font-weight="normal" text-decoration="normal" x="25.70849609375" y="72.5993881225586" text-anchor="start" dominant-baseline="alphabetic" transform="matrix(1, 0, 0, 1, 0.5, 0.5)" stroke-opacity="0" stroke-linejoin="bevel" stroke-miterlimit="10">0.8</text><text fill="rgb(68,68,68)" stroke="none" font-family="helvetica" font-size="11px" font-style="normal" font-weight="normal" text-decoration="normal" x="34.88232421875" y="34.55605125427246" text-anchor="start" dominant-baseline="alphabetic" transform="matrix(1, 0, 0, 1, 0.5, 0.5)" fill-opacity="1">1</text><text fill="none" stroke="rgb(0,0,0)" font-family="helvetica" font-size="11px" font-style="normal" font-weight="normal" text-decoration="normal" x="34.88232421875" y="34.55605125427246" text-anchor="start" dominant-baseline="alphabetic" transform="matrix(1, 0, 0, 1, 0.5, 0.5)" stroke-opacity="0" stroke-linejoin="bevel" stroke-miterlimit="10">1</text><text fill="rgb(68,68,68)" stroke="none" font-family="helvetica" font-size="13px" font-style="italic" font-weight="normal" text-decoration="normal" x="-47.31689453125" y="125.5" text-anchor="start" dominant-baseline="alphabetic" transform="matrix(6.123233995736766e-17, -1, 1, 6.123233995736766e-17, -110.29150390625, 146.70849609375)" fill-opacity="1">Normalised Probability</text><text fill="none" stroke="rgb(0,0,0)" font-family="helvetica" font-size="13px" font-style="italic" font-weight="normal" text-decoration="normal" x="-47.31689453125" y="125.5" text-anchor="start" dominant-baseline="alphabetic" transform="matrix(6.123233995736766e-17, -1, 1, 6.123233995736766e-17, -110.29150390625, 146.70849609375)" stroke-opacity="0" stroke-linejoin="bevel" stroke-miterlimit="10">Normalised Probability</text><path fill="rgb(255,249,186)" stroke="rgb(255,0,0)" paint-order="fill" d="M 148.88429071502304 36.72727272727272 L 148.88429071502304 36.72727272727272 L 148.88429071502304 221.27272727272725 L 148.88429071502304 221.27272727272725 L 148.88429071502304 36.72727272727272 Z" fill-opacity="0.4" clip-path="url(#ALtCaptQPEKn)" stroke-opacity="1" stroke-linejoin="bevel" stroke-miterlimit="10" stroke-width="2" stroke-dasharray="6"/><path fill="rgb(255,249,186)" stroke="rgb(50,205,50)" paint-order="fill" d="M 98.88306047962635 36.72727272727272 L 98.88306047962635 36.72727272727272 L 98.88306047962635 221.27272727272725 L 98.88306047962635 221.27272727272725 L 98.88306047962635 36.72727272727272 Z" fill-opacity="0.4" clip-path="url(#CefMEVEzVUJL)" stroke-opacity="1" stroke-linejoin="bevel" stroke-miterlimit="10" stroke-width="2" stroke-dasharray="6"/><text fill="rgb(68,68,68)" stroke="none" font-family="helvetica" font-size="13px" font-style="normal" font-weight="bold" text-decoration="normal" x="52" y="19" text-anchor="start" dominant-baseline="alphabetic" transform="matrix(1, 0, 0, 1, 0.5, 0.5)" fill-opacity="1">Convergance Probability</text><text fill="none" stroke="rgb(0,0,0)" font-family="helvetica" font-size="13px" font-style="normal" font-weight="bold" text-decoration="normal" x="52" y="19" text-anchor="start" dominant-baseline="alphabetic" transform="matrix(1, 0, 0, 1, 0.5, 0.5)" stroke-opacity="0" stroke-miterlimit="10" stroke-dasharray="">Convergance Probability</text></svg>