<svg version="1.1" xmlns="http://www.w3.org/2000/svg" width="275" height="275"><defs><clipPath id="WCtITkTcCWMy"><path fill="none" stroke="none" d="M 52.5 27.5 L 245.5 27.5 L 245.5 230.5 L 52.5 230.5 L 52.5 27.5 Z"/></clipPath><clipPath id="LLCZNDaBslIg"><path fill="none" stroke="none" d="M 52.5 27.5 L 245.5 27.5 L 245.5 230.5 L 52.5 230.5 L 52.5 27.5 Z"/></clipPath><clipPath id="eFGKObTTqOKK"><path fill="none" stroke="none" d="M 52.5 27.5 L 245.5 27.5 L 245.5 230.5 L 52.5 230.5 L 52.5 27.5 Z"/></clipPath><clipPath id="zZGyfQsNTeIE"><path fill="none" stroke="none" d="M 52.5 27.5 L 245.5 27.5 L 245.5 230.5 L 52.5 230.5 L 52.5 27.5 Z"/></clipPath><pattern id="rRgFtrpSannE" width="3" height="3" patternUnits="userSpaceOnUse"><path fill="rgb(0,0,0)" stroke="none" paint-order="stroke" d="M 2.75 2 A 0.75 0.75 0 0 0 1.25 2 A 0.75 0.75 0 0 0 2.75 2" fill-opacity="0.14901960784313725"/></pattern><clipPath id="DZexXPBfSXFK"><path fill="none" stroke="none" d="M 52.5 27.5 L 245.5 27.5 L 245.5 230.5 L 52.5 230.5 L 52.5 27.5 Z"/></clipPath><clipPath id="ooCOUqFdfxPZ"><path fill="none" stroke="none" d="M 52.5 27.5 L 245.5 27.5 L 245.5 230.5 L 52.5 230.5 L 52.5 27.5 Z"/></clipPath><clipPath id="IddTceAhGZWt"><path fill="none" stroke="none" d="M 52.5 27.5 L 245.5 27.5 L 245.5 230.5 L 52.5 230.5 L 52.5 27.5 Z"/></clipPath><clipPath id="yPmrFKiiWyBC"><path fill="none" stroke="none" d="M 52.5 27.5 L 245.5 27.5 L 245.5 230.5 L 52.5 230.5 L 52.5 27.5 Z"/></clipPath></defs><path fill="rgb(255,255,255)" stroke="none" paint-order="stroke" d="M 0.5 0.5 L 275.5 0.5 L 275.5 275.5 L 0.5 275.5 L 0.5 0.5 Z" fill-opacity="1"/><rect fill="#FFFFFF" stroke="none" x="52" y="27" width="193" height="203" transform="matrix(1, 0, 0, 1, 0.5, 0.5)"/><path fill="rgb(255,255,255)" stroke="none" paint-order="stroke" d="M 52.5 27.5 L 245.5 27.5 L 245.5 230.5 L 52.5 230.5 L 52.5 27.5 Z" fill-opacity="1"/><path fill="none" stroke="rgb(229,229,229)" paint-order="fill" d="M 52.5 27.5 L 245.5 27.5 L 245.5 230.5 L 52.5 230.5 L 52.5 27.5 Z" stroke-opacity="1" stroke-linejoin="bevel" stroke-miterlimit="10"/><path fill="none" stroke="rgb(229,229,229)" paint-order="fill" d="M 67.5 230.5 L 67.5 27.5 M 106.5 230.5 L 106.5 27.5 M 145.5 230.5 L 145.5 27.5 M 183.5 230.5 L 183.5 27.5 M 222.5 230.5 L 222.5 27.5" stroke-opacity="1" stroke-linejoin="bevel" stroke-miterlimit="10" clip-path="url(#WCtITkTcCWMy)"/><path fill="none" stroke="rgb(229,229,229)" paint-order="fill" d="M 52.5 221.5 L 245.5 221.5 M 52.5 181.5 L 245.5 181.5 M 52.5 141.5 L 245.5 141.5 M 52.5 101.5 L 245.5 101.5 M 52.5 61.5 L 245.5 61.5" stroke-opacity="1" stroke-linejoin="bevel" stroke-miterlimit="10" clip-path="url(#LLCZNDaBslIg)"/><path fill="none" stroke="rgb(0,0,0)" paint-order="fill" d="M 93.68801879882812 32.20004653930664 L 93.68801879882812 41.25450134277344" stroke-opacity="1" stroke-linejoin="bevel" stroke-miterlimit="10" clip-path="url(#eFGKObTTqOKK)"/><path fill="none" stroke="rgb(0,0,0)" paint-order="fill" d="M 145.14102172851562 41.281700134277344 L 145.14102172851562 50.04135513305664" stroke-opacity="1" stroke-linejoin="bevel" stroke-miterlimit="10" clip-path="url(#eFGKObTTqOKK)"/><path fill="none" stroke="rgb(0,0,0)" paint-order="fill" d="M 196.59402465820312 56.762474060058594 L 196.59402465820312 64.8584976196289" stroke-opacity="1" stroke-linejoin="bevel" stroke-miterlimit="10" clip-path="url(#eFGKObTTqOKK)"/><path fill="none" stroke="rgb(0,0,0)" paint-order="fill" d="M 88.68801879882812 32.20004653930664 L 98.68801879882812 32.20004653930664" stroke-opacity="1" stroke-linejoin="bevel" stroke-miterlimit="10" clip-path="url(#eFGKObTTqOKK)"/><path fill="none" stroke="rgb(0,0,0)" paint-order="fill" d="M 140.14102172851562 41.281700134277344 L 150.14102172851562 41.281700134277344" stroke-opacity="1" stroke-linejoin="bevel" stroke-miterlimit="10" clip-path="url(#eFGKObTTqOKK)"/><path fill="none" stroke="rgb(0,0,0)" paint-order="fill" d="M 191.59402465820312 56.762474060058594 L 201.59402465820312 56.762474060058594" stroke-opacity="1" stroke-linejoin="bevel" stroke-miterlimit="10" clip-path="url(#eFGKObTTqOKK)"/><path fill="none" stroke="rgb(0,0,0)" paint-order="fill" d="M 98.68801879882812 41.25450134277344 L 88.68801879882812 41.25450134277344" stroke-opacity="1" stroke-linejoin="bevel" stroke-miterlimit="10" clip-path="url(#eFGKObTTqOKK)"/><path fill="none" stroke="rgb(0,0,0)" paint-order="fill" d="M 150.14102172851562 50.04135513305664 L 140.14102172851562 50.04135513305664" stroke-opacity="1" stroke-linejoin="bevel" stroke-miterlimit="10" clip-path="url(#eFGKObTTqOKK)"/><path fill="none" stroke="rgb(0,0,0)" paint-order="fill" d="M 201.59402465820312 64.8584976196289 L 191.59402465820312 64.8584976196289" stroke-opacity="1" stroke-linejoin="bevel" stroke-miterlimit="10" clip-path="url(#eFGKObTTqOKK)"/><path fill="rgb(128,128,128)" stroke="none" paint-order="stroke" d="M 67.96151733398438 36.727272033691406 L 222.32052612304688 36.727272033691406 L 222.32052612304688 221.27273559570312 L 67.96151733398438 221.27273559570312 L 67.96151733398438 36.727272033691406 Z" fill-opacity="0.10196078431372549" clip-path="url(#zZGyfQsNTeIE)"/><path fill="url(#rRgFtrpSannE)" stroke="rgb(0,0,0)" paint-order="fill" d="M 67.96151733398438 36.727272033691406 L 222.32052612304688 36.727272033691406 L 222.32052612304688 221.27273559570312 L 67.96151733398438 221.27273559570312 L 67.96151733398438 36.727272033691406 Z" clip-path="url(#zZGyfQsNTeIE)" stroke-opacity="0.2" stroke-linejoin="bevel" stroke-miterlimit="10"/><path fill="rgb(100,149,237)" stroke="rgb(31,119,180)" paint-order="fill" d="M 67.96151733398438 36.727272033691406 L 119.41452026367188 36.727272033691406 L 119.41452026367188 221.27272033691406 L 67.96151733398438 221.27272033691406 L 67.96151733398438 36.727272033691406 Z" fill-opacity="0.5019607843137255" clip-path="url(#DZexXPBfSXFK)" stroke-opacity="0.5019607843137255" stroke-linejoin="bevel" stroke-miterlimit="10"/><path fill="rgb(100,149,237)" stroke="rgb(31,119,180)" paint-order="fill" d="M 119.41452026367188 45.66152572631836 L 170.86752319335938 45.66152572631836 L 170.86752319335938 221.27272033691406 L 119.41452026367188 221.27272033691406 L 119.41452026367188 45.66152572631836 Z" fill-opacity="0.5019607843137255" clip-path="url(#DZexXPBfSXFK)" stroke-opacity="0.5019607843137255" stroke-linejoin="bevel" stroke-miterlimit="10"/><path fill="rgb(100,149,237)" stroke="rgb(31,119,180)" paint-order="fill" d="M 170.86752319335938 60.81048583984375 L 222.32052612304688 60.81048583984375 L 222.32052612304688 221.27272033691406 L 170.86752319335938 221.27272033691406 L 170.86752319335938 60.81048583984375 Z" fill-opacity="0.5019607843137255" clip-path="url(#DZexXPBfSXFK)" stroke-opacity="0.5019607843137255" stroke-linejoin="bevel" stroke-miterlimit="10"/><path fill="none" stroke="rgb(0,0,0)" paint-order="fill" d="M 52.5 230.5 L 245.5 230.5" stroke-opacity="1" stroke-linejoin="bevel" stroke-miterlimit="10"/><path fill="none" stroke="rgb(0,0,0)" paint-order="fill" d="M 67.5 236.5 L 67.5 228.5 M 106.5 236.5 L 106.5 228.5 M 145.5 236.5 L 145.5 228.5 M 183.5 236.5 L 183.5 228.5 M 222.5 236.5 L 222.5 228.5" stroke-opacity="1" stroke-linejoin="bevel" stroke-miterlimit="10"/><path fill="none" stroke="rgb(0,0,0)" paint-order="fill" d="M 60.5 234.5 L 60.5 230.5 M 67.5 234.5 L 67.5 230.5 M 75.5 234.5 L 75.5 230.5 M 83.5 234.5 L 83.5 230.5 M 91.5 234.5 L 91.5 230.5 M 98.5 234.5 L 98.5 230.5 M 106.5 234.5 L 106.5 230.5 M 114.5 234.5 L 114.5 230.5 M 121.5 234.5 L 121.5 230.5 M 129.5 234.5 L 129.5 230.5 M 137.5 234.5 L 137.5 230.5 M 145.5 234.5 L 145.5 230.5 M 152.5 234.5 L 152.5 230.5 M 160.5 234.5 L 160.5 230.5 M 168.5 234.5 L 168.5 230.5 M 176.5 234.5 L 176.5 230.5 M 183.5 234.5 L 183.5 230.5 M 191.5 234.5 L 191.5 230.5 M 199.5 234.5 L 199.5 230.5 M 206.5 234.5 L 206.5 230.5 M 214.5 234.5 L 214.5 230.5 M 222.5 234.5 L 222.5 230.5 M 230.5 234.5 L 230.5 230.5 M 237.5 234.5 L 237.5 230.5" stroke-opacity="1" stroke-linejoin="bevel" stroke-miterlimit="10"/><text fill="rgb(68,68,68)" stroke="none" font-family="helvetica" font-size="11px" font-style="normal" font-weight="normal" text-decoration="normal" x="61.25837707519531" y="249" text-anchor="start" dominant-baseline="alphabetic" transform="matrix(1, 0, 0, 1, 0.5, 0.5)" fill-opacity="1">40</text><text fill="none" stroke="rgb(0,0,0)" font-family="helvetica" font-size="11px" font-style="normal" font-weight="normal" text-decoration="normal" x="61.25837707519531" y="249" text-anchor="start" dominant-baseline="alphabetic" transform="matrix(1, 0, 0, 1, 0.5, 0.5)" stroke-opacity="0" stroke-linejoin="bevel" stroke-miterlimit="10">40</text><text fill="rgb(68,68,68)" stroke="none" font-family="helvetica" font-size="11px" font-style="normal" font-weight="normal" text-decoration="normal" x="99.90148162841797" y="249" text-anchor="start" dominant-baseline="alphabetic" transform="matrix(1, 0, 0, 1, 0.5, 0.5)" fill-opacity="1">45</text><text fill="none" stroke="rgb(0,0,0)" font-family="helvetica" font-size="11px" font-style="normal" font-weight="normal" text-decoration="normal" x="99.90148162841797" y="249" text-anchor="start" dominant-baseline="alphabetic" transform="matrix(1, 0, 0, 1, 0.5, 0.5)" stroke-opacity="0" stroke-linejoin="bevel" stroke-miterlimit="10">45</text><text fill="rgb(68,68,68)" stroke="none" font-family="helvetica" font-size="11px" font-style="normal" font-weight="normal" text-decoration="normal" x="138.54458618164062" y="249" text-anchor="start" dominant-baseline="alphabetic" transform="matrix(1, 0, 0, 1, 0.5, 0.5)" fill-opacity="1">50</text><text fill="none" stroke="rgb(0,0,0)" font-family="helvetica" font-size="11px" font-style="normal" font-weight="normal" text-decoration="normal" x="138.54458618164062" y="249" text-anchor="start" dominant-baseline="alphabetic" transform="matrix(1, 0, 0, 1, 0.5, 0.5)" stroke-opacity="0" stroke-linejoin="bevel" stroke-miterlimit="10">50</text><text fill="rgb(68,68,68)" stroke="none" font-family="helvetica" font-size="11px" font-style="normal" font-weight="normal" text-decoration="normal" x="177.1876983642578" y="249" text-anchor="start" dominant-baseline="alphabetic" transform="matrix(1, 0, 0, 1, 0.5, 0.5)" fill-opacity="1">55</text><text fill="none" stroke="rgb(0,0,0)" font-family="helvetica" font-size="11px" font-style="normal" font-weight="normal" text-decoration="normal" x="177.1876983642578" y="249" text-anchor="start" dominant-baseline="alphabetic" transform="matrix(1, 0, 0, 1, 0.5, 0.5)" stroke-opacity="0" stroke-linejoin="bevel" stroke-miterlimit="10">55</text><text fill="rgb(68,68,68)" stroke="none" font-family="helvetica" font-size="11px" font-style="normal" font-weight="normal" text-decoration="normal" x="215.830810546875" y="249" text-anchor="start" dominant-baseline="alphabetic" transform="matrix(1, 0, 0, 1, 0.5, 0.5)" fill-opacity="1">60</text><text fill="none" stroke="rgb(0,0,0)" font-family="helvetica" font-size="11px" font-style="normal" font-weight="normal" text-decoration="normal" x="215.830810546875" y="249" text-anchor="start" dominant-baseline="alphabetic" transform="matrix(1, 0, 0, 1, 0.5, 0.5)" stroke-opacity="0" stroke-linejoin="bevel" stroke-miterlimit="10">60</text><text fill="rgb(68,68,68)" stroke="none" font-family="helvetica" font-size="13px" font-style="italic" font-weight="normal" text-decoration="normal" x="74.81640625" y="269" text-anchor="start" dominant-baseline="alphabetic" transform="matrix(1, 0, 0, 1, 0.5, 0.5)" fill-opacity="1">Max injected power (MW)</text><text fill="none" stroke="rgb(0,0,0)" font-family="helvetica" font-size="13px" font-style="italic" font-weight="normal" text-decoration="normal" x="74.81640625" y="269" text-anchor="start" dominant-baseline="alphabetic" transform="matrix(1, 0, 0, 1, 0.5, 0.5)" stroke-opacity="0" stroke-linejoin="bevel" stroke-miterlimit="10">Max injected power (MW)</text><path fill="none" stroke="rgb(0,0,0)" paint-order="fill" d="M 52.5 230.5 L 52.5 27.5" stroke-opacity="1" stroke-linejoin="bevel" stroke-miterlimit="10"/><path fill="none" stroke="rgb(0,0,0)" paint-order="fill" d="M 46.5 221.5 L 54.5 221.5 M 46.5 181.5 L 54.5 181.5 M 46.5 141.5 L 54.5 141.5 M 46.5 101.5 L 54.5 101.5 M 46.5 61.5 L 54.5 61.5" stroke-opacity="1" stroke-linejoin="bevel" stroke-miterlimit="10"/><path fill="none" stroke="rgb(0,0,0)" paint-order="fill" d="M 48.5 229.5 L 52.5 229.5 M 48.5 221.5 L 52.5 221.5 M 48.5 213.5 L 52.5 213.5 M 48.5 205.5 L 52.5 205.5 M 48.5 197.5 L 52.5 197.5 M 48.5 189.5 L 52.5 189.5 M 48.5 181.5 L 52.5 181.5 M 48.5 173.5 L 52.5 173.5 M 48.5 165.5 L 52.5 165.5 M 48.5 157.5 L 52.5 157.5 M 48.5 149.5 L 52.5 149.5 M 48.5 141.5 L 52.5 141.5 M 48.5 133.5 L 52.5 133.5 M 48.5 125.5 L 52.5 125.5 M 48.5 117.5 L 52.5 117.5 M 48.5 109.5 L 52.5 109.5 M 48.5 101.5 L 52.5 101.5 M 48.5 93.5 L 52.5 93.5 M 48.5 85.5 L 52.5 85.5 M 48.5 77.5 L 52.5 77.5 M 48.5 69.5 L 52.5 69.5 M 48.5 61.5 L 52.5 61.5 M 48.5 53.5 L 52.5 53.5 M 48.5 45.5 L 52.5 45.5 M 48.5 37.5 L 52.5 37.5 M 48.5 29.5 L 52.5 29.5" stroke-opacity="1" stroke-linejoin="bevel" stroke-miterlimit="10"/><text fill="rgb(68,68,68)" stroke="none" font-family="helvetica" font-size="11px" font-style="normal" font-weight="normal" text-decoration="normal" x="34.88232421875" y="224.77272033691406" text-anchor="start" dominant-baseline="alphabetic" transform="matrix(1, 0, 0, 1, 0.5, 0.5)" fill-opacity="1">0</text><text fill="none" stroke="rgb(0,0,0)" font-family="helvetica" font-size="11px" font-style="normal" font-weight="normal" text-decoration="normal" x="34.88232421875" y="224.77272033691406" text-anchor="start" dominant-baseline="alphabetic" transform="matrix(1, 0, 0, 1, 0.5, 0.5)" stroke-opacity="0" stroke-linejoin="bevel" stroke-miterlimit="10">0</text><text fill="rgb(68,68,68)" stroke="none" font-family="helvetica" font-size="11px" font-style="normal" font-weight="normal" text-decoration="normal" x="25.70849609375" y="184.89808654785156" text-anchor="start" dominant-baseline="alphabetic" transform="matrix(1, 0, 0, 1, 0.5, 0.5)" fill-opacity="1">0.1</text><text fill="none" stroke="rgb(0,0,0)" font-family="helvetica" font-size="11px" font-style="normal" font-weight="normal" text-decoration="normal" x="25.70849609375" y="184.89808654785156" text-anchor="start" dominant-baseline="alphabetic" transform="matrix(1, 0, 0, 1, 0.5, 0.5)" stroke-opacity="0" stroke-linejoin="bevel" stroke-miterlimit="10">0.1</text><text fill="rgb(68,68,68)" stroke="none" font-family="helvetica" font-size="11px" font-style="normal" font-weight="normal" text-decoration="normal" x="25.70849609375" y="145.0234375" text-anchor="start" dominant-baseline="alphabetic" transform="matrix(1, 0, 0, 1, 0.5, 0.5)" fill-opacity="1">0.2</text><text fill="none" stroke="rgb(0,0,0)" font-family="helvetica" font-size="11px" font-style="normal" font-weight="normal" text-decoration="normal" x="25.70849609375" y="145.0234375" text-anchor="start" dominant-baseline="alphabetic" transform="matrix(1, 0, 0, 1, 0.5, 0.5)" stroke-opacity="0" stroke-linejoin="bevel" stroke-miterlimit="10">0.2</text><text fill="rgb(68,68,68)" stroke="none" font-family="helvetica" font-size="11px" font-style="normal" font-weight="normal" text-decoration="normal" x="25.70849609375" y="105.1488037109375" text-anchor="start" dominant-baseline="alphabetic" transform="matrix(1, 0, 0, 1, 0.5, 0.5)" fill-opacity="1">0.3</text><text fill="none" stroke="rgb(0,0,0)" font-family="helvetica" font-size="11px" font-style="normal" font-weight="normal" text-decoration="normal" x="25.70849609375" y="105.1488037109375" text-anchor="start" dominant-baseline="alphabetic" transform="matrix(1, 0, 0, 1, 0.5, 0.5)" stroke-opacity="0" stroke-linejoin="bevel" stroke-miterlimit="10">0.3</text><text fill="rgb(68,68,68)" stroke="none" font-family="helvetica" font-size="11px" font-style="normal" font-weight="normal" text-decoration="normal" x="25.70849609375" y="65.2741584777832" text-anchor="start" dominant-baseline="alphabetic" transform="matrix(1, 0, 0, 1, 0.5, 0.5)" fill-opacity="1">0.4</text><text fill="none" stroke="rgb(0,0,0)" font-family="helvetica" font-size="11px" font-style="normal" font-weight="normal" text-decoration="normal" x="25.70849609375" y="65.2741584777832" text-anchor="start" dominant-baseline="alphabetic" transform="matrix(1, 0, 0, 1, 0.5, 0.5)" stroke-opacity="0" stroke-linejoin="bevel" stroke-miterlimit="10">0.4</text><text fill="rgb(68,68,68)" stroke="none" font-family="helvetica" font-size="13px" font-style="italic" font-weight="normal" text-decoration="normal" x="-47.31689453125" y="125.5" text-anchor="start" dominant-baseline="alphabetic" transform="matrix(6.123233995736766e-17, -1, 1, 6.123233995736766e-17, -110.29150390625, 146.70849609375)" fill-opacity="1">Normalised Probability</text><text fill="none" stroke="rgb(0,0,0)" font-family="helvetica" font-size="13px" font-style="italic" font-weight="normal" text-decoration="normal" x="-47.31689453125" y="125.5" text-anchor="start" dominant-baseline="alphabetic" transform="matrix(6.123233995736766e-17, -1, 1, 6.123233995736766e-17, -110.29150390625, 146.70849609375)" stroke-opacity="0" stroke-linejoin="bevel" stroke-miterlimit="10">Normalised Probability</text><path fill="rgb(255,249,186)" stroke="rgb(255,0,0)" paint-order="fill" d="M 146.64357308268796 36.72727272727275 L 146.64357308268796 36.72727272727275 L 146.64357308268796 221.27272727272728 L 146.64357308268796 221.27272727272728 L 146.64357308268796 36.72727272727275 Z" fill-opacity="0.4" clip-path="url(#ooCOUqFdfxPZ)" stroke-opacity="1" stroke-linejoin="bevel" stroke-miterlimit="10" stroke-width="2" stroke-dasharray="6"/><path fill="rgb(255,249,186)" stroke="rgb(50,205,50)" paint-order="fill" d="M 93.68801892588408 36.72727272727275 L 93.68801892588408 36.72727272727275 L 93.68801892588408 221.27272727272728 L 93.68801892588408 221.27272727272728 L 93.68801892588408 36.72727272727275 Z" fill-opacity="0.4" clip-path="url(#IddTceAhGZWt)" stroke-opacity="1" stroke-linejoin="bevel" stroke-miterlimit="10" stroke-width="2" stroke-dasharray="6"/><text fill="rgb(68,68,68)" stroke="none" font-family="helvetica" font-size="13px" font-style="normal" font-weight="bold" text-decoration="normal" x="52" y="19" text-anchor="start" dominant-baseline="alphabetic" transform="matrix(1, 0, 0, 1, 0.5, 0.5)" fill-opacity="1">Convergance Probability</text><text fill="none" stroke="rgb(0,0,0)" font-family="helvetica" font-size="13px" font-style="normal" font-weight="bold" text-decoration="normal" x="52" y="19" text-anchor="start" dominant-baseline="alphabetic" transform="matrix(1, 0, 0, 1, 0.5, 0.5)" stroke-opacity="0" stroke-miterlimit="10" stroke-dasharray="">Convergance Probability</text></svg>