<svg version="1.1" xmlns="http://www.w3.org/2000/svg" width="350" height="350"><defs><clipPath id="mtINNRQxwpam"><path fill="none" stroke="none" d="M 52.5 27.5 L 320.5 27.5 L 320.5 305.5 L 52.5 305.5 L 52.5 27.5 Z"/></clipPath><clipPath id="QaGAhuTwpMoa"><path fill="none" stroke="none" d="M 52.5 27.5 L 320.5 27.5 L 320.5 305.5 L 52.5 305.5 L 52.5 27.5 Z"/></clipPath><clipPath id="bodZwTTElWGr"><path fill="none" stroke="none" d="M 52.5 27.5 L 320.5 27.5 L 320.5 305.5 L 52.5 305.5 L 52.5 27.5 Z"/></clipPath><pattern id="cKlGkWbQAHas" width="3" height="3" patternUnits="userSpaceOnUse"><path fill="rgb(0,0,0)" stroke="none" paint-order="stroke" d="M 2.75 2 A 0.75 0.75 0 0 0 1.25 2 A 0.75 0.75 0 0 0 2.75 2" fill-opacity="0.14901960784313725"/></pattern><clipPath id="NsKuzfdQfAZD"><path fill="none" stroke="none" d="M 52.5 27.5 L 320.5 27.5 L 320.5 305.5 L 52.5 305.5 L 52.5 27.5 Z"/></clipPath><clipPath id="uTdNqEKZvunP"><path fill="none" stroke="none" d="M 52.5 27.5 L 320.5 27.5 L 320.5 305.5 L 52.5 305.5 L 52.5 27.5 Z"/></clipPath><clipPath id="ERFhzWtXFVbh"><path fill="none" stroke="none" d="M 52.5 27.5 L 320.5 27.5 L 320.5 305.5 L 52.5 305.5 L 52.5 27.5 Z"/></clipPath><clipPath id="lKkTtbegFBVU"><path fill="none" stroke="none" d="M 52.5 27.5 L 320.5 27.5 L 320.5 305.5 L 52.5 305.5 L 52.5 27.5 Z"/></clipPath></defs><path fill="rgb(255,255,255)" stroke="none" paint-order="stroke" d="M 0.5 0.5 L 350.5 0.5 L 350.5 350.5 L 0.5 350.5 L 0.5 0.5 Z" fill-opacity="1"/><rect fill="#FFFFFF" stroke="none" x="52" y="27" width="268" height="278" transform="matrix(1, 0, 0, 1, 0.5, 0.5)"/><path fill="rgb(255,255,255)" stroke="none" paint-order="stroke" d="M 52.5 27.5 L 320.5 27.5 L 320.5 305.5 L 52.5 305.5 L 52.5 27.5 Z" fill-opacity="1"/><path fill="none" stroke="rgb(229,229,229)" paint-order="fill" d="M 52.5 27.5 L 320.5 27.5 L 320.5 305.5 L 52.5 305.5 L 52.5 27.5 Z" stroke-opacity="1" stroke-linejoin="bevel" stroke-miterlimit="10"/><path fill="none" stroke="rgb(229,229,229)" paint-order="fill" d="M 56.5 305.5 L 56.5 27.5 M 98.5 305.5 L 98.5 27.5 M 140.5 305.5 L 140.5 27.5 M 183.5 305.5 L 183.5 27.5 M 225.5 305.5 L 225.5 27.5 M 267.5 305.5 L 267.5 27.5 M 309.5 305.5 L 309.5 27.5" stroke-opacity="1" stroke-linejoin="bevel" stroke-miterlimit="10" clip-path="url(#mtINNRQxwpam)"/><path fill="none" stroke="rgb(229,229,229)" paint-order="fill" d="M 52.5 292.5 L 320.5 292.5 M 52.5 238.5 L 320.5 238.5 M 52.5 183.5 L 320.5 183.5 M 52.5 128.5 L 320.5 128.5 M 52.5 74.5 L 320.5 74.5" stroke-opacity="1" stroke-linejoin="bevel" stroke-miterlimit="10" clip-path="url(#QaGAhuTwpMoa)"/><path fill="rgb(128,128,128)" stroke="none" paint-order="stroke" d="M 67.85751342773438 40.13636016845703 L 293.84320068359375 40.13636016845703 L 293.84320068359375 292.8636474609375 L 67.85751342773438 292.8636474609375 L 67.85751342773438 40.13636016845703 Z" fill-opacity="0.10196078431372549" clip-path="url(#bodZwTTElWGr)"/><path fill="url(#cKlGkWbQAHas)" stroke="rgb(0,0,0)" paint-order="fill" d="M 67.85751342773438 40.13636016845703 L 293.84320068359375 40.13636016845703 L 293.84320068359375 292.8636474609375 L 67.85751342773438 292.8636474609375 L 67.85751342773438 40.13636016845703 Z" clip-path="url(#bodZwTTElWGr)" stroke-opacity="0.2" stroke-linejoin="bevel" stroke-miterlimit="10"/><path fill="rgb(100,149,237)" stroke="rgb(31,119,180)" paint-order="fill" d="M 67.85751342773438 48.98675537109375 L 124.35394287109375 48.98675537109375 L 124.35394287109375 292.8636474609375 L 67.85751342773438 292.8636474609375 L 67.85751342773438 48.98675537109375 Z" fill-opacity="1" clip-path="url(#NsKuzfdQfAZD)" stroke-opacity="1" stroke-linejoin="bevel" stroke-miterlimit="10"/><path fill="rgb(100,149,237)" stroke="rgb(31,119,180)" paint-order="fill" d="M 124.35392761230469 40.668209075927734 L 180.85035705566406 40.668209075927734 L 180.85035705566406 292.8636474609375 L 124.35392761230469 292.8636474609375 L 124.35392761230469 40.668209075927734 Z" fill-opacity="1" clip-path="url(#NsKuzfdQfAZD)" stroke-opacity="1" stroke-linejoin="bevel" stroke-miterlimit="10"/><path fill="rgb(100,149,237)" stroke="rgb(31,119,180)" paint-order="fill" d="M 180.85035705566406 40.1363639831543 L 237.34678649902344 40.1363639831543 L 237.34678649902344 292.8636474609375 L 180.85035705566406 292.8636474609375 L 180.85035705566406 40.1363639831543 Z" fill-opacity="1" clip-path="url(#NsKuzfdQfAZD)" stroke-opacity="1" stroke-linejoin="bevel" stroke-miterlimit="10"/><path fill="rgb(100,149,237)" stroke="rgb(31,119,180)" paint-order="fill" d="M 237.34678649902344 59.46468734741211 L 293.84320068359375 59.46468734741211 L 293.84320068359375 292.8636474609375 L 237.34678649902344 292.8636474609375 L 237.34678649902344 59.46468734741211 Z" fill-opacity="1" clip-path="url(#NsKuzfdQfAZD)" stroke-opacity="1" stroke-linejoin="bevel" stroke-miterlimit="10"/><path fill="rgb(100,149,237)" stroke="rgb(31,119,180)" paint-order="fill" d="M 293.84320068359375 292.8636474609375 L 320.5 292.8636474609375 L 320.5 292.8636474609375 L 293.84320068359375 292.8636474609375 L 293.84320068359375 292.8636474609375 Z" fill-opacity="1" clip-path="url(#NsKuzfdQfAZD)" stroke-opacity="1" stroke-linejoin="bevel" stroke-miterlimit="10"/><path fill="none" stroke="rgb(0,0,0)" paint-order="fill" d="M 52.5 305.5 L 320.5 305.5" stroke-opacity="1" stroke-linejoin="bevel" stroke-miterlimit="10"/><path fill="none" stroke="rgb(0,0,0)" paint-order="fill" d="M 56.5 311.5 L 56.5 303.5 M 98.5 311.5 L 98.5 303.5 M 140.5 311.5 L 140.5 303.5 M 183.5 311.5 L 183.5 303.5 M 225.5 311.5 L 225.5 303.5 M 267.5 311.5 L 267.5 303.5 M 309.5 311.5 L 309.5 303.5" stroke-opacity="1" stroke-linejoin="bevel" stroke-miterlimit="10"/><path fill="none" stroke="rgb(0,0,0)" paint-order="fill" d="M 56.5 309.5 L 56.5 305.5 M 64.5 309.5 L 64.5 305.5 M 73.5 309.5 L 73.5 305.5 M 81.5 309.5 L 81.5 305.5 M 90.5 309.5 L 90.5 305.5 M 98.5 309.5 L 98.5 305.5 M 107.5 309.5 L 107.5 305.5 M 115.5 309.5 L 115.5 305.5 M 124.5 309.5 L 124.5 305.5 M 132.5 309.5 L 132.5 305.5 M 140.5 309.5 L 140.5 305.5 M 149.5 309.5 L 149.5 305.5 M 157.5 309.5 L 157.5 305.5 M 166.5 309.5 L 166.5 305.5 M 174.5 309.5 L 174.5 305.5 M 183.5 309.5 L 183.5 305.5 M 191.5 309.5 L 191.5 305.5 M 200.5 309.5 L 200.5 305.5 M 208.5 309.5 L 208.5 305.5 M 217.5 309.5 L 217.5 305.5 M 225.5 309.5 L 225.5 305.5 M 233.5 309.5 L 233.5 305.5 M 242.5 309.5 L 242.5 305.5 M 250.5 309.5 L 250.5 305.5 M 259.5 309.5 L 259.5 305.5 M 267.5 309.5 L 267.5 305.5 M 276.5 309.5 L 276.5 305.5 M 284.5 309.5 L 284.5 305.5 M 293.5 309.5 L 293.5 305.5 M 301.5 309.5 L 301.5 305.5 M 309.5 309.5 L 309.5 305.5 M 318.5 309.5 L 318.5 305.5" stroke-opacity="1" stroke-linejoin="bevel" stroke-miterlimit="10"/><text fill="rgb(68,68,68)" stroke="none" font-family="helvetica" font-size="11px" font-style="normal" font-weight="normal" text-decoration="normal" x="49.8438720703125" y="324" text-anchor="start" dominant-baseline="alphabetic" transform="matrix(1, 0, 0, 1, 0.5, 0.5)" fill-opacity="1">35</text><text fill="none" stroke="rgb(0,0,0)" font-family="helvetica" font-size="11px" font-style="normal" font-weight="normal" text-decoration="normal" x="49.8438720703125" y="324" text-anchor="start" dominant-baseline="alphabetic" transform="matrix(1, 0, 0, 1, 0.5, 0.5)" stroke-opacity="0" stroke-linejoin="bevel" stroke-miterlimit="10">35</text><text fill="rgb(68,68,68)" stroke="none" font-family="helvetica" font-size="11px" font-style="normal" font-weight="normal" text-decoration="normal" x="92.09449768066406" y="324" text-anchor="start" dominant-baseline="alphabetic" transform="matrix(1, 0, 0, 1, 0.5, 0.5)" fill-opacity="1">40</text><text fill="none" stroke="rgb(0,0,0)" font-family="helvetica" font-size="11px" font-style="normal" font-weight="normal" text-decoration="normal" x="92.09449768066406" y="324" text-anchor="start" dominant-baseline="alphabetic" transform="matrix(1, 0, 0, 1, 0.5, 0.5)" stroke-opacity="0" stroke-linejoin="bevel" stroke-miterlimit="10">40</text><text fill="rgb(68,68,68)" stroke="none" font-family="helvetica" font-size="11px" font-style="normal" font-weight="normal" text-decoration="normal" x="134.34512329101562" y="324" text-anchor="start" dominant-baseline="alphabetic" transform="matrix(1, 0, 0, 1, 0.5, 0.5)" fill-opacity="1">45</text><text fill="none" stroke="rgb(0,0,0)" font-family="helvetica" font-size="11px" font-style="normal" font-weight="normal" text-decoration="normal" x="134.34512329101562" y="324" text-anchor="start" dominant-baseline="alphabetic" transform="matrix(1, 0, 0, 1, 0.5, 0.5)" stroke-opacity="0" stroke-linejoin="bevel" stroke-miterlimit="10">45</text><text fill="rgb(68,68,68)" stroke="none" font-family="helvetica" font-size="11px" font-style="normal" font-weight="normal" text-decoration="normal" x="176.59573364257812" y="324" text-anchor="start" dominant-baseline="alphabetic" transform="matrix(1, 0, 0, 1, 0.5, 0.5)" fill-opacity="1">50</text><text fill="none" stroke="rgb(0,0,0)" font-family="helvetica" font-size="11px" font-style="normal" font-weight="normal" text-decoration="normal" x="176.59573364257812" y="324" text-anchor="start" dominant-baseline="alphabetic" transform="matrix(1, 0, 0, 1, 0.5, 0.5)" stroke-opacity="0" stroke-linejoin="bevel" stroke-miterlimit="10">50</text><text fill="rgb(68,68,68)" stroke="none" font-family="helvetica" font-size="11px" font-style="normal" font-weight="normal" text-decoration="normal" x="218.8463592529297" y="324" text-anchor="start" dominant-baseline="alphabetic" transform="matrix(1, 0, 0, 1, 0.5, 0.5)" fill-opacity="1">55</text><text fill="none" stroke="rgb(0,0,0)" font-family="helvetica" font-size="11px" font-style="normal" font-weight="normal" text-decoration="normal" x="218.8463592529297" y="324" text-anchor="start" dominant-baseline="alphabetic" transform="matrix(1, 0, 0, 1, 0.5, 0.5)" stroke-opacity="0" stroke-linejoin="bevel" stroke-miterlimit="10">55</text><text fill="rgb(68,68,68)" stroke="none" font-family="helvetica" font-size="11px" font-style="normal" font-weight="normal" text-decoration="normal" x="261.09698486328125" y="324" text-anchor="start" dominant-baseline="alphabetic" transform="matrix(1, 0, 0, 1, 0.5, 0.5)" fill-opacity="1">60</text><text fill="none" stroke="rgb(0,0,0)" font-family="helvetica" font-size="11px" font-style="normal" font-weight="normal" text-decoration="normal" x="261.09698486328125" y="324" text-anchor="start" dominant-baseline="alphabetic" transform="matrix(1, 0, 0, 1, 0.5, 0.5)" stroke-opacity="0" stroke-linejoin="bevel" stroke-miterlimit="10">60</text><text fill="rgb(68,68,68)" stroke="none" font-family="helvetica" font-size="11px" font-style="normal" font-weight="normal" text-decoration="normal" x="303.34759521484375" y="324" text-anchor="start" dominant-baseline="alphabetic" transform="matrix(1, 0, 0, 1, 0.5, 0.5)" fill-opacity="1">65</text><text fill="none" stroke="rgb(0,0,0)" font-family="helvetica" font-size="11px" font-style="normal" font-weight="normal" text-decoration="normal" x="303.34759521484375" y="324" text-anchor="start" dominant-baseline="alphabetic" transform="matrix(1, 0, 0, 1, 0.5, 0.5)" stroke-opacity="0" stroke-linejoin="bevel" stroke-miterlimit="10">65</text><text fill="rgb(68,68,68)" stroke="none" font-family="helvetica" font-size="13px" font-style="italic" font-weight="normal" text-decoration="normal" x="112.31640625" y="344" text-anchor="start" dominant-baseline="alphabetic" transform="matrix(1, 0, 0, 1, 0.5, 0.5)" fill-opacity="1">Max injected power (MW)</text><text fill="none" stroke="rgb(0,0,0)" font-family="helvetica" font-size="13px" font-style="italic" font-weight="normal" text-decoration="normal" x="112.31640625" y="344" text-anchor="start" dominant-baseline="alphabetic" transform="matrix(1, 0, 0, 1, 0.5, 0.5)" stroke-opacity="0" stroke-linejoin="bevel" stroke-miterlimit="10">Max injected power (MW)</text><path fill="none" stroke="rgb(0,0,0)" paint-order="fill" d="M 52.5 305.5 L 52.5 27.5" stroke-opacity="1" stroke-linejoin="bevel" stroke-miterlimit="10"/><path fill="none" stroke="rgb(0,0,0)" paint-order="fill" d="M 46.5 292.5 L 54.5 292.5 M 46.5 238.5 L 54.5 238.5 M 46.5 183.5 L 54.5 183.5 M 46.5 128.5 L 54.5 128.5 M 46.5 74.5 L 54.5 74.5" stroke-opacity="1" stroke-linejoin="bevel" stroke-miterlimit="10"/><path fill="none" stroke="rgb(0,0,0)" paint-order="fill" d="M 48.5 303.5 L 52.5 303.5 M 48.5 292.5 L 52.5 292.5 M 48.5 281.5 L 52.5 281.5 M 48.5 270.5 L 52.5 270.5 M 48.5 260.5 L 52.5 260.5 M 48.5 249.5 L 52.5 249.5 M 48.5 238.5 L 52.5 238.5 M 48.5 227.5 L 52.5 227.5 M 48.5 216.5 L 52.5 216.5 M 48.5 205.5 L 52.5 205.5 M 48.5 194.5 L 52.5 194.5 M 48.5 183.5 L 52.5 183.5 M 48.5 172.5 L 52.5 172.5 M 48.5 161.5 L 52.5 161.5 M 48.5 150.5 L 52.5 150.5 M 48.5 139.5 L 52.5 139.5 M 48.5 128.5 L 52.5 128.5 M 48.5 117.5 L 52.5 117.5 M 48.5 106.5 L 52.5 106.5 M 48.5 95.5 L 52.5 95.5 M 48.5 84.5 L 52.5 84.5 M 48.5 74.5 L 52.5 74.5 M 48.5 63.5 L 52.5 63.5 M 48.5 52.5 L 52.5 52.5 M 48.5 41.5 L 52.5 41.5 M 48.5 30.5 L 52.5 30.5" stroke-opacity="1" stroke-linejoin="bevel" stroke-miterlimit="10"/><text fill="rgb(68,68,68)" stroke="none" font-family="helvetica" font-size="11px" font-style="normal" font-weight="normal" text-decoration="normal" x="34.88232421875" y="296.3636474609375" text-anchor="start" dominant-baseline="alphabetic" transform="matrix(1, 0, 0, 1, 0.5, 0.5)" fill-opacity="1">0</text><text fill="none" stroke="rgb(0,0,0)" font-family="helvetica" font-size="11px" font-style="normal" font-weight="normal" text-decoration="normal" x="34.88232421875" y="296.3636474609375" text-anchor="start" dominant-baseline="alphabetic" transform="matrix(1, 0, 0, 1, 0.5, 0.5)" stroke-opacity="0" stroke-linejoin="bevel" stroke-miterlimit="10">0</text><text fill="rgb(68,68,68)" stroke="none" font-family="helvetica" font-size="11px" font-style="normal" font-weight="normal" text-decoration="normal" x="25.70849609375" y="241.6597900390625" text-anchor="start" dominant-baseline="alphabetic" transform="matrix(1, 0, 0, 1, 0.5, 0.5)" fill-opacity="1">0.2</text><text fill="none" stroke="rgb(0,0,0)" font-family="helvetica" font-size="11px" font-style="normal" font-weight="normal" text-decoration="normal" x="25.70849609375" y="241.6597900390625" text-anchor="start" dominant-baseline="alphabetic" transform="matrix(1, 0, 0, 1, 0.5, 0.5)" stroke-opacity="0" stroke-linejoin="bevel" stroke-miterlimit="10">0.2</text><text fill="rgb(68,68,68)" stroke="none" font-family="helvetica" font-size="11px" font-style="normal" font-weight="normal" text-decoration="normal" x="25.70849609375" y="186.9559326171875" text-anchor="start" dominant-baseline="alphabetic" transform="matrix(1, 0, 0, 1, 0.5, 0.5)" fill-opacity="1">0.4</text><text fill="none" stroke="rgb(0,0,0)" font-family="helvetica" font-size="11px" font-style="normal" font-weight="normal" text-decoration="normal" x="25.70849609375" y="186.9559326171875" text-anchor="start" dominant-baseline="alphabetic" transform="matrix(1, 0, 0, 1, 0.5, 0.5)" stroke-opacity="0" stroke-linejoin="bevel" stroke-miterlimit="10">0.4</text><text fill="rgb(68,68,68)" stroke="none" font-family="helvetica" font-size="11px" font-style="normal" font-weight="normal" text-decoration="normal" x="25.70849609375" y="132.2520751953125" text-anchor="start" dominant-baseline="alphabetic" transform="matrix(1, 0, 0, 1, 0.5, 0.5)" fill-opacity="1">0.6</text><text fill="none" stroke="rgb(0,0,0)" font-family="helvetica" font-size="11px" font-style="normal" font-weight="normal" text-decoration="normal" x="25.70849609375" y="132.2520751953125" text-anchor="start" dominant-baseline="alphabetic" transform="matrix(1, 0, 0, 1, 0.5, 0.5)" stroke-opacity="0" stroke-linejoin="bevel" stroke-miterlimit="10">0.6</text><text fill="rgb(68,68,68)" stroke="none" font-family="helvetica" font-size="11px" font-style="normal" font-weight="normal" text-decoration="normal" x="25.70849609375" y="77.54822540283203" text-anchor="start" dominant-baseline="alphabetic" transform="matrix(1, 0, 0, 1, 0.5, 0.5)" fill-opacity="1">0.8</text><text fill="none" stroke="rgb(0,0,0)" font-family="helvetica" font-size="11px" font-style="normal" font-weight="normal" text-decoration="normal" x="25.70849609375" y="77.54822540283203" text-anchor="start" dominant-baseline="alphabetic" transform="matrix(1, 0, 0, 1, 0.5, 0.5)" stroke-opacity="0" stroke-linejoin="bevel" stroke-miterlimit="10">0.8</text><text fill="rgb(68,68,68)" stroke="none" font-family="helvetica" font-size="13px" font-style="italic" font-weight="normal" text-decoration="normal" x="-47.31689453125" y="163" text-anchor="start" dominant-baseline="alphabetic" transform="matrix(6.123233995736766e-17, -1, 1, 6.123233995736766e-17, -147.79150390625, 184.20849609375)" fill-opacity="1">Normalised Probability</text><text fill="none" stroke="rgb(0,0,0)" font-family="helvetica" font-size="13px" font-style="italic" font-weight="normal" text-decoration="normal" x="-47.31689453125" y="163" text-anchor="start" dominant-baseline="alphabetic" transform="matrix(6.123233995736766e-17, -1, 1, 6.123233995736766e-17, -147.79150390625, 184.20849609375)" stroke-opacity="0" stroke-linejoin="bevel" stroke-miterlimit="10">Normalised Probability</text><path fill="rgb(255,249,186)" stroke="rgb(255,0,0)" paint-order="fill" d="M 184.94672454092148 40.13636363636368 L 184.94672454092148 40.13636363636368 L 184.94672454092148 292.8636363636364 L 184.94672454092148 292.8636363636364 L 184.94672454092148 40.13636363636368 Z" fill-opacity="0.4" clip-path="url(#uTdNqEKZvunP)" stroke-opacity="1" stroke-linejoin="bevel" stroke-miterlimit="10" stroke-width="2" stroke-dasharray="6"/><path fill="rgb(255,249,186)" stroke="rgb(50,205,50)" paint-order="fill" d="M 209.09856830055668 40.13636363636368 L 209.09856830055668 40.13636363636368 L 209.09856830055668 292.8636363636364 L 209.09856830055668 292.8636363636364 L 209.09856830055668 40.13636363636368 Z" fill-opacity="0.4" clip-path="url(#ERFhzWtXFVbh)" stroke-opacity="1" stroke-linejoin="bevel" stroke-miterlimit="10" stroke-width="2" stroke-dasharray="6"/><text fill="rgb(68,68,68)" stroke="none" font-family="helvetica" font-size="13px" font-style="normal" font-weight="bold" text-decoration="normal" x="52" y="19" text-anchor="start" dominant-baseline="alphabetic" transform="matrix(1, 0, 0, 1, 0.5, 0.5)" fill-opacity="1">Convergance Probability</text><text fill="none" stroke="rgb(0,0,0)" font-family="helvetica" font-size="13px" font-style="normal" font-weight="bold" text-decoration="normal" x="52" y="19" text-anchor="start" dominant-baseline="alphabetic" transform="matrix(1, 0, 0, 1, 0.5, 0.5)" stroke-opacity="0" stroke-miterlimit="10" stroke-dasharray="">Convergance Probability</text></svg>