<svg version="1.1" xmlns="http://www.w3.org/2000/svg" width="275" height="275"><defs><clipPath id="OMopbczmZQog"><path fill="none" stroke="none" d="M 52.5 27.5 L 245.5 27.5 L 245.5 230.5 L 52.5 230.5 L 52.5 27.5 Z"/></clipPath><clipPath id="DwFWwCwCfGXA"><path fill="none" stroke="none" d="M 52.5 27.5 L 245.5 27.5 L 245.5 230.5 L 52.5 230.5 L 52.5 27.5 Z"/></clipPath><clipPath id="IqaQauGGslWh"><path fill="none" stroke="none" d="M 52.5 27.5 L 245.5 27.5 L 245.5 230.5 L 52.5 230.5 L 52.5 27.5 Z"/></clipPath><clipPath id="CUylUAJVolqM"><path fill="none" stroke="none" d="M 52.5 27.5 L 245.5 27.5 L 245.5 230.5 L 52.5 230.5 L 52.5 27.5 Z"/></clipPath><pattern id="FBrtKRoLbMFq" width="3" height="3" patternUnits="userSpaceOnUse"><path fill="rgb(0,0,0)" stroke="none" paint-order="stroke" d="M 2.75 2 A 0.75 0.75 0 0 0 1.25 2 A 0.75 0.75 0 0 0 2.75 2" fill-opacity="0.14901960784313725"/></pattern><clipPath id="nBchvaeazhSL"><path fill="none" stroke="none" d="M 52.5 27.5 L 245.5 27.5 L 245.5 230.5 L 52.5 230.5 L 52.5 27.5 Z"/></clipPath><clipPath id="fAgEvyTPFxob"><path fill="none" stroke="none" d="M 52.5 27.5 L 245.5 27.5 L 245.5 230.5 L 52.5 230.5 L 52.5 27.5 Z"/></clipPath><clipPath id="rPltVSpRJIII"><path fill="none" stroke="none" d="M 52.5 27.5 L 245.5 27.5 L 245.5 230.5 L 52.5 230.5 L 52.5 27.5 Z"/></clipPath><clipPath id="AnonQJmnFWvx"><path fill="none" stroke="none" d="M 52.5 27.5 L 245.5 27.5 L 245.5 230.5 L 52.5 230.5 L 52.5 27.5 Z"/></clipPath></defs><path fill="rgb(255,255,255)" stroke="none" paint-order="stroke" d="M 0.5 0.5 L 275.5 0.5 L 275.5 275.5 L 0.5 275.5 L 0.5 0.5 Z" fill-opacity="1"/><rect fill="#FFFFFF" stroke="none" x="52" y="27" width="193" height="203" transform="matrix(1, 0, 0, 1, 0.5, 0.5)"/><path fill="rgb(255,255,255)" stroke="none" paint-order="stroke" d="M 52.5 27.5 L 245.5 27.5 L 245.5 230.5 L 52.5 230.5 L 52.5 27.5 Z" fill-opacity="1"/><path fill="none" stroke="rgb(229,229,229)" paint-order="fill" d="M 52.5 27.5 L 245.5 27.5 L 245.5 230.5 L 52.5 230.5 L 52.5 27.5 Z" stroke-opacity="1" stroke-linejoin="bevel" stroke-miterlimit="10"/><path fill="none" stroke="rgb(229,229,229)" paint-order="fill" d="M 58.5 230.5 L 58.5 27.5 M 84.5 230.5 L 84.5 27.5 M 110.5 230.5 L 110.5 27.5 M 135.5 230.5 L 135.5 27.5 M 161.5 230.5 L 161.5 27.5 M 187.5 230.5 L 187.5 27.5 M 213.5 230.5 L 213.5 27.5 M 239.5 230.5 L 239.5 27.5" stroke-opacity="1" stroke-linejoin="bevel" stroke-miterlimit="10" clip-path="url(#OMopbczmZQog)"/><path fill="none" stroke="rgb(229,229,229)" paint-order="fill" d="M 52.5 221.5 L 245.5 221.5 M 52.5 179.5 L 245.5 179.5 M 52.5 137.5 L 245.5 137.5 M 52.5 96.5 L 245.5 96.5 M 52.5 54.5 L 245.5 54.5" stroke-opacity="1" stroke-linejoin="bevel" stroke-miterlimit="10" clip-path="url(#DwFWwCwCfGXA)"/><path fill="none" stroke="rgb(0,0,0)" paint-order="fill" d="M 121.87415313720703 19.660930633544922 L 121.87415313720703 53.79361343383789" stroke-opacity="1" stroke-linejoin="bevel" stroke-miterlimit="10" clip-path="url(#IqaQauGGslWh)"/><path fill="none" stroke="rgb(0,0,0)" paint-order="fill" d="M 171.19387817382812 36.50123977661133 L 171.19387817382812 64.8435287475586" stroke-opacity="1" stroke-linejoin="bevel" stroke-miterlimit="10" clip-path="url(#IqaQauGGslWh)"/><path fill="none" stroke="rgb(0,0,0)" paint-order="fill" d="M 116.87415313720703 19.660930633544922 L 126.87415313720703 19.660930633544922" stroke-opacity="1" stroke-linejoin="bevel" stroke-miterlimit="10" clip-path="url(#IqaQauGGslWh)"/><path fill="none" stroke="rgb(0,0,0)" paint-order="fill" d="M 166.19387817382812 36.50123977661133 L 176.19387817382812 36.50123977661133" stroke-opacity="1" stroke-linejoin="bevel" stroke-miterlimit="10" clip-path="url(#IqaQauGGslWh)"/><path fill="none" stroke="rgb(0,0,0)" paint-order="fill" d="M 126.87415313720703 53.79361343383789 L 116.87415313720703 53.79361343383789" stroke-opacity="1" stroke-linejoin="bevel" stroke-miterlimit="10" clip-path="url(#IqaQauGGslWh)"/><path fill="none" stroke="rgb(0,0,0)" paint-order="fill" d="M 176.19387817382812 64.8435287475586 L 166.19387817382812 64.8435287475586" stroke-opacity="1" stroke-linejoin="bevel" stroke-miterlimit="10" clip-path="url(#IqaQauGGslWh)"/><path fill="rgb(128,128,128)" stroke="none" paint-order="stroke" d="M 97.21429443359375 36.727272033691406 L 195.85372924804688 36.727272033691406 L 195.85372924804688 221.27273559570312 L 97.21429443359375 221.27273559570312 L 97.21429443359375 36.727272033691406 Z" fill-opacity="0.10196078431372549" clip-path="url(#CUylUAJVolqM)"/><path fill="url(#FBrtKRoLbMFq)" stroke="rgb(0,0,0)" paint-order="fill" d="M 97.21429443359375 36.727272033691406 L 195.85372924804688 36.727272033691406 L 195.85372924804688 221.27273559570312 L 97.21429443359375 221.27273559570312 L 97.21429443359375 36.727272033691406 Z" clip-path="url(#CUylUAJVolqM)" stroke-opacity="0.2" stroke-linejoin="bevel" stroke-miterlimit="10"/><path fill="rgb(100,149,237)" stroke="rgb(31,119,180)" paint-order="fill" d="M 97.21429443359375 36.727272033691406 L 146.5340118408203 36.727272033691406 L 146.5340118408203 221.27272033691406 L 97.21429443359375 221.27272033691406 L 97.21429443359375 36.727272033691406 Z" fill-opacity="0.5019607843137255" clip-path="url(#nBchvaeazhSL)" stroke-opacity="0.5019607843137255" stroke-linejoin="bevel" stroke-miterlimit="10"/><path fill="rgb(100,149,237)" stroke="rgb(31,119,180)" paint-order="fill" d="M 146.53402709960938 50.672386169433594 L 195.85372924804688 50.672386169433594 L 195.85372924804688 221.27272033691406 L 146.53402709960938 221.27272033691406 L 146.53402709960938 50.672386169433594 Z" fill-opacity="0.5019607843137255" clip-path="url(#nBchvaeazhSL)" stroke-opacity="0.5019607843137255" stroke-linejoin="bevel" stroke-miterlimit="10"/><path fill="none" stroke="rgb(0,0,0)" paint-order="fill" d="M 52.5 230.5 L 245.5 230.5" stroke-opacity="1" stroke-linejoin="bevel" stroke-miterlimit="10"/><path fill="none" stroke="rgb(0,0,0)" paint-order="fill" d="M 58.5 236.5 L 58.5 228.5 M 84.5 236.5 L 84.5 228.5 M 110.5 236.5 L 110.5 228.5 M 135.5 236.5 L 135.5 228.5 M 161.5 236.5 L 161.5 228.5 M 187.5 236.5 L 187.5 228.5 M 213.5 236.5 L 213.5 228.5 M 239.5 236.5 L 239.5 228.5" stroke-opacity="1" stroke-linejoin="bevel" stroke-miterlimit="10"/><path fill="none" stroke="rgb(0,0,0)" paint-order="fill" d="M 53.5 234.5 L 53.5 230.5 M 58.5 234.5 L 58.5 230.5 M 63.5 234.5 L 63.5 230.5 M 68.5 234.5 L 68.5 230.5 M 73.5 234.5 L 73.5 230.5 M 78.5 234.5 L 78.5 230.5 M 84.5 234.5 L 84.5 230.5 M 89.5 234.5 L 89.5 230.5 M 94.5 234.5 L 94.5 230.5 M 99.5 234.5 L 99.5 230.5 M 104.5 234.5 L 104.5 230.5 M 110.5 234.5 L 110.5 230.5 M 115.5 234.5 L 115.5 230.5 M 120.5 234.5 L 120.5 230.5 M 125.5 234.5 L 125.5 230.5 M 130.5 234.5 L 130.5 230.5 M 135.5 234.5 L 135.5 230.5 M 141.5 234.5 L 141.5 230.5 M 146.5 234.5 L 146.5 230.5 M 151.5 234.5 L 151.5 230.5 M 156.5 234.5 L 156.5 230.5 M 161.5 234.5 L 161.5 230.5 M 167.5 234.5 L 167.5 230.5 M 172.5 234.5 L 172.5 230.5 M 177.5 234.5 L 177.5 230.5 M 182.5 234.5 L 182.5 230.5 M 187.5 234.5 L 187.5 230.5 M 192.5 234.5 L 192.5 230.5 M 198.5 234.5 L 198.5 230.5 M 203.5 234.5 L 203.5 230.5 M 208.5 234.5 L 208.5 230.5 M 213.5 234.5 L 213.5 230.5 M 218.5 234.5 L 218.5 230.5 M 224.5 234.5 L 224.5 230.5 M 229.5 234.5 L 229.5 230.5 M 234.5 234.5 L 234.5 230.5 M 239.5 234.5 L 239.5 230.5 M 244.5 234.5 L 244.5 230.5" stroke-opacity="1" stroke-linejoin="bevel" stroke-miterlimit="10"/><text fill="rgb(68,68,68)" stroke="none" font-family="helvetica" font-size="11px" font-style="normal" font-weight="normal" text-decoration="normal" x="45.44820785522461" y="249" text-anchor="start" dominant-baseline="alphabetic" transform="matrix(1, 0, 0, 1, 0.5, 0.5)" fill-opacity="1">1650</text><text fill="none" stroke="rgb(0,0,0)" font-family="helvetica" font-size="11px" font-style="normal" font-weight="normal" text-decoration="normal" x="45.44820785522461" y="249" text-anchor="start" dominant-baseline="alphabetic" transform="matrix(1, 0, 0, 1, 0.5, 0.5)" stroke-opacity="0" stroke-linejoin="bevel" stroke-miterlimit="10">1650</text><text fill="rgb(68,68,68)" stroke="none" font-family="helvetica" font-size="11px" font-style="normal" font-weight="normal" text-decoration="normal" x="71.36503601074219" y="249" text-anchor="start" dominant-baseline="alphabetic" transform="matrix(1, 0, 0, 1, 0.5, 0.5)" fill-opacity="1">1700</text><text fill="none" stroke="rgb(0,0,0)" font-family="helvetica" font-size="11px" font-style="normal" font-weight="normal" text-decoration="normal" x="71.36503601074219" y="249" text-anchor="start" dominant-baseline="alphabetic" transform="matrix(1, 0, 0, 1, 0.5, 0.5)" stroke-opacity="0" stroke-linejoin="bevel" stroke-miterlimit="10">1700</text><text fill="rgb(68,68,68)" stroke="none" font-family="helvetica" font-size="11px" font-style="normal" font-weight="normal" text-decoration="normal" x="97.2818603515625" y="249" text-anchor="start" dominant-baseline="alphabetic" transform="matrix(1, 0, 0, 1, 0.5, 0.5)" fill-opacity="1">1750</text><text fill="none" stroke="rgb(0,0,0)" font-family="helvetica" font-size="11px" font-style="normal" font-weight="normal" text-decoration="normal" x="97.2818603515625" y="249" text-anchor="start" dominant-baseline="alphabetic" transform="matrix(1, 0, 0, 1, 0.5, 0.5)" stroke-opacity="0" stroke-linejoin="bevel" stroke-miterlimit="10">1750</text><text fill="rgb(68,68,68)" stroke="none" font-family="helvetica" font-size="11px" font-style="normal" font-weight="normal" text-decoration="normal" x="123.19868469238281" y="249" text-anchor="start" dominant-baseline="alphabetic" transform="matrix(1, 0, 0, 1, 0.5, 0.5)" fill-opacity="1">1800</text><text fill="none" stroke="rgb(0,0,0)" font-family="helvetica" font-size="11px" font-style="normal" font-weight="normal" text-decoration="normal" x="123.19868469238281" y="249" text-anchor="start" dominant-baseline="alphabetic" transform="matrix(1, 0, 0, 1, 0.5, 0.5)" stroke-opacity="0" stroke-linejoin="bevel" stroke-miterlimit="10">1800</text><text fill="rgb(68,68,68)" stroke="none" font-family="helvetica" font-size="11px" font-style="normal" font-weight="normal" text-decoration="normal" x="149.11550903320312" y="249" text-anchor="start" dominant-baseline="alphabetic" transform="matrix(1, 0, 0, 1, 0.5, 0.5)" fill-opacity="1">1850</text><text fill="none" stroke="rgb(0,0,0)" font-family="helvetica" font-size="11px" font-style="normal" font-weight="normal" text-decoration="normal" x="149.11550903320312" y="249" text-anchor="start" dominant-baseline="alphabetic" transform="matrix(1, 0, 0, 1, 0.5, 0.5)" stroke-opacity="0" stroke-linejoin="bevel" stroke-miterlimit="10">1850</text><text fill="rgb(68,68,68)" stroke="none" font-family="helvetica" font-size="11px" font-style="normal" font-weight="normal" text-decoration="normal" x="175.03233337402344" y="249" text-anchor="start" dominant-baseline="alphabetic" transform="matrix(1, 0, 0, 1, 0.5, 0.5)" fill-opacity="1">1900</text><text fill="none" stroke="rgb(0,0,0)" font-family="helvetica" font-size="11px" font-style="normal" font-weight="normal" text-decoration="normal" x="175.03233337402344" y="249" text-anchor="start" dominant-baseline="alphabetic" transform="matrix(1, 0, 0, 1, 0.5, 0.5)" stroke-opacity="0" stroke-linejoin="bevel" stroke-miterlimit="10">1900</text><text fill="rgb(68,68,68)" stroke="none" font-family="helvetica" font-size="11px" font-style="normal" font-weight="normal" text-decoration="normal" x="200.94915771484375" y="249" text-anchor="start" dominant-baseline="alphabetic" transform="matrix(1, 0, 0, 1, 0.5, 0.5)" fill-opacity="1">1950</text><text fill="none" stroke="rgb(0,0,0)" font-family="helvetica" font-size="11px" font-style="normal" font-weight="normal" text-decoration="normal" x="200.94915771484375" y="249" text-anchor="start" dominant-baseline="alphabetic" transform="matrix(1, 0, 0, 1, 0.5, 0.5)" stroke-opacity="0" stroke-linejoin="bevel" stroke-miterlimit="10">1950</text><text fill="rgb(68,68,68)" stroke="none" font-family="helvetica" font-size="11px" font-style="normal" font-weight="normal" text-decoration="normal" x="226.86598205566406" y="249" text-anchor="start" dominant-baseline="alphabetic" transform="matrix(1, 0, 0, 1, 0.5, 0.5)" fill-opacity="1">2000</text><text fill="none" stroke="rgb(0,0,0)" font-family="helvetica" font-size="11px" font-style="normal" font-weight="normal" text-decoration="normal" x="226.86598205566406" y="249" text-anchor="start" dominant-baseline="alphabetic" transform="matrix(1, 0, 0, 1, 0.5, 0.5)" stroke-opacity="0" stroke-linejoin="bevel" stroke-miterlimit="10">2000</text><text fill="rgb(68,68,68)" stroke="none" font-family="helvetica" font-size="13px" font-style="italic" font-weight="normal" text-decoration="normal" x="91.79638671875" y="269" text-anchor="start" dominant-baseline="alphabetic" transform="matrix(1, 0, 0, 1, 0.5, 0.5)" fill-opacity="1">Fusion power (MW)</text><text fill="none" stroke="rgb(0,0,0)" font-family="helvetica" font-size="13px" font-style="italic" font-weight="normal" text-decoration="normal" x="91.79638671875" y="269" text-anchor="start" dominant-baseline="alphabetic" transform="matrix(1, 0, 0, 1, 0.5, 0.5)" stroke-opacity="0" stroke-linejoin="bevel" stroke-miterlimit="10">Fusion power (MW)</text><path fill="none" stroke="rgb(0,0,0)" paint-order="fill" d="M 52.5 230.5 L 52.5 27.5" stroke-opacity="1" stroke-linejoin="bevel" stroke-miterlimit="10"/><path fill="none" stroke="rgb(0,0,0)" paint-order="fill" d="M 46.5 221.5 L 54.5 221.5 M 46.5 179.5 L 54.5 179.5 M 46.5 137.5 L 54.5 137.5 M 46.5 96.5 L 54.5 96.5 M 46.5 54.5 L 54.5 54.5" stroke-opacity="1" stroke-linejoin="bevel" stroke-miterlimit="10"/><path fill="none" stroke="rgb(0,0,0)" paint-order="fill" d="M 48.5 229.5 L 52.5 229.5 M 48.5 221.5 L 52.5 221.5 M 48.5 212.5 L 52.5 212.5 M 48.5 204.5 L 52.5 204.5 M 48.5 196.5 L 52.5 196.5 M 48.5 187.5 L 52.5 187.5 M 48.5 179.5 L 52.5 179.5 M 48.5 171.5 L 52.5 171.5 M 48.5 162.5 L 52.5 162.5 M 48.5 154.5 L 52.5 154.5 M 48.5 146.5 L 52.5 146.5 M 48.5 137.5 L 52.5 137.5 M 48.5 129.5 L 52.5 129.5 M 48.5 121.5 L 52.5 121.5 M 48.5 112.5 L 52.5 112.5 M 48.5 104.5 L 52.5 104.5 M 48.5 96.5 L 52.5 96.5 M 48.5 87.5 L 52.5 87.5 M 48.5 79.5 L 52.5 79.5 M 48.5 71.5 L 52.5 71.5 M 48.5 62.5 L 52.5 62.5 M 48.5 54.5 L 52.5 54.5 M 48.5 46.5 L 52.5 46.5 M 48.5 37.5 L 52.5 37.5 M 48.5 29.5 L 52.5 29.5" stroke-opacity="1" stroke-linejoin="bevel" stroke-miterlimit="10"/><text fill="rgb(68,68,68)" stroke="none" font-family="helvetica" font-size="11px" font-style="normal" font-weight="normal" text-decoration="normal" x="34.88232421875" y="224.77272033691406" text-anchor="start" dominant-baseline="alphabetic" transform="matrix(1, 0, 0, 1, 0.5, 0.5)" fill-opacity="1">0</text><text fill="none" stroke="rgb(0,0,0)" font-family="helvetica" font-size="11px" font-style="normal" font-weight="normal" text-decoration="normal" x="34.88232421875" y="224.77272033691406" text-anchor="start" dominant-baseline="alphabetic" transform="matrix(1, 0, 0, 1, 0.5, 0.5)" stroke-opacity="0" stroke-linejoin="bevel" stroke-miterlimit="10">0</text><text fill="rgb(68,68,68)" stroke="none" font-family="helvetica" font-size="11px" font-style="normal" font-weight="normal" text-decoration="normal" x="25.70849609375" y="183.08465576171875" text-anchor="start" dominant-baseline="alphabetic" transform="matrix(1, 0, 0, 1, 0.5, 0.5)" fill-opacity="1">0.2</text><text fill="none" stroke="rgb(0,0,0)" font-family="helvetica" font-size="11px" font-style="normal" font-weight="normal" text-decoration="normal" x="25.70849609375" y="183.08465576171875" text-anchor="start" dominant-baseline="alphabetic" transform="matrix(1, 0, 0, 1, 0.5, 0.5)" stroke-opacity="0" stroke-linejoin="bevel" stroke-miterlimit="10">0.2</text><text fill="rgb(68,68,68)" stroke="none" font-family="helvetica" font-size="11px" font-style="normal" font-weight="normal" text-decoration="normal" x="25.70849609375" y="141.39659118652344" text-anchor="start" dominant-baseline="alphabetic" transform="matrix(1, 0, 0, 1, 0.5, 0.5)" fill-opacity="1">0.4</text><text fill="none" stroke="rgb(0,0,0)" font-family="helvetica" font-size="11px" font-style="normal" font-weight="normal" text-decoration="normal" x="25.70849609375" y="141.39659118652344" text-anchor="start" dominant-baseline="alphabetic" transform="matrix(1, 0, 0, 1, 0.5, 0.5)" stroke-opacity="0" stroke-linejoin="bevel" stroke-miterlimit="10">0.4</text><text fill="rgb(68,68,68)" stroke="none" font-family="helvetica" font-size="11px" font-style="normal" font-weight="normal" text-decoration="normal" x="25.70849609375" y="99.7085189819336" text-anchor="start" dominant-baseline="alphabetic" transform="matrix(1, 0, 0, 1, 0.5, 0.5)" fill-opacity="1">0.6</text><text fill="none" stroke="rgb(0,0,0)" font-family="helvetica" font-size="11px" font-style="normal" font-weight="normal" text-decoration="normal" x="25.70849609375" y="99.7085189819336" text-anchor="start" dominant-baseline="alphabetic" transform="matrix(1, 0, 0, 1, 0.5, 0.5)" stroke-opacity="0" stroke-linejoin="bevel" stroke-miterlimit="10">0.6</text><text fill="rgb(68,68,68)" stroke="none" font-family="helvetica" font-size="11px" font-style="normal" font-weight="normal" text-decoration="normal" x="25.70849609375" y="58.020450592041016" text-anchor="start" dominant-baseline="alphabetic" transform="matrix(1, 0, 0, 1, 0.5, 0.5)" fill-opacity="1">0.8</text><text fill="none" stroke="rgb(0,0,0)" font-family="helvetica" font-size="11px" font-style="normal" font-weight="normal" text-decoration="normal" x="25.70849609375" y="58.020450592041016" text-anchor="start" dominant-baseline="alphabetic" transform="matrix(1, 0, 0, 1, 0.5, 0.5)" stroke-opacity="0" stroke-linejoin="bevel" stroke-miterlimit="10">0.8</text><text fill="rgb(68,68,68)" stroke="none" font-family="helvetica" font-size="13px" font-style="italic" font-weight="normal" text-decoration="normal" x="-47.31689453125" y="125.5" text-anchor="start" dominant-baseline="alphabetic" transform="matrix(6.123233995736766e-17, -1, 1, 6.123233995736766e-17, -110.29150390625, 146.70849609375)" fill-opacity="1">Normalised Probability</text><text fill="none" stroke="rgb(0,0,0)" font-family="helvetica" font-size="13px" font-style="italic" font-weight="normal" text-decoration="normal" x="-47.31689453125" y="125.5" text-anchor="start" dominant-baseline="alphabetic" transform="matrix(6.123233995736766e-17, -1, 1, 6.123233995736766e-17, -110.29150390625, 146.70849609375)" stroke-opacity="0" stroke-linejoin="bevel" stroke-miterlimit="10">Normalised Probability</text><path fill="rgb(255,249,186)" stroke="rgb(255,0,0)" paint-order="fill" d="M 149.8733220179589 36.72727272727275 L 149.8733220179589 36.72727272727275 L 149.8733220179589 221.27272727272728 L 149.8733220179589 221.27272727272728 L 149.8733220179589 36.72727272727275 Z" fill-opacity="0.4" clip-path="url(#fAgEvyTPFxob)" stroke-opacity="1" stroke-linejoin="bevel" stroke-miterlimit="10" stroke-width="2" stroke-dasharray="6"/><path fill="rgb(255,249,186)" stroke="rgb(50,205,50)" paint-order="fill" d="M 121.87415568894448 36.72727272727275 L 121.87415568894448 36.72727272727275 L 121.87415568894448 221.27272727272728 L 121.87415568894448 221.27272727272728 L 121.87415568894448 36.72727272727275 Z" fill-opacity="0.4" clip-path="url(#rPltVSpRJIII)" stroke-opacity="1" stroke-linejoin="bevel" stroke-miterlimit="10" stroke-width="2" stroke-dasharray="6"/><text fill="rgb(68,68,68)" stroke="none" font-family="helvetica" font-size="13px" font-style="normal" font-weight="bold" text-decoration="normal" x="52" y="19" text-anchor="start" dominant-baseline="alphabetic" transform="matrix(1, 0, 0, 1, 0.5, 0.5)" fill-opacity="1">Convergance Probability</text><text fill="none" stroke="rgb(0,0,0)" font-family="helvetica" font-size="13px" font-style="normal" font-weight="bold" text-decoration="normal" x="52" y="19" text-anchor="start" dominant-baseline="alphabetic" transform="matrix(1, 0, 0, 1, 0.5, 0.5)" stroke-opacity="0" stroke-miterlimit="10" stroke-dasharray="">Convergance Probability</text></svg>