<svg version="1.1" xmlns="http://www.w3.org/2000/svg" width="275" height="275"><defs><clipPath id="wHqZtSusyWRJ"><path fill="none" stroke="none" d="M 52.5 27.5 L 245.5 27.5 L 245.5 230.5 L 52.5 230.5 L 52.5 27.5 Z"/></clipPath><clipPath id="EFPhQywEEvES"><path fill="none" stroke="none" d="M 52.5 27.5 L 245.5 27.5 L 245.5 230.5 L 52.5 230.5 L 52.5 27.5 Z"/></clipPath><clipPath id="JSyPVgTqAmqx"><path fill="none" stroke="none" d="M 52.5 27.5 L 245.5 27.5 L 245.5 230.5 L 52.5 230.5 L 52.5 27.5 Z"/></clipPath><clipPath id="PNXIiAyTwxsb"><path fill="none" stroke="none" d="M 52.5 27.5 L 245.5 27.5 L 245.5 230.5 L 52.5 230.5 L 52.5 27.5 Z"/></clipPath><pattern id="huseiMBpOyOu" width="3" height="3" patternUnits="userSpaceOnUse"><path fill="rgb(0,0,0)" stroke="none" paint-order="stroke" d="M 2.75 2 A 0.75 0.75 0 0 0 1.25 2 A 0.75 0.75 0 0 0 2.75 2" fill-opacity="0.14901960784313725"/></pattern><clipPath id="VbXVUhRoZwAS"><path fill="none" stroke="none" d="M 52.5 27.5 L 245.5 27.5 L 245.5 230.5 L 52.5 230.5 L 52.5 27.5 Z"/></clipPath><clipPath id="WEuJLrnCIUEe"><path fill="none" stroke="none" d="M 52.5 27.5 L 245.5 27.5 L 245.5 230.5 L 52.5 230.5 L 52.5 27.5 Z"/></clipPath><clipPath id="WWZMVgSobDeh"><path fill="none" stroke="none" d="M 52.5 27.5 L 245.5 27.5 L 245.5 230.5 L 52.5 230.5 L 52.5 27.5 Z"/></clipPath><clipPath id="tyEDIghPdIGT"><path fill="none" stroke="none" d="M 52.5 27.5 L 245.5 27.5 L 245.5 230.5 L 52.5 230.5 L 52.5 27.5 Z"/></clipPath></defs><path fill="rgb(255,255,255)" stroke="none" paint-order="stroke" d="M 0.5 0.5 L 275.5 0.5 L 275.5 275.5 L 0.5 275.5 L 0.5 0.5 Z" fill-opacity="1"/><rect fill="#FFFFFF" stroke="none" x="52" y="27" width="193" height="203" transform="matrix(1, 0, 0, 1, 0.5, 0.5)"/><path fill="rgb(255,255,255)" stroke="none" paint-order="stroke" d="M 52.5 27.5 L 245.5 27.5 L 245.5 230.5 L 52.5 230.5 L 52.5 27.5 Z" fill-opacity="1"/><path fill="none" stroke="rgb(229,229,229)" paint-order="fill" d="M 52.5 27.5 L 245.5 27.5 L 245.5 230.5 L 52.5 230.5 L 52.5 27.5 Z" stroke-opacity="1" stroke-linejoin="bevel" stroke-miterlimit="10"/><path fill="none" stroke="rgb(229,229,229)" paint-order="fill" d="M 66.5 230.5 L 66.5 27.5 M 105.5 230.5 L 105.5 27.5 M 144.5 230.5 L 144.5 27.5 M 183.5 230.5 L 183.5 27.5 M 223.5 230.5 L 223.5 27.5" stroke-opacity="1" stroke-linejoin="bevel" stroke-miterlimit="10" clip-path="url(#wHqZtSusyWRJ)"/><path fill="none" stroke="rgb(229,229,229)" paint-order="fill" d="M 52.5 221.5 L 245.5 221.5 M 52.5 175.5 L 245.5 175.5 M 52.5 130.5 L 245.5 130.5 M 52.5 85.5 L 245.5 85.5 M 52.5 39.5 L 245.5 39.5" stroke-opacity="1" stroke-linejoin="bevel" stroke-miterlimit="10" clip-path="url(#EFPhQywEEvES)"/><path fill="none" stroke="rgb(0,0,0)" paint-order="fill" d="M 81.99838256835938 113.79215240478516 L 81.99838256835938 119.18081665039062" stroke-opacity="1" stroke-linejoin="bevel" stroke-miterlimit="10" clip-path="url(#JSyPVgTqAmqx)"/><path fill="none" stroke="rgb(0,0,0)" paint-order="fill" d="M 113.52855682373047 99.7581787109375 L 113.52855682373047 105.39844512939453" stroke-opacity="1" stroke-linejoin="bevel" stroke-miterlimit="10" clip-path="url(#JSyPVgTqAmqx)"/><path fill="none" stroke="rgb(0,0,0)" paint-order="fill" d="M 145.05873107910156 51.62908935546875 L 145.05873107910156 56.993804931640625" stroke-opacity="1" stroke-linejoin="bevel" stroke-miterlimit="10" clip-path="url(#JSyPVgTqAmqx)"/><path fill="none" stroke="rgb(0,0,0)" paint-order="fill" d="M 176.58889770507812 38.05706787109375 L 176.58889770507812 42.61194610595703" stroke-opacity="1" stroke-linejoin="bevel" stroke-miterlimit="10" clip-path="url(#JSyPVgTqAmqx)"/><path fill="none" stroke="rgb(0,0,0)" paint-order="fill" d="M 208.1190643310547 34.37058639526367 L 208.1190643310547 39.08395767211914" stroke-opacity="1" stroke-linejoin="bevel" stroke-miterlimit="10" clip-path="url(#JSyPVgTqAmqx)"/><path fill="none" stroke="rgb(0,0,0)" paint-order="fill" d="M 76.99838256835938 113.79215240478516 L 86.99838256835938 113.79215240478516" stroke-opacity="1" stroke-linejoin="bevel" stroke-miterlimit="10" clip-path="url(#JSyPVgTqAmqx)"/><path fill="none" stroke="rgb(0,0,0)" paint-order="fill" d="M 108.52855682373047 99.7581787109375 L 118.52855682373047 99.7581787109375" stroke-opacity="1" stroke-linejoin="bevel" stroke-miterlimit="10" clip-path="url(#JSyPVgTqAmqx)"/><path fill="none" stroke="rgb(0,0,0)" paint-order="fill" d="M 140.05873107910156 51.62908935546875 L 150.05873107910156 51.62908935546875" stroke-opacity="1" stroke-linejoin="bevel" stroke-miterlimit="10" clip-path="url(#JSyPVgTqAmqx)"/><path fill="none" stroke="rgb(0,0,0)" paint-order="fill" d="M 171.58889770507812 38.05706787109375 L 181.58889770507812 38.05706787109375" stroke-opacity="1" stroke-linejoin="bevel" stroke-miterlimit="10" clip-path="url(#JSyPVgTqAmqx)"/><path fill="none" stroke="rgb(0,0,0)" paint-order="fill" d="M 203.1190643310547 34.37058639526367 L 213.1190643310547 34.37058639526367" stroke-opacity="1" stroke-linejoin="bevel" stroke-miterlimit="10" clip-path="url(#JSyPVgTqAmqx)"/><path fill="none" stroke="rgb(0,0,0)" paint-order="fill" d="M 86.99838256835938 119.18081665039062 L 76.99838256835938 119.18081665039062" stroke-opacity="1" stroke-linejoin="bevel" stroke-miterlimit="10" clip-path="url(#JSyPVgTqAmqx)"/><path fill="none" stroke="rgb(0,0,0)" paint-order="fill" d="M 118.52855682373047 105.39844512939453 L 108.52855682373047 105.39844512939453" stroke-opacity="1" stroke-linejoin="bevel" stroke-miterlimit="10" clip-path="url(#JSyPVgTqAmqx)"/><path fill="none" stroke="rgb(0,0,0)" paint-order="fill" d="M 150.05873107910156 56.993804931640625 L 140.05873107910156 56.993804931640625" stroke-opacity="1" stroke-linejoin="bevel" stroke-miterlimit="10" clip-path="url(#JSyPVgTqAmqx)"/><path fill="none" stroke="rgb(0,0,0)" paint-order="fill" d="M 181.58889770507812 42.61194610595703 L 171.58889770507812 42.61194610595703" stroke-opacity="1" stroke-linejoin="bevel" stroke-miterlimit="10" clip-path="url(#JSyPVgTqAmqx)"/><path fill="none" stroke="rgb(0,0,0)" paint-order="fill" d="M 213.1190643310547 39.08395767211914 L 203.1190643310547 39.08395767211914" stroke-opacity="1" stroke-linejoin="bevel" stroke-miterlimit="10" clip-path="url(#JSyPVgTqAmqx)"/><path fill="rgb(128,128,128)" stroke="none" paint-order="stroke" d="M 66.2332992553711 36.727272033691406 L 223.8841552734375 36.727272033691406 L 223.8841552734375 221.27273559570312 L 66.2332992553711 221.27273559570312 L 66.2332992553711 36.727272033691406 Z" fill-opacity="0.10196078431372549" clip-path="url(#PNXIiAyTwxsb)"/><path fill="url(#huseiMBpOyOu)" stroke="rgb(0,0,0)" paint-order="fill" d="M 66.2332992553711 36.727272033691406 L 223.8841552734375 36.727272033691406 L 223.8841552734375 221.27273559570312 L 66.2332992553711 221.27273559570312 L 66.2332992553711 36.727272033691406 Z" clip-path="url(#PNXIiAyTwxsb)" stroke-opacity="0.2" stroke-linejoin="bevel" stroke-miterlimit="10"/><path fill="rgb(100,149,237)" stroke="rgb(31,119,180)" paint-order="fill" d="M 66.2332992553711 116.48648071289062 L 97.76346588134766 116.48648071289062 L 97.76346588134766 221.27272033691406 L 66.2332992553711 221.27272033691406 L 66.2332992553711 116.48648071289062 Z" fill-opacity="0.5019607843137255" clip-path="url(#VbXVUhRoZwAS)" stroke-opacity="0.5019607843137255" stroke-linejoin="bevel" stroke-miterlimit="10"/><path fill="rgb(100,149,237)" stroke="rgb(31,119,180)" paint-order="fill" d="M 97.76347351074219 102.57831573486328 L 129.29364013671875 102.57831573486328 L 129.29364013671875 221.27272033691406 L 97.76347351074219 221.27272033691406 L 97.76347351074219 102.57831573486328 Z" fill-opacity="0.5019607843137255" clip-path="url(#VbXVUhRoZwAS)" stroke-opacity="0.5019607843137255" stroke-linejoin="bevel" stroke-miterlimit="10"/><path fill="rgb(100,149,237)" stroke="rgb(31,119,180)" paint-order="fill" d="M 129.29364013671875 54.31144714355469 L 160.82382202148438 54.31144714355469 L 160.82382202148438 221.27272033691406 L 129.29364013671875 221.27272033691406 L 129.29364013671875 54.31144714355469 Z" fill-opacity="0.5019607843137255" clip-path="url(#VbXVUhRoZwAS)" stroke-opacity="0.5019607843137255" stroke-linejoin="bevel" stroke-miterlimit="10"/><path fill="rgb(100,149,237)" stroke="rgb(31,119,180)" paint-order="fill" d="M 160.8238067626953 40.33450698852539 L 192.35398864746094 40.33450698852539 L 192.35398864746094 221.27272033691406 L 160.8238067626953 221.27272033691406 L 160.8238067626953 40.33450698852539 Z" fill-opacity="0.5019607843137255" clip-path="url(#VbXVUhRoZwAS)" stroke-opacity="0.5019607843137255" stroke-linejoin="bevel" stroke-miterlimit="10"/><path fill="rgb(100,149,237)" stroke="rgb(31,119,180)" paint-order="fill" d="M 192.35397338867188 36.727272033691406 L 223.8841552734375 36.727272033691406 L 223.8841552734375 221.27272033691406 L 192.35397338867188 221.27272033691406 L 192.35397338867188 36.727272033691406 Z" fill-opacity="0.5019607843137255" clip-path="url(#VbXVUhRoZwAS)" stroke-opacity="0.5019607843137255" stroke-linejoin="bevel" stroke-miterlimit="10"/><path fill="none" stroke="rgb(0,0,0)" paint-order="fill" d="M 52.5 230.5 L 245.5 230.5" stroke-opacity="1" stroke-linejoin="bevel" stroke-miterlimit="10"/><path fill="none" stroke="rgb(0,0,0)" paint-order="fill" d="M 66.5 236.5 L 66.5 228.5 M 105.5 236.5 L 105.5 228.5 M 144.5 236.5 L 144.5 228.5 M 183.5 236.5 L 183.5 228.5 M 223.5 236.5 L 223.5 228.5" stroke-opacity="1" stroke-linejoin="bevel" stroke-miterlimit="10"/><path fill="none" stroke="rgb(0,0,0)" paint-order="fill" d="M 58.5 234.5 L 58.5 230.5 M 66.5 234.5 L 66.5 230.5 M 74.5 234.5 L 74.5 230.5 M 81.5 234.5 L 81.5 230.5 M 89.5 234.5 L 89.5 230.5 M 97.5 234.5 L 97.5 230.5 M 105.5 234.5 L 105.5 230.5 M 113.5 234.5 L 113.5 230.5 M 121.5 234.5 L 121.5 230.5 M 128.5 234.5 L 128.5 230.5 M 136.5 234.5 L 136.5 230.5 M 144.5 234.5 L 144.5 230.5 M 152.5 234.5 L 152.5 230.5 M 160.5 234.5 L 160.5 230.5 M 168.5 234.5 L 168.5 230.5 M 176.5 234.5 L 176.5 230.5 M 183.5 234.5 L 183.5 230.5 M 191.5 234.5 L 191.5 230.5 M 199.5 234.5 L 199.5 230.5 M 207.5 234.5 L 207.5 230.5 M 215.5 234.5 L 215.5 230.5 M 223.5 234.5 L 223.5 230.5 M 230.5 234.5 L 230.5 230.5 M 238.5 234.5 L 238.5 230.5" stroke-opacity="1" stroke-linejoin="bevel" stroke-miterlimit="10"/><text fill="rgb(68,68,68)" stroke="none" font-family="helvetica" font-size="11px" font-style="normal" font-weight="normal" text-decoration="normal" x="62.63579559326172" y="249" text-anchor="start" dominant-baseline="alphabetic" transform="matrix(1, 0, 0, 1, 0.5, 0.5)" fill-opacity="1">7</text><text fill="none" stroke="rgb(0,0,0)" font-family="helvetica" font-size="11px" font-style="normal" font-weight="normal" text-decoration="normal" x="62.63579559326172" y="249" text-anchor="start" dominant-baseline="alphabetic" transform="matrix(1, 0, 0, 1, 0.5, 0.5)" stroke-opacity="0" stroke-linejoin="bevel" stroke-miterlimit="10">7</text><text fill="rgb(68,68,68)" stroke="none" font-family="helvetica" font-size="11px" font-style="normal" font-weight="normal" text-decoration="normal" x="101.86827850341797" y="249" text-anchor="start" dominant-baseline="alphabetic" transform="matrix(1, 0, 0, 1, 0.5, 0.5)" fill-opacity="1">8</text><text fill="none" stroke="rgb(0,0,0)" font-family="helvetica" font-size="11px" font-style="normal" font-weight="normal" text-decoration="normal" x="101.86827850341797" y="249" text-anchor="start" dominant-baseline="alphabetic" transform="matrix(1, 0, 0, 1, 0.5, 0.5)" stroke-opacity="0" stroke-linejoin="bevel" stroke-miterlimit="10">8</text><text fill="rgb(68,68,68)" stroke="none" font-family="helvetica" font-size="11px" font-style="normal" font-weight="normal" text-decoration="normal" x="141.1007537841797" y="249" text-anchor="start" dominant-baseline="alphabetic" transform="matrix(1, 0, 0, 1, 0.5, 0.5)" fill-opacity="1">9</text><text fill="none" stroke="rgb(0,0,0)" font-family="helvetica" font-size="11px" font-style="normal" font-weight="normal" text-decoration="normal" x="141.1007537841797" y="249" text-anchor="start" dominant-baseline="alphabetic" transform="matrix(1, 0, 0, 1, 0.5, 0.5)" stroke-opacity="0" stroke-linejoin="bevel" stroke-miterlimit="10">9</text><text fill="rgb(68,68,68)" stroke="none" font-family="helvetica" font-size="11px" font-style="normal" font-weight="normal" text-decoration="normal" x="177.27439880371094" y="249" text-anchor="start" dominant-baseline="alphabetic" transform="matrix(1, 0, 0, 1, 0.5, 0.5)" fill-opacity="1">10</text><text fill="none" stroke="rgb(0,0,0)" font-family="helvetica" font-size="11px" font-style="normal" font-weight="normal" text-decoration="normal" x="177.27439880371094" y="249" text-anchor="start" dominant-baseline="alphabetic" transform="matrix(1, 0, 0, 1, 0.5, 0.5)" stroke-opacity="0" stroke-linejoin="bevel" stroke-miterlimit="10">10</text><text fill="rgb(68,68,68)" stroke="none" font-family="helvetica" font-size="11px" font-style="normal" font-weight="normal" text-decoration="normal" x="216.91506958007812" y="249" text-anchor="start" dominant-baseline="alphabetic" transform="matrix(1, 0, 0, 1, 0.5, 0.5)" fill-opacity="1">11</text><text fill="none" stroke="rgb(0,0,0)" font-family="helvetica" font-size="11px" font-style="normal" font-weight="normal" text-decoration="normal" x="216.91506958007812" y="249" text-anchor="start" dominant-baseline="alphabetic" transform="matrix(1, 0, 0, 1, 0.5, 0.5)" stroke-opacity="0" stroke-linejoin="bevel" stroke-miterlimit="10">11</text><text fill="rgb(68,68,68)" stroke="none" font-family="helvetica" font-size="13px" font-style="italic" font-weight="normal" text-decoration="normal" x="66.52001953125" y="269" text-anchor="start" dominant-baseline="alphabetic" transform="matrix(1, 0, 0, 1, 0.5, 0.5)" fill-opacity="1">Divertor protection (MWT/m)</text><text fill="none" stroke="rgb(0,0,0)" font-family="helvetica" font-size="13px" font-style="italic" font-weight="normal" text-decoration="normal" x="66.52001953125" y="269" text-anchor="start" dominant-baseline="alphabetic" transform="matrix(1, 0, 0, 1, 0.5, 0.5)" stroke-opacity="0" stroke-linejoin="bevel" stroke-miterlimit="10">Divertor protection (MWT/m)</text><path fill="none" stroke="rgb(0,0,0)" paint-order="fill" d="M 52.5 230.5 L 52.5 27.5" stroke-opacity="1" stroke-linejoin="bevel" stroke-miterlimit="10"/><path fill="none" stroke="rgb(0,0,0)" paint-order="fill" d="M 46.5 221.5 L 54.5 221.5 M 46.5 175.5 L 54.5 175.5 M 46.5 130.5 L 54.5 130.5 M 46.5 85.5 L 54.5 85.5 M 46.5 39.5 L 54.5 39.5" stroke-opacity="1" stroke-linejoin="bevel" stroke-miterlimit="10"/><path fill="none" stroke="rgb(0,0,0)" paint-order="fill" d="M 48.5 230.5 L 52.5 230.5 M 48.5 221.5 L 52.5 221.5 M 48.5 212.5 L 52.5 212.5 M 48.5 203.5 L 52.5 203.5 M 48.5 194.5 L 52.5 194.5 M 48.5 184.5 L 52.5 184.5 M 48.5 175.5 L 52.5 175.5 M 48.5 166.5 L 52.5 166.5 M 48.5 157.5 L 52.5 157.5 M 48.5 148.5 L 52.5 148.5 M 48.5 139.5 L 52.5 139.5 M 48.5 130.5 L 52.5 130.5 M 48.5 121.5 L 52.5 121.5 M 48.5 112.5 L 52.5 112.5 M 48.5 103.5 L 52.5 103.5 M 48.5 94.5 L 52.5 94.5 M 48.5 85.5 L 52.5 85.5 M 48.5 76.5 L 52.5 76.5 M 48.5 66.5 L 52.5 66.5 M 48.5 57.5 L 52.5 57.5 M 48.5 48.5 L 52.5 48.5 M 48.5 39.5 L 52.5 39.5 M 48.5 30.5 L 52.5 30.5" stroke-opacity="1" stroke-linejoin="bevel" stroke-miterlimit="10"/><text fill="rgb(68,68,68)" stroke="none" font-family="helvetica" font-size="11px" font-style="normal" font-weight="normal" text-decoration="normal" x="34.88232421875" y="224.77272033691406" text-anchor="start" dominant-baseline="alphabetic" transform="matrix(1, 0, 0, 1, 0.5, 0.5)" fill-opacity="1">0</text><text fill="none" stroke="rgb(0,0,0)" font-family="helvetica" font-size="11px" font-style="normal" font-weight="normal" text-decoration="normal" x="34.88232421875" y="224.77272033691406" text-anchor="start" dominant-baseline="alphabetic" transform="matrix(1, 0, 0, 1, 0.5, 0.5)" stroke-opacity="0" stroke-linejoin="bevel" stroke-miterlimit="10">0</text><text fill="rgb(68,68,68)" stroke="none" font-family="helvetica" font-size="11px" font-style="normal" font-weight="normal" text-decoration="normal" x="25.70849609375" y="179.38905334472656" text-anchor="start" dominant-baseline="alphabetic" transform="matrix(1, 0, 0, 1, 0.5, 0.5)" fill-opacity="1">0.2</text><text fill="none" stroke="rgb(0,0,0)" font-family="helvetica" font-size="11px" font-style="normal" font-weight="normal" text-decoration="normal" x="25.70849609375" y="179.38905334472656" text-anchor="start" dominant-baseline="alphabetic" transform="matrix(1, 0, 0, 1, 0.5, 0.5)" stroke-opacity="0" stroke-linejoin="bevel" stroke-miterlimit="10">0.2</text><text fill="rgb(68,68,68)" stroke="none" font-family="helvetica" font-size="11px" font-style="normal" font-weight="normal" text-decoration="normal" x="25.70849609375" y="134.00537109375" text-anchor="start" dominant-baseline="alphabetic" transform="matrix(1, 0, 0, 1, 0.5, 0.5)" fill-opacity="1">0.4</text><text fill="none" stroke="rgb(0,0,0)" font-family="helvetica" font-size="11px" font-style="normal" font-weight="normal" text-decoration="normal" x="25.70849609375" y="134.00537109375" text-anchor="start" dominant-baseline="alphabetic" transform="matrix(1, 0, 0, 1, 0.5, 0.5)" stroke-opacity="0" stroke-linejoin="bevel" stroke-miterlimit="10">0.4</text><text fill="rgb(68,68,68)" stroke="none" font-family="helvetica" font-size="11px" font-style="normal" font-weight="normal" text-decoration="normal" x="25.70849609375" y="88.62169647216797" text-anchor="start" dominant-baseline="alphabetic" transform="matrix(1, 0, 0, 1, 0.5, 0.5)" fill-opacity="1">0.6</text><text fill="none" stroke="rgb(0,0,0)" font-family="helvetica" font-size="11px" font-style="normal" font-weight="normal" text-decoration="normal" x="25.70849609375" y="88.62169647216797" text-anchor="start" dominant-baseline="alphabetic" transform="matrix(1, 0, 0, 1, 0.5, 0.5)" stroke-opacity="0" stroke-linejoin="bevel" stroke-miterlimit="10">0.6</text><text fill="rgb(68,68,68)" stroke="none" font-family="helvetica" font-size="11px" font-style="normal" font-weight="normal" text-decoration="normal" x="25.70849609375" y="43.2380256652832" text-anchor="start" dominant-baseline="alphabetic" transform="matrix(1, 0, 0, 1, 0.5, 0.5)" fill-opacity="1">0.8</text><text fill="none" stroke="rgb(0,0,0)" font-family="helvetica" font-size="11px" font-style="normal" font-weight="normal" text-decoration="normal" x="25.70849609375" y="43.2380256652832" text-anchor="start" dominant-baseline="alphabetic" transform="matrix(1, 0, 0, 1, 0.5, 0.5)" stroke-opacity="0" stroke-linejoin="bevel" stroke-miterlimit="10">0.8</text><text fill="rgb(68,68,68)" stroke="none" font-family="helvetica" font-size="13px" font-style="italic" font-weight="normal" text-decoration="normal" x="-15.175537109375" y="125.5" text-anchor="start" dominant-baseline="alphabetic" transform="matrix(6.123233995736766e-17, -1, 1, 6.123233995736766e-17, -110.29150390625, 146.70849609375)" fill-opacity="1">Confidence</text><text fill="none" stroke="rgb(0,0,0)" font-family="helvetica" font-size="13px" font-style="italic" font-weight="normal" text-decoration="normal" x="-15.175537109375" y="125.5" text-anchor="start" dominant-baseline="alphabetic" transform="matrix(6.123233995736766e-17, -1, 1, 6.123233995736766e-17, -110.29150390625, 146.70849609375)" stroke-opacity="0" stroke-linejoin="bevel" stroke-miterlimit="10">Confidence</text><path fill="rgb(255,249,186)" stroke="rgb(255,0,0)" paint-order="fill" d="M 163.9388884980961 36.72727272727275 L 163.9388884980961 36.72727272727275 L 163.9388884980961 221.27272727272728 L 163.9388884980961 221.27272727272728 L 163.9388884980961 36.72727272727275 Z" fill-opacity="0.4" clip-path="url(#WEuJLrnCIUEe)" stroke-opacity="1" stroke-linejoin="bevel" stroke-miterlimit="10" stroke-width="2" stroke-dasharray="6"/><path fill="rgb(255,249,186)" stroke="rgb(50,205,50)" paint-order="fill" d="M 208.11907131783556 36.72727272727275 L 208.11907131783556 36.72727272727275 L 208.11907131783556 221.27272727272728 L 208.11907131783556 221.27272727272728 L 208.11907131783556 36.72727272727275 Z" fill-opacity="0.4" clip-path="url(#WWZMVgSobDeh)" stroke-opacity="1" stroke-linejoin="bevel" stroke-miterlimit="10" stroke-width="2" stroke-dasharray="6"/><text fill="rgb(68,68,68)" stroke="none" font-family="helvetica" font-size="13px" font-style="normal" font-weight="bold" text-decoration="normal" x="52" y="19" text-anchor="start" dominant-baseline="alphabetic" transform="matrix(1, 0, 0, 1, 0.5, 0.5)" fill-opacity="1">Convergance Probability</text><text fill="none" stroke="rgb(0,0,0)" font-family="helvetica" font-size="13px" font-style="normal" font-weight="bold" text-decoration="normal" x="52" y="19" text-anchor="start" dominant-baseline="alphabetic" transform="matrix(1, 0, 0, 1, 0.5, 0.5)" stroke-opacity="0" stroke-miterlimit="10" stroke-dasharray="">Convergance Probability</text></svg>