<svg version="1.1" xmlns="http://www.w3.org/2000/svg" width="350" height="350"><defs><clipPath id="woSrWhxTSbFh"><path fill="none" stroke="none" d="M 52.5 27.5 L 320.5 27.5 L 320.5 305.5 L 52.5 305.5 L 52.5 27.5 Z"/></clipPath><clipPath id="hiqkiJhrmGUq"><path fill="none" stroke="none" d="M 52.5 27.5 L 320.5 27.5 L 320.5 305.5 L 52.5 305.5 L 52.5 27.5 Z"/></clipPath><clipPath id="LAZOTwnSTNpN"><path fill="none" stroke="none" d="M 52.5 27.5 L 320.5 27.5 L 320.5 305.5 L 52.5 305.5 L 52.5 27.5 Z"/></clipPath><pattern id="NXHeycaDkALJ" width="3" height="3" patternUnits="userSpaceOnUse"><path fill="rgb(0,0,0)" stroke="none" paint-order="stroke" d="M 2.75 2 A 0.75 0.75 0 0 0 1.25 2 A 0.75 0.75 0 0 0 2.75 2" fill-opacity="0.14901960784313725"/></pattern><clipPath id="JKHTVLEtQZve"><path fill="none" stroke="none" d="M 52.5 27.5 L 320.5 27.5 L 320.5 305.5 L 52.5 305.5 L 52.5 27.5 Z"/></clipPath><clipPath id="IzvLvVtrazwk"><path fill="none" stroke="none" d="M 52.5 27.5 L 320.5 27.5 L 320.5 305.5 L 52.5 305.5 L 52.5 27.5 Z"/></clipPath><clipPath id="zoGGLSoayynJ"><path fill="none" stroke="none" d="M 52.5 27.5 L 320.5 27.5 L 320.5 305.5 L 52.5 305.5 L 52.5 27.5 Z"/></clipPath><clipPath id="HTWoxnqLEFbz"><path fill="none" stroke="none" d="M 52.5 27.5 L 320.5 27.5 L 320.5 305.5 L 52.5 305.5 L 52.5 27.5 Z"/></clipPath></defs><path fill="rgb(255,255,255)" stroke="none" paint-order="stroke" d="M 0.5 0.5 L 350.5 0.5 L 350.5 350.5 L 0.5 350.5 L 0.5 0.5 Z" fill-opacity="1"/><rect fill="#FFFFFF" stroke="none" x="52" y="27" width="268" height="278" transform="matrix(1, 0, 0, 1, 0.5, 0.5)"/><path fill="rgb(255,255,255)" stroke="none" paint-order="stroke" d="M 52.5 27.5 L 320.5 27.5 L 320.5 305.5 L 52.5 305.5 L 52.5 27.5 Z" fill-opacity="1"/><path fill="none" stroke="rgb(229,229,229)" paint-order="fill" d="M 52.5 27.5 L 320.5 27.5 L 320.5 305.5 L 52.5 305.5 L 52.5 27.5 Z" stroke-opacity="1" stroke-linejoin="bevel" stroke-miterlimit="10"/><path fill="none" stroke="rgb(229,229,229)" paint-order="fill" d="M 85.5 305.5 L 85.5 27.5 M 132.5 305.5 L 132.5 27.5 M 179.5 305.5 L 179.5 27.5 M 226.5 305.5 L 226.5 27.5 M 273.5 305.5 L 273.5 27.5 M 320.5 305.5 L 320.5 27.5" stroke-opacity="1" stroke-linejoin="bevel" stroke-miterlimit="10" clip-path="url(#woSrWhxTSbFh)"/><path fill="none" stroke="rgb(229,229,229)" paint-order="fill" d="M 52.5 292.5 L 320.5 292.5 M 52.5 240.5 L 320.5 240.5 M 52.5 188.5 L 320.5 188.5 M 52.5 136.5 L 320.5 136.5 M 52.5 84.5 L 320.5 84.5 M 52.5 32.5 L 320.5 32.5" stroke-opacity="1" stroke-linejoin="bevel" stroke-miterlimit="10" clip-path="url(#hiqkiJhrmGUq)"/><path fill="rgb(128,128,128)" stroke="none" paint-order="stroke" d="M 68.09332275390625 40.13636016845703 L 293.6298522949219 40.13636016845703 L 293.6298522949219 292.8636474609375 L 68.09332275390625 292.8636474609375 L 68.09332275390625 40.13636016845703 Z" fill-opacity="0.10196078431372549" clip-path="url(#LAZOTwnSTNpN)"/><path fill="url(#NXHeycaDkALJ)" stroke="rgb(0,0,0)" paint-order="fill" d="M 68.09332275390625 40.13636016845703 L 293.6298522949219 40.13636016845703 L 293.6298522949219 292.8636474609375 L 68.09332275390625 292.8636474609375 L 68.09332275390625 40.13636016845703 Z" clip-path="url(#LAZOTwnSTNpN)" stroke-opacity="0.2" stroke-linejoin="bevel" stroke-miterlimit="10"/><path fill="rgb(100,149,237)" stroke="rgb(31,119,180)" paint-order="fill" d="M 68.09332275390625 82.140380859375 L 124.47746276855469 82.140380859375 L 124.47746276855469 292.8636474609375 L 68.09332275390625 292.8636474609375 L 68.09332275390625 82.140380859375 Z" fill-opacity="1" clip-path="url(#JKHTVLEtQZve)" stroke-opacity="1" stroke-linejoin="bevel" stroke-miterlimit="10"/><path fill="rgb(100,149,237)" stroke="rgb(31,119,180)" paint-order="fill" d="M 124.47746276855469 64.04624557495117 L 180.86158752441406 64.04624557495117 L 180.86158752441406 292.8636474609375 L 124.47746276855469 292.8636474609375 L 124.47746276855469 64.04624557495117 Z" fill-opacity="1" clip-path="url(#JKHTVLEtQZve)" stroke-opacity="1" stroke-linejoin="bevel" stroke-miterlimit="10"/><path fill="rgb(100,149,237)" stroke="rgb(31,119,180)" paint-order="fill" d="M 180.86158752441406 54.52509689331055 L 237.24571228027344 54.52509689331055 L 237.24571228027344 292.8636474609375 L 180.86158752441406 292.8636474609375 L 180.86158752441406 54.52509689331055 Z" fill-opacity="1" clip-path="url(#JKHTVLEtQZve)" stroke-opacity="1" stroke-linejoin="bevel" stroke-miterlimit="10"/><path fill="rgb(100,149,237)" stroke="rgb(31,119,180)" paint-order="fill" d="M 237.24571228027344 40.1363639831543 L 293.6298522949219 40.1363639831543 L 293.6298522949219 292.8636474609375 L 237.24571228027344 292.8636474609375 L 237.24571228027344 40.1363639831543 Z" fill-opacity="1" clip-path="url(#JKHTVLEtQZve)" stroke-opacity="1" stroke-linejoin="bevel" stroke-miterlimit="10"/><path fill="rgb(100,149,237)" stroke="rgb(31,119,180)" paint-order="fill" d="M 293.62982177734375 292.8636474609375 L 320.5 292.8636474609375 L 320.5 292.8636474609375 L 293.62982177734375 292.8636474609375 L 293.62982177734375 292.8636474609375 Z" fill-opacity="1" clip-path="url(#JKHTVLEtQZve)" stroke-opacity="1" stroke-linejoin="bevel" stroke-miterlimit="10"/><path fill="none" stroke="rgb(0,0,0)" paint-order="fill" d="M 52.5 305.5 L 320.5 305.5" stroke-opacity="1" stroke-linejoin="bevel" stroke-miterlimit="10"/><path fill="none" stroke="rgb(0,0,0)" paint-order="fill" d="M 85.5 311.5 L 85.5 303.5 M 132.5 311.5 L 132.5 303.5 M 179.5 311.5 L 179.5 303.5 M 226.5 311.5 L 226.5 303.5 M 273.5 311.5 L 273.5 303.5 M 320.5 311.5 L 320.5 303.5" stroke-opacity="1" stroke-linejoin="bevel" stroke-miterlimit="10"/><path fill="none" stroke="rgb(0,0,0)" paint-order="fill" d="M 75.5 309.5 L 75.5 305.5 M 66.5 309.5 L 66.5 305.5 M 57.5 309.5 L 57.5 305.5 M 85.5 309.5 L 85.5 305.5 M 94.5 309.5 L 94.5 305.5 M 104.5 309.5 L 104.5 305.5 M 113.5 309.5 L 113.5 305.5 M 122.5 309.5 L 122.5 305.5 M 132.5 309.5 L 132.5 305.5 M 141.5 309.5 L 141.5 305.5 M 151.5 309.5 L 151.5 305.5 M 160.5 309.5 L 160.5 305.5 M 169.5 309.5 L 169.5 305.5 M 179.5 309.5 L 179.5 305.5 M 188.5 309.5 L 188.5 305.5 M 198.5 309.5 L 198.5 305.5 M 207.5 309.5 L 207.5 305.5 M 216.5 309.5 L 216.5 305.5 M 226.5 309.5 L 226.5 305.5 M 235.5 309.5 L 235.5 305.5 M 245.5 309.5 L 245.5 305.5 M 254.5 309.5 L 254.5 305.5 M 263.5 309.5 L 263.5 305.5 M 273.5 309.5 L 273.5 305.5 M 282.5 309.5 L 282.5 305.5 M 292.5 309.5 L 292.5 305.5 M 301.5 309.5 L 301.5 305.5 M 310.5 309.5 L 310.5 305.5 M 320.5 309.5 L 320.5 305.5" stroke-opacity="1" stroke-linejoin="bevel" stroke-miterlimit="10"/><text fill="rgb(68,68,68)" stroke="none" font-family="helvetica" font-size="11px" font-style="normal" font-weight="normal" text-decoration="normal" x="81.70758056640625" y="324" text-anchor="start" dominant-baseline="alphabetic" transform="matrix(1, 0, 0, 1, 0.5, 0.5)" fill-opacity="1">7</text><text fill="none" stroke="rgb(0,0,0)" font-family="helvetica" font-size="11px" font-style="normal" font-weight="normal" text-decoration="normal" x="81.70758056640625" y="324" text-anchor="start" dominant-baseline="alphabetic" transform="matrix(1, 0, 0, 1, 0.5, 0.5)" stroke-opacity="0" stroke-linejoin="bevel" stroke-miterlimit="10">7</text><text fill="rgb(68,68,68)" stroke="none" font-family="helvetica" font-size="11px" font-style="normal" font-weight="normal" text-decoration="normal" x="128.71324157714844" y="324" text-anchor="start" dominant-baseline="alphabetic" transform="matrix(1, 0, 0, 1, 0.5, 0.5)" fill-opacity="1">8</text><text fill="none" stroke="rgb(0,0,0)" font-family="helvetica" font-size="11px" font-style="normal" font-weight="normal" text-decoration="normal" x="128.71324157714844" y="324" text-anchor="start" dominant-baseline="alphabetic" transform="matrix(1, 0, 0, 1, 0.5, 0.5)" stroke-opacity="0" stroke-linejoin="bevel" stroke-miterlimit="10">8</text><text fill="rgb(68,68,68)" stroke="none" font-family="helvetica" font-size="11px" font-style="normal" font-weight="normal" text-decoration="normal" x="175.71888732910156" y="324" text-anchor="start" dominant-baseline="alphabetic" transform="matrix(1, 0, 0, 1, 0.5, 0.5)" fill-opacity="1">9</text><text fill="none" stroke="rgb(0,0,0)" font-family="helvetica" font-size="11px" font-style="normal" font-weight="normal" text-decoration="normal" x="175.71888732910156" y="324" text-anchor="start" dominant-baseline="alphabetic" transform="matrix(1, 0, 0, 1, 0.5, 0.5)" stroke-opacity="0" stroke-linejoin="bevel" stroke-miterlimit="10">9</text><text fill="rgb(68,68,68)" stroke="none" font-family="helvetica" font-size="11px" font-style="normal" font-weight="normal" text-decoration="normal" x="219.66571044921875" y="324" text-anchor="start" dominant-baseline="alphabetic" transform="matrix(1, 0, 0, 1, 0.5, 0.5)" fill-opacity="1">10</text><text fill="none" stroke="rgb(0,0,0)" font-family="helvetica" font-size="11px" font-style="normal" font-weight="normal" text-decoration="normal" x="219.66571044921875" y="324" text-anchor="start" dominant-baseline="alphabetic" transform="matrix(1, 0, 0, 1, 0.5, 0.5)" stroke-opacity="0" stroke-linejoin="bevel" stroke-miterlimit="10">10</text><text fill="rgb(68,68,68)" stroke="none" font-family="helvetica" font-size="11px" font-style="normal" font-weight="normal" text-decoration="normal" x="267.0795593261719" y="324" text-anchor="start" dominant-baseline="alphabetic" transform="matrix(1, 0, 0, 1, 0.5, 0.5)" fill-opacity="1">11</text><text fill="none" stroke="rgb(0,0,0)" font-family="helvetica" font-size="11px" font-style="normal" font-weight="normal" text-decoration="normal" x="267.0795593261719" y="324" text-anchor="start" dominant-baseline="alphabetic" transform="matrix(1, 0, 0, 1, 0.5, 0.5)" stroke-opacity="0" stroke-linejoin="bevel" stroke-miterlimit="10">11</text><text fill="rgb(68,68,68)" stroke="none" font-family="helvetica" font-size="11px" font-style="normal" font-weight="normal" text-decoration="normal" x="313.6770324707031" y="324" text-anchor="start" dominant-baseline="alphabetic" transform="matrix(1, 0, 0, 1, 0.5, 0.5)" fill-opacity="1">12</text><text fill="none" stroke="rgb(0,0,0)" font-family="helvetica" font-size="11px" font-style="normal" font-weight="normal" text-decoration="normal" x="313.6770324707031" y="324" text-anchor="start" dominant-baseline="alphabetic" transform="matrix(1, 0, 0, 1, 0.5, 0.5)" stroke-opacity="0" stroke-linejoin="bevel" stroke-miterlimit="10">12</text><text fill="rgb(68,68,68)" stroke="none" font-family="helvetica" font-size="13px" font-style="italic" font-weight="normal" text-decoration="normal" x="104.02001953125" y="344" text-anchor="start" dominant-baseline="alphabetic" transform="matrix(1, 0, 0, 1, 0.5, 0.5)" fill-opacity="1">Divertor protection (MWT/m)</text><text fill="none" stroke="rgb(0,0,0)" font-family="helvetica" font-size="13px" font-style="italic" font-weight="normal" text-decoration="normal" x="104.02001953125" y="344" text-anchor="start" dominant-baseline="alphabetic" transform="matrix(1, 0, 0, 1, 0.5, 0.5)" stroke-opacity="0" stroke-linejoin="bevel" stroke-miterlimit="10">Divertor protection (MWT/m)</text><path fill="none" stroke="rgb(0,0,0)" paint-order="fill" d="M 52.5 305.5 L 52.5 27.5" stroke-opacity="1" stroke-linejoin="bevel" stroke-miterlimit="10"/><path fill="none" stroke="rgb(0,0,0)" paint-order="fill" d="M 46.5 292.5 L 54.5 292.5 M 46.5 240.5 L 54.5 240.5 M 46.5 188.5 L 54.5 188.5 M 46.5 136.5 L 54.5 136.5 M 46.5 84.5 L 54.5 84.5 M 46.5 32.5 L 54.5 32.5" stroke-opacity="1" stroke-linejoin="bevel" stroke-miterlimit="10"/><path fill="none" stroke="rgb(0,0,0)" paint-order="fill" d="M 48.5 303.5 L 52.5 303.5 M 48.5 292.5 L 52.5 292.5 M 48.5 282.5 L 52.5 282.5 M 48.5 272.5 L 52.5 272.5 M 48.5 261.5 L 52.5 261.5 M 48.5 251.5 L 52.5 251.5 M 48.5 240.5 L 52.5 240.5 M 48.5 230.5 L 52.5 230.5 M 48.5 219.5 L 52.5 219.5 M 48.5 209.5 L 52.5 209.5 M 48.5 199.5 L 52.5 199.5 M 48.5 188.5 L 52.5 188.5 M 48.5 178.5 L 52.5 178.5 M 48.5 167.5 L 52.5 167.5 M 48.5 157.5 L 52.5 157.5 M 48.5 147.5 L 52.5 147.5 M 48.5 136.5 L 52.5 136.5 M 48.5 126.5 L 52.5 126.5 M 48.5 115.5 L 52.5 115.5 M 48.5 105.5 L 52.5 105.5 M 48.5 95.5 L 52.5 95.5 M 48.5 84.5 L 52.5 84.5 M 48.5 74.5 L 52.5 74.5 M 48.5 63.5 L 52.5 63.5 M 48.5 53.5 L 52.5 53.5 M 48.5 42.5 L 52.5 42.5 M 48.5 32.5 L 52.5 32.5" stroke-opacity="1" stroke-linejoin="bevel" stroke-miterlimit="10"/><text fill="rgb(68,68,68)" stroke="none" font-family="helvetica" font-size="11px" font-style="normal" font-weight="normal" text-decoration="normal" x="34.88232421875" y="296.3636474609375" text-anchor="start" dominant-baseline="alphabetic" transform="matrix(1, 0, 0, 1, 0.5, 0.5)" fill-opacity="1">0</text><text fill="none" stroke="rgb(0,0,0)" font-family="helvetica" font-size="11px" font-style="normal" font-weight="normal" text-decoration="normal" x="34.88232421875" y="296.3636474609375" text-anchor="start" dominant-baseline="alphabetic" transform="matrix(1, 0, 0, 1, 0.5, 0.5)" stroke-opacity="0" stroke-linejoin="bevel" stroke-miterlimit="10">0</text><text fill="rgb(68,68,68)" stroke="none" font-family="helvetica" font-size="11px" font-style="normal" font-weight="normal" text-decoration="normal" x="25.70849609375" y="244.30067443847656" text-anchor="start" dominant-baseline="alphabetic" transform="matrix(1, 0, 0, 1, 0.5, 0.5)" fill-opacity="1">0.2</text><text fill="none" stroke="rgb(0,0,0)" font-family="helvetica" font-size="11px" font-style="normal" font-weight="normal" text-decoration="normal" x="25.70849609375" y="244.30067443847656" text-anchor="start" dominant-baseline="alphabetic" transform="matrix(1, 0, 0, 1, 0.5, 0.5)" stroke-opacity="0" stroke-linejoin="bevel" stroke-miterlimit="10">0.2</text><text fill="rgb(68,68,68)" stroke="none" font-family="helvetica" font-size="11px" font-style="normal" font-weight="normal" text-decoration="normal" x="25.70849609375" y="192.23770141601562" text-anchor="start" dominant-baseline="alphabetic" transform="matrix(1, 0, 0, 1, 0.5, 0.5)" fill-opacity="1">0.4</text><text fill="none" stroke="rgb(0,0,0)" font-family="helvetica" font-size="11px" font-style="normal" font-weight="normal" text-decoration="normal" x="25.70849609375" y="192.23770141601562" text-anchor="start" dominant-baseline="alphabetic" transform="matrix(1, 0, 0, 1, 0.5, 0.5)" stroke-opacity="0" stroke-linejoin="bevel" stroke-miterlimit="10">0.4</text><text fill="rgb(68,68,68)" stroke="none" font-family="helvetica" font-size="11px" font-style="normal" font-weight="normal" text-decoration="normal" x="25.70849609375" y="140.1747283935547" text-anchor="start" dominant-baseline="alphabetic" transform="matrix(1, 0, 0, 1, 0.5, 0.5)" fill-opacity="1">0.6</text><text fill="none" stroke="rgb(0,0,0)" font-family="helvetica" font-size="11px" font-style="normal" font-weight="normal" text-decoration="normal" x="25.70849609375" y="140.1747283935547" text-anchor="start" dominant-baseline="alphabetic" transform="matrix(1, 0, 0, 1, 0.5, 0.5)" stroke-opacity="0" stroke-linejoin="bevel" stroke-miterlimit="10">0.6</text><text fill="rgb(68,68,68)" stroke="none" font-family="helvetica" font-size="11px" font-style="normal" font-weight="normal" text-decoration="normal" x="25.70849609375" y="88.11176300048828" text-anchor="start" dominant-baseline="alphabetic" transform="matrix(1, 0, 0, 1, 0.5, 0.5)" fill-opacity="1">0.8</text><text fill="none" stroke="rgb(0,0,0)" font-family="helvetica" font-size="11px" font-style="normal" font-weight="normal" text-decoration="normal" x="25.70849609375" y="88.11176300048828" text-anchor="start" dominant-baseline="alphabetic" transform="matrix(1, 0, 0, 1, 0.5, 0.5)" stroke-opacity="0" stroke-linejoin="bevel" stroke-miterlimit="10">0.8</text><text fill="rgb(68,68,68)" stroke="none" font-family="helvetica" font-size="11px" font-style="normal" font-weight="normal" text-decoration="normal" x="34.88232421875" y="36.04879379272461" text-anchor="start" dominant-baseline="alphabetic" transform="matrix(1, 0, 0, 1, 0.5, 0.5)" fill-opacity="1">1</text><text fill="none" stroke="rgb(0,0,0)" font-family="helvetica" font-size="11px" font-style="normal" font-weight="normal" text-decoration="normal" x="34.88232421875" y="36.04879379272461" text-anchor="start" dominant-baseline="alphabetic" transform="matrix(1, 0, 0, 1, 0.5, 0.5)" stroke-opacity="0" stroke-linejoin="bevel" stroke-miterlimit="10">1</text><text fill="rgb(68,68,68)" stroke="none" font-family="helvetica" font-size="13px" font-style="italic" font-weight="normal" text-decoration="normal" x="-47.31689453125" y="163" text-anchor="start" dominant-baseline="alphabetic" transform="matrix(6.123233995736766e-17, -1, 1, 6.123233995736766e-17, -147.79150390625, 184.20849609375)" fill-opacity="1">Normalised Probability</text><text fill="none" stroke="rgb(0,0,0)" font-family="helvetica" font-size="13px" font-style="italic" font-weight="normal" text-decoration="normal" x="-47.31689453125" y="163" text-anchor="start" dominant-baseline="alphabetic" transform="matrix(6.123233995736766e-17, -1, 1, 6.123233995736766e-17, -147.79150390625, 184.20849609375)" stroke-opacity="0" stroke-linejoin="bevel" stroke-miterlimit="10">Normalised Probability</text><path fill="rgb(255,249,186)" stroke="rgb(255,0,0)" paint-order="fill" d="M 191.51954609356574 40.1363636363636 L 191.51954609356574 40.1363636363636 L 191.51954609356574 292.8636363636363 L 191.51954609356574 292.8636363636363 L 191.51954609356574 40.1363636363636 Z" fill-opacity="0.4" clip-path="url(#IzvLvVtrazwk)" stroke-opacity="1" stroke-linejoin="bevel" stroke-miterlimit="10" stroke-width="2" stroke-dasharray="6"/><path fill="rgb(255,249,186)" stroke="rgb(50,205,50)" paint-order="fill" d="M 265.4377834983313 40.1363636363636 L 265.4377834983313 40.1363636363636 L 265.4377834983313 292.8636363636363 L 265.4377834983313 292.8636363636363 L 265.4377834983313 40.1363636363636 Z" fill-opacity="0.4" clip-path="url(#zoGGLSoayynJ)" stroke-opacity="1" stroke-linejoin="bevel" stroke-miterlimit="10" stroke-width="2" stroke-dasharray="6"/><text fill="rgb(68,68,68)" stroke="none" font-family="helvetica" font-size="13px" font-style="normal" font-weight="bold" text-decoration="normal" x="52" y="19" text-anchor="start" dominant-baseline="alphabetic" transform="matrix(1, 0, 0, 1, 0.5, 0.5)" fill-opacity="1">Convergance Probability</text><text fill="none" stroke="rgb(0,0,0)" font-family="helvetica" font-size="13px" font-style="normal" font-weight="bold" text-decoration="normal" x="52" y="19" text-anchor="start" dominant-baseline="alphabetic" transform="matrix(1, 0, 0, 1, 0.5, 0.5)" stroke-opacity="0" stroke-miterlimit="10" stroke-dasharray="">Convergance Probability</text></svg>