<svg version="1.1" xmlns="http://www.w3.org/2000/svg" width="275" height="275"><defs><clipPath id="cSKoTosqlhgd"><path fill="none" stroke="none" d="M 52.5 27.5 L 245.5 27.5 L 245.5 230.5 L 52.5 230.5 L 52.5 27.5 Z"/></clipPath><clipPath id="iitDzTWaJBci"><path fill="none" stroke="none" d="M 52.5 27.5 L 245.5 27.5 L 245.5 230.5 L 52.5 230.5 L 52.5 27.5 Z"/></clipPath><clipPath id="iVEagWFcIgbS"><path fill="none" stroke="none" d="M 52.5 27.5 L 245.5 27.5 L 245.5 230.5 L 52.5 230.5 L 52.5 27.5 Z"/></clipPath><clipPath id="QynXFtrBzvFt"><path fill="none" stroke="none" d="M 52.5 27.5 L 245.5 27.5 L 245.5 230.5 L 52.5 230.5 L 52.5 27.5 Z"/></clipPath><pattern id="dopRGrJotKyp" width="3" height="3" patternUnits="userSpaceOnUse"><path fill="rgb(0,0,0)" stroke="none" paint-order="stroke" d="M 2.75 2 A 0.75 0.75 0 0 0 1.25 2 A 0.75 0.75 0 0 0 2.75 2" fill-opacity="0.14901960784313725"/></pattern><clipPath id="CnMsfJTNzlXW"><path fill="none" stroke="none" d="M 52.5 27.5 L 245.5 27.5 L 245.5 230.5 L 52.5 230.5 L 52.5 27.5 Z"/></clipPath><clipPath id="AywynbSoJVRx"><path fill="none" stroke="none" d="M 52.5 27.5 L 245.5 27.5 L 245.5 230.5 L 52.5 230.5 L 52.5 27.5 Z"/></clipPath><clipPath id="IabOIZJbfRZk"><path fill="none" stroke="none" d="M 52.5 27.5 L 245.5 27.5 L 245.5 230.5 L 52.5 230.5 L 52.5 27.5 Z"/></clipPath><clipPath id="NfVNxKsHVKal"><path fill="none" stroke="none" d="M 52.5 27.5 L 245.5 27.5 L 245.5 230.5 L 52.5 230.5 L 52.5 27.5 Z"/></clipPath></defs><path fill="rgb(255,255,255)" stroke="none" paint-order="stroke" d="M 0.5 0.5 L 275.5 0.5 L 275.5 275.5 L 0.5 275.5 L 0.5 0.5 Z" fill-opacity="1"/><rect fill="#FFFFFF" stroke="none" x="52" y="27" width="193" height="203" transform="matrix(1, 0, 0, 1, 0.5, 0.5)"/><path fill="rgb(255,255,255)" stroke="none" paint-order="stroke" d="M 52.5 27.5 L 245.5 27.5 L 245.5 230.5 L 52.5 230.5 L 52.5 27.5 Z" fill-opacity="1"/><path fill="none" stroke="rgb(229,229,229)" paint-order="fill" d="M 52.5 27.5 L 245.5 27.5 L 245.5 230.5 L 52.5 230.5 L 52.5 27.5 Z" stroke-opacity="1" stroke-linejoin="bevel" stroke-miterlimit="10"/><path fill="none" stroke="rgb(229,229,229)" paint-order="fill" d="M 66.5 230.5 L 66.5 27.5 M 105.5 230.5 L 105.5 27.5 M 144.5 230.5 L 144.5 27.5 M 183.5 230.5 L 183.5 27.5 M 223.5 230.5 L 223.5 27.5" stroke-opacity="1" stroke-linejoin="bevel" stroke-miterlimit="10" clip-path="url(#cSKoTosqlhgd)"/><path fill="none" stroke="rgb(229,229,229)" paint-order="fill" d="M 52.5 221.5 L 245.5 221.5 M 52.5 183.5 L 245.5 183.5 M 52.5 146.5 L 245.5 146.5 M 52.5 108.5 L 245.5 108.5 M 52.5 71.5 L 245.5 71.5 M 52.5 34.5 L 245.5 34.5" stroke-opacity="1" stroke-linejoin="bevel" stroke-miterlimit="10" clip-path="url(#iitDzTWaJBci)"/><path fill="none" stroke="rgb(0,0,0)" paint-order="fill" d="M 92.5084457397461 75.9866943359375 L 92.5084457397461 83.40811157226562" stroke-opacity="1" stroke-linejoin="bevel" stroke-miterlimit="10" clip-path="url(#iVEagWFcIgbS)"/><path fill="none" stroke="rgb(0,0,0)" paint-order="fill" d="M 145.05873107910156 54.3497200012207 L 145.05873107910156 62.30560302734375" stroke-opacity="1" stroke-linejoin="bevel" stroke-miterlimit="10" clip-path="url(#iVEagWFcIgbS)"/><path fill="none" stroke="rgb(0,0,0)" paint-order="fill" d="M 197.6090087890625 32.249820709228516 L 197.6090087890625 41.2047233581543" stroke-opacity="1" stroke-linejoin="bevel" stroke-miterlimit="10" clip-path="url(#iVEagWFcIgbS)"/><path fill="none" stroke="rgb(0,0,0)" paint-order="fill" d="M 87.5084457397461 75.9866943359375 L 97.5084457397461 75.9866943359375" stroke-opacity="1" stroke-linejoin="bevel" stroke-miterlimit="10" clip-path="url(#iVEagWFcIgbS)"/><path fill="none" stroke="rgb(0,0,0)" paint-order="fill" d="M 140.05873107910156 54.3497200012207 L 150.05873107910156 54.3497200012207" stroke-opacity="1" stroke-linejoin="bevel" stroke-miterlimit="10" clip-path="url(#iVEagWFcIgbS)"/><path fill="none" stroke="rgb(0,0,0)" paint-order="fill" d="M 192.6090087890625 32.249820709228516 L 202.6090087890625 32.249820709228516" stroke-opacity="1" stroke-linejoin="bevel" stroke-miterlimit="10" clip-path="url(#iVEagWFcIgbS)"/><path fill="none" stroke="rgb(0,0,0)" paint-order="fill" d="M 97.5084457397461 83.40811157226562 L 87.5084457397461 83.40811157226562" stroke-opacity="1" stroke-linejoin="bevel" stroke-miterlimit="10" clip-path="url(#iVEagWFcIgbS)"/><path fill="none" stroke="rgb(0,0,0)" paint-order="fill" d="M 150.05873107910156 62.30560302734375 L 140.05873107910156 62.30560302734375" stroke-opacity="1" stroke-linejoin="bevel" stroke-miterlimit="10" clip-path="url(#iVEagWFcIgbS)"/><path fill="none" stroke="rgb(0,0,0)" paint-order="fill" d="M 202.6090087890625 41.2047233581543 L 192.6090087890625 41.2047233581543" stroke-opacity="1" stroke-linejoin="bevel" stroke-miterlimit="10" clip-path="url(#iVEagWFcIgbS)"/><path fill="rgb(128,128,128)" stroke="none" paint-order="stroke" d="M 66.2332992553711 36.727272033691406 L 223.8841552734375 36.727272033691406 L 223.8841552734375 221.27273559570312 L 66.2332992553711 221.27273559570312 L 66.2332992553711 36.727272033691406 Z" fill-opacity="0.10196078431372549" clip-path="url(#QynXFtrBzvFt)"/><path fill="url(#dopRGrJotKyp)" stroke="rgb(0,0,0)" paint-order="fill" d="M 66.2332992553711 36.727272033691406 L 223.8841552734375 36.727272033691406 L 223.8841552734375 221.27273559570312 L 66.2332992553711 221.27273559570312 L 66.2332992553711 36.727272033691406 Z" clip-path="url(#QynXFtrBzvFt)" stroke-opacity="0.2" stroke-linejoin="bevel" stroke-miterlimit="10"/><path fill="rgb(100,149,237)" stroke="rgb(31,119,180)" paint-order="fill" d="M 66.23330688476562 79.69740295410156 L 118.78358459472656 79.69740295410156 L 118.78358459472656 221.27272033691406 L 66.23330688476562 221.27272033691406 L 66.23330688476562 79.69740295410156 Z" fill-opacity="0.5019607843137255" clip-path="url(#CnMsfJTNzlXW)" stroke-opacity="0.5019607843137255" stroke-linejoin="bevel" stroke-miterlimit="10"/><path fill="rgb(100,149,237)" stroke="rgb(31,119,180)" paint-order="fill" d="M 118.78358459472656 58.32766342163086 L 171.33387756347656 58.32766342163086 L 171.33387756347656 221.27272033691406 L 118.78358459472656 221.27272033691406 L 118.78358459472656 58.32766342163086 Z" fill-opacity="0.5019607843137255" clip-path="url(#CnMsfJTNzlXW)" stroke-opacity="0.5019607843137255" stroke-linejoin="bevel" stroke-miterlimit="10"/><path fill="rgb(100,149,237)" stroke="rgb(31,119,180)" paint-order="fill" d="M 171.3338623046875 36.727272033691406 L 223.8841552734375 36.727272033691406 L 223.8841552734375 221.27272033691406 L 171.3338623046875 221.27272033691406 L 171.3338623046875 36.727272033691406 Z" fill-opacity="0.5019607843137255" clip-path="url(#CnMsfJTNzlXW)" stroke-opacity="0.5019607843137255" stroke-linejoin="bevel" stroke-miterlimit="10"/><path fill="none" stroke="rgb(0,0,0)" paint-order="fill" d="M 52.5 230.5 L 245.5 230.5" stroke-opacity="1" stroke-linejoin="bevel" stroke-miterlimit="10"/><path fill="none" stroke="rgb(0,0,0)" paint-order="fill" d="M 66.5 236.5 L 66.5 228.5 M 105.5 236.5 L 105.5 228.5 M 144.5 236.5 L 144.5 228.5 M 183.5 236.5 L 183.5 228.5 M 223.5 236.5 L 223.5 228.5" stroke-opacity="1" stroke-linejoin="bevel" stroke-miterlimit="10"/><path fill="none" stroke="rgb(0,0,0)" paint-order="fill" d="M 58.5 234.5 L 58.5 230.5 M 66.5 234.5 L 66.5 230.5 M 74.5 234.5 L 74.5 230.5 M 81.5 234.5 L 81.5 230.5 M 89.5 234.5 L 89.5 230.5 M 97.5 234.5 L 97.5 230.5 M 105.5 234.5 L 105.5 230.5 M 113.5 234.5 L 113.5 230.5 M 121.5 234.5 L 121.5 230.5 M 128.5 234.5 L 128.5 230.5 M 136.5 234.5 L 136.5 230.5 M 144.5 234.5 L 144.5 230.5 M 152.5 234.5 L 152.5 230.5 M 160.5 234.5 L 160.5 230.5 M 168.5 234.5 L 168.5 230.5 M 176.5 234.5 L 176.5 230.5 M 183.5 234.5 L 183.5 230.5 M 191.5 234.5 L 191.5 230.5 M 199.5 234.5 L 199.5 230.5 M 207.5 234.5 L 207.5 230.5 M 215.5 234.5 L 215.5 230.5 M 223.5 234.5 L 223.5 230.5 M 230.5 234.5 L 230.5 230.5 M 238.5 234.5 L 238.5 230.5" stroke-opacity="1" stroke-linejoin="bevel" stroke-miterlimit="10"/><text fill="rgb(68,68,68)" stroke="none" font-family="helvetica" font-size="11px" font-style="normal" font-weight="normal" text-decoration="normal" x="62.63579559326172" y="249" text-anchor="start" dominant-baseline="alphabetic" transform="matrix(1, 0, 0, 1, 0.5, 0.5)" fill-opacity="1">7</text><text fill="none" stroke="rgb(0,0,0)" font-family="helvetica" font-size="11px" font-style="normal" font-weight="normal" text-decoration="normal" x="62.63579559326172" y="249" text-anchor="start" dominant-baseline="alphabetic" transform="matrix(1, 0, 0, 1, 0.5, 0.5)" stroke-opacity="0" stroke-linejoin="bevel" stroke-miterlimit="10">7</text><text fill="rgb(68,68,68)" stroke="none" font-family="helvetica" font-size="11px" font-style="normal" font-weight="normal" text-decoration="normal" x="101.86827850341797" y="249" text-anchor="start" dominant-baseline="alphabetic" transform="matrix(1, 0, 0, 1, 0.5, 0.5)" fill-opacity="1">8</text><text fill="none" stroke="rgb(0,0,0)" font-family="helvetica" font-size="11px" font-style="normal" font-weight="normal" text-decoration="normal" x="101.86827850341797" y="249" text-anchor="start" dominant-baseline="alphabetic" transform="matrix(1, 0, 0, 1, 0.5, 0.5)" stroke-opacity="0" stroke-linejoin="bevel" stroke-miterlimit="10">8</text><text fill="rgb(68,68,68)" stroke="none" font-family="helvetica" font-size="11px" font-style="normal" font-weight="normal" text-decoration="normal" x="141.1007537841797" y="249" text-anchor="start" dominant-baseline="alphabetic" transform="matrix(1, 0, 0, 1, 0.5, 0.5)" fill-opacity="1">9</text><text fill="none" stroke="rgb(0,0,0)" font-family="helvetica" font-size="11px" font-style="normal" font-weight="normal" text-decoration="normal" x="141.1007537841797" y="249" text-anchor="start" dominant-baseline="alphabetic" transform="matrix(1, 0, 0, 1, 0.5, 0.5)" stroke-opacity="0" stroke-linejoin="bevel" stroke-miterlimit="10">9</text><text fill="rgb(68,68,68)" stroke="none" font-family="helvetica" font-size="11px" font-style="normal" font-weight="normal" text-decoration="normal" x="177.27439880371094" y="249" text-anchor="start" dominant-baseline="alphabetic" transform="matrix(1, 0, 0, 1, 0.5, 0.5)" fill-opacity="1">10</text><text fill="none" stroke="rgb(0,0,0)" font-family="helvetica" font-size="11px" font-style="normal" font-weight="normal" text-decoration="normal" x="177.27439880371094" y="249" text-anchor="start" dominant-baseline="alphabetic" transform="matrix(1, 0, 0, 1, 0.5, 0.5)" stroke-opacity="0" stroke-linejoin="bevel" stroke-miterlimit="10">10</text><text fill="rgb(68,68,68)" stroke="none" font-family="helvetica" font-size="11px" font-style="normal" font-weight="normal" text-decoration="normal" x="216.91506958007812" y="249" text-anchor="start" dominant-baseline="alphabetic" transform="matrix(1, 0, 0, 1, 0.5, 0.5)" fill-opacity="1">11</text><text fill="none" stroke="rgb(0,0,0)" font-family="helvetica" font-size="11px" font-style="normal" font-weight="normal" text-decoration="normal" x="216.91506958007812" y="249" text-anchor="start" dominant-baseline="alphabetic" transform="matrix(1, 0, 0, 1, 0.5, 0.5)" stroke-opacity="0" stroke-linejoin="bevel" stroke-miterlimit="10">11</text><text fill="rgb(68,68,68)" stroke="none" font-family="helvetica" font-size="13px" font-style="italic" font-weight="normal" text-decoration="normal" x="66.52001953125" y="269" text-anchor="start" dominant-baseline="alphabetic" transform="matrix(1, 0, 0, 1, 0.5, 0.5)" fill-opacity="1">Divertor protection (MWT/m)</text><text fill="none" stroke="rgb(0,0,0)" font-family="helvetica" font-size="13px" font-style="italic" font-weight="normal" text-decoration="normal" x="66.52001953125" y="269" text-anchor="start" dominant-baseline="alphabetic" transform="matrix(1, 0, 0, 1, 0.5, 0.5)" stroke-opacity="0" stroke-linejoin="bevel" stroke-miterlimit="10">Divertor protection (MWT/m)</text><path fill="none" stroke="rgb(0,0,0)" paint-order="fill" d="M 52.5 230.5 L 52.5 27.5" stroke-opacity="1" stroke-linejoin="bevel" stroke-miterlimit="10"/><path fill="none" stroke="rgb(0,0,0)" paint-order="fill" d="M 46.5 221.5 L 54.5 221.5 M 46.5 183.5 L 54.5 183.5 M 46.5 146.5 L 54.5 146.5 M 46.5 108.5 L 54.5 108.5 M 46.5 71.5 L 54.5 71.5 M 46.5 34.5 L 54.5 34.5" stroke-opacity="1" stroke-linejoin="bevel" stroke-miterlimit="10"/><path fill="none" stroke="rgb(0,0,0)" paint-order="fill" d="M 48.5 228.5 L 52.5 228.5 M 48.5 221.5 L 52.5 221.5 M 48.5 213.5 L 52.5 213.5 M 48.5 206.5 L 52.5 206.5 M 48.5 198.5 L 52.5 198.5 M 48.5 191.5 L 52.5 191.5 M 48.5 183.5 L 52.5 183.5 M 48.5 176.5 L 52.5 176.5 M 48.5 168.5 L 52.5 168.5 M 48.5 161.5 L 52.5 161.5 M 48.5 153.5 L 52.5 153.5 M 48.5 146.5 L 52.5 146.5 M 48.5 138.5 L 52.5 138.5 M 48.5 131.5 L 52.5 131.5 M 48.5 123.5 L 52.5 123.5 M 48.5 116.5 L 52.5 116.5 M 48.5 108.5 L 52.5 108.5 M 48.5 101.5 L 52.5 101.5 M 48.5 93.5 L 52.5 93.5 M 48.5 86.5 L 52.5 86.5 M 48.5 78.5 L 52.5 78.5 M 48.5 71.5 L 52.5 71.5 M 48.5 63.5 L 52.5 63.5 M 48.5 56.5 L 52.5 56.5 M 48.5 49.5 L 52.5 49.5 M 48.5 41.5 L 52.5 41.5 M 48.5 34.5 L 52.5 34.5" stroke-opacity="1" stroke-linejoin="bevel" stroke-miterlimit="10"/><text fill="rgb(68,68,68)" stroke="none" font-family="helvetica" font-size="11px" font-style="normal" font-weight="normal" text-decoration="normal" x="34.88232421875" y="224.77272033691406" text-anchor="start" dominant-baseline="alphabetic" transform="matrix(1, 0, 0, 1, 0.5, 0.5)" fill-opacity="1">0</text><text fill="none" stroke="rgb(0,0,0)" font-family="helvetica" font-size="11px" font-style="normal" font-weight="normal" text-decoration="normal" x="34.88232421875" y="224.77272033691406" text-anchor="start" dominant-baseline="alphabetic" transform="matrix(1, 0, 0, 1, 0.5, 0.5)" stroke-opacity="0" stroke-linejoin="bevel" stroke-miterlimit="10">0</text><text fill="rgb(68,68,68)" stroke="none" font-family="helvetica" font-size="11px" font-style="normal" font-weight="normal" text-decoration="normal" x="25.70849609375" y="187.32513427734375" text-anchor="start" dominant-baseline="alphabetic" transform="matrix(1, 0, 0, 1, 0.5, 0.5)" fill-opacity="1">0.1</text><text fill="none" stroke="rgb(0,0,0)" font-family="helvetica" font-size="11px" font-style="normal" font-weight="normal" text-decoration="normal" x="25.70849609375" y="187.32513427734375" text-anchor="start" dominant-baseline="alphabetic" transform="matrix(1, 0, 0, 1, 0.5, 0.5)" stroke-opacity="0" stroke-linejoin="bevel" stroke-miterlimit="10">0.1</text><text fill="rgb(68,68,68)" stroke="none" font-family="helvetica" font-size="11px" font-style="normal" font-weight="normal" text-decoration="normal" x="25.70849609375" y="149.87754821777344" text-anchor="start" dominant-baseline="alphabetic" transform="matrix(1, 0, 0, 1, 0.5, 0.5)" fill-opacity="1">0.2</text><text fill="none" stroke="rgb(0,0,0)" font-family="helvetica" font-size="11px" font-style="normal" font-weight="normal" text-decoration="normal" x="25.70849609375" y="149.87754821777344" text-anchor="start" dominant-baseline="alphabetic" transform="matrix(1, 0, 0, 1, 0.5, 0.5)" stroke-opacity="0" stroke-linejoin="bevel" stroke-miterlimit="10">0.2</text><text fill="rgb(68,68,68)" stroke="none" font-family="helvetica" font-size="11px" font-style="normal" font-weight="normal" text-decoration="normal" x="25.70849609375" y="112.4299545288086" text-anchor="start" dominant-baseline="alphabetic" transform="matrix(1, 0, 0, 1, 0.5, 0.5)" fill-opacity="1">0.3</text><text fill="none" stroke="rgb(0,0,0)" font-family="helvetica" font-size="11px" font-style="normal" font-weight="normal" text-decoration="normal" x="25.70849609375" y="112.4299545288086" text-anchor="start" dominant-baseline="alphabetic" transform="matrix(1, 0, 0, 1, 0.5, 0.5)" stroke-opacity="0" stroke-linejoin="bevel" stroke-miterlimit="10">0.3</text><text fill="rgb(68,68,68)" stroke="none" font-family="helvetica" font-size="11px" font-style="normal" font-weight="normal" text-decoration="normal" x="25.70849609375" y="74.98236083984375" text-anchor="start" dominant-baseline="alphabetic" transform="matrix(1, 0, 0, 1, 0.5, 0.5)" fill-opacity="1">0.4</text><text fill="none" stroke="rgb(0,0,0)" font-family="helvetica" font-size="11px" font-style="normal" font-weight="normal" text-decoration="normal" x="25.70849609375" y="74.98236083984375" text-anchor="start" dominant-baseline="alphabetic" transform="matrix(1, 0, 0, 1, 0.5, 0.5)" stroke-opacity="0" stroke-linejoin="bevel" stroke-miterlimit="10">0.4</text><text fill="rgb(68,68,68)" stroke="none" font-family="helvetica" font-size="11px" font-style="normal" font-weight="normal" text-decoration="normal" x="25.70849609375" y="37.53477096557617" text-anchor="start" dominant-baseline="alphabetic" transform="matrix(1, 0, 0, 1, 0.5, 0.5)" fill-opacity="1">0.5</text><text fill="none" stroke="rgb(0,0,0)" font-family="helvetica" font-size="11px" font-style="normal" font-weight="normal" text-decoration="normal" x="25.70849609375" y="37.53477096557617" text-anchor="start" dominant-baseline="alphabetic" transform="matrix(1, 0, 0, 1, 0.5, 0.5)" stroke-opacity="0" stroke-linejoin="bevel" stroke-miterlimit="10">0.5</text><text fill="rgb(68,68,68)" stroke="none" font-family="helvetica" font-size="13px" font-style="italic" font-weight="normal" text-decoration="normal" x="-47.31689453125" y="125.5" text-anchor="start" dominant-baseline="alphabetic" transform="matrix(6.123233995736766e-17, -1, 1, 6.123233995736766e-17, -110.29150390625, 146.70849609375)" fill-opacity="1">Normalised Probability</text><text fill="none" stroke="rgb(0,0,0)" font-family="helvetica" font-size="13px" font-style="italic" font-weight="normal" text-decoration="normal" x="-47.31689453125" y="125.5" text-anchor="start" dominant-baseline="alphabetic" transform="matrix(6.123233995736766e-17, -1, 1, 6.123233995736766e-17, -110.29150390625, 146.70849609375)" stroke-opacity="0" stroke-linejoin="bevel" stroke-miterlimit="10">Normalised Probability</text><path fill="rgb(255,249,186)" stroke="rgb(255,0,0)" paint-order="fill" d="M 144.6759787449983 36.72727272727275 L 144.6759787449983 36.72727272727275 L 144.6759787449983 221.27272727272725 L 144.6759787449983 221.27272727272725 L 144.6759787449983 36.72727272727275 Z" fill-opacity="0.4" clip-path="url(#AywynbSoJVRx)" stroke-opacity="1" stroke-linejoin="bevel" stroke-miterlimit="10" stroke-width="2" stroke-dasharray="6"/><path fill="rgb(255,249,186)" stroke="rgb(50,205,50)" paint-order="fill" d="M 197.60901419466478 36.72727272727275 L 197.60901419466478 36.72727272727275 L 197.60901419466478 221.27272727272725 L 197.60901419466478 221.27272727272725 L 197.60901419466478 36.72727272727275 Z" fill-opacity="0.4" clip-path="url(#IabOIZJbfRZk)" stroke-opacity="1" stroke-linejoin="bevel" stroke-miterlimit="10" stroke-width="2" stroke-dasharray="6"/><text fill="rgb(68,68,68)" stroke="none" font-family="helvetica" font-size="13px" font-style="normal" font-weight="bold" text-decoration="normal" x="52" y="19" text-anchor="start" dominant-baseline="alphabetic" transform="matrix(1, 0, 0, 1, 0.5, 0.5)" fill-opacity="1">Convergance Probability</text><text fill="none" stroke="rgb(0,0,0)" font-family="helvetica" font-size="13px" font-style="normal" font-weight="bold" text-decoration="normal" x="52" y="19" text-anchor="start" dominant-baseline="alphabetic" transform="matrix(1, 0, 0, 1, 0.5, 0.5)" stroke-opacity="0" stroke-miterlimit="10" stroke-dasharray="">Convergance Probability</text></svg>