<svg version="1.1" xmlns="http://www.w3.org/2000/svg" width="350" height="350"><defs><clipPath id="IpbiuVxvewTB"><path fill="none" stroke="none" d="M 58.5 27.5 L 320.5 27.5 L 320.5 305.5 L 58.5 305.5 L 58.5 27.5 Z"/></clipPath><clipPath id="nGFiOTTkQCNv"><path fill="none" stroke="none" d="M 58.5 27.5 L 320.5 27.5 L 320.5 305.5 L 58.5 305.5 L 58.5 27.5 Z"/></clipPath><clipPath id="mhhsNrFnpNAE"><path fill="none" stroke="none" d="M 58.5 27.5 L 320.5 27.5 L 320.5 305.5 L 58.5 305.5 L 58.5 27.5 Z"/></clipPath><pattern id="UqGOdyPptNIn" width="3" height="3" patternUnits="userSpaceOnUse"><path fill="rgb(0,0,0)" stroke="none" paint-order="stroke" d="M 2.75 2 A 0.75 0.75 0 0 0 1.25 2 A 0.75 0.75 0 0 0 2.75 2" fill-opacity="0.14901960784313725"/></pattern><clipPath id="rutEfxotInQC"><path fill="none" stroke="none" d="M 58.5 27.5 L 320.5 27.5 L 320.5 305.5 L 58.5 305.5 L 58.5 27.5 Z"/></clipPath><clipPath id="yTLuvZfhLDRV"><path fill="none" stroke="none" d="M 58.5 27.5 L 320.5 27.5 L 320.5 305.5 L 58.5 305.5 L 58.5 27.5 Z"/></clipPath><clipPath id="yMMfibNXTFNe"><path fill="none" stroke="none" d="M 58.5 27.5 L 320.5 27.5 L 320.5 305.5 L 58.5 305.5 L 58.5 27.5 Z"/></clipPath><clipPath id="OqhgAUSMiCCQ"><path fill="none" stroke="none" d="M 58.5 27.5 L 320.5 27.5 L 320.5 305.5 L 58.5 305.5 L 58.5 27.5 Z"/></clipPath></defs><path fill="rgb(255,255,255)" stroke="none" paint-order="stroke" d="M 0.5 0.5 L 350.5 0.5 L 350.5 350.5 L 0.5 350.5 L 0.5 0.5 Z" fill-opacity="1"/><rect fill="#FFFFFF" stroke="none" x="58" y="27" width="262" height="278" transform="matrix(1, 0, 0, 1, 0.5, 0.5)"/><path fill="rgb(255,255,255)" stroke="none" paint-order="stroke" d="M 58.5 27.5 L 320.5 27.5 L 320.5 305.5 L 58.5 305.5 L 58.5 27.5 Z" fill-opacity="1"/><path fill="none" stroke="rgb(229,229,229)" paint-order="fill" d="M 58.5 27.5 L 320.5 27.5 L 320.5 305.5 L 58.5 305.5 L 58.5 27.5 Z" stroke-opacity="1" stroke-linejoin="bevel" stroke-miterlimit="10"/><path fill="none" stroke="rgb(229,229,229)" paint-order="fill" d="M 76.5 305.5 L 76.5 27.5 M 112.5 305.5 L 112.5 27.5 M 147.5 305.5 L 147.5 27.5 M 183.5 305.5 L 183.5 27.5 M 219.5 305.5 L 219.5 27.5 M 254.5 305.5 L 254.5 27.5 M 290.5 305.5 L 290.5 27.5" stroke-opacity="1" stroke-linejoin="bevel" stroke-miterlimit="10" clip-path="url(#IpbiuVxvewTB)"/><path fill="none" stroke="rgb(229,229,229)" paint-order="fill" d="M 58.5 292.5 L 320.5 292.5 M 58.5 231.5 L 320.5 231.5 M 58.5 170.5 L 320.5 170.5 M 58.5 108.5 L 320.5 108.5 M 58.5 47.5 L 320.5 47.5" stroke-opacity="1" stroke-linejoin="bevel" stroke-miterlimit="10" clip-path="url(#nGFiOTTkQCNv)"/><path fill="rgb(128,128,128)" stroke="none" paint-order="stroke" d="M 78.11884307861328 40.13636016845703 L 290.2734375 40.13636016845703 L 290.2734375 292.8636474609375 L 78.11884307861328 292.8636474609375 L 78.11884307861328 40.13636016845703 Z" fill-opacity="0.10196078431372549" clip-path="url(#mhhsNrFnpNAE)"/><path fill="url(#UqGOdyPptNIn)" stroke="rgb(0,0,0)" paint-order="fill" d="M 78.11884307861328 40.13636016845703 L 290.2734375 40.13636016845703 L 290.2734375 292.8636474609375 L 78.11884307861328 292.8636474609375 L 78.11884307861328 40.13636016845703 Z" clip-path="url(#mhhsNrFnpNAE)" stroke-opacity="0.2" stroke-linejoin="bevel" stroke-miterlimit="10"/><path fill="rgb(100,149,237)" stroke="rgb(31,119,180)" paint-order="fill" d="M 78.11885070800781 264.79656982421875 L 148.8370361328125 264.79656982421875 L 148.8370361328125 292.8636474609375 L 78.11885070800781 292.8636474609375 L 78.11885070800781 264.79656982421875 Z" fill-opacity="1" clip-path="url(#rutEfxotInQC)" stroke-opacity="1" stroke-linejoin="bevel" stroke-miterlimit="10"/><path fill="rgb(100,149,237)" stroke="rgb(31,119,180)" paint-order="fill" d="M 148.8370361328125 84.19107818603516 L 219.55523681640625 84.19107818603516 L 219.55523681640625 292.8636474609375 L 148.8370361328125 292.8636474609375 L 148.8370361328125 84.19107818603516 Z" fill-opacity="1" clip-path="url(#rutEfxotInQC)" stroke-opacity="1" stroke-linejoin="bevel" stroke-miterlimit="10"/><path fill="rgb(100,149,237)" stroke="rgb(31,119,180)" paint-order="fill" d="M 219.5552215576172 40.1363639831543 L 290.2734069824219 40.1363639831543 L 290.2734069824219 292.8636474609375 L 219.5552215576172 292.8636474609375 L 219.5552215576172 40.1363639831543 Z" fill-opacity="1" clip-path="url(#rutEfxotInQC)" stroke-opacity="1" stroke-linejoin="bevel" stroke-miterlimit="10"/><path fill="rgb(100,149,237)" stroke="rgb(31,119,180)" paint-order="fill" d="M 290.2734375 292.8636474609375 L 320.5 292.8636474609375 L 320.5 292.8636474609375 L 290.2734375 292.8636474609375 L 290.2734375 292.8636474609375 Z" fill-opacity="1" clip-path="url(#rutEfxotInQC)" stroke-opacity="1" stroke-linejoin="bevel" stroke-miterlimit="10"/><path fill="none" stroke="rgb(0,0,0)" paint-order="fill" d="M 58.5 305.5 L 320.5 305.5" stroke-opacity="1" stroke-linejoin="bevel" stroke-miterlimit="10"/><path fill="none" stroke="rgb(0,0,0)" paint-order="fill" d="M 76.5 311.5 L 76.5 303.5 M 112.5 311.5 L 112.5 303.5 M 147.5 311.5 L 147.5 303.5 M 183.5 311.5 L 183.5 303.5 M 219.5 311.5 L 219.5 303.5 M 254.5 311.5 L 254.5 303.5 M 290.5 311.5 L 290.5 303.5" stroke-opacity="1" stroke-linejoin="bevel" stroke-miterlimit="10"/><path fill="none" stroke="rgb(0,0,0)" paint-order="fill" d="M 69.5 309.5 L 69.5 305.5 M 62.5 309.5 L 62.5 305.5 M 76.5 309.5 L 76.5 305.5 M 83.5 309.5 L 83.5 305.5 M 91.5 309.5 L 91.5 305.5 M 98.5 309.5 L 98.5 305.5 M 105.5 309.5 L 105.5 305.5 M 112.5 309.5 L 112.5 305.5 M 119.5 309.5 L 119.5 305.5 M 126.5 309.5 L 126.5 305.5 M 133.5 309.5 L 133.5 305.5 M 140.5 309.5 L 140.5 305.5 M 147.5 309.5 L 147.5 305.5 M 155.5 309.5 L 155.5 305.5 M 162.5 309.5 L 162.5 305.5 M 169.5 309.5 L 169.5 305.5 M 176.5 309.5 L 176.5 305.5 M 183.5 309.5 L 183.5 305.5 M 190.5 309.5 L 190.5 305.5 M 197.5 309.5 L 197.5 305.5 M 204.5 309.5 L 204.5 305.5 M 211.5 309.5 L 211.5 305.5 M 219.5 309.5 L 219.5 305.5 M 226.5 309.5 L 226.5 305.5 M 233.5 309.5 L 233.5 305.5 M 240.5 309.5 L 240.5 305.5 M 247.5 309.5 L 247.5 305.5 M 254.5 309.5 L 254.5 305.5 M 261.5 309.5 L 261.5 305.5 M 268.5 309.5 L 268.5 305.5 M 275.5 309.5 L 275.5 305.5 M 283.5 309.5 L 283.5 305.5 M 290.5 309.5 L 290.5 305.5 M 297.5 309.5 L 297.5 305.5 M 304.5 309.5 L 304.5 305.5 M 311.5 309.5 L 311.5 305.5 M 318.5 309.5 L 318.5 305.5" stroke-opacity="1" stroke-linejoin="bevel" stroke-miterlimit="10"/><text fill="rgb(68,68,68)" stroke="none" font-family="helvetica" font-size="11px" font-style="normal" font-weight="normal" text-decoration="normal" x="62.59672546386719" y="324" text-anchor="start" dominant-baseline="alphabetic" transform="matrix(1, 0, 0, 1, 0.5, 0.5)" fill-opacity="1">0.055</text><text fill="none" stroke="rgb(0,0,0)" font-family="helvetica" font-size="11px" font-style="normal" font-weight="normal" text-decoration="normal" x="62.59672546386719" y="324" text-anchor="start" dominant-baseline="alphabetic" transform="matrix(1, 0, 0, 1, 0.5, 0.5)" stroke-opacity="0" stroke-linejoin="bevel" stroke-miterlimit="10">0.055</text><text fill="rgb(68,68,68)" stroke="none" font-family="helvetica" font-size="11px" font-style="normal" font-weight="normal" text-decoration="normal" x="101.2117691040039" y="324" text-anchor="start" dominant-baseline="alphabetic" transform="matrix(1, 0, 0, 1, 0.5, 0.5)" fill-opacity="1">0.06</text><text fill="none" stroke="rgb(0,0,0)" font-family="helvetica" font-size="11px" font-style="normal" font-weight="normal" text-decoration="normal" x="101.2117691040039" y="324" text-anchor="start" dominant-baseline="alphabetic" transform="matrix(1, 0, 0, 1, 0.5, 0.5)" stroke-opacity="0" stroke-linejoin="bevel" stroke-miterlimit="10">0.06</text><text fill="rgb(68,68,68)" stroke="none" font-family="helvetica" font-size="11px" font-style="normal" font-weight="normal" text-decoration="normal" x="133.70913696289062" y="324" text-anchor="start" dominant-baseline="alphabetic" transform="matrix(1, 0, 0, 1, 0.5, 0.5)" fill-opacity="1">0.065</text><text fill="none" stroke="rgb(0,0,0)" font-family="helvetica" font-size="11px" font-style="normal" font-weight="normal" text-decoration="normal" x="133.70913696289062" y="324" text-anchor="start" dominant-baseline="alphabetic" transform="matrix(1, 0, 0, 1, 0.5, 0.5)" stroke-opacity="0" stroke-linejoin="bevel" stroke-miterlimit="10">0.065</text><text fill="rgb(68,68,68)" stroke="none" font-family="helvetica" font-size="11px" font-style="normal" font-weight="normal" text-decoration="normal" x="172.3241729736328" y="324" text-anchor="start" dominant-baseline="alphabetic" transform="matrix(1, 0, 0, 1, 0.5, 0.5)" fill-opacity="1">0.07</text><text fill="none" stroke="rgb(0,0,0)" font-family="helvetica" font-size="11px" font-style="normal" font-weight="normal" text-decoration="normal" x="172.3241729736328" y="324" text-anchor="start" dominant-baseline="alphabetic" transform="matrix(1, 0, 0, 1, 0.5, 0.5)" stroke-opacity="0" stroke-linejoin="bevel" stroke-miterlimit="10">0.07</text><text fill="rgb(68,68,68)" stroke="none" font-family="helvetica" font-size="11px" font-style="normal" font-weight="normal" text-decoration="normal" x="204.821533203125" y="324" text-anchor="start" dominant-baseline="alphabetic" transform="matrix(1, 0, 0, 1, 0.5, 0.5)" fill-opacity="1">0.075</text><text fill="none" stroke="rgb(0,0,0)" font-family="helvetica" font-size="11px" font-style="normal" font-weight="normal" text-decoration="normal" x="204.821533203125" y="324" text-anchor="start" dominant-baseline="alphabetic" transform="matrix(1, 0, 0, 1, 0.5, 0.5)" stroke-opacity="0" stroke-linejoin="bevel" stroke-miterlimit="10">0.075</text><text fill="rgb(68,68,68)" stroke="none" font-family="helvetica" font-size="11px" font-style="normal" font-weight="normal" text-decoration="normal" x="243.4365692138672" y="324" text-anchor="start" dominant-baseline="alphabetic" transform="matrix(1, 0, 0, 1, 0.5, 0.5)" fill-opacity="1">0.08</text><text fill="none" stroke="rgb(0,0,0)" font-family="helvetica" font-size="11px" font-style="normal" font-weight="normal" text-decoration="normal" x="243.4365692138672" y="324" text-anchor="start" dominant-baseline="alphabetic" transform="matrix(1, 0, 0, 1, 0.5, 0.5)" stroke-opacity="0" stroke-linejoin="bevel" stroke-miterlimit="10">0.08</text><text fill="rgb(68,68,68)" stroke="none" font-family="helvetica" font-size="11px" font-style="normal" font-weight="normal" text-decoration="normal" x="275.9339294433594" y="324" text-anchor="start" dominant-baseline="alphabetic" transform="matrix(1, 0, 0, 1, 0.5, 0.5)" fill-opacity="1">0.085</text><text fill="none" stroke="rgb(0,0,0)" font-family="helvetica" font-size="11px" font-style="normal" font-weight="normal" text-decoration="normal" x="275.9339294433594" y="324" text-anchor="start" dominant-baseline="alphabetic" transform="matrix(1, 0, 0, 1, 0.5, 0.5)" stroke-opacity="0" stroke-linejoin="bevel" stroke-miterlimit="10">0.085</text><text fill="rgb(68,68,68)" stroke="none" font-family="helvetica" font-size="13px" font-style="italic" font-weight="normal" text-decoration="normal" x="88.20556640625" y="344" text-anchor="start" dominant-baseline="alphabetic" transform="matrix(1, 0, 0, 1, 0.5, 0.5)" fill-opacity="1">Thermal alpha/electron density (%)</text><text fill="none" stroke="rgb(0,0,0)" font-family="helvetica" font-size="13px" font-style="italic" font-weight="normal" text-decoration="normal" x="88.20556640625" y="344" text-anchor="start" dominant-baseline="alphabetic" transform="matrix(1, 0, 0, 1, 0.5, 0.5)" stroke-opacity="0" stroke-linejoin="bevel" stroke-miterlimit="10">Thermal alpha/electron density (%)</text><path fill="none" stroke="rgb(0,0,0)" paint-order="fill" d="M 58.5 305.5 L 58.5 27.5" stroke-opacity="1" stroke-linejoin="bevel" stroke-miterlimit="10"/><path fill="none" stroke="rgb(0,0,0)" paint-order="fill" d="M 52.5 292.5 L 60.5 292.5 M 52.5 231.5 L 60.5 231.5 M 52.5 170.5 L 60.5 170.5 M 52.5 108.5 L 60.5 108.5 M 52.5 47.5 L 60.5 47.5" stroke-opacity="1" stroke-linejoin="bevel" stroke-miterlimit="10"/><path fill="none" stroke="rgb(0,0,0)" paint-order="fill" d="M 54.5 305.5 L 58.5 305.5 M 54.5 292.5 L 58.5 292.5 M 54.5 280.5 L 58.5 280.5 M 54.5 268.5 L 58.5 268.5 M 54.5 256.5 L 58.5 256.5 M 54.5 243.5 L 58.5 243.5 M 54.5 231.5 L 58.5 231.5 M 54.5 219.5 L 58.5 219.5 M 54.5 206.5 L 58.5 206.5 M 54.5 194.5 L 58.5 194.5 M 54.5 182.5 L 58.5 182.5 M 54.5 170.5 L 58.5 170.5 M 54.5 157.5 L 58.5 157.5 M 54.5 145.5 L 58.5 145.5 M 54.5 133.5 L 58.5 133.5 M 54.5 121.5 L 58.5 121.5 M 54.5 108.5 L 58.5 108.5 M 54.5 96.5 L 58.5 96.5 M 54.5 84.5 L 58.5 84.5 M 54.5 71.5 L 58.5 71.5 M 54.5 59.5 L 58.5 59.5 M 54.5 47.5 L 58.5 47.5 M 54.5 35.5 L 58.5 35.5" stroke-opacity="1" stroke-linejoin="bevel" stroke-miterlimit="10"/><text fill="rgb(68,68,68)" stroke="none" font-family="helvetica" font-size="11px" font-style="normal" font-weight="normal" text-decoration="normal" x="40.88232421875" y="296.3636474609375" text-anchor="start" dominant-baseline="alphabetic" transform="matrix(1, 0, 0, 1, 0.5, 0.5)" fill-opacity="1">0</text><text fill="none" stroke="rgb(0,0,0)" font-family="helvetica" font-size="11px" font-style="normal" font-weight="normal" text-decoration="normal" x="40.88232421875" y="296.3636474609375" text-anchor="start" dominant-baseline="alphabetic" transform="matrix(1, 0, 0, 1, 0.5, 0.5)" stroke-opacity="0" stroke-linejoin="bevel" stroke-miterlimit="10">0</text><text fill="rgb(68,68,68)" stroke="none" font-family="helvetica" font-size="11px" font-style="normal" font-weight="normal" text-decoration="normal" x="25.5908203125" y="235.0020751953125" text-anchor="start" dominant-baseline="alphabetic" transform="matrix(1, 0, 0, 1, 0.5, 0.5)" fill-opacity="1">0.02</text><text fill="none" stroke="rgb(0,0,0)" font-family="helvetica" font-size="11px" font-style="normal" font-weight="normal" text-decoration="normal" x="25.5908203125" y="235.0020751953125" text-anchor="start" dominant-baseline="alphabetic" transform="matrix(1, 0, 0, 1, 0.5, 0.5)" stroke-opacity="0" stroke-linejoin="bevel" stroke-miterlimit="10">0.02</text><text fill="rgb(68,68,68)" stroke="none" font-family="helvetica" font-size="11px" font-style="normal" font-weight="normal" text-decoration="normal" x="25.5908203125" y="173.64053344726562" text-anchor="start" dominant-baseline="alphabetic" transform="matrix(1, 0, 0, 1, 0.5, 0.5)" fill-opacity="1">0.04</text><text fill="none" stroke="rgb(0,0,0)" font-family="helvetica" font-size="11px" font-style="normal" font-weight="normal" text-decoration="normal" x="25.5908203125" y="173.64053344726562" text-anchor="start" dominant-baseline="alphabetic" transform="matrix(1, 0, 0, 1, 0.5, 0.5)" stroke-opacity="0" stroke-linejoin="bevel" stroke-miterlimit="10">0.04</text><text fill="rgb(68,68,68)" stroke="none" font-family="helvetica" font-size="11px" font-style="normal" font-weight="normal" text-decoration="normal" x="25.5908203125" y="112.27897644042969" text-anchor="start" dominant-baseline="alphabetic" transform="matrix(1, 0, 0, 1, 0.5, 0.5)" fill-opacity="1">0.06</text><text fill="none" stroke="rgb(0,0,0)" font-family="helvetica" font-size="11px" font-style="normal" font-weight="normal" text-decoration="normal" x="25.5908203125" y="112.27897644042969" text-anchor="start" dominant-baseline="alphabetic" transform="matrix(1, 0, 0, 1, 0.5, 0.5)" stroke-opacity="0" stroke-linejoin="bevel" stroke-miterlimit="10">0.06</text><text fill="rgb(68,68,68)" stroke="none" font-family="helvetica" font-size="11px" font-style="normal" font-weight="normal" text-decoration="normal" x="25.5908203125" y="50.91741943359375" text-anchor="start" dominant-baseline="alphabetic" transform="matrix(1, 0, 0, 1, 0.5, 0.5)" fill-opacity="1">0.08</text><text fill="none" stroke="rgb(0,0,0)" font-family="helvetica" font-size="11px" font-style="normal" font-weight="normal" text-decoration="normal" x="25.5908203125" y="50.91741943359375" text-anchor="start" dominant-baseline="alphabetic" transform="matrix(1, 0, 0, 1, 0.5, 0.5)" stroke-opacity="0" stroke-linejoin="bevel" stroke-miterlimit="10">0.08</text><text fill="rgb(68,68,68)" stroke="none" font-family="helvetica" font-size="13px" font-style="italic" font-weight="normal" text-decoration="normal" x="-47.4345703125" y="163" text-anchor="start" dominant-baseline="alphabetic" transform="matrix(6.123233995736766e-17, -1, 1, 6.123233995736766e-17, -147.9091796875, 184.0908203125)" fill-opacity="1">Normalised Probability</text><text fill="none" stroke="rgb(0,0,0)" font-family="helvetica" font-size="13px" font-style="italic" font-weight="normal" text-decoration="normal" x="-47.4345703125" y="163" text-anchor="start" dominant-baseline="alphabetic" transform="matrix(6.123233995736766e-17, -1, 1, 6.123233995736766e-17, -147.9091796875, 184.0908203125)" stroke-opacity="0" stroke-linejoin="bevel" stroke-miterlimit="10">Normalised Probability</text><path fill="rgb(255,249,186)" stroke="rgb(255,0,0)" paint-order="fill" d="M 173.376140080254 40.13636363636368 L 173.376140080254 40.13636363636368 L 173.376140080254 292.8636363636364 L 173.376140080254 292.8636363636364 L 173.376140080254 40.13636363636368 Z" fill-opacity="0.4" clip-path="url(#yTLuvZfhLDRV)" stroke-opacity="1" stroke-linejoin="bevel" stroke-miterlimit="10" stroke-width="2" stroke-dasharray="6"/><path fill="rgb(255,249,186)" stroke="rgb(50,205,50)" paint-order="fill" d="M 254.91432913605792 40.13636363636368 L 254.91432913605792 40.13636363636368 L 254.91432913605792 292.8636363636364 L 254.91432913605792 292.8636363636364 L 254.91432913605792 40.13636363636368 Z" fill-opacity="0.4" clip-path="url(#yMMfibNXTFNe)" stroke-opacity="1" stroke-linejoin="bevel" stroke-miterlimit="10" stroke-width="2" stroke-dasharray="6"/><text fill="rgb(68,68,68)" stroke="none" font-family="helvetica" font-size="13px" font-style="normal" font-weight="bold" text-decoration="normal" x="58" y="19" text-anchor="start" dominant-baseline="alphabetic" transform="matrix(1, 0, 0, 1, 0.5, 0.5)" fill-opacity="1">Convergance Probability</text><text fill="none" stroke="rgb(0,0,0)" font-family="helvetica" font-size="13px" font-style="normal" font-weight="bold" text-decoration="normal" x="58" y="19" text-anchor="start" dominant-baseline="alphabetic" transform="matrix(1, 0, 0, 1, 0.5, 0.5)" stroke-opacity="0" stroke-miterlimit="10" stroke-dasharray="">Convergance Probability</text></svg>