<svg version="1.1" xmlns="http://www.w3.org/2000/svg" width="275" height="275"><defs><clipPath id="JgpNtdqMflyg"><path fill="none" stroke="none" d="M 52.5 27.5 L 245.5 27.5 L 245.5 230.5 L 52.5 230.5 L 52.5 27.5 Z"/></clipPath><clipPath id="sDnfqZLCdSRu"><path fill="none" stroke="none" d="M 52.5 27.5 L 245.5 27.5 L 245.5 230.5 L 52.5 230.5 L 52.5 27.5 Z"/></clipPath><clipPath id="WvWMOMutVlVb"><path fill="none" stroke="none" d="M 52.5 27.5 L 245.5 27.5 L 245.5 230.5 L 52.5 230.5 L 52.5 27.5 Z"/></clipPath><clipPath id="ptNNWpTtllZd"><path fill="none" stroke="none" d="M 52.5 27.5 L 245.5 27.5 L 245.5 230.5 L 52.5 230.5 L 52.5 27.5 Z"/></clipPath><pattern id="CEOsrsmTQcPF" width="3" height="3" patternUnits="userSpaceOnUse"><path fill="rgb(0,0,0)" stroke="none" paint-order="stroke" d="M 2.75 2 A 0.75 0.75 0 0 0 1.25 2 A 0.75 0.75 0 0 0 2.75 2" fill-opacity="0.14901960784313725"/></pattern><clipPath id="PVceMVkqeroa"><path fill="none" stroke="none" d="M 52.5 27.5 L 245.5 27.5 L 245.5 230.5 L 52.5 230.5 L 52.5 27.5 Z"/></clipPath><clipPath id="ZzoXzrXnIXIl"><path fill="none" stroke="none" d="M 52.5 27.5 L 245.5 27.5 L 245.5 230.5 L 52.5 230.5 L 52.5 27.5 Z"/></clipPath><clipPath id="gKwmnsnvzPtp"><path fill="none" stroke="none" d="M 52.5 27.5 L 245.5 27.5 L 245.5 230.5 L 52.5 230.5 L 52.5 27.5 Z"/></clipPath><clipPath id="HAOdZTCgyoJX"><path fill="none" stroke="none" d="M 52.5 27.5 L 245.5 27.5 L 245.5 230.5 L 52.5 230.5 L 52.5 27.5 Z"/></clipPath></defs><path fill="rgb(255,255,255)" stroke="none" paint-order="stroke" d="M 0.5 0.5 L 275.5 0.5 L 275.5 275.5 L 0.5 275.5 L 0.5 0.5 Z" fill-opacity="1"/><rect fill="#FFFFFF" stroke="none" x="52" y="27" width="193" height="203" transform="matrix(1, 0, 0, 1, 0.5, 0.5)"/><path fill="rgb(255,255,255)" stroke="none" paint-order="stroke" d="M 52.5 27.5 L 245.5 27.5 L 245.5 230.5 L 52.5 230.5 L 52.5 27.5 Z" fill-opacity="1"/><path fill="none" stroke="rgb(229,229,229)" paint-order="fill" d="M 52.5 27.5 L 245.5 27.5 L 245.5 230.5 L 52.5 230.5 L 52.5 27.5 Z" stroke-opacity="1" stroke-linejoin="bevel" stroke-miterlimit="10"/><path fill="none" stroke="rgb(229,229,229)" paint-order="fill" d="M 85.5 230.5 L 85.5 27.5 M 126.5 230.5 L 126.5 27.5 M 168.5 230.5 L 168.5 27.5 M 209.5 230.5 L 209.5 27.5" stroke-opacity="1" stroke-linejoin="bevel" stroke-miterlimit="10" clip-path="url(#JgpNtdqMflyg)"/><path fill="none" stroke="rgb(229,229,229)" paint-order="fill" d="M 52.5 221.5 L 245.5 221.5 M 52.5 191.5 L 245.5 191.5 M 52.5 162.5 L 245.5 162.5 M 52.5 133.5 L 245.5 133.5 M 52.5 103.5 L 245.5 103.5 M 52.5 74.5 L 245.5 74.5 M 52.5 45.5 L 245.5 45.5" stroke-opacity="1" stroke-linejoin="bevel" stroke-miterlimit="10" clip-path="url(#sDnfqZLCdSRu)"/><path fill="none" stroke="rgb(0,0,0)" paint-order="fill" d="M 147.94386291503906 32.02428436279297 L 147.94386291503906 41.43026351928711" stroke-opacity="1" stroke-linejoin="bevel" stroke-miterlimit="10" clip-path="url(#WvWMOMutVlVb)"/><path fill="none" stroke="rgb(0,0,0)" paint-order="fill" d="M 142.94386291503906 32.02428436279297 L 152.94386291503906 32.02428436279297" stroke-opacity="1" stroke-linejoin="bevel" stroke-miterlimit="10" clip-path="url(#WvWMOMutVlVb)"/><path fill="none" stroke="rgb(0,0,0)" paint-order="fill" d="M 152.94386291503906 41.43026351928711 L 142.94386291503906 41.43026351928711" stroke-opacity="1" stroke-linejoin="bevel" stroke-miterlimit="10" clip-path="url(#WvWMOMutVlVb)"/><path fill="rgb(128,128,128)" stroke="none" paint-order="stroke" d="M 126.82100677490234 36.727272033691406 L 169.06671142578125 36.727272033691406 L 169.06671142578125 221.27273559570312 L 126.82100677490234 221.27273559570312 L 126.82100677490234 36.727272033691406 Z" fill-opacity="0.10196078431372549" clip-path="url(#ptNNWpTtllZd)"/><path fill="url(#CEOsrsmTQcPF)" stroke="rgb(0,0,0)" paint-order="fill" d="M 126.82100677490234 36.727272033691406 L 169.06671142578125 36.727272033691406 L 169.06671142578125 221.27273559570312 L 126.82100677490234 221.27273559570312 L 126.82100677490234 36.727272033691406 Z" clip-path="url(#ptNNWpTtllZd)" stroke-opacity="0.2" stroke-linejoin="bevel" stroke-miterlimit="10"/><path fill="rgb(100,149,237)" stroke="rgb(31,119,180)" paint-order="fill" d="M 126.82101440429688 36.727272033691406 L 169.06671142578125 36.727272033691406 L 169.06671142578125 221.27272033691406 L 126.82101440429688 221.27272033691406 L 126.82101440429688 36.727272033691406 Z" fill-opacity="0.5019607843137255" clip-path="url(#PVceMVkqeroa)" stroke-opacity="0.5019607843137255" stroke-linejoin="bevel" stroke-miterlimit="10"/><path fill="none" stroke="rgb(0,0,0)" paint-order="fill" d="M 52.5 230.5 L 245.5 230.5" stroke-opacity="1" stroke-linejoin="bevel" stroke-miterlimit="10"/><path fill="none" stroke="rgb(0,0,0)" paint-order="fill" d="M 85.5 236.5 L 85.5 228.5 M 126.5 236.5 L 126.5 228.5 M 168.5 236.5 L 168.5 228.5 M 209.5 236.5 L 209.5 228.5" stroke-opacity="1" stroke-linejoin="bevel" stroke-miterlimit="10"/><path fill="none" stroke="rgb(0,0,0)" paint-order="fill" d="M 77.5 234.5 L 77.5 230.5 M 68.5 234.5 L 68.5 230.5 M 60.5 234.5 L 60.5 230.5 M 85.5 234.5 L 85.5 230.5 M 93.5 234.5 L 93.5 230.5 M 101.5 234.5 L 101.5 230.5 M 110.5 234.5 L 110.5 230.5 M 118.5 234.5 L 118.5 230.5 M 126.5 234.5 L 126.5 230.5 M 135.5 234.5 L 135.5 230.5 M 143.5 234.5 L 143.5 230.5 M 151.5 234.5 L 151.5 230.5 M 159.5 234.5 L 159.5 230.5 M 168.5 234.5 L 168.5 230.5 M 176.5 234.5 L 176.5 230.5 M 184.5 234.5 L 184.5 230.5 M 192.5 234.5 L 192.5 230.5 M 201.5 234.5 L 201.5 230.5 M 209.5 234.5 L 209.5 230.5 M 217.5 234.5 L 217.5 230.5 M 225.5 234.5 L 225.5 230.5 M 234.5 234.5 L 234.5 230.5 M 242.5 234.5 L 242.5 230.5" stroke-opacity="1" stroke-linejoin="bevel" stroke-miterlimit="10"/><text fill="rgb(68,68,68)" stroke="none" font-family="helvetica" font-size="11px" font-style="normal" font-weight="normal" text-decoration="normal" x="74.2623062133789" y="249" text-anchor="start" dominant-baseline="alphabetic" transform="matrix(1, 0, 0, 1, 0.5, 0.5)" fill-opacity="1">0.07</text><text fill="none" stroke="rgb(0,0,0)" font-family="helvetica" font-size="11px" font-style="normal" font-weight="normal" text-decoration="normal" x="74.2623062133789" y="249" text-anchor="start" dominant-baseline="alphabetic" transform="matrix(1, 0, 0, 1, 0.5, 0.5)" stroke-opacity="0" stroke-linejoin="bevel" stroke-miterlimit="10">0.07</text><text fill="rgb(68,68,68)" stroke="none" font-family="helvetica" font-size="11px" font-style="normal" font-weight="normal" text-decoration="normal" x="112.4910659790039" y="249" text-anchor="start" dominant-baseline="alphabetic" transform="matrix(1, 0, 0, 1, 0.5, 0.5)" fill-opacity="1">0.072</text><text fill="none" stroke="rgb(0,0,0)" font-family="helvetica" font-size="11px" font-style="normal" font-weight="normal" text-decoration="normal" x="112.4910659790039" y="249" text-anchor="start" dominant-baseline="alphabetic" transform="matrix(1, 0, 0, 1, 0.5, 0.5)" stroke-opacity="0" stroke-linejoin="bevel" stroke-miterlimit="10">0.072</text><text fill="rgb(68,68,68)" stroke="none" font-family="helvetica" font-size="11px" font-style="normal" font-weight="normal" text-decoration="normal" x="153.77867126464844" y="249" text-anchor="start" dominant-baseline="alphabetic" transform="matrix(1, 0, 0, 1, 0.5, 0.5)" fill-opacity="1">0.074</text><text fill="none" stroke="rgb(0,0,0)" font-family="helvetica" font-size="11px" font-style="normal" font-weight="normal" text-decoration="normal" x="153.77867126464844" y="249" text-anchor="start" dominant-baseline="alphabetic" transform="matrix(1, 0, 0, 1, 0.5, 0.5)" stroke-opacity="0" stroke-linejoin="bevel" stroke-miterlimit="10">0.074</text><text fill="rgb(68,68,68)" stroke="none" font-family="helvetica" font-size="11px" font-style="normal" font-weight="normal" text-decoration="normal" x="195.06626892089844" y="249" text-anchor="start" dominant-baseline="alphabetic" transform="matrix(1, 0, 0, 1, 0.5, 0.5)" fill-opacity="1">0.076</text><text fill="none" stroke="rgb(0,0,0)" font-family="helvetica" font-size="11px" font-style="normal" font-weight="normal" text-decoration="normal" x="195.06626892089844" y="249" text-anchor="start" dominant-baseline="alphabetic" transform="matrix(1, 0, 0, 1, 0.5, 0.5)" stroke-opacity="0" stroke-linejoin="bevel" stroke-miterlimit="10">0.076</text><text fill="rgb(68,68,68)" stroke="none" font-family="helvetica" font-size="13px" font-style="italic" font-weight="normal" text-decoration="normal" x="47.70556640625" y="269" text-anchor="start" dominant-baseline="alphabetic" transform="matrix(1, 0, 0, 1, 0.5, 0.5)" fill-opacity="1">Thermal alpha/electron density (%)</text><text fill="none" stroke="rgb(0,0,0)" font-family="helvetica" font-size="13px" font-style="italic" font-weight="normal" text-decoration="normal" x="47.70556640625" y="269" text-anchor="start" dominant-baseline="alphabetic" transform="matrix(1, 0, 0, 1, 0.5, 0.5)" stroke-opacity="0" stroke-linejoin="bevel" stroke-miterlimit="10">Thermal alpha/electron density (%)</text><path fill="none" stroke="rgb(0,0,0)" paint-order="fill" d="M 52.5 230.5 L 52.5 27.5" stroke-opacity="1" stroke-linejoin="bevel" stroke-miterlimit="10"/><path fill="none" stroke="rgb(0,0,0)" paint-order="fill" d="M 46.5 221.5 L 54.5 221.5 M 46.5 191.5 L 54.5 191.5 M 46.5 162.5 L 54.5 162.5 M 46.5 133.5 L 54.5 133.5 M 46.5 103.5 L 54.5 103.5 M 46.5 74.5 L 54.5 74.5 M 46.5 45.5 L 54.5 45.5" stroke-opacity="1" stroke-linejoin="bevel" stroke-miterlimit="10"/><path fill="none" stroke="rgb(0,0,0)" paint-order="fill" d="M 48.5 227.5 L 52.5 227.5 M 48.5 221.5 L 52.5 221.5 M 48.5 215.5 L 52.5 215.5 M 48.5 209.5 L 52.5 209.5 M 48.5 203.5 L 52.5 203.5 M 48.5 197.5 L 52.5 197.5 M 48.5 191.5 L 52.5 191.5 M 48.5 186.5 L 52.5 186.5 M 48.5 180.5 L 52.5 180.5 M 48.5 174.5 L 52.5 174.5 M 48.5 168.5 L 52.5 168.5 M 48.5 162.5 L 52.5 162.5 M 48.5 156.5 L 52.5 156.5 M 48.5 150.5 L 52.5 150.5 M 48.5 145.5 L 52.5 145.5 M 48.5 139.5 L 52.5 139.5 M 48.5 133.5 L 52.5 133.5 M 48.5 127.5 L 52.5 127.5 M 48.5 121.5 L 52.5 121.5 M 48.5 115.5 L 52.5 115.5 M 48.5 109.5 L 52.5 109.5 M 48.5 103.5 L 52.5 103.5 M 48.5 98.5 L 52.5 98.5 M 48.5 92.5 L 52.5 92.5 M 48.5 86.5 L 52.5 86.5 M 48.5 80.5 L 52.5 80.5 M 48.5 74.5 L 52.5 74.5 M 48.5 68.5 L 52.5 68.5 M 48.5 62.5 L 52.5 62.5 M 48.5 57.5 L 52.5 57.5 M 48.5 51.5 L 52.5 51.5 M 48.5 45.5 L 52.5 45.5 M 48.5 39.5 L 52.5 39.5 M 48.5 33.5 L 52.5 33.5 M 48.5 27.5 L 52.5 27.5" stroke-opacity="1" stroke-linejoin="bevel" stroke-miterlimit="10"/><text fill="rgb(68,68,68)" stroke="none" font-family="helvetica" font-size="11px" font-style="normal" font-weight="normal" text-decoration="normal" x="34.88232421875" y="224.77272033691406" text-anchor="start" dominant-baseline="alphabetic" transform="matrix(1, 0, 0, 1, 0.5, 0.5)" fill-opacity="1">0</text><text fill="none" stroke="rgb(0,0,0)" font-family="helvetica" font-size="11px" font-style="normal" font-weight="normal" text-decoration="normal" x="34.88232421875" y="224.77272033691406" text-anchor="start" dominant-baseline="alphabetic" transform="matrix(1, 0, 0, 1, 0.5, 0.5)" stroke-opacity="0" stroke-linejoin="bevel" stroke-miterlimit="10">0</text><text fill="rgb(68,68,68)" stroke="none" font-family="helvetica" font-size="11px" font-style="normal" font-weight="normal" text-decoration="normal" x="25.70849609375" y="195.454345703125" text-anchor="start" dominant-baseline="alphabetic" transform="matrix(1, 0, 0, 1, 0.5, 0.5)" fill-opacity="1">0.1</text><text fill="none" stroke="rgb(0,0,0)" font-family="helvetica" font-size="11px" font-style="normal" font-weight="normal" text-decoration="normal" x="25.70849609375" y="195.454345703125" text-anchor="start" dominant-baseline="alphabetic" transform="matrix(1, 0, 0, 1, 0.5, 0.5)" stroke-opacity="0" stroke-linejoin="bevel" stroke-miterlimit="10">0.1</text><text fill="rgb(68,68,68)" stroke="none" font-family="helvetica" font-size="11px" font-style="normal" font-weight="normal" text-decoration="normal" x="25.70849609375" y="166.13597106933594" text-anchor="start" dominant-baseline="alphabetic" transform="matrix(1, 0, 0, 1, 0.5, 0.5)" fill-opacity="1">0.2</text><text fill="none" stroke="rgb(0,0,0)" font-family="helvetica" font-size="11px" font-style="normal" font-weight="normal" text-decoration="normal" x="25.70849609375" y="166.13597106933594" text-anchor="start" dominant-baseline="alphabetic" transform="matrix(1, 0, 0, 1, 0.5, 0.5)" stroke-opacity="0" stroke-linejoin="bevel" stroke-miterlimit="10">0.2</text><text fill="rgb(68,68,68)" stroke="none" font-family="helvetica" font-size="11px" font-style="normal" font-weight="normal" text-decoration="normal" x="25.70849609375" y="136.8175811767578" text-anchor="start" dominant-baseline="alphabetic" transform="matrix(1, 0, 0, 1, 0.5, 0.5)" fill-opacity="1">0.3</text><text fill="none" stroke="rgb(0,0,0)" font-family="helvetica" font-size="11px" font-style="normal" font-weight="normal" text-decoration="normal" x="25.70849609375" y="136.8175811767578" text-anchor="start" dominant-baseline="alphabetic" transform="matrix(1, 0, 0, 1, 0.5, 0.5)" stroke-opacity="0" stroke-linejoin="bevel" stroke-miterlimit="10">0.3</text><text fill="rgb(68,68,68)" stroke="none" font-family="helvetica" font-size="11px" font-style="normal" font-weight="normal" text-decoration="normal" x="25.70849609375" y="107.49920654296875" text-anchor="start" dominant-baseline="alphabetic" transform="matrix(1, 0, 0, 1, 0.5, 0.5)" fill-opacity="1">0.4</text><text fill="none" stroke="rgb(0,0,0)" font-family="helvetica" font-size="11px" font-style="normal" font-weight="normal" text-decoration="normal" x="25.70849609375" y="107.49920654296875" text-anchor="start" dominant-baseline="alphabetic" transform="matrix(1, 0, 0, 1, 0.5, 0.5)" stroke-opacity="0" stroke-linejoin="bevel" stroke-miterlimit="10">0.4</text><text fill="rgb(68,68,68)" stroke="none" font-family="helvetica" font-size="11px" font-style="normal" font-weight="normal" text-decoration="normal" x="25.70849609375" y="78.18082427978516" text-anchor="start" dominant-baseline="alphabetic" transform="matrix(1, 0, 0, 1, 0.5, 0.5)" fill-opacity="1">0.5</text><text fill="none" stroke="rgb(0,0,0)" font-family="helvetica" font-size="11px" font-style="normal" font-weight="normal" text-decoration="normal" x="25.70849609375" y="78.18082427978516" text-anchor="start" dominant-baseline="alphabetic" transform="matrix(1, 0, 0, 1, 0.5, 0.5)" stroke-opacity="0" stroke-linejoin="bevel" stroke-miterlimit="10">0.5</text><text fill="rgb(68,68,68)" stroke="none" font-family="helvetica" font-size="11px" font-style="normal" font-weight="normal" text-decoration="normal" x="25.70849609375" y="48.86244201660156" text-anchor="start" dominant-baseline="alphabetic" transform="matrix(1, 0, 0, 1, 0.5, 0.5)" fill-opacity="1">0.6</text><text fill="none" stroke="rgb(0,0,0)" font-family="helvetica" font-size="11px" font-style="normal" font-weight="normal" text-decoration="normal" x="25.70849609375" y="48.86244201660156" text-anchor="start" dominant-baseline="alphabetic" transform="matrix(1, 0, 0, 1, 0.5, 0.5)" stroke-opacity="0" stroke-linejoin="bevel" stroke-miterlimit="10">0.6</text><text fill="rgb(68,68,68)" stroke="none" font-family="helvetica" font-size="13px" font-style="italic" font-weight="normal" text-decoration="normal" x="-15.175537109375" y="125.5" text-anchor="start" dominant-baseline="alphabetic" transform="matrix(6.123233995736766e-17, -1, 1, 6.123233995736766e-17, -110.29150390625, 146.70849609375)" fill-opacity="1">Confidence</text><text fill="none" stroke="rgb(0,0,0)" font-family="helvetica" font-size="13px" font-style="italic" font-weight="normal" text-decoration="normal" x="-15.175537109375" y="125.5" text-anchor="start" dominant-baseline="alphabetic" transform="matrix(6.123233995736766e-17, -1, 1, 6.123233995736766e-17, -110.29150390625, 146.70849609375)" stroke-opacity="0" stroke-linejoin="bevel" stroke-miterlimit="10">Confidence</text><path fill="rgb(255,249,186)" stroke="rgb(255,0,0)" paint-order="fill" d="M 148.70200568775613 36.72727272727275 L 148.70200568775613 36.72727272727275 L 148.70200568775613 221.27272727272728 L 148.70200568775613 221.27272727272728 L 148.70200568775613 36.72727272727275 Z" fill-opacity="0.4" clip-path="url(#ZzoXzrXnIXIl)" stroke-opacity="1" stroke-linejoin="bevel" stroke-miterlimit="10" stroke-width="2" stroke-dasharray="6"/><path fill="rgb(255,249,186)" stroke="rgb(50,205,50)" paint-order="fill" d="M 147.94385735202536 36.72727272727275 L 147.94385735202536 36.72727272727275 L 147.94385735202536 221.27272727272728 L 147.94385735202536 221.27272727272728 L 147.94385735202536 36.72727272727275 Z" fill-opacity="0.4" clip-path="url(#gKwmnsnvzPtp)" stroke-opacity="1" stroke-linejoin="bevel" stroke-miterlimit="10" stroke-width="2" stroke-dasharray="6"/><text fill="rgb(68,68,68)" stroke="none" font-family="helvetica" font-size="13px" font-style="normal" font-weight="bold" text-decoration="normal" x="52" y="19" text-anchor="start" dominant-baseline="alphabetic" transform="matrix(1, 0, 0, 1, 0.5, 0.5)" fill-opacity="1">Convergance Probability</text><text fill="none" stroke="rgb(0,0,0)" font-family="helvetica" font-size="13px" font-style="normal" font-weight="bold" text-decoration="normal" x="52" y="19" text-anchor="start" dominant-baseline="alphabetic" transform="matrix(1, 0, 0, 1, 0.5, 0.5)" stroke-opacity="0" stroke-miterlimit="10" stroke-dasharray="">Convergance Probability</text></svg>