<svg version="1.1" xmlns="http://www.w3.org/2000/svg" width="275" height="275"><defs><clipPath id="RHMsRqqVINVT"><path fill="none" stroke="none" d="M 52.5 27.5 L 245.5 27.5 L 245.5 230.5 L 52.5 230.5 L 52.5 27.5 Z"/></clipPath><clipPath id="TxrERkVsbVcS"><path fill="none" stroke="none" d="M 52.5 27.5 L 245.5 27.5 L 245.5 230.5 L 52.5 230.5 L 52.5 27.5 Z"/></clipPath><clipPath id="aaNsAMDiKdZi"><path fill="none" stroke="none" d="M 52.5 27.5 L 245.5 27.5 L 245.5 230.5 L 52.5 230.5 L 52.5 27.5 Z"/></clipPath><clipPath id="nBLUzUsBduGh"><path fill="none" stroke="none" d="M 52.5 27.5 L 245.5 27.5 L 245.5 230.5 L 52.5 230.5 L 52.5 27.5 Z"/></clipPath><pattern id="EFWWJCfbTziQ" width="3" height="3" patternUnits="userSpaceOnUse"><path fill="rgb(0,0,0)" stroke="none" paint-order="stroke" d="M 2.75 2 A 0.75 0.75 0 0 0 1.25 2 A 0.75 0.75 0 0 0 2.75 2" fill-opacity="0.14901960784313725"/></pattern><clipPath id="EkJVUsDgnphT"><path fill="none" stroke="none" d="M 52.5 27.5 L 245.5 27.5 L 245.5 230.5 L 52.5 230.5 L 52.5 27.5 Z"/></clipPath><clipPath id="lFsetEBKwXlT"><path fill="none" stroke="none" d="M 52.5 27.5 L 245.5 27.5 L 245.5 230.5 L 52.5 230.5 L 52.5 27.5 Z"/></clipPath><clipPath id="LcdOGIZavGIq"><path fill="none" stroke="none" d="M 52.5 27.5 L 245.5 27.5 L 245.5 230.5 L 52.5 230.5 L 52.5 27.5 Z"/></clipPath><clipPath id="hvbZpEuxHkCT"><path fill="none" stroke="none" d="M 52.5 27.5 L 245.5 27.5 L 245.5 230.5 L 52.5 230.5 L 52.5 27.5 Z"/></clipPath></defs><path fill="rgb(255,255,255)" stroke="none" paint-order="stroke" d="M 0.5 0.5 L 275.5 0.5 L 275.5 275.5 L 0.5 275.5 L 0.5 0.5 Z" fill-opacity="1"/><rect fill="#FFFFFF" stroke="none" x="52" y="27" width="193" height="203" transform="matrix(1, 0, 0, 1, 0.5, 0.5)"/><path fill="rgb(255,255,255)" stroke="none" paint-order="stroke" d="M 52.5 27.5 L 245.5 27.5 L 245.5 230.5 L 52.5 230.5 L 52.5 27.5 Z" fill-opacity="1"/><path fill="none" stroke="rgb(229,229,229)" paint-order="fill" d="M 52.5 27.5 L 245.5 27.5 L 245.5 230.5 L 52.5 230.5 L 52.5 27.5 Z" stroke-opacity="1" stroke-linejoin="bevel" stroke-miterlimit="10"/><path fill="none" stroke="rgb(229,229,229)" paint-order="fill" d="M 79.5 230.5 L 79.5 27.5 M 112.5 230.5 L 112.5 27.5 M 146.5 230.5 L 146.5 27.5 M 180.5 230.5 L 180.5 27.5 M 213.5 230.5 L 213.5 27.5" stroke-opacity="1" stroke-linejoin="bevel" stroke-miterlimit="10" clip-path="url(#RHMsRqqVINVT)"/><path fill="none" stroke="rgb(229,229,229)" paint-order="fill" d="M 52.5 221.5 L 245.5 221.5 M 52.5 183.5 L 245.5 183.5 M 52.5 145.5 L 245.5 145.5 M 52.5 108.5 L 245.5 108.5 M 52.5 70.5 L 245.5 70.5 M 52.5 32.5 L 245.5 32.5" stroke-opacity="1" stroke-linejoin="bevel" stroke-miterlimit="10" clip-path="url(#TxrERkVsbVcS)"/><path fill="none" stroke="rgb(0,0,0)" paint-order="fill" d="M 124.57007598876953 32.592262268066406 L 124.57007598876953 49.774715423583984" stroke-opacity="1" stroke-linejoin="bevel" stroke-miterlimit="10" clip-path="url(#aaNsAMDiKdZi)"/><path fill="none" stroke="rgb(0,0,0)" paint-order="fill" d="M 147.29559326171875 32.27524757385254 L 147.29559326171875 49.29778289794922" stroke-opacity="1" stroke-linejoin="bevel" stroke-miterlimit="10" clip-path="url(#aaNsAMDiKdZi)"/><path fill="none" stroke="rgb(0,0,0)" paint-order="fill" d="M 170.02110290527344 29.05367660522461 L 170.02110290527344 44.4008674621582" stroke-opacity="1" stroke-linejoin="bevel" stroke-miterlimit="10" clip-path="url(#aaNsAMDiKdZi)"/><path fill="none" stroke="rgb(0,0,0)" paint-order="fill" d="M 119.57007598876953 32.592262268066406 L 129.57007598876953 32.592262268066406" stroke-opacity="1" stroke-linejoin="bevel" stroke-miterlimit="10" clip-path="url(#aaNsAMDiKdZi)"/><path fill="none" stroke="rgb(0,0,0)" paint-order="fill" d="M 142.29559326171875 32.27524757385254 L 152.29559326171875 32.27524757385254" stroke-opacity="1" stroke-linejoin="bevel" stroke-miterlimit="10" clip-path="url(#aaNsAMDiKdZi)"/><path fill="none" stroke="rgb(0,0,0)" paint-order="fill" d="M 165.02110290527344 29.05367660522461 L 175.02110290527344 29.05367660522461" stroke-opacity="1" stroke-linejoin="bevel" stroke-miterlimit="10" clip-path="url(#aaNsAMDiKdZi)"/><path fill="none" stroke="rgb(0,0,0)" paint-order="fill" d="M 129.57007598876953 49.774715423583984 L 119.57007598876953 49.774715423583984" stroke-opacity="1" stroke-linejoin="bevel" stroke-miterlimit="10" clip-path="url(#aaNsAMDiKdZi)"/><path fill="none" stroke="rgb(0,0,0)" paint-order="fill" d="M 152.29559326171875 49.29778289794922 L 142.29559326171875 49.29778289794922" stroke-opacity="1" stroke-linejoin="bevel" stroke-miterlimit="10" clip-path="url(#aaNsAMDiKdZi)"/><path fill="none" stroke="rgb(0,0,0)" paint-order="fill" d="M 175.02110290527344 44.4008674621582 L 165.02110290527344 44.4008674621582" stroke-opacity="1" stroke-linejoin="bevel" stroke-miterlimit="10" clip-path="url(#aaNsAMDiKdZi)"/><path fill="rgb(128,128,128)" stroke="none" paint-order="stroke" d="M 113.20732116699219 36.727272033691406 L 181.38385009765625 36.727272033691406 L 181.38385009765625 221.27273559570312 L 113.20732116699219 221.27273559570312 L 113.20732116699219 36.727272033691406 Z" fill-opacity="0.10196078431372549" clip-path="url(#nBLUzUsBduGh)"/><path fill="url(#EFWWJCfbTziQ)" stroke="rgb(0,0,0)" paint-order="fill" d="M 113.20732116699219 36.727272033691406 L 181.38385009765625 36.727272033691406 L 181.38385009765625 221.27273559570312 L 113.20732116699219 221.27273559570312 L 113.20732116699219 36.727272033691406 Z" clip-path="url(#nBLUzUsBduGh)" stroke-opacity="0.2" stroke-linejoin="bevel" stroke-miterlimit="10"/><path fill="rgb(100,149,237)" stroke="rgb(31,119,180)" paint-order="fill" d="M 113.20732116699219 41.18348693847656 L 135.93283081054688 41.18348693847656 L 135.93283081054688 221.27272033691406 L 113.20732116699219 221.27272033691406 L 113.20732116699219 41.18348693847656 Z" fill-opacity="0.5019607843137255" clip-path="url(#EkJVUsDgnphT)" stroke-opacity="0.5019607843137255" stroke-linejoin="bevel" stroke-miterlimit="10"/><path fill="rgb(100,149,237)" stroke="rgb(31,119,180)" paint-order="fill" d="M 135.93284606933594 40.78651428222656 L 158.65834045410156 40.78651428222656 L 158.65834045410156 221.27272033691406 L 135.93284606933594 221.27272033691406 L 135.93284606933594 40.78651428222656 Z" fill-opacity="0.5019607843137255" clip-path="url(#EkJVUsDgnphT)" stroke-opacity="0.5019607843137255" stroke-linejoin="bevel" stroke-miterlimit="10"/><path fill="rgb(100,149,237)" stroke="rgb(31,119,180)" paint-order="fill" d="M 158.65835571289062 36.727272033691406 L 181.38385009765625 36.727272033691406 L 181.38385009765625 221.27272033691406 L 158.65835571289062 221.27272033691406 L 158.65835571289062 36.727272033691406 Z" fill-opacity="0.5019607843137255" clip-path="url(#EkJVUsDgnphT)" stroke-opacity="0.5019607843137255" stroke-linejoin="bevel" stroke-miterlimit="10"/><path fill="none" stroke="rgb(0,0,0)" paint-order="fill" d="M 52.5 230.5 L 245.5 230.5" stroke-opacity="1" stroke-linejoin="bevel" stroke-miterlimit="10"/><path fill="none" stroke="rgb(0,0,0)" paint-order="fill" d="M 79.5 236.5 L 79.5 228.5 M 112.5 236.5 L 112.5 228.5 M 146.5 236.5 L 146.5 228.5 M 180.5 236.5 L 180.5 228.5 M 213.5 236.5 L 213.5 228.5" stroke-opacity="1" stroke-linejoin="bevel" stroke-miterlimit="10"/><path fill="none" stroke="rgb(0,0,0)" paint-order="fill" d="M 72.5 234.5 L 72.5 230.5 M 65.5 234.5 L 65.5 230.5 M 58.5 234.5 L 58.5 230.5 M 79.5 234.5 L 79.5 230.5 M 85.5 234.5 L 85.5 230.5 M 92.5 234.5 L 92.5 230.5 M 99.5 234.5 L 99.5 230.5 M 106.5 234.5 L 106.5 230.5 M 112.5 234.5 L 112.5 230.5 M 119.5 234.5 L 119.5 230.5 M 126.5 234.5 L 126.5 230.5 M 133.5 234.5 L 133.5 230.5 M 139.5 234.5 L 139.5 230.5 M 146.5 234.5 L 146.5 230.5 M 153.5 234.5 L 153.5 230.5 M 159.5 234.5 L 159.5 230.5 M 166.5 234.5 L 166.5 230.5 M 173.5 234.5 L 173.5 230.5 M 180.5 234.5 L 180.5 230.5 M 186.5 234.5 L 186.5 230.5 M 193.5 234.5 L 193.5 230.5 M 200.5 234.5 L 200.5 230.5 M 207.5 234.5 L 207.5 230.5 M 213.5 234.5 L 213.5 230.5 M 220.5 234.5 L 220.5 230.5 M 227.5 234.5 L 227.5 230.5 M 234.5 234.5 L 234.5 230.5 M 240.5 234.5 L 240.5 230.5" stroke-opacity="1" stroke-linejoin="bevel" stroke-miterlimit="10"/><text fill="rgb(68,68,68)" stroke="none" font-family="helvetica" font-size="11px" font-style="normal" font-weight="normal" text-decoration="normal" x="67.8694076538086" y="249" text-anchor="start" dominant-baseline="alphabetic" transform="matrix(1, 0, 0, 1, 0.5, 0.5)" fill-opacity="1">0.07</text><text fill="none" stroke="rgb(0,0,0)" font-family="helvetica" font-size="11px" font-style="normal" font-weight="normal" text-decoration="normal" x="67.8694076538086" y="249" text-anchor="start" dominant-baseline="alphabetic" transform="matrix(1, 0, 0, 1, 0.5, 0.5)" stroke-opacity="0" stroke-linejoin="bevel" stroke-miterlimit="10">0.07</text><text fill="rgb(68,68,68)" stroke="none" font-family="helvetica" font-size="11px" font-style="normal" font-weight="normal" text-decoration="normal" x="98.52523040771484" y="249" text-anchor="start" dominant-baseline="alphabetic" transform="matrix(1, 0, 0, 1, 0.5, 0.5)" fill-opacity="1">0.072</text><text fill="none" stroke="rgb(0,0,0)" font-family="helvetica" font-size="11px" font-style="normal" font-weight="normal" text-decoration="normal" x="98.52523040771484" y="249" text-anchor="start" dominant-baseline="alphabetic" transform="matrix(1, 0, 0, 1, 0.5, 0.5)" stroke-opacity="0" stroke-linejoin="bevel" stroke-miterlimit="10">0.072</text><text fill="rgb(68,68,68)" stroke="none" font-family="helvetica" font-size="11px" font-style="normal" font-weight="normal" text-decoration="normal" x="132.23988342285156" y="249" text-anchor="start" dominant-baseline="alphabetic" transform="matrix(1, 0, 0, 1, 0.5, 0.5)" fill-opacity="1">0.074</text><text fill="none" stroke="rgb(0,0,0)" font-family="helvetica" font-size="11px" font-style="normal" font-weight="normal" text-decoration="normal" x="132.23988342285156" y="249" text-anchor="start" dominant-baseline="alphabetic" transform="matrix(1, 0, 0, 1, 0.5, 0.5)" stroke-opacity="0" stroke-linejoin="bevel" stroke-miterlimit="10">0.074</text><text fill="rgb(68,68,68)" stroke="none" font-family="helvetica" font-size="11px" font-style="normal" font-weight="normal" text-decoration="normal" x="165.95455932617188" y="249" text-anchor="start" dominant-baseline="alphabetic" transform="matrix(1, 0, 0, 1, 0.5, 0.5)" fill-opacity="1">0.076</text><text fill="none" stroke="rgb(0,0,0)" font-family="helvetica" font-size="11px" font-style="normal" font-weight="normal" text-decoration="normal" x="165.95455932617188" y="249" text-anchor="start" dominant-baseline="alphabetic" transform="matrix(1, 0, 0, 1, 0.5, 0.5)" stroke-opacity="0" stroke-linejoin="bevel" stroke-miterlimit="10">0.076</text><text fill="rgb(68,68,68)" stroke="none" font-family="helvetica" font-size="11px" font-style="normal" font-weight="normal" text-decoration="normal" x="199.66921997070312" y="249" text-anchor="start" dominant-baseline="alphabetic" transform="matrix(1, 0, 0, 1, 0.5, 0.5)" fill-opacity="1">0.078</text><text fill="none" stroke="rgb(0,0,0)" font-family="helvetica" font-size="11px" font-style="normal" font-weight="normal" text-decoration="normal" x="199.66921997070312" y="249" text-anchor="start" dominant-baseline="alphabetic" transform="matrix(1, 0, 0, 1, 0.5, 0.5)" stroke-opacity="0" stroke-linejoin="bevel" stroke-miterlimit="10">0.078</text><text fill="rgb(68,68,68)" stroke="none" font-family="helvetica" font-size="13px" font-style="italic" font-weight="normal" text-decoration="normal" x="47.70556640625" y="269" text-anchor="start" dominant-baseline="alphabetic" transform="matrix(1, 0, 0, 1, 0.5, 0.5)" fill-opacity="1">Thermal alpha/electron density (%)</text><text fill="none" stroke="rgb(0,0,0)" font-family="helvetica" font-size="13px" font-style="italic" font-weight="normal" text-decoration="normal" x="47.70556640625" y="269" text-anchor="start" dominant-baseline="alphabetic" transform="matrix(1, 0, 0, 1, 0.5, 0.5)" stroke-opacity="0" stroke-linejoin="bevel" stroke-miterlimit="10">Thermal alpha/electron density (%)</text><path fill="none" stroke="rgb(0,0,0)" paint-order="fill" d="M 52.5 230.5 L 52.5 27.5" stroke-opacity="1" stroke-linejoin="bevel" stroke-miterlimit="10"/><path fill="none" stroke="rgb(0,0,0)" paint-order="fill" d="M 46.5 221.5 L 54.5 221.5 M 46.5 183.5 L 54.5 183.5 M 46.5 145.5 L 54.5 145.5 M 46.5 108.5 L 54.5 108.5 M 46.5 70.5 L 54.5 70.5 M 46.5 32.5 L 54.5 32.5" stroke-opacity="1" stroke-linejoin="bevel" stroke-miterlimit="10"/><path fill="none" stroke="rgb(0,0,0)" paint-order="fill" d="M 48.5 228.5 L 52.5 228.5 M 48.5 221.5 L 52.5 221.5 M 48.5 213.5 L 52.5 213.5 M 48.5 206.5 L 52.5 206.5 M 48.5 198.5 L 52.5 198.5 M 48.5 191.5 L 52.5 191.5 M 48.5 183.5 L 52.5 183.5 M 48.5 175.5 L 52.5 175.5 M 48.5 168.5 L 52.5 168.5 M 48.5 160.5 L 52.5 160.5 M 48.5 153.5 L 52.5 153.5 M 48.5 145.5 L 52.5 145.5 M 48.5 138.5 L 52.5 138.5 M 48.5 130.5 L 52.5 130.5 M 48.5 123.5 L 52.5 123.5 M 48.5 115.5 L 52.5 115.5 M 48.5 108.5 L 52.5 108.5 M 48.5 100.5 L 52.5 100.5 M 48.5 92.5 L 52.5 92.5 M 48.5 85.5 L 52.5 85.5 M 48.5 77.5 L 52.5 77.5 M 48.5 70.5 L 52.5 70.5 M 48.5 62.5 L 52.5 62.5 M 48.5 55.5 L 52.5 55.5 M 48.5 47.5 L 52.5 47.5 M 48.5 40.5 L 52.5 40.5 M 48.5 32.5 L 52.5 32.5" stroke-opacity="1" stroke-linejoin="bevel" stroke-miterlimit="10"/><text fill="rgb(68,68,68)" stroke="none" font-family="helvetica" font-size="11px" font-style="normal" font-weight="normal" text-decoration="normal" x="34.88232421875" y="224.77272033691406" text-anchor="start" dominant-baseline="alphabetic" transform="matrix(1, 0, 0, 1, 0.5, 0.5)" fill-opacity="1">0</text><text fill="none" stroke="rgb(0,0,0)" font-family="helvetica" font-size="11px" font-style="normal" font-weight="normal" text-decoration="normal" x="34.88232421875" y="224.77272033691406" text-anchor="start" dominant-baseline="alphabetic" transform="matrix(1, 0, 0, 1, 0.5, 0.5)" stroke-opacity="0" stroke-linejoin="bevel" stroke-miterlimit="10">0</text><text fill="rgb(68,68,68)" stroke="none" font-family="helvetica" font-size="11px" font-style="normal" font-weight="normal" text-decoration="normal" x="25.70849609375" y="187.0179901123047" text-anchor="start" dominant-baseline="alphabetic" transform="matrix(1, 0, 0, 1, 0.5, 0.5)" fill-opacity="1">0.2</text><text fill="none" stroke="rgb(0,0,0)" font-family="helvetica" font-size="11px" font-style="normal" font-weight="normal" text-decoration="normal" x="25.70849609375" y="187.0179901123047" text-anchor="start" dominant-baseline="alphabetic" transform="matrix(1, 0, 0, 1, 0.5, 0.5)" stroke-opacity="0" stroke-linejoin="bevel" stroke-miterlimit="10">0.2</text><text fill="rgb(68,68,68)" stroke="none" font-family="helvetica" font-size="11px" font-style="normal" font-weight="normal" text-decoration="normal" x="25.70849609375" y="149.26324462890625" text-anchor="start" dominant-baseline="alphabetic" transform="matrix(1, 0, 0, 1, 0.5, 0.5)" fill-opacity="1">0.4</text><text fill="none" stroke="rgb(0,0,0)" font-family="helvetica" font-size="11px" font-style="normal" font-weight="normal" text-decoration="normal" x="25.70849609375" y="149.26324462890625" text-anchor="start" dominant-baseline="alphabetic" transform="matrix(1, 0, 0, 1, 0.5, 0.5)" stroke-opacity="0" stroke-linejoin="bevel" stroke-miterlimit="10">0.4</text><text fill="rgb(68,68,68)" stroke="none" font-family="helvetica" font-size="11px" font-style="normal" font-weight="normal" text-decoration="normal" x="25.70849609375" y="111.50850677490234" text-anchor="start" dominant-baseline="alphabetic" transform="matrix(1, 0, 0, 1, 0.5, 0.5)" fill-opacity="1">0.6</text><text fill="none" stroke="rgb(0,0,0)" font-family="helvetica" font-size="11px" font-style="normal" font-weight="normal" text-decoration="normal" x="25.70849609375" y="111.50850677490234" text-anchor="start" dominant-baseline="alphabetic" transform="matrix(1, 0, 0, 1, 0.5, 0.5)" stroke-opacity="0" stroke-linejoin="bevel" stroke-miterlimit="10">0.6</text><text fill="rgb(68,68,68)" stroke="none" font-family="helvetica" font-size="11px" font-style="normal" font-weight="normal" text-decoration="normal" x="25.70849609375" y="73.7537612915039" text-anchor="start" dominant-baseline="alphabetic" transform="matrix(1, 0, 0, 1, 0.5, 0.5)" fill-opacity="1">0.8</text><text fill="none" stroke="rgb(0,0,0)" font-family="helvetica" font-size="11px" font-style="normal" font-weight="normal" text-decoration="normal" x="25.70849609375" y="73.7537612915039" text-anchor="start" dominant-baseline="alphabetic" transform="matrix(1, 0, 0, 1, 0.5, 0.5)" stroke-opacity="0" stroke-linejoin="bevel" stroke-miterlimit="10">0.8</text><text fill="rgb(68,68,68)" stroke="none" font-family="helvetica" font-size="11px" font-style="normal" font-weight="normal" text-decoration="normal" x="34.88232421875" y="35.9990234375" text-anchor="start" dominant-baseline="alphabetic" transform="matrix(1, 0, 0, 1, 0.5, 0.5)" fill-opacity="1">1</text><text fill="none" stroke="rgb(0,0,0)" font-family="helvetica" font-size="11px" font-style="normal" font-weight="normal" text-decoration="normal" x="34.88232421875" y="35.9990234375" text-anchor="start" dominant-baseline="alphabetic" transform="matrix(1, 0, 0, 1, 0.5, 0.5)" stroke-opacity="0" stroke-linejoin="bevel" stroke-miterlimit="10">1</text><text fill="rgb(68,68,68)" stroke="none" font-family="helvetica" font-size="13px" font-style="italic" font-weight="normal" text-decoration="normal" x="-47.31689453125" y="125.5" text-anchor="start" dominant-baseline="alphabetic" transform="matrix(6.123233995736766e-17, -1, 1, 6.123233995736766e-17, -110.29150390625, 146.70849609375)" fill-opacity="1">Normalised Probability</text><text fill="none" stroke="rgb(0,0,0)" font-family="helvetica" font-size="13px" font-style="italic" font-weight="normal" text-decoration="normal" x="-47.31689453125" y="125.5" text-anchor="start" dominant-baseline="alphabetic" transform="matrix(6.123233995736766e-17, -1, 1, 6.123233995736766e-17, -110.29150390625, 146.70849609375)" stroke-opacity="0" stroke-linejoin="bevel" stroke-miterlimit="10">Normalised Probability</text><path fill="rgb(255,249,186)" stroke="rgb(255,0,0)" paint-order="fill" d="M 149.6879704306382 36.72727272727266 L 149.6879704306382 36.72727272727266 L 149.6879704306382 221.27272727272725 L 149.6879704306382 221.27272727272725 L 149.6879704306382 36.72727272727266 Z" fill-opacity="0.4" clip-path="url(#lFsetEBKwXlT)" stroke-opacity="1" stroke-linejoin="bevel" stroke-miterlimit="10" stroke-width="2" stroke-dasharray="6"/><path fill="rgb(255,249,186)" stroke="rgb(50,205,50)" paint-order="fill" d="M 170.02109529821018 36.72727272727266 L 170.02109529821018 36.72727272727266 L 170.02109529821018 221.27272727272725 L 170.02109529821018 221.27272727272725 L 170.02109529821018 36.72727272727266 Z" fill-opacity="0.4" clip-path="url(#LcdOGIZavGIq)" stroke-opacity="1" stroke-linejoin="bevel" stroke-miterlimit="10" stroke-width="2" stroke-dasharray="6"/><text fill="rgb(68,68,68)" stroke="none" font-family="helvetica" font-size="13px" font-style="normal" font-weight="bold" text-decoration="normal" x="52" y="19" text-anchor="start" dominant-baseline="alphabetic" transform="matrix(1, 0, 0, 1, 0.5, 0.5)" fill-opacity="1">Convergance Probability</text><text fill="none" stroke="rgb(0,0,0)" font-family="helvetica" font-size="13px" font-style="normal" font-weight="bold" text-decoration="normal" x="52" y="19" text-anchor="start" dominant-baseline="alphabetic" transform="matrix(1, 0, 0, 1, 0.5, 0.5)" stroke-opacity="0" stroke-miterlimit="10" stroke-dasharray="">Convergance Probability</text></svg>