<svg version="1.1" xmlns="http://www.w3.org/2000/svg" width="275" height="275"><defs><clipPath id="TcRsxTtIBBTb"><path fill="none" stroke="none" d="M 52.5 27.5 L 245.5 27.5 L 245.5 230.5 L 52.5 230.5 L 52.5 27.5 Z"/></clipPath><clipPath id="BuIesLAfuzFl"><path fill="none" stroke="none" d="M 52.5 27.5 L 245.5 27.5 L 245.5 230.5 L 52.5 230.5 L 52.5 27.5 Z"/></clipPath><clipPath id="aTtwBiLezNNp"><path fill="none" stroke="none" d="M 52.5 27.5 L 245.5 27.5 L 245.5 230.5 L 52.5 230.5 L 52.5 27.5 Z"/></clipPath><clipPath id="QebdaPCivwJN"><path fill="none" stroke="none" d="M 52.5 27.5 L 245.5 27.5 L 245.5 230.5 L 52.5 230.5 L 52.5 27.5 Z"/></clipPath><pattern id="QGqBVkkqKDnq" width="3" height="3" patternUnits="userSpaceOnUse"><path fill="rgb(0,0,0)" stroke="none" paint-order="stroke" d="M 2.75 2 A 0.75 0.75 0 0 0 1.25 2 A 0.75 0.75 0 0 0 2.75 2" fill-opacity="0.14901960784313725"/></pattern><clipPath id="prOOZqIcZeZg"><path fill="none" stroke="none" d="M 52.5 27.5 L 245.5 27.5 L 245.5 230.5 L 52.5 230.5 L 52.5 27.5 Z"/></clipPath><clipPath id="bMxPfOMGyZiu"><path fill="none" stroke="none" d="M 52.5 27.5 L 245.5 27.5 L 245.5 230.5 L 52.5 230.5 L 52.5 27.5 Z"/></clipPath><clipPath id="wBSrbQxMcopN"><path fill="none" stroke="none" d="M 52.5 27.5 L 245.5 27.5 L 245.5 230.5 L 52.5 230.5 L 52.5 27.5 Z"/></clipPath><clipPath id="sEMOGTvuNzuP"><path fill="none" stroke="none" d="M 52.5 27.5 L 245.5 27.5 L 245.5 230.5 L 52.5 230.5 L 52.5 27.5 Z"/></clipPath></defs><path fill="rgb(255,255,255)" stroke="none" paint-order="stroke" d="M 0.5 0.5 L 275.5 0.5 L 275.5 275.5 L 0.5 275.5 L 0.5 0.5 Z" fill-opacity="1"/><rect fill="#FFFFFF" stroke="none" x="52" y="27" width="193" height="203" transform="matrix(1, 0, 0, 1, 0.5, 0.5)"/><path fill="rgb(255,255,255)" stroke="none" paint-order="stroke" d="M 52.5 27.5 L 245.5 27.5 L 245.5 230.5 L 52.5 230.5 L 52.5 27.5 Z" fill-opacity="1"/><path fill="none" stroke="rgb(229,229,229)" paint-order="fill" d="M 52.5 27.5 L 245.5 27.5 L 245.5 230.5 L 52.5 230.5 L 52.5 27.5 Z" stroke-opacity="1" stroke-linejoin="bevel" stroke-miterlimit="10"/><path fill="none" stroke="rgb(229,229,229)" paint-order="fill" d="M 61.5 230.5 L 61.5 27.5 M 84.5 230.5 L 84.5 27.5 M 107.5 230.5 L 107.5 27.5 M 130.5 230.5 L 130.5 27.5 M 153.5 230.5 L 153.5 27.5 M 176.5 230.5 L 176.5 27.5 M 199.5 230.5 L 199.5 27.5 M 222.5 230.5 L 222.5 27.5 M 245.5 230.5 L 245.5 27.5" stroke-opacity="1" stroke-linejoin="bevel" stroke-miterlimit="10" clip-path="url(#TcRsxTtIBBTb)"/><path fill="none" stroke="rgb(229,229,229)" paint-order="fill" d="M 52.5 221.5 L 245.5 221.5 M 52.5 183.5 L 245.5 183.5 M 52.5 145.5 L 245.5 145.5 M 52.5 107.5 L 245.5 107.5 M 52.5 69.5 L 245.5 69.5 M 52.5 31.5 L 245.5 31.5" stroke-opacity="1" stroke-linejoin="bevel" stroke-miterlimit="10" clip-path="url(#BuIesLAfuzFl)"/><path fill="none" stroke="rgb(0,0,0)" paint-order="fill" d="M 114.77595520019531 32.888946533203125 L 114.77595520019531 57.9485969543457" stroke-opacity="1" stroke-linejoin="bevel" stroke-miterlimit="10" clip-path="url(#aTtwBiLezNNp)"/><path fill="none" stroke="rgb(0,0,0)" paint-order="fill" d="M 136.16598510742188 30.294174194335938 L 136.16598510742188 43.16037368774414" stroke-opacity="1" stroke-linejoin="bevel" stroke-miterlimit="10" clip-path="url(#aTtwBiLezNNp)"/><path fill="none" stroke="rgb(0,0,0)" paint-order="fill" d="M 157.55601501464844 33.15032196044922 L 157.55601501464844 47.80625534057617" stroke-opacity="1" stroke-linejoin="bevel" stroke-miterlimit="10" clip-path="url(#aTtwBiLezNNp)"/><path fill="none" stroke="rgb(0,0,0)" paint-order="fill" d="M 178.94602966308594 23.297365188598633 L 178.94602966308594 67.16621398925781" stroke-opacity="1" stroke-linejoin="bevel" stroke-miterlimit="10" clip-path="url(#aTtwBiLezNNp)"/><path fill="none" stroke="rgb(0,0,0)" paint-order="fill" d="M 109.77595520019531 32.888946533203125 L 119.77595520019531 32.888946533203125" stroke-opacity="1" stroke-linejoin="bevel" stroke-miterlimit="10" clip-path="url(#aTtwBiLezNNp)"/><path fill="none" stroke="rgb(0,0,0)" paint-order="fill" d="M 131.16598510742188 30.294174194335938 L 141.16598510742188 30.294174194335938" stroke-opacity="1" stroke-linejoin="bevel" stroke-miterlimit="10" clip-path="url(#aTtwBiLezNNp)"/><path fill="none" stroke="rgb(0,0,0)" paint-order="fill" d="M 152.55601501464844 33.15032196044922 L 162.55601501464844 33.15032196044922" stroke-opacity="1" stroke-linejoin="bevel" stroke-miterlimit="10" clip-path="url(#aTtwBiLezNNp)"/><path fill="none" stroke="rgb(0,0,0)" paint-order="fill" d="M 173.94602966308594 23.297365188598633 L 183.94602966308594 23.297365188598633" stroke-opacity="1" stroke-linejoin="bevel" stroke-miterlimit="10" clip-path="url(#aTtwBiLezNNp)"/><path fill="none" stroke="rgb(0,0,0)" paint-order="fill" d="M 119.77595520019531 57.9485969543457 L 109.77595520019531 57.9485969543457" stroke-opacity="1" stroke-linejoin="bevel" stroke-miterlimit="10" clip-path="url(#aTtwBiLezNNp)"/><path fill="none" stroke="rgb(0,0,0)" paint-order="fill" d="M 141.16598510742188 43.16037368774414 L 131.16598510742188 43.16037368774414" stroke-opacity="1" stroke-linejoin="bevel" stroke-miterlimit="10" clip-path="url(#aTtwBiLezNNp)"/><path fill="none" stroke="rgb(0,0,0)" paint-order="fill" d="M 162.55601501464844 47.80625534057617 L 152.55601501464844 47.80625534057617" stroke-opacity="1" stroke-linejoin="bevel" stroke-miterlimit="10" clip-path="url(#aTtwBiLezNNp)"/><path fill="none" stroke="rgb(0,0,0)" paint-order="fill" d="M 183.94602966308594 67.16621398925781 L 173.94602966308594 67.16621398925781" stroke-opacity="1" stroke-linejoin="bevel" stroke-miterlimit="10" clip-path="url(#aTtwBiLezNNp)"/><path fill="rgb(128,128,128)" stroke="none" paint-order="stroke" d="M 104.08094787597656 36.727272033691406 L 189.64105224609375 36.727272033691406 L 189.64105224609375 221.27273559570312 L 104.08094787597656 221.27273559570312 L 104.08094787597656 36.727272033691406 Z" fill-opacity="0.10196078431372549" clip-path="url(#QebdaPCivwJN)"/><path fill="url(#QGqBVkkqKDnq)" stroke="rgb(0,0,0)" paint-order="fill" d="M 104.08094787597656 36.727272033691406 L 189.64105224609375 36.727272033691406 L 189.64105224609375 221.27273559570312 L 104.08094787597656 221.27273559570312 L 104.08094787597656 36.727272033691406 Z" clip-path="url(#QebdaPCivwJN)" stroke-opacity="0.2" stroke-linejoin="bevel" stroke-miterlimit="10"/><path fill="rgb(100,149,237)" stroke="rgb(31,119,180)" paint-order="fill" d="M 104.08094024658203 45.41877365112305 L 125.4709701538086 45.41877365112305 L 125.4709701538086 221.27272033691406 L 104.08094024658203 221.27272033691406 L 104.08094024658203 45.41877365112305 Z" fill-opacity="0.5019607843137255" clip-path="url(#prOOZqIcZeZg)" stroke-opacity="0.5019607843137255" stroke-linejoin="bevel" stroke-miterlimit="10"/><path fill="rgb(100,149,237)" stroke="rgb(31,119,180)" paint-order="fill" d="M 125.4709701538086 36.727272033691406 L 146.86099243164062 36.727272033691406 L 146.86099243164062 221.27272033691406 L 125.4709701538086 221.27272033691406 L 125.4709701538086 36.727272033691406 Z" fill-opacity="0.5019607843137255" clip-path="url(#prOOZqIcZeZg)" stroke-opacity="0.5019607843137255" stroke-linejoin="bevel" stroke-miterlimit="10"/><path fill="rgb(100,149,237)" stroke="rgb(31,119,180)" paint-order="fill" d="M 146.8610076904297 40.47828674316406 L 168.2510223388672 40.47828674316406 L 168.2510223388672 221.27272033691406 L 146.8610076904297 221.27272033691406 L 146.8610076904297 40.47828674316406 Z" fill-opacity="0.5019607843137255" clip-path="url(#prOOZqIcZeZg)" stroke-opacity="0.5019607843137255" stroke-linejoin="bevel" stroke-miterlimit="10"/><path fill="rgb(100,149,237)" stroke="rgb(31,119,180)" paint-order="fill" d="M 168.2510223388672 45.231788635253906 L 189.6410369873047 45.231788635253906 L 189.6410369873047 221.27272033691406 L 168.2510223388672 221.27272033691406 L 168.2510223388672 45.231788635253906 Z" fill-opacity="0.5019607843137255" clip-path="url(#prOOZqIcZeZg)" stroke-opacity="0.5019607843137255" stroke-linejoin="bevel" stroke-miterlimit="10"/><path fill="none" stroke="rgb(0,0,0)" paint-order="fill" d="M 52.5 230.5 L 245.5 230.5" stroke-opacity="1" stroke-linejoin="bevel" stroke-miterlimit="10"/><path fill="none" stroke="rgb(0,0,0)" paint-order="fill" d="M 61.5 236.5 L 61.5 228.5 M 84.5 236.5 L 84.5 228.5 M 107.5 236.5 L 107.5 228.5 M 130.5 236.5 L 130.5 228.5 M 153.5 236.5 L 153.5 228.5 M 176.5 236.5 L 176.5 228.5 M 199.5 236.5 L 199.5 228.5 M 222.5 236.5 L 222.5 228.5 M 245.5 236.5 L 245.5 228.5" stroke-opacity="1" stroke-linejoin="bevel" stroke-miterlimit="10"/><path fill="none" stroke="rgb(0,0,0)" paint-order="fill" d="M 56.5 234.5 L 56.5 230.5 M 61.5 234.5 L 61.5 230.5 M 65.5 234.5 L 65.5 230.5 M 70.5 234.5 L 70.5 230.5 M 74.5 234.5 L 74.5 230.5 M 79.5 234.5 L 79.5 230.5 M 84.5 234.5 L 84.5 230.5 M 88.5 234.5 L 88.5 230.5 M 93.5 234.5 L 93.5 230.5 M 97.5 234.5 L 97.5 230.5 M 102.5 234.5 L 102.5 230.5 M 107.5 234.5 L 107.5 230.5 M 111.5 234.5 L 111.5 230.5 M 116.5 234.5 L 116.5 230.5 M 120.5 234.5 L 120.5 230.5 M 125.5 234.5 L 125.5 230.5 M 130.5 234.5 L 130.5 230.5 M 134.5 234.5 L 134.5 230.5 M 139.5 234.5 L 139.5 230.5 M 143.5 234.5 L 143.5 230.5 M 148.5 234.5 L 148.5 230.5 M 153.5 234.5 L 153.5 230.5 M 157.5 234.5 L 157.5 230.5 M 162.5 234.5 L 162.5 230.5 M 166.5 234.5 L 166.5 230.5 M 171.5 234.5 L 171.5 230.5 M 176.5 234.5 L 176.5 230.5 M 180.5 234.5 L 180.5 230.5 M 185.5 234.5 L 185.5 230.5 M 189.5 234.5 L 189.5 230.5 M 194.5 234.5 L 194.5 230.5 M 199.5 234.5 L 199.5 230.5 M 203.5 234.5 L 203.5 230.5 M 208.5 234.5 L 208.5 230.5 M 212.5 234.5 L 212.5 230.5 M 217.5 234.5 L 217.5 230.5 M 222.5 234.5 L 222.5 230.5 M 226.5 234.5 L 226.5 230.5 M 231.5 234.5 L 231.5 230.5 M 235.5 234.5 L 235.5 230.5 M 240.5 234.5 L 240.5 230.5 M 245.5 234.5 L 245.5 230.5" stroke-opacity="1" stroke-linejoin="bevel" stroke-miterlimit="10"/><text fill="rgb(68,68,68)" stroke="none" font-family="helvetica" font-size="11px" font-style="normal" font-weight="normal" text-decoration="normal" x="53.05167007446289" y="249" text-anchor="start" dominant-baseline="alphabetic" transform="matrix(1, 0, 0, 1, 0.5, 0.5)" fill-opacity="1">8.6</text><text fill="none" stroke="rgb(0,0,0)" font-family="helvetica" font-size="11px" font-style="normal" font-weight="normal" text-decoration="normal" x="53.05167007446289" y="249" text-anchor="start" dominant-baseline="alphabetic" transform="matrix(1, 0, 0, 1, 0.5, 0.5)" stroke-opacity="0" stroke-linejoin="bevel" stroke-miterlimit="10">8.6</text><text fill="rgb(68,68,68)" stroke="none" font-family="helvetica" font-size="11px" font-style="normal" font-weight="normal" text-decoration="normal" x="76.04551696777344" y="249" text-anchor="start" dominant-baseline="alphabetic" transform="matrix(1, 0, 0, 1, 0.5, 0.5)" fill-opacity="1">8.8</text><text fill="none" stroke="rgb(0,0,0)" font-family="helvetica" font-size="11px" font-style="normal" font-weight="normal" text-decoration="normal" x="76.04551696777344" y="249" text-anchor="start" dominant-baseline="alphabetic" transform="matrix(1, 0, 0, 1, 0.5, 0.5)" stroke-opacity="0" stroke-linejoin="bevel" stroke-miterlimit="10">8.8</text><text fill="rgb(68,68,68)" stroke="none" font-family="helvetica" font-size="11px" font-style="normal" font-weight="normal" text-decoration="normal" x="103.62627410888672" y="249" text-anchor="start" dominant-baseline="alphabetic" transform="matrix(1, 0, 0, 1, 0.5, 0.5)" fill-opacity="1">9</text><text fill="none" stroke="rgb(0,0,0)" font-family="helvetica" font-size="11px" font-style="normal" font-weight="normal" text-decoration="normal" x="103.62627410888672" y="249" text-anchor="start" dominant-baseline="alphabetic" transform="matrix(1, 0, 0, 1, 0.5, 0.5)" stroke-opacity="0" stroke-linejoin="bevel" stroke-miterlimit="10">9</text><text fill="rgb(68,68,68)" stroke="none" font-family="helvetica" font-size="11px" font-style="normal" font-weight="normal" text-decoration="normal" x="122.033203125" y="249" text-anchor="start" dominant-baseline="alphabetic" transform="matrix(1, 0, 0, 1, 0.5, 0.5)" fill-opacity="1">9.2</text><text fill="none" stroke="rgb(0,0,0)" font-family="helvetica" font-size="11px" font-style="normal" font-weight="normal" text-decoration="normal" x="122.033203125" y="249" text-anchor="start" dominant-baseline="alphabetic" transform="matrix(1, 0, 0, 1, 0.5, 0.5)" stroke-opacity="0" stroke-linejoin="bevel" stroke-miterlimit="10">9.2</text><text fill="rgb(68,68,68)" stroke="none" font-family="helvetica" font-size="11px" font-style="normal" font-weight="normal" text-decoration="normal" x="145.0270538330078" y="249" text-anchor="start" dominant-baseline="alphabetic" transform="matrix(1, 0, 0, 1, 0.5, 0.5)" fill-opacity="1">9.4</text><text fill="none" stroke="rgb(0,0,0)" font-family="helvetica" font-size="11px" font-style="normal" font-weight="normal" text-decoration="normal" x="145.0270538330078" y="249" text-anchor="start" dominant-baseline="alphabetic" transform="matrix(1, 0, 0, 1, 0.5, 0.5)" stroke-opacity="0" stroke-linejoin="bevel" stroke-miterlimit="10">9.4</text><text fill="rgb(68,68,68)" stroke="none" font-family="helvetica" font-size="11px" font-style="normal" font-weight="normal" text-decoration="normal" x="168.02090454101562" y="249" text-anchor="start" dominant-baseline="alphabetic" transform="matrix(1, 0, 0, 1, 0.5, 0.5)" fill-opacity="1">9.6</text><text fill="none" stroke="rgb(0,0,0)" font-family="helvetica" font-size="11px" font-style="normal" font-weight="normal" text-decoration="normal" x="168.02090454101562" y="249" text-anchor="start" dominant-baseline="alphabetic" transform="matrix(1, 0, 0, 1, 0.5, 0.5)" stroke-opacity="0" stroke-linejoin="bevel" stroke-miterlimit="10">9.6</text><text fill="rgb(68,68,68)" stroke="none" font-family="helvetica" font-size="11px" font-style="normal" font-weight="normal" text-decoration="normal" x="191.01475524902344" y="249" text-anchor="start" dominant-baseline="alphabetic" transform="matrix(1, 0, 0, 1, 0.5, 0.5)" fill-opacity="1">9.8</text><text fill="none" stroke="rgb(0,0,0)" font-family="helvetica" font-size="11px" font-style="normal" font-weight="normal" text-decoration="normal" x="191.01475524902344" y="249" text-anchor="start" dominant-baseline="alphabetic" transform="matrix(1, 0, 0, 1, 0.5, 0.5)" stroke-opacity="0" stroke-linejoin="bevel" stroke-miterlimit="10">9.8</text><text fill="rgb(68,68,68)" stroke="none" font-family="helvetica" font-size="11px" font-style="normal" font-weight="normal" text-decoration="normal" x="215.5366668701172" y="249" text-anchor="start" dominant-baseline="alphabetic" transform="matrix(1, 0, 0, 1, 0.5, 0.5)" fill-opacity="1">10</text><text fill="none" stroke="rgb(0,0,0)" font-family="helvetica" font-size="11px" font-style="normal" font-weight="normal" text-decoration="normal" x="215.5366668701172" y="249" text-anchor="start" dominant-baseline="alphabetic" transform="matrix(1, 0, 0, 1, 0.5, 0.5)" stroke-opacity="0" stroke-linejoin="bevel" stroke-miterlimit="10">10</text><text fill="rgb(68,68,68)" stroke="none" font-family="helvetica" font-size="11px" font-style="normal" font-weight="normal" text-decoration="normal" x="233.943603515625" y="249" text-anchor="start" dominant-baseline="alphabetic" transform="matrix(1, 0, 0, 1, 0.5, 0.5)" fill-opacity="1">10.2</text><text fill="none" stroke="rgb(0,0,0)" font-family="helvetica" font-size="11px" font-style="normal" font-weight="normal" text-decoration="normal" x="233.943603515625" y="249" text-anchor="start" dominant-baseline="alphabetic" transform="matrix(1, 0, 0, 1, 0.5, 0.5)" stroke-opacity="0" stroke-linejoin="bevel" stroke-miterlimit="10">10.2</text><text fill="rgb(68,68,68)" stroke="none" font-family="helvetica" font-size="13px" font-style="italic" font-weight="normal" text-decoration="normal" x="101.187744140625" y="269" text-anchor="start" dominant-baseline="alphabetic" transform="matrix(1, 0, 0, 1, 0.5, 0.5)" fill-opacity="1">major radius (m)</text><text fill="none" stroke="rgb(0,0,0)" font-family="helvetica" font-size="13px" font-style="italic" font-weight="normal" text-decoration="normal" x="101.187744140625" y="269" text-anchor="start" dominant-baseline="alphabetic" transform="matrix(1, 0, 0, 1, 0.5, 0.5)" stroke-opacity="0" stroke-linejoin="bevel" stroke-miterlimit="10">major radius (m)</text><path fill="none" stroke="rgb(0,0,0)" paint-order="fill" d="M 52.5 230.5 L 52.5 27.5" stroke-opacity="1" stroke-linejoin="bevel" stroke-miterlimit="10"/><path fill="none" stroke="rgb(0,0,0)" paint-order="fill" d="M 46.5 221.5 L 54.5 221.5 M 46.5 183.5 L 54.5 183.5 M 46.5 145.5 L 54.5 145.5 M 46.5 107.5 L 54.5 107.5 M 46.5 69.5 L 54.5 69.5 M 46.5 31.5 L 54.5 31.5" stroke-opacity="1" stroke-linejoin="bevel" stroke-miterlimit="10"/><path fill="none" stroke="rgb(0,0,0)" paint-order="fill" d="M 48.5 228.5 L 52.5 228.5 M 48.5 221.5 L 52.5 221.5 M 48.5 213.5 L 52.5 213.5 M 48.5 206.5 L 52.5 206.5 M 48.5 198.5 L 52.5 198.5 M 48.5 190.5 L 52.5 190.5 M 48.5 183.5 L 52.5 183.5 M 48.5 175.5 L 52.5 175.5 M 48.5 168.5 L 52.5 168.5 M 48.5 160.5 L 52.5 160.5 M 48.5 152.5 L 52.5 152.5 M 48.5 145.5 L 52.5 145.5 M 48.5 137.5 L 52.5 137.5 M 48.5 129.5 L 52.5 129.5 M 48.5 122.5 L 52.5 122.5 M 48.5 114.5 L 52.5 114.5 M 48.5 107.5 L 52.5 107.5 M 48.5 99.5 L 52.5 99.5 M 48.5 91.5 L 52.5 91.5 M 48.5 84.5 L 52.5 84.5 M 48.5 76.5 L 52.5 76.5 M 48.5 69.5 L 52.5 69.5 M 48.5 61.5 L 52.5 61.5 M 48.5 53.5 L 52.5 53.5 M 48.5 46.5 L 52.5 46.5 M 48.5 38.5 L 52.5 38.5 M 48.5 31.5 L 52.5 31.5" stroke-opacity="1" stroke-linejoin="bevel" stroke-miterlimit="10"/><text fill="rgb(68,68,68)" stroke="none" font-family="helvetica" font-size="11px" font-style="normal" font-weight="normal" text-decoration="normal" x="34.88232421875" y="224.77272033691406" text-anchor="start" dominant-baseline="alphabetic" transform="matrix(1, 0, 0, 1, 0.5, 0.5)" fill-opacity="1">0</text><text fill="none" stroke="rgb(0,0,0)" font-family="helvetica" font-size="11px" font-style="normal" font-weight="normal" text-decoration="normal" x="34.88232421875" y="224.77272033691406" text-anchor="start" dominant-baseline="alphabetic" transform="matrix(1, 0, 0, 1, 0.5, 0.5)" stroke-opacity="0" stroke-linejoin="bevel" stroke-miterlimit="10">0</text><text fill="rgb(68,68,68)" stroke="none" font-family="helvetica" font-size="11px" font-style="normal" font-weight="normal" text-decoration="normal" x="25.70849609375" y="186.73666381835938" text-anchor="start" dominant-baseline="alphabetic" transform="matrix(1, 0, 0, 1, 0.5, 0.5)" fill-opacity="1">0.2</text><text fill="none" stroke="rgb(0,0,0)" font-family="helvetica" font-size="11px" font-style="normal" font-weight="normal" text-decoration="normal" x="25.70849609375" y="186.73666381835938" text-anchor="start" dominant-baseline="alphabetic" transform="matrix(1, 0, 0, 1, 0.5, 0.5)" stroke-opacity="0" stroke-linejoin="bevel" stroke-miterlimit="10">0.2</text><text fill="rgb(68,68,68)" stroke="none" font-family="helvetica" font-size="11px" font-style="normal" font-weight="normal" text-decoration="normal" x="25.70849609375" y="148.70059204101562" text-anchor="start" dominant-baseline="alphabetic" transform="matrix(1, 0, 0, 1, 0.5, 0.5)" fill-opacity="1">0.4</text><text fill="none" stroke="rgb(0,0,0)" font-family="helvetica" font-size="11px" font-style="normal" font-weight="normal" text-decoration="normal" x="25.70849609375" y="148.70059204101562" text-anchor="start" dominant-baseline="alphabetic" transform="matrix(1, 0, 0, 1, 0.5, 0.5)" stroke-opacity="0" stroke-linejoin="bevel" stroke-miterlimit="10">0.4</text><text fill="rgb(68,68,68)" stroke="none" font-family="helvetica" font-size="11px" font-style="normal" font-weight="normal" text-decoration="normal" x="25.70849609375" y="110.66452026367188" text-anchor="start" dominant-baseline="alphabetic" transform="matrix(1, 0, 0, 1, 0.5, 0.5)" fill-opacity="1">0.6</text><text fill="none" stroke="rgb(0,0,0)" font-family="helvetica" font-size="11px" font-style="normal" font-weight="normal" text-decoration="normal" x="25.70849609375" y="110.66452026367188" text-anchor="start" dominant-baseline="alphabetic" transform="matrix(1, 0, 0, 1, 0.5, 0.5)" stroke-opacity="0" stroke-linejoin="bevel" stroke-miterlimit="10">0.6</text><text fill="rgb(68,68,68)" stroke="none" font-family="helvetica" font-size="11px" font-style="normal" font-weight="normal" text-decoration="normal" x="25.70849609375" y="72.62844848632812" text-anchor="start" dominant-baseline="alphabetic" transform="matrix(1, 0, 0, 1, 0.5, 0.5)" fill-opacity="1">0.8</text><text fill="none" stroke="rgb(0,0,0)" font-family="helvetica" font-size="11px" font-style="normal" font-weight="normal" text-decoration="normal" x="25.70849609375" y="72.62844848632812" text-anchor="start" dominant-baseline="alphabetic" transform="matrix(1, 0, 0, 1, 0.5, 0.5)" stroke-opacity="0" stroke-linejoin="bevel" stroke-miterlimit="10">0.8</text><text fill="rgb(68,68,68)" stroke="none" font-family="helvetica" font-size="11px" font-style="normal" font-weight="normal" text-decoration="normal" x="34.88232421875" y="34.59237861633301" text-anchor="start" dominant-baseline="alphabetic" transform="matrix(1, 0, 0, 1, 0.5, 0.5)" fill-opacity="1">1</text><text fill="none" stroke="rgb(0,0,0)" font-family="helvetica" font-size="11px" font-style="normal" font-weight="normal" text-decoration="normal" x="34.88232421875" y="34.59237861633301" text-anchor="start" dominant-baseline="alphabetic" transform="matrix(1, 0, 0, 1, 0.5, 0.5)" stroke-opacity="0" stroke-linejoin="bevel" stroke-miterlimit="10">1</text><text fill="rgb(68,68,68)" stroke="none" font-family="helvetica" font-size="13px" font-style="italic" font-weight="normal" text-decoration="normal" x="-47.31689453125" y="125.5" text-anchor="start" dominant-baseline="alphabetic" transform="matrix(6.123233995736766e-17, -1, 1, 6.123233995736766e-17, -110.29150390625, 146.70849609375)" fill-opacity="1">Normalised Probability</text><text fill="none" stroke="rgb(0,0,0)" font-family="helvetica" font-size="13px" font-style="italic" font-weight="normal" text-decoration="normal" x="-47.31689453125" y="125.5" text-anchor="start" dominant-baseline="alphabetic" transform="matrix(6.123233995736766e-17, -1, 1, 6.123233995736766e-17, -110.29150390625, 146.70849609375)" stroke-opacity="0" stroke-linejoin="bevel" stroke-miterlimit="10">Normalised Probability</text><path fill="rgb(255,249,186)" stroke="rgb(255,0,0)" paint-order="fill" d="M 142.85933570469058 36.72727272727272 L 142.85933570469058 36.72727272727272 L 142.85933570469058 221.27272727272728 L 142.85933570469058 221.27272727272728 L 142.85933570469058 36.72727272727272 Z" fill-opacity="0.4" clip-path="url(#bMxPfOMGyZiu)" stroke-opacity="1" stroke-linejoin="bevel" stroke-miterlimit="10" stroke-width="2" stroke-dasharray="6"/><path fill="rgb(255,249,186)" stroke="rgb(50,205,50)" paint-order="fill" d="M 136.1659845953144 36.72727272727272 L 136.1659845953144 36.72727272727272 L 136.1659845953144 221.27272727272728 L 136.1659845953144 221.27272727272728 L 136.1659845953144 36.72727272727272 Z" fill-opacity="0.4" clip-path="url(#wBSrbQxMcopN)" stroke-opacity="1" stroke-linejoin="bevel" stroke-miterlimit="10" stroke-width="2" stroke-dasharray="6"/><text fill="rgb(68,68,68)" stroke="none" font-family="helvetica" font-size="13px" font-style="normal" font-weight="bold" text-decoration="normal" x="52" y="19" text-anchor="start" dominant-baseline="alphabetic" transform="matrix(1, 0, 0, 1, 0.5, 0.5)" fill-opacity="1">Convergance Probability</text><text fill="none" stroke="rgb(0,0,0)" font-family="helvetica" font-size="13px" font-style="normal" font-weight="bold" text-decoration="normal" x="52" y="19" text-anchor="start" dominant-baseline="alphabetic" transform="matrix(1, 0, 0, 1, 0.5, 0.5)" stroke-opacity="0" stroke-miterlimit="10" stroke-dasharray="">Convergance Probability</text></svg>