<svg version="1.1" xmlns="http://www.w3.org/2000/svg" width="275" height="275"><defs><clipPath id="RvhTcaWAbXLB"><path fill="none" stroke="none" d="M 52.5 27.5 L 245.5 27.5 L 245.5 230.5 L 52.5 230.5 L 52.5 27.5 Z"/></clipPath><clipPath id="lmhJmHXclnHm"><path fill="none" stroke="none" d="M 52.5 27.5 L 245.5 27.5 L 245.5 230.5 L 52.5 230.5 L 52.5 27.5 Z"/></clipPath><clipPath id="giMdIuzvTlcO"><path fill="none" stroke="none" d="M 52.5 27.5 L 245.5 27.5 L 245.5 230.5 L 52.5 230.5 L 52.5 27.5 Z"/></clipPath><clipPath id="XwcMTpngAsoT"><path fill="none" stroke="none" d="M 52.5 27.5 L 245.5 27.5 L 245.5 230.5 L 52.5 230.5 L 52.5 27.5 Z"/></clipPath><pattern id="FGkdmNNSwkSn" width="3" height="3" patternUnits="userSpaceOnUse"><path fill="rgb(0,0,0)" stroke="none" paint-order="stroke" d="M 2.75 2 A 0.75 0.75 0 0 0 1.25 2 A 0.75 0.75 0 0 0 2.75 2" fill-opacity="0.14901960784313725"/></pattern><clipPath id="OiyWAbLKmGkJ"><path fill="none" stroke="none" d="M 52.5 27.5 L 245.5 27.5 L 245.5 230.5 L 52.5 230.5 L 52.5 27.5 Z"/></clipPath><clipPath id="VikkSeMkctMl"><path fill="none" stroke="none" d="M 52.5 27.5 L 245.5 27.5 L 245.5 230.5 L 52.5 230.5 L 52.5 27.5 Z"/></clipPath><clipPath id="QfedzXJSTdxM"><path fill="none" stroke="none" d="M 52.5 27.5 L 245.5 27.5 L 245.5 230.5 L 52.5 230.5 L 52.5 27.5 Z"/></clipPath><clipPath id="LOtJVxkzadZe"><path fill="none" stroke="none" d="M 52.5 27.5 L 245.5 27.5 L 245.5 230.5 L 52.5 230.5 L 52.5 27.5 Z"/></clipPath></defs><path fill="rgb(255,255,255)" stroke="none" paint-order="stroke" d="M 0.5 0.5 L 275.5 0.5 L 275.5 275.5 L 0.5 275.5 L 0.5 0.5 Z" fill-opacity="1"/><rect fill="#FFFFFF" stroke="none" x="52" y="27" width="193" height="203" transform="matrix(1, 0, 0, 1, 0.5, 0.5)"/><path fill="rgb(255,255,255)" stroke="none" paint-order="stroke" d="M 52.5 27.5 L 245.5 27.5 L 245.5 230.5 L 52.5 230.5 L 52.5 27.5 Z" fill-opacity="1"/><path fill="none" stroke="rgb(229,229,229)" paint-order="fill" d="M 52.5 27.5 L 245.5 27.5 L 245.5 230.5 L 52.5 230.5 L 52.5 27.5 Z" stroke-opacity="1" stroke-linejoin="bevel" stroke-miterlimit="10"/><path fill="none" stroke="rgb(229,229,229)" paint-order="fill" d="M 63.5 230.5 L 63.5 27.5 M 91.5 230.5 L 91.5 27.5 M 118.5 230.5 L 118.5 27.5 M 146.5 230.5 L 146.5 27.5 M 173.5 230.5 L 173.5 27.5 M 201.5 230.5 L 201.5 27.5 M 228.5 230.5 L 228.5 27.5" stroke-opacity="1" stroke-linejoin="bevel" stroke-miterlimit="10" clip-path="url(#RvhTcaWAbXLB)"/><path fill="none" stroke="rgb(229,229,229)" paint-order="fill" d="M 52.5 221.5 L 245.5 221.5 M 52.5 182.5 L 245.5 182.5 M 52.5 144.5 L 245.5 144.5 M 52.5 106.5 L 245.5 106.5 M 52.5 67.5 L 245.5 67.5 M 52.5 29.5 L 245.5 29.5" stroke-opacity="1" stroke-linejoin="bevel" stroke-miterlimit="10" clip-path="url(#lmhJmHXclnHm)"/><path fill="none" stroke="rgb(0,0,0)" paint-order="fill" d="M 109.50566864013672 28.829763412475586 L 109.50566864013672 44.66409683227539" stroke-opacity="1" stroke-linejoin="bevel" stroke-miterlimit="10" clip-path="url(#giMdIuzvTlcO)"/><path fill="none" stroke="rgb(0,0,0)" paint-order="fill" d="M 146.2445831298828 28.324636459350586 L 146.2445831298828 45.86886978149414" stroke-opacity="1" stroke-linejoin="bevel" stroke-miterlimit="10" clip-path="url(#giMdIuzvTlcO)"/><path fill="none" stroke="rgb(0,0,0)" paint-order="fill" d="M 182.98348999023438 28.350889205932617 L 182.98348999023438 45.10365676879883" stroke-opacity="1" stroke-linejoin="bevel" stroke-miterlimit="10" clip-path="url(#giMdIuzvTlcO)"/><path fill="none" stroke="rgb(0,0,0)" paint-order="fill" d="M 104.50566864013672 28.829763412475586 L 114.50566864013672 28.829763412475586" stroke-opacity="1" stroke-linejoin="bevel" stroke-miterlimit="10" clip-path="url(#giMdIuzvTlcO)"/><path fill="none" stroke="rgb(0,0,0)" paint-order="fill" d="M 141.2445831298828 28.324636459350586 L 151.2445831298828 28.324636459350586" stroke-opacity="1" stroke-linejoin="bevel" stroke-miterlimit="10" clip-path="url(#giMdIuzvTlcO)"/><path fill="none" stroke="rgb(0,0,0)" paint-order="fill" d="M 177.98348999023438 28.350889205932617 L 187.98348999023438 28.350889205932617" stroke-opacity="1" stroke-linejoin="bevel" stroke-miterlimit="10" clip-path="url(#giMdIuzvTlcO)"/><path fill="none" stroke="rgb(0,0,0)" paint-order="fill" d="M 114.50566864013672 44.66409683227539 L 104.50566864013672 44.66409683227539" stroke-opacity="1" stroke-linejoin="bevel" stroke-miterlimit="10" clip-path="url(#giMdIuzvTlcO)"/><path fill="none" stroke="rgb(0,0,0)" paint-order="fill" d="M 151.2445831298828 45.86886978149414 L 141.2445831298828 45.86886978149414" stroke-opacity="1" stroke-linejoin="bevel" stroke-miterlimit="10" clip-path="url(#giMdIuzvTlcO)"/><path fill="none" stroke="rgb(0,0,0)" paint-order="fill" d="M 187.98348999023438 45.10365676879883 L 177.98348999023438 45.10365676879883" stroke-opacity="1" stroke-linejoin="bevel" stroke-miterlimit="10" clip-path="url(#giMdIuzvTlcO)"/><path fill="rgb(128,128,128)" stroke="none" paint-order="stroke" d="M 91.1362075805664 36.727272033691406 L 201.3529510498047 36.727272033691406 L 201.3529510498047 221.27273559570312 L 91.1362075805664 221.27273559570312 L 91.1362075805664 36.727272033691406 Z" fill-opacity="0.10196078431372549" clip-path="url(#XwcMTpngAsoT)"/><path fill="url(#FGkdmNNSwkSn)" stroke="rgb(0,0,0)" paint-order="fill" d="M 91.1362075805664 36.727272033691406 L 201.3529510498047 36.727272033691406 L 201.3529510498047 221.27273559570312 L 91.1362075805664 221.27273559570312 L 91.1362075805664 36.727272033691406 Z" clip-path="url(#XwcMTpngAsoT)" stroke-opacity="0.2" stroke-linejoin="bevel" stroke-miterlimit="10"/><path fill="rgb(100,149,237)" stroke="rgb(31,119,180)" paint-order="fill" d="M 91.13621520996094 36.74692916870117 L 127.8751220703125 36.74692916870117 L 127.8751220703125 221.27272033691406 L 91.13621520996094 221.27272033691406 L 91.13621520996094 36.74692916870117 Z" fill-opacity="0.5019607843137255" clip-path="url(#OiyWAbLKmGkJ)" stroke-opacity="0.5019607843137255" stroke-linejoin="bevel" stroke-miterlimit="10"/><path fill="rgb(100,149,237)" stroke="rgb(31,119,180)" paint-order="fill" d="M 127.8751220703125 37.09675216674805 L 164.61404418945312 37.09675216674805 L 164.61404418945312 221.27272033691406 L 127.8751220703125 221.27272033691406 L 127.8751220703125 37.09675216674805 Z" fill-opacity="0.5019607843137255" clip-path="url(#OiyWAbLKmGkJ)" stroke-opacity="0.5019607843137255" stroke-linejoin="bevel" stroke-miterlimit="10"/><path fill="rgb(100,149,237)" stroke="rgb(31,119,180)" paint-order="fill" d="M 164.61402893066406 36.727272033691406 L 201.3529510498047 36.727272033691406 L 201.3529510498047 221.27272033691406 L 164.61402893066406 221.27272033691406 L 164.61402893066406 36.727272033691406 Z" fill-opacity="0.5019607843137255" clip-path="url(#OiyWAbLKmGkJ)" stroke-opacity="0.5019607843137255" stroke-linejoin="bevel" stroke-miterlimit="10"/><path fill="none" stroke="rgb(0,0,0)" paint-order="fill" d="M 52.5 230.5 L 245.5 230.5" stroke-opacity="1" stroke-linejoin="bevel" stroke-miterlimit="10"/><path fill="none" stroke="rgb(0,0,0)" paint-order="fill" d="M 63.5 236.5 L 63.5 228.5 M 91.5 236.5 L 91.5 228.5 M 118.5 236.5 L 118.5 228.5 M 146.5 236.5 L 146.5 228.5 M 173.5 236.5 L 173.5 228.5 M 201.5 236.5 L 201.5 228.5 M 228.5 236.5 L 228.5 228.5" stroke-opacity="1" stroke-linejoin="bevel" stroke-miterlimit="10"/><path fill="none" stroke="rgb(0,0,0)" paint-order="fill" d="M 57.5 234.5 L 57.5 230.5 M 63.5 234.5 L 63.5 230.5 M 68.5 234.5 L 68.5 230.5 M 74.5 234.5 L 74.5 230.5 M 79.5 234.5 L 79.5 230.5 M 85.5 234.5 L 85.5 230.5 M 91.5 234.5 L 91.5 230.5 M 96.5 234.5 L 96.5 230.5 M 102.5 234.5 L 102.5 230.5 M 107.5 234.5 L 107.5 230.5 M 113.5 234.5 L 113.5 230.5 M 118.5 234.5 L 118.5 230.5 M 124.5 234.5 L 124.5 230.5 M 129.5 234.5 L 129.5 230.5 M 135.5 234.5 L 135.5 230.5 M 140.5 234.5 L 140.5 230.5 M 146.5 234.5 L 146.5 230.5 M 151.5 234.5 L 151.5 230.5 M 157.5 234.5 L 157.5 230.5 M 162.5 234.5 L 162.5 230.5 M 168.5 234.5 L 168.5 230.5 M 173.5 234.5 L 173.5 230.5 M 179.5 234.5 L 179.5 230.5 M 184.5 234.5 L 184.5 230.5 M 190.5 234.5 L 190.5 230.5 M 195.5 234.5 L 195.5 230.5 M 201.5 234.5 L 201.5 230.5 M 206.5 234.5 L 206.5 230.5 M 212.5 234.5 L 212.5 230.5 M 217.5 234.5 L 217.5 230.5 M 223.5 234.5 L 223.5 230.5 M 228.5 234.5 L 228.5 230.5 M 234.5 234.5 L 234.5 230.5 M 240.5 234.5 L 240.5 230.5" stroke-opacity="1" stroke-linejoin="bevel" stroke-miterlimit="10"/><text fill="rgb(68,68,68)" stroke="none" font-family="helvetica" font-size="11px" font-style="normal" font-weight="normal" text-decoration="normal" x="39.82896041870117" y="249" text-anchor="start" dominant-baseline="alphabetic" transform="matrix(1, 0, 0, 1, 0.5, 0.5)" fill-opacity="1">5.400e+8</text><text fill="none" stroke="rgb(0,0,0)" font-family="helvetica" font-size="11px" font-style="normal" font-weight="normal" text-decoration="normal" x="39.82896041870117" y="249" text-anchor="start" dominant-baseline="alphabetic" transform="matrix(1, 0, 0, 1, 0.5, 0.5)" stroke-opacity="0" stroke-linejoin="bevel" stroke-miterlimit="10">5.400e+8</text><text fill="rgb(68,68,68)" stroke="none" font-family="helvetica" font-size="11px" font-style="normal" font-weight="normal" text-decoration="normal" x="67.42192077636719" y="249" text-anchor="start" dominant-baseline="alphabetic" transform="matrix(1, 0, 0, 1, 0.5, 0.5)" fill-opacity="1">5.600e+8</text><text fill="none" stroke="rgb(0,0,0)" font-family="helvetica" font-size="11px" font-style="normal" font-weight="normal" text-decoration="normal" x="67.42192077636719" y="249" text-anchor="start" dominant-baseline="alphabetic" transform="matrix(1, 0, 0, 1, 0.5, 0.5)" stroke-opacity="0" stroke-linejoin="bevel" stroke-miterlimit="10">5.600e+8</text><text fill="rgb(68,68,68)" stroke="none" font-family="helvetica" font-size="11px" font-style="normal" font-weight="normal" text-decoration="normal" x="95.01487731933594" y="249" text-anchor="start" dominant-baseline="alphabetic" transform="matrix(1, 0, 0, 1, 0.5, 0.5)" fill-opacity="1">5.800e+8</text><text fill="none" stroke="rgb(0,0,0)" font-family="helvetica" font-size="11px" font-style="normal" font-weight="normal" text-decoration="normal" x="95.01487731933594" y="249" text-anchor="start" dominant-baseline="alphabetic" transform="matrix(1, 0, 0, 1, 0.5, 0.5)" stroke-opacity="0" stroke-linejoin="bevel" stroke-miterlimit="10">5.800e+8</text><text fill="rgb(68,68,68)" stroke="none" font-family="helvetica" font-size="11px" font-style="normal" font-weight="normal" text-decoration="normal" x="122.60784912109375" y="249" text-anchor="start" dominant-baseline="alphabetic" transform="matrix(1, 0, 0, 1, 0.5, 0.5)" fill-opacity="1">6.000e+8</text><text fill="none" stroke="rgb(0,0,0)" font-family="helvetica" font-size="11px" font-style="normal" font-weight="normal" text-decoration="normal" x="122.60784912109375" y="249" text-anchor="start" dominant-baseline="alphabetic" transform="matrix(1, 0, 0, 1, 0.5, 0.5)" stroke-opacity="0" stroke-linejoin="bevel" stroke-miterlimit="10">6.000e+8</text><text fill="rgb(68,68,68)" stroke="none" font-family="helvetica" font-size="11px" font-style="normal" font-weight="normal" text-decoration="normal" x="150.2008056640625" y="249" text-anchor="start" dominant-baseline="alphabetic" transform="matrix(1, 0, 0, 1, 0.5, 0.5)" fill-opacity="1">6.200e+8</text><text fill="none" stroke="rgb(0,0,0)" font-family="helvetica" font-size="11px" font-style="normal" font-weight="normal" text-decoration="normal" x="150.2008056640625" y="249" text-anchor="start" dominant-baseline="alphabetic" transform="matrix(1, 0, 0, 1, 0.5, 0.5)" stroke-opacity="0" stroke-linejoin="bevel" stroke-miterlimit="10">6.200e+8</text><text fill="rgb(68,68,68)" stroke="none" font-family="helvetica" font-size="11px" font-style="normal" font-weight="normal" text-decoration="normal" x="177.79376220703125" y="249" text-anchor="start" dominant-baseline="alphabetic" transform="matrix(1, 0, 0, 1, 0.5, 0.5)" fill-opacity="1">6.400e+8</text><text fill="none" stroke="rgb(0,0,0)" font-family="helvetica" font-size="11px" font-style="normal" font-weight="normal" text-decoration="normal" x="177.79376220703125" y="249" text-anchor="start" dominant-baseline="alphabetic" transform="matrix(1, 0, 0, 1, 0.5, 0.5)" stroke-opacity="0" stroke-linejoin="bevel" stroke-miterlimit="10">6.400e+8</text><text fill="rgb(68,68,68)" stroke="none" font-family="helvetica" font-size="11px" font-style="normal" font-weight="normal" text-decoration="normal" x="205.38671875" y="249" text-anchor="start" dominant-baseline="alphabetic" transform="matrix(1, 0, 0, 1, 0.5, 0.5)" fill-opacity="1">6.600e+8</text><text fill="none" stroke="rgb(0,0,0)" font-family="helvetica" font-size="11px" font-style="normal" font-weight="normal" text-decoration="normal" x="205.38671875" y="249" text-anchor="start" dominant-baseline="alphabetic" transform="matrix(1, 0, 0, 1, 0.5, 0.5)" stroke-opacity="0" stroke-linejoin="bevel" stroke-miterlimit="10">6.600e+8</text><text fill="rgb(68,68,68)" stroke="none" font-family="helvetica" font-size="13px" font-style="italic" font-weight="normal" text-decoration="normal" x="59.286865234375" y="269" text-anchor="start" dominant-baseline="alphabetic" transform="matrix(1, 0, 0, 1, 0.5, 0.5)" fill-opacity="1">Max stress in TF coil case (Pa)</text><text fill="none" stroke="rgb(0,0,0)" font-family="helvetica" font-size="13px" font-style="italic" font-weight="normal" text-decoration="normal" x="59.286865234375" y="269" text-anchor="start" dominant-baseline="alphabetic" transform="matrix(1, 0, 0, 1, 0.5, 0.5)" stroke-opacity="0" stroke-linejoin="bevel" stroke-miterlimit="10">Max stress in TF coil case (Pa)</text><path fill="none" stroke="rgb(0,0,0)" paint-order="fill" d="M 52.5 230.5 L 52.5 27.5" stroke-opacity="1" stroke-linejoin="bevel" stroke-miterlimit="10"/><path fill="none" stroke="rgb(0,0,0)" paint-order="fill" d="M 46.5 221.5 L 54.5 221.5 M 46.5 182.5 L 54.5 182.5 M 46.5 144.5 L 54.5 144.5 M 46.5 106.5 L 54.5 106.5 M 46.5 67.5 L 54.5 67.5 M 46.5 29.5 L 54.5 29.5" stroke-opacity="1" stroke-linejoin="bevel" stroke-miterlimit="10"/><path fill="none" stroke="rgb(0,0,0)" paint-order="fill" d="M 48.5 228.5 L 52.5 228.5 M 48.5 221.5 L 52.5 221.5 M 48.5 213.5 L 52.5 213.5 M 48.5 205.5 L 52.5 205.5 M 48.5 198.5 L 52.5 198.5 M 48.5 190.5 L 52.5 190.5 M 48.5 182.5 L 52.5 182.5 M 48.5 175.5 L 52.5 175.5 M 48.5 167.5 L 52.5 167.5 M 48.5 159.5 L 52.5 159.5 M 48.5 152.5 L 52.5 152.5 M 48.5 144.5 L 52.5 144.5 M 48.5 136.5 L 52.5 136.5 M 48.5 129.5 L 52.5 129.5 M 48.5 121.5 L 52.5 121.5 M 48.5 113.5 L 52.5 113.5 M 48.5 106.5 L 52.5 106.5 M 48.5 98.5 L 52.5 98.5 M 48.5 90.5 L 52.5 90.5 M 48.5 83.5 L 52.5 83.5 M 48.5 75.5 L 52.5 75.5 M 48.5 67.5 L 52.5 67.5 M 48.5 60.5 L 52.5 60.5 M 48.5 52.5 L 52.5 52.5 M 48.5 44.5 L 52.5 44.5 M 48.5 37.5 L 52.5 37.5 M 48.5 29.5 L 52.5 29.5" stroke-opacity="1" stroke-linejoin="bevel" stroke-miterlimit="10"/><text fill="rgb(68,68,68)" stroke="none" font-family="helvetica" font-size="11px" font-style="normal" font-weight="normal" text-decoration="normal" x="34.88232421875" y="224.77272033691406" text-anchor="start" dominant-baseline="alphabetic" transform="matrix(1, 0, 0, 1, 0.5, 0.5)" fill-opacity="1">0</text><text fill="none" stroke="rgb(0,0,0)" font-family="helvetica" font-size="11px" font-style="normal" font-weight="normal" text-decoration="normal" x="34.88232421875" y="224.77272033691406" text-anchor="start" dominant-baseline="alphabetic" transform="matrix(1, 0, 0, 1, 0.5, 0.5)" stroke-opacity="0" stroke-linejoin="bevel" stroke-miterlimit="10">0</text><text fill="rgb(68,68,68)" stroke="none" font-family="helvetica" font-size="11px" font-style="normal" font-weight="normal" text-decoration="normal" x="25.70849609375" y="186.4026336669922" text-anchor="start" dominant-baseline="alphabetic" transform="matrix(1, 0, 0, 1, 0.5, 0.5)" fill-opacity="1">0.2</text><text fill="none" stroke="rgb(0,0,0)" font-family="helvetica" font-size="11px" font-style="normal" font-weight="normal" text-decoration="normal" x="25.70849609375" y="186.4026336669922" text-anchor="start" dominant-baseline="alphabetic" transform="matrix(1, 0, 0, 1, 0.5, 0.5)" stroke-opacity="0" stroke-linejoin="bevel" stroke-miterlimit="10">0.2</text><text fill="rgb(68,68,68)" stroke="none" font-family="helvetica" font-size="11px" font-style="normal" font-weight="normal" text-decoration="normal" x="25.70849609375" y="148.0325469970703" text-anchor="start" dominant-baseline="alphabetic" transform="matrix(1, 0, 0, 1, 0.5, 0.5)" fill-opacity="1">0.4</text><text fill="none" stroke="rgb(0,0,0)" font-family="helvetica" font-size="11px" font-style="normal" font-weight="normal" text-decoration="normal" x="25.70849609375" y="148.0325469970703" text-anchor="start" dominant-baseline="alphabetic" transform="matrix(1, 0, 0, 1, 0.5, 0.5)" stroke-opacity="0" stroke-linejoin="bevel" stroke-miterlimit="10">0.4</text><text fill="rgb(68,68,68)" stroke="none" font-family="helvetica" font-size="11px" font-style="normal" font-weight="normal" text-decoration="normal" x="25.70849609375" y="109.66246795654297" text-anchor="start" dominant-baseline="alphabetic" transform="matrix(1, 0, 0, 1, 0.5, 0.5)" fill-opacity="1">0.6</text><text fill="none" stroke="rgb(0,0,0)" font-family="helvetica" font-size="11px" font-style="normal" font-weight="normal" text-decoration="normal" x="25.70849609375" y="109.66246795654297" text-anchor="start" dominant-baseline="alphabetic" transform="matrix(1, 0, 0, 1, 0.5, 0.5)" stroke-opacity="0" stroke-linejoin="bevel" stroke-miterlimit="10">0.6</text><text fill="rgb(68,68,68)" stroke="none" font-family="helvetica" font-size="11px" font-style="normal" font-weight="normal" text-decoration="normal" x="25.70849609375" y="71.29237365722656" text-anchor="start" dominant-baseline="alphabetic" transform="matrix(1, 0, 0, 1, 0.5, 0.5)" fill-opacity="1">0.8</text><text fill="none" stroke="rgb(0,0,0)" font-family="helvetica" font-size="11px" font-style="normal" font-weight="normal" text-decoration="normal" x="25.70849609375" y="71.29237365722656" text-anchor="start" dominant-baseline="alphabetic" transform="matrix(1, 0, 0, 1, 0.5, 0.5)" stroke-opacity="0" stroke-linejoin="bevel" stroke-miterlimit="10">0.8</text><text fill="rgb(68,68,68)" stroke="none" font-family="helvetica" font-size="11px" font-style="normal" font-weight="normal" text-decoration="normal" x="34.88232421875" y="32.92228889465332" text-anchor="start" dominant-baseline="alphabetic" transform="matrix(1, 0, 0, 1, 0.5, 0.5)" fill-opacity="1">1</text><text fill="none" stroke="rgb(0,0,0)" font-family="helvetica" font-size="11px" font-style="normal" font-weight="normal" text-decoration="normal" x="34.88232421875" y="32.92228889465332" text-anchor="start" dominant-baseline="alphabetic" transform="matrix(1, 0, 0, 1, 0.5, 0.5)" stroke-opacity="0" stroke-linejoin="bevel" stroke-miterlimit="10">1</text><text fill="rgb(68,68,68)" stroke="none" font-family="helvetica" font-size="13px" font-style="italic" font-weight="normal" text-decoration="normal" x="-47.31689453125" y="125.5" text-anchor="start" dominant-baseline="alphabetic" transform="matrix(6.123233995736766e-17, -1, 1, 6.123233995736766e-17, -110.29150390625, 146.70849609375)" fill-opacity="1">Normalised Probability</text><text fill="none" stroke="rgb(0,0,0)" font-family="helvetica" font-size="13px" font-style="italic" font-weight="normal" text-decoration="normal" x="-47.31689453125" y="125.5" text-anchor="start" dominant-baseline="alphabetic" transform="matrix(6.123233995736766e-17, -1, 1, 6.123233995736766e-17, -110.29150390625, 146.70849609375)" stroke-opacity="0" stroke-linejoin="bevel" stroke-miterlimit="10">Normalised Probability</text><path fill="rgb(255,249,186)" stroke="rgb(255,0,0)" paint-order="fill" d="M 143.7407174356548 36.72727272727275 L 143.7407174356548 36.72727272727275 L 143.7407174356548 221.27272727272728 L 143.7407174356548 221.27272727272728 L 143.7407174356548 36.72727272727275 Z" fill-opacity="0.4" clip-path="url(#VikkSeMkctMl)" stroke-opacity="1" stroke-linejoin="bevel" stroke-miterlimit="10" stroke-width="2" stroke-dasharray="6"/><path fill="rgb(255,249,186)" stroke="rgb(50,205,50)" paint-order="fill" d="M 182.98349654436333 36.72727272727275 L 182.98349654436333 36.72727272727275 L 182.98349654436333 221.27272727272728 L 182.98349654436333 221.27272727272728 L 182.98349654436333 36.72727272727275 Z" fill-opacity="0.4" clip-path="url(#QfedzXJSTdxM)" stroke-opacity="1" stroke-linejoin="bevel" stroke-miterlimit="10" stroke-width="2" stroke-dasharray="6"/><text fill="rgb(68,68,68)" stroke="none" font-family="helvetica" font-size="13px" font-style="normal" font-weight="bold" text-decoration="normal" x="52" y="19" text-anchor="start" dominant-baseline="alphabetic" transform="matrix(1, 0, 0, 1, 0.5, 0.5)" fill-opacity="1">Convergance Probability</text><text fill="none" stroke="rgb(0,0,0)" font-family="helvetica" font-size="13px" font-style="normal" font-weight="bold" text-decoration="normal" x="52" y="19" text-anchor="start" dominant-baseline="alphabetic" transform="matrix(1, 0, 0, 1, 0.5, 0.5)" stroke-opacity="0" stroke-miterlimit="10" stroke-dasharray="">Convergance Probability</text></svg>