<svg version="1.1" xmlns="http://www.w3.org/2000/svg" width="275" height="275"><defs><clipPath id="rmmKeEnUymbJ"><path fill="none" stroke="none" d="M 52.5 27.5 L 245.5 27.5 L 245.5 230.5 L 52.5 230.5 L 52.5 27.5 Z"/></clipPath><clipPath id="TMvlWvoeBwLR"><path fill="none" stroke="none" d="M 52.5 27.5 L 245.5 27.5 L 245.5 230.5 L 52.5 230.5 L 52.5 27.5 Z"/></clipPath><clipPath id="UExXuNmuBWUM"><path fill="none" stroke="none" d="M 52.5 27.5 L 245.5 27.5 L 245.5 230.5 L 52.5 230.5 L 52.5 27.5 Z"/></clipPath><clipPath id="uCzLcqJnkGNg"><path fill="none" stroke="none" d="M 52.5 27.5 L 245.5 27.5 L 245.5 230.5 L 52.5 230.5 L 52.5 27.5 Z"/></clipPath><pattern id="kmsGAtUgbWTM" width="3" height="3" patternUnits="userSpaceOnUse"><path fill="rgb(0,0,0)" stroke="none" paint-order="stroke" d="M 2.75 2 A 0.75 0.75 0 0 0 1.25 2 A 0.75 0.75 0 0 0 2.75 2" fill-opacity="0.14901960784313725"/></pattern><clipPath id="RxmGGUZNrdwd"><path fill="none" stroke="none" d="M 52.5 27.5 L 245.5 27.5 L 245.5 230.5 L 52.5 230.5 L 52.5 27.5 Z"/></clipPath><clipPath id="UsUhnmLkKeEu"><path fill="none" stroke="none" d="M 52.5 27.5 L 245.5 27.5 L 245.5 230.5 L 52.5 230.5 L 52.5 27.5 Z"/></clipPath><clipPath id="DNkbTietnItX"><path fill="none" stroke="none" d="M 52.5 27.5 L 245.5 27.5 L 245.5 230.5 L 52.5 230.5 L 52.5 27.5 Z"/></clipPath><clipPath id="NkWsZFJUnCVl"><path fill="none" stroke="none" d="M 52.5 27.5 L 245.5 27.5 L 245.5 230.5 L 52.5 230.5 L 52.5 27.5 Z"/></clipPath></defs><path fill="rgb(255,255,255)" stroke="none" paint-order="stroke" d="M 0.5 0.5 L 275.5 0.5 L 275.5 275.5 L 0.5 275.5 L 0.5 0.5 Z" fill-opacity="1"/><rect fill="#FFFFFF" stroke="none" x="52" y="27" width="193" height="203" transform="matrix(1, 0, 0, 1, 0.5, 0.5)"/><path fill="rgb(255,255,255)" stroke="none" paint-order="stroke" d="M 52.5 27.5 L 245.5 27.5 L 245.5 230.5 L 52.5 230.5 L 52.5 27.5 Z" fill-opacity="1"/><path fill="none" stroke="rgb(229,229,229)" paint-order="fill" d="M 52.5 27.5 L 245.5 27.5 L 245.5 230.5 L 52.5 230.5 L 52.5 27.5 Z" stroke-opacity="1" stroke-linejoin="bevel" stroke-miterlimit="10"/><path fill="none" stroke="rgb(229,229,229)" paint-order="fill" d="M 80.5 230.5 L 80.5 27.5 M 109.5 230.5 L 109.5 27.5 M 139.5 230.5 L 139.5 27.5 M 168.5 230.5 L 168.5 27.5 M 197.5 230.5 L 197.5 27.5 M 227.5 230.5 L 227.5 27.5" stroke-opacity="1" stroke-linejoin="bevel" stroke-miterlimit="10" clip-path="url(#rmmKeEnUymbJ)"/><path fill="none" stroke="rgb(229,229,229)" paint-order="fill" d="M 52.5 221.5 L 245.5 221.5 M 52.5 180.5 L 245.5 180.5 M 52.5 138.5 L 245.5 138.5 M 52.5 97.5 L 245.5 97.5 M 52.5 56.5 L 245.5 56.5" stroke-opacity="1" stroke-linejoin="bevel" stroke-miterlimit="10" clip-path="url(#TMvlWvoeBwLR)"/><path fill="none" stroke="rgb(0,0,0)" paint-order="fill" d="M 106.56365203857422 43.97521209716797 L 106.56365203857422 51.05440139770508" stroke-opacity="1" stroke-linejoin="bevel" stroke-miterlimit="10" clip-path="url(#UExXuNmuBWUM)"/><path fill="none" stroke="rgb(0,0,0)" paint-order="fill" d="M 183.7206573486328 32.986114501953125 L 183.7206573486328 40.46842956542969" stroke-opacity="1" stroke-linejoin="bevel" stroke-miterlimit="10" clip-path="url(#UExXuNmuBWUM)"/><path fill="none" stroke="rgb(0,0,0)" paint-order="fill" d="M 101.56365203857422 43.97521209716797 L 111.56365203857422 43.97521209716797" stroke-opacity="1" stroke-linejoin="bevel" stroke-miterlimit="10" clip-path="url(#UExXuNmuBWUM)"/><path fill="none" stroke="rgb(0,0,0)" paint-order="fill" d="M 178.7206573486328 32.986114501953125 L 188.7206573486328 32.986114501953125" stroke-opacity="1" stroke-linejoin="bevel" stroke-miterlimit="10" clip-path="url(#UExXuNmuBWUM)"/><path fill="none" stroke="rgb(0,0,0)" paint-order="fill" d="M 111.56365203857422 51.05440139770508 L 101.56365203857422 51.05440139770508" stroke-opacity="1" stroke-linejoin="bevel" stroke-miterlimit="10" clip-path="url(#UExXuNmuBWUM)"/><path fill="none" stroke="rgb(0,0,0)" paint-order="fill" d="M 188.7206573486328 40.46842956542969 L 178.7206573486328 40.46842956542969" stroke-opacity="1" stroke-linejoin="bevel" stroke-miterlimit="10" clip-path="url(#UExXuNmuBWUM)"/><path fill="rgb(128,128,128)" stroke="none" paint-order="stroke" d="M 67.98514556884766 36.727272033691406 L 222.2991485595703 36.727272033691406 L 222.2991485595703 221.27273559570312 L 67.98514556884766 221.27273559570312 L 67.98514556884766 36.727272033691406 Z" fill-opacity="0.10196078431372549" clip-path="url(#uCzLcqJnkGNg)"/><path fill="url(#kmsGAtUgbWTM)" stroke="rgb(0,0,0)" paint-order="fill" d="M 67.98514556884766 36.727272033691406 L 222.2991485595703 36.727272033691406 L 222.2991485595703 221.27273559570312 L 67.98514556884766 221.27273559570312 L 67.98514556884766 36.727272033691406 Z" clip-path="url(#uCzLcqJnkGNg)" stroke-opacity="0.2" stroke-linejoin="bevel" stroke-miterlimit="10"/><path fill="rgb(100,149,237)" stroke="rgb(31,119,180)" paint-order="fill" d="M 67.98515319824219 47.51480484008789 L 145.14215087890625 47.51480484008789 L 145.14215087890625 221.27272033691406 L 67.98515319824219 221.27272033691406 L 67.98515319824219 47.51480484008789 Z" fill-opacity="0.5019607843137255" clip-path="url(#RxmGGUZNrdwd)" stroke-opacity="0.5019607843137255" stroke-linejoin="bevel" stroke-miterlimit="10"/><path fill="rgb(100,149,237)" stroke="rgb(31,119,180)" paint-order="fill" d="M 145.14215087890625 36.727272033691406 L 222.29916381835938 36.727272033691406 L 222.29916381835938 221.27272033691406 L 145.14215087890625 221.27272033691406 L 145.14215087890625 36.727272033691406 Z" fill-opacity="0.5019607843137255" clip-path="url(#RxmGGUZNrdwd)" stroke-opacity="0.5019607843137255" stroke-linejoin="bevel" stroke-miterlimit="10"/><path fill="none" stroke="rgb(0,0,0)" paint-order="fill" d="M 52.5 230.5 L 245.5 230.5" stroke-opacity="1" stroke-linejoin="bevel" stroke-miterlimit="10"/><path fill="none" stroke="rgb(0,0,0)" paint-order="fill" d="M 80.5 236.5 L 80.5 228.5 M 109.5 236.5 L 109.5 228.5 M 139.5 236.5 L 139.5 228.5 M 168.5 236.5 L 168.5 228.5 M 197.5 236.5 L 197.5 228.5 M 227.5 236.5 L 227.5 228.5" stroke-opacity="1" stroke-linejoin="bevel" stroke-miterlimit="10"/><path fill="none" stroke="rgb(0,0,0)" paint-order="fill" d="M 74.5 234.5 L 74.5 230.5 M 68.5 234.5 L 68.5 230.5 M 63.5 234.5 L 63.5 230.5 M 57.5 234.5 L 57.5 230.5 M 80.5 234.5 L 80.5 230.5 M 86.5 234.5 L 86.5 230.5 M 92.5 234.5 L 92.5 230.5 M 98.5 234.5 L 98.5 230.5 M 104.5 234.5 L 104.5 230.5 M 109.5 234.5 L 109.5 230.5 M 115.5 234.5 L 115.5 230.5 M 121.5 234.5 L 121.5 230.5 M 127.5 234.5 L 127.5 230.5 M 133.5 234.5 L 133.5 230.5 M 139.5 234.5 L 139.5 230.5 M 145.5 234.5 L 145.5 230.5 M 150.5 234.5 L 150.5 230.5 M 156.5 234.5 L 156.5 230.5 M 162.5 234.5 L 162.5 230.5 M 168.5 234.5 L 168.5 230.5 M 174.5 234.5 L 174.5 230.5 M 180.5 234.5 L 180.5 230.5 M 186.5 234.5 L 186.5 230.5 M 191.5 234.5 L 191.5 230.5 M 197.5 234.5 L 197.5 230.5 M 203.5 234.5 L 203.5 230.5 M 209.5 234.5 L 209.5 230.5 M 215.5 234.5 L 215.5 230.5 M 221.5 234.5 L 221.5 230.5 M 227.5 234.5 L 227.5 230.5 M 232.5 234.5 L 232.5 230.5 M 238.5 234.5 L 238.5 230.5 M 244.5 234.5 L 244.5 230.5" stroke-opacity="1" stroke-linejoin="bevel" stroke-miterlimit="10"/><text fill="rgb(68,68,68)" stroke="none" font-family="helvetica" font-size="11px" font-style="normal" font-weight="normal" text-decoration="normal" x="57.01307678222656" y="249" text-anchor="start" dominant-baseline="alphabetic" transform="matrix(1, 0, 0, 1, 0.5, 0.5)" fill-opacity="1">5.500e+8</text><text fill="none" stroke="rgb(0,0,0)" font-family="helvetica" font-size="11px" font-style="normal" font-weight="normal" text-decoration="normal" x="57.01307678222656" y="249" text-anchor="start" dominant-baseline="alphabetic" transform="matrix(1, 0, 0, 1, 0.5, 0.5)" stroke-opacity="0" stroke-linejoin="bevel" stroke-miterlimit="10">5.500e+8</text><text fill="rgb(68,68,68)" stroke="none" font-family="helvetica" font-size="11px" font-style="normal" font-weight="normal" text-decoration="normal" x="86.31525421142578" y="249" text-anchor="start" dominant-baseline="alphabetic" transform="matrix(1, 0, 0, 1, 0.5, 0.5)" fill-opacity="1">6.000e+8</text><text fill="none" stroke="rgb(0,0,0)" font-family="helvetica" font-size="11px" font-style="normal" font-weight="normal" text-decoration="normal" x="86.31525421142578" y="249" text-anchor="start" dominant-baseline="alphabetic" transform="matrix(1, 0, 0, 1, 0.5, 0.5)" stroke-opacity="0" stroke-linejoin="bevel" stroke-miterlimit="10">6.000e+8</text><text fill="rgb(68,68,68)" stroke="none" font-family="helvetica" font-size="11px" font-style="normal" font-weight="normal" text-decoration="normal" x="115.61741638183594" y="249" text-anchor="start" dominant-baseline="alphabetic" transform="matrix(1, 0, 0, 1, 0.5, 0.5)" fill-opacity="1">6.500e+8</text><text fill="none" stroke="rgb(0,0,0)" font-family="helvetica" font-size="11px" font-style="normal" font-weight="normal" text-decoration="normal" x="115.61741638183594" y="249" text-anchor="start" dominant-baseline="alphabetic" transform="matrix(1, 0, 0, 1, 0.5, 0.5)" stroke-opacity="0" stroke-linejoin="bevel" stroke-miterlimit="10">6.500e+8</text><text fill="rgb(68,68,68)" stroke="none" font-family="helvetica" font-size="11px" font-style="normal" font-weight="normal" text-decoration="normal" x="144.91958618164062" y="249" text-anchor="start" dominant-baseline="alphabetic" transform="matrix(1, 0, 0, 1, 0.5, 0.5)" fill-opacity="1">7.000e+8</text><text fill="none" stroke="rgb(0,0,0)" font-family="helvetica" font-size="11px" font-style="normal" font-weight="normal" text-decoration="normal" x="144.91958618164062" y="249" text-anchor="start" dominant-baseline="alphabetic" transform="matrix(1, 0, 0, 1, 0.5, 0.5)" stroke-opacity="0" stroke-linejoin="bevel" stroke-miterlimit="10">7.000e+8</text><text fill="rgb(68,68,68)" stroke="none" font-family="helvetica" font-size="11px" font-style="normal" font-weight="normal" text-decoration="normal" x="174.22177124023438" y="249" text-anchor="start" dominant-baseline="alphabetic" transform="matrix(1, 0, 0, 1, 0.5, 0.5)" fill-opacity="1">7.500e+8</text><text fill="none" stroke="rgb(0,0,0)" font-family="helvetica" font-size="11px" font-style="normal" font-weight="normal" text-decoration="normal" x="174.22177124023438" y="249" text-anchor="start" dominant-baseline="alphabetic" transform="matrix(1, 0, 0, 1, 0.5, 0.5)" stroke-opacity="0" stroke-linejoin="bevel" stroke-miterlimit="10">7.500e+8</text><text fill="rgb(68,68,68)" stroke="none" font-family="helvetica" font-size="11px" font-style="normal" font-weight="normal" text-decoration="normal" x="203.52394104003906" y="249" text-anchor="start" dominant-baseline="alphabetic" transform="matrix(1, 0, 0, 1, 0.5, 0.5)" fill-opacity="1">8.000e+8</text><text fill="none" stroke="rgb(0,0,0)" font-family="helvetica" font-size="11px" font-style="normal" font-weight="normal" text-decoration="normal" x="203.52394104003906" y="249" text-anchor="start" dominant-baseline="alphabetic" transform="matrix(1, 0, 0, 1, 0.5, 0.5)" stroke-opacity="0" stroke-linejoin="bevel" stroke-miterlimit="10">8.000e+8</text><text fill="rgb(68,68,68)" stroke="none" font-family="helvetica" font-size="13px" font-style="italic" font-weight="normal" text-decoration="normal" x="56.75732421875" y="269" text-anchor="start" dominant-baseline="alphabetic" transform="matrix(1, 0, 0, 1, 0.5, 0.5)" fill-opacity="1">Max sheer stress in TF coil (Pa)</text><text fill="none" stroke="rgb(0,0,0)" font-family="helvetica" font-size="13px" font-style="italic" font-weight="normal" text-decoration="normal" x="56.75732421875" y="269" text-anchor="start" dominant-baseline="alphabetic" transform="matrix(1, 0, 0, 1, 0.5, 0.5)" stroke-opacity="0" stroke-linejoin="bevel" stroke-miterlimit="10">Max sheer stress in TF coil (Pa)</text><path fill="none" stroke="rgb(0,0,0)" paint-order="fill" d="M 52.5 230.5 L 52.5 27.5" stroke-opacity="1" stroke-linejoin="bevel" stroke-miterlimit="10"/><path fill="none" stroke="rgb(0,0,0)" paint-order="fill" d="M 46.5 221.5 L 54.5 221.5 M 46.5 180.5 L 54.5 180.5 M 46.5 138.5 L 54.5 138.5 M 46.5 97.5 L 54.5 97.5 M 46.5 56.5 L 54.5 56.5" stroke-opacity="1" stroke-linejoin="bevel" stroke-miterlimit="10"/><path fill="none" stroke="rgb(0,0,0)" paint-order="fill" d="M 48.5 229.5 L 52.5 229.5 M 48.5 221.5 L 52.5 221.5 M 48.5 213.5 L 52.5 213.5 M 48.5 204.5 L 52.5 204.5 M 48.5 196.5 L 52.5 196.5 M 48.5 188.5 L 52.5 188.5 M 48.5 180.5 L 52.5 180.5 M 48.5 171.5 L 52.5 171.5 M 48.5 163.5 L 52.5 163.5 M 48.5 155.5 L 52.5 155.5 M 48.5 147.5 L 52.5 147.5 M 48.5 138.5 L 52.5 138.5 M 48.5 130.5 L 52.5 130.5 M 48.5 122.5 L 52.5 122.5 M 48.5 114.5 L 52.5 114.5 M 48.5 105.5 L 52.5 105.5 M 48.5 97.5 L 52.5 97.5 M 48.5 89.5 L 52.5 89.5 M 48.5 81.5 L 52.5 81.5 M 48.5 72.5 L 52.5 72.5 M 48.5 64.5 L 52.5 64.5 M 48.5 56.5 L 52.5 56.5 M 48.5 48.5 L 52.5 48.5 M 48.5 40.5 L 52.5 40.5 M 48.5 31.5 L 52.5 31.5" stroke-opacity="1" stroke-linejoin="bevel" stroke-miterlimit="10"/><text fill="rgb(68,68,68)" stroke="none" font-family="helvetica" font-size="11px" font-style="normal" font-weight="normal" text-decoration="normal" x="34.88232421875" y="224.77272033691406" text-anchor="start" dominant-baseline="alphabetic" transform="matrix(1, 0, 0, 1, 0.5, 0.5)" fill-opacity="1">0</text><text fill="none" stroke="rgb(0,0,0)" font-family="helvetica" font-size="11px" font-style="normal" font-weight="normal" text-decoration="normal" x="34.88232421875" y="224.77272033691406" text-anchor="start" dominant-baseline="alphabetic" transform="matrix(1, 0, 0, 1, 0.5, 0.5)" stroke-opacity="0" stroke-linejoin="bevel" stroke-miterlimit="10">0</text><text fill="rgb(68,68,68)" stroke="none" font-family="helvetica" font-size="11px" font-style="normal" font-weight="normal" text-decoration="normal" x="25.70849609375" y="183.5852813720703" text-anchor="start" dominant-baseline="alphabetic" transform="matrix(1, 0, 0, 1, 0.5, 0.5)" fill-opacity="1">0.1</text><text fill="none" stroke="rgb(0,0,0)" font-family="helvetica" font-size="11px" font-style="normal" font-weight="normal" text-decoration="normal" x="25.70849609375" y="183.5852813720703" text-anchor="start" dominant-baseline="alphabetic" transform="matrix(1, 0, 0, 1, 0.5, 0.5)" stroke-opacity="0" stroke-linejoin="bevel" stroke-miterlimit="10">0.1</text><text fill="rgb(68,68,68)" stroke="none" font-family="helvetica" font-size="11px" font-style="normal" font-weight="normal" text-decoration="normal" x="25.70849609375" y="142.39784240722656" text-anchor="start" dominant-baseline="alphabetic" transform="matrix(1, 0, 0, 1, 0.5, 0.5)" fill-opacity="1">0.2</text><text fill="none" stroke="rgb(0,0,0)" font-family="helvetica" font-size="11px" font-style="normal" font-weight="normal" text-decoration="normal" x="25.70849609375" y="142.39784240722656" text-anchor="start" dominant-baseline="alphabetic" transform="matrix(1, 0, 0, 1, 0.5, 0.5)" stroke-opacity="0" stroke-linejoin="bevel" stroke-miterlimit="10">0.2</text><text fill="rgb(68,68,68)" stroke="none" font-family="helvetica" font-size="11px" font-style="normal" font-weight="normal" text-decoration="normal" x="25.70849609375" y="101.21039581298828" text-anchor="start" dominant-baseline="alphabetic" transform="matrix(1, 0, 0, 1, 0.5, 0.5)" fill-opacity="1">0.3</text><text fill="none" stroke="rgb(0,0,0)" font-family="helvetica" font-size="11px" font-style="normal" font-weight="normal" text-decoration="normal" x="25.70849609375" y="101.21039581298828" text-anchor="start" dominant-baseline="alphabetic" transform="matrix(1, 0, 0, 1, 0.5, 0.5)" stroke-opacity="0" stroke-linejoin="bevel" stroke-miterlimit="10">0.3</text><text fill="rgb(68,68,68)" stroke="none" font-family="helvetica" font-size="11px" font-style="normal" font-weight="normal" text-decoration="normal" x="25.70849609375" y="60.02295684814453" text-anchor="start" dominant-baseline="alphabetic" transform="matrix(1, 0, 0, 1, 0.5, 0.5)" fill-opacity="1">0.4</text><text fill="none" stroke="rgb(0,0,0)" font-family="helvetica" font-size="11px" font-style="normal" font-weight="normal" text-decoration="normal" x="25.70849609375" y="60.02295684814453" text-anchor="start" dominant-baseline="alphabetic" transform="matrix(1, 0, 0, 1, 0.5, 0.5)" stroke-opacity="0" stroke-linejoin="bevel" stroke-miterlimit="10">0.4</text><text fill="rgb(68,68,68)" stroke="none" font-family="helvetica" font-size="13px" font-style="italic" font-weight="normal" text-decoration="normal" x="-47.31689453125" y="125.5" text-anchor="start" dominant-baseline="alphabetic" transform="matrix(6.123233995736766e-17, -1, 1, 6.123233995736766e-17, -110.29150390625, 146.70849609375)" fill-opacity="1">Normalised Probability</text><text fill="none" stroke="rgb(0,0,0)" font-family="helvetica" font-size="13px" font-style="italic" font-weight="normal" text-decoration="normal" x="-47.31689453125" y="125.5" text-anchor="start" dominant-baseline="alphabetic" transform="matrix(6.123233995736766e-17, -1, 1, 6.123233995736766e-17, -110.29150390625, 146.70849609375)" stroke-opacity="0" stroke-linejoin="bevel" stroke-miterlimit="10">Normalised Probability</text><path fill="rgb(255,249,186)" stroke="rgb(255,0,0)" paint-order="fill" d="M 145.18981208767264 36.72727272727272 L 145.18981208767264 36.72727272727272 L 145.18981208767264 221.27272727272725 L 145.18981208767264 221.27272727272725 L 145.18981208767264 36.72727272727272 Z" fill-opacity="0.4" clip-path="url(#UsUhnmLkKeEu)" stroke-opacity="1" stroke-linejoin="bevel" stroke-miterlimit="10" stroke-width="2" stroke-dasharray="6"/><path fill="rgb(255,249,186)" stroke="rgb(50,205,50)" paint-order="fill" d="M 183.72065144099525 36.72727272727272 L 183.72065144099525 36.72727272727272 L 183.72065144099525 221.27272727272725 L 183.72065144099525 221.27272727272725 L 183.72065144099525 36.72727272727272 Z" fill-opacity="0.4" clip-path="url(#DNkbTietnItX)" stroke-opacity="1" stroke-linejoin="bevel" stroke-miterlimit="10" stroke-width="2" stroke-dasharray="6"/><text fill="rgb(68,68,68)" stroke="none" font-family="helvetica" font-size="13px" font-style="normal" font-weight="bold" text-decoration="normal" x="52" y="19" text-anchor="start" dominant-baseline="alphabetic" transform="matrix(1, 0, 0, 1, 0.5, 0.5)" fill-opacity="1">Convergance Probability</text><text fill="none" stroke="rgb(0,0,0)" font-family="helvetica" font-size="13px" font-style="normal" font-weight="bold" text-decoration="normal" x="52" y="19" text-anchor="start" dominant-baseline="alphabetic" transform="matrix(1, 0, 0, 1, 0.5, 0.5)" stroke-opacity="0" stroke-miterlimit="10" stroke-dasharray="">Convergance Probability</text></svg>