<svg version="1.1" xmlns="http://www.w3.org/2000/svg" width="275" height="275"><defs><clipPath id="OUAeFJsUWNBx"><path fill="none" stroke="none" d="M 52.5 27.5 L 245.5 27.5 L 245.5 230.5 L 52.5 230.5 L 52.5 27.5 Z"/></clipPath><clipPath id="BaNdZHWFpUWR"><path fill="none" stroke="none" d="M 52.5 27.5 L 245.5 27.5 L 245.5 230.5 L 52.5 230.5 L 52.5 27.5 Z"/></clipPath><clipPath id="intdcouBAbWS"><path fill="none" stroke="none" d="M 52.5 27.5 L 245.5 27.5 L 245.5 230.5 L 52.5 230.5 L 52.5 27.5 Z"/></clipPath><clipPath id="dOyVGFKKzIQm"><path fill="none" stroke="none" d="M 52.5 27.5 L 245.5 27.5 L 245.5 230.5 L 52.5 230.5 L 52.5 27.5 Z"/></clipPath><pattern id="xxnNmVprMmSA" width="3" height="3" patternUnits="userSpaceOnUse"><path fill="rgb(0,0,0)" stroke="none" paint-order="stroke" d="M 2.75 2 A 0.75 0.75 0 0 0 1.25 2 A 0.75 0.75 0 0 0 2.75 2" fill-opacity="0.14901960784313725"/></pattern><clipPath id="AXwXxrRNeRIS"><path fill="none" stroke="none" d="M 52.5 27.5 L 245.5 27.5 L 245.5 230.5 L 52.5 230.5 L 52.5 27.5 Z"/></clipPath><clipPath id="JGdUHVykAFqU"><path fill="none" stroke="none" d="M 52.5 27.5 L 245.5 27.5 L 245.5 230.5 L 52.5 230.5 L 52.5 27.5 Z"/></clipPath><clipPath id="bCmaXtTreSuP"><path fill="none" stroke="none" d="M 52.5 27.5 L 245.5 27.5 L 245.5 230.5 L 52.5 230.5 L 52.5 27.5 Z"/></clipPath><clipPath id="knTGvElJXQnm"><path fill="none" stroke="none" d="M 52.5 27.5 L 245.5 27.5 L 245.5 230.5 L 52.5 230.5 L 52.5 27.5 Z"/></clipPath></defs><path fill="rgb(255,255,255)" stroke="none" paint-order="stroke" d="M 0.5 0.5 L 275.5 0.5 L 275.5 275.5 L 0.5 275.5 L 0.5 0.5 Z" fill-opacity="1"/><rect fill="#FFFFFF" stroke="none" x="52" y="27" width="193" height="203" transform="matrix(1, 0, 0, 1, 0.5, 0.5)"/><path fill="rgb(255,255,255)" stroke="none" paint-order="stroke" d="M 52.5 27.5 L 245.5 27.5 L 245.5 230.5 L 52.5 230.5 L 52.5 27.5 Z" fill-opacity="1"/><path fill="none" stroke="rgb(229,229,229)" paint-order="fill" d="M 52.5 27.5 L 245.5 27.5 L 245.5 230.5 L 52.5 230.5 L 52.5 27.5 Z" stroke-opacity="1" stroke-linejoin="bevel" stroke-miterlimit="10"/><path fill="none" stroke="rgb(229,229,229)" paint-order="fill" d="M 58.5 230.5 L 58.5 27.5 M 112.5 230.5 L 112.5 27.5 M 167.5 230.5 L 167.5 27.5 M 221.5 230.5 L 221.5 27.5" stroke-opacity="1" stroke-linejoin="bevel" stroke-miterlimit="10" clip-path="url(#OUAeFJsUWNBx)"/><path fill="none" stroke="rgb(229,229,229)" paint-order="fill" d="M 52.5 221.5 L 245.5 221.5 M 52.5 176.5 L 245.5 176.5 M 52.5 132.5 L 245.5 132.5 M 52.5 87.5 L 245.5 87.5 M 52.5 43.5 L 245.5 43.5" stroke-opacity="1" stroke-linejoin="bevel" stroke-miterlimit="10" clip-path="url(#BaNdZHWFpUWR)"/><path fill="none" stroke="rgb(0,0,0)" paint-order="fill" d="M 102.44664764404297 90.19117736816406 L 102.44664764404297 102.15503692626953" stroke-opacity="1" stroke-linejoin="bevel" stroke-miterlimit="10" clip-path="url(#intdcouBAbWS)"/><path fill="none" stroke="rgb(0,0,0)" paint-order="fill" d="M 145.75209045410156 46.04405975341797 L 145.75209045410156 54.06843948364258" stroke-opacity="1" stroke-linejoin="bevel" stroke-miterlimit="10" clip-path="url(#intdcouBAbWS)"/><path fill="none" stroke="rgb(0,0,0)" paint-order="fill" d="M 189.0575408935547 33.35063552856445 L 189.0575408935547 40.103912353515625" stroke-opacity="1" stroke-linejoin="bevel" stroke-miterlimit="10" clip-path="url(#intdcouBAbWS)"/><path fill="none" stroke="rgb(0,0,0)" paint-order="fill" d="M 97.44664764404297 90.19117736816406 L 107.44664764404297 90.19117736816406" stroke-opacity="1" stroke-linejoin="bevel" stroke-miterlimit="10" clip-path="url(#intdcouBAbWS)"/><path fill="none" stroke="rgb(0,0,0)" paint-order="fill" d="M 140.75209045410156 46.04405975341797 L 150.75209045410156 46.04405975341797" stroke-opacity="1" stroke-linejoin="bevel" stroke-miterlimit="10" clip-path="url(#intdcouBAbWS)"/><path fill="none" stroke="rgb(0,0,0)" paint-order="fill" d="M 184.0575408935547 33.35063552856445 L 194.0575408935547 33.35063552856445" stroke-opacity="1" stroke-linejoin="bevel" stroke-miterlimit="10" clip-path="url(#intdcouBAbWS)"/><path fill="none" stroke="rgb(0,0,0)" paint-order="fill" d="M 107.44664764404297 102.15503692626953 L 97.44664764404297 102.15503692626953" stroke-opacity="1" stroke-linejoin="bevel" stroke-miterlimit="10" clip-path="url(#intdcouBAbWS)"/><path fill="none" stroke="rgb(0,0,0)" paint-order="fill" d="M 150.75209045410156 54.06843948364258 L 140.75209045410156 54.06843948364258" stroke-opacity="1" stroke-linejoin="bevel" stroke-miterlimit="10" clip-path="url(#intdcouBAbWS)"/><path fill="none" stroke="rgb(0,0,0)" paint-order="fill" d="M 194.0575408935547 40.103912353515625 L 184.0575408935547 40.103912353515625" stroke-opacity="1" stroke-linejoin="bevel" stroke-miterlimit="10" clip-path="url(#intdcouBAbWS)"/><path fill="rgb(128,128,128)" stroke="none" paint-order="stroke" d="M 80.7939224243164 36.727272033691406 L 210.7102508544922 36.727272033691406 L 210.7102508544922 221.27273559570312 L 80.7939224243164 221.27273559570312 L 80.7939224243164 36.727272033691406 Z" fill-opacity="0.10196078431372549" clip-path="url(#dOyVGFKKzIQm)"/><path fill="url(#xxnNmVprMmSA)" stroke="rgb(0,0,0)" paint-order="fill" d="M 80.7939224243164 36.727272033691406 L 210.7102508544922 36.727272033691406 L 210.7102508544922 221.27273559570312 L 80.7939224243164 221.27273559570312 L 80.7939224243164 36.727272033691406 Z" clip-path="url(#dOyVGFKKzIQm)" stroke-opacity="0.2" stroke-linejoin="bevel" stroke-miterlimit="10"/><path fill="rgb(100,149,237)" stroke="rgb(31,119,180)" paint-order="fill" d="M 80.79393005371094 96.17311096191406 L 124.099365234375 96.17311096191406 L 124.099365234375 221.27272033691406 L 80.79393005371094 221.27272033691406 L 80.79393005371094 96.17311096191406 Z" fill-opacity="0.5019607843137255" clip-path="url(#AXwXxrRNeRIS)" stroke-opacity="0.5019607843137255" stroke-linejoin="bevel" stroke-miterlimit="10"/><path fill="rgb(100,149,237)" stroke="rgb(31,119,180)" paint-order="fill" d="M 124.099365234375 50.056251525878906 L 167.40481567382812 50.056251525878906 L 167.40481567382812 221.27272033691406 L 124.099365234375 221.27272033691406 L 124.099365234375 50.056251525878906 Z" fill-opacity="0.5019607843137255" clip-path="url(#AXwXxrRNeRIS)" stroke-opacity="0.5019607843137255" stroke-linejoin="bevel" stroke-miterlimit="10"/><path fill="rgb(100,149,237)" stroke="rgb(31,119,180)" paint-order="fill" d="M 167.40481567382812 36.727272033691406 L 210.71026611328125 36.727272033691406 L 210.71026611328125 221.27272033691406 L 167.40481567382812 221.27272033691406 L 167.40481567382812 36.727272033691406 Z" fill-opacity="0.5019607843137255" clip-path="url(#AXwXxrRNeRIS)" stroke-opacity="0.5019607843137255" stroke-linejoin="bevel" stroke-miterlimit="10"/><path fill="none" stroke="rgb(0,0,0)" paint-order="fill" d="M 52.5 230.5 L 245.5 230.5" stroke-opacity="1" stroke-linejoin="bevel" stroke-miterlimit="10"/><path fill="none" stroke="rgb(0,0,0)" paint-order="fill" d="M 58.5 236.5 L 58.5 228.5 M 112.5 236.5 L 112.5 228.5 M 167.5 236.5 L 167.5 228.5 M 221.5 236.5 L 221.5 228.5" stroke-opacity="1" stroke-linejoin="bevel" stroke-miterlimit="10"/><path fill="none" stroke="rgb(0,0,0)" paint-order="fill" d="M 58.5 234.5 L 58.5 230.5 M 69.5 234.5 L 69.5 230.5 M 80.5 234.5 L 80.5 230.5 M 91.5 234.5 L 91.5 230.5 M 102.5 234.5 L 102.5 230.5 M 112.5 234.5 L 112.5 230.5 M 123.5 234.5 L 123.5 230.5 M 134.5 234.5 L 134.5 230.5 M 145.5 234.5 L 145.5 230.5 M 156.5 234.5 L 156.5 230.5 M 167.5 234.5 L 167.5 230.5 M 178.5 234.5 L 178.5 230.5 M 189.5 234.5 L 189.5 230.5 M 199.5 234.5 L 199.5 230.5 M 210.5 234.5 L 210.5 230.5 M 221.5 234.5 L 221.5 230.5 M 232.5 234.5 L 232.5 230.5 M 243.5 234.5 L 243.5 230.5" stroke-opacity="1" stroke-linejoin="bevel" stroke-miterlimit="10"/><text fill="rgb(68,68,68)" stroke="none" font-family="helvetica" font-size="11px" font-style="normal" font-weight="normal" text-decoration="normal" x="35.01828384399414" y="249" text-anchor="start" dominant-baseline="alphabetic" transform="matrix(1, 0, 0, 1, 0.5, 0.5)" fill-opacity="1">5.000e+8</text><text fill="none" stroke="rgb(0,0,0)" font-family="helvetica" font-size="11px" font-style="normal" font-weight="normal" text-decoration="normal" x="35.01828384399414" y="249" text-anchor="start" dominant-baseline="alphabetic" transform="matrix(1, 0, 0, 1, 0.5, 0.5)" stroke-opacity="0" stroke-linejoin="bevel" stroke-miterlimit="10">5.000e+8</text><text fill="rgb(68,68,68)" stroke="none" font-family="helvetica" font-size="11px" font-style="normal" font-weight="normal" text-decoration="normal" x="89.38787078857422" y="249" text-anchor="start" dominant-baseline="alphabetic" transform="matrix(1, 0, 0, 1, 0.5, 0.5)" fill-opacity="1">5.500e+8</text><text fill="none" stroke="rgb(0,0,0)" font-family="helvetica" font-size="11px" font-style="normal" font-weight="normal" text-decoration="normal" x="89.38787078857422" y="249" text-anchor="start" dominant-baseline="alphabetic" transform="matrix(1, 0, 0, 1, 0.5, 0.5)" stroke-opacity="0" stroke-linejoin="bevel" stroke-miterlimit="10">5.500e+8</text><text fill="rgb(68,68,68)" stroke="none" font-family="helvetica" font-size="11px" font-style="normal" font-weight="normal" text-decoration="normal" x="143.75746154785156" y="249" text-anchor="start" dominant-baseline="alphabetic" transform="matrix(1, 0, 0, 1, 0.5, 0.5)" fill-opacity="1">6.000e+8</text><text fill="none" stroke="rgb(0,0,0)" font-family="helvetica" font-size="11px" font-style="normal" font-weight="normal" text-decoration="normal" x="143.75746154785156" y="249" text-anchor="start" dominant-baseline="alphabetic" transform="matrix(1, 0, 0, 1, 0.5, 0.5)" stroke-opacity="0" stroke-linejoin="bevel" stroke-miterlimit="10">6.000e+8</text><text fill="rgb(68,68,68)" stroke="none" font-family="helvetica" font-size="11px" font-style="normal" font-weight="normal" text-decoration="normal" x="198.12704467773438" y="249" text-anchor="start" dominant-baseline="alphabetic" transform="matrix(1, 0, 0, 1, 0.5, 0.5)" fill-opacity="1">6.500e+8</text><text fill="none" stroke="rgb(0,0,0)" font-family="helvetica" font-size="11px" font-style="normal" font-weight="normal" text-decoration="normal" x="198.12704467773438" y="249" text-anchor="start" dominant-baseline="alphabetic" transform="matrix(1, 0, 0, 1, 0.5, 0.5)" stroke-opacity="0" stroke-linejoin="bevel" stroke-miterlimit="10">6.500e+8</text><text fill="rgb(68,68,68)" stroke="none" font-family="helvetica" font-size="13px" font-style="italic" font-weight="normal" text-decoration="normal" x="59.286865234375" y="269" text-anchor="start" dominant-baseline="alphabetic" transform="matrix(1, 0, 0, 1, 0.5, 0.5)" fill-opacity="1">Max stress in TF coil case (Pa)</text><text fill="none" stroke="rgb(0,0,0)" font-family="helvetica" font-size="13px" font-style="italic" font-weight="normal" text-decoration="normal" x="59.286865234375" y="269" text-anchor="start" dominant-baseline="alphabetic" transform="matrix(1, 0, 0, 1, 0.5, 0.5)" stroke-opacity="0" stroke-linejoin="bevel" stroke-miterlimit="10">Max stress in TF coil case (Pa)</text><path fill="none" stroke="rgb(0,0,0)" paint-order="fill" d="M 52.5 230.5 L 52.5 27.5" stroke-opacity="1" stroke-linejoin="bevel" stroke-miterlimit="10"/><path fill="none" stroke="rgb(0,0,0)" paint-order="fill" d="M 46.5 221.5 L 54.5 221.5 M 46.5 176.5 L 54.5 176.5 M 46.5 132.5 L 54.5 132.5 M 46.5 87.5 L 54.5 87.5 M 46.5 43.5 L 54.5 43.5" stroke-opacity="1" stroke-linejoin="bevel" stroke-miterlimit="10"/><path fill="none" stroke="rgb(0,0,0)" paint-order="fill" d="M 48.5 230.5 L 52.5 230.5 M 48.5 221.5 L 52.5 221.5 M 48.5 212.5 L 52.5 212.5 M 48.5 203.5 L 52.5 203.5 M 48.5 194.5 L 52.5 194.5 M 48.5 185.5 L 52.5 185.5 M 48.5 176.5 L 52.5 176.5 M 48.5 167.5 L 52.5 167.5 M 48.5 158.5 L 52.5 158.5 M 48.5 150.5 L 52.5 150.5 M 48.5 141.5 L 52.5 141.5 M 48.5 132.5 L 52.5 132.5 M 48.5 123.5 L 52.5 123.5 M 48.5 114.5 L 52.5 114.5 M 48.5 105.5 L 52.5 105.5 M 48.5 96.5 L 52.5 96.5 M 48.5 87.5 L 52.5 87.5 M 48.5 78.5 L 52.5 78.5 M 48.5 69.5 L 52.5 69.5 M 48.5 60.5 L 52.5 60.5 M 48.5 52.5 L 52.5 52.5 M 48.5 43.5 L 52.5 43.5 M 48.5 34.5 L 52.5 34.5" stroke-opacity="1" stroke-linejoin="bevel" stroke-miterlimit="10"/><text fill="rgb(68,68,68)" stroke="none" font-family="helvetica" font-size="11px" font-style="normal" font-weight="normal" text-decoration="normal" x="34.88232421875" y="224.77272033691406" text-anchor="start" dominant-baseline="alphabetic" transform="matrix(1, 0, 0, 1, 0.5, 0.5)" fill-opacity="1">0</text><text fill="none" stroke="rgb(0,0,0)" font-family="helvetica" font-size="11px" font-style="normal" font-weight="normal" text-decoration="normal" x="34.88232421875" y="224.77272033691406" text-anchor="start" dominant-baseline="alphabetic" transform="matrix(1, 0, 0, 1, 0.5, 0.5)" stroke-opacity="0" stroke-linejoin="bevel" stroke-miterlimit="10">0</text><text fill="rgb(68,68,68)" stroke="none" font-family="helvetica" font-size="11px" font-style="normal" font-weight="normal" text-decoration="normal" x="25.70849609375" y="180.2277374267578" text-anchor="start" dominant-baseline="alphabetic" transform="matrix(1, 0, 0, 1, 0.5, 0.5)" fill-opacity="1">0.2</text><text fill="none" stroke="rgb(0,0,0)" font-family="helvetica" font-size="11px" font-style="normal" font-weight="normal" text-decoration="normal" x="25.70849609375" y="180.2277374267578" text-anchor="start" dominant-baseline="alphabetic" transform="matrix(1, 0, 0, 1, 0.5, 0.5)" stroke-opacity="0" stroke-linejoin="bevel" stroke-miterlimit="10">0.2</text><text fill="rgb(68,68,68)" stroke="none" font-family="helvetica" font-size="11px" font-style="normal" font-weight="normal" text-decoration="normal" x="25.70849609375" y="135.68275451660156" text-anchor="start" dominant-baseline="alphabetic" transform="matrix(1, 0, 0, 1, 0.5, 0.5)" fill-opacity="1">0.4</text><text fill="none" stroke="rgb(0,0,0)" font-family="helvetica" font-size="11px" font-style="normal" font-weight="normal" text-decoration="normal" x="25.70849609375" y="135.68275451660156" text-anchor="start" dominant-baseline="alphabetic" transform="matrix(1, 0, 0, 1, 0.5, 0.5)" stroke-opacity="0" stroke-linejoin="bevel" stroke-miterlimit="10">0.4</text><text fill="rgb(68,68,68)" stroke="none" font-family="helvetica" font-size="11px" font-style="normal" font-weight="normal" text-decoration="normal" x="25.70849609375" y="91.13776397705078" text-anchor="start" dominant-baseline="alphabetic" transform="matrix(1, 0, 0, 1, 0.5, 0.5)" fill-opacity="1">0.6</text><text fill="none" stroke="rgb(0,0,0)" font-family="helvetica" font-size="11px" font-style="normal" font-weight="normal" text-decoration="normal" x="25.70849609375" y="91.13776397705078" text-anchor="start" dominant-baseline="alphabetic" transform="matrix(1, 0, 0, 1, 0.5, 0.5)" stroke-opacity="0" stroke-linejoin="bevel" stroke-miterlimit="10">0.6</text><text fill="rgb(68,68,68)" stroke="none" font-family="helvetica" font-size="11px" font-style="normal" font-weight="normal" text-decoration="normal" x="25.70849609375" y="46.5927734375" text-anchor="start" dominant-baseline="alphabetic" transform="matrix(1, 0, 0, 1, 0.5, 0.5)" fill-opacity="1">0.8</text><text fill="none" stroke="rgb(0,0,0)" font-family="helvetica" font-size="11px" font-style="normal" font-weight="normal" text-decoration="normal" x="25.70849609375" y="46.5927734375" text-anchor="start" dominant-baseline="alphabetic" transform="matrix(1, 0, 0, 1, 0.5, 0.5)" stroke-opacity="0" stroke-linejoin="bevel" stroke-miterlimit="10">0.8</text><text fill="rgb(68,68,68)" stroke="none" font-family="helvetica" font-size="13px" font-style="italic" font-weight="normal" text-decoration="normal" x="-15.175537109375" y="125.5" text-anchor="start" dominant-baseline="alphabetic" transform="matrix(6.123233995736766e-17, -1, 1, 6.123233995736766e-17, -110.29150390625, 146.70849609375)" fill-opacity="1">Confidence</text><text fill="none" stroke="rgb(0,0,0)" font-family="helvetica" font-size="13px" font-style="italic" font-weight="normal" text-decoration="normal" x="-15.175537109375" y="125.5" text-anchor="start" dominant-baseline="alphabetic" transform="matrix(6.123233995736766e-17, -1, 1, 6.123233995736766e-17, -110.29150390625, 146.70849609375)" stroke-opacity="0" stroke-linejoin="bevel" stroke-miterlimit="10">Confidence</text><path fill="rgb(255,249,186)" stroke="rgb(255,0,0)" paint-order="fill" d="M 168.06806221693375 36.72727272727275 L 168.06806221693375 36.72727272727275 L 168.06806221693375 221.27272727272728 L 168.06806221693375 221.27272727272728 L 168.06806221693375 36.72727272727275 Z" fill-opacity="0.4" clip-path="url(#JGdUHVykAFqU)" stroke-opacity="1" stroke-linejoin="bevel" stroke-miterlimit="10" stroke-width="2" stroke-dasharray="6"/><path fill="rgb(255,249,186)" stroke="rgb(50,205,50)" paint-order="fill" d="M 189.0575354986213 36.72727272727275 L 189.0575354986213 36.72727272727275 L 189.0575354986213 221.27272727272728 L 189.0575354986213 221.27272727272728 L 189.0575354986213 36.72727272727275 Z" fill-opacity="0.4" clip-path="url(#bCmaXtTreSuP)" stroke-opacity="1" stroke-linejoin="bevel" stroke-miterlimit="10" stroke-width="2" stroke-dasharray="6"/><text fill="rgb(68,68,68)" stroke="none" font-family="helvetica" font-size="13px" font-style="normal" font-weight="bold" text-decoration="normal" x="52" y="19" text-anchor="start" dominant-baseline="alphabetic" transform="matrix(1, 0, 0, 1, 0.5, 0.5)" fill-opacity="1">Convergance Probability</text><text fill="none" stroke="rgb(0,0,0)" font-family="helvetica" font-size="13px" font-style="normal" font-weight="bold" text-decoration="normal" x="52" y="19" text-anchor="start" dominant-baseline="alphabetic" transform="matrix(1, 0, 0, 1, 0.5, 0.5)" stroke-opacity="0" stroke-miterlimit="10" stroke-dasharray="">Convergance Probability</text></svg>