<svg version="1.1" xmlns="http://www.w3.org/2000/svg" width="275" height="275"><defs><clipPath id="fvDVTwlfoTsV"><path fill="none" stroke="none" d="M 52.5 27.5 L 245.5 27.5 L 245.5 230.5 L 52.5 230.5 L 52.5 27.5 Z"/></clipPath><clipPath id="kHzzNxfdanDE"><path fill="none" stroke="none" d="M 52.5 27.5 L 245.5 27.5 L 245.5 230.5 L 52.5 230.5 L 52.5 27.5 Z"/></clipPath><clipPath id="OXrazOOrgNUF"><path fill="none" stroke="none" d="M 52.5 27.5 L 245.5 27.5 L 245.5 230.5 L 52.5 230.5 L 52.5 27.5 Z"/></clipPath><clipPath id="vLiiiVkGKiRN"><path fill="none" stroke="none" d="M 52.5 27.5 L 245.5 27.5 L 245.5 230.5 L 52.5 230.5 L 52.5 27.5 Z"/></clipPath><pattern id="csWakIpvTFXJ" width="3" height="3" patternUnits="userSpaceOnUse"><path fill="rgb(0,0,0)" stroke="none" paint-order="stroke" d="M 2.75 2 A 0.75 0.75 0 0 0 1.25 2 A 0.75 0.75 0 0 0 2.75 2" fill-opacity="0.14901960784313725"/></pattern><clipPath id="TbODZrRAfkyZ"><path fill="none" stroke="none" d="M 52.5 27.5 L 245.5 27.5 L 245.5 230.5 L 52.5 230.5 L 52.5 27.5 Z"/></clipPath><clipPath id="MeLqJWzVsXkG"><path fill="none" stroke="none" d="M 52.5 27.5 L 245.5 27.5 L 245.5 230.5 L 52.5 230.5 L 52.5 27.5 Z"/></clipPath><clipPath id="HmAfhqUcFCsU"><path fill="none" stroke="none" d="M 52.5 27.5 L 245.5 27.5 L 245.5 230.5 L 52.5 230.5 L 52.5 27.5 Z"/></clipPath><clipPath id="TsBLHNZwDAug"><path fill="none" stroke="none" d="M 52.5 27.5 L 245.5 27.5 L 245.5 230.5 L 52.5 230.5 L 52.5 27.5 Z"/></clipPath></defs><path fill="rgb(255,255,255)" stroke="none" paint-order="stroke" d="M 0.5 0.5 L 275.5 0.5 L 275.5 275.5 L 0.5 275.5 L 0.5 0.5 Z" fill-opacity="1"/><rect fill="#FFFFFF" stroke="none" x="52" y="27" width="193" height="203" transform="matrix(1, 0, 0, 1, 0.5, 0.5)"/><path fill="rgb(255,255,255)" stroke="none" paint-order="stroke" d="M 52.5 27.5 L 245.5 27.5 L 245.5 230.5 L 52.5 230.5 L 52.5 27.5 Z" fill-opacity="1"/><path fill="none" stroke="rgb(229,229,229)" paint-order="fill" d="M 52.5 27.5 L 245.5 27.5 L 245.5 230.5 L 52.5 230.5 L 52.5 27.5 Z" stroke-opacity="1" stroke-linejoin="bevel" stroke-miterlimit="10"/><path fill="none" stroke="rgb(229,229,229)" paint-order="fill" d="M 75.5 230.5 L 75.5 27.5 M 118.5 230.5 L 118.5 27.5 M 161.5 230.5 L 161.5 27.5 M 204.5 230.5 L 204.5 27.5" stroke-opacity="1" stroke-linejoin="bevel" stroke-miterlimit="10" clip-path="url(#fvDVTwlfoTsV)"/><path fill="none" stroke="rgb(229,229,229)" paint-order="fill" d="M 52.5 221.5 L 245.5 221.5 M 52.5 182.5 L 245.5 182.5 M 52.5 144.5 L 245.5 144.5 M 52.5 106.5 L 245.5 106.5 M 52.5 68.5 L 245.5 68.5 M 52.5 29.5 L 245.5 29.5" stroke-opacity="1" stroke-linejoin="bevel" stroke-miterlimit="10" clip-path="url(#kHzzNxfdanDE)"/><path fill="none" stroke="rgb(0,0,0)" paint-order="fill" d="M 126.8077392578125 35.12577438354492 L 126.8077392578125 49.22090148925781" stroke-opacity="1" stroke-linejoin="bevel" stroke-miterlimit="10" clip-path="url(#OXrazOOrgNUF)"/><path fill="none" stroke="rgb(0,0,0)" paint-order="fill" d="M 147.4517059326172 32.645423889160156 L 147.4517059326172 41.852474212646484" stroke-opacity="1" stroke-linejoin="bevel" stroke-miterlimit="10" clip-path="url(#OXrazOOrgNUF)"/><path fill="none" stroke="rgb(0,0,0)" paint-order="fill" d="M 168.09567260742188 32.20334434509277 L 168.09567260742188 41.25120162963867" stroke-opacity="1" stroke-linejoin="bevel" stroke-miterlimit="10" clip-path="url(#OXrazOOrgNUF)"/><path fill="none" stroke="rgb(0,0,0)" paint-order="fill" d="M 121.8077392578125 35.12577438354492 L 131.8077392578125 35.12577438354492" stroke-opacity="1" stroke-linejoin="bevel" stroke-miterlimit="10" clip-path="url(#OXrazOOrgNUF)"/><path fill="none" stroke="rgb(0,0,0)" paint-order="fill" d="M 142.4517059326172 32.645423889160156 L 152.4517059326172 32.645423889160156" stroke-opacity="1" stroke-linejoin="bevel" stroke-miterlimit="10" clip-path="url(#OXrazOOrgNUF)"/><path fill="none" stroke="rgb(0,0,0)" paint-order="fill" d="M 163.09567260742188 32.20334434509277 L 173.09567260742188 32.20334434509277" stroke-opacity="1" stroke-linejoin="bevel" stroke-miterlimit="10" clip-path="url(#OXrazOOrgNUF)"/><path fill="none" stroke="rgb(0,0,0)" paint-order="fill" d="M 131.8077392578125 49.22090148925781 L 121.8077392578125 49.22090148925781" stroke-opacity="1" stroke-linejoin="bevel" stroke-miterlimit="10" clip-path="url(#OXrazOOrgNUF)"/><path fill="none" stroke="rgb(0,0,0)" paint-order="fill" d="M 152.4517059326172 41.852474212646484 L 142.4517059326172 41.852474212646484" stroke-opacity="1" stroke-linejoin="bevel" stroke-miterlimit="10" clip-path="url(#OXrazOOrgNUF)"/><path fill="none" stroke="rgb(0,0,0)" paint-order="fill" d="M 173.09567260742188 41.25120162963867 L 163.09567260742188 41.25120162963867" stroke-opacity="1" stroke-linejoin="bevel" stroke-miterlimit="10" clip-path="url(#OXrazOOrgNUF)"/><path fill="rgb(128,128,128)" stroke="none" paint-order="stroke" d="M 116.48574829101562 36.727272033691406 L 178.4176483154297 36.727272033691406 L 178.4176483154297 221.27273559570312 L 116.48574829101562 221.27273559570312 L 116.48574829101562 36.727272033691406 Z" fill-opacity="0.10196078431372549" clip-path="url(#vLiiiVkGKiRN)"/><path fill="url(#csWakIpvTFXJ)" stroke="rgb(0,0,0)" paint-order="fill" d="M 116.48574829101562 36.727272033691406 L 178.4176483154297 36.727272033691406 L 178.4176483154297 221.27273559570312 L 116.48574829101562 221.27273559570312 L 116.48574829101562 36.727272033691406 Z" clip-path="url(#vLiiiVkGKiRN)" stroke-opacity="0.2" stroke-linejoin="bevel" stroke-miterlimit="10"/><path fill="rgb(100,149,237)" stroke="rgb(31,119,180)" paint-order="fill" d="M 116.48575592041016 42.17333984375 L 137.12973022460938 42.17333984375 L 137.12973022460938 221.27272033691406 L 116.48575592041016 221.27272033691406 L 116.48575592041016 42.17333984375 Z" fill-opacity="0.5019607843137255" clip-path="url(#TbODZrRAfkyZ)" stroke-opacity="0.5019607843137255" stroke-linejoin="bevel" stroke-miterlimit="10"/><path fill="rgb(100,149,237)" stroke="rgb(31,119,180)" paint-order="fill" d="M 137.12973022460938 37.24895095825195 L 157.773681640625 37.24895095825195 L 157.773681640625 221.27272033691406 L 137.12973022460938 221.27272033691406 L 137.12973022460938 37.24895095825195 Z" fill-opacity="0.5019607843137255" clip-path="url(#TbODZrRAfkyZ)" stroke-opacity="0.5019607843137255" stroke-linejoin="bevel" stroke-miterlimit="10"/><path fill="rgb(100,149,237)" stroke="rgb(31,119,180)" paint-order="fill" d="M 157.773681640625 36.727272033691406 L 178.41766357421875 36.727272033691406 L 178.41766357421875 221.27272033691406 L 157.773681640625 221.27272033691406 L 157.773681640625 36.727272033691406 Z" fill-opacity="0.5019607843137255" clip-path="url(#TbODZrRAfkyZ)" stroke-opacity="0.5019607843137255" stroke-linejoin="bevel" stroke-miterlimit="10"/><path fill="none" stroke="rgb(0,0,0)" paint-order="fill" d="M 52.5 230.5 L 245.5 230.5" stroke-opacity="1" stroke-linejoin="bevel" stroke-miterlimit="10"/><path fill="none" stroke="rgb(0,0,0)" paint-order="fill" d="M 75.5 236.5 L 75.5 228.5 M 118.5 236.5 L 118.5 228.5 M 161.5 236.5 L 161.5 228.5 M 204.5 236.5 L 204.5 228.5" stroke-opacity="1" stroke-linejoin="bevel" stroke-miterlimit="10"/><path fill="none" stroke="rgb(0,0,0)" paint-order="fill" d="M 67.5 234.5 L 67.5 230.5 M 58.5 234.5 L 58.5 230.5 M 75.5 234.5 L 75.5 230.5 M 84.5 234.5 L 84.5 230.5 M 92.5 234.5 L 92.5 230.5 M 101.5 234.5 L 101.5 230.5 M 110.5 234.5 L 110.5 230.5 M 118.5 234.5 L 118.5 230.5 M 127.5 234.5 L 127.5 230.5 M 135.5 234.5 L 135.5 230.5 M 144.5 234.5 L 144.5 230.5 M 152.5 234.5 L 152.5 230.5 M 161.5 234.5 L 161.5 230.5 M 169.5 234.5 L 169.5 230.5 M 178.5 234.5 L 178.5 230.5 M 186.5 234.5 L 186.5 230.5 M 195.5 234.5 L 195.5 230.5 M 204.5 234.5 L 204.5 230.5 M 212.5 234.5 L 212.5 230.5 M 221.5 234.5 L 221.5 230.5 M 229.5 234.5 L 229.5 230.5 M 238.5 234.5 L 238.5 230.5" stroke-opacity="1" stroke-linejoin="bevel" stroke-miterlimit="10"/><text fill="rgb(68,68,68)" stroke="none" font-family="helvetica" font-size="11px" font-style="normal" font-weight="normal" text-decoration="normal" x="60.084869384765625" y="249" text-anchor="start" dominant-baseline="alphabetic" transform="matrix(1, 0, 0, 1, 0.5, 0.5)" fill-opacity="1">14500</text><text fill="none" stroke="rgb(0,0,0)" font-family="helvetica" font-size="11px" font-style="normal" font-weight="normal" text-decoration="normal" x="60.084869384765625" y="249" text-anchor="start" dominant-baseline="alphabetic" transform="matrix(1, 0, 0, 1, 0.5, 0.5)" stroke-opacity="0" stroke-linejoin="bevel" stroke-miterlimit="10">14500</text><text fill="rgb(68,68,68)" stroke="none" font-family="helvetica" font-size="11px" font-style="normal" font-weight="normal" text-decoration="normal" x="102.812744140625" y="249" text-anchor="start" dominant-baseline="alphabetic" transform="matrix(1, 0, 0, 1, 0.5, 0.5)" fill-opacity="1">15000</text><text fill="none" stroke="rgb(0,0,0)" font-family="helvetica" font-size="11px" font-style="normal" font-weight="normal" text-decoration="normal" x="102.812744140625" y="249" text-anchor="start" dominant-baseline="alphabetic" transform="matrix(1, 0, 0, 1, 0.5, 0.5)" stroke-opacity="0" stroke-linejoin="bevel" stroke-miterlimit="10">15000</text><text fill="rgb(68,68,68)" stroke="none" font-family="helvetica" font-size="11px" font-style="normal" font-weight="normal" text-decoration="normal" x="145.54061889648438" y="249" text-anchor="start" dominant-baseline="alphabetic" transform="matrix(1, 0, 0, 1, 0.5, 0.5)" fill-opacity="1">15500</text><text fill="none" stroke="rgb(0,0,0)" font-family="helvetica" font-size="11px" font-style="normal" font-weight="normal" text-decoration="normal" x="145.54061889648438" y="249" text-anchor="start" dominant-baseline="alphabetic" transform="matrix(1, 0, 0, 1, 0.5, 0.5)" stroke-opacity="0" stroke-linejoin="bevel" stroke-miterlimit="10">15500</text><text fill="rgb(68,68,68)" stroke="none" font-family="helvetica" font-size="11px" font-style="normal" font-weight="normal" text-decoration="normal" x="188.26849365234375" y="249" text-anchor="start" dominant-baseline="alphabetic" transform="matrix(1, 0, 0, 1, 0.5, 0.5)" fill-opacity="1">16000</text><text fill="none" stroke="rgb(0,0,0)" font-family="helvetica" font-size="11px" font-style="normal" font-weight="normal" text-decoration="normal" x="188.26849365234375" y="249" text-anchor="start" dominant-baseline="alphabetic" transform="matrix(1, 0, 0, 1, 0.5, 0.5)" stroke-opacity="0" stroke-linejoin="bevel" stroke-miterlimit="10">16000</text><text fill="rgb(68,68,68)" stroke="none" font-family="helvetica" font-size="13px" font-style="italic" font-weight="normal" text-decoration="normal" x="83.852294921875" y="269" text-anchor="start" dominant-baseline="alphabetic" transform="matrix(1, 0, 0, 1, 0.5, 0.5)" fill-opacity="1">Minimum burn time (s)</text><text fill="none" stroke="rgb(0,0,0)" font-family="helvetica" font-size="13px" font-style="italic" font-weight="normal" text-decoration="normal" x="83.852294921875" y="269" text-anchor="start" dominant-baseline="alphabetic" transform="matrix(1, 0, 0, 1, 0.5, 0.5)" stroke-opacity="0" stroke-linejoin="bevel" stroke-miterlimit="10">Minimum burn time (s)</text><path fill="none" stroke="rgb(0,0,0)" paint-order="fill" d="M 52.5 230.5 L 52.5 27.5" stroke-opacity="1" stroke-linejoin="bevel" stroke-miterlimit="10"/><path fill="none" stroke="rgb(0,0,0)" paint-order="fill" d="M 46.5 221.5 L 54.5 221.5 M 46.5 182.5 L 54.5 182.5 M 46.5 144.5 L 54.5 144.5 M 46.5 106.5 L 54.5 106.5 M 46.5 68.5 L 54.5 68.5 M 46.5 29.5 L 54.5 29.5" stroke-opacity="1" stroke-linejoin="bevel" stroke-miterlimit="10"/><path fill="none" stroke="rgb(0,0,0)" paint-order="fill" d="M 48.5 228.5 L 52.5 228.5 M 48.5 221.5 L 52.5 221.5 M 48.5 213.5 L 52.5 213.5 M 48.5 205.5 L 52.5 205.5 M 48.5 198.5 L 52.5 198.5 M 48.5 190.5 L 52.5 190.5 M 48.5 182.5 L 52.5 182.5 M 48.5 175.5 L 52.5 175.5 M 48.5 167.5 L 52.5 167.5 M 48.5 160.5 L 52.5 160.5 M 48.5 152.5 L 52.5 152.5 M 48.5 144.5 L 52.5 144.5 M 48.5 137.5 L 52.5 137.5 M 48.5 129.5 L 52.5 129.5 M 48.5 121.5 L 52.5 121.5 M 48.5 114.5 L 52.5 114.5 M 48.5 106.5 L 52.5 106.5 M 48.5 98.5 L 52.5 98.5 M 48.5 91.5 L 52.5 91.5 M 48.5 83.5 L 52.5 83.5 M 48.5 75.5 L 52.5 75.5 M 48.5 68.5 L 52.5 68.5 M 48.5 60.5 L 52.5 60.5 M 48.5 52.5 L 52.5 52.5 M 48.5 45.5 L 52.5 45.5 M 48.5 37.5 L 52.5 37.5 M 48.5 29.5 L 52.5 29.5" stroke-opacity="1" stroke-linejoin="bevel" stroke-miterlimit="10"/><text fill="rgb(68,68,68)" stroke="none" font-family="helvetica" font-size="11px" font-style="normal" font-weight="normal" text-decoration="normal" x="34.88232421875" y="224.77272033691406" text-anchor="start" dominant-baseline="alphabetic" transform="matrix(1, 0, 0, 1, 0.5, 0.5)" fill-opacity="1">0</text><text fill="none" stroke="rgb(0,0,0)" font-family="helvetica" font-size="11px" font-style="normal" font-weight="normal" text-decoration="normal" x="34.88232421875" y="224.77272033691406" text-anchor="start" dominant-baseline="alphabetic" transform="matrix(1, 0, 0, 1, 0.5, 0.5)" stroke-opacity="0" stroke-linejoin="bevel" stroke-miterlimit="10">0</text><text fill="rgb(68,68,68)" stroke="none" font-family="helvetica" font-size="11px" font-style="normal" font-weight="normal" text-decoration="normal" x="25.70849609375" y="186.4922332763672" text-anchor="start" dominant-baseline="alphabetic" transform="matrix(1, 0, 0, 1, 0.5, 0.5)" fill-opacity="1">0.2</text><text fill="none" stroke="rgb(0,0,0)" font-family="helvetica" font-size="11px" font-style="normal" font-weight="normal" text-decoration="normal" x="25.70849609375" y="186.4922332763672" text-anchor="start" dominant-baseline="alphabetic" transform="matrix(1, 0, 0, 1, 0.5, 0.5)" stroke-opacity="0" stroke-linejoin="bevel" stroke-miterlimit="10">0.2</text><text fill="rgb(68,68,68)" stroke="none" font-family="helvetica" font-size="11px" font-style="normal" font-weight="normal" text-decoration="normal" x="25.70849609375" y="148.21173095703125" text-anchor="start" dominant-baseline="alphabetic" transform="matrix(1, 0, 0, 1, 0.5, 0.5)" fill-opacity="1">0.4</text><text fill="none" stroke="rgb(0,0,0)" font-family="helvetica" font-size="11px" font-style="normal" font-weight="normal" text-decoration="normal" x="25.70849609375" y="148.21173095703125" text-anchor="start" dominant-baseline="alphabetic" transform="matrix(1, 0, 0, 1, 0.5, 0.5)" stroke-opacity="0" stroke-linejoin="bevel" stroke-miterlimit="10">0.4</text><text fill="rgb(68,68,68)" stroke="none" font-family="helvetica" font-size="11px" font-style="normal" font-weight="normal" text-decoration="normal" x="25.70849609375" y="109.93122100830078" text-anchor="start" dominant-baseline="alphabetic" transform="matrix(1, 0, 0, 1, 0.5, 0.5)" fill-opacity="1">0.6</text><text fill="none" stroke="rgb(0,0,0)" font-family="helvetica" font-size="11px" font-style="normal" font-weight="normal" text-decoration="normal" x="25.70849609375" y="109.93122100830078" text-anchor="start" dominant-baseline="alphabetic" transform="matrix(1, 0, 0, 1, 0.5, 0.5)" stroke-opacity="0" stroke-linejoin="bevel" stroke-miterlimit="10">0.6</text><text fill="rgb(68,68,68)" stroke="none" font-family="helvetica" font-size="11px" font-style="normal" font-weight="normal" text-decoration="normal" x="25.70849609375" y="71.65071868896484" text-anchor="start" dominant-baseline="alphabetic" transform="matrix(1, 0, 0, 1, 0.5, 0.5)" fill-opacity="1">0.8</text><text fill="none" stroke="rgb(0,0,0)" font-family="helvetica" font-size="11px" font-style="normal" font-weight="normal" text-decoration="normal" x="25.70849609375" y="71.65071868896484" text-anchor="start" dominant-baseline="alphabetic" transform="matrix(1, 0, 0, 1, 0.5, 0.5)" stroke-opacity="0" stroke-linejoin="bevel" stroke-miterlimit="10">0.8</text><text fill="rgb(68,68,68)" stroke="none" font-family="helvetica" font-size="11px" font-style="normal" font-weight="normal" text-decoration="normal" x="34.88232421875" y="33.37022018432617" text-anchor="start" dominant-baseline="alphabetic" transform="matrix(1, 0, 0, 1, 0.5, 0.5)" fill-opacity="1">1</text><text fill="none" stroke="rgb(0,0,0)" font-family="helvetica" font-size="11px" font-style="normal" font-weight="normal" text-decoration="normal" x="34.88232421875" y="33.37022018432617" text-anchor="start" dominant-baseline="alphabetic" transform="matrix(1, 0, 0, 1, 0.5, 0.5)" stroke-opacity="0" stroke-linejoin="bevel" stroke-miterlimit="10">1</text><text fill="rgb(68,68,68)" stroke="none" font-family="helvetica" font-size="13px" font-style="italic" font-weight="normal" text-decoration="normal" x="-47.31689453125" y="125.5" text-anchor="start" dominant-baseline="alphabetic" transform="matrix(6.123233995736766e-17, -1, 1, 6.123233995736766e-17, -110.29150390625, 146.70849609375)" fill-opacity="1">Normalised Probability</text><text fill="none" stroke="rgb(0,0,0)" font-family="helvetica" font-size="13px" font-style="italic" font-weight="normal" text-decoration="normal" x="-47.31689453125" y="125.5" text-anchor="start" dominant-baseline="alphabetic" transform="matrix(6.123233995736766e-17, -1, 1, 6.123233995736766e-17, -110.29150390625, 146.70849609375)" stroke-opacity="0" stroke-linejoin="bevel" stroke-miterlimit="10">Normalised Probability</text><path fill="rgb(255,249,186)" stroke="rgb(255,0,0)" paint-order="fill" d="M 152.9443889821257 36.72727272727275 L 152.9443889821257 36.72727272727275 L 152.9443889821257 221.27272727272728 L 152.9443889821257 221.27272727272728 L 152.9443889821257 36.72727272727275 Z" fill-opacity="0.4" clip-path="url(#MeLqJWzVsXkG)" stroke-opacity="1" stroke-linejoin="bevel" stroke-miterlimit="10" stroke-width="2" stroke-dasharray="6"/><path fill="rgb(255,249,186)" stroke="rgb(50,205,50)" paint-order="fill" d="M 168.09566942699576 36.72727272727275 L 168.09566942699576 36.72727272727275 L 168.09566942699576 221.27272727272728 L 168.09566942699576 221.27272727272728 L 168.09566942699576 36.72727272727275 Z" fill-opacity="0.4" clip-path="url(#HmAfhqUcFCsU)" stroke-opacity="1" stroke-linejoin="bevel" stroke-miterlimit="10" stroke-width="2" stroke-dasharray="6"/><text fill="rgb(68,68,68)" stroke="none" font-family="helvetica" font-size="13px" font-style="normal" font-weight="bold" text-decoration="normal" x="52" y="19" text-anchor="start" dominant-baseline="alphabetic" transform="matrix(1, 0, 0, 1, 0.5, 0.5)" fill-opacity="1">Convergance Probability</text><text fill="none" stroke="rgb(0,0,0)" font-family="helvetica" font-size="13px" font-style="normal" font-weight="bold" text-decoration="normal" x="52" y="19" text-anchor="start" dominant-baseline="alphabetic" transform="matrix(1, 0, 0, 1, 0.5, 0.5)" stroke-opacity="0" stroke-miterlimit="10" stroke-dasharray="">Convergance Probability</text></svg>