<svg version="1.1" xmlns="http://www.w3.org/2000/svg" width="350" height="350"><defs><clipPath id="dTIMZodXISFK"><path fill="none" stroke="none" d="M 58.5 27.5 L 320.5 27.5 L 320.5 305.5 L 58.5 305.5 L 58.5 27.5 Z"/></clipPath><clipPath id="MuTRZUKnFQgp"><path fill="none" stroke="none" d="M 58.5 27.5 L 320.5 27.5 L 320.5 305.5 L 58.5 305.5 L 58.5 27.5 Z"/></clipPath><clipPath id="OCSagAcGGPAS"><path fill="none" stroke="none" d="M 58.5 27.5 L 320.5 27.5 L 320.5 305.5 L 58.5 305.5 L 58.5 27.5 Z"/></clipPath><pattern id="FdIFviKyruMu" width="3" height="3" patternUnits="userSpaceOnUse"><path fill="rgb(0,0,0)" stroke="none" paint-order="stroke" d="M 2.75 2 A 0.75 0.75 0 0 0 1.25 2 A 0.75 0.75 0 0 0 2.75 2" fill-opacity="0.14901960784313725"/></pattern><clipPath id="DcUizrkJgkJz"><path fill="none" stroke="none" d="M 58.5 27.5 L 320.5 27.5 L 320.5 305.5 L 58.5 305.5 L 58.5 27.5 Z"/></clipPath><clipPath id="yTwdeTyyPNBv"><path fill="none" stroke="none" d="M 58.5 27.5 L 320.5 27.5 L 320.5 305.5 L 58.5 305.5 L 58.5 27.5 Z"/></clipPath><clipPath id="XPwMJHpLJCzJ"><path fill="none" stroke="none" d="M 58.5 27.5 L 320.5 27.5 L 320.5 305.5 L 58.5 305.5 L 58.5 27.5 Z"/></clipPath><clipPath id="PwNdIHInieWX"><path fill="none" stroke="none" d="M 58.5 27.5 L 320.5 27.5 L 320.5 305.5 L 58.5 305.5 L 58.5 27.5 Z"/></clipPath></defs><path fill="rgb(255,255,255)" stroke="none" paint-order="stroke" d="M 0.5 0.5 L 350.5 0.5 L 350.5 350.5 L 0.5 350.5 L 0.5 0.5 Z" fill-opacity="1"/><rect fill="#FFFFFF" stroke="none" x="58" y="27" width="262" height="278" transform="matrix(1, 0, 0, 1, 0.5, 0.5)"/><path fill="rgb(255,255,255)" stroke="none" paint-order="stroke" d="M 58.5 27.5 L 320.5 27.5 L 320.5 305.5 L 58.5 305.5 L 58.5 27.5 Z" fill-opacity="1"/><path fill="none" stroke="rgb(229,229,229)" paint-order="fill" d="M 58.5 27.5 L 320.5 27.5 L 320.5 305.5 L 58.5 305.5 L 58.5 27.5 Z" stroke-opacity="1" stroke-linejoin="bevel" stroke-miterlimit="10"/><path fill="none" stroke="rgb(229,229,229)" paint-order="fill" d="M 75.5 305.5 L 75.5 27.5 M 119.5 305.5 L 119.5 27.5 M 164.5 305.5 L 164.5 27.5 M 209.5 305.5 L 209.5 27.5 M 253.5 305.5 L 253.5 27.5 M 298.5 305.5 L 298.5 27.5" stroke-opacity="1" stroke-linejoin="bevel" stroke-miterlimit="10" clip-path="url(#dTIMZodXISFK)"/><path fill="none" stroke="rgb(229,229,229)" paint-order="fill" d="M 58.5 292.5 L 320.5 292.5 M 58.5 227.5 L 320.5 227.5 M 58.5 162.5 L 320.5 162.5 M 58.5 97.5 L 320.5 97.5 M 58.5 32.5 L 320.5 32.5" stroke-opacity="1" stroke-linejoin="bevel" stroke-miterlimit="10" clip-path="url(#MuTRZUKnFQgp)"/><path fill="rgb(128,128,128)" stroke="none" paint-order="stroke" d="M 59.97053909301758 40.13636016845703 L 306.6933288574219 40.13636016845703 L 306.6933288574219 292.8636474609375 L 59.97053909301758 292.8636474609375 L 59.97053909301758 40.13636016845703 Z" fill-opacity="0.10196078431372549" clip-path="url(#OCSagAcGGPAS)"/><path fill="url(#FdIFviKyruMu)" stroke="rgb(0,0,0)" paint-order="fill" d="M 59.97053909301758 40.13636016845703 L 306.6933288574219 40.13636016845703 L 306.6933288574219 292.8636474609375 L 59.97053909301758 292.8636474609375 L 59.97053909301758 40.13636016845703 Z" clip-path="url(#OCSagAcGGPAS)" stroke-opacity="0.2" stroke-linejoin="bevel" stroke-miterlimit="10"/><path fill="rgb(100,149,237)" stroke="rgb(31,119,180)" paint-order="fill" d="M 59.97053909301758 40.1363639831543 L 142.2114715576172 40.1363639831543 L 142.2114715576172 292.8636474609375 L 59.97053909301758 292.8636474609375 L 59.97053909301758 40.1363639831543 Z" fill-opacity="1" clip-path="url(#DcUizrkJgkJz)" stroke-opacity="1" stroke-linejoin="bevel" stroke-miterlimit="10"/><path fill="rgb(100,149,237)" stroke="rgb(31,119,180)" paint-order="fill" d="M 142.21145629882812 115.33987426757812 L 224.452392578125 115.33987426757812 L 224.452392578125 292.8636474609375 L 142.21145629882812 292.8636474609375 L 142.21145629882812 115.33987426757812 Z" fill-opacity="1" clip-path="url(#DcUizrkJgkJz)" stroke-opacity="1" stroke-linejoin="bevel" stroke-miterlimit="10"/><path fill="rgb(100,149,237)" stroke="rgb(31,119,180)" paint-order="fill" d="M 224.45237731933594 238.86004638671875 L 306.69329833984375 238.86004638671875 L 306.69329833984375 292.8636474609375 L 224.45237731933594 292.8636474609375 L 224.45237731933594 238.86004638671875 Z" fill-opacity="1" clip-path="url(#DcUizrkJgkJz)" stroke-opacity="1" stroke-linejoin="bevel" stroke-miterlimit="10"/><path fill="rgb(100,149,237)" stroke="rgb(31,119,180)" paint-order="fill" d="M 306.6933288574219 292.8636474609375 L 320.5 292.8636474609375 L 320.5 292.8636474609375 L 306.6933288574219 292.8636474609375 L 306.6933288574219 292.8636474609375 Z" fill-opacity="1" clip-path="url(#DcUizrkJgkJz)" stroke-opacity="1" stroke-linejoin="bevel" stroke-miterlimit="10"/><path fill="none" stroke="rgb(0,0,0)" paint-order="fill" d="M 58.5 305.5 L 320.5 305.5" stroke-opacity="1" stroke-linejoin="bevel" stroke-miterlimit="10"/><path fill="none" stroke="rgb(0,0,0)" paint-order="fill" d="M 75.5 311.5 L 75.5 303.5 M 119.5 311.5 L 119.5 303.5 M 164.5 311.5 L 164.5 303.5 M 209.5 311.5 L 209.5 303.5 M 253.5 311.5 L 253.5 303.5 M 298.5 311.5 L 298.5 303.5" stroke-opacity="1" stroke-linejoin="bevel" stroke-miterlimit="10"/><path fill="none" stroke="rgb(0,0,0)" paint-order="fill" d="M 66.5 309.5 L 66.5 305.5 M 75.5 309.5 L 75.5 305.5 M 84.5 309.5 L 84.5 305.5 M 93.5 309.5 L 93.5 305.5 M 101.5 309.5 L 101.5 305.5 M 110.5 309.5 L 110.5 305.5 M 119.5 309.5 L 119.5 305.5 M 128.5 309.5 L 128.5 305.5 M 137.5 309.5 L 137.5 305.5 M 146.5 309.5 L 146.5 305.5 M 155.5 309.5 L 155.5 305.5 M 164.5 309.5 L 164.5 305.5 M 173.5 309.5 L 173.5 305.5 M 182.5 309.5 L 182.5 305.5 M 191.5 309.5 L 191.5 305.5 M 200.5 309.5 L 200.5 305.5 M 209.5 309.5 L 209.5 305.5 M 218.5 309.5 L 218.5 305.5 M 226.5 309.5 L 226.5 305.5 M 235.5 309.5 L 235.5 305.5 M 244.5 309.5 L 244.5 305.5 M 253.5 309.5 L 253.5 305.5 M 262.5 309.5 L 262.5 305.5 M 271.5 309.5 L 271.5 305.5 M 280.5 309.5 L 280.5 305.5 M 289.5 309.5 L 289.5 305.5 M 298.5 309.5 L 298.5 305.5 M 307.5 309.5 L 307.5 305.5 M 316.5 309.5 L 316.5 305.5" stroke-opacity="1" stroke-linejoin="bevel" stroke-miterlimit="10"/><text fill="rgb(68,68,68)" stroke="none" font-family="helvetica" font-size="11px" font-style="normal" font-weight="normal" text-decoration="normal" x="62.46424865722656" y="324" text-anchor="start" dominant-baseline="alphabetic" transform="matrix(1, 0, 0, 1, 0.5, 0.5)" fill-opacity="1">5000</text><text fill="none" stroke="rgb(0,0,0)" font-family="helvetica" font-size="11px" font-style="normal" font-weight="normal" text-decoration="normal" x="62.46424865722656" y="324" text-anchor="start" dominant-baseline="alphabetic" transform="matrix(1, 0, 0, 1, 0.5, 0.5)" stroke-opacity="0" stroke-linejoin="bevel" stroke-miterlimit="10">5000</text><text fill="rgb(68,68,68)" stroke="none" font-family="helvetica" font-size="11px" font-style="normal" font-weight="normal" text-decoration="normal" x="104.0452651977539" y="324" text-anchor="start" dominant-baseline="alphabetic" transform="matrix(1, 0, 0, 1, 0.5, 0.5)" fill-opacity="1">10000</text><text fill="none" stroke="rgb(0,0,0)" font-family="helvetica" font-size="11px" font-style="normal" font-weight="normal" text-decoration="normal" x="104.0452651977539" y="324" text-anchor="start" dominant-baseline="alphabetic" transform="matrix(1, 0, 0, 1, 0.5, 0.5)" stroke-opacity="0" stroke-linejoin="bevel" stroke-miterlimit="10">10000</text><text fill="rgb(68,68,68)" stroke="none" font-family="helvetica" font-size="11px" font-style="normal" font-weight="normal" text-decoration="normal" x="148.68511962890625" y="324" text-anchor="start" dominant-baseline="alphabetic" transform="matrix(1, 0, 0, 1, 0.5, 0.5)" fill-opacity="1">15000</text><text fill="none" stroke="rgb(0,0,0)" font-family="helvetica" font-size="11px" font-style="normal" font-weight="normal" text-decoration="normal" x="148.68511962890625" y="324" text-anchor="start" dominant-baseline="alphabetic" transform="matrix(1, 0, 0, 1, 0.5, 0.5)" stroke-opacity="0" stroke-linejoin="bevel" stroke-miterlimit="10">15000</text><text fill="rgb(68,68,68)" stroke="none" font-family="helvetica" font-size="11px" font-style="normal" font-weight="normal" text-decoration="normal" x="193.32496643066406" y="324" text-anchor="start" dominant-baseline="alphabetic" transform="matrix(1, 0, 0, 1, 0.5, 0.5)" fill-opacity="1">20000</text><text fill="none" stroke="rgb(0,0,0)" font-family="helvetica" font-size="11px" font-style="normal" font-weight="normal" text-decoration="normal" x="193.32496643066406" y="324" text-anchor="start" dominant-baseline="alphabetic" transform="matrix(1, 0, 0, 1, 0.5, 0.5)" stroke-opacity="0" stroke-linejoin="bevel" stroke-miterlimit="10">20000</text><text fill="rgb(68,68,68)" stroke="none" font-family="helvetica" font-size="11px" font-style="normal" font-weight="normal" text-decoration="normal" x="237.96481323242188" y="324" text-anchor="start" dominant-baseline="alphabetic" transform="matrix(1, 0, 0, 1, 0.5, 0.5)" fill-opacity="1">25000</text><text fill="none" stroke="rgb(0,0,0)" font-family="helvetica" font-size="11px" font-style="normal" font-weight="normal" text-decoration="normal" x="237.96481323242188" y="324" text-anchor="start" dominant-baseline="alphabetic" transform="matrix(1, 0, 0, 1, 0.5, 0.5)" stroke-opacity="0" stroke-linejoin="bevel" stroke-miterlimit="10">25000</text><text fill="rgb(68,68,68)" stroke="none" font-family="helvetica" font-size="11px" font-style="normal" font-weight="normal" text-decoration="normal" x="282.60467529296875" y="324" text-anchor="start" dominant-baseline="alphabetic" transform="matrix(1, 0, 0, 1, 0.5, 0.5)" fill-opacity="1">30000</text><text fill="none" stroke="rgb(0,0,0)" font-family="helvetica" font-size="11px" font-style="normal" font-weight="normal" text-decoration="normal" x="282.60467529296875" y="324" text-anchor="start" dominant-baseline="alphabetic" transform="matrix(1, 0, 0, 1, 0.5, 0.5)" stroke-opacity="0" stroke-linejoin="bevel" stroke-miterlimit="10">30000</text><text fill="rgb(68,68,68)" stroke="none" font-family="helvetica" font-size="13px" font-style="italic" font-weight="normal" text-decoration="normal" x="124.352294921875" y="344" text-anchor="start" dominant-baseline="alphabetic" transform="matrix(1, 0, 0, 1, 0.5, 0.5)" fill-opacity="1">Minimum burn time (s)</text><text fill="none" stroke="rgb(0,0,0)" font-family="helvetica" font-size="13px" font-style="italic" font-weight="normal" text-decoration="normal" x="124.352294921875" y="344" text-anchor="start" dominant-baseline="alphabetic" transform="matrix(1, 0, 0, 1, 0.5, 0.5)" stroke-opacity="0" stroke-linejoin="bevel" stroke-miterlimit="10">Minimum burn time (s)</text><path fill="none" stroke="rgb(0,0,0)" paint-order="fill" d="M 58.5 305.5 L 58.5 27.5" stroke-opacity="1" stroke-linejoin="bevel" stroke-miterlimit="10"/><path fill="none" stroke="rgb(0,0,0)" paint-order="fill" d="M 52.5 292.5 L 60.5 292.5 M 52.5 227.5 L 60.5 227.5 M 52.5 162.5 L 60.5 162.5 M 52.5 97.5 L 60.5 97.5 M 52.5 32.5 L 60.5 32.5" stroke-opacity="1" stroke-linejoin="bevel" stroke-miterlimit="10"/><path fill="none" stroke="rgb(0,0,0)" paint-order="fill" d="M 54.5 292.5 L 58.5 292.5 M 54.5 279.5 L 58.5 279.5 M 54.5 266.5 L 58.5 266.5 M 54.5 253.5 L 58.5 253.5 M 54.5 240.5 L 58.5 240.5 M 54.5 227.5 L 58.5 227.5 M 54.5 214.5 L 58.5 214.5 M 54.5 201.5 L 58.5 201.5 M 54.5 188.5 L 58.5 188.5 M 54.5 175.5 L 58.5 175.5 M 54.5 162.5 L 58.5 162.5 M 54.5 149.5 L 58.5 149.5 M 54.5 136.5 L 58.5 136.5 M 54.5 123.5 L 58.5 123.5 M 54.5 110.5 L 58.5 110.5 M 54.5 97.5 L 58.5 97.5 M 54.5 84.5 L 58.5 84.5 M 54.5 71.5 L 58.5 71.5 M 54.5 58.5 L 58.5 58.5 M 54.5 45.5 L 58.5 45.5 M 54.5 32.5 L 58.5 32.5" stroke-opacity="1" stroke-linejoin="bevel" stroke-miterlimit="10"/><text fill="rgb(68,68,68)" stroke="none" font-family="helvetica" font-size="11px" font-style="normal" font-weight="normal" text-decoration="normal" x="40.88232421875" y="296.3636474609375" text-anchor="start" dominant-baseline="alphabetic" transform="matrix(1, 0, 0, 1, 0.5, 0.5)" fill-opacity="1">0</text><text fill="none" stroke="rgb(0,0,0)" font-family="helvetica" font-size="11px" font-style="normal" font-weight="normal" text-decoration="normal" x="40.88232421875" y="296.3636474609375" text-anchor="start" dominant-baseline="alphabetic" transform="matrix(1, 0, 0, 1, 0.5, 0.5)" stroke-opacity="0" stroke-linejoin="bevel" stroke-miterlimit="10">0</text><text fill="rgb(68,68,68)" stroke="none" font-family="helvetica" font-size="11px" font-style="normal" font-weight="normal" text-decoration="normal" x="25.5908203125" y="231.35708618164062" text-anchor="start" dominant-baseline="alphabetic" transform="matrix(1, 0, 0, 1, 0.5, 0.5)" fill-opacity="1">0.02</text><text fill="none" stroke="rgb(0,0,0)" font-family="helvetica" font-size="11px" font-style="normal" font-weight="normal" text-decoration="normal" x="25.5908203125" y="231.35708618164062" text-anchor="start" dominant-baseline="alphabetic" transform="matrix(1, 0, 0, 1, 0.5, 0.5)" stroke-opacity="0" stroke-linejoin="bevel" stroke-miterlimit="10">0.02</text><text fill="rgb(68,68,68)" stroke="none" font-family="helvetica" font-size="11px" font-style="normal" font-weight="normal" text-decoration="normal" x="25.5908203125" y="166.3505401611328" text-anchor="start" dominant-baseline="alphabetic" transform="matrix(1, 0, 0, 1, 0.5, 0.5)" fill-opacity="1">0.04</text><text fill="none" stroke="rgb(0,0,0)" font-family="helvetica" font-size="11px" font-style="normal" font-weight="normal" text-decoration="normal" x="25.5908203125" y="166.3505401611328" text-anchor="start" dominant-baseline="alphabetic" transform="matrix(1, 0, 0, 1, 0.5, 0.5)" stroke-opacity="0" stroke-linejoin="bevel" stroke-miterlimit="10">0.04</text><text fill="rgb(68,68,68)" stroke="none" font-family="helvetica" font-size="11px" font-style="normal" font-weight="normal" text-decoration="normal" x="25.5908203125" y="101.34398651123047" text-anchor="start" dominant-baseline="alphabetic" transform="matrix(1, 0, 0, 1, 0.5, 0.5)" fill-opacity="1">0.06</text><text fill="none" stroke="rgb(0,0,0)" font-family="helvetica" font-size="11px" font-style="normal" font-weight="normal" text-decoration="normal" x="25.5908203125" y="101.34398651123047" text-anchor="start" dominant-baseline="alphabetic" transform="matrix(1, 0, 0, 1, 0.5, 0.5)" stroke-opacity="0" stroke-linejoin="bevel" stroke-miterlimit="10">0.06</text><text fill="rgb(68,68,68)" stroke="none" font-family="helvetica" font-size="11px" font-style="normal" font-weight="normal" text-decoration="normal" x="25.5908203125" y="36.337432861328125" text-anchor="start" dominant-baseline="alphabetic" transform="matrix(1, 0, 0, 1, 0.5, 0.5)" fill-opacity="1">0.08</text><text fill="none" stroke="rgb(0,0,0)" font-family="helvetica" font-size="11px" font-style="normal" font-weight="normal" text-decoration="normal" x="25.5908203125" y="36.337432861328125" text-anchor="start" dominant-baseline="alphabetic" transform="matrix(1, 0, 0, 1, 0.5, 0.5)" stroke-opacity="0" stroke-linejoin="bevel" stroke-miterlimit="10">0.08</text><text fill="rgb(68,68,68)" stroke="none" font-family="helvetica" font-size="13px" font-style="italic" font-weight="normal" text-decoration="normal" x="-47.4345703125" y="163" text-anchor="start" dominant-baseline="alphabetic" transform="matrix(6.123233995736766e-17, -1, 1, 6.123233995736766e-17, -147.9091796875, 184.0908203125)" fill-opacity="1">Normalised Probability</text><text fill="none" stroke="rgb(0,0,0)" font-family="helvetica" font-size="13px" font-style="italic" font-weight="normal" text-decoration="normal" x="-47.4345703125" y="163" text-anchor="start" dominant-baseline="alphabetic" transform="matrix(6.123233995736766e-17, -1, 1, 6.123233995736766e-17, -147.9091796875, 184.0908203125)" stroke-opacity="0" stroke-linejoin="bevel" stroke-miterlimit="10">Normalised Probability</text><path fill="rgb(255,249,186)" stroke="rgb(255,0,0)" paint-order="fill" d="M 187.1758764079334 40.13636363636368 L 187.1758764079334 40.13636363636368 L 187.1758764079334 292.8636363636364 L 187.1758764079334 292.8636363636364 L 187.1758764079334 40.13636363636368 Z" fill-opacity="0.4" clip-path="url(#yTwdeTyyPNBv)" stroke-opacity="1" stroke-linejoin="bevel" stroke-miterlimit="10" stroke-width="2" stroke-dasharray="6"/><path fill="rgb(255,249,186)" stroke="rgb(50,205,50)" paint-order="fill" d="M 101.09100315574037 40.13636363636368 L 101.09100315574037 40.13636363636368 L 101.09100315574037 292.8636363636364 L 101.09100315574037 292.8636363636364 L 101.09100315574037 40.13636363636368 Z" fill-opacity="0.4" clip-path="url(#XPwMJHpLJCzJ)" stroke-opacity="1" stroke-linejoin="bevel" stroke-miterlimit="10" stroke-width="2" stroke-dasharray="6"/><text fill="rgb(68,68,68)" stroke="none" font-family="helvetica" font-size="13px" font-style="normal" font-weight="bold" text-decoration="normal" x="58" y="19" text-anchor="start" dominant-baseline="alphabetic" transform="matrix(1, 0, 0, 1, 0.5, 0.5)" fill-opacity="1">Convergance Probability</text><text fill="none" stroke="rgb(0,0,0)" font-family="helvetica" font-size="13px" font-style="normal" font-weight="bold" text-decoration="normal" x="58" y="19" text-anchor="start" dominant-baseline="alphabetic" transform="matrix(1, 0, 0, 1, 0.5, 0.5)" stroke-opacity="0" stroke-miterlimit="10" stroke-dasharray="">Convergance Probability</text></svg>