<svg version="1.1" xmlns="http://www.w3.org/2000/svg" width="275" height="275"><defs><clipPath id="VFDpTbkfrGnM"><path fill="none" stroke="none" d="M 52.5 27.5 L 245.5 27.5 L 245.5 230.5 L 52.5 230.5 L 52.5 27.5 Z"/></clipPath><clipPath id="zRrkATQVgLIH"><path fill="none" stroke="none" d="M 52.5 27.5 L 245.5 27.5 L 245.5 230.5 L 52.5 230.5 L 52.5 27.5 Z"/></clipPath><clipPath id="oBVTkPAOkBqg"><path fill="none" stroke="none" d="M 52.5 27.5 L 245.5 27.5 L 245.5 230.5 L 52.5 230.5 L 52.5 27.5 Z"/></clipPath><clipPath id="JeRybJEhAfVf"><path fill="none" stroke="none" d="M 52.5 27.5 L 245.5 27.5 L 245.5 230.5 L 52.5 230.5 L 52.5 27.5 Z"/></clipPath><pattern id="bHtCPwIXaDcD" width="3" height="3" patternUnits="userSpaceOnUse"><path fill="rgb(0,0,0)" stroke="none" paint-order="stroke" d="M 2.75 2 A 0.75 0.75 0 0 0 1.25 2 A 0.75 0.75 0 0 0 2.75 2" fill-opacity="0.14901960784313725"/></pattern><clipPath id="JvSUWaHzgOUM"><path fill="none" stroke="none" d="M 52.5 27.5 L 245.5 27.5 L 245.5 230.5 L 52.5 230.5 L 52.5 27.5 Z"/></clipPath><clipPath id="SochBJWfNEnA"><path fill="none" stroke="none" d="M 52.5 27.5 L 245.5 27.5 L 245.5 230.5 L 52.5 230.5 L 52.5 27.5 Z"/></clipPath><clipPath id="DVoDdqXeSLkz"><path fill="none" stroke="none" d="M 52.5 27.5 L 245.5 27.5 L 245.5 230.5 L 52.5 230.5 L 52.5 27.5 Z"/></clipPath><clipPath id="evdVPaLEJGcU"><path fill="none" stroke="none" d="M 52.5 27.5 L 245.5 27.5 L 245.5 230.5 L 52.5 230.5 L 52.5 27.5 Z"/></clipPath></defs><path fill="rgb(255,255,255)" stroke="none" paint-order="stroke" d="M 0.5 0.5 L 275.5 0.5 L 275.5 275.5 L 0.5 275.5 L 0.5 0.5 Z" fill-opacity="1"/><rect fill="#FFFFFF" stroke="none" x="52" y="27" width="193" height="203" transform="matrix(1, 0, 0, 1, 0.5, 0.5)"/><path fill="rgb(255,255,255)" stroke="none" paint-order="stroke" d="M 52.5 27.5 L 245.5 27.5 L 245.5 230.5 L 52.5 230.5 L 52.5 27.5 Z" fill-opacity="1"/><path fill="none" stroke="rgb(229,229,229)" paint-order="fill" d="M 52.5 27.5 L 245.5 27.5 L 245.5 230.5 L 52.5 230.5 L 52.5 27.5 Z" stroke-opacity="1" stroke-linejoin="bevel" stroke-miterlimit="10"/><path fill="none" stroke="rgb(229,229,229)" paint-order="fill" d="M 79.5 230.5 L 79.5 27.5 M 120.5 230.5 L 120.5 27.5 M 161.5 230.5 L 161.5 27.5 M 202.5 230.5 L 202.5 27.5 M 243.5 230.5 L 243.5 27.5" stroke-opacity="1" stroke-linejoin="bevel" stroke-miterlimit="10" clip-path="url(#VFDpTbkfrGnM)"/><path fill="none" stroke="rgb(229,229,229)" paint-order="fill" d="M 52.5 221.5 L 245.5 221.5 M 52.5 179.5 L 245.5 179.5 M 52.5 138.5 L 245.5 138.5 M 52.5 96.5 L 245.5 96.5 M 52.5 54.5 L 245.5 54.5" stroke-opacity="1" stroke-linejoin="bevel" stroke-miterlimit="10" clip-path="url(#zRrkATQVgLIH)"/><path fill="none" stroke="rgb(0,0,0)" paint-order="fill" d="M 70.23251342773438 116.65133666992188 L 70.23251342773438 121.65371704101562" stroke-opacity="1" stroke-linejoin="bevel" stroke-miterlimit="10" clip-path="url(#oBVTkPAOkBqg)"/><path fill="none" stroke="rgb(0,0,0)" paint-order="fill" d="M 99.95609283447266 65.85042572021484 L 99.95609283447266 69.72856903076172" stroke-opacity="1" stroke-linejoin="bevel" stroke-miterlimit="10" clip-path="url(#oBVTkPAOkBqg)"/><path fill="none" stroke="rgb(0,0,0)" paint-order="fill" d="M 129.67967224121094 34.954463958740234 L 129.67967224121094 38.50008010864258" stroke-opacity="1" stroke-linejoin="bevel" stroke-miterlimit="10" clip-path="url(#oBVTkPAOkBqg)"/><path fill="none" stroke="rgb(0,0,0)" paint-order="fill" d="M 159.40325927734375 192.49143981933594 L 159.40325927734375 196.9495086669922" stroke-opacity="1" stroke-linejoin="bevel" stroke-miterlimit="10" clip-path="url(#oBVTkPAOkBqg)"/><path fill="none" stroke="rgb(0,0,0)" paint-order="fill" d="M 189.1268310546875 212.91806030273438 L 189.1268310546875 214.984130859375" stroke-opacity="1" stroke-linejoin="bevel" stroke-miterlimit="10" clip-path="url(#oBVTkPAOkBqg)"/><path fill="none" stroke="rgb(0,0,0)" paint-order="fill" d="M 218.8504180908203 209.53282165527344 L 218.8504180908203 212.11143493652344" stroke-opacity="1" stroke-linejoin="bevel" stroke-miterlimit="10" clip-path="url(#oBVTkPAOkBqg)"/><path fill="none" stroke="rgb(0,0,0)" paint-order="fill" d="M 65.23251342773438 116.65133666992188 L 75.23251342773438 116.65133666992188" stroke-opacity="1" stroke-linejoin="bevel" stroke-miterlimit="10" clip-path="url(#oBVTkPAOkBqg)"/><path fill="none" stroke="rgb(0,0,0)" paint-order="fill" d="M 94.95609283447266 65.85042572021484 L 104.95609283447266 65.85042572021484" stroke-opacity="1" stroke-linejoin="bevel" stroke-miterlimit="10" clip-path="url(#oBVTkPAOkBqg)"/><path fill="none" stroke="rgb(0,0,0)" paint-order="fill" d="M 124.67967224121094 34.954463958740234 L 134.67967224121094 34.954463958740234" stroke-opacity="1" stroke-linejoin="bevel" stroke-miterlimit="10" clip-path="url(#oBVTkPAOkBqg)"/><path fill="none" stroke="rgb(0,0,0)" paint-order="fill" d="M 154.40325927734375 192.49143981933594 L 164.40325927734375 192.49143981933594" stroke-opacity="1" stroke-linejoin="bevel" stroke-miterlimit="10" clip-path="url(#oBVTkPAOkBqg)"/><path fill="none" stroke="rgb(0,0,0)" paint-order="fill" d="M 184.1268310546875 212.91806030273438 L 194.1268310546875 212.91806030273438" stroke-opacity="1" stroke-linejoin="bevel" stroke-miterlimit="10" clip-path="url(#oBVTkPAOkBqg)"/><path fill="none" stroke="rgb(0,0,0)" paint-order="fill" d="M 213.8504180908203 209.53282165527344 L 223.8504180908203 209.53282165527344" stroke-opacity="1" stroke-linejoin="bevel" stroke-miterlimit="10" clip-path="url(#oBVTkPAOkBqg)"/><path fill="none" stroke="rgb(0,0,0)" paint-order="fill" d="M 75.23251342773438 121.65371704101562 L 65.23251342773438 121.65371704101562" stroke-opacity="1" stroke-linejoin="bevel" stroke-miterlimit="10" clip-path="url(#oBVTkPAOkBqg)"/><path fill="none" stroke="rgb(0,0,0)" paint-order="fill" d="M 104.95609283447266 69.72856903076172 L 94.95609283447266 69.72856903076172" stroke-opacity="1" stroke-linejoin="bevel" stroke-miterlimit="10" clip-path="url(#oBVTkPAOkBqg)"/><path fill="none" stroke="rgb(0,0,0)" paint-order="fill" d="M 134.67967224121094 38.50008010864258 L 124.67967224121094 38.50008010864258" stroke-opacity="1" stroke-linejoin="bevel" stroke-miterlimit="10" clip-path="url(#oBVTkPAOkBqg)"/><path fill="none" stroke="rgb(0,0,0)" paint-order="fill" d="M 164.40325927734375 196.9495086669922 L 154.40325927734375 196.9495086669922" stroke-opacity="1" stroke-linejoin="bevel" stroke-miterlimit="10" clip-path="url(#oBVTkPAOkBqg)"/><path fill="none" stroke="rgb(0,0,0)" paint-order="fill" d="M 194.1268310546875 214.984130859375 L 184.1268310546875 214.984130859375" stroke-opacity="1" stroke-linejoin="bevel" stroke-miterlimit="10" clip-path="url(#oBVTkPAOkBqg)"/><path fill="none" stroke="rgb(0,0,0)" paint-order="fill" d="M 223.8504180908203 212.11143493652344 L 213.8504180908203 212.11143493652344" stroke-opacity="1" stroke-linejoin="bevel" stroke-miterlimit="10" clip-path="url(#oBVTkPAOkBqg)"/><path fill="rgb(128,128,128)" stroke="none" paint-order="stroke" d="M 55.370723724365234 36.727272033691406 L 233.7122039794922 36.727272033691406 L 233.7122039794922 221.27273559570312 L 55.370723724365234 221.27273559570312 L 55.370723724365234 36.727272033691406 Z" fill-opacity="0.10196078431372549" clip-path="url(#JeRybJEhAfVf)"/><path fill="url(#bHtCPwIXaDcD)" stroke="rgb(0,0,0)" paint-order="fill" d="M 55.370723724365234 36.727272033691406 L 233.7122039794922 36.727272033691406 L 233.7122039794922 221.27273559570312 L 55.370723724365234 221.27273559570312 L 55.370723724365234 36.727272033691406 Z" clip-path="url(#JeRybJEhAfVf)" stroke-opacity="0.2" stroke-linejoin="bevel" stroke-miterlimit="10"/><path fill="rgb(100,149,237)" stroke="rgb(31,119,180)" paint-order="fill" d="M 55.370723724365234 119.15252685546875 L 85.09429931640625 119.15252685546875 L 85.09429931640625 221.27272033691406 L 55.370723724365234 221.27272033691406 L 55.370723724365234 119.15252685546875 Z" fill-opacity="0.5019607843137255" clip-path="url(#JvSUWaHzgOUM)" stroke-opacity="0.5019607843137255" stroke-linejoin="bevel" stroke-miterlimit="10"/><path fill="rgb(100,149,237)" stroke="rgb(31,119,180)" paint-order="fill" d="M 85.09429931640625 67.78949737548828 L 114.81788635253906 67.78949737548828 L 114.81788635253906 221.27272033691406 L 85.09429931640625 221.27272033691406 L 85.09429931640625 67.78949737548828 Z" fill-opacity="0.5019607843137255" clip-path="url(#JvSUWaHzgOUM)" stroke-opacity="0.5019607843137255" stroke-linejoin="bevel" stroke-miterlimit="10"/><path fill="rgb(100,149,237)" stroke="rgb(31,119,180)" paint-order="fill" d="M 114.81788635253906 36.727272033691406 L 144.5414581298828 36.727272033691406 L 144.5414581298828 221.27272033691406 L 114.81788635253906 221.27272033691406 L 114.81788635253906 36.727272033691406 Z" fill-opacity="0.5019607843137255" clip-path="url(#JvSUWaHzgOUM)" stroke-opacity="0.5019607843137255" stroke-linejoin="bevel" stroke-miterlimit="10"/><path fill="rgb(100,149,237)" stroke="rgb(31,119,180)" paint-order="fill" d="M 144.54147338867188 194.72047424316406 L 174.26504516601562 194.72047424316406 L 174.26504516601562 221.27272033691406 L 144.54147338867188 221.27272033691406 L 144.54147338867188 194.72047424316406 Z" fill-opacity="0.5019607843137255" clip-path="url(#JvSUWaHzgOUM)" stroke-opacity="0.5019607843137255" stroke-linejoin="bevel" stroke-miterlimit="10"/><path fill="rgb(100,149,237)" stroke="rgb(31,119,180)" paint-order="fill" d="M 174.26504516601562 213.9510955810547 L 203.98861694335938 213.9510955810547 L 203.98861694335938 221.27272033691406 L 174.26504516601562 221.27272033691406 L 174.26504516601562 213.9510955810547 Z" fill-opacity="0.5019607843137255" clip-path="url(#JvSUWaHzgOUM)" stroke-opacity="0.5019607843137255" stroke-linejoin="bevel" stroke-miterlimit="10"/><path fill="rgb(100,149,237)" stroke="rgb(31,119,180)" paint-order="fill" d="M 203.98863220214844 210.82212829589844 L 233.7122039794922 210.82212829589844 L 233.7122039794922 221.27272033691406 L 203.98863220214844 221.27272033691406 L 203.98863220214844 210.82212829589844 Z" fill-opacity="0.5019607843137255" clip-path="url(#JvSUWaHzgOUM)" stroke-opacity="0.5019607843137255" stroke-linejoin="bevel" stroke-miterlimit="10"/><path fill="none" stroke="rgb(0,0,0)" paint-order="fill" d="M 52.5 230.5 L 245.5 230.5" stroke-opacity="1" stroke-linejoin="bevel" stroke-miterlimit="10"/><path fill="none" stroke="rgb(0,0,0)" paint-order="fill" d="M 79.5 236.5 L 79.5 228.5 M 120.5 236.5 L 120.5 228.5 M 161.5 236.5 L 161.5 228.5 M 202.5 236.5 L 202.5 228.5 M 243.5 236.5 L 243.5 228.5" stroke-opacity="1" stroke-linejoin="bevel" stroke-miterlimit="10"/><path fill="none" stroke="rgb(0,0,0)" paint-order="fill" d="M 71.5 234.5 L 71.5 230.5 M 63.5 234.5 L 63.5 230.5 M 55.5 234.5 L 55.5 230.5 M 79.5 234.5 L 79.5 230.5 M 88.5 234.5 L 88.5 230.5 M 96.5 234.5 L 96.5 230.5 M 104.5 234.5 L 104.5 230.5 M 112.5 234.5 L 112.5 230.5 M 120.5 234.5 L 120.5 230.5 M 128.5 234.5 L 128.5 230.5 M 137.5 234.5 L 137.5 230.5 M 145.5 234.5 L 145.5 230.5 M 153.5 234.5 L 153.5 230.5 M 161.5 234.5 L 161.5 230.5 M 169.5 234.5 L 169.5 230.5 M 178.5 234.5 L 178.5 230.5 M 186.5 234.5 L 186.5 230.5 M 194.5 234.5 L 194.5 230.5 M 202.5 234.5 L 202.5 230.5 M 210.5 234.5 L 210.5 230.5 M 219.5 234.5 L 219.5 230.5 M 227.5 234.5 L 227.5 230.5 M 235.5 234.5 L 235.5 230.5 M 243.5 234.5 L 243.5 230.5" stroke-opacity="1" stroke-linejoin="bevel" stroke-miterlimit="10"/><text fill="rgb(68,68,68)" stroke="none" font-family="helvetica" font-size="11px" font-style="normal" font-weight="normal" text-decoration="normal" x="64.03959655761719" y="249" text-anchor="start" dominant-baseline="alphabetic" transform="matrix(1, 0, 0, 1, 0.5, 0.5)" fill-opacity="1">10000</text><text fill="none" stroke="rgb(0,0,0)" font-family="helvetica" font-size="11px" font-style="normal" font-weight="normal" text-decoration="normal" x="64.03959655761719" y="249" text-anchor="start" dominant-baseline="alphabetic" transform="matrix(1, 0, 0, 1, 0.5, 0.5)" stroke-opacity="0" stroke-linejoin="bevel" stroke-miterlimit="10">10000</text><text fill="rgb(68,68,68)" stroke="none" font-family="helvetica" font-size="11px" font-style="normal" font-weight="normal" text-decoration="normal" x="104.97835540771484" y="249" text-anchor="start" dominant-baseline="alphabetic" transform="matrix(1, 0, 0, 1, 0.5, 0.5)" fill-opacity="1">15000</text><text fill="none" stroke="rgb(0,0,0)" font-family="helvetica" font-size="11px" font-style="normal" font-weight="normal" text-decoration="normal" x="104.97835540771484" y="249" text-anchor="start" dominant-baseline="alphabetic" transform="matrix(1, 0, 0, 1, 0.5, 0.5)" stroke-opacity="0" stroke-linejoin="bevel" stroke-miterlimit="10">15000</text><text fill="rgb(68,68,68)" stroke="none" font-family="helvetica" font-size="11px" font-style="normal" font-weight="normal" text-decoration="normal" x="145.9171142578125" y="249" text-anchor="start" dominant-baseline="alphabetic" transform="matrix(1, 0, 0, 1, 0.5, 0.5)" fill-opacity="1">20000</text><text fill="none" stroke="rgb(0,0,0)" font-family="helvetica" font-size="11px" font-style="normal" font-weight="normal" text-decoration="normal" x="145.9171142578125" y="249" text-anchor="start" dominant-baseline="alphabetic" transform="matrix(1, 0, 0, 1, 0.5, 0.5)" stroke-opacity="0" stroke-linejoin="bevel" stroke-miterlimit="10">20000</text><text fill="rgb(68,68,68)" stroke="none" font-family="helvetica" font-size="11px" font-style="normal" font-weight="normal" text-decoration="normal" x="186.85586547851562" y="249" text-anchor="start" dominant-baseline="alphabetic" transform="matrix(1, 0, 0, 1, 0.5, 0.5)" fill-opacity="1">25000</text><text fill="none" stroke="rgb(0,0,0)" font-family="helvetica" font-size="11px" font-style="normal" font-weight="normal" text-decoration="normal" x="186.85586547851562" y="249" text-anchor="start" dominant-baseline="alphabetic" transform="matrix(1, 0, 0, 1, 0.5, 0.5)" stroke-opacity="0" stroke-linejoin="bevel" stroke-miterlimit="10">25000</text><text fill="rgb(68,68,68)" stroke="none" font-family="helvetica" font-size="11px" font-style="normal" font-weight="normal" text-decoration="normal" x="227.7946319580078" y="249" text-anchor="start" dominant-baseline="alphabetic" transform="matrix(1, 0, 0, 1, 0.5, 0.5)" fill-opacity="1">30000</text><text fill="none" stroke="rgb(0,0,0)" font-family="helvetica" font-size="11px" font-style="normal" font-weight="normal" text-decoration="normal" x="227.7946319580078" y="249" text-anchor="start" dominant-baseline="alphabetic" transform="matrix(1, 0, 0, 1, 0.5, 0.5)" stroke-opacity="0" stroke-linejoin="bevel" stroke-miterlimit="10">30000</text><text fill="rgb(68,68,68)" stroke="none" font-family="helvetica" font-size="13px" font-style="italic" font-weight="normal" text-decoration="normal" x="83.852294921875" y="269" text-anchor="start" dominant-baseline="alphabetic" transform="matrix(1, 0, 0, 1, 0.5, 0.5)" fill-opacity="1">Minimum burn time (s)</text><text fill="none" stroke="rgb(0,0,0)" font-family="helvetica" font-size="13px" font-style="italic" font-weight="normal" text-decoration="normal" x="83.852294921875" y="269" text-anchor="start" dominant-baseline="alphabetic" transform="matrix(1, 0, 0, 1, 0.5, 0.5)" stroke-opacity="0" stroke-linejoin="bevel" stroke-miterlimit="10">Minimum burn time (s)</text><path fill="none" stroke="rgb(0,0,0)" paint-order="fill" d="M 52.5 230.5 L 52.5 27.5" stroke-opacity="1" stroke-linejoin="bevel" stroke-miterlimit="10"/><path fill="none" stroke="rgb(0,0,0)" paint-order="fill" d="M 46.5 221.5 L 54.5 221.5 M 46.5 179.5 L 54.5 179.5 M 46.5 138.5 L 54.5 138.5 M 46.5 96.5 L 54.5 96.5 M 46.5 54.5 L 54.5 54.5" stroke-opacity="1" stroke-linejoin="bevel" stroke-miterlimit="10"/><path fill="none" stroke="rgb(0,0,0)" paint-order="fill" d="M 48.5 229.5 L 52.5 229.5 M 48.5 221.5 L 52.5 221.5 M 48.5 212.5 L 52.5 212.5 M 48.5 204.5 L 52.5 204.5 M 48.5 196.5 L 52.5 196.5 M 48.5 187.5 L 52.5 187.5 M 48.5 179.5 L 52.5 179.5 M 48.5 171.5 L 52.5 171.5 M 48.5 163.5 L 52.5 163.5 M 48.5 154.5 L 52.5 154.5 M 48.5 146.5 L 52.5 146.5 M 48.5 138.5 L 52.5 138.5 M 48.5 129.5 L 52.5 129.5 M 48.5 121.5 L 52.5 121.5 M 48.5 113.5 L 52.5 113.5 M 48.5 104.5 L 52.5 104.5 M 48.5 96.5 L 52.5 96.5 M 48.5 88.5 L 52.5 88.5 M 48.5 79.5 L 52.5 79.5 M 48.5 71.5 L 52.5 71.5 M 48.5 63.5 L 52.5 63.5 M 48.5 54.5 L 52.5 54.5 M 48.5 46.5 L 52.5 46.5 M 48.5 38.5 L 52.5 38.5 M 48.5 29.5 L 52.5 29.5" stroke-opacity="1" stroke-linejoin="bevel" stroke-miterlimit="10"/><text fill="rgb(68,68,68)" stroke="none" font-family="helvetica" font-size="11px" font-style="normal" font-weight="normal" text-decoration="normal" x="34.88232421875" y="224.77272033691406" text-anchor="start" dominant-baseline="alphabetic" transform="matrix(1, 0, 0, 1, 0.5, 0.5)" fill-opacity="1">0</text><text fill="none" stroke="rgb(0,0,0)" font-family="helvetica" font-size="11px" font-style="normal" font-weight="normal" text-decoration="normal" x="34.88232421875" y="224.77272033691406" text-anchor="start" dominant-baseline="alphabetic" transform="matrix(1, 0, 0, 1, 0.5, 0.5)" stroke-opacity="0" stroke-linejoin="bevel" stroke-miterlimit="10">0</text><text fill="rgb(68,68,68)" stroke="none" font-family="helvetica" font-size="11px" font-style="normal" font-weight="normal" text-decoration="normal" x="25.70849609375" y="183.15206909179688" text-anchor="start" dominant-baseline="alphabetic" transform="matrix(1, 0, 0, 1, 0.5, 0.5)" fill-opacity="1">0.2</text><text fill="none" stroke="rgb(0,0,0)" font-family="helvetica" font-size="11px" font-style="normal" font-weight="normal" text-decoration="normal" x="25.70849609375" y="183.15206909179688" text-anchor="start" dominant-baseline="alphabetic" transform="matrix(1, 0, 0, 1, 0.5, 0.5)" stroke-opacity="0" stroke-linejoin="bevel" stroke-miterlimit="10">0.2</text><text fill="rgb(68,68,68)" stroke="none" font-family="helvetica" font-size="11px" font-style="normal" font-weight="normal" text-decoration="normal" x="25.70849609375" y="141.53140258789062" text-anchor="start" dominant-baseline="alphabetic" transform="matrix(1, 0, 0, 1, 0.5, 0.5)" fill-opacity="1">0.4</text><text fill="none" stroke="rgb(0,0,0)" font-family="helvetica" font-size="11px" font-style="normal" font-weight="normal" text-decoration="normal" x="25.70849609375" y="141.53140258789062" text-anchor="start" dominant-baseline="alphabetic" transform="matrix(1, 0, 0, 1, 0.5, 0.5)" stroke-opacity="0" stroke-linejoin="bevel" stroke-miterlimit="10">0.4</text><text fill="rgb(68,68,68)" stroke="none" font-family="helvetica" font-size="11px" font-style="normal" font-weight="normal" text-decoration="normal" x="25.70849609375" y="99.91075134277344" text-anchor="start" dominant-baseline="alphabetic" transform="matrix(1, 0, 0, 1, 0.5, 0.5)" fill-opacity="1">0.6</text><text fill="none" stroke="rgb(0,0,0)" font-family="helvetica" font-size="11px" font-style="normal" font-weight="normal" text-decoration="normal" x="25.70849609375" y="99.91075134277344" text-anchor="start" dominant-baseline="alphabetic" transform="matrix(1, 0, 0, 1, 0.5, 0.5)" stroke-opacity="0" stroke-linejoin="bevel" stroke-miterlimit="10">0.6</text><text fill="rgb(68,68,68)" stroke="none" font-family="helvetica" font-size="11px" font-style="normal" font-weight="normal" text-decoration="normal" x="25.70849609375" y="58.29008865356445" text-anchor="start" dominant-baseline="alphabetic" transform="matrix(1, 0, 0, 1, 0.5, 0.5)" fill-opacity="1">0.8</text><text fill="none" stroke="rgb(0,0,0)" font-family="helvetica" font-size="11px" font-style="normal" font-weight="normal" text-decoration="normal" x="25.70849609375" y="58.29008865356445" text-anchor="start" dominant-baseline="alphabetic" transform="matrix(1, 0, 0, 1, 0.5, 0.5)" stroke-opacity="0" stroke-linejoin="bevel" stroke-miterlimit="10">0.8</text><text fill="rgb(68,68,68)" stroke="none" font-family="helvetica" font-size="13px" font-style="italic" font-weight="normal" text-decoration="normal" x="-15.175537109375" y="125.5" text-anchor="start" dominant-baseline="alphabetic" transform="matrix(6.123233995736766e-17, -1, 1, 6.123233995736766e-17, -110.29150390625, 146.70849609375)" fill-opacity="1">Confidence</text><text fill="none" stroke="rgb(0,0,0)" font-family="helvetica" font-size="13px" font-style="italic" font-weight="normal" text-decoration="normal" x="-15.175537109375" y="125.5" text-anchor="start" dominant-baseline="alphabetic" transform="matrix(6.123233995736766e-17, -1, 1, 6.123233995736766e-17, -110.29150390625, 146.70849609375)" stroke-opacity="0" stroke-linejoin="bevel" stroke-miterlimit="10">Confidence</text><path fill="rgb(255,249,186)" stroke="rgb(255,0,0)" paint-order="fill" d="M 117.23848821423445 36.72727272727272 L 117.23848821423445 36.72727272727272 L 117.23848821423445 221.27272727272725 L 117.23848821423445 221.27272727272725 L 117.23848821423445 36.72727272727272 Z" fill-opacity="0.4" clip-path="url(#SochBJWfNEnA)" stroke-opacity="1" stroke-linejoin="bevel" stroke-miterlimit="10" stroke-width="2" stroke-dasharray="6"/><path fill="rgb(255,249,186)" stroke="rgb(50,205,50)" paint-order="fill" d="M 129.67967293557194 36.72727272727272 L 129.67967293557194 36.72727272727272 L 129.67967293557194 221.27272727272725 L 129.67967293557194 221.27272727272725 L 129.67967293557194 36.72727272727272 Z" fill-opacity="0.4" clip-path="url(#DVoDdqXeSLkz)" stroke-opacity="1" stroke-linejoin="bevel" stroke-miterlimit="10" stroke-width="2" stroke-dasharray="6"/><text fill="rgb(68,68,68)" stroke="none" font-family="helvetica" font-size="13px" font-style="normal" font-weight="bold" text-decoration="normal" x="52" y="19" text-anchor="start" dominant-baseline="alphabetic" transform="matrix(1, 0, 0, 1, 0.5, 0.5)" fill-opacity="1">Convergance Probability</text><text fill="none" stroke="rgb(0,0,0)" font-family="helvetica" font-size="13px" font-style="normal" font-weight="bold" text-decoration="normal" x="52" y="19" text-anchor="start" dominant-baseline="alphabetic" transform="matrix(1, 0, 0, 1, 0.5, 0.5)" stroke-opacity="0" stroke-miterlimit="10" stroke-dasharray="">Convergance Probability</text></svg>