<svg version="1.1" xmlns="http://www.w3.org/2000/svg" width="275" height="275"><defs><clipPath id="lqLbAHphtxEd"><path fill="none" stroke="none" d="M 52.5 27.5 L 245.5 27.5 L 245.5 230.5 L 52.5 230.5 L 52.5 27.5 Z"/></clipPath><clipPath id="iasZESTFNeLM"><path fill="none" stroke="none" d="M 52.5 27.5 L 245.5 27.5 L 245.5 230.5 L 52.5 230.5 L 52.5 27.5 Z"/></clipPath><clipPath id="FwJaAlKFmSOt"><path fill="none" stroke="none" d="M 52.5 27.5 L 245.5 27.5 L 245.5 230.5 L 52.5 230.5 L 52.5 27.5 Z"/></clipPath><clipPath id="VsNCETCOTBFL"><path fill="none" stroke="none" d="M 52.5 27.5 L 245.5 27.5 L 245.5 230.5 L 52.5 230.5 L 52.5 27.5 Z"/></clipPath><pattern id="qxbmsTXNiFyL" width="3" height="3" patternUnits="userSpaceOnUse"><path fill="rgb(0,0,0)" stroke="none" paint-order="stroke" d="M 2.75 2 A 0.75 0.75 0 0 0 1.25 2 A 0.75 0.75 0 0 0 2.75 2" fill-opacity="0.14901960784313725"/></pattern><clipPath id="KnsdUxUUnSqI"><path fill="none" stroke="none" d="M 52.5 27.5 L 245.5 27.5 L 245.5 230.5 L 52.5 230.5 L 52.5 27.5 Z"/></clipPath><clipPath id="mgkoZPZrHexd"><path fill="none" stroke="none" d="M 52.5 27.5 L 245.5 27.5 L 245.5 230.5 L 52.5 230.5 L 52.5 27.5 Z"/></clipPath><clipPath id="dTLcolAwfXmu"><path fill="none" stroke="none" d="M 52.5 27.5 L 245.5 27.5 L 245.5 230.5 L 52.5 230.5 L 52.5 27.5 Z"/></clipPath><clipPath id="xnhalFgsipDP"><path fill="none" stroke="none" d="M 52.5 27.5 L 245.5 27.5 L 245.5 230.5 L 52.5 230.5 L 52.5 27.5 Z"/></clipPath></defs><path fill="rgb(255,255,255)" stroke="none" paint-order="stroke" d="M 0.5 0.5 L 275.5 0.5 L 275.5 275.5 L 0.5 275.5 L 0.5 0.5 Z" fill-opacity="1"/><rect fill="#FFFFFF" stroke="none" x="52" y="27" width="193" height="203" transform="matrix(1, 0, 0, 1, 0.5, 0.5)"/><path fill="rgb(255,255,255)" stroke="none" paint-order="stroke" d="M 52.5 27.5 L 245.5 27.5 L 245.5 230.5 L 52.5 230.5 L 52.5 27.5 Z" fill-opacity="1"/><path fill="none" stroke="rgb(229,229,229)" paint-order="fill" d="M 52.5 27.5 L 245.5 27.5 L 245.5 230.5 L 52.5 230.5 L 52.5 27.5 Z" stroke-opacity="1" stroke-linejoin="bevel" stroke-miterlimit="10"/><path fill="none" stroke="rgb(229,229,229)" paint-order="fill" d="M 79.5 230.5 L 79.5 27.5 M 120.5 230.5 L 120.5 27.5 M 161.5 230.5 L 161.5 27.5 M 202.5 230.5 L 202.5 27.5 M 243.5 230.5 L 243.5 27.5" stroke-opacity="1" stroke-linejoin="bevel" stroke-miterlimit="10" clip-path="url(#lqLbAHphtxEd)"/><path fill="none" stroke="rgb(229,229,229)" paint-order="fill" d="M 52.5 221.5 L 245.5 221.5 M 52.5 192.5 L 245.5 192.5 M 52.5 164.5 L 245.5 164.5 M 52.5 135.5 L 245.5 135.5 M 52.5 106.5 L 245.5 106.5 M 52.5 78.5 L 245.5 78.5 M 52.5 49.5 L 245.5 49.5" stroke-opacity="1" stroke-linejoin="bevel" stroke-miterlimit="10" clip-path="url(#iasZESTFNeLM)"/><path fill="none" stroke="rgb(0,0,0)" paint-order="fill" d="M 70.23251342773438 93.32502746582031 L 70.23251342773438 101.52526092529297" stroke-opacity="1" stroke-linejoin="bevel" stroke-miterlimit="10" clip-path="url(#FwJaAlKFmSOt)"/><path fill="none" stroke="rgb(0,0,0)" paint-order="fill" d="M 99.95609283447266 52.946937561035156 L 99.95609283447266 60.69479751586914" stroke-opacity="1" stroke-linejoin="bevel" stroke-miterlimit="10" clip-path="url(#FwJaAlKFmSOt)"/><path fill="none" stroke="rgb(0,0,0)" paint-order="fill" d="M 129.67967224121094 32.01766777038574 L 129.67967224121094 41.4368782043457" stroke-opacity="1" stroke-linejoin="bevel" stroke-miterlimit="10" clip-path="url(#FwJaAlKFmSOt)"/><path fill="none" stroke="rgb(0,0,0)" paint-order="fill" d="M 159.40325927734375 181.66885375976562 L 159.40325927734375 187.80328369140625" stroke-opacity="1" stroke-linejoin="bevel" stroke-miterlimit="10" clip-path="url(#FwJaAlKFmSOt)"/><path fill="none" stroke="rgb(0,0,0)" paint-order="fill" d="M 189.1268310546875 209.77647399902344 L 189.1268310546875 212.6194305419922" stroke-opacity="1" stroke-linejoin="bevel" stroke-miterlimit="10" clip-path="url(#FwJaAlKFmSOt)"/><path fill="none" stroke="rgb(0,0,0)" paint-order="fill" d="M 218.8504180908203 205.11827087402344 L 218.8504180908203 208.66651916503906" stroke-opacity="1" stroke-linejoin="bevel" stroke-miterlimit="10" clip-path="url(#FwJaAlKFmSOt)"/><path fill="none" stroke="rgb(0,0,0)" paint-order="fill" d="M 65.23251342773438 93.32502746582031 L 75.23251342773438 93.32502746582031" stroke-opacity="1" stroke-linejoin="bevel" stroke-miterlimit="10" clip-path="url(#FwJaAlKFmSOt)"/><path fill="none" stroke="rgb(0,0,0)" paint-order="fill" d="M 94.95609283447266 52.946937561035156 L 104.95609283447266 52.946937561035156" stroke-opacity="1" stroke-linejoin="bevel" stroke-miterlimit="10" clip-path="url(#FwJaAlKFmSOt)"/><path fill="none" stroke="rgb(0,0,0)" paint-order="fill" d="M 124.67967224121094 32.01766777038574 L 134.67967224121094 32.01766777038574" stroke-opacity="1" stroke-linejoin="bevel" stroke-miterlimit="10" clip-path="url(#FwJaAlKFmSOt)"/><path fill="none" stroke="rgb(0,0,0)" paint-order="fill" d="M 154.40325927734375 181.66885375976562 L 164.40325927734375 181.66885375976562" stroke-opacity="1" stroke-linejoin="bevel" stroke-miterlimit="10" clip-path="url(#FwJaAlKFmSOt)"/><path fill="none" stroke="rgb(0,0,0)" paint-order="fill" d="M 184.1268310546875 209.77647399902344 L 194.1268310546875 209.77647399902344" stroke-opacity="1" stroke-linejoin="bevel" stroke-miterlimit="10" clip-path="url(#FwJaAlKFmSOt)"/><path fill="none" stroke="rgb(0,0,0)" paint-order="fill" d="M 213.8504180908203 205.11827087402344 L 223.8504180908203 205.11827087402344" stroke-opacity="1" stroke-linejoin="bevel" stroke-miterlimit="10" clip-path="url(#FwJaAlKFmSOt)"/><path fill="none" stroke="rgb(0,0,0)" paint-order="fill" d="M 75.23251342773438 101.52526092529297 L 65.23251342773438 101.52526092529297" stroke-opacity="1" stroke-linejoin="bevel" stroke-miterlimit="10" clip-path="url(#FwJaAlKFmSOt)"/><path fill="none" stroke="rgb(0,0,0)" paint-order="fill" d="M 104.95609283447266 60.69479751586914 L 94.95609283447266 60.69479751586914" stroke-opacity="1" stroke-linejoin="bevel" stroke-miterlimit="10" clip-path="url(#FwJaAlKFmSOt)"/><path fill="none" stroke="rgb(0,0,0)" paint-order="fill" d="M 134.67967224121094 41.4368782043457 L 124.67967224121094 41.4368782043457" stroke-opacity="1" stroke-linejoin="bevel" stroke-miterlimit="10" clip-path="url(#FwJaAlKFmSOt)"/><path fill="none" stroke="rgb(0,0,0)" paint-order="fill" d="M 164.40325927734375 187.80328369140625 L 154.40325927734375 187.80328369140625" stroke-opacity="1" stroke-linejoin="bevel" stroke-miterlimit="10" clip-path="url(#FwJaAlKFmSOt)"/><path fill="none" stroke="rgb(0,0,0)" paint-order="fill" d="M 194.1268310546875 212.6194305419922 L 184.1268310546875 212.6194305419922" stroke-opacity="1" stroke-linejoin="bevel" stroke-miterlimit="10" clip-path="url(#FwJaAlKFmSOt)"/><path fill="none" stroke="rgb(0,0,0)" paint-order="fill" d="M 223.8504180908203 208.66651916503906 L 213.8504180908203 208.66651916503906" stroke-opacity="1" stroke-linejoin="bevel" stroke-miterlimit="10" clip-path="url(#FwJaAlKFmSOt)"/><path fill="rgb(128,128,128)" stroke="none" paint-order="stroke" d="M 55.370723724365234 36.727272033691406 L 233.7122039794922 36.727272033691406 L 233.7122039794922 221.27273559570312 L 55.370723724365234 221.27273559570312 L 55.370723724365234 36.727272033691406 Z" fill-opacity="0.10196078431372549" clip-path="url(#VsNCETCOTBFL)"/><path fill="url(#qxbmsTXNiFyL)" stroke="rgb(0,0,0)" paint-order="fill" d="M 55.370723724365234 36.727272033691406 L 233.7122039794922 36.727272033691406 L 233.7122039794922 221.27273559570312 L 55.370723724365234 221.27273559570312 L 55.370723724365234 36.727272033691406 Z" clip-path="url(#VsNCETCOTBFL)" stroke-opacity="0.2" stroke-linejoin="bevel" stroke-miterlimit="10"/><path fill="rgb(100,149,237)" stroke="rgb(31,119,180)" paint-order="fill" d="M 55.370723724365234 97.4251480102539 L 85.09429931640625 97.4251480102539 L 85.09429931640625 221.27272033691406 L 55.370723724365234 221.27272033691406 L 55.370723724365234 97.4251480102539 Z" fill-opacity="0.5019607843137255" clip-path="url(#KnsdUxUUnSqI)" stroke-opacity="0.5019607843137255" stroke-linejoin="bevel" stroke-miterlimit="10"/><path fill="rgb(100,149,237)" stroke="rgb(31,119,180)" paint-order="fill" d="M 85.09429931640625 56.82086944580078 L 114.81788635253906 56.82086944580078 L 114.81788635253906 221.27272033691406 L 85.09429931640625 221.27272033691406 L 85.09429931640625 56.82086944580078 Z" fill-opacity="0.5019607843137255" clip-path="url(#KnsdUxUUnSqI)" stroke-opacity="0.5019607843137255" stroke-linejoin="bevel" stroke-miterlimit="10"/><path fill="rgb(100,149,237)" stroke="rgb(31,119,180)" paint-order="fill" d="M 114.81788635253906 36.727272033691406 L 144.5414581298828 36.727272033691406 L 144.5414581298828 221.27272033691406 L 114.81788635253906 221.27272033691406 L 114.81788635253906 36.727272033691406 Z" fill-opacity="0.5019607843137255" clip-path="url(#KnsdUxUUnSqI)" stroke-opacity="0.5019607843137255" stroke-linejoin="bevel" stroke-miterlimit="10"/><path fill="rgb(100,149,237)" stroke="rgb(31,119,180)" paint-order="fill" d="M 144.54147338867188 184.73606872558594 L 174.26504516601562 184.73606872558594 L 174.26504516601562 221.27272033691406 L 144.54147338867188 221.27272033691406 L 144.54147338867188 184.73606872558594 Z" fill-opacity="0.5019607843137255" clip-path="url(#KnsdUxUUnSqI)" stroke-opacity="0.5019607843137255" stroke-linejoin="bevel" stroke-miterlimit="10"/><path fill="rgb(100,149,237)" stroke="rgb(31,119,180)" paint-order="fill" d="M 174.26504516601562 211.1979522705078 L 203.98861694335938 211.1979522705078 L 203.98861694335938 221.27272033691406 L 174.26504516601562 221.27272033691406 L 174.26504516601562 211.1979522705078 Z" fill-opacity="0.5019607843137255" clip-path="url(#KnsdUxUUnSqI)" stroke-opacity="0.5019607843137255" stroke-linejoin="bevel" stroke-miterlimit="10"/><path fill="rgb(100,149,237)" stroke="rgb(31,119,180)" paint-order="fill" d="M 203.98863220214844 206.89239501953125 L 233.7122039794922 206.89239501953125 L 233.7122039794922 221.27272033691406 L 203.98863220214844 221.27272033691406 L 203.98863220214844 206.89239501953125 Z" fill-opacity="0.5019607843137255" clip-path="url(#KnsdUxUUnSqI)" stroke-opacity="0.5019607843137255" stroke-linejoin="bevel" stroke-miterlimit="10"/><path fill="none" stroke="rgb(0,0,0)" paint-order="fill" d="M 52.5 230.5 L 245.5 230.5" stroke-opacity="1" stroke-linejoin="bevel" stroke-miterlimit="10"/><path fill="none" stroke="rgb(0,0,0)" paint-order="fill" d="M 79.5 236.5 L 79.5 228.5 M 120.5 236.5 L 120.5 228.5 M 161.5 236.5 L 161.5 228.5 M 202.5 236.5 L 202.5 228.5 M 243.5 236.5 L 243.5 228.5" stroke-opacity="1" stroke-linejoin="bevel" stroke-miterlimit="10"/><path fill="none" stroke="rgb(0,0,0)" paint-order="fill" d="M 71.5 234.5 L 71.5 230.5 M 63.5 234.5 L 63.5 230.5 M 55.5 234.5 L 55.5 230.5 M 79.5 234.5 L 79.5 230.5 M 88.5 234.5 L 88.5 230.5 M 96.5 234.5 L 96.5 230.5 M 104.5 234.5 L 104.5 230.5 M 112.5 234.5 L 112.5 230.5 M 120.5 234.5 L 120.5 230.5 M 128.5 234.5 L 128.5 230.5 M 137.5 234.5 L 137.5 230.5 M 145.5 234.5 L 145.5 230.5 M 153.5 234.5 L 153.5 230.5 M 161.5 234.5 L 161.5 230.5 M 169.5 234.5 L 169.5 230.5 M 178.5 234.5 L 178.5 230.5 M 186.5 234.5 L 186.5 230.5 M 194.5 234.5 L 194.5 230.5 M 202.5 234.5 L 202.5 230.5 M 210.5 234.5 L 210.5 230.5 M 219.5 234.5 L 219.5 230.5 M 227.5 234.5 L 227.5 230.5 M 235.5 234.5 L 235.5 230.5 M 243.5 234.5 L 243.5 230.5" stroke-opacity="1" stroke-linejoin="bevel" stroke-miterlimit="10"/><text fill="rgb(68,68,68)" stroke="none" font-family="helvetica" font-size="11px" font-style="normal" font-weight="normal" text-decoration="normal" x="64.03959655761719" y="249" text-anchor="start" dominant-baseline="alphabetic" transform="matrix(1, 0, 0, 1, 0.5, 0.5)" fill-opacity="1">10000</text><text fill="none" stroke="rgb(0,0,0)" font-family="helvetica" font-size="11px" font-style="normal" font-weight="normal" text-decoration="normal" x="64.03959655761719" y="249" text-anchor="start" dominant-baseline="alphabetic" transform="matrix(1, 0, 0, 1, 0.5, 0.5)" stroke-opacity="0" stroke-linejoin="bevel" stroke-miterlimit="10">10000</text><text fill="rgb(68,68,68)" stroke="none" font-family="helvetica" font-size="11px" font-style="normal" font-weight="normal" text-decoration="normal" x="104.97835540771484" y="249" text-anchor="start" dominant-baseline="alphabetic" transform="matrix(1, 0, 0, 1, 0.5, 0.5)" fill-opacity="1">15000</text><text fill="none" stroke="rgb(0,0,0)" font-family="helvetica" font-size="11px" font-style="normal" font-weight="normal" text-decoration="normal" x="104.97835540771484" y="249" text-anchor="start" dominant-baseline="alphabetic" transform="matrix(1, 0, 0, 1, 0.5, 0.5)" stroke-opacity="0" stroke-linejoin="bevel" stroke-miterlimit="10">15000</text><text fill="rgb(68,68,68)" stroke="none" font-family="helvetica" font-size="11px" font-style="normal" font-weight="normal" text-decoration="normal" x="145.9171142578125" y="249" text-anchor="start" dominant-baseline="alphabetic" transform="matrix(1, 0, 0, 1, 0.5, 0.5)" fill-opacity="1">20000</text><text fill="none" stroke="rgb(0,0,0)" font-family="helvetica" font-size="11px" font-style="normal" font-weight="normal" text-decoration="normal" x="145.9171142578125" y="249" text-anchor="start" dominant-baseline="alphabetic" transform="matrix(1, 0, 0, 1, 0.5, 0.5)" stroke-opacity="0" stroke-linejoin="bevel" stroke-miterlimit="10">20000</text><text fill="rgb(68,68,68)" stroke="none" font-family="helvetica" font-size="11px" font-style="normal" font-weight="normal" text-decoration="normal" x="186.85586547851562" y="249" text-anchor="start" dominant-baseline="alphabetic" transform="matrix(1, 0, 0, 1, 0.5, 0.5)" fill-opacity="1">25000</text><text fill="none" stroke="rgb(0,0,0)" font-family="helvetica" font-size="11px" font-style="normal" font-weight="normal" text-decoration="normal" x="186.85586547851562" y="249" text-anchor="start" dominant-baseline="alphabetic" transform="matrix(1, 0, 0, 1, 0.5, 0.5)" stroke-opacity="0" stroke-linejoin="bevel" stroke-miterlimit="10">25000</text><text fill="rgb(68,68,68)" stroke="none" font-family="helvetica" font-size="11px" font-style="normal" font-weight="normal" text-decoration="normal" x="227.7946319580078" y="249" text-anchor="start" dominant-baseline="alphabetic" transform="matrix(1, 0, 0, 1, 0.5, 0.5)" fill-opacity="1">30000</text><text fill="none" stroke="rgb(0,0,0)" font-family="helvetica" font-size="11px" font-style="normal" font-weight="normal" text-decoration="normal" x="227.7946319580078" y="249" text-anchor="start" dominant-baseline="alphabetic" transform="matrix(1, 0, 0, 1, 0.5, 0.5)" stroke-opacity="0" stroke-linejoin="bevel" stroke-miterlimit="10">30000</text><text fill="rgb(68,68,68)" stroke="none" font-family="helvetica" font-size="13px" font-style="italic" font-weight="normal" text-decoration="normal" x="83.852294921875" y="269" text-anchor="start" dominant-baseline="alphabetic" transform="matrix(1, 0, 0, 1, 0.5, 0.5)" fill-opacity="1">Minimum burn time (s)</text><text fill="none" stroke="rgb(0,0,0)" font-family="helvetica" font-size="13px" font-style="italic" font-weight="normal" text-decoration="normal" x="83.852294921875" y="269" text-anchor="start" dominant-baseline="alphabetic" transform="matrix(1, 0, 0, 1, 0.5, 0.5)" stroke-opacity="0" stroke-linejoin="bevel" stroke-miterlimit="10">Minimum burn time (s)</text><path fill="none" stroke="rgb(0,0,0)" paint-order="fill" d="M 52.5 230.5 L 52.5 27.5" stroke-opacity="1" stroke-linejoin="bevel" stroke-miterlimit="10"/><path fill="none" stroke="rgb(0,0,0)" paint-order="fill" d="M 46.5 221.5 L 54.5 221.5 M 46.5 192.5 L 54.5 192.5 M 46.5 164.5 L 54.5 164.5 M 46.5 135.5 L 54.5 135.5 M 46.5 106.5 L 54.5 106.5 M 46.5 78.5 L 54.5 78.5 M 46.5 49.5 L 54.5 49.5" stroke-opacity="1" stroke-linejoin="bevel" stroke-miterlimit="10"/><path fill="none" stroke="rgb(0,0,0)" paint-order="fill" d="M 48.5 226.5 L 52.5 226.5 M 48.5 221.5 L 52.5 221.5 M 48.5 215.5 L 52.5 215.5 M 48.5 209.5 L 52.5 209.5 M 48.5 204.5 L 52.5 204.5 M 48.5 198.5 L 52.5 198.5 M 48.5 192.5 L 52.5 192.5 M 48.5 186.5 L 52.5 186.5 M 48.5 181.5 L 52.5 181.5 M 48.5 175.5 L 52.5 175.5 M 48.5 169.5 L 52.5 169.5 M 48.5 164.5 L 52.5 164.5 M 48.5 158.5 L 52.5 158.5 M 48.5 152.5 L 52.5 152.5 M 48.5 146.5 L 52.5 146.5 M 48.5 141.5 L 52.5 141.5 M 48.5 135.5 L 52.5 135.5 M 48.5 129.5 L 52.5 129.5 M 48.5 123.5 L 52.5 123.5 M 48.5 118.5 L 52.5 118.5 M 48.5 112.5 L 52.5 112.5 M 48.5 106.5 L 52.5 106.5 M 48.5 101.5 L 52.5 101.5 M 48.5 95.5 L 52.5 95.5 M 48.5 89.5 L 52.5 89.5 M 48.5 83.5 L 52.5 83.5 M 48.5 78.5 L 52.5 78.5 M 48.5 72.5 L 52.5 72.5 M 48.5 66.5 L 52.5 66.5 M 48.5 60.5 L 52.5 60.5 M 48.5 55.5 L 52.5 55.5 M 48.5 49.5 L 52.5 49.5 M 48.5 43.5 L 52.5 43.5 M 48.5 38.5 L 52.5 38.5 M 48.5 32.5 L 52.5 32.5" stroke-opacity="1" stroke-linejoin="bevel" stroke-miterlimit="10"/><text fill="rgb(68,68,68)" stroke="none" font-family="helvetica" font-size="11px" font-style="normal" font-weight="normal" text-decoration="normal" x="34.88232421875" y="224.77272033691406" text-anchor="start" dominant-baseline="alphabetic" transform="matrix(1, 0, 0, 1, 0.5, 0.5)" fill-opacity="1">0</text><text fill="none" stroke="rgb(0,0,0)" font-family="helvetica" font-size="11px" font-style="normal" font-weight="normal" text-decoration="normal" x="34.88232421875" y="224.77272033691406" text-anchor="start" dominant-baseline="alphabetic" transform="matrix(1, 0, 0, 1, 0.5, 0.5)" stroke-opacity="0" stroke-linejoin="bevel" stroke-miterlimit="10">0</text><text fill="rgb(68,68,68)" stroke="none" font-family="helvetica" font-size="11px" font-style="normal" font-weight="normal" text-decoration="normal" x="25.70849609375" y="196.13711547851562" text-anchor="start" dominant-baseline="alphabetic" transform="matrix(1, 0, 0, 1, 0.5, 0.5)" fill-opacity="1">0.1</text><text fill="none" stroke="rgb(0,0,0)" font-family="helvetica" font-size="11px" font-style="normal" font-weight="normal" text-decoration="normal" x="25.70849609375" y="196.13711547851562" text-anchor="start" dominant-baseline="alphabetic" transform="matrix(1, 0, 0, 1, 0.5, 0.5)" stroke-opacity="0" stroke-linejoin="bevel" stroke-miterlimit="10">0.1</text><text fill="rgb(68,68,68)" stroke="none" font-family="helvetica" font-size="11px" font-style="normal" font-weight="normal" text-decoration="normal" x="25.70849609375" y="167.5015106201172" text-anchor="start" dominant-baseline="alphabetic" transform="matrix(1, 0, 0, 1, 0.5, 0.5)" fill-opacity="1">0.2</text><text fill="none" stroke="rgb(0,0,0)" font-family="helvetica" font-size="11px" font-style="normal" font-weight="normal" text-decoration="normal" x="25.70849609375" y="167.5015106201172" text-anchor="start" dominant-baseline="alphabetic" transform="matrix(1, 0, 0, 1, 0.5, 0.5)" stroke-opacity="0" stroke-linejoin="bevel" stroke-miterlimit="10">0.2</text><text fill="rgb(68,68,68)" stroke="none" font-family="helvetica" font-size="11px" font-style="normal" font-weight="normal" text-decoration="normal" x="25.70849609375" y="138.86590576171875" text-anchor="start" dominant-baseline="alphabetic" transform="matrix(1, 0, 0, 1, 0.5, 0.5)" fill-opacity="1">0.3</text><text fill="none" stroke="rgb(0,0,0)" font-family="helvetica" font-size="11px" font-style="normal" font-weight="normal" text-decoration="normal" x="25.70849609375" y="138.86590576171875" text-anchor="start" dominant-baseline="alphabetic" transform="matrix(1, 0, 0, 1, 0.5, 0.5)" stroke-opacity="0" stroke-linejoin="bevel" stroke-miterlimit="10">0.3</text><text fill="rgb(68,68,68)" stroke="none" font-family="helvetica" font-size="11px" font-style="normal" font-weight="normal" text-decoration="normal" x="25.70849609375" y="110.23029327392578" text-anchor="start" dominant-baseline="alphabetic" transform="matrix(1, 0, 0, 1, 0.5, 0.5)" fill-opacity="1">0.4</text><text fill="none" stroke="rgb(0,0,0)" font-family="helvetica" font-size="11px" font-style="normal" font-weight="normal" text-decoration="normal" x="25.70849609375" y="110.23029327392578" text-anchor="start" dominant-baseline="alphabetic" transform="matrix(1, 0, 0, 1, 0.5, 0.5)" stroke-opacity="0" stroke-linejoin="bevel" stroke-miterlimit="10">0.4</text><text fill="rgb(68,68,68)" stroke="none" font-family="helvetica" font-size="11px" font-style="normal" font-weight="normal" text-decoration="normal" x="25.70849609375" y="81.59468841552734" text-anchor="start" dominant-baseline="alphabetic" transform="matrix(1, 0, 0, 1, 0.5, 0.5)" fill-opacity="1">0.5</text><text fill="none" stroke="rgb(0,0,0)" font-family="helvetica" font-size="11px" font-style="normal" font-weight="normal" text-decoration="normal" x="25.70849609375" y="81.59468841552734" text-anchor="start" dominant-baseline="alphabetic" transform="matrix(1, 0, 0, 1, 0.5, 0.5)" stroke-opacity="0" stroke-linejoin="bevel" stroke-miterlimit="10">0.5</text><text fill="rgb(68,68,68)" stroke="none" font-family="helvetica" font-size="11px" font-style="normal" font-weight="normal" text-decoration="normal" x="25.70849609375" y="52.959083557128906" text-anchor="start" dominant-baseline="alphabetic" transform="matrix(1, 0, 0, 1, 0.5, 0.5)" fill-opacity="1">0.6</text><text fill="none" stroke="rgb(0,0,0)" font-family="helvetica" font-size="11px" font-style="normal" font-weight="normal" text-decoration="normal" x="25.70849609375" y="52.959083557128906" text-anchor="start" dominant-baseline="alphabetic" transform="matrix(1, 0, 0, 1, 0.5, 0.5)" stroke-opacity="0" stroke-linejoin="bevel" stroke-miterlimit="10">0.6</text><text fill="rgb(68,68,68)" stroke="none" font-family="helvetica" font-size="13px" font-style="italic" font-weight="normal" text-decoration="normal" x="-47.31689453125" y="125.5" text-anchor="start" dominant-baseline="alphabetic" transform="matrix(6.123233995736766e-17, -1, 1, 6.123233995736766e-17, -110.29150390625, 146.70849609375)" fill-opacity="1">Normalised Probability</text><text fill="none" stroke="rgb(0,0,0)" font-family="helvetica" font-size="13px" font-style="italic" font-weight="normal" text-decoration="normal" x="-47.31689453125" y="125.5" text-anchor="start" dominant-baseline="alphabetic" transform="matrix(6.123233995736766e-17, -1, 1, 6.123233995736766e-17, -110.29150390625, 146.70849609375)" stroke-opacity="0" stroke-linejoin="bevel" stroke-miterlimit="10">Normalised Probability</text><path fill="rgb(255,249,186)" stroke="rgb(255,0,0)" paint-order="fill" d="M 124.60152296426418 36.72727272727275 L 124.60152296426418 36.72727272727275 L 124.60152296426418 221.27272727272725 L 124.60152296426418 221.27272727272725 L 124.60152296426418 36.72727272727275 Z" fill-opacity="0.4" clip-path="url(#mgkoZPZrHexd)" stroke-opacity="1" stroke-linejoin="bevel" stroke-miterlimit="10" stroke-width="2" stroke-dasharray="6"/><path fill="rgb(255,249,186)" stroke="rgb(50,205,50)" paint-order="fill" d="M 129.67967293557194 36.72727272727275 L 129.67967293557194 36.72727272727275 L 129.67967293557194 221.27272727272725 L 129.67967293557194 221.27272727272725 L 129.67967293557194 36.72727272727275 Z" fill-opacity="0.4" clip-path="url(#dTLcolAwfXmu)" stroke-opacity="1" stroke-linejoin="bevel" stroke-miterlimit="10" stroke-width="2" stroke-dasharray="6"/><text fill="rgb(68,68,68)" stroke="none" font-family="helvetica" font-size="13px" font-style="normal" font-weight="bold" text-decoration="normal" x="52" y="19" text-anchor="start" dominant-baseline="alphabetic" transform="matrix(1, 0, 0, 1, 0.5, 0.5)" fill-opacity="1">Convergance Probability</text><text fill="none" stroke="rgb(0,0,0)" font-family="helvetica" font-size="13px" font-style="normal" font-weight="bold" text-decoration="normal" x="52" y="19" text-anchor="start" dominant-baseline="alphabetic" transform="matrix(1, 0, 0, 1, 0.5, 0.5)" stroke-opacity="0" stroke-miterlimit="10" stroke-dasharray="">Convergance Probability</text></svg>