<svg version="1.1" xmlns="http://www.w3.org/2000/svg" width="250" height="250"><defs><clipPath id="rDoJXGWxbUyM"><path fill="none" stroke="none" d="M 52.5 27.5 L 220.5 27.5 L 220.5 205.5 L 52.5 205.5 L 52.5 27.5 Z"/></clipPath><clipPath id="btbTFbFSnmgT"><path fill="none" stroke="none" d="M 52.5 27.5 L 220.5 27.5 L 220.5 205.5 L 52.5 205.5 L 52.5 27.5 Z"/></clipPath><clipPath id="oehMERHyukki"><path fill="none" stroke="none" d="M 52.5 27.5 L 220.5 27.5 L 220.5 205.5 L 52.5 205.5 L 52.5 27.5 Z"/></clipPath><clipPath id="UbBEJaQAJMdf"><path fill="none" stroke="none" d="M 52.5 27.5 L 220.5 27.5 L 220.5 205.5 L 52.5 205.5 L 52.5 27.5 Z"/></clipPath><pattern id="RIQTNFFWDVzK" width="3" height="3" patternUnits="userSpaceOnUse"><path fill="rgb(0,0,0)" stroke="none" paint-order="stroke" d="M 2.75 2 A 0.75 0.75 0 0 0 1.25 2 A 0.75 0.75 0 0 0 2.75 2" fill-opacity="0.14901960784313725"/></pattern><clipPath id="XXTnnPaCtSNX"><path fill="none" stroke="none" d="M 52.5 27.5 L 220.5 27.5 L 220.5 205.5 L 52.5 205.5 L 52.5 27.5 Z"/></clipPath><clipPath id="vlLmXFrRfFIf"><path fill="none" stroke="none" d="M 52.5 27.5 L 220.5 27.5 L 220.5 205.5 L 52.5 205.5 L 52.5 27.5 Z"/></clipPath><clipPath id="zQZepqEUPbWH"><path fill="none" stroke="none" d="M 52.5 27.5 L 220.5 27.5 L 220.5 205.5 L 52.5 205.5 L 52.5 27.5 Z"/></clipPath><clipPath id="PPaUNPFctSxg"><path fill="none" stroke="none" d="M 52.5 27.5 L 220.5 27.5 L 220.5 205.5 L 52.5 205.5 L 52.5 27.5 Z"/></clipPath></defs><path fill="rgb(255,255,255)" stroke="none" paint-order="stroke" d="M 0.5 0.5 L 250.5 0.5 L 250.5 250.5 L 0.5 250.5 L 0.5 0.5 Z" fill-opacity="1"/><rect fill="#FFFFFF" stroke="none" x="52" y="27" width="168" height="178" transform="matrix(1, 0, 0, 1, 0.5, 0.5)"/><path fill="rgb(255,255,255)" stroke="none" paint-order="stroke" d="M 52.5 27.5 L 220.5 27.5 L 220.5 205.5 L 52.5 205.5 L 52.5 27.5 Z" fill-opacity="1"/><path fill="none" stroke="rgb(229,229,229)" paint-order="fill" d="M 52.5 27.5 L 220.5 27.5 L 220.5 205.5 L 52.5 205.5 L 52.5 27.5 Z" stroke-opacity="1" stroke-linejoin="bevel" stroke-miterlimit="10"/><path fill="none" stroke="rgb(229,229,229)" paint-order="fill" d="M 80.5 205.5 L 80.5 27.5 M 115.5 205.5 L 115.5 27.5 M 150.5 205.5 L 150.5 27.5 M 185.5 205.5 L 185.5 27.5" stroke-opacity="1" stroke-linejoin="bevel" stroke-miterlimit="10" clip-path="url(#rDoJXGWxbUyM)"/><path fill="none" stroke="rgb(229,229,229)" paint-order="fill" d="M 52.5 197.5 L 220.5 197.5 M 52.5 171.5 L 220.5 171.5 M 52.5 145.5 L 220.5 145.5 M 52.5 119.5 L 220.5 119.5 M 52.5 93.5 L 220.5 93.5 M 52.5 67.5 L 220.5 67.5 M 52.5 41.5 L 220.5 41.5" stroke-opacity="1" stroke-linejoin="bevel" stroke-miterlimit="10" clip-path="url(#btbTFbFSnmgT)"/><path fill="none" stroke="rgb(0,0,0)" paint-order="fill" d="M 113.99260711669922 21.984249114990234 L 113.99260711669922 49.197566986083984" stroke-opacity="1" stroke-linejoin="bevel" stroke-miterlimit="10" clip-path="url(#oehMERHyukki)"/><path fill="none" stroke="rgb(0,0,0)" paint-order="fill" d="M 154.91514587402344 87.40152740478516 L 154.91514587402344 111.83123779296875" stroke-opacity="1" stroke-linejoin="bevel" stroke-miterlimit="10" clip-path="url(#oehMERHyukki)"/><path fill="none" stroke="rgb(0,0,0)" paint-order="fill" d="" stroke-opacity="1" stroke-linejoin="bevel" stroke-miterlimit="10" clip-path="url(#oehMERHyukki)"/><path fill="none" stroke="rgb(0,0,0)" paint-order="fill" d="M 108.99260711669922 21.984249114990234 L 118.99260711669922 21.984249114990234" stroke-opacity="1" stroke-linejoin="bevel" stroke-miterlimit="10" clip-path="url(#oehMERHyukki)"/><path fill="none" stroke="rgb(0,0,0)" paint-order="fill" d="M 149.91514587402344 87.40152740478516 L 159.91514587402344 87.40152740478516" stroke-opacity="1" stroke-linejoin="bevel" stroke-miterlimit="10" clip-path="url(#oehMERHyukki)"/><path fill="none" stroke="rgb(0,0,0)" paint-order="fill" d="M -4.5 0.5000000000000007 L 5.5 0.4999999999999994" stroke-opacity="1" stroke-linejoin="bevel" stroke-miterlimit="10" clip-path="url(#oehMERHyukki)"/><path fill="none" stroke="rgb(0,0,0)" paint-order="fill" d="M 118.99260711669922 49.197566986083984 L 108.99260711669922 49.197566986083984" stroke-opacity="1" stroke-linejoin="bevel" stroke-miterlimit="10" clip-path="url(#oehMERHyukki)"/><path fill="none" stroke="rgb(0,0,0)" paint-order="fill" d="M 159.91514587402344 111.83123779296875 L 149.91514587402344 111.83123779296875" stroke-opacity="1" stroke-linejoin="bevel" stroke-miterlimit="10" clip-path="url(#oehMERHyukki)"/><path fill="none" stroke="rgb(0,0,0)" paint-order="fill" d="M 5.5 0.5 L -4.5 0.5" stroke-opacity="1" stroke-linejoin="bevel" stroke-miterlimit="10" clip-path="url(#oehMERHyukki)"/><path fill="rgb(128,128,128)" stroke="none" paint-order="stroke" d="M 93.53133392333984 35.590911865234375 L 175.37640380859375 35.590911865234375 L 175.37640380859375 197.40908813476562 L 93.53133392333984 197.40908813476562 L 93.53133392333984 35.590911865234375 Z" fill-opacity="0.10196078431372549" clip-path="url(#UbBEJaQAJMdf)"/><path fill="url(#RIQTNFFWDVzK)" stroke="rgb(0,0,0)" paint-order="fill" d="M 93.53133392333984 35.590911865234375 L 175.37640380859375 35.590911865234375 L 175.37640380859375 197.40908813476562 L 93.53133392333984 197.40908813476562 L 93.53133392333984 35.590911865234375 Z" clip-path="url(#UbBEJaQAJMdf)" stroke-opacity="0.2" stroke-linejoin="bevel" stroke-miterlimit="10"/><path fill="rgb(100,149,237)" stroke="rgb(31,119,180)" paint-order="fill" d="M 93.53134155273438 35.59090805053711 L 134.45387268066406 35.59090805053711 L 134.45387268066406 197.40908813476562 L 93.53134155273438 197.40908813476562 L 93.53134155273438 35.59090805053711 Z" fill-opacity="0.5019607843137255" clip-path="url(#XXTnnPaCtSNX)" stroke-opacity="0.5019607843137255" stroke-linejoin="bevel" stroke-miterlimit="10"/><path fill="rgb(100,149,237)" stroke="rgb(31,119,180)" paint-order="fill" d="M 134.45387268066406 99.61638641357422 L 175.3764190673828 99.61638641357422 L 175.3764190673828 197.40908813476562 L 134.45387268066406 197.40908813476562 L 134.45387268066406 99.61638641357422 Z" fill-opacity="0.5019607843137255" clip-path="url(#XXTnnPaCtSNX)" stroke-opacity="0.5019607843137255" stroke-linejoin="bevel" stroke-miterlimit="10"/><path fill="rgb(100,149,237)" stroke="rgb(31,119,180)" paint-order="fill" d="M 175.37640380859375 197.40908813476562 L 216.2989501953125 197.40908813476562 L 216.2989501953125 197.40908813476562 L 175.37640380859375 197.40908813476562 L 175.37640380859375 197.40908813476562 Z" fill-opacity="0.5019607843137255" clip-path="url(#XXTnnPaCtSNX)" stroke-opacity="0.5019607843137255" stroke-linejoin="bevel" stroke-miterlimit="10"/><path fill="none" stroke="rgb(0,0,0)" paint-order="fill" d="M 52.5 205.5 L 220.5 205.5" stroke-opacity="1" stroke-linejoin="bevel" stroke-miterlimit="10"/><path fill="none" stroke="rgb(0,0,0)" paint-order="fill" d="M 80.5 211.5 L 80.5 203.5 M 115.5 211.5 L 115.5 203.5 M 150.5 211.5 L 150.5 203.5 M 185.5 211.5 L 185.5 203.5" stroke-opacity="1" stroke-linejoin="bevel" stroke-miterlimit="10"/><path fill="none" stroke="rgb(0,0,0)" paint-order="fill" d="M 73.5 209.5 L 73.5 205.5 M 66.5 209.5 L 66.5 205.5 M 59.5 209.5 L 59.5 205.5 M 80.5 209.5 L 80.5 205.5 M 87.5 209.5 L 87.5 205.5 M 94.5 209.5 L 94.5 205.5 M 101.5 209.5 L 101.5 205.5 M 108.5 209.5 L 108.5 205.5 M 115.5 209.5 L 115.5 205.5 M 122.5 209.5 L 122.5 205.5 M 129.5 209.5 L 129.5 205.5 M 136.5 209.5 L 136.5 205.5 M 143.5 209.5 L 143.5 205.5 M 150.5 209.5 L 150.5 205.5 M 157.5 209.5 L 157.5 205.5 M 164.5 209.5 L 164.5 205.5 M 171.5 209.5 L 171.5 205.5 M 178.5 209.5 L 178.5 205.5 M 185.5 209.5 L 185.5 205.5 M 192.5 209.5 L 192.5 205.5 M 199.5 209.5 L 199.5 205.5 M 206.5 209.5 L 206.5 205.5 M 213.5 209.5 L 213.5 205.5" stroke-opacity="1" stroke-linejoin="bevel" stroke-miterlimit="10"/><text fill="rgb(68,68,68)" stroke="none" font-family="helvetica" font-size="11px" font-style="normal" font-weight="normal" text-decoration="normal" x="69.32807922363281" y="224" text-anchor="start" dominant-baseline="alphabetic" transform="matrix(1, 0, 0, 1, 0.5, 0.5)" fill-opacity="1">11.5</text><text fill="none" stroke="rgb(0,0,0)" font-family="helvetica" font-size="11px" font-style="normal" font-weight="normal" text-decoration="normal" x="69.32807922363281" y="224" text-anchor="start" dominant-baseline="alphabetic" transform="matrix(1, 0, 0, 1, 0.5, 0.5)" stroke-opacity="0" stroke-linejoin="bevel" stroke-miterlimit="10">11.5</text><text fill="rgb(68,68,68)" stroke="none" font-family="helvetica" font-size="11px" font-style="normal" font-weight="normal" text-decoration="normal" x="108.60330963134766" y="224" text-anchor="start" dominant-baseline="alphabetic" transform="matrix(1, 0, 0, 1, 0.5, 0.5)" fill-opacity="1">12</text><text fill="none" stroke="rgb(0,0,0)" font-family="helvetica" font-size="11px" font-style="normal" font-weight="normal" text-decoration="normal" x="108.60330963134766" y="224" text-anchor="start" dominant-baseline="alphabetic" transform="matrix(1, 0, 0, 1, 0.5, 0.5)" stroke-opacity="0" stroke-linejoin="bevel" stroke-miterlimit="10">12</text><text fill="rgb(68,68,68)" stroke="none" font-family="helvetica" font-size="11px" font-style="normal" font-weight="normal" text-decoration="normal" x="139.1129150390625" y="224" text-anchor="start" dominant-baseline="alphabetic" transform="matrix(1, 0, 0, 1, 0.5, 0.5)" fill-opacity="1">12.5</text><text fill="none" stroke="rgb(0,0,0)" font-family="helvetica" font-size="11px" font-style="normal" font-weight="normal" text-decoration="normal" x="139.1129150390625" y="224" text-anchor="start" dominant-baseline="alphabetic" transform="matrix(1, 0, 0, 1, 0.5, 0.5)" stroke-opacity="0" stroke-linejoin="bevel" stroke-miterlimit="10">12.5</text><text fill="rgb(68,68,68)" stroke="none" font-family="helvetica" font-size="11px" font-style="normal" font-weight="normal" text-decoration="normal" x="178.7963409423828" y="224" text-anchor="start" dominant-baseline="alphabetic" transform="matrix(1, 0, 0, 1, 0.5, 0.5)" fill-opacity="1">13</text><text fill="none" stroke="rgb(0,0,0)" font-family="helvetica" font-size="11px" font-style="normal" font-weight="normal" text-decoration="normal" x="178.7963409423828" y="224" text-anchor="start" dominant-baseline="alphabetic" transform="matrix(1, 0, 0, 1, 0.5, 0.5)" stroke-opacity="0" stroke-linejoin="bevel" stroke-miterlimit="10">13</text><text fill="rgb(68,68,68)" stroke="none" font-family="helvetica" font-size="13px" font-style="italic" font-weight="normal" text-decoration="normal" x="130.5791015625" y="244" text-anchor="start" dominant-baseline="alphabetic" transform="matrix(1, 0, 0, 1, 0.5, 0.5)" fill-opacity="1">te</text><text fill="none" stroke="rgb(0,0,0)" font-family="helvetica" font-size="13px" font-style="italic" font-weight="normal" text-decoration="normal" x="130.5791015625" y="244" text-anchor="start" dominant-baseline="alphabetic" transform="matrix(1, 0, 0, 1, 0.5, 0.5)" stroke-opacity="0" stroke-linejoin="bevel" stroke-miterlimit="10">te</text><path fill="none" stroke="rgb(0,0,0)" paint-order="fill" d="M 52.5 205.5 L 52.5 27.5" stroke-opacity="1" stroke-linejoin="bevel" stroke-miterlimit="10"/><path fill="none" stroke="rgb(0,0,0)" paint-order="fill" d="M 46.5 197.5 L 54.5 197.5 M 46.5 171.5 L 54.5 171.5 M 46.5 145.5 L 54.5 145.5 M 46.5 119.5 L 54.5 119.5 M 46.5 93.5 L 54.5 93.5 M 46.5 67.5 L 54.5 67.5 M 46.5 41.5 L 54.5 41.5" stroke-opacity="1" stroke-linejoin="bevel" stroke-miterlimit="10"/><path fill="none" stroke="rgb(0,0,0)" paint-order="fill" d="M 48.5 202.5 L 52.5 202.5 M 48.5 197.5 L 52.5 197.5 M 48.5 192.5 L 52.5 192.5 M 48.5 187.5 L 52.5 187.5 M 48.5 181.5 L 52.5 181.5 M 48.5 176.5 L 52.5 176.5 M 48.5 171.5 L 52.5 171.5 M 48.5 166.5 L 52.5 166.5 M 48.5 161.5 L 52.5 161.5 M 48.5 155.5 L 52.5 155.5 M 48.5 150.5 L 52.5 150.5 M 48.5 145.5 L 52.5 145.5 M 48.5 140.5 L 52.5 140.5 M 48.5 135.5 L 52.5 135.5 M 48.5 130.5 L 52.5 130.5 M 48.5 124.5 L 52.5 124.5 M 48.5 119.5 L 52.5 119.5 M 48.5 114.5 L 52.5 114.5 M 48.5 109.5 L 52.5 109.5 M 48.5 104.5 L 52.5 104.5 M 48.5 98.5 L 52.5 98.5 M 48.5 93.5 L 52.5 93.5 M 48.5 88.5 L 52.5 88.5 M 48.5 83.5 L 52.5 83.5 M 48.5 78.5 L 52.5 78.5 M 48.5 72.5 L 52.5 72.5 M 48.5 67.5 L 52.5 67.5 M 48.5 62.5 L 52.5 62.5 M 48.5 57.5 L 52.5 57.5 M 48.5 52.5 L 52.5 52.5 M 48.5 47.5 L 52.5 47.5 M 48.5 41.5 L 52.5 41.5 M 48.5 36.5 L 52.5 36.5 M 48.5 31.5 L 52.5 31.5" stroke-opacity="1" stroke-linejoin="bevel" stroke-miterlimit="10"/><text fill="rgb(68,68,68)" stroke="none" font-family="helvetica" font-size="11px" font-style="normal" font-weight="normal" text-decoration="normal" x="34.88232421875" y="200.90908813476562" text-anchor="start" dominant-baseline="alphabetic" transform="matrix(1, 0, 0, 1, 0.5, 0.5)" fill-opacity="1">0</text><text fill="none" stroke="rgb(0,0,0)" font-family="helvetica" font-size="11px" font-style="normal" font-weight="normal" text-decoration="normal" x="34.88232421875" y="200.90908813476562" text-anchor="start" dominant-baseline="alphabetic" transform="matrix(1, 0, 0, 1, 0.5, 0.5)" stroke-opacity="0" stroke-linejoin="bevel" stroke-miterlimit="10">0</text><text fill="rgb(68,68,68)" stroke="none" font-family="helvetica" font-size="11px" font-style="normal" font-weight="normal" text-decoration="normal" x="25.70849609375" y="174.9868927001953" text-anchor="start" dominant-baseline="alphabetic" transform="matrix(1, 0, 0, 1, 0.5, 0.5)" fill-opacity="1">0.1</text><text fill="none" stroke="rgb(0,0,0)" font-family="helvetica" font-size="11px" font-style="normal" font-weight="normal" text-decoration="normal" x="25.70849609375" y="174.9868927001953" text-anchor="start" dominant-baseline="alphabetic" transform="matrix(1, 0, 0, 1, 0.5, 0.5)" stroke-opacity="0" stroke-linejoin="bevel" stroke-miterlimit="10">0.1</text><text fill="rgb(68,68,68)" stroke="none" font-family="helvetica" font-size="11px" font-style="normal" font-weight="normal" text-decoration="normal" x="25.70849609375" y="149.064697265625" text-anchor="start" dominant-baseline="alphabetic" transform="matrix(1, 0, 0, 1, 0.5, 0.5)" fill-opacity="1">0.2</text><text fill="none" stroke="rgb(0,0,0)" font-family="helvetica" font-size="11px" font-style="normal" font-weight="normal" text-decoration="normal" x="25.70849609375" y="149.064697265625" text-anchor="start" dominant-baseline="alphabetic" transform="matrix(1, 0, 0, 1, 0.5, 0.5)" stroke-opacity="0" stroke-linejoin="bevel" stroke-miterlimit="10">0.2</text><text fill="rgb(68,68,68)" stroke="none" font-family="helvetica" font-size="11px" font-style="normal" font-weight="normal" text-decoration="normal" x="25.70849609375" y="123.14250183105469" text-anchor="start" dominant-baseline="alphabetic" transform="matrix(1, 0, 0, 1, 0.5, 0.5)" fill-opacity="1">0.3</text><text fill="none" stroke="rgb(0,0,0)" font-family="helvetica" font-size="11px" font-style="normal" font-weight="normal" text-decoration="normal" x="25.70849609375" y="123.14250183105469" text-anchor="start" dominant-baseline="alphabetic" transform="matrix(1, 0, 0, 1, 0.5, 0.5)" stroke-opacity="0" stroke-linejoin="bevel" stroke-miterlimit="10">0.3</text><text fill="rgb(68,68,68)" stroke="none" font-family="helvetica" font-size="11px" font-style="normal" font-weight="normal" text-decoration="normal" x="25.70849609375" y="97.22030639648438" text-anchor="start" dominant-baseline="alphabetic" transform="matrix(1, 0, 0, 1, 0.5, 0.5)" fill-opacity="1">0.4</text><text fill="none" stroke="rgb(0,0,0)" font-family="helvetica" font-size="11px" font-style="normal" font-weight="normal" text-decoration="normal" x="25.70849609375" y="97.22030639648438" text-anchor="start" dominant-baseline="alphabetic" transform="matrix(1, 0, 0, 1, 0.5, 0.5)" stroke-opacity="0" stroke-linejoin="bevel" stroke-miterlimit="10">0.4</text><text fill="rgb(68,68,68)" stroke="none" font-family="helvetica" font-size="11px" font-style="normal" font-weight="normal" text-decoration="normal" x="25.70849609375" y="71.29811096191406" text-anchor="start" dominant-baseline="alphabetic" transform="matrix(1, 0, 0, 1, 0.5, 0.5)" fill-opacity="1">0.5</text><text fill="none" stroke="rgb(0,0,0)" font-family="helvetica" font-size="11px" font-style="normal" font-weight="normal" text-decoration="normal" x="25.70849609375" y="71.29811096191406" text-anchor="start" dominant-baseline="alphabetic" transform="matrix(1, 0, 0, 1, 0.5, 0.5)" stroke-opacity="0" stroke-linejoin="bevel" stroke-miterlimit="10">0.5</text><text fill="rgb(68,68,68)" stroke="none" font-family="helvetica" font-size="11px" font-style="normal" font-weight="normal" text-decoration="normal" x="25.70849609375" y="45.375911712646484" text-anchor="start" dominant-baseline="alphabetic" transform="matrix(1, 0, 0, 1, 0.5, 0.5)" fill-opacity="1">0.6</text><text fill="none" stroke="rgb(0,0,0)" font-family="helvetica" font-size="11px" font-style="normal" font-weight="normal" text-decoration="normal" x="25.70849609375" y="45.375911712646484" text-anchor="start" dominant-baseline="alphabetic" transform="matrix(1, 0, 0, 1, 0.5, 0.5)" stroke-opacity="0" stroke-linejoin="bevel" stroke-miterlimit="10">0.6</text><text fill="rgb(68,68,68)" stroke="none" font-family="helvetica" font-size="13px" font-style="italic" font-weight="normal" text-decoration="normal" x="-47.31689453125" y="113" text-anchor="start" dominant-baseline="alphabetic" transform="matrix(6.123233995736766e-17, -1, 1, 6.123233995736766e-17, -97.79150390625, 134.20849609375)" fill-opacity="1">Normalised Probability</text><text fill="none" stroke="rgb(0,0,0)" font-family="helvetica" font-size="13px" font-style="italic" font-weight="normal" text-decoration="normal" x="-47.31689453125" y="113" text-anchor="start" dominant-baseline="alphabetic" transform="matrix(6.123233995736766e-17, -1, 1, 6.123233995736766e-17, -97.79150390625, 134.20849609375)" stroke-opacity="0" stroke-linejoin="bevel" stroke-miterlimit="10">Normalised Probability</text><path fill="rgb(255,249,186)" stroke="rgb(255,0,0)" paint-order="fill" d="M 126.8536013344874 35.59090909090909 L 126.8536013344874 35.59090909090909 L 126.8536013344874 197.4090909090909 L 126.8536013344874 197.4090909090909 L 126.8536013344874 35.59090909090909 Z" fill-opacity="0.4" clip-path="url(#vlLmXFrRfFIf)" stroke-opacity="1" stroke-linejoin="bevel" stroke-miterlimit="10" stroke-width="2" stroke-dasharray="6"/><path fill="rgb(255,249,186)" stroke="rgb(50,205,50)" paint-order="fill" d="M 113.99260466282283 35.59090909090909 L 113.99260466282283 35.59090909090909 L 113.99260466282283 197.4090909090909 L 113.99260466282283 197.4090909090909 L 113.99260466282283 35.59090909090909 Z" fill-opacity="0.4" clip-path="url(#zQZepqEUPbWH)" stroke-opacity="1" stroke-linejoin="bevel" stroke-miterlimit="10" stroke-width="2" stroke-dasharray="6"/><text fill="rgb(68,68,68)" stroke="none" font-family="helvetica" font-size="13px" font-style="normal" font-weight="bold" text-decoration="normal" x="52" y="19" text-anchor="start" dominant-baseline="alphabetic" transform="matrix(1, 0, 0, 1, 0.5, 0.5)" fill-opacity="1">Convergance Probability</text><text fill="none" stroke="rgb(0,0,0)" font-family="helvetica" font-size="13px" font-style="normal" font-weight="bold" text-decoration="normal" x="52" y="19" text-anchor="start" dominant-baseline="alphabetic" transform="matrix(1, 0, 0, 1, 0.5, 0.5)" stroke-opacity="0" stroke-miterlimit="10" stroke-dasharray="">Convergance Probability</text></svg>