<svg version="1.1" xmlns="http://www.w3.org/2000/svg" width="275" height="275"><defs><clipPath id="tvPvZLSDVyQc"><path fill="none" stroke="none" d="M 52.5 27.5 L 245.5 27.5 L 245.5 230.5 L 52.5 230.5 L 52.5 27.5 Z"/></clipPath><clipPath id="hqkJchEpHbqa"><path fill="none" stroke="none" d="M 52.5 27.5 L 245.5 27.5 L 245.5 230.5 L 52.5 230.5 L 52.5 27.5 Z"/></clipPath><clipPath id="yOWETFuugoTP"><path fill="none" stroke="none" d="M 52.5 27.5 L 245.5 27.5 L 245.5 230.5 L 52.5 230.5 L 52.5 27.5 Z"/></clipPath><clipPath id="yeGSyZLVrTbV"><path fill="none" stroke="none" d="M 52.5 27.5 L 245.5 27.5 L 245.5 230.5 L 52.5 230.5 L 52.5 27.5 Z"/></clipPath><pattern id="XBZKarfMgCwQ" width="3" height="3" patternUnits="userSpaceOnUse"><path fill="rgb(0,0,0)" stroke="none" paint-order="stroke" d="M 2.75 2 A 0.75 0.75 0 0 0 1.25 2 A 0.75 0.75 0 0 0 2.75 2" fill-opacity="0.14901960784313725"/></pattern><clipPath id="IHbasoxUzgzL"><path fill="none" stroke="none" d="M 52.5 27.5 L 245.5 27.5 L 245.5 230.5 L 52.5 230.5 L 52.5 27.5 Z"/></clipPath><clipPath id="DmSiMqTcqBEg"><path fill="none" stroke="none" d="M 52.5 27.5 L 245.5 27.5 L 245.5 230.5 L 52.5 230.5 L 52.5 27.5 Z"/></clipPath><clipPath id="LXIgXncJIfKo"><path fill="none" stroke="none" d="M 52.5 27.5 L 245.5 27.5 L 245.5 230.5 L 52.5 230.5 L 52.5 27.5 Z"/></clipPath><clipPath id="uuLxyfUOiFeF"><path fill="none" stroke="none" d="M 52.5 27.5 L 245.5 27.5 L 245.5 230.5 L 52.5 230.5 L 52.5 27.5 Z"/></clipPath></defs><path fill="rgb(255,255,255)" stroke="none" paint-order="stroke" d="M 0.5 0.5 L 275.5 0.5 L 275.5 275.5 L 0.5 275.5 L 0.5 0.5 Z" fill-opacity="1"/><rect fill="#FFFFFF" stroke="none" x="52" y="27" width="193" height="203" transform="matrix(1, 0, 0, 1, 0.5, 0.5)"/><path fill="rgb(255,255,255)" stroke="none" paint-order="stroke" d="M 52.5 27.5 L 245.5 27.5 L 245.5 230.5 L 52.5 230.5 L 52.5 27.5 Z" fill-opacity="1"/><path fill="none" stroke="rgb(229,229,229)" paint-order="fill" d="M 52.5 27.5 L 245.5 27.5 L 245.5 230.5 L 52.5 230.5 L 52.5 27.5 Z" stroke-opacity="1" stroke-linejoin="bevel" stroke-miterlimit="10"/><path fill="none" stroke="rgb(229,229,229)" paint-order="fill" d="M 68.5 230.5 L 68.5 27.5 M 94.5 230.5 L 94.5 27.5 M 120.5 230.5 L 120.5 27.5 M 145.5 230.5 L 145.5 27.5 M 171.5 230.5 L 171.5 27.5 M 197.5 230.5 L 197.5 27.5 M 223.5 230.5 L 223.5 27.5" stroke-opacity="1" stroke-linejoin="bevel" stroke-miterlimit="10" clip-path="url(#tvPvZLSDVyQc)"/><path fill="none" stroke="rgb(229,229,229)" paint-order="fill" d="M 52.5 221.5 L 245.5 221.5 M 52.5 183.5 L 245.5 183.5 M 52.5 145.5 L 245.5 145.5 M 52.5 108.5 L 245.5 108.5 M 52.5 70.5 L 245.5 70.5 M 52.5 33.5 L 245.5 33.5" stroke-opacity="1" stroke-linejoin="bevel" stroke-miterlimit="10" clip-path="url(#hqkJchEpHbqa)"/><path fill="none" stroke="rgb(0,0,0)" paint-order="fill" d="M 94.44763946533203 13.810503959655762 L 94.44763946533203 59.64404296875" stroke-opacity="1" stroke-linejoin="bevel" stroke-miterlimit="10" clip-path="url(#yOWETFuugoTP)"/><path fill="none" stroke="rgb(0,0,0)" paint-order="fill" d="M 120.11933898925781 25.513416290283203 L 120.11933898925781 71.85447692871094" stroke-opacity="1" stroke-linejoin="bevel" stroke-miterlimit="10" clip-path="url(#yOWETFuugoTP)"/><path fill="none" stroke="rgb(0,0,0)" paint-order="fill" d="M 145.79103088378906 26.14395523071289 L 145.79103088378906 68.98963165283203" stroke-opacity="1" stroke-linejoin="bevel" stroke-miterlimit="10" clip-path="url(#yOWETFuugoTP)"/><path fill="none" stroke="rgb(0,0,0)" paint-order="fill" d="M 171.46273803710938 83.05602264404297 L 171.46273803710938 122.39636993408203" stroke-opacity="1" stroke-linejoin="bevel" stroke-miterlimit="10" clip-path="url(#yOWETFuugoTP)"/><path fill="none" stroke="rgb(0,0,0)" paint-order="fill" d="M 197.13442993164062 41.09585952758789 L 197.13442993164062 73.50131225585938" stroke-opacity="1" stroke-linejoin="bevel" stroke-miterlimit="10" clip-path="url(#yOWETFuugoTP)"/><path fill="none" stroke="rgb(0,0,0)" paint-order="fill" d="M 89.44763946533203 13.810503959655762 L 99.44763946533203 13.810503959655762" stroke-opacity="1" stroke-linejoin="bevel" stroke-miterlimit="10" clip-path="url(#yOWETFuugoTP)"/><path fill="none" stroke="rgb(0,0,0)" paint-order="fill" d="M 115.11933898925781 25.513416290283203 L 125.11933898925781 25.513416290283203" stroke-opacity="1" stroke-linejoin="bevel" stroke-miterlimit="10" clip-path="url(#yOWETFuugoTP)"/><path fill="none" stroke="rgb(0,0,0)" paint-order="fill" d="M 140.79103088378906 26.14395523071289 L 150.79103088378906 26.14395523071289" stroke-opacity="1" stroke-linejoin="bevel" stroke-miterlimit="10" clip-path="url(#yOWETFuugoTP)"/><path fill="none" stroke="rgb(0,0,0)" paint-order="fill" d="M 166.46273803710938 83.05602264404297 L 176.46273803710938 83.05602264404297" stroke-opacity="1" stroke-linejoin="bevel" stroke-miterlimit="10" clip-path="url(#yOWETFuugoTP)"/><path fill="none" stroke="rgb(0,0,0)" paint-order="fill" d="M 192.13442993164062 41.09585952758789 L 202.13442993164062 41.09585952758789" stroke-opacity="1" stroke-linejoin="bevel" stroke-miterlimit="10" clip-path="url(#yOWETFuugoTP)"/><path fill="none" stroke="rgb(0,0,0)" paint-order="fill" d="M 99.44763946533203 59.64404296875 L 89.44763946533203 59.64404296875" stroke-opacity="1" stroke-linejoin="bevel" stroke-miterlimit="10" clip-path="url(#yOWETFuugoTP)"/><path fill="none" stroke="rgb(0,0,0)" paint-order="fill" d="M 125.11933898925781 71.85447692871094 L 115.11933898925781 71.85447692871094" stroke-opacity="1" stroke-linejoin="bevel" stroke-miterlimit="10" clip-path="url(#yOWETFuugoTP)"/><path fill="none" stroke="rgb(0,0,0)" paint-order="fill" d="M 150.79103088378906 68.98963165283203 L 140.79103088378906 68.98963165283203" stroke-opacity="1" stroke-linejoin="bevel" stroke-miterlimit="10" clip-path="url(#yOWETFuugoTP)"/><path fill="none" stroke="rgb(0,0,0)" paint-order="fill" d="M 176.46273803710938 122.39636993408203 L 166.46273803710938 122.39636993408203" stroke-opacity="1" stroke-linejoin="bevel" stroke-miterlimit="10" clip-path="url(#yOWETFuugoTP)"/><path fill="none" stroke="rgb(0,0,0)" paint-order="fill" d="M 202.13442993164062 73.50131225585938 L 192.13442993164062 73.50131225585938" stroke-opacity="1" stroke-linejoin="bevel" stroke-miterlimit="10" clip-path="url(#yOWETFuugoTP)"/><path fill="rgb(128,128,128)" stroke="none" paint-order="stroke" d="M 81.61178588867188 36.727272033691406 L 209.9702911376953 36.727272033691406 L 209.9702911376953 221.27273559570312 L 81.61178588867188 221.27273559570312 L 81.61178588867188 36.727272033691406 Z" fill-opacity="0.10196078431372549" clip-path="url(#yeGSyZLVrTbV)"/><path fill="url(#XBZKarfMgCwQ)" stroke="rgb(0,0,0)" paint-order="fill" d="M 81.61178588867188 36.727272033691406 L 209.9702911376953 36.727272033691406 L 209.9702911376953 221.27273559570312 L 81.61178588867188 221.27273559570312 L 81.61178588867188 36.727272033691406 Z" clip-path="url(#yeGSyZLVrTbV)" stroke-opacity="0.2" stroke-linejoin="bevel" stroke-miterlimit="10"/><path fill="rgb(100,149,237)" stroke="rgb(31,119,180)" paint-order="fill" d="M 81.61178588867188 36.727272033691406 L 107.28349304199219 36.727272033691406 L 107.28349304199219 221.27272033691406 L 81.61178588867188 221.27272033691406 L 81.61178588867188 36.727272033691406 Z" fill-opacity="0.5019607843137255" clip-path="url(#IHbasoxUzgzL)" stroke-opacity="0.5019607843137255" stroke-linejoin="bevel" stroke-miterlimit="10"/><path fill="rgb(100,149,237)" stroke="rgb(31,119,180)" paint-order="fill" d="M 107.28349304199219 48.6839485168457 L 132.95518493652344 48.6839485168457 L 132.95518493652344 221.27272033691406 L 107.28349304199219 221.27272033691406 L 107.28349304199219 48.6839485168457 Z" fill-opacity="0.5019607843137255" clip-path="url(#IHbasoxUzgzL)" stroke-opacity="0.5019607843137255" stroke-linejoin="bevel" stroke-miterlimit="10"/><path fill="rgb(100,149,237)" stroke="rgb(31,119,180)" paint-order="fill" d="M 132.95518493652344 47.56679153442383 L 158.6268768310547 47.56679153442383 L 158.6268768310547 221.27272033691406 L 132.95518493652344 221.27272033691406 L 132.95518493652344 47.56679153442383 Z" fill-opacity="0.5019607843137255" clip-path="url(#IHbasoxUzgzL)" stroke-opacity="0.5019607843137255" stroke-linejoin="bevel" stroke-miterlimit="10"/><path fill="rgb(100,149,237)" stroke="rgb(31,119,180)" paint-order="fill" d="M 158.62689208984375 102.7261962890625 L 184.298583984375 102.7261962890625 L 184.298583984375 221.27272033691406 L 158.62689208984375 221.27272033691406 L 158.62689208984375 102.7261962890625 Z" fill-opacity="0.5019607843137255" clip-path="url(#IHbasoxUzgzL)" stroke-opacity="0.5019607843137255" stroke-linejoin="bevel" stroke-miterlimit="10"/><path fill="rgb(100,149,237)" stroke="rgb(31,119,180)" paint-order="fill" d="M 184.298583984375 57.298587799072266 L 209.97027587890625 57.298587799072266 L 209.97027587890625 221.27272033691406 L 184.298583984375 221.27272033691406 L 184.298583984375 57.298587799072266 Z" fill-opacity="0.5019607843137255" clip-path="url(#IHbasoxUzgzL)" stroke-opacity="0.5019607843137255" stroke-linejoin="bevel" stroke-miterlimit="10"/><path fill="none" stroke="rgb(0,0,0)" paint-order="fill" d="M 52.5 230.5 L 245.5 230.5" stroke-opacity="1" stroke-linejoin="bevel" stroke-miterlimit="10"/><path fill="none" stroke="rgb(0,0,0)" paint-order="fill" d="M 68.5 236.5 L 68.5 228.5 M 94.5 236.5 L 94.5 228.5 M 120.5 236.5 L 120.5 228.5 M 145.5 236.5 L 145.5 228.5 M 171.5 236.5 L 171.5 228.5 M 197.5 236.5 L 197.5 228.5 M 223.5 236.5 L 223.5 228.5" stroke-opacity="1" stroke-linejoin="bevel" stroke-miterlimit="10"/><path fill="none" stroke="rgb(0,0,0)" paint-order="fill" d="M 63.5 234.5 L 63.5 230.5 M 57.5 234.5 L 57.5 230.5 M 52.5 234.5 L 52.5 230.5 M 68.5 234.5 L 68.5 230.5 M 73.5 234.5 L 73.5 230.5 M 78.5 234.5 L 78.5 230.5 M 83.5 234.5 L 83.5 230.5 M 88.5 234.5 L 88.5 230.5 M 94.5 234.5 L 94.5 230.5 M 99.5 234.5 L 99.5 230.5 M 104.5 234.5 L 104.5 230.5 M 109.5 234.5 L 109.5 230.5 M 114.5 234.5 L 114.5 230.5 M 120.5 234.5 L 120.5 230.5 M 125.5 234.5 L 125.5 230.5 M 130.5 234.5 L 130.5 230.5 M 135.5 234.5 L 135.5 230.5 M 140.5 234.5 L 140.5 230.5 M 145.5 234.5 L 145.5 230.5 M 151.5 234.5 L 151.5 230.5 M 156.5 234.5 L 156.5 230.5 M 161.5 234.5 L 161.5 230.5 M 166.5 234.5 L 166.5 230.5 M 171.5 234.5 L 171.5 230.5 M 176.5 234.5 L 176.5 230.5 M 182.5 234.5 L 182.5 230.5 M 187.5 234.5 L 187.5 230.5 M 192.5 234.5 L 192.5 230.5 M 197.5 234.5 L 197.5 230.5 M 202.5 234.5 L 202.5 230.5 M 207.5 234.5 L 207.5 230.5 M 213.5 234.5 L 213.5 230.5 M 218.5 234.5 L 218.5 230.5 M 223.5 234.5 L 223.5 230.5 M 228.5 234.5 L 228.5 230.5 M 233.5 234.5 L 233.5 230.5 M 238.5 234.5 L 238.5 230.5 M 244.5 234.5 L 244.5 230.5" stroke-opacity="1" stroke-linejoin="bevel" stroke-miterlimit="10"/><text fill="rgb(68,68,68)" stroke="none" font-family="helvetica" font-size="11px" font-style="normal" font-weight="normal" text-decoration="normal" x="60.16082000732422" y="249" text-anchor="start" dominant-baseline="alphabetic" transform="matrix(1, 0, 0, 1, 0.5, 0.5)" fill-opacity="1">4.4</text><text fill="none" stroke="rgb(0,0,0)" font-family="helvetica" font-size="11px" font-style="normal" font-weight="normal" text-decoration="normal" x="60.16082000732422" y="249" text-anchor="start" dominant-baseline="alphabetic" transform="matrix(1, 0, 0, 1, 0.5, 0.5)" stroke-opacity="0" stroke-linejoin="bevel" stroke-miterlimit="10">4.4</text><text fill="rgb(68,68,68)" stroke="none" font-family="helvetica" font-size="11px" font-style="normal" font-weight="normal" text-decoration="normal" x="86.02130126953125" y="249" text-anchor="start" dominant-baseline="alphabetic" transform="matrix(1, 0, 0, 1, 0.5, 0.5)" fill-opacity="1">4.6</text><text fill="none" stroke="rgb(0,0,0)" font-family="helvetica" font-size="11px" font-style="normal" font-weight="normal" text-decoration="normal" x="86.02130126953125" y="249" text-anchor="start" dominant-baseline="alphabetic" transform="matrix(1, 0, 0, 1, 0.5, 0.5)" stroke-opacity="0" stroke-linejoin="bevel" stroke-miterlimit="10">4.6</text><text fill="rgb(68,68,68)" stroke="none" font-family="helvetica" font-size="11px" font-style="normal" font-weight="normal" text-decoration="normal" x="111.88178253173828" y="249" text-anchor="start" dominant-baseline="alphabetic" transform="matrix(1, 0, 0, 1, 0.5, 0.5)" fill-opacity="1">4.8</text><text fill="none" stroke="rgb(0,0,0)" font-family="helvetica" font-size="11px" font-style="normal" font-weight="normal" text-decoration="normal" x="111.88178253173828" y="249" text-anchor="start" dominant-baseline="alphabetic" transform="matrix(1, 0, 0, 1, 0.5, 0.5)" stroke-opacity="0" stroke-linejoin="bevel" stroke-miterlimit="10">4.8</text><text fill="rgb(68,68,68)" stroke="none" font-family="helvetica" font-size="11px" font-style="normal" font-weight="normal" text-decoration="normal" x="142.3291778564453" y="249" text-anchor="start" dominant-baseline="alphabetic" transform="matrix(1, 0, 0, 1, 0.5, 0.5)" fill-opacity="1">5</text><text fill="none" stroke="rgb(0,0,0)" font-family="helvetica" font-size="11px" font-style="normal" font-weight="normal" text-decoration="normal" x="142.3291778564453" y="249" text-anchor="start" dominant-baseline="alphabetic" transform="matrix(1, 0, 0, 1, 0.5, 0.5)" stroke-opacity="0" stroke-linejoin="bevel" stroke-miterlimit="10">5</text><text fill="rgb(68,68,68)" stroke="none" font-family="helvetica" font-size="11px" font-style="normal" font-weight="normal" text-decoration="normal" x="163.6027374267578" y="249" text-anchor="start" dominant-baseline="alphabetic" transform="matrix(1, 0, 0, 1, 0.5, 0.5)" fill-opacity="1">5.2</text><text fill="none" stroke="rgb(0,0,0)" font-family="helvetica" font-size="11px" font-style="normal" font-weight="normal" text-decoration="normal" x="163.6027374267578" y="249" text-anchor="start" dominant-baseline="alphabetic" transform="matrix(1, 0, 0, 1, 0.5, 0.5)" stroke-opacity="0" stroke-linejoin="bevel" stroke-miterlimit="10">5.2</text><text fill="rgb(68,68,68)" stroke="none" font-family="helvetica" font-size="11px" font-style="normal" font-weight="normal" text-decoration="normal" x="189.46322631835938" y="249" text-anchor="start" dominant-baseline="alphabetic" transform="matrix(1, 0, 0, 1, 0.5, 0.5)" fill-opacity="1">5.4</text><text fill="none" stroke="rgb(0,0,0)" font-family="helvetica" font-size="11px" font-style="normal" font-weight="normal" text-decoration="normal" x="189.46322631835938" y="249" text-anchor="start" dominant-baseline="alphabetic" transform="matrix(1, 0, 0, 1, 0.5, 0.5)" stroke-opacity="0" stroke-linejoin="bevel" stroke-miterlimit="10">5.4</text><text fill="rgb(68,68,68)" stroke="none" font-family="helvetica" font-size="11px" font-style="normal" font-weight="normal" text-decoration="normal" x="215.32369995117188" y="249" text-anchor="start" dominant-baseline="alphabetic" transform="matrix(1, 0, 0, 1, 0.5, 0.5)" fill-opacity="1">5.6</text><text fill="none" stroke="rgb(0,0,0)" font-family="helvetica" font-size="11px" font-style="normal" font-weight="normal" text-decoration="normal" x="215.32369995117188" y="249" text-anchor="start" dominant-baseline="alphabetic" transform="matrix(1, 0, 0, 1, 0.5, 0.5)" stroke-opacity="0" stroke-linejoin="bevel" stroke-miterlimit="10">5.6</text><text fill="rgb(68,68,68)" stroke="none" font-family="helvetica" font-size="13px" font-style="italic" font-weight="normal" text-decoration="normal" x="134.052734375" y="269" text-anchor="start" dominant-baseline="alphabetic" transform="matrix(1, 0, 0, 1, 0.5, 0.5)" fill-opacity="1">tftmp</text><text fill="none" stroke="rgb(0,0,0)" font-family="helvetica" font-size="13px" font-style="italic" font-weight="normal" text-decoration="normal" x="134.052734375" y="269" text-anchor="start" dominant-baseline="alphabetic" transform="matrix(1, 0, 0, 1, 0.5, 0.5)" stroke-opacity="0" stroke-linejoin="bevel" stroke-miterlimit="10">tftmp</text><path fill="none" stroke="rgb(0,0,0)" paint-order="fill" d="M 52.5 230.5 L 52.5 27.5" stroke-opacity="1" stroke-linejoin="bevel" stroke-miterlimit="10"/><path fill="none" stroke="rgb(0,0,0)" paint-order="fill" d="M 46.5 221.5 L 54.5 221.5 M 46.5 183.5 L 54.5 183.5 M 46.5 145.5 L 54.5 145.5 M 46.5 108.5 L 54.5 108.5 M 46.5 70.5 L 54.5 70.5 M 46.5 33.5 L 54.5 33.5" stroke-opacity="1" stroke-linejoin="bevel" stroke-miterlimit="10"/><path fill="none" stroke="rgb(0,0,0)" paint-order="fill" d="M 48.5 228.5 L 52.5 228.5 M 48.5 221.5 L 52.5 221.5 M 48.5 213.5 L 52.5 213.5 M 48.5 206.5 L 52.5 206.5 M 48.5 198.5 L 52.5 198.5 M 48.5 191.5 L 52.5 191.5 M 48.5 183.5 L 52.5 183.5 M 48.5 176.5 L 52.5 176.5 M 48.5 168.5 L 52.5 168.5 M 48.5 161.5 L 52.5 161.5 M 48.5 153.5 L 52.5 153.5 M 48.5 145.5 L 52.5 145.5 M 48.5 138.5 L 52.5 138.5 M 48.5 130.5 L 52.5 130.5 M 48.5 123.5 L 52.5 123.5 M 48.5 115.5 L 52.5 115.5 M 48.5 108.5 L 52.5 108.5 M 48.5 100.5 L 52.5 100.5 M 48.5 93.5 L 52.5 93.5 M 48.5 85.5 L 52.5 85.5 M 48.5 78.5 L 52.5 78.5 M 48.5 70.5 L 52.5 70.5 M 48.5 63.5 L 52.5 63.5 M 48.5 55.5 L 52.5 55.5 M 48.5 48.5 L 52.5 48.5 M 48.5 40.5 L 52.5 40.5 M 48.5 33.5 L 52.5 33.5" stroke-opacity="1" stroke-linejoin="bevel" stroke-miterlimit="10"/><text fill="rgb(68,68,68)" stroke="none" font-family="helvetica" font-size="11px" font-style="normal" font-weight="normal" text-decoration="normal" x="34.88232421875" y="224.77272033691406" text-anchor="start" dominant-baseline="alphabetic" transform="matrix(1, 0, 0, 1, 0.5, 0.5)" fill-opacity="1">0</text><text fill="none" stroke="rgb(0,0,0)" font-family="helvetica" font-size="11px" font-style="normal" font-weight="normal" text-decoration="normal" x="34.88232421875" y="224.77272033691406" text-anchor="start" dominant-baseline="alphabetic" transform="matrix(1, 0, 0, 1, 0.5, 0.5)" stroke-opacity="0" stroke-linejoin="bevel" stroke-miterlimit="10">0</text><text fill="rgb(68,68,68)" stroke="none" font-family="helvetica" font-size="11px" font-style="normal" font-weight="normal" text-decoration="normal" x="25.70849609375" y="187.1220245361328" text-anchor="start" dominant-baseline="alphabetic" transform="matrix(1, 0, 0, 1, 0.5, 0.5)" fill-opacity="1">0.2</text><text fill="none" stroke="rgb(0,0,0)" font-family="helvetica" font-size="11px" font-style="normal" font-weight="normal" text-decoration="normal" x="25.70849609375" y="187.1220245361328" text-anchor="start" dominant-baseline="alphabetic" transform="matrix(1, 0, 0, 1, 0.5, 0.5)" stroke-opacity="0" stroke-linejoin="bevel" stroke-miterlimit="10">0.2</text><text fill="rgb(68,68,68)" stroke="none" font-family="helvetica" font-size="11px" font-style="normal" font-weight="normal" text-decoration="normal" x="25.70849609375" y="149.47132873535156" text-anchor="start" dominant-baseline="alphabetic" transform="matrix(1, 0, 0, 1, 0.5, 0.5)" fill-opacity="1">0.4</text><text fill="none" stroke="rgb(0,0,0)" font-family="helvetica" font-size="11px" font-style="normal" font-weight="normal" text-decoration="normal" x="25.70849609375" y="149.47132873535156" text-anchor="start" dominant-baseline="alphabetic" transform="matrix(1, 0, 0, 1, 0.5, 0.5)" stroke-opacity="0" stroke-linejoin="bevel" stroke-miterlimit="10">0.4</text><text fill="rgb(68,68,68)" stroke="none" font-family="helvetica" font-size="11px" font-style="normal" font-weight="normal" text-decoration="normal" x="25.70849609375" y="111.82061767578125" text-anchor="start" dominant-baseline="alphabetic" transform="matrix(1, 0, 0, 1, 0.5, 0.5)" fill-opacity="1">0.6</text><text fill="none" stroke="rgb(0,0,0)" font-family="helvetica" font-size="11px" font-style="normal" font-weight="normal" text-decoration="normal" x="25.70849609375" y="111.82061767578125" text-anchor="start" dominant-baseline="alphabetic" transform="matrix(1, 0, 0, 1, 0.5, 0.5)" stroke-opacity="0" stroke-linejoin="bevel" stroke-miterlimit="10">0.6</text><text fill="rgb(68,68,68)" stroke="none" font-family="helvetica" font-size="11px" font-style="normal" font-weight="normal" text-decoration="normal" x="25.70849609375" y="74.16991424560547" text-anchor="start" dominant-baseline="alphabetic" transform="matrix(1, 0, 0, 1, 0.5, 0.5)" fill-opacity="1">0.8</text><text fill="none" stroke="rgb(0,0,0)" font-family="helvetica" font-size="11px" font-style="normal" font-weight="normal" text-decoration="normal" x="25.70849609375" y="74.16991424560547" text-anchor="start" dominant-baseline="alphabetic" transform="matrix(1, 0, 0, 1, 0.5, 0.5)" stroke-opacity="0" stroke-linejoin="bevel" stroke-miterlimit="10">0.8</text><text fill="rgb(68,68,68)" stroke="none" font-family="helvetica" font-size="11px" font-style="normal" font-weight="normal" text-decoration="normal" x="34.88232421875" y="36.51921463012695" text-anchor="start" dominant-baseline="alphabetic" transform="matrix(1, 0, 0, 1, 0.5, 0.5)" fill-opacity="1">1</text><text fill="none" stroke="rgb(0,0,0)" font-family="helvetica" font-size="11px" font-style="normal" font-weight="normal" text-decoration="normal" x="34.88232421875" y="36.51921463012695" text-anchor="start" dominant-baseline="alphabetic" transform="matrix(1, 0, 0, 1, 0.5, 0.5)" stroke-opacity="0" stroke-linejoin="bevel" stroke-miterlimit="10">1</text><text fill="rgb(68,68,68)" stroke="none" font-family="helvetica" font-size="13px" font-style="italic" font-weight="normal" text-decoration="normal" x="-47.31689453125" y="125.5" text-anchor="start" dominant-baseline="alphabetic" transform="matrix(6.123233995736766e-17, -1, 1, 6.123233995736766e-17, -110.29150390625, 146.70849609375)" fill-opacity="1">Normalised Probability</text><text fill="none" stroke="rgb(0,0,0)" font-family="helvetica" font-size="13px" font-style="italic" font-weight="normal" text-decoration="normal" x="-47.31689453125" y="125.5" text-anchor="start" dominant-baseline="alphabetic" transform="matrix(6.123233995736766e-17, -1, 1, 6.123233995736766e-17, -110.29150390625, 146.70849609375)" stroke-opacity="0" stroke-linejoin="bevel" stroke-miterlimit="10">Normalised Probability</text><path fill="rgb(255,249,186)" stroke="rgb(255,0,0)" paint-order="fill" d="M 149.36631244139903 36.72727272727272 L 149.36631244139903 36.72727272727272 L 149.36631244139903 221.27272727272728 L 149.36631244139903 221.27272727272728 L 149.36631244139903 36.72727272727272 Z" fill-opacity="0.4" clip-path="url(#DmSiMqTcqBEg)" stroke-opacity="1" stroke-linejoin="bevel" stroke-miterlimit="10" stroke-width="2" stroke-dasharray="6"/><path fill="rgb(255,249,186)" stroke="rgb(50,205,50)" paint-order="fill" d="M 94.4476392261954 36.72727272727272 L 94.4476392261954 36.72727272727272 L 94.4476392261954 221.27272727272728 L 94.4476392261954 221.27272727272728 L 94.4476392261954 36.72727272727272 Z" fill-opacity="0.4" clip-path="url(#LXIgXncJIfKo)" stroke-opacity="1" stroke-linejoin="bevel" stroke-miterlimit="10" stroke-width="2" stroke-dasharray="6"/><text fill="rgb(68,68,68)" stroke="none" font-family="helvetica" font-size="13px" font-style="normal" font-weight="bold" text-decoration="normal" x="52" y="19" text-anchor="start" dominant-baseline="alphabetic" transform="matrix(1, 0, 0, 1, 0.5, 0.5)" fill-opacity="1">Convergance Probability</text><text fill="none" stroke="rgb(0,0,0)" font-family="helvetica" font-size="13px" font-style="normal" font-weight="bold" text-decoration="normal" x="52" y="19" text-anchor="start" dominant-baseline="alphabetic" transform="matrix(1, 0, 0, 1, 0.5, 0.5)" stroke-opacity="0" stroke-miterlimit="10" stroke-dasharray="">Convergance Probability</text></svg>