<svg version="1.1" xmlns="http://www.w3.org/2000/svg" width="250" height="250"><defs><clipPath id="KowgSLEHQxfG"><path fill="none" stroke="none" d="M 52.5 27.5 L 220.5 27.5 L 220.5 205.5 L 52.5 205.5 L 52.5 27.5 Z"/></clipPath><clipPath id="QgSOscvNKGOC"><path fill="none" stroke="none" d="M 52.5 27.5 L 220.5 27.5 L 220.5 205.5 L 52.5 205.5 L 52.5 27.5 Z"/></clipPath><clipPath id="HwvSeSQkdEOT"><path fill="none" stroke="none" d="M 52.5 27.5 L 220.5 27.5 L 220.5 205.5 L 52.5 205.5 L 52.5 27.5 Z"/></clipPath><clipPath id="gJxATaKPTPxb"><path fill="none" stroke="none" d="M 52.5 27.5 L 220.5 27.5 L 220.5 205.5 L 52.5 205.5 L 52.5 27.5 Z"/></clipPath><pattern id="milbbWspnwPe" width="3" height="3" patternUnits="userSpaceOnUse"><path fill="rgb(0,0,0)" stroke="none" paint-order="stroke" d="M 2.75 2 A 0.75 0.75 0 0 0 1.25 2 A 0.75 0.75 0 0 0 2.75 2" fill-opacity="0.14901960784313725"/></pattern><clipPath id="iNVSADRQTDfi"><path fill="none" stroke="none" d="M 52.5 27.5 L 220.5 27.5 L 220.5 205.5 L 52.5 205.5 L 52.5 27.5 Z"/></clipPath><clipPath id="gbUtbVqMRLas"><path fill="none" stroke="none" d="M 52.5 27.5 L 220.5 27.5 L 220.5 205.5 L 52.5 205.5 L 52.5 27.5 Z"/></clipPath><clipPath id="HKWMGahvnwJA"><path fill="none" stroke="none" d="M 52.5 27.5 L 220.5 27.5 L 220.5 205.5 L 52.5 205.5 L 52.5 27.5 Z"/></clipPath><clipPath id="DNTLCzztXysk"><path fill="none" stroke="none" d="M 52.5 27.5 L 220.5 27.5 L 220.5 205.5 L 52.5 205.5 L 52.5 27.5 Z"/></clipPath></defs><path fill="rgb(255,255,255)" stroke="none" paint-order="stroke" d="M 0.5 0.5 L 250.5 0.5 L 250.5 250.5 L 0.5 250.5 L 0.5 0.5 Z" fill-opacity="1"/><rect fill="#FFFFFF" stroke="none" x="52" y="27" width="168" height="178" transform="matrix(1, 0, 0, 1, 0.5, 0.5)"/><path fill="rgb(255,255,255)" stroke="none" paint-order="stroke" d="M 52.5 27.5 L 220.5 27.5 L 220.5 205.5 L 52.5 205.5 L 52.5 27.5 Z" fill-opacity="1"/><path fill="none" stroke="rgb(229,229,229)" paint-order="fill" d="M 52.5 27.5 L 220.5 27.5 L 220.5 205.5 L 52.5 205.5 L 52.5 27.5 Z" stroke-opacity="1" stroke-linejoin="bevel" stroke-miterlimit="10"/><path fill="none" stroke="rgb(229,229,229)" paint-order="fill" d="M 54.5 205.5 L 54.5 27.5 M 80.5 205.5 L 80.5 27.5 M 106.5 205.5 L 106.5 27.5 M 132.5 205.5 L 132.5 27.5 M 158.5 205.5 L 158.5 27.5 M 184.5 205.5 L 184.5 27.5 M 210.5 205.5 L 210.5 27.5" stroke-opacity="1" stroke-linejoin="bevel" stroke-miterlimit="10" clip-path="url(#KowgSLEHQxfG)"/><path fill="none" stroke="rgb(229,229,229)" paint-order="fill" d="M 52.5 197.5 L 220.5 197.5 M 52.5 165.5 L 220.5 165.5 M 52.5 132.5 L 220.5 132.5 M 52.5 100.5 L 220.5 100.5 M 52.5 68.5 L 220.5 68.5 M 52.5 36.5 L 220.5 36.5" stroke-opacity="1" stroke-linejoin="bevel" stroke-miterlimit="10" clip-path="url(#QgSOscvNKGOC)"/><path fill="none" stroke="rgb(0,0,0)" paint-order="fill" d="M 132.62571716308594 28.348737716674805 L 132.62571716308594 42.83308029174805" stroke-opacity="1" stroke-linejoin="bevel" stroke-miterlimit="10" clip-path="url(#HwvSeSQkdEOT)"/><path fill="none" stroke="rgb(0,0,0)" paint-order="fill" d="" stroke-opacity="1" stroke-linejoin="bevel" stroke-miterlimit="10" clip-path="url(#HwvSeSQkdEOT)"/><path fill="none" stroke="rgb(0,0,0)" paint-order="fill" d="M 127.62571716308594 28.348737716674805 L 137.62571716308594 28.348737716674805" stroke-opacity="1" stroke-linejoin="bevel" stroke-miterlimit="10" clip-path="url(#HwvSeSQkdEOT)"/><path fill="none" stroke="rgb(0,0,0)" paint-order="fill" d="M -4.5 0.5000000000000007 L 5.5 0.4999999999999994" stroke-opacity="1" stroke-linejoin="bevel" stroke-miterlimit="10" clip-path="url(#HwvSeSQkdEOT)"/><path fill="none" stroke="rgb(0,0,0)" paint-order="fill" d="M 137.62571716308594 42.83308029174805 L 127.62571716308594 42.83308029174805" stroke-opacity="1" stroke-linejoin="bevel" stroke-miterlimit="10" clip-path="url(#HwvSeSQkdEOT)"/><path fill="none" stroke="rgb(0,0,0)" paint-order="fill" d="M 5.5 0.5 L -4.5 0.5" stroke-opacity="1" stroke-linejoin="bevel" stroke-miterlimit="10" clip-path="url(#HwvSeSQkdEOT)"/><path fill="rgb(128,128,128)" stroke="none" paint-order="stroke" d="M 55.140018463134766 35.590911865234375 L 210.11141967773438 35.590911865234375 L 210.11141967773438 197.40908813476562 L 55.140018463134766 197.40908813476562 L 55.140018463134766 35.590911865234375 Z" fill-opacity="0.10196078431372549" clip-path="url(#gJxATaKPTPxb)"/><path fill="url(#milbbWspnwPe)" stroke="rgb(0,0,0)" paint-order="fill" d="M 55.140018463134766 35.590911865234375 L 210.11141967773438 35.590911865234375 L 210.11141967773438 197.40908813476562 L 55.140018463134766 197.40908813476562 L 55.140018463134766 35.590911865234375 Z" clip-path="url(#gJxATaKPTPxb)" stroke-opacity="0.2" stroke-linejoin="bevel" stroke-miterlimit="10"/><path fill="rgb(100,149,237)" stroke="rgb(31,119,180)" paint-order="fill" d="M 55.14002227783203 35.59090805053711 L 210.11141967773438 35.59090805053711 L 210.11141967773438 197.40908813476562 L 55.14002227783203 197.40908813476562 L 55.14002227783203 35.59090805053711 Z" fill-opacity="0.5019607843137255" clip-path="url(#iNVSADRQTDfi)" stroke-opacity="0.5019607843137255" stroke-linejoin="bevel" stroke-miterlimit="10"/><path fill="rgb(100,149,237)" stroke="rgb(31,119,180)" paint-order="fill" d="M 210.11141967773438 197.40908813476562 L 220.5 197.40908813476562 L 220.5 197.40908813476562 L 210.11141967773438 197.40908813476562 L 210.11141967773438 197.40908813476562 Z" fill-opacity="0.5019607843137255" clip-path="url(#iNVSADRQTDfi)" stroke-opacity="0.5019607843137255" stroke-linejoin="bevel" stroke-miterlimit="10"/><path fill="none" stroke="rgb(0,0,0)" paint-order="fill" d="M 52.5 205.5 L 220.5 205.5" stroke-opacity="1" stroke-linejoin="bevel" stroke-miterlimit="10"/><path fill="none" stroke="rgb(0,0,0)" paint-order="fill" d="M 54.5 211.5 L 54.5 203.5 M 80.5 211.5 L 80.5 203.5 M 106.5 211.5 L 106.5 203.5 M 132.5 211.5 L 132.5 203.5 M 158.5 211.5 L 158.5 203.5 M 184.5 211.5 L 184.5 203.5 M 210.5 211.5 L 210.5 203.5" stroke-opacity="1" stroke-linejoin="bevel" stroke-miterlimit="10"/><path fill="none" stroke="rgb(0,0,0)" paint-order="fill" d="M 54.5 209.5 L 54.5 205.5 M 59.5 209.5 L 59.5 205.5 M 64.5 209.5 L 64.5 205.5 M 70.5 209.5 L 70.5 205.5 M 75.5 209.5 L 75.5 205.5 M 80.5 209.5 L 80.5 205.5 M 85.5 209.5 L 85.5 205.5 M 90.5 209.5 L 90.5 205.5 M 96.5 209.5 L 96.5 205.5 M 101.5 209.5 L 101.5 205.5 M 106.5 209.5 L 106.5 205.5 M 111.5 209.5 L 111.5 205.5 M 116.5 209.5 L 116.5 205.5 M 122.5 209.5 L 122.5 205.5 M 127.5 209.5 L 127.5 205.5 M 132.5 209.5 L 132.5 205.5 M 137.5 209.5 L 137.5 205.5 M 142.5 209.5 L 142.5 205.5 M 148.5 209.5 L 148.5 205.5 M 153.5 209.5 L 153.5 205.5 M 158.5 209.5 L 158.5 205.5 M 163.5 209.5 L 163.5 205.5 M 168.5 209.5 L 168.5 205.5 M 174.5 209.5 L 174.5 205.5 M 179.5 209.5 L 179.5 205.5 M 184.5 209.5 L 184.5 205.5 M 189.5 209.5 L 189.5 205.5 M 194.5 209.5 L 194.5 205.5 M 200.5 209.5 L 200.5 205.5 M 205.5 209.5 L 205.5 205.5 M 210.5 209.5 L 210.5 205.5 M 215.5 209.5 L 215.5 205.5" stroke-opacity="1" stroke-linejoin="bevel" stroke-miterlimit="10"/><text fill="rgb(68,68,68)" stroke="none" font-family="helvetica" font-size="11px" font-style="normal" font-weight="normal" text-decoration="normal" x="30.793598175048828" y="224" text-anchor="start" dominant-baseline="alphabetic" transform="matrix(1, 0, 0, 1, 0.5, 0.5)" fill-opacity="1">1.000e−3</text><text fill="none" stroke="rgb(0,0,0)" font-family="helvetica" font-size="11px" font-style="normal" font-weight="normal" text-decoration="normal" x="30.793598175048828" y="224" text-anchor="start" dominant-baseline="alphabetic" transform="matrix(1, 0, 0, 1, 0.5, 0.5)" stroke-opacity="0" stroke-linejoin="bevel" stroke-miterlimit="10">1.000e−3</text><text fill="rgb(68,68,68)" stroke="none" font-family="helvetica" font-size="11px" font-style="normal" font-weight="normal" text-decoration="normal" x="56.81707000732422" y="224" text-anchor="start" dominant-baseline="alphabetic" transform="matrix(1, 0, 0, 1, 0.5, 0.5)" fill-opacity="1">1.500e−3</text><text fill="none" stroke="rgb(0,0,0)" font-family="helvetica" font-size="11px" font-style="normal" font-weight="normal" text-decoration="normal" x="56.81707000732422" y="224" text-anchor="start" dominant-baseline="alphabetic" transform="matrix(1, 0, 0, 1, 0.5, 0.5)" stroke-opacity="0" stroke-linejoin="bevel" stroke-miterlimit="10">1.500e−3</text><text fill="rgb(68,68,68)" stroke="none" font-family="helvetica" font-size="11px" font-style="normal" font-weight="normal" text-decoration="normal" x="82.84053802490234" y="224" text-anchor="start" dominant-baseline="alphabetic" transform="matrix(1, 0, 0, 1, 0.5, 0.5)" fill-opacity="1">2.000e−3</text><text fill="none" stroke="rgb(0,0,0)" font-family="helvetica" font-size="11px" font-style="normal" font-weight="normal" text-decoration="normal" x="82.84053802490234" y="224" text-anchor="start" dominant-baseline="alphabetic" transform="matrix(1, 0, 0, 1, 0.5, 0.5)" stroke-opacity="0" stroke-linejoin="bevel" stroke-miterlimit="10">2.000e−3</text><text fill="rgb(68,68,68)" stroke="none" font-family="helvetica" font-size="11px" font-style="normal" font-weight="normal" text-decoration="normal" x="108.864013671875" y="224" text-anchor="start" dominant-baseline="alphabetic" transform="matrix(1, 0, 0, 1, 0.5, 0.5)" fill-opacity="1">2.500e−3</text><text fill="none" stroke="rgb(0,0,0)" font-family="helvetica" font-size="11px" font-style="normal" font-weight="normal" text-decoration="normal" x="108.864013671875" y="224" text-anchor="start" dominant-baseline="alphabetic" transform="matrix(1, 0, 0, 1, 0.5, 0.5)" stroke-opacity="0" stroke-linejoin="bevel" stroke-miterlimit="10">2.500e−3</text><text fill="rgb(68,68,68)" stroke="none" font-family="helvetica" font-size="11px" font-style="normal" font-weight="normal" text-decoration="normal" x="134.88748168945312" y="224" text-anchor="start" dominant-baseline="alphabetic" transform="matrix(1, 0, 0, 1, 0.5, 0.5)" fill-opacity="1">3.000e−3</text><text fill="none" stroke="rgb(0,0,0)" font-family="helvetica" font-size="11px" font-style="normal" font-weight="normal" text-decoration="normal" x="134.88748168945312" y="224" text-anchor="start" dominant-baseline="alphabetic" transform="matrix(1, 0, 0, 1, 0.5, 0.5)" stroke-opacity="0" stroke-linejoin="bevel" stroke-miterlimit="10">3.000e−3</text><text fill="rgb(68,68,68)" stroke="none" font-family="helvetica" font-size="11px" font-style="normal" font-weight="normal" text-decoration="normal" x="160.91094970703125" y="224" text-anchor="start" dominant-baseline="alphabetic" transform="matrix(1, 0, 0, 1, 0.5, 0.5)" fill-opacity="1">3.500e−3</text><text fill="none" stroke="rgb(0,0,0)" font-family="helvetica" font-size="11px" font-style="normal" font-weight="normal" text-decoration="normal" x="160.91094970703125" y="224" text-anchor="start" dominant-baseline="alphabetic" transform="matrix(1, 0, 0, 1, 0.5, 0.5)" stroke-opacity="0" stroke-linejoin="bevel" stroke-miterlimit="10">3.500e−3</text><text fill="rgb(68,68,68)" stroke="none" font-family="helvetica" font-size="11px" font-style="normal" font-weight="normal" text-decoration="normal" x="186.93441772460938" y="224" text-anchor="start" dominant-baseline="alphabetic" transform="matrix(1, 0, 0, 1, 0.5, 0.5)" fill-opacity="1">4.000e−3</text><text fill="none" stroke="rgb(0,0,0)" font-family="helvetica" font-size="11px" font-style="normal" font-weight="normal" text-decoration="normal" x="186.93441772460938" y="224" text-anchor="start" dominant-baseline="alphabetic" transform="matrix(1, 0, 0, 1, 0.5, 0.5)" stroke-opacity="0" stroke-linejoin="bevel" stroke-miterlimit="10">4.000e−3</text><text fill="rgb(68,68,68)" stroke="none" font-family="helvetica" font-size="13px" font-style="italic" font-weight="normal" text-decoration="normal" x="107.09912109375" y="244" text-anchor="start" dominant-baseline="alphabetic" transform="matrix(1, 0, 0, 1, 0.5, 0.5)" fill-opacity="1">thicndut ()</text><text fill="none" stroke="rgb(0,0,0)" font-family="helvetica" font-size="13px" font-style="italic" font-weight="normal" text-decoration="normal" x="107.09912109375" y="244" text-anchor="start" dominant-baseline="alphabetic" transform="matrix(1, 0, 0, 1, 0.5, 0.5)" stroke-opacity="0" stroke-linejoin="bevel" stroke-miterlimit="10">thicndut ()</text><path fill="none" stroke="rgb(0,0,0)" paint-order="fill" d="M 52.5 205.5 L 52.5 27.5" stroke-opacity="1" stroke-linejoin="bevel" stroke-miterlimit="10"/><path fill="none" stroke="rgb(0,0,0)" paint-order="fill" d="M 46.5 197.5 L 54.5 197.5 M 46.5 165.5 L 54.5 165.5 M 46.5 132.5 L 54.5 132.5 M 46.5 100.5 L 54.5 100.5 M 46.5 68.5 L 54.5 68.5 M 46.5 36.5 L 54.5 36.5" stroke-opacity="1" stroke-linejoin="bevel" stroke-miterlimit="10"/><path fill="none" stroke="rgb(0,0,0)" paint-order="fill" d="M 48.5 203.5 L 52.5 203.5 M 48.5 197.5 L 52.5 197.5 M 48.5 190.5 L 52.5 190.5 M 48.5 184.5 L 52.5 184.5 M 48.5 178.5 L 52.5 178.5 M 48.5 171.5 L 52.5 171.5 M 48.5 165.5 L 52.5 165.5 M 48.5 158.5 L 52.5 158.5 M 48.5 152.5 L 52.5 152.5 M 48.5 145.5 L 52.5 145.5 M 48.5 139.5 L 52.5 139.5 M 48.5 132.5 L 52.5 132.5 M 48.5 126.5 L 52.5 126.5 M 48.5 119.5 L 52.5 119.5 M 48.5 113.5 L 52.5 113.5 M 48.5 107.5 L 52.5 107.5 M 48.5 100.5 L 52.5 100.5 M 48.5 94.5 L 52.5 94.5 M 48.5 87.5 L 52.5 87.5 M 48.5 81.5 L 52.5 81.5 M 48.5 74.5 L 52.5 74.5 M 48.5 68.5 L 52.5 68.5 M 48.5 61.5 L 52.5 61.5 M 48.5 55.5 L 52.5 55.5 M 48.5 48.5 L 52.5 48.5 M 48.5 42.5 L 52.5 42.5 M 48.5 36.5 L 52.5 36.5 M 48.5 29.5 L 52.5 29.5" stroke-opacity="1" stroke-linejoin="bevel" stroke-miterlimit="10"/><text fill="rgb(68,68,68)" stroke="none" font-family="helvetica" font-size="11px" font-style="normal" font-weight="normal" text-decoration="normal" x="34.88232421875" y="200.90908813476562" text-anchor="start" dominant-baseline="alphabetic" transform="matrix(1, 0, 0, 1, 0.5, 0.5)" fill-opacity="1">0</text><text fill="none" stroke="rgb(0,0,0)" font-family="helvetica" font-size="11px" font-style="normal" font-weight="normal" text-decoration="normal" x="34.88232421875" y="200.90908813476562" text-anchor="start" dominant-baseline="alphabetic" transform="matrix(1, 0, 0, 1, 0.5, 0.5)" stroke-opacity="0" stroke-linejoin="bevel" stroke-miterlimit="10">0</text><text fill="rgb(68,68,68)" stroke="none" font-family="helvetica" font-size="11px" font-style="normal" font-weight="normal" text-decoration="normal" x="25.70849609375" y="168.64254760742188" text-anchor="start" dominant-baseline="alphabetic" transform="matrix(1, 0, 0, 1, 0.5, 0.5)" fill-opacity="1">0.2</text><text fill="none" stroke="rgb(0,0,0)" font-family="helvetica" font-size="11px" font-style="normal" font-weight="normal" text-decoration="normal" x="25.70849609375" y="168.64254760742188" text-anchor="start" dominant-baseline="alphabetic" transform="matrix(1, 0, 0, 1, 0.5, 0.5)" stroke-opacity="0" stroke-linejoin="bevel" stroke-miterlimit="10">0.2</text><text fill="rgb(68,68,68)" stroke="none" font-family="helvetica" font-size="11px" font-style="normal" font-weight="normal" text-decoration="normal" x="25.70849609375" y="136.37600708007812" text-anchor="start" dominant-baseline="alphabetic" transform="matrix(1, 0, 0, 1, 0.5, 0.5)" fill-opacity="1">0.4</text><text fill="none" stroke="rgb(0,0,0)" font-family="helvetica" font-size="11px" font-style="normal" font-weight="normal" text-decoration="normal" x="25.70849609375" y="136.37600708007812" text-anchor="start" dominant-baseline="alphabetic" transform="matrix(1, 0, 0, 1, 0.5, 0.5)" stroke-opacity="0" stroke-linejoin="bevel" stroke-miterlimit="10">0.4</text><text fill="rgb(68,68,68)" stroke="none" font-family="helvetica" font-size="11px" font-style="normal" font-weight="normal" text-decoration="normal" x="25.70849609375" y="104.10945129394531" text-anchor="start" dominant-baseline="alphabetic" transform="matrix(1, 0, 0, 1, 0.5, 0.5)" fill-opacity="1">0.6</text><text fill="none" stroke="rgb(0,0,0)" font-family="helvetica" font-size="11px" font-style="normal" font-weight="normal" text-decoration="normal" x="25.70849609375" y="104.10945129394531" text-anchor="start" dominant-baseline="alphabetic" transform="matrix(1, 0, 0, 1, 0.5, 0.5)" stroke-opacity="0" stroke-linejoin="bevel" stroke-miterlimit="10">0.6</text><text fill="rgb(68,68,68)" stroke="none" font-family="helvetica" font-size="11px" font-style="normal" font-weight="normal" text-decoration="normal" x="25.70849609375" y="71.84291076660156" text-anchor="start" dominant-baseline="alphabetic" transform="matrix(1, 0, 0, 1, 0.5, 0.5)" fill-opacity="1">0.8</text><text fill="none" stroke="rgb(0,0,0)" font-family="helvetica" font-size="11px" font-style="normal" font-weight="normal" text-decoration="normal" x="25.70849609375" y="71.84291076660156" text-anchor="start" dominant-baseline="alphabetic" transform="matrix(1, 0, 0, 1, 0.5, 0.5)" stroke-opacity="0" stroke-linejoin="bevel" stroke-miterlimit="10">0.8</text><text fill="rgb(68,68,68)" stroke="none" font-family="helvetica" font-size="11px" font-style="normal" font-weight="normal" text-decoration="normal" x="34.88232421875" y="39.57636260986328" text-anchor="start" dominant-baseline="alphabetic" transform="matrix(1, 0, 0, 1, 0.5, 0.5)" fill-opacity="1">1</text><text fill="none" stroke="rgb(0,0,0)" font-family="helvetica" font-size="11px" font-style="normal" font-weight="normal" text-decoration="normal" x="34.88232421875" y="39.57636260986328" text-anchor="start" dominant-baseline="alphabetic" transform="matrix(1, 0, 0, 1, 0.5, 0.5)" stroke-opacity="0" stroke-linejoin="bevel" stroke-miterlimit="10">1</text><text fill="rgb(68,68,68)" stroke="none" font-family="helvetica" font-size="13px" font-style="italic" font-weight="normal" text-decoration="normal" x="-47.31689453125" y="113" text-anchor="start" dominant-baseline="alphabetic" transform="matrix(6.123233995736766e-17, -1, 1, 6.123233995736766e-17, -97.79150390625, 134.20849609375)" fill-opacity="1">Normalised Probability</text><text fill="none" stroke="rgb(0,0,0)" font-family="helvetica" font-size="13px" font-style="italic" font-weight="normal" text-decoration="normal" x="-47.31689453125" y="113" text-anchor="start" dominant-baseline="alphabetic" transform="matrix(6.123233995736766e-17, -1, 1, 6.123233995736766e-17, -97.79150390625, 134.20849609375)" stroke-opacity="0" stroke-linejoin="bevel" stroke-miterlimit="10">Normalised Probability</text><path fill="rgb(255,249,186)" stroke="rgb(255,0,0)" paint-order="fill" d="M 135.28151291473034 35.59090909090909 L 135.28151291473034 35.59090909090909 L 135.28151291473034 197.4090909090909 L 135.28151291473034 197.4090909090909 L 135.28151291473034 35.59090909090909 Z" fill-opacity="0.4" clip-path="url(#gbUtbVqMRLas)" stroke-opacity="1" stroke-linejoin="bevel" stroke-miterlimit="10" stroke-width="2" stroke-dasharray="6"/><path fill="rgb(255,249,186)" stroke="rgb(50,205,50)" paint-order="fill" d="M 132.62571510601543 35.59090909090909 L 132.62571510601543 35.59090909090909 L 132.62571510601543 197.4090909090909 L 132.62571510601543 197.4090909090909 L 132.62571510601543 35.59090909090909 Z" fill-opacity="0.4" clip-path="url(#HKWMGahvnwJA)" stroke-opacity="1" stroke-linejoin="bevel" stroke-miterlimit="10" stroke-width="2" stroke-dasharray="6"/><text fill="rgb(68,68,68)" stroke="none" font-family="helvetica" font-size="13px" font-style="normal" font-weight="bold" text-decoration="normal" x="52" y="19" text-anchor="start" dominant-baseline="alphabetic" transform="matrix(1, 0, 0, 1, 0.5, 0.5)" fill-opacity="1">Convergance Probability</text><text fill="none" stroke="rgb(0,0,0)" font-family="helvetica" font-size="13px" font-style="normal" font-weight="bold" text-decoration="normal" x="52" y="19" text-anchor="start" dominant-baseline="alphabetic" transform="matrix(1, 0, 0, 1, 0.5, 0.5)" stroke-opacity="0" stroke-miterlimit="10" stroke-dasharray="">Convergance Probability</text></svg>