<svg version="1.1" xmlns="http://www.w3.org/2000/svg" width="250" height="250"><defs><clipPath id="vHPodOqoUCsh"><path fill="none" stroke="none" d="M 52.5 27.5 L 220.5 27.5 L 220.5 205.5 L 52.5 205.5 L 52.5 27.5 Z"/></clipPath><clipPath id="wAlcAggNzoJe"><path fill="none" stroke="none" d="M 52.5 27.5 L 220.5 27.5 L 220.5 205.5 L 52.5 205.5 L 52.5 27.5 Z"/></clipPath><clipPath id="IZrNqpWfiHPQ"><path fill="none" stroke="none" d="M 52.5 27.5 L 220.5 27.5 L 220.5 205.5 L 52.5 205.5 L 52.5 27.5 Z"/></clipPath><clipPath id="hKPmdzXCDDqu"><path fill="none" stroke="none" d="M 52.5 27.5 L 220.5 27.5 L 220.5 205.5 L 52.5 205.5 L 52.5 27.5 Z"/></clipPath><pattern id="lBAeSumkPgKT" width="3" height="3" patternUnits="userSpaceOnUse"><path fill="rgb(0,0,0)" stroke="none" paint-order="stroke" d="M 2.75 2 A 0.75 0.75 0 0 0 1.25 2 A 0.75 0.75 0 0 0 2.75 2" fill-opacity="0.14901960784313725"/></pattern><clipPath id="kNgTBAartuKl"><path fill="none" stroke="none" d="M 52.5 27.5 L 220.5 27.5 L 220.5 205.5 L 52.5 205.5 L 52.5 27.5 Z"/></clipPath><clipPath id="qzuRRzQDhulu"><path fill="none" stroke="none" d="M 52.5 27.5 L 220.5 27.5 L 220.5 205.5 L 52.5 205.5 L 52.5 27.5 Z"/></clipPath><clipPath id="vrAwnsEgzkXU"><path fill="none" stroke="none" d="M 52.5 27.5 L 220.5 27.5 L 220.5 205.5 L 52.5 205.5 L 52.5 27.5 Z"/></clipPath><clipPath id="BNhENymTARhp"><path fill="none" stroke="none" d="M 52.5 27.5 L 220.5 27.5 L 220.5 205.5 L 52.5 205.5 L 52.5 27.5 Z"/></clipPath></defs><path fill="rgb(255,255,255)" stroke="none" paint-order="stroke" d="M 0.5 0.5 L 250.5 0.5 L 250.5 250.5 L 0.5 250.5 L 0.5 0.5 Z" fill-opacity="1"/><rect fill="#FFFFFF" stroke="none" x="52" y="27" width="168" height="178" transform="matrix(1, 0, 0, 1, 0.5, 0.5)"/><path fill="rgb(255,255,255)" stroke="none" paint-order="stroke" d="M 52.5 27.5 L 220.5 27.5 L 220.5 205.5 L 52.5 205.5 L 52.5 27.5 Z" fill-opacity="1"/><path fill="none" stroke="rgb(229,229,229)" paint-order="fill" d="M 52.5 27.5 L 220.5 27.5 L 220.5 205.5 L 52.5 205.5 L 52.5 27.5 Z" stroke-opacity="1" stroke-linejoin="bevel" stroke-miterlimit="10"/><path fill="none" stroke="rgb(229,229,229)" paint-order="fill" d="M 82.5 205.5 L 82.5 27.5 M 121.5 205.5 L 121.5 27.5 M 160.5 205.5 L 160.5 27.5 M 200.5 205.5 L 200.5 27.5" stroke-opacity="1" stroke-linejoin="bevel" stroke-miterlimit="10" clip-path="url(#vHPodOqoUCsh)"/><path fill="none" stroke="rgb(229,229,229)" paint-order="fill" d="M 52.5 197.5 L 220.5 197.5 M 52.5 173.5 L 220.5 173.5 M 52.5 149.5 L 220.5 149.5 M 52.5 125.5 L 220.5 125.5 M 52.5 101.5 L 220.5 101.5 M 52.5 77.5 L 220.5 77.5 M 52.5 53.5 L 220.5 53.5 M 52.5 29.5 L 220.5 29.5" stroke-opacity="1" stroke-linejoin="bevel" stroke-miterlimit="10" clip-path="url(#wAlcAggNzoJe)"/><path fill="none" stroke="rgb(0,0,0)" paint-order="fill" d="M 85.09882354736328 12.782393455505371 L 85.09882354736328 58.3994255065918" stroke-opacity="1" stroke-linejoin="bevel" stroke-miterlimit="10" clip-path="url(#IZrNqpWfiHPQ)"/><path fill="none" stroke="rgb(0,0,0)" paint-order="fill" d="M 132.9138641357422 59.49309158325195 L 132.9138641357422 82.65867614746094" stroke-opacity="1" stroke-linejoin="bevel" stroke-miterlimit="10" clip-path="url(#IZrNqpWfiHPQ)"/><path fill="none" stroke="rgb(0,0,0)" paint-order="fill" d="M 180.72891235351562 87.03437805175781 L 180.72891235351562 118.0619125366211" stroke-opacity="1" stroke-linejoin="bevel" stroke-miterlimit="10" clip-path="url(#IZrNqpWfiHPQ)"/><path fill="none" stroke="rgb(0,0,0)" paint-order="fill" d="" stroke-opacity="1" stroke-linejoin="bevel" stroke-miterlimit="10" clip-path="url(#IZrNqpWfiHPQ)"/><path fill="none" stroke="rgb(0,0,0)" paint-order="fill" d="M 80.09882354736328 12.782393455505371 L 90.09882354736328 12.782393455505371" stroke-opacity="1" stroke-linejoin="bevel" stroke-miterlimit="10" clip-path="url(#IZrNqpWfiHPQ)"/><path fill="none" stroke="rgb(0,0,0)" paint-order="fill" d="M 127.91386413574219 59.49309158325195 L 137.9138641357422 59.49309158325195" stroke-opacity="1" stroke-linejoin="bevel" stroke-miterlimit="10" clip-path="url(#IZrNqpWfiHPQ)"/><path fill="none" stroke="rgb(0,0,0)" paint-order="fill" d="M 175.72891235351562 87.03437805175781 L 185.72891235351562 87.03437805175781" stroke-opacity="1" stroke-linejoin="bevel" stroke-miterlimit="10" clip-path="url(#IZrNqpWfiHPQ)"/><path fill="none" stroke="rgb(0,0,0)" paint-order="fill" d="M -4.5 0.5000000000000007 L 5.5 0.4999999999999994" stroke-opacity="1" stroke-linejoin="bevel" stroke-miterlimit="10" clip-path="url(#IZrNqpWfiHPQ)"/><path fill="none" stroke="rgb(0,0,0)" paint-order="fill" d="M 90.09882354736328 58.3994255065918 L 80.09882354736328 58.3994255065918" stroke-opacity="1" stroke-linejoin="bevel" stroke-miterlimit="10" clip-path="url(#IZrNqpWfiHPQ)"/><path fill="none" stroke="rgb(0,0,0)" paint-order="fill" d="M 137.9138641357422 82.65867614746094 L 127.91386413574219 82.65867614746094" stroke-opacity="1" stroke-linejoin="bevel" stroke-miterlimit="10" clip-path="url(#IZrNqpWfiHPQ)"/><path fill="none" stroke="rgb(0,0,0)" paint-order="fill" d="M 185.72891235351562 118.0619125366211 L 175.72891235351562 118.0619125366211" stroke-opacity="1" stroke-linejoin="bevel" stroke-miterlimit="10" clip-path="url(#IZrNqpWfiHPQ)"/><path fill="none" stroke="rgb(0,0,0)" paint-order="fill" d="M 5.5 0.5 L -4.5 0.5" stroke-opacity="1" stroke-linejoin="bevel" stroke-miterlimit="10" clip-path="url(#IZrNqpWfiHPQ)"/><path fill="rgb(128,128,128)" stroke="none" paint-order="stroke" d="M 61.19129943847656 35.590911865234375 L 204.63644409179688 35.590911865234375 L 204.63644409179688 197.40908813476562 L 61.19129943847656 197.40908813476562 L 61.19129943847656 35.590911865234375 Z" fill-opacity="0.10196078431372549" clip-path="url(#hKPmdzXCDDqu)"/><path fill="url(#lBAeSumkPgKT)" stroke="rgb(0,0,0)" paint-order="fill" d="M 61.19129943847656 35.590911865234375 L 204.63644409179688 35.590911865234375 L 204.63644409179688 197.40908813476562 L 61.19129943847656 197.40908813476562 L 61.19129943847656 35.590911865234375 Z" clip-path="url(#hKPmdzXCDDqu)" stroke-opacity="0.2" stroke-linejoin="bevel" stroke-miterlimit="10"/><path fill="rgb(100,149,237)" stroke="rgb(31,119,180)" paint-order="fill" d="M 61.19129943847656 35.59090805053711 L 109.00634765625 35.59090805053711 L 109.00634765625 197.40908813476562 L 61.19129943847656 197.40908813476562 L 61.19129943847656 35.59090805053711 Z" fill-opacity="0.5019607843137255" clip-path="url(#kNgTBAartuKl)" stroke-opacity="0.5019607843137255" stroke-linejoin="bevel" stroke-miterlimit="10"/><path fill="rgb(100,149,237)" stroke="rgb(31,119,180)" paint-order="fill" d="M 109.00634002685547 71.07588195800781 L 156.82138061523438 71.07588195800781 L 156.82138061523438 197.40908813476562 L 109.00634002685547 197.40908813476562 L 109.00634002685547 71.07588195800781 Z" fill-opacity="0.5019607843137255" clip-path="url(#kNgTBAartuKl)" stroke-opacity="0.5019607843137255" stroke-linejoin="bevel" stroke-miterlimit="10"/><path fill="rgb(100,149,237)" stroke="rgb(31,119,180)" paint-order="fill" d="M 156.82138061523438 102.54814147949219 L 204.63644409179688 102.54814147949219 L 204.63644409179688 197.40908813476562 L 156.82138061523438 197.40908813476562 L 156.82138061523438 102.54814147949219 Z" fill-opacity="0.5019607843137255" clip-path="url(#kNgTBAartuKl)" stroke-opacity="0.5019607843137255" stroke-linejoin="bevel" stroke-miterlimit="10"/><path fill="rgb(100,149,237)" stroke="rgb(31,119,180)" paint-order="fill" d="M 204.63644409179688 197.40908813476562 L 220.5 197.40908813476562 L 220.5 197.40908813476562 L 204.63644409179688 197.40908813476562 L 204.63644409179688 197.40908813476562 Z" fill-opacity="0.5019607843137255" clip-path="url(#kNgTBAartuKl)" stroke-opacity="0.5019607843137255" stroke-linejoin="bevel" stroke-miterlimit="10"/><path fill="none" stroke="rgb(0,0,0)" paint-order="fill" d="M 52.5 205.5 L 220.5 205.5" stroke-opacity="1" stroke-linejoin="bevel" stroke-miterlimit="10"/><path fill="none" stroke="rgb(0,0,0)" paint-order="fill" d="M 82.5 211.5 L 82.5 203.5 M 121.5 211.5 L 121.5 203.5 M 160.5 211.5 L 160.5 203.5 M 200.5 211.5 L 200.5 203.5" stroke-opacity="1" stroke-linejoin="bevel" stroke-miterlimit="10"/><path fill="none" stroke="rgb(0,0,0)" paint-order="fill" d="M 74.5 209.5 L 74.5 205.5 M 67.5 209.5 L 67.5 205.5 M 59.5 209.5 L 59.5 205.5 M 82.5 209.5 L 82.5 205.5 M 90.5 209.5 L 90.5 205.5 M 98.5 209.5 L 98.5 205.5 M 106.5 209.5 L 106.5 205.5 M 114.5 209.5 L 114.5 205.5 M 121.5 209.5 L 121.5 205.5 M 129.5 209.5 L 129.5 205.5 M 137.5 209.5 L 137.5 205.5 M 145.5 209.5 L 145.5 205.5 M 153.5 209.5 L 153.5 205.5 M 160.5 209.5 L 160.5 205.5 M 168.5 209.5 L 168.5 205.5 M 176.5 209.5 L 176.5 205.5 M 184.5 209.5 L 184.5 205.5 M 192.5 209.5 L 192.5 205.5 M 200.5 209.5 L 200.5 205.5 M 207.5 209.5 L 207.5 205.5 M 215.5 209.5 L 215.5 205.5" stroke-opacity="1" stroke-linejoin="bevel" stroke-miterlimit="10"/><text fill="rgb(68,68,68)" stroke="none" font-family="helvetica" font-size="11px" font-style="normal" font-weight="normal" text-decoration="normal" x="71.61137390136719" y="224" text-anchor="start" dominant-baseline="alphabetic" transform="matrix(1, 0, 0, 1, 0.5, 0.5)" fill-opacity="1">0.25</text><text fill="none" stroke="rgb(0,0,0)" font-family="helvetica" font-size="11px" font-style="normal" font-weight="normal" text-decoration="normal" x="71.61137390136719" y="224" text-anchor="start" dominant-baseline="alphabetic" transform="matrix(1, 0, 0, 1, 0.5, 0.5)" stroke-opacity="0" stroke-linejoin="bevel" stroke-miterlimit="10">0.25</text><text fill="rgb(68,68,68)" stroke="none" font-family="helvetica" font-size="11px" font-style="normal" font-weight="normal" text-decoration="normal" x="113.76033782958984" y="224" text-anchor="start" dominant-baseline="alphabetic" transform="matrix(1, 0, 0, 1, 0.5, 0.5)" fill-opacity="1">0.3</text><text fill="none" stroke="rgb(0,0,0)" font-family="helvetica" font-size="11px" font-style="normal" font-weight="normal" text-decoration="normal" x="113.76033782958984" y="224" text-anchor="start" dominant-baseline="alphabetic" transform="matrix(1, 0, 0, 1, 0.5, 0.5)" stroke-opacity="0" stroke-linejoin="bevel" stroke-miterlimit="10">0.3</text><text fill="rgb(68,68,68)" stroke="none" font-family="helvetica" font-size="11px" font-style="normal" font-weight="normal" text-decoration="normal" x="149.7916259765625" y="224" text-anchor="start" dominant-baseline="alphabetic" transform="matrix(1, 0, 0, 1, 0.5, 0.5)" fill-opacity="1">0.35</text><text fill="none" stroke="rgb(0,0,0)" font-family="helvetica" font-size="11px" font-style="normal" font-weight="normal" text-decoration="normal" x="149.7916259765625" y="224" text-anchor="start" dominant-baseline="alphabetic" transform="matrix(1, 0, 0, 1, 0.5, 0.5)" stroke-opacity="0" stroke-linejoin="bevel" stroke-miterlimit="10">0.35</text><text fill="rgb(68,68,68)" stroke="none" font-family="helvetica" font-size="11px" font-style="normal" font-weight="normal" text-decoration="normal" x="191.9405975341797" y="224" text-anchor="start" dominant-baseline="alphabetic" transform="matrix(1, 0, 0, 1, 0.5, 0.5)" fill-opacity="1">0.4</text><text fill="none" stroke="rgb(0,0,0)" font-family="helvetica" font-size="11px" font-style="normal" font-weight="normal" text-decoration="normal" x="191.9405975341797" y="224" text-anchor="start" dominant-baseline="alphabetic" transform="matrix(1, 0, 0, 1, 0.5, 0.5)" stroke-opacity="0" stroke-linejoin="bevel" stroke-miterlimit="10">0.4</text><text fill="rgb(68,68,68)" stroke="none" font-family="helvetica" font-size="13px" font-style="italic" font-weight="normal" text-decoration="normal" x="117.214111328125" y="244" text-anchor="start" dominant-baseline="alphabetic" transform="matrix(1, 0, 0, 1, 0.5, 0.5)" fill-opacity="1">thkcas</text><text fill="none" stroke="rgb(0,0,0)" font-family="helvetica" font-size="13px" font-style="italic" font-weight="normal" text-decoration="normal" x="117.214111328125" y="244" text-anchor="start" dominant-baseline="alphabetic" transform="matrix(1, 0, 0, 1, 0.5, 0.5)" stroke-opacity="0" stroke-linejoin="bevel" stroke-miterlimit="10">thkcas</text><path fill="none" stroke="rgb(0,0,0)" paint-order="fill" d="M 52.5 205.5 L 52.5 27.5" stroke-opacity="1" stroke-linejoin="bevel" stroke-miterlimit="10"/><path fill="none" stroke="rgb(0,0,0)" paint-order="fill" d="M 46.5 197.5 L 54.5 197.5 M 46.5 173.5 L 54.5 173.5 M 46.5 149.5 L 54.5 149.5 M 46.5 125.5 L 54.5 125.5 M 46.5 101.5 L 54.5 101.5 M 46.5 77.5 L 54.5 77.5 M 46.5 53.5 L 54.5 53.5 M 46.5 29.5 L 54.5 29.5" stroke-opacity="1" stroke-linejoin="bevel" stroke-miterlimit="10"/><path fill="none" stroke="rgb(0,0,0)" paint-order="fill" d="M 48.5 202.5 L 52.5 202.5 M 48.5 197.5 L 52.5 197.5 M 48.5 192.5 L 52.5 192.5 M 48.5 187.5 L 52.5 187.5 M 48.5 183.5 L 52.5 183.5 M 48.5 178.5 L 52.5 178.5 M 48.5 173.5 L 52.5 173.5 M 48.5 168.5 L 52.5 168.5 M 48.5 163.5 L 52.5 163.5 M 48.5 159.5 L 52.5 159.5 M 48.5 154.5 L 52.5 154.5 M 48.5 149.5 L 52.5 149.5 M 48.5 144.5 L 52.5 144.5 M 48.5 139.5 L 52.5 139.5 M 48.5 134.5 L 52.5 134.5 M 48.5 130.5 L 52.5 130.5 M 48.5 125.5 L 52.5 125.5 M 48.5 120.5 L 52.5 120.5 M 48.5 115.5 L 52.5 115.5 M 48.5 110.5 L 52.5 110.5 M 48.5 106.5 L 52.5 106.5 M 48.5 101.5 L 52.5 101.5 M 48.5 96.5 L 52.5 96.5 M 48.5 91.5 L 52.5 91.5 M 48.5 86.5 L 52.5 86.5 M 48.5 82.5 L 52.5 82.5 M 48.5 77.5 L 52.5 77.5 M 48.5 72.5 L 52.5 72.5 M 48.5 67.5 L 52.5 67.5 M 48.5 62.5 L 52.5 62.5 M 48.5 58.5 L 52.5 58.5 M 48.5 53.5 L 52.5 53.5 M 48.5 48.5 L 52.5 48.5 M 48.5 43.5 L 52.5 43.5 M 48.5 38.5 L 52.5 38.5 M 48.5 34.5 L 52.5 34.5 M 48.5 29.5 L 52.5 29.5" stroke-opacity="1" stroke-linejoin="bevel" stroke-miterlimit="10"/><text fill="rgb(68,68,68)" stroke="none" font-family="helvetica" font-size="11px" font-style="normal" font-weight="normal" text-decoration="normal" x="34.88232421875" y="200.90908813476562" text-anchor="start" dominant-baseline="alphabetic" transform="matrix(1, 0, 0, 1, 0.5, 0.5)" fill-opacity="1">0</text><text fill="none" stroke="rgb(0,0,0)" font-family="helvetica" font-size="11px" font-style="normal" font-weight="normal" text-decoration="normal" x="34.88232421875" y="200.90908813476562" text-anchor="start" dominant-baseline="alphabetic" transform="matrix(1, 0, 0, 1, 0.5, 0.5)" stroke-opacity="0" stroke-linejoin="bevel" stroke-miterlimit="10">0</text><text fill="rgb(68,68,68)" stroke="none" font-family="helvetica" font-size="11px" font-style="normal" font-weight="normal" text-decoration="normal" x="25.70849609375" y="176.90472412109375" text-anchor="start" dominant-baseline="alphabetic" transform="matrix(1, 0, 0, 1, 0.5, 0.5)" fill-opacity="1">0.1</text><text fill="none" stroke="rgb(0,0,0)" font-family="helvetica" font-size="11px" font-style="normal" font-weight="normal" text-decoration="normal" x="25.70849609375" y="176.90472412109375" text-anchor="start" dominant-baseline="alphabetic" transform="matrix(1, 0, 0, 1, 0.5, 0.5)" stroke-opacity="0" stroke-linejoin="bevel" stroke-miterlimit="10">0.1</text><text fill="rgb(68,68,68)" stroke="none" font-family="helvetica" font-size="11px" font-style="normal" font-weight="normal" text-decoration="normal" x="25.70849609375" y="152.90036010742188" text-anchor="start" dominant-baseline="alphabetic" transform="matrix(1, 0, 0, 1, 0.5, 0.5)" fill-opacity="1">0.2</text><text fill="none" stroke="rgb(0,0,0)" font-family="helvetica" font-size="11px" font-style="normal" font-weight="normal" text-decoration="normal" x="25.70849609375" y="152.90036010742188" text-anchor="start" dominant-baseline="alphabetic" transform="matrix(1, 0, 0, 1, 0.5, 0.5)" stroke-opacity="0" stroke-linejoin="bevel" stroke-miterlimit="10">0.2</text><text fill="rgb(68,68,68)" stroke="none" font-family="helvetica" font-size="11px" font-style="normal" font-weight="normal" text-decoration="normal" x="25.70849609375" y="128.89600372314453" text-anchor="start" dominant-baseline="alphabetic" transform="matrix(1, 0, 0, 1, 0.5, 0.5)" fill-opacity="1">0.3</text><text fill="none" stroke="rgb(0,0,0)" font-family="helvetica" font-size="11px" font-style="normal" font-weight="normal" text-decoration="normal" x="25.70849609375" y="128.89600372314453" text-anchor="start" dominant-baseline="alphabetic" transform="matrix(1, 0, 0, 1, 0.5, 0.5)" stroke-opacity="0" stroke-linejoin="bevel" stroke-miterlimit="10">0.3</text><text fill="rgb(68,68,68)" stroke="none" font-family="helvetica" font-size="11px" font-style="normal" font-weight="normal" text-decoration="normal" x="25.70849609375" y="104.89163970947266" text-anchor="start" dominant-baseline="alphabetic" transform="matrix(1, 0, 0, 1, 0.5, 0.5)" fill-opacity="1">0.4</text><text fill="none" stroke="rgb(0,0,0)" font-family="helvetica" font-size="11px" font-style="normal" font-weight="normal" text-decoration="normal" x="25.70849609375" y="104.89163970947266" text-anchor="start" dominant-baseline="alphabetic" transform="matrix(1, 0, 0, 1, 0.5, 0.5)" stroke-opacity="0" stroke-linejoin="bevel" stroke-miterlimit="10">0.4</text><text fill="rgb(68,68,68)" stroke="none" font-family="helvetica" font-size="11px" font-style="normal" font-weight="normal" text-decoration="normal" x="25.70849609375" y="80.88727569580078" text-anchor="start" dominant-baseline="alphabetic" transform="matrix(1, 0, 0, 1, 0.5, 0.5)" fill-opacity="1">0.5</text><text fill="none" stroke="rgb(0,0,0)" font-family="helvetica" font-size="11px" font-style="normal" font-weight="normal" text-decoration="normal" x="25.70849609375" y="80.88727569580078" text-anchor="start" dominant-baseline="alphabetic" transform="matrix(1, 0, 0, 1, 0.5, 0.5)" stroke-opacity="0" stroke-linejoin="bevel" stroke-miterlimit="10">0.5</text><text fill="rgb(68,68,68)" stroke="none" font-family="helvetica" font-size="11px" font-style="normal" font-weight="normal" text-decoration="normal" x="25.70849609375" y="56.882911682128906" text-anchor="start" dominant-baseline="alphabetic" transform="matrix(1, 0, 0, 1, 0.5, 0.5)" fill-opacity="1">0.6</text><text fill="none" stroke="rgb(0,0,0)" font-family="helvetica" font-size="11px" font-style="normal" font-weight="normal" text-decoration="normal" x="25.70849609375" y="56.882911682128906" text-anchor="start" dominant-baseline="alphabetic" transform="matrix(1, 0, 0, 1, 0.5, 0.5)" stroke-opacity="0" stroke-linejoin="bevel" stroke-miterlimit="10">0.6</text><text fill="rgb(68,68,68)" stroke="none" font-family="helvetica" font-size="11px" font-style="normal" font-weight="normal" text-decoration="normal" x="25.70849609375" y="32.878549575805664" text-anchor="start" dominant-baseline="alphabetic" transform="matrix(1, 0, 0, 1, 0.5, 0.5)" fill-opacity="1">0.7</text><text fill="none" stroke="rgb(0,0,0)" font-family="helvetica" font-size="11px" font-style="normal" font-weight="normal" text-decoration="normal" x="25.70849609375" y="32.878549575805664" text-anchor="start" dominant-baseline="alphabetic" transform="matrix(1, 0, 0, 1, 0.5, 0.5)" stroke-opacity="0" stroke-linejoin="bevel" stroke-miterlimit="10">0.7</text><text fill="rgb(68,68,68)" stroke="none" font-family="helvetica" font-size="13px" font-style="italic" font-weight="normal" text-decoration="normal" x="-47.31689453125" y="113" text-anchor="start" dominant-baseline="alphabetic" transform="matrix(6.123233995736766e-17, -1, 1, 6.123233995736766e-17, -97.79150390625, 134.20849609375)" fill-opacity="1">Normalised Probability</text><text fill="none" stroke="rgb(0,0,0)" font-family="helvetica" font-size="13px" font-style="italic" font-weight="normal" text-decoration="normal" x="-47.31689453125" y="113" text-anchor="start" dominant-baseline="alphabetic" transform="matrix(6.123233995736766e-17, -1, 1, 6.123233995736766e-17, -97.79150390625, 134.20849609375)" stroke-opacity="0" stroke-linejoin="bevel" stroke-miterlimit="10">Normalised Probability</text><path fill="rgb(255,249,186)" stroke="rgb(255,0,0)" paint-order="fill" d="M 126.78166247902371 35.59090909090909 L 126.78166247902371 35.59090909090909 L 126.78166247902371 197.4090909090909 L 126.78166247902371 197.4090909090909 L 126.78166247902371 35.59090909090909 Z" fill-opacity="0.4" clip-path="url(#qzuRRzQDhulu)" stroke-opacity="1" stroke-linejoin="bevel" stroke-miterlimit="10" stroke-width="2" stroke-dasharray="6"/><path fill="rgb(255,249,186)" stroke="rgb(50,205,50)" paint-order="fill" d="M 85.09882357321027 35.59090909090909 L 85.09882357321027 35.59090909090909 L 85.09882357321027 197.4090909090909 L 85.09882357321027 197.4090909090909 L 85.09882357321027 35.59090909090909 Z" fill-opacity="0.4" clip-path="url(#vrAwnsEgzkXU)" stroke-opacity="1" stroke-linejoin="bevel" stroke-miterlimit="10" stroke-width="2" stroke-dasharray="6"/><text fill="rgb(68,68,68)" stroke="none" font-family="helvetica" font-size="13px" font-style="normal" font-weight="bold" text-decoration="normal" x="52" y="19" text-anchor="start" dominant-baseline="alphabetic" transform="matrix(1, 0, 0, 1, 0.5, 0.5)" fill-opacity="1">Convergance Probability</text><text fill="none" stroke="rgb(0,0,0)" font-family="helvetica" font-size="13px" font-style="normal" font-weight="bold" text-decoration="normal" x="52" y="19" text-anchor="start" dominant-baseline="alphabetic" transform="matrix(1, 0, 0, 1, 0.5, 0.5)" stroke-opacity="0" stroke-miterlimit="10" stroke-dasharray="">Convergance Probability</text></svg>