<svg version="1.1" xmlns="http://www.w3.org/2000/svg" width="250" height="250"><defs><clipPath id="fzBqtebHgvUF"><path fill="none" stroke="none" d="M 52.5 27.5 L 220.5 27.5 L 220.5 205.5 L 52.5 205.5 L 52.5 27.5 Z"/></clipPath><clipPath id="OomGKXRcptWa"><path fill="none" stroke="none" d="M 52.5 27.5 L 220.5 27.5 L 220.5 205.5 L 52.5 205.5 L 52.5 27.5 Z"/></clipPath><clipPath id="xrHSgfgaZdKb"><path fill="none" stroke="none" d="M 52.5 27.5 L 220.5 27.5 L 220.5 205.5 L 52.5 205.5 L 52.5 27.5 Z"/></clipPath><clipPath id="hQkMmufkmSXp"><path fill="none" stroke="none" d="M 52.5 27.5 L 220.5 27.5 L 220.5 205.5 L 52.5 205.5 L 52.5 27.5 Z"/></clipPath><pattern id="JIsySNWTkgzt" width="3" height="3" patternUnits="userSpaceOnUse"><path fill="rgb(0,0,0)" stroke="none" paint-order="stroke" d="M 2.75 2 A 0.75 0.75 0 0 0 1.25 2 A 0.75 0.75 0 0 0 2.75 2" fill-opacity="0.14901960784313725"/></pattern><clipPath id="iMiaTxTLnTXX"><path fill="none" stroke="none" d="M 52.5 27.5 L 220.5 27.5 L 220.5 205.5 L 52.5 205.5 L 52.5 27.5 Z"/></clipPath><clipPath id="MAEtWrkUlQyv"><path fill="none" stroke="none" d="M 52.5 27.5 L 220.5 27.5 L 220.5 205.5 L 52.5 205.5 L 52.5 27.5 Z"/></clipPath><clipPath id="SVkTfffnSLeM"><path fill="none" stroke="none" d="M 52.5 27.5 L 220.5 27.5 L 220.5 205.5 L 52.5 205.5 L 52.5 27.5 Z"/></clipPath><clipPath id="yGpamEATSBhO"><path fill="none" stroke="none" d="M 52.5 27.5 L 220.5 27.5 L 220.5 205.5 L 52.5 205.5 L 52.5 27.5 Z"/></clipPath></defs><path fill="rgb(255,255,255)" stroke="none" paint-order="stroke" d="M 0.5 0.5 L 250.5 0.5 L 250.5 250.5 L 0.5 250.5 L 0.5 0.5 Z" fill-opacity="1"/><rect fill="#FFFFFF" stroke="none" x="52" y="27" width="168" height="178" transform="matrix(1, 0, 0, 1, 0.5, 0.5)"/><path fill="rgb(255,255,255)" stroke="none" paint-order="stroke" d="M 52.5 27.5 L 220.5 27.5 L 220.5 205.5 L 52.5 205.5 L 52.5 27.5 Z" fill-opacity="1"/><path fill="none" stroke="rgb(229,229,229)" paint-order="fill" d="M 52.5 27.5 L 220.5 27.5 L 220.5 205.5 L 52.5 205.5 L 52.5 27.5 Z" stroke-opacity="1" stroke-linejoin="bevel" stroke-miterlimit="10"/><path fill="none" stroke="rgb(229,229,229)" paint-order="fill" d="M 59.5 205.5 L 59.5 27.5 M 105.5 205.5 L 105.5 27.5 M 151.5 205.5 L 151.5 27.5 M 198.5 205.5 L 198.5 27.5" stroke-opacity="1" stroke-linejoin="bevel" stroke-miterlimit="10" clip-path="url(#fzBqtebHgvUF)"/><path fill="none" stroke="rgb(229,229,229)" paint-order="fill" d="M 52.5 197.5 L 220.5 197.5 M 52.5 174.5 L 220.5 174.5 M 52.5 150.5 L 220.5 150.5 M 52.5 127.5 L 220.5 127.5 M 52.5 103.5 L 220.5 103.5 M 52.5 80.5 L 220.5 80.5 M 52.5 56.5 L 220.5 56.5 M 52.5 33.5 L 220.5 33.5" stroke-opacity="1" stroke-linejoin="bevel" stroke-miterlimit="10" clip-path="url(#OomGKXRcptWa)"/><path fill="none" stroke="rgb(0,0,0)" paint-order="fill" d="M 74.11144256591797 186.00025939941406 L 74.11144256591797 188.3683624267578" stroke-opacity="1" stroke-linejoin="bevel" stroke-miterlimit="10" clip-path="url(#xrHSgfgaZdKb)"/><path fill="none" stroke="rgb(0,0,0)" paint-order="fill" d="M 103.47076416015625 134.36314392089844 L 103.47076416015625 156.7109832763672" stroke-opacity="1" stroke-linejoin="bevel" stroke-miterlimit="10" clip-path="url(#xrHSgfgaZdKb)"/><path fill="none" stroke="rgb(0,0,0)" paint-order="fill" d="M 132.830078125 103.20423889160156 L 132.830078125 139.7030029296875" stroke-opacity="1" stroke-linejoin="bevel" stroke-miterlimit="10" clip-path="url(#xrHSgfgaZdKb)"/><path fill="none" stroke="rgb(0,0,0)" paint-order="fill" d="M 162.1894073486328 75.93138885498047 L 162.1894073486328 121.96519470214844" stroke-opacity="1" stroke-linejoin="bevel" stroke-miterlimit="10" clip-path="url(#xrHSgfgaZdKb)"/><path fill="none" stroke="rgb(0,0,0)" paint-order="fill" d="M 191.54872131347656 -2.72170352935791 L 191.54872131347656 73.90351867675781" stroke-opacity="1" stroke-linejoin="bevel" stroke-miterlimit="10" clip-path="url(#xrHSgfgaZdKb)"/><path fill="none" stroke="rgb(0,0,0)" paint-order="fill" d="" stroke-opacity="1" stroke-linejoin="bevel" stroke-miterlimit="10" clip-path="url(#xrHSgfgaZdKb)"/><path fill="none" stroke="rgb(0,0,0)" paint-order="fill" d="M 69.11144256591797 186.00025939941406 L 79.11144256591797 186.00025939941406" stroke-opacity="1" stroke-linejoin="bevel" stroke-miterlimit="10" clip-path="url(#xrHSgfgaZdKb)"/><path fill="none" stroke="rgb(0,0,0)" paint-order="fill" d="M 98.47076416015625 134.36314392089844 L 108.47076416015625 134.36314392089844" stroke-opacity="1" stroke-linejoin="bevel" stroke-miterlimit="10" clip-path="url(#xrHSgfgaZdKb)"/><path fill="none" stroke="rgb(0,0,0)" paint-order="fill" d="M 127.830078125 103.20423889160156 L 137.830078125 103.20423889160156" stroke-opacity="1" stroke-linejoin="bevel" stroke-miterlimit="10" clip-path="url(#xrHSgfgaZdKb)"/><path fill="none" stroke="rgb(0,0,0)" paint-order="fill" d="M 157.1894073486328 75.93138885498047 L 167.1894073486328 75.93138885498047" stroke-opacity="1" stroke-linejoin="bevel" stroke-miterlimit="10" clip-path="url(#xrHSgfgaZdKb)"/><path fill="none" stroke="rgb(0,0,0)" paint-order="fill" d="M 186.54872131347656 -2.7217035293579097 L 196.54872131347656 -2.7217035293579106" stroke-opacity="1" stroke-linejoin="bevel" stroke-miterlimit="10" clip-path="url(#xrHSgfgaZdKb)"/><path fill="none" stroke="rgb(0,0,0)" paint-order="fill" d="M -4.5 0.5000000000000007 L 5.5 0.4999999999999994" stroke-opacity="1" stroke-linejoin="bevel" stroke-miterlimit="10" clip-path="url(#xrHSgfgaZdKb)"/><path fill="none" stroke="rgb(0,0,0)" paint-order="fill" d="M 79.11144256591797 188.3683624267578 L 69.11144256591797 188.3683624267578" stroke-opacity="1" stroke-linejoin="bevel" stroke-miterlimit="10" clip-path="url(#xrHSgfgaZdKb)"/><path fill="none" stroke="rgb(0,0,0)" paint-order="fill" d="M 108.47076416015625 156.7109832763672 L 98.47076416015625 156.7109832763672" stroke-opacity="1" stroke-linejoin="bevel" stroke-miterlimit="10" clip-path="url(#xrHSgfgaZdKb)"/><path fill="none" stroke="rgb(0,0,0)" paint-order="fill" d="M 137.830078125 139.7030029296875 L 127.830078125 139.7030029296875" stroke-opacity="1" stroke-linejoin="bevel" stroke-miterlimit="10" clip-path="url(#xrHSgfgaZdKb)"/><path fill="none" stroke="rgb(0,0,0)" paint-order="fill" d="M 167.1894073486328 121.96519470214844 L 157.1894073486328 121.96519470214844" stroke-opacity="1" stroke-linejoin="bevel" stroke-miterlimit="10" clip-path="url(#xrHSgfgaZdKb)"/><path fill="none" stroke="rgb(0,0,0)" paint-order="fill" d="M 196.54872131347656 73.90351867675781 L 186.54872131347656 73.90351867675781" stroke-opacity="1" stroke-linejoin="bevel" stroke-miterlimit="10" clip-path="url(#xrHSgfgaZdKb)"/><path fill="none" stroke="rgb(0,0,0)" paint-order="fill" d="M 5.5 0.5 L -4.5 0.5" stroke-opacity="1" stroke-linejoin="bevel" stroke-miterlimit="10" clip-path="url(#xrHSgfgaZdKb)"/><path fill="rgb(128,128,128)" stroke="none" paint-order="stroke" d="M 59.43177795410156 35.590911865234375 L 206.2283935546875 35.590911865234375 L 206.2283935546875 197.40908813476562 L 59.43177795410156 197.40908813476562 L 59.43177795410156 35.590911865234375 Z" fill-opacity="0.10196078431372549" clip-path="url(#hQkMmufkmSXp)"/><path fill="url(#JIsySNWTkgzt)" stroke="rgb(0,0,0)" paint-order="fill" d="M 59.43177795410156 35.590911865234375 L 206.2283935546875 35.590911865234375 L 206.2283935546875 197.40908813476562 L 59.43177795410156 197.40908813476562 L 59.43177795410156 35.590911865234375 Z" clip-path="url(#hQkMmufkmSXp)" stroke-opacity="0.2" stroke-linejoin="bevel" stroke-miterlimit="10"/><path fill="rgb(100,149,237)" stroke="rgb(31,119,180)" paint-order="fill" d="M 59.43178176879883 187.18431091308594 L 88.79110717773438 187.18431091308594 L 88.79110717773438 197.40908813476562 L 59.43178176879883 197.40908813476562 L 59.43178176879883 187.18431091308594 Z" fill-opacity="0.5019607843137255" clip-path="url(#iMiaTxTLnTXX)" stroke-opacity="0.5019607843137255" stroke-linejoin="bevel" stroke-miterlimit="10"/><path fill="rgb(100,149,237)" stroke="rgb(31,119,180)" paint-order="fill" d="M 88.79110717773438 145.5370635986328 L 118.15042114257812 145.5370635986328 L 118.15042114257812 197.40908813476562 L 88.79110717773438 197.40908813476562 L 88.79110717773438 145.5370635986328 Z" fill-opacity="0.5019607843137255" clip-path="url(#iMiaTxTLnTXX)" stroke-opacity="0.5019607843137255" stroke-linejoin="bevel" stroke-miterlimit="10"/><path fill="rgb(100,149,237)" stroke="rgb(31,119,180)" paint-order="fill" d="M 118.15042114257812 121.45362091064453 L 147.50973510742188 121.45362091064453 L 147.50973510742188 197.40908813476562 L 118.15042114257812 197.40908813476562 L 118.15042114257812 121.45362091064453 Z" fill-opacity="0.5019607843137255" clip-path="url(#iMiaTxTLnTXX)" stroke-opacity="0.5019607843137255" stroke-linejoin="bevel" stroke-miterlimit="10"/><path fill="rgb(100,149,237)" stroke="rgb(31,119,180)" paint-order="fill" d="M 147.50975036621094 98.94829559326172 L 176.8690643310547 98.94829559326172 L 176.8690643310547 197.40908813476562 L 147.50975036621094 197.40908813476562 L 147.50975036621094 98.94829559326172 Z" fill-opacity="0.5019607843137255" clip-path="url(#iMiaTxTLnTXX)" stroke-opacity="0.5019607843137255" stroke-linejoin="bevel" stroke-miterlimit="10"/><path fill="rgb(100,149,237)" stroke="rgb(31,119,180)" paint-order="fill" d="M 176.8690643310547 35.59090805053711 L 206.22837829589844 35.59090805053711 L 206.22837829589844 197.40908813476562 L 176.8690643310547 197.40908813476562 L 176.8690643310547 35.59090805053711 Z" fill-opacity="0.5019607843137255" clip-path="url(#iMiaTxTLnTXX)" stroke-opacity="0.5019607843137255" stroke-linejoin="bevel" stroke-miterlimit="10"/><path fill="rgb(100,149,237)" stroke="rgb(31,119,180)" paint-order="fill" d="M 206.2283935546875 197.40908813476562 L 220.5 197.40908813476562 L 220.5 197.40908813476562 L 206.2283935546875 197.40908813476562 L 206.2283935546875 197.40908813476562 Z" fill-opacity="0.5019607843137255" clip-path="url(#iMiaTxTLnTXX)" stroke-opacity="0.5019607843137255" stroke-linejoin="bevel" stroke-miterlimit="10"/><path fill="none" stroke="rgb(0,0,0)" paint-order="fill" d="M 52.5 205.5 L 220.5 205.5" stroke-opacity="1" stroke-linejoin="bevel" stroke-miterlimit="10"/><path fill="none" stroke="rgb(0,0,0)" paint-order="fill" d="M 59.5 211.5 L 59.5 203.5 M 105.5 211.5 L 105.5 203.5 M 151.5 211.5 L 151.5 203.5 M 198.5 211.5 L 198.5 203.5" stroke-opacity="1" stroke-linejoin="bevel" stroke-miterlimit="10"/><path fill="none" stroke="rgb(0,0,0)" paint-order="fill" d="M 59.5 209.5 L 59.5 205.5 M 68.5 209.5 L 68.5 205.5 M 77.5 209.5 L 77.5 205.5 M 87.5 209.5 L 87.5 205.5 M 96.5 209.5 L 96.5 205.5 M 105.5 209.5 L 105.5 205.5 M 114.5 209.5 L 114.5 205.5 M 124.5 209.5 L 124.5 205.5 M 133.5 209.5 L 133.5 205.5 M 142.5 209.5 L 142.5 205.5 M 151.5 209.5 L 151.5 205.5 M 161.5 209.5 L 161.5 205.5 M 170.5 209.5 L 170.5 205.5 M 179.5 209.5 L 179.5 205.5 M 188.5 209.5 L 188.5 205.5 M 198.5 209.5 L 198.5 205.5 M 207.5 209.5 L 207.5 205.5 M 216.5 209.5 L 216.5 205.5" stroke-opacity="1" stroke-linejoin="bevel" stroke-miterlimit="10"/><text fill="rgb(68,68,68)" stroke="none" font-family="helvetica" font-size="11px" font-style="normal" font-weight="normal" text-decoration="normal" x="51.28602600097656" y="224" text-anchor="start" dominant-baseline="alphabetic" transform="matrix(1, 0, 0, 1, 0.5, 0.5)" fill-opacity="1">1.5</text><text fill="none" stroke="rgb(0,0,0)" font-family="helvetica" font-size="11px" font-style="normal" font-weight="normal" text-decoration="normal" x="51.28602600097656" y="224" text-anchor="start" dominant-baseline="alphabetic" transform="matrix(1, 0, 0, 1, 0.5, 0.5)" stroke-opacity="0" stroke-linejoin="bevel" stroke-miterlimit="10">1.5</text><text fill="rgb(68,68,68)" stroke="none" font-family="helvetica" font-size="11px" font-style="normal" font-weight="normal" text-decoration="normal" x="102.08480834960938" y="224" text-anchor="start" dominant-baseline="alphabetic" transform="matrix(1, 0, 0, 1, 0.5, 0.5)" fill-opacity="1">2</text><text fill="none" stroke="rgb(0,0,0)" font-family="helvetica" font-size="11px" font-style="normal" font-weight="normal" text-decoration="normal" x="102.08480834960938" y="224" text-anchor="start" dominant-baseline="alphabetic" transform="matrix(1, 0, 0, 1, 0.5, 0.5)" stroke-opacity="0" stroke-linejoin="bevel" stroke-miterlimit="10">2</text><text fill="rgb(68,68,68)" stroke="none" font-family="helvetica" font-size="11px" font-style="normal" font-weight="normal" text-decoration="normal" x="143.7097625732422" y="224" text-anchor="start" dominant-baseline="alphabetic" transform="matrix(1, 0, 0, 1, 0.5, 0.5)" fill-opacity="1">2.5</text><text fill="none" stroke="rgb(0,0,0)" font-family="helvetica" font-size="11px" font-style="normal" font-weight="normal" text-decoration="normal" x="143.7097625732422" y="224" text-anchor="start" dominant-baseline="alphabetic" transform="matrix(1, 0, 0, 1, 0.5, 0.5)" stroke-opacity="0" stroke-linejoin="bevel" stroke-miterlimit="10">2.5</text><text fill="rgb(68,68,68)" stroke="none" font-family="helvetica" font-size="11px" font-style="normal" font-weight="normal" text-decoration="normal" x="194.50852966308594" y="224" text-anchor="start" dominant-baseline="alphabetic" transform="matrix(1, 0, 0, 1, 0.5, 0.5)" fill-opacity="1">3</text><text fill="none" stroke="rgb(0,0,0)" font-family="helvetica" font-size="11px" font-style="normal" font-weight="normal" text-decoration="normal" x="194.50852966308594" y="224" text-anchor="start" dominant-baseline="alphabetic" transform="matrix(1, 0, 0, 1, 0.5, 0.5)" stroke-opacity="0" stroke-linejoin="bevel" stroke-miterlimit="10">3</text><text fill="rgb(68,68,68)" stroke="none" font-family="helvetica" font-size="13px" font-style="italic" font-weight="normal" text-decoration="normal" x="112.155029296875" y="244" text-anchor="start" dominant-baseline="alphabetic" transform="matrix(1, 0, 0, 1, 0.5, 0.5)" fill-opacity="1">tmargoh</text><text fill="none" stroke="rgb(0,0,0)" font-family="helvetica" font-size="13px" font-style="italic" font-weight="normal" text-decoration="normal" x="112.155029296875" y="244" text-anchor="start" dominant-baseline="alphabetic" transform="matrix(1, 0, 0, 1, 0.5, 0.5)" stroke-opacity="0" stroke-linejoin="bevel" stroke-miterlimit="10">tmargoh</text><path fill="none" stroke="rgb(0,0,0)" paint-order="fill" d="M 52.5 205.5 L 52.5 27.5" stroke-opacity="1" stroke-linejoin="bevel" stroke-miterlimit="10"/><path fill="none" stroke="rgb(0,0,0)" paint-order="fill" d="M 46.5 197.5 L 54.5 197.5 M 46.5 174.5 L 54.5 174.5 M 46.5 150.5 L 54.5 150.5 M 46.5 127.5 L 54.5 127.5 M 46.5 103.5 L 54.5 103.5 M 46.5 80.5 L 54.5 80.5 M 46.5 56.5 L 54.5 56.5 M 46.5 33.5 L 54.5 33.5" stroke-opacity="1" stroke-linejoin="bevel" stroke-miterlimit="10"/><path fill="none" stroke="rgb(0,0,0)" paint-order="fill" d="M 48.5 202.5 L 52.5 202.5 M 48.5 197.5 L 52.5 197.5 M 48.5 192.5 L 52.5 192.5 M 48.5 188.5 L 52.5 188.5 M 48.5 183.5 L 52.5 183.5 M 48.5 178.5 L 52.5 178.5 M 48.5 174.5 L 52.5 174.5 M 48.5 169.5 L 52.5 169.5 M 48.5 164.5 L 52.5 164.5 M 48.5 159.5 L 52.5 159.5 M 48.5 155.5 L 52.5 155.5 M 48.5 150.5 L 52.5 150.5 M 48.5 145.5 L 52.5 145.5 M 48.5 141.5 L 52.5 141.5 M 48.5 136.5 L 52.5 136.5 M 48.5 131.5 L 52.5 131.5 M 48.5 127.5 L 52.5 127.5 M 48.5 122.5 L 52.5 122.5 M 48.5 117.5 L 52.5 117.5 M 48.5 113.5 L 52.5 113.5 M 48.5 108.5 L 52.5 108.5 M 48.5 103.5 L 52.5 103.5 M 48.5 99.5 L 52.5 99.5 M 48.5 94.5 L 52.5 94.5 M 48.5 89.5 L 52.5 89.5 M 48.5 85.5 L 52.5 85.5 M 48.5 80.5 L 52.5 80.5 M 48.5 75.5 L 52.5 75.5 M 48.5 71.5 L 52.5 71.5 M 48.5 66.5 L 52.5 66.5 M 48.5 61.5 L 52.5 61.5 M 48.5 56.5 L 52.5 56.5 M 48.5 52.5 L 52.5 52.5 M 48.5 47.5 L 52.5 47.5 M 48.5 42.5 L 52.5 42.5 M 48.5 38.5 L 52.5 38.5 M 48.5 33.5 L 52.5 33.5 M 48.5 28.5 L 52.5 28.5" stroke-opacity="1" stroke-linejoin="bevel" stroke-miterlimit="10"/><text fill="rgb(68,68,68)" stroke="none" font-family="helvetica" font-size="11px" font-style="normal" font-weight="normal" text-decoration="normal" x="34.88232421875" y="200.90908813476562" text-anchor="start" dominant-baseline="alphabetic" transform="matrix(1, 0, 0, 1, 0.5, 0.5)" fill-opacity="1">0</text><text fill="none" stroke="rgb(0,0,0)" font-family="helvetica" font-size="11px" font-style="normal" font-weight="normal" text-decoration="normal" x="34.88232421875" y="200.90908813476562" text-anchor="start" dominant-baseline="alphabetic" transform="matrix(1, 0, 0, 1, 0.5, 0.5)" stroke-opacity="0" stroke-linejoin="bevel" stroke-miterlimit="10">0</text><text fill="rgb(68,68,68)" stroke="none" font-family="helvetica" font-size="11px" font-style="normal" font-weight="normal" text-decoration="normal" x="25.70849609375" y="177.50143432617188" text-anchor="start" dominant-baseline="alphabetic" transform="matrix(1, 0, 0, 1, 0.5, 0.5)" fill-opacity="1">0.5</text><text fill="none" stroke="rgb(0,0,0)" font-family="helvetica" font-size="11px" font-style="normal" font-weight="normal" text-decoration="normal" x="25.70849609375" y="177.50143432617188" text-anchor="start" dominant-baseline="alphabetic" transform="matrix(1, 0, 0, 1, 0.5, 0.5)" stroke-opacity="0" stroke-linejoin="bevel" stroke-miterlimit="10">0.5</text><text fill="rgb(68,68,68)" stroke="none" font-family="helvetica" font-size="11px" font-style="normal" font-weight="normal" text-decoration="normal" x="34.88232421875" y="154.09376525878906" text-anchor="start" dominant-baseline="alphabetic" transform="matrix(1, 0, 0, 1, 0.5, 0.5)" fill-opacity="1">1</text><text fill="none" stroke="rgb(0,0,0)" font-family="helvetica" font-size="11px" font-style="normal" font-weight="normal" text-decoration="normal" x="34.88232421875" y="154.09376525878906" text-anchor="start" dominant-baseline="alphabetic" transform="matrix(1, 0, 0, 1, 0.5, 0.5)" stroke-opacity="0" stroke-linejoin="bevel" stroke-miterlimit="10">1</text><text fill="rgb(68,68,68)" stroke="none" font-family="helvetica" font-size="11px" font-style="normal" font-weight="normal" text-decoration="normal" x="25.70849609375" y="130.68610382080078" text-anchor="start" dominant-baseline="alphabetic" transform="matrix(1, 0, 0, 1, 0.5, 0.5)" fill-opacity="1">1.5</text><text fill="none" stroke="rgb(0,0,0)" font-family="helvetica" font-size="11px" font-style="normal" font-weight="normal" text-decoration="normal" x="25.70849609375" y="130.68610382080078" text-anchor="start" dominant-baseline="alphabetic" transform="matrix(1, 0, 0, 1, 0.5, 0.5)" stroke-opacity="0" stroke-linejoin="bevel" stroke-miterlimit="10">1.5</text><text fill="rgb(68,68,68)" stroke="none" font-family="helvetica" font-size="11px" font-style="normal" font-weight="normal" text-decoration="normal" x="34.88232421875" y="107.2784423828125" text-anchor="start" dominant-baseline="alphabetic" transform="matrix(1, 0, 0, 1, 0.5, 0.5)" fill-opacity="1">2</text><text fill="none" stroke="rgb(0,0,0)" font-family="helvetica" font-size="11px" font-style="normal" font-weight="normal" text-decoration="normal" x="34.88232421875" y="107.2784423828125" text-anchor="start" dominant-baseline="alphabetic" transform="matrix(1, 0, 0, 1, 0.5, 0.5)" stroke-opacity="0" stroke-linejoin="bevel" stroke-miterlimit="10">2</text><text fill="rgb(68,68,68)" stroke="none" font-family="helvetica" font-size="11px" font-style="normal" font-weight="normal" text-decoration="normal" x="25.70849609375" y="83.87078094482422" text-anchor="start" dominant-baseline="alphabetic" transform="matrix(1, 0, 0, 1, 0.5, 0.5)" fill-opacity="1">2.5</text><text fill="none" stroke="rgb(0,0,0)" font-family="helvetica" font-size="11px" font-style="normal" font-weight="normal" text-decoration="normal" x="25.70849609375" y="83.87078094482422" text-anchor="start" dominant-baseline="alphabetic" transform="matrix(1, 0, 0, 1, 0.5, 0.5)" stroke-opacity="0" stroke-linejoin="bevel" stroke-miterlimit="10">2.5</text><text fill="rgb(68,68,68)" stroke="none" font-family="helvetica" font-size="11px" font-style="normal" font-weight="normal" text-decoration="normal" x="34.88232421875" y="60.4631233215332" text-anchor="start" dominant-baseline="alphabetic" transform="matrix(1, 0, 0, 1, 0.5, 0.5)" fill-opacity="1">3</text><text fill="none" stroke="rgb(0,0,0)" font-family="helvetica" font-size="11px" font-style="normal" font-weight="normal" text-decoration="normal" x="34.88232421875" y="60.4631233215332" text-anchor="start" dominant-baseline="alphabetic" transform="matrix(1, 0, 0, 1, 0.5, 0.5)" stroke-opacity="0" stroke-linejoin="bevel" stroke-miterlimit="10">3</text><text fill="rgb(68,68,68)" stroke="none" font-family="helvetica" font-size="11px" font-style="normal" font-weight="normal" text-decoration="normal" x="25.70849609375" y="37.05546188354492" text-anchor="start" dominant-baseline="alphabetic" transform="matrix(1, 0, 0, 1, 0.5, 0.5)" fill-opacity="1">3.5</text><text fill="none" stroke="rgb(0,0,0)" font-family="helvetica" font-size="11px" font-style="normal" font-weight="normal" text-decoration="normal" x="25.70849609375" y="37.05546188354492" text-anchor="start" dominant-baseline="alphabetic" transform="matrix(1, 0, 0, 1, 0.5, 0.5)" stroke-opacity="0" stroke-linejoin="bevel" stroke-miterlimit="10">3.5</text><text fill="rgb(68,68,68)" stroke="none" font-family="helvetica" font-size="13px" font-style="italic" font-weight="normal" text-decoration="normal" x="-47.31689453125" y="113" text-anchor="start" dominant-baseline="alphabetic" transform="matrix(6.123233995736766e-17, -1, 1, 6.123233995736766e-17, -97.79150390625, 134.20849609375)" fill-opacity="1">Normalised Probability</text><text fill="none" stroke="rgb(0,0,0)" font-family="helvetica" font-size="13px" font-style="italic" font-weight="normal" text-decoration="normal" x="-47.31689453125" y="113" text-anchor="start" dominant-baseline="alphabetic" transform="matrix(6.123233995736766e-17, -1, 1, 6.123233995736766e-17, -97.79150390625, 134.20849609375)" stroke-opacity="0" stroke-linejoin="bevel" stroke-miterlimit="10">Normalised Probability</text><path fill="rgb(255,249,186)" stroke="rgb(255,0,0)" paint-order="fill" d="M 65.65712828136549 35.59090909090909 L 65.65712828136549 35.59090909090909 L 65.65712828136549 197.4090909090909 L 65.65712828136549 197.4090909090909 L 65.65712828136549 35.59090909090909 Z" fill-opacity="0.4" clip-path="url(#MAEtWrkUlQyv)" stroke-opacity="1" stroke-linejoin="bevel" stroke-miterlimit="10" stroke-width="2" stroke-dasharray="6"/><path fill="rgb(255,249,186)" stroke="rgb(50,205,50)" paint-order="fill" d="M 191.54872876110937 35.59090909090909 L 191.54872876110937 35.59090909090909 L 191.54872876110937 197.4090909090909 L 191.54872876110937 197.4090909090909 L 191.54872876110937 35.59090909090909 Z" fill-opacity="0.4" clip-path="url(#SVkTfffnSLeM)" stroke-opacity="1" stroke-linejoin="bevel" stroke-miterlimit="10" stroke-width="2" stroke-dasharray="6"/><text fill="rgb(68,68,68)" stroke="none" font-family="helvetica" font-size="13px" font-style="normal" font-weight="bold" text-decoration="normal" x="52" y="19" text-anchor="start" dominant-baseline="alphabetic" transform="matrix(1, 0, 0, 1, 0.5, 0.5)" fill-opacity="1">Convergance Probability</text><text fill="none" stroke="rgb(0,0,0)" font-family="helvetica" font-size="13px" font-style="normal" font-weight="bold" text-decoration="normal" x="52" y="19" text-anchor="start" dominant-baseline="alphabetic" transform="matrix(1, 0, 0, 1, 0.5, 0.5)" stroke-opacity="0" stroke-miterlimit="10" stroke-dasharray="">Convergance Probability</text></svg>