<svg version="1.1" xmlns="http://www.w3.org/2000/svg" width="275" height="275"><defs><clipPath id="LnCLbSLbRoFw"><path fill="none" stroke="none" d="M 52.5 27.5 L 245.5 27.5 L 245.5 230.5 L 52.5 230.5 L 52.5 27.5 Z"/></clipPath><clipPath id="NcBMrpWpSbSR"><path fill="none" stroke="none" d="M 52.5 27.5 L 245.5 27.5 L 245.5 230.5 L 52.5 230.5 L 52.5 27.5 Z"/></clipPath><clipPath id="sJlXTzkyWSCB"><path fill="none" stroke="none" d="M 52.5 27.5 L 245.5 27.5 L 245.5 230.5 L 52.5 230.5 L 52.5 27.5 Z"/></clipPath><clipPath id="GQpRMGQTZTDt"><path fill="none" stroke="none" d="M 52.5 27.5 L 245.5 27.5 L 245.5 230.5 L 52.5 230.5 L 52.5 27.5 Z"/></clipPath><pattern id="yRzOiZHkLfmL" width="3" height="3" patternUnits="userSpaceOnUse"><path fill="rgb(0,0,0)" stroke="none" paint-order="stroke" d="M 2.75 2 A 0.75 0.75 0 0 0 1.25 2 A 0.75 0.75 0 0 0 2.75 2" fill-opacity="0.14901960784313725"/></pattern><clipPath id="ggymtwAHtQGe"><path fill="none" stroke="none" d="M 52.5 27.5 L 245.5 27.5 L 245.5 230.5 L 52.5 230.5 L 52.5 27.5 Z"/></clipPath><clipPath id="gRuhgPhNSMVX"><path fill="none" stroke="none" d="M 52.5 27.5 L 245.5 27.5 L 245.5 230.5 L 52.5 230.5 L 52.5 27.5 Z"/></clipPath><clipPath id="QiUhBLStNuak"><path fill="none" stroke="none" d="M 52.5 27.5 L 245.5 27.5 L 245.5 230.5 L 52.5 230.5 L 52.5 27.5 Z"/></clipPath><clipPath id="bLAhxzlRAKGR"><path fill="none" stroke="none" d="M 52.5 27.5 L 245.5 27.5 L 245.5 230.5 L 52.5 230.5 L 52.5 27.5 Z"/></clipPath></defs><path fill="rgb(255,255,255)" stroke="none" paint-order="stroke" d="M 0.5 0.5 L 275.5 0.5 L 275.5 275.5 L 0.5 275.5 L 0.5 0.5 Z" fill-opacity="1"/><rect fill="#FFFFFF" stroke="none" x="52" y="27" width="193" height="203" transform="matrix(1, 0, 0, 1, 0.5, 0.5)"/><path fill="rgb(255,255,255)" stroke="none" paint-order="stroke" d="M 52.5 27.5 L 245.5 27.5 L 245.5 230.5 L 52.5 230.5 L 52.5 27.5 Z" fill-opacity="1"/><path fill="none" stroke="rgb(229,229,229)" paint-order="fill" d="M 52.5 27.5 L 245.5 27.5 L 245.5 230.5 L 52.5 230.5 L 52.5 27.5 Z" stroke-opacity="1" stroke-linejoin="bevel" stroke-miterlimit="10"/><path fill="none" stroke="rgb(229,229,229)" paint-order="fill" d="M 67.5 230.5 L 67.5 27.5 M 106.5 230.5 L 106.5 27.5 M 145.5 230.5 L 145.5 27.5 M 183.5 230.5 L 183.5 27.5 M 222.5 230.5 L 222.5 27.5" stroke-opacity="1" stroke-linejoin="bevel" stroke-miterlimit="10" clip-path="url(#LnCLbSLbRoFw)"/><path fill="none" stroke="rgb(229,229,229)" paint-order="fill" d="M 52.5 221.5 L 245.5 221.5 M 52.5 177.5 L 245.5 177.5 M 52.5 133.5 L 245.5 133.5 M 52.5 89.5 L 245.5 89.5 M 52.5 44.5 L 245.5 44.5" stroke-opacity="1" stroke-linejoin="bevel" stroke-miterlimit="10" clip-path="url(#NcBMrpWpSbSR)"/><path fill="none" stroke="rgb(0,0,0)" paint-order="fill" d="M 78.97196197509766 42.151912689208984 L 78.97196197509766 47.154903411865234" stroke-opacity="1" stroke-linejoin="bevel" stroke-miterlimit="10" clip-path="url(#sJlXTzkyWSCB)"/><path fill="none" stroke="rgb(0,0,0)" paint-order="fill" d="M 101.02803802490234 34.76053237915039 L 101.02803802490234 38.69401168823242" stroke-opacity="1" stroke-linejoin="bevel" stroke-miterlimit="10" clip-path="url(#sJlXTzkyWSCB)"/><path fill="none" stroke="rgb(0,0,0)" paint-order="fill" d="M 123.08411407470703 50.92070007324219 L 123.08411407470703 56.545257568359375" stroke-opacity="1" stroke-linejoin="bevel" stroke-miterlimit="10" clip-path="url(#sJlXTzkyWSCB)"/><path fill="none" stroke="rgb(0,0,0)" paint-order="fill" d="M 145.1401824951172 103.73644256591797 L 145.1401824951172 111.02598571777344" stroke-opacity="1" stroke-linejoin="bevel" stroke-miterlimit="10" clip-path="url(#sJlXTzkyWSCB)"/><path fill="none" stroke="rgb(0,0,0)" paint-order="fill" d="M 167.19625854492188 155.61680603027344 L 167.19625854492188 161.8495635986328" stroke-opacity="1" stroke-linejoin="bevel" stroke-miterlimit="10" clip-path="url(#sJlXTzkyWSCB)"/><path fill="none" stroke="rgb(0,0,0)" paint-order="fill" d="M 189.25233459472656 169.2308807373047 L 189.25233459472656 174.9119415283203" stroke-opacity="1" stroke-linejoin="bevel" stroke-miterlimit="10" clip-path="url(#sJlXTzkyWSCB)"/><path fill="none" stroke="rgb(0,0,0)" paint-order="fill" d="M 211.30841064453125 181.0423126220703 L 211.30841064453125 185.57460021972656" stroke-opacity="1" stroke-linejoin="bevel" stroke-miterlimit="10" clip-path="url(#sJlXTzkyWSCB)"/><path fill="none" stroke="rgb(0,0,0)" paint-order="fill" d="M 73.97196197509766 42.151912689208984 L 83.97196197509766 42.151912689208984" stroke-opacity="1" stroke-linejoin="bevel" stroke-miterlimit="10" clip-path="url(#sJlXTzkyWSCB)"/><path fill="none" stroke="rgb(0,0,0)" paint-order="fill" d="M 96.02803802490234 34.76053237915039 L 106.02803802490234 34.76053237915039" stroke-opacity="1" stroke-linejoin="bevel" stroke-miterlimit="10" clip-path="url(#sJlXTzkyWSCB)"/><path fill="none" stroke="rgb(0,0,0)" paint-order="fill" d="M 118.08411407470703 50.92070007324219 L 128.08411407470703 50.92070007324219" stroke-opacity="1" stroke-linejoin="bevel" stroke-miterlimit="10" clip-path="url(#sJlXTzkyWSCB)"/><path fill="none" stroke="rgb(0,0,0)" paint-order="fill" d="M 140.1401824951172 103.73644256591797 L 150.1401824951172 103.73644256591797" stroke-opacity="1" stroke-linejoin="bevel" stroke-miterlimit="10" clip-path="url(#sJlXTzkyWSCB)"/><path fill="none" stroke="rgb(0,0,0)" paint-order="fill" d="M 162.19625854492188 155.61680603027344 L 172.19625854492188 155.61680603027344" stroke-opacity="1" stroke-linejoin="bevel" stroke-miterlimit="10" clip-path="url(#sJlXTzkyWSCB)"/><path fill="none" stroke="rgb(0,0,0)" paint-order="fill" d="M 184.25233459472656 169.2308807373047 L 194.25233459472656 169.2308807373047" stroke-opacity="1" stroke-linejoin="bevel" stroke-miterlimit="10" clip-path="url(#sJlXTzkyWSCB)"/><path fill="none" stroke="rgb(0,0,0)" paint-order="fill" d="M 206.30841064453125 181.0423126220703 L 216.30841064453125 181.0423126220703" stroke-opacity="1" stroke-linejoin="bevel" stroke-miterlimit="10" clip-path="url(#sJlXTzkyWSCB)"/><path fill="none" stroke="rgb(0,0,0)" paint-order="fill" d="M 83.97196197509766 47.154903411865234 L 73.97196197509766 47.154903411865234" stroke-opacity="1" stroke-linejoin="bevel" stroke-miterlimit="10" clip-path="url(#sJlXTzkyWSCB)"/><path fill="none" stroke="rgb(0,0,0)" paint-order="fill" d="M 106.02803802490234 38.69401168823242 L 96.02803802490234 38.69401168823242" stroke-opacity="1" stroke-linejoin="bevel" stroke-miterlimit="10" clip-path="url(#sJlXTzkyWSCB)"/><path fill="none" stroke="rgb(0,0,0)" paint-order="fill" d="M 128.08411407470703 56.545257568359375 L 118.08411407470703 56.545257568359375" stroke-opacity="1" stroke-linejoin="bevel" stroke-miterlimit="10" clip-path="url(#sJlXTzkyWSCB)"/><path fill="none" stroke="rgb(0,0,0)" paint-order="fill" d="M 150.1401824951172 111.02598571777344 L 140.1401824951172 111.02598571777344" stroke-opacity="1" stroke-linejoin="bevel" stroke-miterlimit="10" clip-path="url(#sJlXTzkyWSCB)"/><path fill="none" stroke="rgb(0,0,0)" paint-order="fill" d="M 172.19625854492188 161.8495635986328 L 162.19625854492188 161.8495635986328" stroke-opacity="1" stroke-linejoin="bevel" stroke-miterlimit="10" clip-path="url(#sJlXTzkyWSCB)"/><path fill="none" stroke="rgb(0,0,0)" paint-order="fill" d="M 194.25233459472656 174.9119415283203 L 184.25233459472656 174.9119415283203" stroke-opacity="1" stroke-linejoin="bevel" stroke-miterlimit="10" clip-path="url(#sJlXTzkyWSCB)"/><path fill="none" stroke="rgb(0,0,0)" paint-order="fill" d="M 216.30841064453125 185.57460021972656 L 206.30841064453125 185.57460021972656" stroke-opacity="1" stroke-linejoin="bevel" stroke-miterlimit="10" clip-path="url(#sJlXTzkyWSCB)"/><path fill="rgb(128,128,128)" stroke="none" paint-order="stroke" d="M 67.94392395019531 36.727272033691406 L 222.33644104003906 36.727272033691406 L 222.33644104003906 221.27273559570312 L 67.94392395019531 221.27273559570312 L 67.94392395019531 36.727272033691406 Z" fill-opacity="0.10196078431372549" clip-path="url(#GQpRMGQTZTDt)"/><path fill="url(#yRzOiZHkLfmL)" stroke="rgb(0,0,0)" paint-order="fill" d="M 67.94392395019531 36.727272033691406 L 222.33644104003906 36.727272033691406 L 222.33644104003906 221.27273559570312 L 67.94392395019531 221.27273559570312 L 67.94392395019531 36.727272033691406 Z" clip-path="url(#GQpRMGQTZTDt)" stroke-opacity="0.2" stroke-linejoin="bevel" stroke-miterlimit="10"/><path fill="rgb(100,149,237)" stroke="rgb(31,119,180)" paint-order="fill" d="M 67.94392395019531 44.65340805053711 L 90 44.65340805053711 L 90 221.27272033691406 L 67.94392395019531 221.27272033691406 L 67.94392395019531 44.65340805053711 Z" fill-opacity="0.5019607843137255" clip-path="url(#ggymtwAHtQGe)" stroke-opacity="0.5019607843137255" stroke-linejoin="bevel" stroke-miterlimit="10"/><path fill="rgb(100,149,237)" stroke="rgb(31,119,180)" paint-order="fill" d="M 90 36.727272033691406 L 112.05607604980469 36.727272033691406 L 112.05607604980469 221.27272033691406 L 90 221.27272033691406 L 90 36.727272033691406 Z" fill-opacity="0.5019607843137255" clip-path="url(#ggymtwAHtQGe)" stroke-opacity="0.5019607843137255" stroke-linejoin="bevel" stroke-miterlimit="10"/><path fill="rgb(100,149,237)" stroke="rgb(31,119,180)" paint-order="fill" d="M 112.05607604980469 53.73297882080078 L 134.11215209960938 53.73297882080078 L 134.11215209960938 221.27272033691406 L 112.05607604980469 221.27272033691406 L 112.05607604980469 53.73297882080078 Z" fill-opacity="0.5019607843137255" clip-path="url(#ggymtwAHtQGe)" stroke-opacity="0.5019607843137255" stroke-linejoin="bevel" stroke-miterlimit="10"/><path fill="rgb(100,149,237)" stroke="rgb(31,119,180)" paint-order="fill" d="M 134.11215209960938 107.38121795654297 L 156.168212890625 107.38121795654297 L 156.168212890625 221.27272033691406 L 134.11215209960938 221.27272033691406 L 134.11215209960938 107.38121795654297 Z" fill-opacity="0.5019607843137255" clip-path="url(#ggymtwAHtQGe)" stroke-opacity="0.5019607843137255" stroke-linejoin="bevel" stroke-miterlimit="10"/><path fill="rgb(100,149,237)" stroke="rgb(31,119,180)" paint-order="fill" d="M 156.16822814941406 158.73318481445312 L 178.2242889404297 158.73318481445312 L 178.2242889404297 221.27272033691406 L 156.16822814941406 221.27272033691406 L 156.16822814941406 158.73318481445312 Z" fill-opacity="0.5019607843137255" clip-path="url(#ggymtwAHtQGe)" stroke-opacity="0.5019607843137255" stroke-linejoin="bevel" stroke-miterlimit="10"/><path fill="rgb(100,149,237)" stroke="rgb(31,119,180)" paint-order="fill" d="M 178.22430419921875 172.0714111328125 L 200.28036499023438 172.0714111328125 L 200.28036499023438 221.27272033691406 L 178.22430419921875 221.27272033691406 L 178.22430419921875 172.0714111328125 Z" fill-opacity="0.5019607843137255" clip-path="url(#ggymtwAHtQGe)" stroke-opacity="0.5019607843137255" stroke-linejoin="bevel" stroke-miterlimit="10"/><path fill="rgb(100,149,237)" stroke="rgb(31,119,180)" paint-order="fill" d="M 200.28038024902344 183.30845642089844 L 222.33644104003906 183.30845642089844 L 222.33644104003906 221.27272033691406 L 200.28038024902344 221.27272033691406 L 200.28038024902344 183.30845642089844 Z" fill-opacity="0.5019607843137255" clip-path="url(#ggymtwAHtQGe)" stroke-opacity="0.5019607843137255" stroke-linejoin="bevel" stroke-miterlimit="10"/><path fill="none" stroke="rgb(0,0,0)" paint-order="fill" d="M 52.5 230.5 L 245.5 230.5" stroke-opacity="1" stroke-linejoin="bevel" stroke-miterlimit="10"/><path fill="none" stroke="rgb(0,0,0)" paint-order="fill" d="M 67.5 236.5 L 67.5 228.5 M 106.5 236.5 L 106.5 228.5 M 145.5 236.5 L 145.5 228.5 M 183.5 236.5 L 183.5 228.5 M 222.5 236.5 L 222.5 228.5" stroke-opacity="1" stroke-linejoin="bevel" stroke-miterlimit="10"/><path fill="none" stroke="rgb(0,0,0)" paint-order="fill" d="M 60.5 234.5 L 60.5 230.5 M 67.5 234.5 L 67.5 230.5 M 75.5 234.5 L 75.5 230.5 M 83.5 234.5 L 83.5 230.5 M 91.5 234.5 L 91.5 230.5 M 98.5 234.5 L 98.5 230.5 M 106.5 234.5 L 106.5 230.5 M 114.5 234.5 L 114.5 230.5 M 121.5 234.5 L 121.5 230.5 M 129.5 234.5 L 129.5 230.5 M 137.5 234.5 L 137.5 230.5 M 145.5 234.5 L 145.5 230.5 M 152.5 234.5 L 152.5 230.5 M 160.5 234.5 L 160.5 230.5 M 168.5 234.5 L 168.5 230.5 M 176.5 234.5 L 176.5 230.5 M 183.5 234.5 L 183.5 230.5 M 191.5 234.5 L 191.5 230.5 M 199.5 234.5 L 199.5 230.5 M 206.5 234.5 L 206.5 230.5 M 214.5 234.5 L 214.5 230.5 M 222.5 234.5 L 222.5 230.5 M 230.5 234.5 L 230.5 230.5 M 237.5 234.5 L 237.5 230.5" stroke-opacity="1" stroke-linejoin="bevel" stroke-miterlimit="10"/><text fill="rgb(68,68,68)" stroke="none" font-family="helvetica" font-size="11px" font-style="normal" font-weight="normal" text-decoration="normal" x="59.788963317871094" y="249" text-anchor="start" dominant-baseline="alphabetic" transform="matrix(1, 0, 0, 1, 0.5, 0.5)" fill-opacity="1">0.4</text><text fill="none" stroke="rgb(0,0,0)" font-family="helvetica" font-size="11px" font-style="normal" font-weight="normal" text-decoration="normal" x="59.788963317871094" y="249" text-anchor="start" dominant-baseline="alphabetic" transform="matrix(1, 0, 0, 1, 0.5, 0.5)" stroke-opacity="0" stroke-linejoin="bevel" stroke-miterlimit="10">0.4</text><text fill="rgb(68,68,68)" stroke="none" font-family="helvetica" font-size="11px" font-style="normal" font-weight="normal" text-decoration="normal" x="95.33879089355469" y="249" text-anchor="start" dominant-baseline="alphabetic" transform="matrix(1, 0, 0, 1, 0.5, 0.5)" fill-opacity="1">0.45</text><text fill="none" stroke="rgb(0,0,0)" font-family="helvetica" font-size="11px" font-style="normal" font-weight="normal" text-decoration="normal" x="95.33879089355469" y="249" text-anchor="start" dominant-baseline="alphabetic" transform="matrix(1, 0, 0, 1, 0.5, 0.5)" stroke-opacity="0" stroke-linejoin="bevel" stroke-miterlimit="10">0.45</text><text fill="rgb(68,68,68)" stroke="none" font-family="helvetica" font-size="11px" font-style="normal" font-weight="normal" text-decoration="normal" x="137.0063018798828" y="249" text-anchor="start" dominant-baseline="alphabetic" transform="matrix(1, 0, 0, 1, 0.5, 0.5)" fill-opacity="1">0.5</text><text fill="none" stroke="rgb(0,0,0)" font-family="helvetica" font-size="11px" font-style="normal" font-weight="normal" text-decoration="normal" x="137.0063018798828" y="249" text-anchor="start" dominant-baseline="alphabetic" transform="matrix(1, 0, 0, 1, 0.5, 0.5)" stroke-opacity="0" stroke-linejoin="bevel" stroke-miterlimit="10">0.5</text><text fill="rgb(68,68,68)" stroke="none" font-family="helvetica" font-size="11px" font-style="normal" font-weight="normal" text-decoration="normal" x="172.55612182617188" y="249" text-anchor="start" dominant-baseline="alphabetic" transform="matrix(1, 0, 0, 1, 0.5, 0.5)" fill-opacity="1">0.55</text><text fill="none" stroke="rgb(0,0,0)" font-family="helvetica" font-size="11px" font-style="normal" font-weight="normal" text-decoration="normal" x="172.55612182617188" y="249" text-anchor="start" dominant-baseline="alphabetic" transform="matrix(1, 0, 0, 1, 0.5, 0.5)" stroke-opacity="0" stroke-linejoin="bevel" stroke-miterlimit="10">0.55</text><text fill="rgb(68,68,68)" stroke="none" font-family="helvetica" font-size="11px" font-style="normal" font-weight="normal" text-decoration="normal" x="214.22361755371094" y="249" text-anchor="start" dominant-baseline="alphabetic" transform="matrix(1, 0, 0, 1, 0.5, 0.5)" fill-opacity="1">0.6</text><text fill="none" stroke="rgb(0,0,0)" font-family="helvetica" font-size="11px" font-style="normal" font-weight="normal" text-decoration="normal" x="214.22361755371094" y="249" text-anchor="start" dominant-baseline="alphabetic" transform="matrix(1, 0, 0, 1, 0.5, 0.5)" stroke-opacity="0" stroke-linejoin="bevel" stroke-miterlimit="10">0.6</text><text fill="rgb(68,68,68)" stroke="none" font-family="helvetica" font-size="13px" font-style="italic" font-weight="normal" text-decoration="normal" x="61.076904296875" y="269" text-anchor="start" dominant-baseline="alphabetic" transform="matrix(1, 0, 0, 1, 0.5, 0.5)" fill-opacity="1">Plasma separatrix triangularity</text><text fill="none" stroke="rgb(0,0,0)" font-family="helvetica" font-size="13px" font-style="italic" font-weight="normal" text-decoration="normal" x="61.076904296875" y="269" text-anchor="start" dominant-baseline="alphabetic" transform="matrix(1, 0, 0, 1, 0.5, 0.5)" stroke-opacity="0" stroke-linejoin="bevel" stroke-miterlimit="10">Plasma separatrix triangularity</text><path fill="none" stroke="rgb(0,0,0)" paint-order="fill" d="M 52.5 230.5 L 52.5 27.5" stroke-opacity="1" stroke-linejoin="bevel" stroke-miterlimit="10"/><path fill="none" stroke="rgb(0,0,0)" paint-order="fill" d="M 46.5 221.5 L 54.5 221.5 M 46.5 177.5 L 54.5 177.5 M 46.5 133.5 L 54.5 133.5 M 46.5 89.5 L 54.5 89.5 M 46.5 44.5 L 54.5 44.5" stroke-opacity="1" stroke-linejoin="bevel" stroke-miterlimit="10"/><path fill="none" stroke="rgb(0,0,0)" paint-order="fill" d="M 48.5 230.5 L 52.5 230.5 M 48.5 221.5 L 52.5 221.5 M 48.5 212.5 L 52.5 212.5 M 48.5 203.5 L 52.5 203.5 M 48.5 194.5 L 52.5 194.5 M 48.5 186.5 L 52.5 186.5 M 48.5 177.5 L 52.5 177.5 M 48.5 168.5 L 52.5 168.5 M 48.5 159.5 L 52.5 159.5 M 48.5 150.5 L 52.5 150.5 M 48.5 141.5 L 52.5 141.5 M 48.5 133.5 L 52.5 133.5 M 48.5 124.5 L 52.5 124.5 M 48.5 115.5 L 52.5 115.5 M 48.5 106.5 L 52.5 106.5 M 48.5 97.5 L 52.5 97.5 M 48.5 89.5 L 52.5 89.5 M 48.5 80.5 L 52.5 80.5 M 48.5 71.5 L 52.5 71.5 M 48.5 62.5 L 52.5 62.5 M 48.5 53.5 L 52.5 53.5 M 48.5 44.5 L 52.5 44.5 M 48.5 36.5 L 52.5 36.5" stroke-opacity="1" stroke-linejoin="bevel" stroke-miterlimit="10"/><text fill="rgb(68,68,68)" stroke="none" font-family="helvetica" font-size="11px" font-style="normal" font-weight="normal" text-decoration="normal" x="34.88232421875" y="224.77272033691406" text-anchor="start" dominant-baseline="alphabetic" transform="matrix(1, 0, 0, 1, 0.5, 0.5)" fill-opacity="1">0</text><text fill="none" stroke="rgb(0,0,0)" font-family="helvetica" font-size="11px" font-style="normal" font-weight="normal" text-decoration="normal" x="34.88232421875" y="224.77272033691406" text-anchor="start" dominant-baseline="alphabetic" transform="matrix(1, 0, 0, 1, 0.5, 0.5)" stroke-opacity="0" stroke-linejoin="bevel" stroke-miterlimit="10">0</text><text fill="rgb(68,68,68)" stroke="none" font-family="helvetica" font-size="11px" font-style="normal" font-weight="normal" text-decoration="normal" x="25.70849609375" y="180.69264221191406" text-anchor="start" dominant-baseline="alphabetic" transform="matrix(1, 0, 0, 1, 0.5, 0.5)" fill-opacity="1">0.2</text><text fill="none" stroke="rgb(0,0,0)" font-family="helvetica" font-size="11px" font-style="normal" font-weight="normal" text-decoration="normal" x="25.70849609375" y="180.69264221191406" text-anchor="start" dominant-baseline="alphabetic" transform="matrix(1, 0, 0, 1, 0.5, 0.5)" stroke-opacity="0" stroke-linejoin="bevel" stroke-miterlimit="10">0.2</text><text fill="rgb(68,68,68)" stroke="none" font-family="helvetica" font-size="11px" font-style="normal" font-weight="normal" text-decoration="normal" x="25.70849609375" y="136.612548828125" text-anchor="start" dominant-baseline="alphabetic" transform="matrix(1, 0, 0, 1, 0.5, 0.5)" fill-opacity="1">0.4</text><text fill="none" stroke="rgb(0,0,0)" font-family="helvetica" font-size="11px" font-style="normal" font-weight="normal" text-decoration="normal" x="25.70849609375" y="136.612548828125" text-anchor="start" dominant-baseline="alphabetic" transform="matrix(1, 0, 0, 1, 0.5, 0.5)" stroke-opacity="0" stroke-linejoin="bevel" stroke-miterlimit="10">0.4</text><text fill="rgb(68,68,68)" stroke="none" font-family="helvetica" font-size="11px" font-style="normal" font-weight="normal" text-decoration="normal" x="25.70849609375" y="92.53245544433594" text-anchor="start" dominant-baseline="alphabetic" transform="matrix(1, 0, 0, 1, 0.5, 0.5)" fill-opacity="1">0.6</text><text fill="none" stroke="rgb(0,0,0)" font-family="helvetica" font-size="11px" font-style="normal" font-weight="normal" text-decoration="normal" x="25.70849609375" y="92.53245544433594" text-anchor="start" dominant-baseline="alphabetic" transform="matrix(1, 0, 0, 1, 0.5, 0.5)" stroke-opacity="0" stroke-linejoin="bevel" stroke-miterlimit="10">0.6</text><text fill="rgb(68,68,68)" stroke="none" font-family="helvetica" font-size="11px" font-style="normal" font-weight="normal" text-decoration="normal" x="25.70849609375" y="48.452362060546875" text-anchor="start" dominant-baseline="alphabetic" transform="matrix(1, 0, 0, 1, 0.5, 0.5)" fill-opacity="1">0.8</text><text fill="none" stroke="rgb(0,0,0)" font-family="helvetica" font-size="11px" font-style="normal" font-weight="normal" text-decoration="normal" x="25.70849609375" y="48.452362060546875" text-anchor="start" dominant-baseline="alphabetic" transform="matrix(1, 0, 0, 1, 0.5, 0.5)" stroke-opacity="0" stroke-linejoin="bevel" stroke-miterlimit="10">0.8</text><text fill="rgb(68,68,68)" stroke="none" font-family="helvetica" font-size="13px" font-style="italic" font-weight="normal" text-decoration="normal" x="-15.175537109375" y="125.5" text-anchor="start" dominant-baseline="alphabetic" transform="matrix(6.123233995736766e-17, -1, 1, 6.123233995736766e-17, -110.29150390625, 146.70849609375)" fill-opacity="1">Confidence</text><text fill="none" stroke="rgb(0,0,0)" font-family="helvetica" font-size="13px" font-style="italic" font-weight="normal" text-decoration="normal" x="-15.175537109375" y="125.5" text-anchor="start" dominant-baseline="alphabetic" transform="matrix(6.123233995736766e-17, -1, 1, 6.123233995736766e-17, -110.29150390625, 146.70849609375)" stroke-opacity="0" stroke-linejoin="bevel" stroke-miterlimit="10">Confidence</text><path fill="rgb(255,249,186)" stroke="rgb(255,0,0)" paint-order="fill" d="M 111.73925785119377 36.72727272727275 L 111.73925785119377 36.72727272727275 L 111.73925785119377 221.27272727272728 L 111.73925785119377 221.27272727272728 L 111.73925785119377 36.72727272727275 Z" fill-opacity="0.4" clip-path="url(#gRuhgPhNSMVX)" stroke-opacity="1" stroke-linejoin="bevel" stroke-miterlimit="10" stroke-width="2" stroke-dasharray="6"/><path fill="rgb(255,249,186)" stroke="rgb(50,205,50)" paint-order="fill" d="M 101.02803811625591 36.72727272727275 L 101.02803811625591 36.72727272727275 L 101.02803811625591 221.27272727272728 L 101.02803811625591 221.27272727272728 L 101.02803811625591 36.72727272727275 Z" fill-opacity="0.4" clip-path="url(#QiUhBLStNuak)" stroke-opacity="1" stroke-linejoin="bevel" stroke-miterlimit="10" stroke-width="2" stroke-dasharray="6"/><text fill="rgb(68,68,68)" stroke="none" font-family="helvetica" font-size="13px" font-style="normal" font-weight="bold" text-decoration="normal" x="52" y="19" text-anchor="start" dominant-baseline="alphabetic" transform="matrix(1, 0, 0, 1, 0.5, 0.5)" fill-opacity="1">Convergance Probability</text><text fill="none" stroke="rgb(0,0,0)" font-family="helvetica" font-size="13px" font-style="normal" font-weight="bold" text-decoration="normal" x="52" y="19" text-anchor="start" dominant-baseline="alphabetic" transform="matrix(1, 0, 0, 1, 0.5, 0.5)" stroke-opacity="0" stroke-miterlimit="10" stroke-dasharray="">Convergance Probability</text></svg>