<svg version="1.1" xmlns="http://www.w3.org/2000/svg" width="275" height="275"><defs><clipPath id="tAmQHyvHQlcp"><path fill="none" stroke="none" d="M 52.5 27.5 L 245.5 27.5 L 245.5 230.5 L 52.5 230.5 L 52.5 27.5 Z"/></clipPath><clipPath id="MFPuxnITZSGI"><path fill="none" stroke="none" d="M 52.5 27.5 L 245.5 27.5 L 245.5 230.5 L 52.5 230.5 L 52.5 27.5 Z"/></clipPath><clipPath id="GKrBbEVCvaXV"><path fill="none" stroke="none" d="M 52.5 27.5 L 245.5 27.5 L 245.5 230.5 L 52.5 230.5 L 52.5 27.5 Z"/></clipPath><clipPath id="isdcPAMrfsde"><path fill="none" stroke="none" d="M 52.5 27.5 L 245.5 27.5 L 245.5 230.5 L 52.5 230.5 L 52.5 27.5 Z"/></clipPath><pattern id="sAsgovecMvTl" width="3" height="3" patternUnits="userSpaceOnUse"><path fill="rgb(0,0,0)" stroke="none" paint-order="stroke" d="M 2.75 2 A 0.75 0.75 0 0 0 1.25 2 A 0.75 0.75 0 0 0 2.75 2" fill-opacity="0.14901960784313725"/></pattern><clipPath id="vZOCZhMIaFDz"><path fill="none" stroke="none" d="M 52.5 27.5 L 245.5 27.5 L 245.5 230.5 L 52.5 230.5 L 52.5 27.5 Z"/></clipPath><clipPath id="ccFSHwwnXrXo"><path fill="none" stroke="none" d="M 52.5 27.5 L 245.5 27.5 L 245.5 230.5 L 52.5 230.5 L 52.5 27.5 Z"/></clipPath><clipPath id="LZooOgtngRQb"><path fill="none" stroke="none" d="M 52.5 27.5 L 245.5 27.5 L 245.5 230.5 L 52.5 230.5 L 52.5 27.5 Z"/></clipPath><clipPath id="IBVFhfnrfcii"><path fill="none" stroke="none" d="M 52.5 27.5 L 245.5 27.5 L 245.5 230.5 L 52.5 230.5 L 52.5 27.5 Z"/></clipPath></defs><path fill="rgb(255,255,255)" stroke="none" paint-order="stroke" d="M 0.5 0.5 L 275.5 0.5 L 275.5 275.5 L 0.5 275.5 L 0.5 0.5 Z" fill-opacity="1"/><rect fill="#FFFFFF" stroke="none" x="52" y="27" width="193" height="203" transform="matrix(1, 0, 0, 1, 0.5, 0.5)"/><path fill="rgb(255,255,255)" stroke="none" paint-order="stroke" d="M 52.5 27.5 L 245.5 27.5 L 245.5 230.5 L 52.5 230.5 L 52.5 27.5 Z" fill-opacity="1"/><path fill="none" stroke="rgb(229,229,229)" paint-order="fill" d="M 52.5 27.5 L 245.5 27.5 L 245.5 230.5 L 52.5 230.5 L 52.5 27.5 Z" stroke-opacity="1" stroke-linejoin="bevel" stroke-miterlimit="10"/><path fill="none" stroke="rgb(229,229,229)" paint-order="fill" d="M 67.5 230.5 L 67.5 27.5 M 106.5 230.5 L 106.5 27.5 M 145.5 230.5 L 145.5 27.5 M 183.5 230.5 L 183.5 27.5 M 222.5 230.5 L 222.5 27.5" stroke-opacity="1" stroke-linejoin="bevel" stroke-miterlimit="10" clip-path="url(#tAmQHyvHQlcp)"/><path fill="none" stroke="rgb(229,229,229)" paint-order="fill" d="M 52.5 221.5 L 245.5 221.5 M 52.5 188.5 L 245.5 188.5 M 52.5 155.5 L 245.5 155.5 M 52.5 122.5 L 245.5 122.5 M 52.5 89.5 L 245.5 89.5 M 52.5 56.5 L 245.5 56.5" stroke-opacity="1" stroke-linejoin="bevel" stroke-miterlimit="10" clip-path="url(#MFPuxnITZSGI)"/><path fill="none" stroke="rgb(0,0,0)" paint-order="fill" d="M 93.68278503417969 32.88433074951172 L 93.68278503417969 40.570213317871094" stroke-opacity="1" stroke-linejoin="bevel" stroke-miterlimit="10" clip-path="url(#GKrBbEVCvaXV)"/><path fill="none" stroke="rgb(0,0,0)" paint-order="fill" d="M 145.14065551757812 61.9408073425293 L 145.14065551757812 69.42466735839844" stroke-opacity="1" stroke-linejoin="bevel" stroke-miterlimit="10" clip-path="url(#GKrBbEVCvaXV)"/><path fill="none" stroke="rgb(0,0,0)" paint-order="fill" d="M 196.59852600097656 154.5245361328125 L 196.59852600097656 159.46116638183594" stroke-opacity="1" stroke-linejoin="bevel" stroke-miterlimit="10" clip-path="url(#GKrBbEVCvaXV)"/><path fill="none" stroke="rgb(0,0,0)" paint-order="fill" d="M 88.68278503417969 32.88433074951172 L 98.68278503417969 32.88433074951172" stroke-opacity="1" stroke-linejoin="bevel" stroke-miterlimit="10" clip-path="url(#GKrBbEVCvaXV)"/><path fill="none" stroke="rgb(0,0,0)" paint-order="fill" d="M 140.14065551757812 61.9408073425293 L 150.14065551757812 61.9408073425293" stroke-opacity="1" stroke-linejoin="bevel" stroke-miterlimit="10" clip-path="url(#GKrBbEVCvaXV)"/><path fill="none" stroke="rgb(0,0,0)" paint-order="fill" d="M 191.59852600097656 154.5245361328125 L 201.59852600097656 154.5245361328125" stroke-opacity="1" stroke-linejoin="bevel" stroke-miterlimit="10" clip-path="url(#GKrBbEVCvaXV)"/><path fill="none" stroke="rgb(0,0,0)" paint-order="fill" d="M 98.68278503417969 40.570213317871094 L 88.68278503417969 40.570213317871094" stroke-opacity="1" stroke-linejoin="bevel" stroke-miterlimit="10" clip-path="url(#GKrBbEVCvaXV)"/><path fill="none" stroke="rgb(0,0,0)" paint-order="fill" d="M 150.14065551757812 69.42466735839844 L 140.14065551757812 69.42466735839844" stroke-opacity="1" stroke-linejoin="bevel" stroke-miterlimit="10" clip-path="url(#GKrBbEVCvaXV)"/><path fill="none" stroke="rgb(0,0,0)" paint-order="fill" d="M 201.59852600097656 159.46116638183594 L 191.59852600097656 159.46116638183594" stroke-opacity="1" stroke-linejoin="bevel" stroke-miterlimit="10" clip-path="url(#GKrBbEVCvaXV)"/><path fill="rgb(128,128,128)" stroke="none" paint-order="stroke" d="M 67.95384979248047 36.727272033691406 L 222.3274688720703 36.727272033691406 L 222.3274688720703 221.27273559570312 L 67.95384979248047 221.27273559570312 L 67.95384979248047 36.727272033691406 Z" fill-opacity="0.10196078431372549" clip-path="url(#isdcPAMrfsde)"/><path fill="url(#sAsgovecMvTl)" stroke="rgb(0,0,0)" paint-order="fill" d="M 67.95384979248047 36.727272033691406 L 222.3274688720703 36.727272033691406 L 222.3274688720703 221.27273559570312 L 67.95384979248047 221.27273559570312 L 67.95384979248047 36.727272033691406 Z" clip-path="url(#isdcPAMrfsde)" stroke-opacity="0.2" stroke-linejoin="bevel" stroke-miterlimit="10"/><path fill="rgb(100,149,237)" stroke="rgb(31,119,180)" paint-order="fill" d="M 67.95384979248047 36.727272033691406 L 119.4117202758789 36.727272033691406 L 119.4117202758789 221.27272033691406 L 67.95384979248047 221.27272033691406 L 67.95384979248047 36.727272033691406 Z" fill-opacity="0.5019607843137255" clip-path="url(#vZOCZhMIaFDz)" stroke-opacity="0.5019607843137255" stroke-linejoin="bevel" stroke-miterlimit="10"/><path fill="rgb(100,149,237)" stroke="rgb(31,119,180)" paint-order="fill" d="M 119.4117202758789 65.6827392578125 L 170.86959838867188 65.6827392578125 L 170.86959838867188 221.27272033691406 L 119.4117202758789 221.27272033691406 L 119.4117202758789 65.6827392578125 Z" fill-opacity="0.5019607843137255" clip-path="url(#vZOCZhMIaFDz)" stroke-opacity="0.5019607843137255" stroke-linejoin="bevel" stroke-miterlimit="10"/><path fill="rgb(100,149,237)" stroke="rgb(31,119,180)" paint-order="fill" d="M 170.8695831298828 156.9928436279297 L 222.3274688720703 156.9928436279297 L 222.3274688720703 221.27272033691406 L 170.8695831298828 221.27272033691406 L 170.8695831298828 156.9928436279297 Z" fill-opacity="0.5019607843137255" clip-path="url(#vZOCZhMIaFDz)" stroke-opacity="0.5019607843137255" stroke-linejoin="bevel" stroke-miterlimit="10"/><path fill="none" stroke="rgb(0,0,0)" paint-order="fill" d="M 52.5 230.5 L 245.5 230.5" stroke-opacity="1" stroke-linejoin="bevel" stroke-miterlimit="10"/><path fill="none" stroke="rgb(0,0,0)" paint-order="fill" d="M 67.5 236.5 L 67.5 228.5 M 106.5 236.5 L 106.5 228.5 M 145.5 236.5 L 145.5 228.5 M 183.5 236.5 L 183.5 228.5 M 222.5 236.5 L 222.5 228.5" stroke-opacity="1" stroke-linejoin="bevel" stroke-miterlimit="10"/><path fill="none" stroke="rgb(0,0,0)" paint-order="fill" d="M 60.5 234.5 L 60.5 230.5 M 67.5 234.5 L 67.5 230.5 M 75.5 234.5 L 75.5 230.5 M 83.5 234.5 L 83.5 230.5 M 91.5 234.5 L 91.5 230.5 M 98.5 234.5 L 98.5 230.5 M 106.5 234.5 L 106.5 230.5 M 114.5 234.5 L 114.5 230.5 M 121.5 234.5 L 121.5 230.5 M 129.5 234.5 L 129.5 230.5 M 137.5 234.5 L 137.5 230.5 M 145.5 234.5 L 145.5 230.5 M 152.5 234.5 L 152.5 230.5 M 160.5 234.5 L 160.5 230.5 M 168.5 234.5 L 168.5 230.5 M 176.5 234.5 L 176.5 230.5 M 183.5 234.5 L 183.5 230.5 M 191.5 234.5 L 191.5 230.5 M 199.5 234.5 L 199.5 230.5 M 206.5 234.5 L 206.5 230.5 M 214.5 234.5 L 214.5 230.5 M 222.5 234.5 L 222.5 230.5 M 230.5 234.5 L 230.5 230.5 M 237.5 234.5 L 237.5 230.5" stroke-opacity="1" stroke-linejoin="bevel" stroke-miterlimit="10"/><text fill="rgb(68,68,68)" stroke="none" font-family="helvetica" font-size="11px" font-style="normal" font-weight="normal" text-decoration="normal" x="59.72014617919922" y="249" text-anchor="start" dominant-baseline="alphabetic" transform="matrix(1, 0, 0, 1, 0.5, 0.5)" fill-opacity="1">0.4</text><text fill="none" stroke="rgb(0,0,0)" font-family="helvetica" font-size="11px" font-style="normal" font-weight="normal" text-decoration="normal" x="59.72014617919922" y="249" text-anchor="start" dominant-baseline="alphabetic" transform="matrix(1, 0, 0, 1, 0.5, 0.5)" stroke-opacity="0" stroke-linejoin="bevel" stroke-miterlimit="10">0.4</text><text fill="rgb(68,68,68)" stroke="none" font-family="helvetica" font-size="11px" font-style="normal" font-weight="normal" text-decoration="normal" x="95.2849349975586" y="249" text-anchor="start" dominant-baseline="alphabetic" transform="matrix(1, 0, 0, 1, 0.5, 0.5)" fill-opacity="1">0.45</text><text fill="none" stroke="rgb(0,0,0)" font-family="helvetica" font-size="11px" font-style="normal" font-weight="normal" text-decoration="normal" x="95.2849349975586" y="249" text-anchor="start" dominant-baseline="alphabetic" transform="matrix(1, 0, 0, 1, 0.5, 0.5)" stroke-opacity="0" stroke-linejoin="bevel" stroke-miterlimit="10">0.45</text><text fill="rgb(68,68,68)" stroke="none" font-family="helvetica" font-size="11px" font-style="normal" font-weight="normal" text-decoration="normal" x="136.9674072265625" y="249" text-anchor="start" dominant-baseline="alphabetic" transform="matrix(1, 0, 0, 1, 0.5, 0.5)" fill-opacity="1">0.5</text><text fill="none" stroke="rgb(0,0,0)" font-family="helvetica" font-size="11px" font-style="normal" font-weight="normal" text-decoration="normal" x="136.9674072265625" y="249" text-anchor="start" dominant-baseline="alphabetic" transform="matrix(1, 0, 0, 1, 0.5, 0.5)" stroke-opacity="0" stroke-linejoin="bevel" stroke-miterlimit="10">0.5</text><text fill="rgb(68,68,68)" stroke="none" font-family="helvetica" font-size="11px" font-style="normal" font-weight="normal" text-decoration="normal" x="172.53219604492188" y="249" text-anchor="start" dominant-baseline="alphabetic" transform="matrix(1, 0, 0, 1, 0.5, 0.5)" fill-opacity="1">0.55</text><text fill="none" stroke="rgb(0,0,0)" font-family="helvetica" font-size="11px" font-style="normal" font-weight="normal" text-decoration="normal" x="172.53219604492188" y="249" text-anchor="start" dominant-baseline="alphabetic" transform="matrix(1, 0, 0, 1, 0.5, 0.5)" stroke-opacity="0" stroke-linejoin="bevel" stroke-miterlimit="10">0.55</text><text fill="rgb(68,68,68)" stroke="none" font-family="helvetica" font-size="11px" font-style="normal" font-weight="normal" text-decoration="normal" x="214.21466064453125" y="249" text-anchor="start" dominant-baseline="alphabetic" transform="matrix(1, 0, 0, 1, 0.5, 0.5)" fill-opacity="1">0.6</text><text fill="none" stroke="rgb(0,0,0)" font-family="helvetica" font-size="11px" font-style="normal" font-weight="normal" text-decoration="normal" x="214.21466064453125" y="249" text-anchor="start" dominant-baseline="alphabetic" transform="matrix(1, 0, 0, 1, 0.5, 0.5)" stroke-opacity="0" stroke-linejoin="bevel" stroke-miterlimit="10">0.6</text><text fill="rgb(68,68,68)" stroke="none" font-family="helvetica" font-size="13px" font-style="italic" font-weight="normal" text-decoration="normal" x="61.076904296875" y="269" text-anchor="start" dominant-baseline="alphabetic" transform="matrix(1, 0, 0, 1, 0.5, 0.5)" fill-opacity="1">Plasma separatrix triangularity</text><text fill="none" stroke="rgb(0,0,0)" font-family="helvetica" font-size="13px" font-style="italic" font-weight="normal" text-decoration="normal" x="61.076904296875" y="269" text-anchor="start" dominant-baseline="alphabetic" transform="matrix(1, 0, 0, 1, 0.5, 0.5)" stroke-opacity="0" stroke-linejoin="bevel" stroke-miterlimit="10">Plasma separatrix triangularity</text><path fill="none" stroke="rgb(0,0,0)" paint-order="fill" d="M 52.5 230.5 L 52.5 27.5" stroke-opacity="1" stroke-linejoin="bevel" stroke-miterlimit="10"/><path fill="none" stroke="rgb(0,0,0)" paint-order="fill" d="M 46.5 221.5 L 54.5 221.5 M 46.5 188.5 L 54.5 188.5 M 46.5 155.5 L 54.5 155.5 M 46.5 122.5 L 54.5 122.5 M 46.5 89.5 L 54.5 89.5 M 46.5 56.5 L 54.5 56.5" stroke-opacity="1" stroke-linejoin="bevel" stroke-miterlimit="10"/><path fill="none" stroke="rgb(0,0,0)" paint-order="fill" d="M 48.5 227.5 L 52.5 227.5 M 48.5 221.5 L 52.5 221.5 M 48.5 214.5 L 52.5 214.5 M 48.5 208.5 L 52.5 208.5 M 48.5 201.5 L 52.5 201.5 M 48.5 194.5 L 52.5 194.5 M 48.5 188.5 L 52.5 188.5 M 48.5 181.5 L 52.5 181.5 M 48.5 175.5 L 52.5 175.5 M 48.5 168.5 L 52.5 168.5 M 48.5 161.5 L 52.5 161.5 M 48.5 155.5 L 52.5 155.5 M 48.5 148.5 L 52.5 148.5 M 48.5 142.5 L 52.5 142.5 M 48.5 135.5 L 52.5 135.5 M 48.5 128.5 L 52.5 128.5 M 48.5 122.5 L 52.5 122.5 M 48.5 115.5 L 52.5 115.5 M 48.5 109.5 L 52.5 109.5 M 48.5 102.5 L 52.5 102.5 M 48.5 95.5 L 52.5 95.5 M 48.5 89.5 L 52.5 89.5 M 48.5 82.5 L 52.5 82.5 M 48.5 76.5 L 52.5 76.5 M 48.5 69.5 L 52.5 69.5 M 48.5 62.5 L 52.5 62.5 M 48.5 56.5 L 52.5 56.5 M 48.5 49.5 L 52.5 49.5 M 48.5 43.5 L 52.5 43.5 M 48.5 36.5 L 52.5 36.5 M 48.5 29.5 L 52.5 29.5" stroke-opacity="1" stroke-linejoin="bevel" stroke-miterlimit="10"/><text fill="rgb(68,68,68)" stroke="none" font-family="helvetica" font-size="11px" font-style="normal" font-weight="normal" text-decoration="normal" x="34.88232421875" y="224.77272033691406" text-anchor="start" dominant-baseline="alphabetic" transform="matrix(1, 0, 0, 1, 0.5, 0.5)" fill-opacity="1">0</text><text fill="none" stroke="rgb(0,0,0)" font-family="helvetica" font-size="11px" font-style="normal" font-weight="normal" text-decoration="normal" x="34.88232421875" y="224.77272033691406" text-anchor="start" dominant-baseline="alphabetic" transform="matrix(1, 0, 0, 1, 0.5, 0.5)" stroke-opacity="0" stroke-linejoin="bevel" stroke-miterlimit="10">0</text><text fill="rgb(68,68,68)" stroke="none" font-family="helvetica" font-size="11px" font-style="normal" font-weight="normal" text-decoration="normal" x="25.70849609375" y="191.7713623046875" text-anchor="start" dominant-baseline="alphabetic" transform="matrix(1, 0, 0, 1, 0.5, 0.5)" fill-opacity="1">0.1</text><text fill="none" stroke="rgb(0,0,0)" font-family="helvetica" font-size="11px" font-style="normal" font-weight="normal" text-decoration="normal" x="25.70849609375" y="191.7713623046875" text-anchor="start" dominant-baseline="alphabetic" transform="matrix(1, 0, 0, 1, 0.5, 0.5)" stroke-opacity="0" stroke-linejoin="bevel" stroke-miterlimit="10">0.1</text><text fill="rgb(68,68,68)" stroke="none" font-family="helvetica" font-size="11px" font-style="normal" font-weight="normal" text-decoration="normal" x="25.70849609375" y="158.76998901367188" text-anchor="start" dominant-baseline="alphabetic" transform="matrix(1, 0, 0, 1, 0.5, 0.5)" fill-opacity="1">0.2</text><text fill="none" stroke="rgb(0,0,0)" font-family="helvetica" font-size="11px" font-style="normal" font-weight="normal" text-decoration="normal" x="25.70849609375" y="158.76998901367188" text-anchor="start" dominant-baseline="alphabetic" transform="matrix(1, 0, 0, 1, 0.5, 0.5)" stroke-opacity="0" stroke-linejoin="bevel" stroke-miterlimit="10">0.2</text><text fill="rgb(68,68,68)" stroke="none" font-family="helvetica" font-size="11px" font-style="normal" font-weight="normal" text-decoration="normal" x="25.70849609375" y="125.76861572265625" text-anchor="start" dominant-baseline="alphabetic" transform="matrix(1, 0, 0, 1, 0.5, 0.5)" fill-opacity="1">0.3</text><text fill="none" stroke="rgb(0,0,0)" font-family="helvetica" font-size="11px" font-style="normal" font-weight="normal" text-decoration="normal" x="25.70849609375" y="125.76861572265625" text-anchor="start" dominant-baseline="alphabetic" transform="matrix(1, 0, 0, 1, 0.5, 0.5)" stroke-opacity="0" stroke-linejoin="bevel" stroke-miterlimit="10">0.3</text><text fill="rgb(68,68,68)" stroke="none" font-family="helvetica" font-size="11px" font-style="normal" font-weight="normal" text-decoration="normal" x="25.70849609375" y="92.76725006103516" text-anchor="start" dominant-baseline="alphabetic" transform="matrix(1, 0, 0, 1, 0.5, 0.5)" fill-opacity="1">0.4</text><text fill="none" stroke="rgb(0,0,0)" font-family="helvetica" font-size="11px" font-style="normal" font-weight="normal" text-decoration="normal" x="25.70849609375" y="92.76725006103516" text-anchor="start" dominant-baseline="alphabetic" transform="matrix(1, 0, 0, 1, 0.5, 0.5)" stroke-opacity="0" stroke-linejoin="bevel" stroke-miterlimit="10">0.4</text><text fill="rgb(68,68,68)" stroke="none" font-family="helvetica" font-size="11px" font-style="normal" font-weight="normal" text-decoration="normal" x="25.70849609375" y="59.7658805847168" text-anchor="start" dominant-baseline="alphabetic" transform="matrix(1, 0, 0, 1, 0.5, 0.5)" fill-opacity="1">0.5</text><text fill="none" stroke="rgb(0,0,0)" font-family="helvetica" font-size="11px" font-style="normal" font-weight="normal" text-decoration="normal" x="25.70849609375" y="59.7658805847168" text-anchor="start" dominant-baseline="alphabetic" transform="matrix(1, 0, 0, 1, 0.5, 0.5)" stroke-opacity="0" stroke-linejoin="bevel" stroke-miterlimit="10">0.5</text><text fill="rgb(68,68,68)" stroke="none" font-family="helvetica" font-size="13px" font-style="italic" font-weight="normal" text-decoration="normal" x="-47.31689453125" y="125.5" text-anchor="start" dominant-baseline="alphabetic" transform="matrix(6.123233995736766e-17, -1, 1, 6.123233995736766e-17, -110.29150390625, 146.70849609375)" fill-opacity="1">Normalised Probability</text><text fill="none" stroke="rgb(0,0,0)" font-family="helvetica" font-size="13px" font-style="italic" font-weight="normal" text-decoration="normal" x="-47.31689453125" y="125.5" text-anchor="start" dominant-baseline="alphabetic" transform="matrix(6.123233995736766e-17, -1, 1, 6.123233995736766e-17, -110.29150390625, 146.70849609375)" stroke-opacity="0" stroke-linejoin="bevel" stroke-miterlimit="10">Normalised Probability</text><path fill="rgb(255,249,186)" stroke="rgb(255,0,0)" paint-order="fill" d="M 136.91036779111272 36.72727272727269 L 136.91036779111272 36.72727272727269 L 136.91036779111272 221.27272727272728 L 136.91036779111272 221.27272727272728 L 136.91036779111272 36.72727272727269 Z" fill-opacity="0.4" clip-path="url(#ccFSHwwnXrXo)" stroke-opacity="1" stroke-linejoin="bevel" stroke-miterlimit="10" stroke-width="2" stroke-dasharray="6"/><path fill="rgb(255,249,186)" stroke="rgb(50,205,50)" paint-order="fill" d="M 93.68278578276482 36.72727272727269 L 93.68278578276482 36.72727272727269 L 93.68278578276482 221.27272727272728 L 93.68278578276482 221.27272727272728 L 93.68278578276482 36.72727272727269 Z" fill-opacity="0.4" clip-path="url(#LZooOgtngRQb)" stroke-opacity="1" stroke-linejoin="bevel" stroke-miterlimit="10" stroke-width="2" stroke-dasharray="6"/><text fill="rgb(68,68,68)" stroke="none" font-family="helvetica" font-size="13px" font-style="normal" font-weight="bold" text-decoration="normal" x="52" y="19" text-anchor="start" dominant-baseline="alphabetic" transform="matrix(1, 0, 0, 1, 0.5, 0.5)" fill-opacity="1">Convergance Probability</text><text fill="none" stroke="rgb(0,0,0)" font-family="helvetica" font-size="13px" font-style="normal" font-weight="bold" text-decoration="normal" x="52" y="19" text-anchor="start" dominant-baseline="alphabetic" transform="matrix(1, 0, 0, 1, 0.5, 0.5)" stroke-opacity="0" stroke-miterlimit="10" stroke-dasharray="">Convergance Probability</text></svg>