<svg version="1.1" xmlns="http://www.w3.org/2000/svg" width="350" height="350"><defs><clipPath id="KPfmoquDcMNq"><path fill="none" stroke="none" d="M 52.5 27.5 L 320.5 27.5 L 320.5 305.5 L 52.5 305.5 L 52.5 27.5 Z"/></clipPath><clipPath id="RNWquWHfqscP"><path fill="none" stroke="none" d="M 52.5 27.5 L 320.5 27.5 L 320.5 305.5 L 52.5 305.5 L 52.5 27.5 Z"/></clipPath><clipPath id="sTBQoMvLdTwb"><path fill="none" stroke="none" d="M 52.5 27.5 L 320.5 27.5 L 320.5 305.5 L 52.5 305.5 L 52.5 27.5 Z"/></clipPath><pattern id="UlFaweFJBuqC" width="3" height="3" patternUnits="userSpaceOnUse"><path fill="rgb(0,0,0)" stroke="none" paint-order="stroke" d="M 2.75 2 A 0.75 0.75 0 0 0 1.25 2 A 0.75 0.75 0 0 0 2.75 2" fill-opacity="0.14901960784313725"/></pattern><clipPath id="JrPmXzvFwCPI"><path fill="none" stroke="none" d="M 52.5 27.5 L 320.5 27.5 L 320.5 305.5 L 52.5 305.5 L 52.5 27.5 Z"/></clipPath><clipPath id="ZlxsxnvJTmiS"><path fill="none" stroke="none" d="M 52.5 27.5 L 320.5 27.5 L 320.5 305.5 L 52.5 305.5 L 52.5 27.5 Z"/></clipPath><clipPath id="IkfKPSTNGbwF"><path fill="none" stroke="none" d="M 52.5 27.5 L 320.5 27.5 L 320.5 305.5 L 52.5 305.5 L 52.5 27.5 Z"/></clipPath><clipPath id="hWGHaIARHAFW"><path fill="none" stroke="none" d="M 52.5 27.5 L 320.5 27.5 L 320.5 305.5 L 52.5 305.5 L 52.5 27.5 Z"/></clipPath></defs><path fill="rgb(255,255,255)" stroke="none" paint-order="stroke" d="M 0.5 0.5 L 350.5 0.5 L 350.5 350.5 L 0.5 350.5 L 0.5 0.5 Z" fill-opacity="1"/><rect fill="#FFFFFF" stroke="none" x="52" y="27" width="268" height="278" transform="matrix(1, 0, 0, 1, 0.5, 0.5)"/><path fill="rgb(255,255,255)" stroke="none" paint-order="stroke" d="M 52.5 27.5 L 320.5 27.5 L 320.5 305.5 L 52.5 305.5 L 52.5 27.5 Z" fill-opacity="1"/><path fill="none" stroke="rgb(229,229,229)" paint-order="fill" d="M 52.5 27.5 L 320.5 27.5 L 320.5 305.5 L 52.5 305.5 L 52.5 27.5 Z" stroke-opacity="1" stroke-linejoin="bevel" stroke-miterlimit="10"/><path fill="none" stroke="rgb(229,229,229)" paint-order="fill" d="M 77.5 305.5 L 77.5 27.5 M 131.5 305.5 L 131.5 27.5 M 186.5 305.5 L 186.5 27.5 M 240.5 305.5 L 240.5 27.5 M 295.5 305.5 L 295.5 27.5" stroke-opacity="1" stroke-linejoin="bevel" stroke-miterlimit="10" clip-path="url(#KPfmoquDcMNq)"/><path fill="none" stroke="rgb(229,229,229)" paint-order="fill" d="M 52.5 292.5 L 320.5 292.5 M 52.5 238.5 L 320.5 238.5 M 52.5 183.5 L 320.5 183.5 M 52.5 128.5 L 320.5 128.5 M 52.5 74.5 L 320.5 74.5" stroke-opacity="1" stroke-linejoin="bevel" stroke-miterlimit="10" clip-path="url(#RNWquWHfqscP)"/><path fill="rgb(128,128,128)" stroke="none" paint-order="stroke" d="M 68.4280776977539 40.13636016845703 L 293.32696533203125 40.13636016845703 L 293.32696533203125 292.8636474609375 L 68.4280776977539 292.8636474609375 L 68.4280776977539 40.13636016845703 Z" fill-opacity="0.10196078431372549" clip-path="url(#sTBQoMvLdTwb)"/><path fill="url(#UlFaweFJBuqC)" stroke="rgb(0,0,0)" paint-order="fill" d="M 68.4280776977539 40.13636016845703 L 293.32696533203125 40.13636016845703 L 293.32696533203125 292.8636474609375 L 68.4280776977539 292.8636474609375 L 68.4280776977539 40.13636016845703 Z" clip-path="url(#sTBQoMvLdTwb)" stroke-opacity="0.2" stroke-linejoin="bevel" stroke-miterlimit="10"/><path fill="rgb(100,149,237)" stroke="rgb(31,119,180)" paint-order="fill" d="M 68.42808532714844 40.1363639831543 L 124.65280151367188 40.1363639831543 L 124.65280151367188 292.8636474609375 L 68.42808532714844 292.8636474609375 L 68.42808532714844 40.1363639831543 Z" fill-opacity="1" clip-path="url(#JrPmXzvFwCPI)" stroke-opacity="1" stroke-linejoin="bevel" stroke-miterlimit="10"/><path fill="rgb(100,149,237)" stroke="rgb(31,119,180)" paint-order="fill" d="M 124.65280151367188 43.016326904296875 L 180.87753295898438 43.016326904296875 L 180.87753295898438 292.8636474609375 L 124.65280151367188 292.8636474609375 L 124.65280151367188 43.016326904296875 Z" fill-opacity="1" clip-path="url(#JrPmXzvFwCPI)" stroke-opacity="1" stroke-linejoin="bevel" stroke-miterlimit="10"/><path fill="rgb(100,149,237)" stroke="rgb(31,119,180)" paint-order="fill" d="M 180.8775177001953 46.819801330566406 L 237.1022491455078 46.819801330566406 L 237.1022491455078 292.8636474609375 L 180.8775177001953 292.8636474609375 L 180.8775177001953 46.819801330566406 Z" fill-opacity="1" clip-path="url(#JrPmXzvFwCPI)" stroke-opacity="1" stroke-linejoin="bevel" stroke-miterlimit="10"/><path fill="rgb(100,149,237)" stroke="rgb(31,119,180)" paint-order="fill" d="M 237.10226440429688 51.65882873535156 L 293.3269958496094 51.65882873535156 L 293.3269958496094 292.8636474609375 L 237.10226440429688 292.8636474609375 L 237.10226440429688 51.65882873535156 Z" fill-opacity="1" clip-path="url(#JrPmXzvFwCPI)" stroke-opacity="1" stroke-linejoin="bevel" stroke-miterlimit="10"/><path fill="rgb(100,149,237)" stroke="rgb(31,119,180)" paint-order="fill" d="M 293.32696533203125 292.8636474609375 L 320.5 292.8636474609375 L 320.5 292.8636474609375 L 293.32696533203125 292.8636474609375 L 293.32696533203125 292.8636474609375 Z" fill-opacity="1" clip-path="url(#JrPmXzvFwCPI)" stroke-opacity="1" stroke-linejoin="bevel" stroke-miterlimit="10"/><path fill="none" stroke="rgb(0,0,0)" paint-order="fill" d="M 52.5 305.5 L 320.5 305.5" stroke-opacity="1" stroke-linejoin="bevel" stroke-miterlimit="10"/><path fill="none" stroke="rgb(0,0,0)" paint-order="fill" d="M 77.5 311.5 L 77.5 303.5 M 131.5 311.5 L 131.5 303.5 M 186.5 311.5 L 186.5 303.5 M 240.5 311.5 L 240.5 303.5 M 295.5 311.5 L 295.5 303.5" stroke-opacity="1" stroke-linejoin="bevel" stroke-miterlimit="10"/><path fill="none" stroke="rgb(0,0,0)" paint-order="fill" d="M 66.5 309.5 L 66.5 305.5 M 55.5 309.5 L 55.5 305.5 M 77.5 309.5 L 77.5 305.5 M 88.5 309.5 L 88.5 305.5 M 98.5 309.5 L 98.5 305.5 M 109.5 309.5 L 109.5 305.5 M 120.5 309.5 L 120.5 305.5 M 131.5 309.5 L 131.5 305.5 M 142.5 309.5 L 142.5 305.5 M 153.5 309.5 L 153.5 305.5 M 164.5 309.5 L 164.5 305.5 M 175.5 309.5 L 175.5 305.5 M 186.5 309.5 L 186.5 305.5 M 197.5 309.5 L 197.5 305.5 M 208.5 309.5 L 208.5 305.5 M 218.5 309.5 L 218.5 305.5 M 229.5 309.5 L 229.5 305.5 M 240.5 309.5 L 240.5 305.5 M 251.5 309.5 L 251.5 305.5 M 262.5 309.5 L 262.5 305.5 M 273.5 309.5 L 273.5 305.5 M 284.5 309.5 L 284.5 305.5 M 295.5 309.5 L 295.5 305.5 M 306.5 309.5 L 306.5 305.5 M 317.5 309.5 L 317.5 305.5" stroke-opacity="1" stroke-linejoin="bevel" stroke-miterlimit="10"/><text fill="rgb(68,68,68)" stroke="none" font-family="helvetica" font-size="11px" font-style="normal" font-weight="normal" text-decoration="normal" x="73.59777069091797" y="324" text-anchor="start" dominant-baseline="alphabetic" transform="matrix(1, 0, 0, 1, 0.5, 0.5)" fill-opacity="1">6</text><text fill="none" stroke="rgb(0,0,0)" font-family="helvetica" font-size="11px" font-style="normal" font-weight="normal" text-decoration="normal" x="73.59777069091797" y="324" text-anchor="start" dominant-baseline="alphabetic" transform="matrix(1, 0, 0, 1, 0.5, 0.5)" stroke-opacity="0" stroke-linejoin="bevel" stroke-miterlimit="10">6</text><text fill="rgb(68,68,68)" stroke="none" font-family="helvetica" font-size="11px" font-style="normal" font-weight="normal" text-decoration="normal" x="128.1461181640625" y="324" text-anchor="start" dominant-baseline="alphabetic" transform="matrix(1, 0, 0, 1, 0.5, 0.5)" fill-opacity="1">7</text><text fill="none" stroke="rgb(0,0,0)" font-family="helvetica" font-size="11px" font-style="normal" font-weight="normal" text-decoration="normal" x="128.1461181640625" y="324" text-anchor="start" dominant-baseline="alphabetic" transform="matrix(1, 0, 0, 1, 0.5, 0.5)" stroke-opacity="0" stroke-linejoin="bevel" stroke-miterlimit="10">7</text><text fill="rgb(68,68,68)" stroke="none" font-family="helvetica" font-size="11px" font-style="normal" font-weight="normal" text-decoration="normal" x="182.6944580078125" y="324" text-anchor="start" dominant-baseline="alphabetic" transform="matrix(1, 0, 0, 1, 0.5, 0.5)" fill-opacity="1">8</text><text fill="none" stroke="rgb(0,0,0)" font-family="helvetica" font-size="11px" font-style="normal" font-weight="normal" text-decoration="normal" x="182.6944580078125" y="324" text-anchor="start" dominant-baseline="alphabetic" transform="matrix(1, 0, 0, 1, 0.5, 0.5)" stroke-opacity="0" stroke-linejoin="bevel" stroke-miterlimit="10">8</text><text fill="rgb(68,68,68)" stroke="none" font-family="helvetica" font-size="11px" font-style="normal" font-weight="normal" text-decoration="normal" x="237.24281311035156" y="324" text-anchor="start" dominant-baseline="alphabetic" transform="matrix(1, 0, 0, 1, 0.5, 0.5)" fill-opacity="1">9</text><text fill="none" stroke="rgb(0,0,0)" font-family="helvetica" font-size="11px" font-style="normal" font-weight="normal" text-decoration="normal" x="237.24281311035156" y="324" text-anchor="start" dominant-baseline="alphabetic" transform="matrix(1, 0, 0, 1, 0.5, 0.5)" stroke-opacity="0" stroke-linejoin="bevel" stroke-miterlimit="10">9</text><text fill="rgb(68,68,68)" stroke="none" font-family="helvetica" font-size="11px" font-style="normal" font-weight="normal" text-decoration="normal" x="288.7322998046875" y="324" text-anchor="start" dominant-baseline="alphabetic" transform="matrix(1, 0, 0, 1, 0.5, 0.5)" fill-opacity="1">10</text><text fill="none" stroke="rgb(0,0,0)" font-family="helvetica" font-size="11px" font-style="normal" font-weight="normal" text-decoration="normal" x="288.7322998046875" y="324" text-anchor="start" dominant-baseline="alphabetic" transform="matrix(1, 0, 0, 1, 0.5, 0.5)" stroke-opacity="0" stroke-linejoin="bevel" stroke-miterlimit="10">10</text><text fill="rgb(68,68,68)" stroke="none" font-family="helvetica" font-size="13px" font-style="italic" font-weight="normal" text-decoration="normal" x="79.2705078125" y="344" text-anchor="start" dominant-baseline="alphabetic" transform="matrix(1, 0, 0, 1, 0.5, 0.5)" fill-opacity="1">Max neutron wall-load (MW/m$^{2}$)</text><text fill="none" stroke="rgb(0,0,0)" font-family="helvetica" font-size="13px" font-style="italic" font-weight="normal" text-decoration="normal" x="79.2705078125" y="344" text-anchor="start" dominant-baseline="alphabetic" transform="matrix(1, 0, 0, 1, 0.5, 0.5)" stroke-opacity="0" stroke-linejoin="bevel" stroke-miterlimit="10">Max neutron wall-load (MW/m$^{2}$)</text><path fill="none" stroke="rgb(0,0,0)" paint-order="fill" d="M 52.5 305.5 L 52.5 27.5" stroke-opacity="1" stroke-linejoin="bevel" stroke-miterlimit="10"/><path fill="none" stroke="rgb(0,0,0)" paint-order="fill" d="M 46.5 292.5 L 54.5 292.5 M 46.5 238.5 L 54.5 238.5 M 46.5 183.5 L 54.5 183.5 M 46.5 128.5 L 54.5 128.5 M 46.5 74.5 L 54.5 74.5" stroke-opacity="1" stroke-linejoin="bevel" stroke-miterlimit="10"/><path fill="none" stroke="rgb(0,0,0)" paint-order="fill" d="M 48.5 303.5 L 52.5 303.5 M 48.5 292.5 L 52.5 292.5 M 48.5 281.5 L 52.5 281.5 M 48.5 270.5 L 52.5 270.5 M 48.5 260.5 L 52.5 260.5 M 48.5 249.5 L 52.5 249.5 M 48.5 238.5 L 52.5 238.5 M 48.5 227.5 L 52.5 227.5 M 48.5 216.5 L 52.5 216.5 M 48.5 205.5 L 52.5 205.5 M 48.5 194.5 L 52.5 194.5 M 48.5 183.5 L 52.5 183.5 M 48.5 172.5 L 52.5 172.5 M 48.5 161.5 L 52.5 161.5 M 48.5 150.5 L 52.5 150.5 M 48.5 139.5 L 52.5 139.5 M 48.5 128.5 L 52.5 128.5 M 48.5 117.5 L 52.5 117.5 M 48.5 106.5 L 52.5 106.5 M 48.5 95.5 L 52.5 95.5 M 48.5 85.5 L 52.5 85.5 M 48.5 74.5 L 52.5 74.5 M 48.5 63.5 L 52.5 63.5 M 48.5 52.5 L 52.5 52.5 M 48.5 41.5 L 52.5 41.5 M 48.5 30.5 L 52.5 30.5" stroke-opacity="1" stroke-linejoin="bevel" stroke-miterlimit="10"/><text fill="rgb(68,68,68)" stroke="none" font-family="helvetica" font-size="11px" font-style="normal" font-weight="normal" text-decoration="normal" x="34.88232421875" y="296.3636474609375" text-anchor="start" dominant-baseline="alphabetic" transform="matrix(1, 0, 0, 1, 0.5, 0.5)" fill-opacity="1">0</text><text fill="none" stroke="rgb(0,0,0)" font-family="helvetica" font-size="11px" font-style="normal" font-weight="normal" text-decoration="normal" x="34.88232421875" y="296.3636474609375" text-anchor="start" dominant-baseline="alphabetic" transform="matrix(1, 0, 0, 1, 0.5, 0.5)" stroke-opacity="0" stroke-linejoin="bevel" stroke-miterlimit="10">0</text><text fill="rgb(68,68,68)" stroke="none" font-family="helvetica" font-size="11px" font-style="normal" font-weight="normal" text-decoration="normal" x="25.70849609375" y="241.67164611816406" text-anchor="start" dominant-baseline="alphabetic" transform="matrix(1, 0, 0, 1, 0.5, 0.5)" fill-opacity="1">0.2</text><text fill="none" stroke="rgb(0,0,0)" font-family="helvetica" font-size="11px" font-style="normal" font-weight="normal" text-decoration="normal" x="25.70849609375" y="241.67164611816406" text-anchor="start" dominant-baseline="alphabetic" transform="matrix(1, 0, 0, 1, 0.5, 0.5)" stroke-opacity="0" stroke-linejoin="bevel" stroke-miterlimit="10">0.2</text><text fill="rgb(68,68,68)" stroke="none" font-family="helvetica" font-size="11px" font-style="normal" font-weight="normal" text-decoration="normal" x="25.70849609375" y="186.97964477539062" text-anchor="start" dominant-baseline="alphabetic" transform="matrix(1, 0, 0, 1, 0.5, 0.5)" fill-opacity="1">0.4</text><text fill="none" stroke="rgb(0,0,0)" font-family="helvetica" font-size="11px" font-style="normal" font-weight="normal" text-decoration="normal" x="25.70849609375" y="186.97964477539062" text-anchor="start" dominant-baseline="alphabetic" transform="matrix(1, 0, 0, 1, 0.5, 0.5)" stroke-opacity="0" stroke-linejoin="bevel" stroke-miterlimit="10">0.4</text><text fill="rgb(68,68,68)" stroke="none" font-family="helvetica" font-size="11px" font-style="normal" font-weight="normal" text-decoration="normal" x="25.70849609375" y="132.2876434326172" text-anchor="start" dominant-baseline="alphabetic" transform="matrix(1, 0, 0, 1, 0.5, 0.5)" fill-opacity="1">0.6</text><text fill="none" stroke="rgb(0,0,0)" font-family="helvetica" font-size="11px" font-style="normal" font-weight="normal" text-decoration="normal" x="25.70849609375" y="132.2876434326172" text-anchor="start" dominant-baseline="alphabetic" transform="matrix(1, 0, 0, 1, 0.5, 0.5)" stroke-opacity="0" stroke-linejoin="bevel" stroke-miterlimit="10">0.6</text><text fill="rgb(68,68,68)" stroke="none" font-family="helvetica" font-size="11px" font-style="normal" font-weight="normal" text-decoration="normal" x="25.70849609375" y="77.59564971923828" text-anchor="start" dominant-baseline="alphabetic" transform="matrix(1, 0, 0, 1, 0.5, 0.5)" fill-opacity="1">0.8</text><text fill="none" stroke="rgb(0,0,0)" font-family="helvetica" font-size="11px" font-style="normal" font-weight="normal" text-decoration="normal" x="25.70849609375" y="77.59564971923828" text-anchor="start" dominant-baseline="alphabetic" transform="matrix(1, 0, 0, 1, 0.5, 0.5)" stroke-opacity="0" stroke-linejoin="bevel" stroke-miterlimit="10">0.8</text><text fill="rgb(68,68,68)" stroke="none" font-family="helvetica" font-size="13px" font-style="italic" font-weight="normal" text-decoration="normal" x="-47.31689453125" y="163" text-anchor="start" dominant-baseline="alphabetic" transform="matrix(6.123233995736766e-17, -1, 1, 6.123233995736766e-17, -147.79150390625, 184.20849609375)" fill-opacity="1">Normalised Probability</text><text fill="none" stroke="rgb(0,0,0)" font-family="helvetica" font-size="13px" font-style="italic" font-weight="normal" text-decoration="normal" x="-47.31689453125" y="163" text-anchor="start" dominant-baseline="alphabetic" transform="matrix(6.123233995736766e-17, -1, 1, 6.123233995736766e-17, -147.79150390625, 184.20849609375)" stroke-opacity="0" stroke-linejoin="bevel" stroke-miterlimit="10">Normalised Probability</text><path fill="rgb(255,249,186)" stroke="rgb(255,0,0)" paint-order="fill" d="M 187.60237372710418 40.136363636363626 L 187.60237372710418 40.136363636363626 L 187.60237372710418 292.8636363636364 L 187.60237372710418 292.8636363636364 L 187.60237372710418 40.136363636363626 Z" fill-opacity="0.4" clip-path="url(#ZlxsxnvJTmiS)" stroke-opacity="1" stroke-linejoin="bevel" stroke-miterlimit="10" stroke-width="2" stroke-dasharray="6"/><path fill="rgb(255,249,186)" stroke="rgb(50,205,50)" paint-order="fill" d="M 96.54043978131818 40.136363636363626 L 96.54043978131818 40.136363636363626 L 96.54043978131818 292.8636363636364 L 96.54043978131818 292.8636363636364 L 96.54043978131818 40.136363636363626 Z" fill-opacity="0.4" clip-path="url(#IkfKPSTNGbwF)" stroke-opacity="1" stroke-linejoin="bevel" stroke-miterlimit="10" stroke-width="2" stroke-dasharray="6"/><text fill="rgb(68,68,68)" stroke="none" font-family="helvetica" font-size="13px" font-style="normal" font-weight="bold" text-decoration="normal" x="52" y="19" text-anchor="start" dominant-baseline="alphabetic" transform="matrix(1, 0, 0, 1, 0.5, 0.5)" fill-opacity="1">Convergance Probability</text><text fill="none" stroke="rgb(0,0,0)" font-family="helvetica" font-size="13px" font-style="normal" font-weight="bold" text-decoration="normal" x="52" y="19" text-anchor="start" dominant-baseline="alphabetic" transform="matrix(1, 0, 0, 1, 0.5, 0.5)" stroke-opacity="0" stroke-miterlimit="10" stroke-dasharray="">Convergance Probability</text></svg>