<svg version="1.1" xmlns="http://www.w3.org/2000/svg" width="275" height="275"><defs><clipPath id="cmyGZBKNXMVq"><path fill="none" stroke="none" d="M 52.5 27.5 L 245.5 27.5 L 245.5 230.5 L 52.5 230.5 L 52.5 27.5 Z"/></clipPath><clipPath id="CToTUsTMPQAu"><path fill="none" stroke="none" d="M 52.5 27.5 L 245.5 27.5 L 245.5 230.5 L 52.5 230.5 L 52.5 27.5 Z"/></clipPath><clipPath id="DXuLdqJtlJDz"><path fill="none" stroke="none" d="M 52.5 27.5 L 245.5 27.5 L 245.5 230.5 L 52.5 230.5 L 52.5 27.5 Z"/></clipPath><clipPath id="wLkFoydCVMZf"><path fill="none" stroke="none" d="M 52.5 27.5 L 245.5 27.5 L 245.5 230.5 L 52.5 230.5 L 52.5 27.5 Z"/></clipPath><pattern id="rXWipNReiDoO" width="3" height="3" patternUnits="userSpaceOnUse"><path fill="rgb(0,0,0)" stroke="none" paint-order="stroke" d="M 2.75 2 A 0.75 0.75 0 0 0 1.25 2 A 0.75 0.75 0 0 0 2.75 2" fill-opacity="0.14901960784313725"/></pattern><clipPath id="obiPPtsugGHP"><path fill="none" stroke="none" d="M 52.5 27.5 L 245.5 27.5 L 245.5 230.5 L 52.5 230.5 L 52.5 27.5 Z"/></clipPath><clipPath id="naSOQCQncUws"><path fill="none" stroke="none" d="M 52.5 27.5 L 245.5 27.5 L 245.5 230.5 L 52.5 230.5 L 52.5 27.5 Z"/></clipPath><clipPath id="ykglhUzphJCy"><path fill="none" stroke="none" d="M 52.5 27.5 L 245.5 27.5 L 245.5 230.5 L 52.5 230.5 L 52.5 27.5 Z"/></clipPath><clipPath id="cvVqghWBkOlX"><path fill="none" stroke="none" d="M 52.5 27.5 L 245.5 27.5 L 245.5 230.5 L 52.5 230.5 L 52.5 27.5 Z"/></clipPath></defs><path fill="rgb(255,255,255)" stroke="none" paint-order="stroke" d="M 0.5 0.5 L 275.5 0.5 L 275.5 275.5 L 0.5 275.5 L 0.5 0.5 Z" fill-opacity="1"/><rect fill="#FFFFFF" stroke="none" x="52" y="27" width="193" height="203" transform="matrix(1, 0, 0, 1, 0.5, 0.5)"/><path fill="rgb(255,255,255)" stroke="none" paint-order="stroke" d="M 52.5 27.5 L 245.5 27.5 L 245.5 230.5 L 52.5 230.5 L 52.5 27.5 Z" fill-opacity="1"/><path fill="none" stroke="rgb(229,229,229)" paint-order="fill" d="M 52.5 27.5 L 245.5 27.5 L 245.5 230.5 L 52.5 230.5 L 52.5 27.5 Z" stroke-opacity="1" stroke-linejoin="bevel" stroke-miterlimit="10"/><path fill="none" stroke="rgb(229,229,229)" paint-order="fill" d="M 60.5 230.5 L 60.5 27.5 M 94.5 230.5 L 94.5 27.5 M 127.5 230.5 L 127.5 27.5 M 161.5 230.5 L 161.5 27.5 M 195.5 230.5 L 195.5 27.5 M 228.5 230.5 L 228.5 27.5" stroke-opacity="1" stroke-linejoin="bevel" stroke-miterlimit="10" clip-path="url(#cmyGZBKNXMVq)"/><path fill="none" stroke="rgb(229,229,229)" paint-order="fill" d="M 52.5 221.5 L 245.5 221.5 M 52.5 183.5 L 245.5 183.5 M 52.5 145.5 L 245.5 145.5 M 52.5 107.5 L 245.5 107.5 M 52.5 69.5 L 245.5 69.5 M 52.5 32.5 L 245.5 32.5" stroke-opacity="1" stroke-linejoin="bevel" stroke-miterlimit="10" clip-path="url(#CToTUsTMPQAu)"/><path fill="none" stroke="rgb(0,0,0)" paint-order="fill" d="M 88.89096069335938 31.944232940673828 L 88.89096069335938 48.121864318847656" stroke-opacity="1" stroke-linejoin="bevel" stroke-miterlimit="10" clip-path="url(#DXuLdqJtlJDz)"/><path fill="none" stroke="rgb(0,0,0)" paint-order="fill" d="M 144.8063507080078 31.827661514282227 L 144.8063507080078 47.817928314208984" stroke-opacity="1" stroke-linejoin="bevel" stroke-miterlimit="10" clip-path="url(#DXuLdqJtlJDz)"/><path fill="none" stroke="rgb(0,0,0)" paint-order="fill" d="M 200.72174072265625 28.03135108947754 L 200.72174072265625 45.423194885253906" stroke-opacity="1" stroke-linejoin="bevel" stroke-miterlimit="10" clip-path="url(#DXuLdqJtlJDz)"/><path fill="none" stroke="rgb(0,0,0)" paint-order="fill" d="M 83.89096069335938 31.944232940673828 L 93.89096069335938 31.944232940673828" stroke-opacity="1" stroke-linejoin="bevel" stroke-miterlimit="10" clip-path="url(#DXuLdqJtlJDz)"/><path fill="none" stroke="rgb(0,0,0)" paint-order="fill" d="M 139.8063507080078 31.827661514282227 L 149.8063507080078 31.827661514282227" stroke-opacity="1" stroke-linejoin="bevel" stroke-miterlimit="10" clip-path="url(#DXuLdqJtlJDz)"/><path fill="none" stroke="rgb(0,0,0)" paint-order="fill" d="M 195.72174072265625 28.03135108947754 L 205.72174072265625 28.03135108947754" stroke-opacity="1" stroke-linejoin="bevel" stroke-miterlimit="10" clip-path="url(#DXuLdqJtlJDz)"/><path fill="none" stroke="rgb(0,0,0)" paint-order="fill" d="M 93.89096069335938 48.121864318847656 L 83.89096069335938 48.121864318847656" stroke-opacity="1" stroke-linejoin="bevel" stroke-miterlimit="10" clip-path="url(#DXuLdqJtlJDz)"/><path fill="none" stroke="rgb(0,0,0)" paint-order="fill" d="M 149.8063507080078 47.817928314208984 L 139.8063507080078 47.817928314208984" stroke-opacity="1" stroke-linejoin="bevel" stroke-miterlimit="10" clip-path="url(#DXuLdqJtlJDz)"/><path fill="none" stroke="rgb(0,0,0)" paint-order="fill" d="M 205.72174072265625 45.423194885253906 L 195.72174072265625 45.423194885253906" stroke-opacity="1" stroke-linejoin="bevel" stroke-miterlimit="10" clip-path="url(#DXuLdqJtlJDz)"/><path fill="rgb(128,128,128)" stroke="none" paint-order="stroke" d="M 60.93326187133789 36.727272033691406 L 228.67942810058594 36.727272033691406 L 228.67942810058594 221.27273559570312 L 60.93326187133789 221.27273559570312 L 60.93326187133789 36.727272033691406 Z" fill-opacity="0.10196078431372549" clip-path="url(#wLkFoydCVMZf)"/><path fill="url(#rXWipNReiDoO)" stroke="rgb(0,0,0)" paint-order="fill" d="M 60.93326187133789 36.727272033691406 L 228.67942810058594 36.727272033691406 L 228.67942810058594 221.27273559570312 L 60.93326187133789 221.27273559570312 L 60.93326187133789 36.727272033691406 Z" clip-path="url(#wLkFoydCVMZf)" stroke-opacity="0.2" stroke-linejoin="bevel" stroke-miterlimit="10"/><path fill="rgb(100,149,237)" stroke="rgb(31,119,180)" paint-order="fill" d="M 60.933265686035156 40.03304672241211 L 116.8486557006836 40.03304672241211 L 116.8486557006836 221.27272033691406 L 60.933265686035156 221.27272033691406 L 60.933265686035156 40.03304672241211 Z" fill-opacity="0.5019607843137255" clip-path="url(#obiPPtsugGHP)" stroke-opacity="0.5019607843137255" stroke-linejoin="bevel" stroke-miterlimit="10"/><path fill="rgb(100,149,237)" stroke="rgb(31,119,180)" paint-order="fill" d="M 116.8486557006836 39.82279586791992 L 172.7640380859375 39.82279586791992 L 172.7640380859375 221.27272033691406 L 116.8486557006836 221.27272033691406 L 116.8486557006836 39.82279586791992 Z" fill-opacity="0.5019607843137255" clip-path="url(#obiPPtsugGHP)" stroke-opacity="0.5019607843137255" stroke-linejoin="bevel" stroke-miterlimit="10"/><path fill="rgb(100,149,237)" stroke="rgb(31,119,180)" paint-order="fill" d="M 172.7640380859375 36.727272033691406 L 228.679443359375 36.727272033691406 L 228.679443359375 221.27272033691406 L 172.7640380859375 221.27272033691406 L 172.7640380859375 36.727272033691406 Z" fill-opacity="0.5019607843137255" clip-path="url(#obiPPtsugGHP)" stroke-opacity="0.5019607843137255" stroke-linejoin="bevel" stroke-miterlimit="10"/><path fill="none" stroke="rgb(0,0,0)" paint-order="fill" d="M 52.5 230.5 L 245.5 230.5" stroke-opacity="1" stroke-linejoin="bevel" stroke-miterlimit="10"/><path fill="none" stroke="rgb(0,0,0)" paint-order="fill" d="M 60.5 236.5 L 60.5 228.5 M 94.5 236.5 L 94.5 228.5 M 127.5 236.5 L 127.5 228.5 M 161.5 236.5 L 161.5 228.5 M 195.5 236.5 L 195.5 228.5 M 228.5 236.5 L 228.5 228.5" stroke-opacity="1" stroke-linejoin="bevel" stroke-miterlimit="10"/><path fill="none" stroke="rgb(0,0,0)" paint-order="fill" d="M 53.5 234.5 L 53.5 230.5 M 60.5 234.5 L 60.5 230.5 M 67.5 234.5 L 67.5 230.5 M 73.5 234.5 L 73.5 230.5 M 80.5 234.5 L 80.5 230.5 M 87.5 234.5 L 87.5 230.5 M 94.5 234.5 L 94.5 230.5 M 100.5 234.5 L 100.5 230.5 M 107.5 234.5 L 107.5 230.5 M 114.5 234.5 L 114.5 230.5 M 121.5 234.5 L 121.5 230.5 M 127.5 234.5 L 127.5 230.5 M 134.5 234.5 L 134.5 230.5 M 141.5 234.5 L 141.5 230.5 M 147.5 234.5 L 147.5 230.5 M 154.5 234.5 L 154.5 230.5 M 161.5 234.5 L 161.5 230.5 M 168.5 234.5 L 168.5 230.5 M 174.5 234.5 L 174.5 230.5 M 181.5 234.5 L 181.5 230.5 M 188.5 234.5 L 188.5 230.5 M 195.5 234.5 L 195.5 230.5 M 201.5 234.5 L 201.5 230.5 M 208.5 234.5 L 208.5 230.5 M 215.5 234.5 L 215.5 230.5 M 221.5 234.5 L 221.5 230.5 M 228.5 234.5 L 228.5 230.5 M 235.5 234.5 L 235.5 230.5 M 242.5 234.5 L 242.5 230.5" stroke-opacity="1" stroke-linejoin="bevel" stroke-miterlimit="10"/><text fill="rgb(68,68,68)" stroke="none" font-family="helvetica" font-size="11px" font-style="normal" font-weight="normal" text-decoration="normal" x="56.926578521728516" y="249" text-anchor="start" dominant-baseline="alphabetic" transform="matrix(1, 0, 0, 1, 0.5, 0.5)" fill-opacity="1">5</text><text fill="none" stroke="rgb(0,0,0)" font-family="helvetica" font-size="11px" font-style="normal" font-weight="normal" text-decoration="normal" x="56.926578521728516" y="249" text-anchor="start" dominant-baseline="alphabetic" transform="matrix(1, 0, 0, 1, 0.5, 0.5)" stroke-opacity="0" stroke-linejoin="bevel" stroke-miterlimit="10">5</text><text fill="rgb(68,68,68)" stroke="none" font-family="helvetica" font-size="11px" font-style="normal" font-weight="normal" text-decoration="normal" x="90.57006072998047" y="249" text-anchor="start" dominant-baseline="alphabetic" transform="matrix(1, 0, 0, 1, 0.5, 0.5)" fill-opacity="1">6</text><text fill="none" stroke="rgb(0,0,0)" font-family="helvetica" font-size="11px" font-style="normal" font-weight="normal" text-decoration="normal" x="90.57006072998047" y="249" text-anchor="start" dominant-baseline="alphabetic" transform="matrix(1, 0, 0, 1, 0.5, 0.5)" stroke-opacity="0" stroke-linejoin="bevel" stroke-miterlimit="10">6</text><text fill="rgb(68,68,68)" stroke="none" font-family="helvetica" font-size="11px" font-style="normal" font-weight="normal" text-decoration="normal" x="124.21354675292969" y="249" text-anchor="start" dominant-baseline="alphabetic" transform="matrix(1, 0, 0, 1, 0.5, 0.5)" fill-opacity="1">7</text><text fill="none" stroke="rgb(0,0,0)" font-family="helvetica" font-size="11px" font-style="normal" font-weight="normal" text-decoration="normal" x="124.21354675292969" y="249" text-anchor="start" dominant-baseline="alphabetic" transform="matrix(1, 0, 0, 1, 0.5, 0.5)" stroke-opacity="0" stroke-linejoin="bevel" stroke-miterlimit="10">7</text><text fill="rgb(68,68,68)" stroke="none" font-family="helvetica" font-size="11px" font-style="normal" font-weight="normal" text-decoration="normal" x="157.85702514648438" y="249" text-anchor="start" dominant-baseline="alphabetic" transform="matrix(1, 0, 0, 1, 0.5, 0.5)" fill-opacity="1">8</text><text fill="none" stroke="rgb(0,0,0)" font-family="helvetica" font-size="11px" font-style="normal" font-weight="normal" text-decoration="normal" x="157.85702514648438" y="249" text-anchor="start" dominant-baseline="alphabetic" transform="matrix(1, 0, 0, 1, 0.5, 0.5)" stroke-opacity="0" stroke-linejoin="bevel" stroke-miterlimit="10">8</text><text fill="rgb(68,68,68)" stroke="none" font-family="helvetica" font-size="11px" font-style="normal" font-weight="normal" text-decoration="normal" x="191.50051879882812" y="249" text-anchor="start" dominant-baseline="alphabetic" transform="matrix(1, 0, 0, 1, 0.5, 0.5)" fill-opacity="1">9</text><text fill="none" stroke="rgb(0,0,0)" font-family="helvetica" font-size="11px" font-style="normal" font-weight="normal" text-decoration="normal" x="191.50051879882812" y="249" text-anchor="start" dominant-baseline="alphabetic" transform="matrix(1, 0, 0, 1, 0.5, 0.5)" stroke-opacity="0" stroke-linejoin="bevel" stroke-miterlimit="10">9</text><text fill="rgb(68,68,68)" stroke="none" font-family="helvetica" font-size="11px" font-style="normal" font-weight="normal" text-decoration="normal" x="222.0851593017578" y="249" text-anchor="start" dominant-baseline="alphabetic" transform="matrix(1, 0, 0, 1, 0.5, 0.5)" fill-opacity="1">10</text><text fill="none" stroke="rgb(0,0,0)" font-family="helvetica" font-size="11px" font-style="normal" font-weight="normal" text-decoration="normal" x="222.0851593017578" y="249" text-anchor="start" dominant-baseline="alphabetic" transform="matrix(1, 0, 0, 1, 0.5, 0.5)" stroke-opacity="0" stroke-linejoin="bevel" stroke-miterlimit="10">10</text><text fill="rgb(68,68,68)" stroke="none" font-family="helvetica" font-size="13px" font-style="italic" font-weight="normal" text-decoration="normal" x="41.7705078125" y="269" text-anchor="start" dominant-baseline="alphabetic" transform="matrix(1, 0, 0, 1, 0.5, 0.5)" fill-opacity="1">Max neutron wall-load (MW/m$^{2}$)</text><text fill="none" stroke="rgb(0,0,0)" font-family="helvetica" font-size="13px" font-style="italic" font-weight="normal" text-decoration="normal" x="41.7705078125" y="269" text-anchor="start" dominant-baseline="alphabetic" transform="matrix(1, 0, 0, 1, 0.5, 0.5)" stroke-opacity="0" stroke-linejoin="bevel" stroke-miterlimit="10">Max neutron wall-load (MW/m$^{2}$)</text><path fill="none" stroke="rgb(0,0,0)" paint-order="fill" d="M 52.5 230.5 L 52.5 27.5" stroke-opacity="1" stroke-linejoin="bevel" stroke-miterlimit="10"/><path fill="none" stroke="rgb(0,0,0)" paint-order="fill" d="M 46.5 221.5 L 54.5 221.5 M 46.5 183.5 L 54.5 183.5 M 46.5 145.5 L 54.5 145.5 M 46.5 107.5 L 54.5 107.5 M 46.5 69.5 L 54.5 69.5 M 46.5 32.5 L 54.5 32.5" stroke-opacity="1" stroke-linejoin="bevel" stroke-miterlimit="10"/><path fill="none" stroke="rgb(0,0,0)" paint-order="fill" d="M 48.5 228.5 L 52.5 228.5 M 48.5 221.5 L 52.5 221.5 M 48.5 213.5 L 52.5 213.5 M 48.5 206.5 L 52.5 206.5 M 48.5 198.5 L 52.5 198.5 M 48.5 191.5 L 52.5 191.5 M 48.5 183.5 L 52.5 183.5 M 48.5 175.5 L 52.5 175.5 M 48.5 168.5 L 52.5 168.5 M 48.5 160.5 L 52.5 160.5 M 48.5 153.5 L 52.5 153.5 M 48.5 145.5 L 52.5 145.5 M 48.5 138.5 L 52.5 138.5 M 48.5 130.5 L 52.5 130.5 M 48.5 122.5 L 52.5 122.5 M 48.5 115.5 L 52.5 115.5 M 48.5 107.5 L 52.5 107.5 M 48.5 100.5 L 52.5 100.5 M 48.5 92.5 L 52.5 92.5 M 48.5 85.5 L 52.5 85.5 M 48.5 77.5 L 52.5 77.5 M 48.5 69.5 L 52.5 69.5 M 48.5 62.5 L 52.5 62.5 M 48.5 54.5 L 52.5 54.5 M 48.5 47.5 L 52.5 47.5 M 48.5 39.5 L 52.5 39.5 M 48.5 32.5 L 52.5 32.5" stroke-opacity="1" stroke-linejoin="bevel" stroke-miterlimit="10"/><text fill="rgb(68,68,68)" stroke="none" font-family="helvetica" font-size="11px" font-style="normal" font-weight="normal" text-decoration="normal" x="34.88232421875" y="224.77272033691406" text-anchor="start" dominant-baseline="alphabetic" transform="matrix(1, 0, 0, 1, 0.5, 0.5)" fill-opacity="1">0</text><text fill="none" stroke="rgb(0,0,0)" font-family="helvetica" font-size="11px" font-style="normal" font-weight="normal" text-decoration="normal" x="34.88232421875" y="224.77272033691406" text-anchor="start" dominant-baseline="alphabetic" transform="matrix(1, 0, 0, 1, 0.5, 0.5)" stroke-opacity="0" stroke-linejoin="bevel" stroke-miterlimit="10">0</text><text fill="rgb(68,68,68)" stroke="none" font-family="helvetica" font-size="11px" font-style="normal" font-weight="normal" text-decoration="normal" x="25.70849609375" y="186.94186401367188" text-anchor="start" dominant-baseline="alphabetic" transform="matrix(1, 0, 0, 1, 0.5, 0.5)" fill-opacity="1">0.2</text><text fill="none" stroke="rgb(0,0,0)" font-family="helvetica" font-size="11px" font-style="normal" font-weight="normal" text-decoration="normal" x="25.70849609375" y="186.94186401367188" text-anchor="start" dominant-baseline="alphabetic" transform="matrix(1, 0, 0, 1, 0.5, 0.5)" stroke-opacity="0" stroke-linejoin="bevel" stroke-miterlimit="10">0.2</text><text fill="rgb(68,68,68)" stroke="none" font-family="helvetica" font-size="11px" font-style="normal" font-weight="normal" text-decoration="normal" x="25.70849609375" y="149.1110076904297" text-anchor="start" dominant-baseline="alphabetic" transform="matrix(1, 0, 0, 1, 0.5, 0.5)" fill-opacity="1">0.4</text><text fill="none" stroke="rgb(0,0,0)" font-family="helvetica" font-size="11px" font-style="normal" font-weight="normal" text-decoration="normal" x="25.70849609375" y="149.1110076904297" text-anchor="start" dominant-baseline="alphabetic" transform="matrix(1, 0, 0, 1, 0.5, 0.5)" stroke-opacity="0" stroke-linejoin="bevel" stroke-miterlimit="10">0.4</text><text fill="rgb(68,68,68)" stroke="none" font-family="helvetica" font-size="11px" font-style="normal" font-weight="normal" text-decoration="normal" x="25.70849609375" y="111.28014373779297" text-anchor="start" dominant-baseline="alphabetic" transform="matrix(1, 0, 0, 1, 0.5, 0.5)" fill-opacity="1">0.6</text><text fill="none" stroke="rgb(0,0,0)" font-family="helvetica" font-size="11px" font-style="normal" font-weight="normal" text-decoration="normal" x="25.70849609375" y="111.28014373779297" text-anchor="start" dominant-baseline="alphabetic" transform="matrix(1, 0, 0, 1, 0.5, 0.5)" stroke-opacity="0" stroke-linejoin="bevel" stroke-miterlimit="10">0.6</text><text fill="rgb(68,68,68)" stroke="none" font-family="helvetica" font-size="11px" font-style="normal" font-weight="normal" text-decoration="normal" x="25.70849609375" y="73.44928741455078" text-anchor="start" dominant-baseline="alphabetic" transform="matrix(1, 0, 0, 1, 0.5, 0.5)" fill-opacity="1">0.8</text><text fill="none" stroke="rgb(0,0,0)" font-family="helvetica" font-size="11px" font-style="normal" font-weight="normal" text-decoration="normal" x="25.70849609375" y="73.44928741455078" text-anchor="start" dominant-baseline="alphabetic" transform="matrix(1, 0, 0, 1, 0.5, 0.5)" stroke-opacity="0" stroke-linejoin="bevel" stroke-miterlimit="10">0.8</text><text fill="rgb(68,68,68)" stroke="none" font-family="helvetica" font-size="11px" font-style="normal" font-weight="normal" text-decoration="normal" x="34.88232421875" y="35.618425369262695" text-anchor="start" dominant-baseline="alphabetic" transform="matrix(1, 0, 0, 1, 0.5, 0.5)" fill-opacity="1">1</text><text fill="none" stroke="rgb(0,0,0)" font-family="helvetica" font-size="11px" font-style="normal" font-weight="normal" text-decoration="normal" x="34.88232421875" y="35.618425369262695" text-anchor="start" dominant-baseline="alphabetic" transform="matrix(1, 0, 0, 1, 0.5, 0.5)" stroke-opacity="0" stroke-linejoin="bevel" stroke-miterlimit="10">1</text><text fill="rgb(68,68,68)" stroke="none" font-family="helvetica" font-size="13px" font-style="italic" font-weight="normal" text-decoration="normal" x="-47.31689453125" y="125.5" text-anchor="start" dominant-baseline="alphabetic" transform="matrix(6.123233995736766e-17, -1, 1, 6.123233995736766e-17, -110.29150390625, 146.70849609375)" fill-opacity="1">Normalised Probability</text><text fill="none" stroke="rgb(0,0,0)" font-family="helvetica" font-size="13px" font-style="italic" font-weight="normal" text-decoration="normal" x="-47.31689453125" y="125.5" text-anchor="start" dominant-baseline="alphabetic" transform="matrix(6.123233995736766e-17, -1, 1, 6.123233995736766e-17, -110.29150390625, 146.70849609375)" stroke-opacity="0" stroke-linejoin="bevel" stroke-miterlimit="10">Normalised Probability</text><path fill="rgb(255,249,186)" stroke="rgb(255,0,0)" paint-order="fill" d="M 141.96352992119557 36.72727272727272 L 141.96352992119557 36.72727272727272 L 141.96352992119557 221.27272727272728 L 141.96352992119557 221.27272727272728 L 141.96352992119557 36.72727272727272 Z" fill-opacity="0.4" clip-path="url(#naSOQCQncUws)" stroke-opacity="1" stroke-linejoin="bevel" stroke-miterlimit="10" stroke-width="2" stroke-dasharray="6"/><path fill="rgb(255,249,186)" stroke="rgb(50,205,50)" paint-order="fill" d="M 200.72173435254 36.72727272727272 L 200.72173435254 36.72727272727272 L 200.72173435254 221.27272727272728 L 200.72173435254 221.27272727272728 L 200.72173435254 36.72727272727272 Z" fill-opacity="0.4" clip-path="url(#ykglhUzphJCy)" stroke-opacity="1" stroke-linejoin="bevel" stroke-miterlimit="10" stroke-width="2" stroke-dasharray="6"/><text fill="rgb(68,68,68)" stroke="none" font-family="helvetica" font-size="13px" font-style="normal" font-weight="bold" text-decoration="normal" x="52" y="19" text-anchor="start" dominant-baseline="alphabetic" transform="matrix(1, 0, 0, 1, 0.5, 0.5)" fill-opacity="1">Convergance Probability</text><text fill="none" stroke="rgb(0,0,0)" font-family="helvetica" font-size="13px" font-style="normal" font-weight="bold" text-decoration="normal" x="52" y="19" text-anchor="start" dominant-baseline="alphabetic" transform="matrix(1, 0, 0, 1, 0.5, 0.5)" stroke-opacity="0" stroke-miterlimit="10" stroke-dasharray="">Convergance Probability</text></svg>